<svg width="399" height="176" viewBox="0 0 399 176" fill="none" xmlns="http://www.w3.org/2000/svg">
<g clip-path="url(#clip0_5919_91234)">
<path d="M1.02952 87.1246C0.737072 87.1246 0.5 87.3616 0.5 87.6541C0.5 87.9465 0.737072 88.1836 1.02952 88.1836L397.97 88.1836C398.263 88.1836 398.5 87.9465 398.5 87.6541C398.5 87.3616 398.263 87.1246 397.97 87.1246L1.02952 87.1246Z" fill="#373945" stroke="#373945"/>
<path d="M199.004 87.8672L280.915 125.959H398.001" stroke="#FF526D" stroke-width="3"/>
<path d="M397.499 87.8672H199.004L280.915 125.959H397.499V87.8672Z" fill="#FF526D" fill-opacity="0.1"/>
<path d="M0.996094 87.9522H200.496L91.952 33.9023H0.996094V87.9522Z" fill="#00C288" fill-opacity="0.1"/>
<path d="M200.505 87.9513L91.4585 33.3867H0" stroke="#00C288" stroke-width="3"/>
<path d="M109.036 98.4102L109.036 98.4102C108.757 98.4102 108.531 98.184 108.531 97.9051L108.531 75.2067C108.531 74.9278 108.757 74.7017 109.036 74.7017C109.315 74.7017 109.541 74.9278 109.541 75.2067L109.541 97.9051C109.541 98.184 109.315 98.4102 109.036 98.4102Z" fill="#373945" stroke="#373945"/>
<path d="M69.4619 118.752C68.9262 118.752 68.4393 118.672 68.001 118.512C67.5628 118.352 67.1871 118.122 66.8741 117.823C66.5645 117.524 66.3245 117.159 66.1541 116.728C65.9836 116.3 65.8984 115.816 65.8984 115.277C65.8984 114.724 65.9784 114.176 66.1384 113.634C66.3019 113.091 66.5454 112.576 66.8688 112.089L67.8967 112.835C67.8341 112.922 67.7558 113.051 67.6619 113.222C67.5715 113.392 67.4845 113.589 67.401 113.811C67.3175 114.034 67.2445 114.274 67.1819 114.531C67.1228 114.789 67.0932 115.048 67.0932 115.309C67.0932 115.618 67.1575 115.9 67.2862 116.154C67.4184 116.408 67.5958 116.625 67.8184 116.806C68.041 116.99 68.2984 117.133 68.5906 117.234C68.8862 117.338 69.1975 117.394 69.5245 117.401C69.5419 117.401 69.5593 117.401 69.5767 117.401C69.8201 117.401 70.0584 117.376 70.2915 117.328C70.528 117.282 70.7523 117.211 70.9645 117.114C71.1767 117.02 71.3697 116.905 71.5436 116.769C71.7175 116.634 71.8654 116.482 71.9871 116.315C72.1088 116.149 72.2028 115.968 72.2688 115.773C72.321 115.606 72.3471 115.432 72.3471 115.251C72.3471 115.223 72.3471 115.194 72.3471 115.162C72.3401 115.002 72.3123 114.825 72.2636 114.63C72.2184 114.432 72.1628 114.232 72.0967 114.03C72.0306 113.829 71.9593 113.632 71.8828 113.441C71.8097 113.246 71.7402 113.074 71.6741 112.924C71.608 112.775 71.5523 112.655 71.5071 112.564C71.4619 112.474 71.4375 112.429 71.4341 112.429L72.6602 111.745C72.6706 111.762 72.7071 111.851 72.7697 112.011C72.8358 112.168 72.9193 112.364 73.0201 112.601C73.1523 112.903 73.281 113.138 73.4062 113.305C73.5349 113.469 73.6601 113.59 73.7819 113.67C73.9036 113.747 74.0219 113.792 74.1367 113.806C74.2549 113.82 74.368 113.827 74.4758 113.827H74.648V115.162H74.4758C74.288 115.162 74.1175 115.143 73.9645 115.105C73.8115 115.07 73.6793 115.022 73.568 114.959C73.5715 115.025 73.5732 115.091 73.5732 115.157C73.5732 115.408 73.5488 115.67 73.5002 115.945C73.4515 116.223 73.3593 116.503 73.2236 116.785C73.0915 117.067 72.9158 117.328 72.6967 117.568C72.4775 117.808 72.2132 118.015 71.9036 118.189C71.5975 118.366 71.241 118.503 70.8341 118.601C70.4271 118.702 69.9697 118.752 69.4619 118.752ZM70.6358 111.63L69.6341 112.632L68.6375 111.63L69.6341 110.634L70.6358 111.63ZM76.3098 117.302L75.4229 118.189L74.5255 117.296L75.4124 116.404L76.3098 117.302ZM74.9168 113.827C75.1881 113.827 75.4472 113.815 75.6942 113.79C75.9446 113.766 76.1655 113.715 76.3568 113.639C76.5516 113.559 76.7064 113.448 76.8211 113.305C76.9394 113.159 77.0038 112.968 77.0142 112.731C76.9968 112.456 76.9759 112.269 76.9516 112.168C76.9307 112.063 76.9029 111.95 76.8681 111.829C76.8333 111.707 76.7933 111.566 76.7481 111.406L78.0264 111.046C78.0716 111.213 78.1081 111.366 78.1359 111.505C78.1638 111.641 78.1864 111.773 78.2038 111.902C78.2211 112.027 78.2351 112.155 78.2455 112.288C78.2594 112.42 78.2733 112.566 78.2872 112.726C78.2977 112.844 78.3133 112.969 78.3342 113.102C78.3551 113.23 78.3898 113.349 78.4385 113.456C78.4907 113.564 78.5603 113.653 78.6472 113.722C78.7377 113.792 78.8559 113.827 79.002 113.827H80.0194C80.1898 113.827 80.3707 113.822 80.562 113.811C80.7533 113.797 80.9359 113.773 81.1098 113.738C81.2872 113.7 81.4472 113.649 81.5898 113.587C81.7324 113.521 81.8385 113.437 81.9081 113.336C81.9603 113.26 81.9864 113.157 81.9864 113.029C81.9898 112.9 81.9724 112.759 81.9342 112.606C81.8994 112.453 81.8507 112.293 81.7881 112.126C81.729 111.955 81.6646 111.792 81.5951 111.635C81.5255 111.475 81.4559 111.326 81.3864 111.187C81.3203 111.044 81.2646 110.924 81.2194 110.827L82.4351 110.227C82.529 110.394 82.6211 110.595 82.7116 110.832C82.8055 111.065 82.8872 111.307 82.9568 111.557C83.0264 111.808 83.082 112.055 83.1238 112.298C83.169 112.542 83.1916 112.757 83.1916 112.945C83.1916 113.282 83.1342 113.583 83.0194 113.848C82.8872 114.154 82.7011 114.406 82.4611 114.604C82.2211 114.799 81.9359 114.945 81.6055 115.042C81.5046 115.07 81.3777 115.091 81.2246 115.105C81.0751 115.122 80.922 115.135 80.7655 115.142C80.609 115.152 80.4594 115.157 80.3168 115.157C80.1777 115.161 80.0698 115.162 79.9933 115.162H79.0072C78.6664 115.162 78.3777 115.107 78.1411 114.995C77.9081 114.884 77.7116 114.74 77.5516 114.562C77.4055 114.674 77.2316 114.768 77.0298 114.844C76.8316 114.921 76.6159 114.982 76.3829 115.027C76.1498 115.075 75.9081 115.11 75.6577 115.131C75.4072 115.152 75.1603 115.162 74.9168 115.162H74.4524V113.827H74.9168ZM83.1916 116.759L82.3046 117.651L81.4072 116.754L82.2942 115.867L83.1916 116.759ZM81.2194 116.754L80.3324 117.641L79.4351 116.749L80.322 115.856L81.2194 116.754ZM78.282 117.307L77.3951 118.199L76.4977 117.302L77.3846 116.415L78.282 117.307ZM87.3387 115.162H87.13C86.4239 115.162 85.8882 114.985 85.523 114.63C85.1578 114.275 84.9735 113.74 84.97 113.023C84.97 112.912 84.9735 112.729 84.9804 112.475C84.9874 112.218 84.9908 111.905 84.9908 111.536C84.9908 111.317 84.9891 111.082 84.9856 110.832C84.9821 110.578 84.9769 110.321 84.97 110.06C84.963 109.795 84.9526 109.533 84.9387 109.272C84.9282 109.008 84.9143 108.754 84.8969 108.51C84.8795 108.263 84.8587 108.034 84.8343 107.822C84.81 107.606 84.7821 107.416 84.7508 107.253L86.0604 106.862C86.0987 107.063 86.1335 107.31 86.1648 107.602C86.1961 107.891 86.2239 108.201 86.2482 108.531C86.2726 108.862 86.29 109.199 86.3004 109.543C86.3143 109.884 86.3213 110.206 86.3213 110.509C86.3213 110.693 86.323 110.889 86.3265 111.098C86.33 111.303 86.3317 111.484 86.3317 111.641C86.3317 111.773 86.33 111.898 86.3265 112.016C86.3265 112.131 86.3248 112.242 86.3213 112.35C86.3213 112.458 86.3195 112.564 86.3161 112.669C86.3161 112.773 86.3161 112.879 86.3161 112.987C86.3161 113.015 86.3161 113.042 86.3161 113.07C86.3161 113.195 86.3282 113.307 86.3526 113.404C86.3804 113.502 86.4274 113.583 86.4935 113.649C86.5595 113.712 86.643 113.757 86.7439 113.785C86.8482 113.813 86.9682 113.827 87.1039 113.827H87.3387V115.162ZM87.1321 113.827H88.2434C88.4069 113.827 88.5826 113.818 88.7704 113.801C88.9617 113.78 89.1374 113.74 89.2974 113.681C89.4608 113.618 89.5947 113.529 89.6991 113.415C89.8069 113.3 89.8608 113.147 89.8608 112.955C89.8608 112.865 89.8417 112.738 89.8034 112.575C89.7652 112.411 89.7147 112.23 89.6521 112.032C89.5895 111.834 89.5147 111.629 89.4278 111.416C89.3443 111.204 89.2556 111.006 89.1617 110.822L90.3669 110.227C90.4539 110.425 90.5408 110.635 90.6278 110.858C90.7147 111.081 90.7913 111.31 90.8574 111.547C90.9269 111.78 90.9826 112.015 91.0243 112.251C91.066 112.488 91.0869 112.719 91.0869 112.945C91.0869 113.349 91.0121 113.691 90.8626 113.973C90.713 114.255 90.5078 114.484 90.2469 114.662C89.9895 114.835 89.6869 114.962 89.3391 115.042C88.9947 115.122 88.626 115.162 88.233 115.162H87.1321V113.827ZM89.3287 116.942L90.2156 116.055L91.113 116.947L90.226 117.839L89.3287 116.942ZM87.3565 116.936L88.2434 116.044L89.1408 116.942L88.2539 117.829L87.3565 116.936ZM90.0487 118.449L89.2347 119.263L88.4156 118.444L89.2347 117.63L90.0487 118.449ZM97.3299 113.357C97.1247 113.663 96.9734 113.997 96.876 114.359C96.7786 114.721 96.7299 115.081 96.7299 115.439C96.7299 115.724 96.796 115.978 96.9282 116.201C97.0603 116.427 97.229 116.616 97.4343 116.769C97.6395 116.926 97.8673 117.044 98.1177 117.124C98.3682 117.208 98.6117 117.249 98.8482 117.249C99.0882 117.249 99.3369 117.208 99.5943 117.124C99.8551 117.044 100.093 116.915 100.309 116.738C100.524 116.564 100.702 116.338 100.841 116.06C100.98 115.785 101.05 115.451 101.05 115.058C101.05 114.783 101.044 114.46 101.034 114.088C101.024 113.715 101.01 113.321 100.992 112.903C100.978 112.482 100.961 112.049 100.94 111.604C100.919 111.159 100.898 110.724 100.878 110.3C100.853 109.802 100.824 109.284 100.789 108.745C100.758 108.202 100.726 107.66 100.695 107.117L102.057 106.862C102.081 107.432 102.105 107.999 102.13 108.562C102.158 109.122 102.18 109.662 102.198 110.18C102.211 110.622 102.225 111.074 102.239 111.536C102.257 111.999 102.271 112.448 102.281 112.882C102.295 113.314 102.305 113.719 102.312 114.098C102.323 114.477 102.328 114.804 102.328 115.079C102.328 115.517 102.276 115.909 102.171 116.253C102.071 116.597 101.933 116.898 101.759 117.155C101.585 117.416 101.382 117.637 101.149 117.818C100.919 117.999 100.676 118.147 100.418 118.262C100.164 118.376 99.9056 118.458 99.6412 118.507C99.3769 118.559 99.123 118.585 98.8795 118.585C98.6464 118.585 98.4012 118.559 98.1438 118.507C97.8899 118.455 97.6377 118.375 97.3873 118.267C97.1369 118.159 96.8986 118.02 96.6725 117.849C96.4464 117.682 96.2464 117.482 96.0725 117.249C95.9021 117.016 95.7682 116.749 95.6708 116.446C95.5734 116.157 95.5247 115.832 95.5247 115.47C95.5247 115.46 95.5247 115.448 95.5247 115.434C95.5247 115.211 95.5369 114.983 95.5612 114.75C95.589 114.517 95.6308 114.288 95.6864 114.062C95.7421 113.835 95.8117 113.618 95.8951 113.409C95.9786 113.201 96.0812 113.009 96.203 112.835L97.3299 113.357ZM106.358 115.162H106.149C105.443 115.162 104.908 114.985 104.542 114.63C104.177 114.275 103.993 113.74 103.989 113.023C103.989 112.912 103.993 112.729 104 112.475C104.007 112.218 104.01 111.905 104.01 111.536C104.01 111.317 104.008 111.082 104.005 110.832C104.001 110.578 103.996 110.321 103.989 110.06C103.982 109.795 103.972 109.533 103.958 109.272C103.948 109.008 103.934 108.754 103.916 108.51C103.899 108.263 103.878 108.034 103.854 107.822C103.829 107.606 103.801 107.416 103.77 107.253L105.08 106.862C105.118 107.063 105.153 107.31 105.184 107.602C105.215 107.891 105.243 108.201 105.268 108.531C105.292 108.862 105.309 109.199 105.32 109.543C105.334 109.884 105.341 110.206 105.341 110.509C105.341 110.693 105.342 110.889 105.346 111.098C105.349 111.303 105.351 111.484 105.351 111.641C105.351 111.773 105.349 111.898 105.346 112.016C105.346 112.131 105.344 112.242 105.341 112.35C105.341 112.458 105.339 112.564 105.335 112.669C105.335 112.773 105.335 112.879 105.335 112.987C105.335 113.015 105.335 113.042 105.335 113.07C105.335 113.195 105.348 113.307 105.372 113.404C105.4 113.502 105.447 113.583 105.513 113.649C105.579 113.712 105.662 113.757 105.763 113.785C105.868 113.813 105.988 113.827 106.123 113.827H106.358V115.162ZM108.765 113.122C108.88 113.171 109.028 113.232 109.209 113.305C109.39 113.378 109.585 113.451 109.793 113.524C110.002 113.597 110.212 113.663 110.425 113.722C110.64 113.778 110.837 113.813 111.014 113.827C110.979 113.681 110.943 113.529 110.905 113.373C110.87 113.213 110.83 113.058 110.785 112.909C110.739 112.759 110.689 112.618 110.633 112.486C110.578 112.35 110.511 112.232 110.435 112.131C110.362 112.03 110.277 111.95 110.179 111.891C110.082 111.832 109.972 111.802 109.851 111.802C109.711 111.802 109.586 111.848 109.475 111.938C109.367 112.029 109.268 112.142 109.178 112.277C109.091 112.409 109.012 112.552 108.943 112.705C108.877 112.858 108.818 112.997 108.765 113.122ZM110.748 115.147C110.567 115.143 110.355 115.117 110.111 115.069C109.868 115.023 109.619 114.962 109.365 114.886C109.115 114.809 108.873 114.722 108.64 114.625C108.411 114.528 108.216 114.425 108.056 114.317C107.92 114.453 107.788 114.573 107.659 114.677C107.531 114.782 107.397 114.87 107.258 114.943C107.118 115.013 106.967 115.067 106.804 115.105C106.644 115.143 106.461 115.162 106.256 115.162H106.151V113.827H106.256C106.51 113.827 106.722 113.78 106.892 113.686C107.063 113.589 107.209 113.463 107.331 113.31C107.452 113.157 107.558 112.985 107.649 112.794C107.743 112.602 107.838 112.411 107.936 112.22C108.033 112.018 108.145 111.816 108.27 111.615C108.395 111.413 108.536 111.232 108.692 111.072C108.852 110.909 109.031 110.776 109.23 110.675C109.428 110.575 109.651 110.524 109.898 110.524C110.221 110.524 110.492 110.582 110.711 110.696C110.934 110.808 111.118 110.962 111.265 111.161C111.414 111.355 111.532 111.585 111.619 111.849C111.706 112.114 111.779 112.399 111.838 112.705C111.873 112.882 111.906 113.041 111.938 113.18C111.969 113.315 112.004 113.432 112.042 113.529C112.084 113.627 112.127 113.702 112.172 113.754C112.221 113.802 112.278 113.827 112.345 113.827H112.506V115.162H112.308C112.117 115.159 111.946 115.107 111.797 115.006C111.651 114.902 111.515 114.764 111.39 114.594C111.351 114.629 111.306 114.675 111.254 114.735C111.205 114.794 111.151 114.853 111.092 114.912C111.037 114.968 110.979 115.018 110.92 115.063C110.861 115.109 110.804 115.136 110.748 115.147ZM116.967 112.1C116.842 111.954 116.696 111.822 116.529 111.703C116.389 111.602 116.228 111.512 116.043 111.432C115.859 111.349 115.657 111.307 115.438 111.307C115.261 111.307 115.104 111.335 114.969 111.39C114.833 111.442 114.718 111.515 114.624 111.609C114.53 111.7 114.457 111.806 114.405 111.928C114.353 112.049 114.322 112.18 114.311 112.319C114.308 112.343 114.306 112.368 114.306 112.392C114.306 112.555 114.349 112.715 114.436 112.872C114.523 113.025 114.645 113.162 114.802 113.284C114.958 113.402 115.139 113.493 115.344 113.555C115.511 113.608 115.68 113.634 115.85 113.634C115.889 113.634 115.927 113.632 115.965 113.629C116.167 113.615 116.369 113.594 116.57 113.566C116.776 113.535 116.962 113.505 117.129 113.477L117.687 113.368L117.849 114.667C117.633 114.722 117.391 114.78 117.123 114.839C116.856 114.898 116.548 114.952 116.2 115.001C115.856 115.046 115.464 115.084 115.026 115.115C114.588 115.147 114.09 115.162 113.534 115.162H112.292V113.827H112.522L113.518 113.822C113.33 113.602 113.202 113.378 113.132 113.149C113.066 112.915 113.033 112.66 113.033 112.382C113.033 112.055 113.094 111.745 113.216 111.453C113.337 111.161 113.504 110.905 113.716 110.686C113.932 110.467 114.186 110.293 114.478 110.164C114.774 110.035 115.094 109.971 115.438 109.971C115.609 109.971 115.772 109.987 115.929 110.018C116.089 110.049 116.24 110.091 116.383 110.143C116.525 110.195 116.659 110.255 116.784 110.321C116.913 110.387 117.029 110.453 117.134 110.519C117.256 110.599 117.374 110.684 117.489 110.775C117.603 110.865 117.711 110.961 117.812 111.062L116.967 112.1ZM120.383 106.862C120.47 107.526 120.531 108.161 120.566 108.766C120.6 109.368 120.621 109.957 120.628 110.535C120.635 111.025 120.637 111.479 120.633 111.896C120.633 112.314 120.63 112.703 120.623 113.065C120.616 113.423 120.606 113.759 120.592 114.072C120.578 114.382 120.564 114.672 120.55 114.943L119.183 115.152C119.256 114.004 119.293 112.99 119.293 112.11C119.293 111.755 119.287 111.423 119.277 111.114C119.249 110.401 119.218 109.731 119.183 109.105C119.148 108.475 119.101 107.874 119.042 107.3L120.383 106.862ZM136.761 115.162C136.472 115.162 136.21 115.138 135.973 115.089C135.74 115.041 135.528 114.964 135.337 114.86C135.145 114.752 134.975 114.616 134.825 114.453C134.676 114.286 134.544 114.086 134.429 113.853C133.472 114.736 132.041 115.178 130.135 115.178C129.046 115.171 128.145 115.037 127.432 114.776C126.723 114.512 126.199 114.107 125.862 113.561C125.716 113.3 125.615 113.029 125.559 112.747C125.518 112.542 125.497 112.336 125.497 112.131C125.497 112.051 125.502 111.921 125.512 111.74C125.526 111.559 125.577 111.333 125.664 111.062C125.751 110.787 125.865 110.528 126.008 110.284L127.015 110.915C126.914 111.082 126.831 111.249 126.764 111.416C126.698 111.583 126.657 111.75 126.639 111.917C126.632 111.98 126.629 112.042 126.629 112.105C126.629 112.209 126.641 112.329 126.665 112.465C126.693 112.601 126.759 112.75 126.864 112.914C126.961 113.077 127.109 113.216 127.307 113.331C127.505 113.446 127.745 113.54 128.027 113.613C128.312 113.686 128.632 113.74 128.987 113.775C129.342 113.809 129.724 113.827 130.135 113.827C130.507 113.827 130.86 113.813 131.194 113.785C131.528 113.757 131.838 113.714 132.123 113.655C132.411 113.592 132.672 113.514 132.905 113.42C133.138 113.322 133.338 113.204 133.505 113.065C133.658 112.947 133.782 112.809 133.876 112.653C133.97 112.496 134.048 112.333 134.111 112.162C134.173 111.989 134.225 111.811 134.267 111.63C134.309 111.449 134.354 111.275 134.403 111.109L135.603 111.432C135.537 111.616 135.484 111.804 135.446 111.995C135.411 112.169 135.394 112.338 135.394 112.502C135.394 112.519 135.394 112.576 135.394 112.674C135.394 112.768 135.418 112.893 135.467 113.049C135.516 113.202 135.594 113.338 135.702 113.456C135.81 113.571 135.951 113.662 136.124 113.728C136.302 113.794 136.518 113.827 136.771 113.827H136.959V115.162H136.761ZM130.474 109.862L129.587 110.749L128.69 109.856L129.577 108.964L130.474 109.862ZM132.446 109.867L131.559 110.759L130.662 109.862L131.549 108.975L132.446 109.867ZM139.363 113.122C139.478 113.171 139.626 113.232 139.807 113.305C139.987 113.378 140.182 113.451 140.391 113.524C140.6 113.597 140.81 113.663 141.022 113.722C141.238 113.778 141.434 113.813 141.612 113.827C141.577 113.681 141.54 113.529 141.502 113.373C141.467 113.213 141.427 113.058 141.382 112.909C141.337 112.759 141.287 112.618 141.231 112.486C141.175 112.35 141.109 112.232 141.033 112.131C140.96 112.03 140.874 111.95 140.777 111.891C140.68 111.832 140.57 111.802 140.448 111.802C140.309 111.802 140.184 111.848 140.073 111.938C139.965 112.029 139.866 112.142 139.775 112.277C139.688 112.409 139.61 112.552 139.54 112.705C139.474 112.858 139.415 112.997 139.363 113.122ZM141.346 115.147C141.165 115.143 140.953 115.117 140.709 115.069C140.466 115.023 140.217 114.962 139.963 114.886C139.713 114.809 139.471 114.722 139.238 114.625C139.008 114.528 138.813 114.425 138.653 114.317C138.518 114.453 138.386 114.573 138.257 114.677C138.128 114.782 137.994 114.87 137.855 114.943C137.716 115.013 137.565 115.067 137.401 115.105C137.241 115.143 137.059 115.162 136.853 115.162H136.749V113.827H136.853C137.107 113.827 137.32 113.78 137.49 113.686C137.66 113.589 137.807 113.463 137.928 113.31C138.05 113.157 138.156 112.985 138.247 112.794C138.34 112.602 138.436 112.411 138.533 112.22C138.631 112.018 138.742 111.816 138.867 111.615C138.993 111.413 139.133 111.232 139.29 111.072C139.45 110.909 139.629 110.776 139.827 110.675C140.026 110.575 140.248 110.524 140.495 110.524C140.819 110.524 141.09 110.582 141.309 110.696C141.532 110.808 141.716 110.962 141.862 111.161C142.012 111.355 142.13 111.585 142.217 111.849C142.304 112.114 142.377 112.399 142.436 112.705C142.471 112.882 142.504 113.041 142.535 113.18C142.567 113.315 142.601 113.432 142.64 113.529C142.681 113.627 142.725 113.702 142.77 113.754C142.819 113.802 142.876 113.827 142.942 113.827H143.104V115.162H142.906C142.714 115.159 142.544 115.107 142.394 115.006C142.248 114.902 142.113 114.764 141.987 114.594C141.949 114.629 141.904 114.675 141.852 114.735C141.803 114.794 141.749 114.853 141.69 114.912C141.634 114.968 141.577 115.018 141.518 115.063C141.459 115.109 141.401 115.136 141.346 115.147ZM147.544 113.827V115.162H147.439C147.102 115.162 146.817 115.109 146.584 115.001C146.351 114.893 146.152 114.754 145.989 114.583C145.874 114.729 145.704 114.842 145.478 114.922C145.255 114.999 145.006 115.055 144.731 115.089C144.457 115.128 144.173 115.149 143.881 115.152C143.592 115.159 143.326 115.162 143.083 115.162H142.89V113.827H143.083C143.49 113.827 143.832 113.804 144.111 113.759C144.389 113.71 144.613 113.641 144.784 113.55C144.958 113.46 145.083 113.347 145.159 113.211C145.236 113.072 145.274 112.912 145.274 112.731C145.274 112.613 145.251 112.456 145.206 112.262C145.161 112.063 145.093 111.809 145.003 111.5L146.286 111.14C146.331 111.293 146.366 111.429 146.391 111.547C146.418 111.662 146.439 111.778 146.453 111.896C146.471 112.011 146.485 112.136 146.495 112.272C146.509 112.404 146.523 112.562 146.537 112.747C146.547 112.858 146.573 112.978 146.615 113.107C146.657 113.232 146.714 113.349 146.787 113.456C146.864 113.561 146.956 113.649 147.064 113.722C147.171 113.792 147.297 113.827 147.439 113.827H147.544ZM144.831 116.707L143.944 117.594L143.046 116.702L143.933 115.809L144.831 116.707ZM146.803 116.712L145.916 117.604L145.018 116.707L145.905 115.82L146.803 116.712ZM147.456 113.827C147.822 113.827 148.173 113.816 148.51 113.795C148.848 113.771 149.156 113.738 149.434 113.696C149.712 113.655 149.952 113.604 150.154 113.545C150.356 113.486 150.507 113.42 150.608 113.347H150.075C149.769 113.347 149.477 113.309 149.199 113.232C148.924 113.152 148.682 113.034 148.474 112.877C148.265 112.721 148.098 112.526 147.973 112.293C147.851 112.056 147.79 111.782 147.79 111.469C147.79 111.284 147.809 111.095 147.848 110.9C147.886 110.705 147.943 110.515 148.02 110.331C148.096 110.147 148.189 109.973 148.296 109.809C148.404 109.646 148.528 109.503 148.667 109.382C148.806 109.256 148.959 109.159 149.126 109.089C149.293 109.016 149.474 108.98 149.669 108.98C149.909 108.98 150.133 109.03 150.342 109.131C150.55 109.232 150.74 109.369 150.91 109.543C151.081 109.714 151.232 109.912 151.364 110.138C151.496 110.364 151.608 110.602 151.698 110.853C151.789 111.103 151.856 111.359 151.902 111.62C151.95 111.877 151.975 112.122 151.975 112.355C151.975 112.752 151.919 113.096 151.808 113.389C151.7 113.681 151.547 113.931 151.349 114.14C151.154 114.349 150.919 114.519 150.644 114.651C150.373 114.783 150.072 114.888 149.742 114.964C149.411 115.041 149.056 115.093 148.677 115.121C148.302 115.149 147.912 115.162 147.509 115.162H147.331V113.827H147.456ZM149.669 110.326C149.651 110.322 149.634 110.321 149.616 110.321C149.547 110.321 149.467 110.349 149.376 110.404C149.286 110.46 149.199 110.54 149.116 110.644C149.032 110.749 148.964 110.867 148.912 110.999C148.86 111.128 148.834 111.255 148.834 111.38C148.834 111.387 148.834 111.394 148.834 111.401C148.834 111.526 148.862 111.629 148.917 111.709C148.973 111.785 149.048 111.844 149.142 111.886C149.239 111.928 149.35 111.957 149.476 111.975C149.604 111.992 149.74 112.004 149.882 112.011C149.976 112.015 150.074 112.016 150.175 112.016C150.223 112.016 150.298 112.016 150.399 112.016C150.503 112.013 150.609 112.008 150.717 112.001C150.686 111.875 150.641 111.721 150.582 111.536C150.526 111.349 150.455 111.168 150.368 110.994C150.284 110.816 150.183 110.663 150.065 110.535C149.95 110.406 149.818 110.336 149.669 110.326ZM149.543 107.409L148.656 108.296L147.759 107.404L148.646 106.512L149.543 107.409ZM151.516 107.415L150.629 108.307L149.731 107.409L150.618 106.522L151.516 107.415Z" fill="#A6A9AD"/>
<path d="M302.595 99.5078L302.595 99.5078C302.316 99.5078 302.09 99.2817 302.09 99.0028L302.09 76.3043C302.09 76.0254 302.316 75.7993 302.595 75.7993C302.874 75.7993 303.1 76.0254 303.1 76.3043L303.1 99.0028C303.1 99.2817 302.874 99.5078 302.595 99.5078Z" fill="#373945" stroke="#373945"/>
<path d="M302.465 154.357V22.5781" stroke="#373945" stroke-dasharray="6 6"/>
<path d="M278.709 167.545C278.841 167.628 278.999 167.713 279.184 167.8C279.371 167.887 279.564 167.965 279.763 168.035C279.964 168.105 280.161 168.162 280.352 168.207C280.547 168.252 280.717 168.275 280.864 168.275C280.923 168.275 280.996 168.273 281.083 168.27C281.17 168.266 281.262 168.259 281.359 168.249C281.457 168.235 281.554 168.216 281.651 168.192C281.749 168.164 281.836 168.127 281.912 168.082C281.992 168.033 282.057 167.974 282.105 167.905C282.154 167.832 282.18 167.743 282.184 167.638C282.184 167.632 282.184 167.626 282.184 167.623C282.184 167.484 282.144 167.327 282.064 167.153C281.987 166.976 281.881 166.792 281.745 166.6C281.61 166.405 281.453 166.211 281.276 166.016C281.098 165.821 280.914 165.635 280.723 165.458C280.531 165.277 280.338 165.112 280.144 164.962C279.952 164.809 279.773 164.68 279.606 164.576L280.384 163.423C280.704 163.642 281.018 163.889 281.328 164.164C281.641 164.438 281.928 164.732 282.189 165.045C282.453 165.355 282.681 165.679 282.872 166.016C283.067 166.353 283.206 166.694 283.29 167.038C283.335 167.237 283.357 167.426 283.357 167.607C283.357 167.781 283.324 167.99 283.258 168.233C283.196 168.477 283.051 168.717 282.825 168.953C282.599 169.186 282.312 169.365 281.964 169.491C281.665 169.599 281.337 169.652 280.978 169.652C280.919 169.652 280.858 169.651 280.796 169.647C280.566 169.647 280.333 169.625 280.097 169.579C279.86 169.538 279.627 169.478 279.397 169.402C279.171 169.325 278.952 169.238 278.74 169.141C278.531 169.04 278.337 168.934 278.156 168.823L278.709 167.545ZM287.059 169.595H286.851C286.145 169.595 285.609 169.418 285.244 169.063C284.878 168.708 284.694 168.172 284.691 167.456C284.691 167.345 284.694 167.162 284.701 166.908C284.708 166.651 284.712 166.338 284.712 165.969C284.712 165.75 284.71 165.515 284.706 165.265C284.703 165.011 284.698 164.753 284.691 164.492C284.684 164.228 284.673 163.965 284.659 163.705C284.649 163.44 284.635 163.186 284.618 162.943C284.6 162.696 284.579 162.466 284.555 162.254C284.531 162.038 284.503 161.849 284.472 161.685L285.781 161.294C285.819 161.496 285.854 161.743 285.885 162.035C285.917 162.324 285.945 162.633 285.969 162.964C285.993 163.294 286.011 163.632 286.021 163.976C286.035 164.317 286.042 164.638 286.042 164.941C286.042 165.125 286.044 165.322 286.047 165.531C286.051 165.736 286.052 165.917 286.052 166.073C286.052 166.205 286.051 166.331 286.047 166.449C286.047 166.564 286.045 166.675 286.042 166.783C286.042 166.891 286.04 166.997 286.037 167.101C286.037 167.205 286.037 167.312 286.037 167.419C286.037 167.447 286.037 167.475 286.037 167.503C286.037 167.628 286.049 167.739 286.073 167.837C286.101 167.934 286.148 168.016 286.214 168.082C286.28 168.145 286.364 168.19 286.465 168.218C286.569 168.245 286.689 168.259 286.825 168.259H287.059V169.595ZM289.467 167.555C289.582 167.604 289.729 167.665 289.91 167.738C290.091 167.811 290.286 167.884 290.495 167.957C290.703 168.03 290.914 168.096 291.126 168.155C291.342 168.211 291.538 168.245 291.715 168.259C291.681 168.113 291.644 167.962 291.606 167.805C291.571 167.645 291.531 167.491 291.486 167.341C291.441 167.192 291.39 167.051 291.335 166.918C291.279 166.783 291.213 166.665 291.136 166.564C291.063 166.463 290.978 166.383 290.881 166.324C290.783 166.265 290.674 166.235 290.552 166.235C290.413 166.235 290.288 166.28 290.176 166.371C290.068 166.461 289.969 166.574 289.879 166.71C289.792 166.842 289.714 166.985 289.644 167.138C289.578 167.291 289.519 167.43 289.467 167.555ZM291.449 169.579C291.268 169.576 291.056 169.55 290.813 169.501C290.569 169.456 290.321 169.395 290.067 169.319C289.816 169.242 289.575 169.155 289.342 169.058C289.112 168.96 288.917 168.858 288.757 168.75C288.622 168.885 288.489 169.005 288.361 169.11C288.232 169.214 288.098 169.303 287.959 169.376C287.82 169.445 287.668 169.499 287.505 169.538C287.345 169.576 287.162 169.595 286.957 169.595H286.853V168.259H286.957C287.211 168.259 287.423 168.212 287.594 168.119C287.764 168.021 287.91 167.896 288.032 167.743C288.154 167.59 288.26 167.418 288.35 167.226C288.444 167.035 288.54 166.844 288.637 166.652C288.735 166.451 288.846 166.249 288.971 166.047C289.096 165.845 289.237 165.665 289.394 165.505C289.554 165.341 289.733 165.209 289.931 165.108C290.129 165.007 290.352 164.957 290.599 164.957C290.922 164.957 291.194 165.014 291.413 165.129C291.635 165.24 291.82 165.395 291.966 165.593C292.115 165.788 292.234 166.018 292.321 166.282C292.408 166.546 292.481 166.832 292.54 167.138C292.575 167.315 292.608 167.473 292.639 167.612C292.67 167.748 292.705 167.865 292.743 167.962C292.785 168.059 292.828 168.134 292.874 168.186C292.922 168.235 292.98 168.259 293.046 168.259H293.208V169.595H293.009C292.818 169.592 292.648 169.539 292.498 169.439C292.352 169.334 292.216 169.197 292.091 169.026C292.053 169.061 292.008 169.108 291.955 169.167C291.907 169.226 291.853 169.285 291.794 169.345C291.738 169.4 291.681 169.451 291.622 169.496C291.562 169.541 291.505 169.569 291.449 169.579ZM292.993 168.259H293.833C293.997 168.259 294.164 168.251 294.334 168.233C294.508 168.212 294.665 168.172 294.804 168.113C294.943 168.051 295.056 167.962 295.143 167.847C295.233 167.732 295.279 167.579 295.279 167.388C295.279 167.298 295.26 167.171 295.221 167.007C295.183 166.844 295.133 166.663 295.07 166.465C295.007 166.266 294.933 166.061 294.846 165.849C294.762 165.637 294.673 165.438 294.58 165.254L295.785 164.659C295.872 164.858 295.959 165.068 296.046 165.291C296.133 165.513 296.209 165.743 296.275 165.979C296.345 166.212 296.4 166.447 296.442 166.684C296.484 166.92 296.505 167.152 296.505 167.378C296.505 167.767 296.439 168.103 296.306 168.385C296.174 168.663 295.99 168.892 295.753 169.073C295.517 169.251 295.233 169.381 294.903 169.465C294.576 169.552 294.216 169.595 293.823 169.595H292.993V168.259ZM295.66 162.891L294.658 163.892L293.661 162.891L294.658 161.894L295.66 162.891ZM312.494 169.595C312.205 169.595 311.942 169.571 311.706 169.522C311.473 169.473 311.261 169.397 311.069 169.292C310.878 169.185 310.708 169.049 310.558 168.885C310.408 168.719 310.276 168.519 310.161 168.285C309.205 169.169 307.774 169.611 305.868 169.611C304.779 169.604 303.878 169.47 303.165 169.209C302.455 168.945 301.932 168.539 301.594 167.993C301.448 167.732 301.348 167.461 301.292 167.179C301.25 166.974 301.229 166.769 301.229 166.564C301.229 166.484 301.234 166.353 301.245 166.172C301.259 165.992 301.309 165.765 301.396 165.494C301.483 165.219 301.598 164.96 301.741 164.717L302.748 165.348C302.647 165.515 302.563 165.682 302.497 165.849C302.431 166.016 302.389 166.183 302.372 166.35C302.365 166.412 302.361 166.475 302.361 166.538C302.361 166.642 302.374 166.762 302.398 166.898C302.426 167.033 302.492 167.183 302.596 167.346C302.694 167.51 302.841 167.649 303.04 167.764C303.238 167.878 303.478 167.972 303.76 168.045C304.045 168.118 304.365 168.172 304.72 168.207C305.074 168.242 305.457 168.259 305.868 168.259C306.24 168.259 306.593 168.245 306.927 168.218C307.261 168.19 307.57 168.146 307.855 168.087C308.144 168.025 308.405 167.946 308.638 167.852C308.871 167.755 309.071 167.637 309.238 167.498C309.391 167.379 309.514 167.242 309.608 167.085C309.702 166.929 309.781 166.765 309.843 166.595C309.906 166.421 309.958 166.244 310 166.063C310.041 165.882 310.087 165.708 310.135 165.541L311.335 165.865C311.269 166.049 311.217 166.237 311.179 166.428C311.144 166.602 311.127 166.771 311.127 166.934C311.127 166.952 311.127 167.009 311.127 167.106C311.127 167.2 311.151 167.325 311.2 167.482C311.248 167.635 311.327 167.771 311.434 167.889C311.542 168.004 311.683 168.094 311.857 168.16C312.034 168.226 312.25 168.259 312.504 168.259H312.692V169.595H312.494ZM306.207 164.294L305.32 165.181L304.422 164.289L305.309 163.397L306.207 164.294ZM308.179 164.299L307.292 165.192L306.394 164.294L307.281 163.407L308.179 164.299ZM315.096 167.555C315.21 167.604 315.358 167.665 315.539 167.738C315.72 167.811 315.915 167.884 316.123 167.957C316.332 168.03 316.543 168.096 316.755 168.155C316.97 168.211 317.167 168.245 317.344 168.259C317.31 168.113 317.273 167.962 317.235 167.805C317.2 167.645 317.16 167.491 317.115 167.341C317.07 167.192 317.019 167.051 316.963 166.918C316.908 166.783 316.842 166.665 316.765 166.564C316.692 166.463 316.607 166.383 316.51 166.324C316.412 166.265 316.303 166.235 316.181 166.235C316.042 166.235 315.917 166.28 315.805 166.371C315.697 166.461 315.598 166.574 315.508 166.71C315.421 166.842 315.343 166.985 315.273 167.138C315.207 167.291 315.148 167.43 315.096 167.555ZM317.078 169.579C316.897 169.576 316.685 169.55 316.442 169.501C316.198 169.456 315.95 169.395 315.696 169.319C315.445 169.242 315.203 169.155 314.97 169.058C314.741 168.96 314.546 168.858 314.386 168.75C314.25 168.885 314.118 169.005 313.99 169.11C313.861 169.214 313.727 169.303 313.588 169.376C313.449 169.445 313.297 169.499 313.134 169.538C312.974 169.576 312.791 169.595 312.586 169.595H312.482V168.259H312.586C312.84 168.259 313.052 168.212 313.223 168.119C313.393 168.021 313.539 167.896 313.661 167.743C313.783 167.59 313.889 167.418 313.979 167.226C314.073 167.035 314.169 166.844 314.266 166.652C314.363 166.451 314.475 166.249 314.6 166.047C314.725 165.845 314.866 165.665 315.023 165.505C315.183 165.341 315.362 165.209 315.56 165.108C315.758 165.007 315.981 164.957 316.228 164.957C316.551 164.957 316.823 165.014 317.042 165.129C317.264 165.24 317.449 165.395 317.595 165.593C317.744 165.788 317.863 166.018 317.95 166.282C318.037 166.546 318.11 166.832 318.169 167.138C318.203 167.315 318.237 167.473 318.268 167.612C318.299 167.748 318.334 167.865 318.372 167.962C318.414 168.059 318.457 168.134 318.503 168.186C318.551 168.235 318.609 168.259 318.675 168.259H318.837V169.595H318.638C318.447 169.592 318.277 169.539 318.127 169.439C317.981 169.334 317.845 169.197 317.72 169.026C317.682 169.061 317.637 169.108 317.584 169.167C317.536 169.226 317.482 169.285 317.423 169.345C317.367 169.4 317.31 169.451 317.25 169.496C317.191 169.541 317.134 169.569 317.078 169.579ZM323.276 168.259V169.595H323.172C322.835 169.595 322.549 169.541 322.316 169.433C322.083 169.325 321.885 169.186 321.721 169.016C321.607 169.162 321.436 169.275 321.21 169.355C320.988 169.432 320.739 169.487 320.464 169.522C320.189 169.56 319.906 169.581 319.614 169.585C319.325 169.592 319.059 169.595 318.815 169.595H318.622V168.259H318.815C319.222 168.259 319.565 168.237 319.843 168.192C320.121 168.143 320.346 168.073 320.516 167.983C320.69 167.892 320.815 167.779 320.892 167.644C320.968 167.505 321.007 167.345 321.007 167.164C321.007 167.045 320.984 166.889 320.939 166.694C320.894 166.496 320.826 166.242 320.735 165.932L322.019 165.572C322.064 165.725 322.099 165.861 322.123 165.979C322.151 166.094 322.172 166.211 322.186 166.329C322.203 166.444 322.217 166.569 322.228 166.705C322.241 166.837 322.255 166.995 322.269 167.179C322.28 167.291 322.306 167.411 322.348 167.539C322.389 167.665 322.447 167.781 322.52 167.889C322.596 167.993 322.688 168.082 322.796 168.155C322.904 168.225 323.029 168.259 323.172 168.259H323.276ZM320.563 171.139L319.676 172.026L318.779 171.134L319.666 170.242L320.563 171.139ZM322.535 171.145L321.648 172.037L320.751 171.139L321.638 170.252L322.535 171.145ZM323.189 168.259C323.554 168.259 323.905 168.249 324.243 168.228C324.58 168.204 324.888 168.171 325.166 168.129C325.445 168.087 325.685 168.037 325.886 167.978C326.088 167.918 326.239 167.852 326.34 167.779H325.808C325.502 167.779 325.21 167.741 324.932 167.665C324.657 167.585 324.415 167.466 324.206 167.31C323.998 167.153 323.831 166.958 323.705 166.725C323.584 166.489 323.523 166.214 323.523 165.901C323.523 165.717 323.542 165.527 323.58 165.332C323.619 165.138 323.676 164.948 323.752 164.764C323.829 164.579 323.921 164.405 324.029 164.242C324.137 164.078 324.26 163.936 324.399 163.814C324.539 163.689 324.692 163.592 324.859 163.522C325.025 163.449 325.206 163.412 325.401 163.412C325.641 163.412 325.865 163.463 326.074 163.564C326.283 163.665 326.472 163.802 326.643 163.976C326.813 164.146 326.965 164.345 327.097 164.571C327.229 164.797 327.34 165.035 327.431 165.285C327.521 165.536 327.589 165.792 327.634 166.052C327.683 166.31 327.707 166.555 327.707 166.788C327.707 167.185 327.652 167.529 327.54 167.821C327.432 168.113 327.279 168.364 327.081 168.572C326.886 168.781 326.652 168.952 326.377 169.084C326.105 169.216 325.805 169.32 325.474 169.397C325.144 169.473 324.789 169.525 324.41 169.553C324.034 169.581 323.645 169.595 323.241 169.595H323.064V168.259H323.189ZM325.401 164.758C325.384 164.755 325.366 164.753 325.349 164.753C325.279 164.753 325.199 164.781 325.109 164.837C325.019 164.892 324.932 164.972 324.848 165.077C324.765 165.181 324.697 165.299 324.645 165.432C324.592 165.56 324.566 165.687 324.566 165.812C324.566 165.819 324.566 165.826 324.566 165.833C324.566 165.958 324.594 166.061 324.65 166.141C324.705 166.218 324.78 166.277 324.874 166.318C324.972 166.36 325.083 166.39 325.208 166.407C325.337 166.425 325.472 166.437 325.615 166.444C325.709 166.447 325.806 166.449 325.907 166.449C325.956 166.449 326.031 166.449 326.132 166.449C326.236 166.445 326.342 166.44 326.45 166.433C326.419 166.308 326.373 166.153 326.314 165.969C326.259 165.781 326.187 165.6 326.1 165.426C326.017 165.249 325.916 165.096 325.798 164.967C325.683 164.838 325.551 164.769 325.401 164.758ZM325.276 161.842L324.389 162.729L323.492 161.837L324.379 160.945L325.276 161.842ZM327.248 161.847L326.361 162.739L325.464 161.842L326.351 160.955L327.248 161.847Z" fill="#A6A9AD"/>
<path d="M271.717 9.88694C271.724 9.96346 271.727 10.0417 271.727 10.1217C271.727 10.3026 271.706 10.5008 271.664 10.7165C271.623 10.9287 271.553 11.1495 271.456 11.3791C271.362 11.6052 271.247 11.8156 271.111 12.0104C270.979 12.2052 270.838 12.3739 270.689 12.5165C270.438 12.7565 270.153 12.9513 269.833 13.1008C269.517 13.2504 269.181 13.3617 268.826 13.4347C268.475 13.5078 268.113 13.546 267.741 13.5495C267.696 13.5495 267.652 13.5495 267.611 13.5495C267.284 13.5495 266.962 13.5269 266.645 13.4817L266.875 12.1513C267.056 12.1721 267.214 12.1895 267.35 12.2034C267.489 12.2174 267.618 12.226 267.736 12.2295C267.795 12.233 267.854 12.2347 267.913 12.2347C267.972 12.2347 268.044 12.233 268.127 12.2295C268.211 12.2226 268.318 12.2087 268.451 12.1878C268.426 11.8887 268.369 11.5826 268.278 11.2695C268.191 10.9565 268.084 10.6469 267.955 10.3408C267.826 10.0347 267.682 9.73563 267.522 9.44346C267.365 9.15129 267.205 8.87476 267.042 8.61389C266.882 8.35302 266.725 8.11302 266.572 7.89389C266.423 7.67476 266.287 7.48694 266.165 7.33042C266.047 7.17042 265.95 7.0452 265.873 6.95476C265.8 6.86085 265.762 6.81215 265.758 6.80868L266.739 5.80694C267.171 6.37737 267.551 6.95476 267.882 7.53911C268.212 8.11998 268.494 8.67302 268.727 9.19824C268.964 9.72346 269.153 10.2 269.296 10.6278C269.442 11.0521 269.546 11.393 269.609 11.6504C269.731 11.5947 269.856 11.5095 269.984 11.3947C270.113 11.2765 270.226 11.1356 270.324 10.9721C270.421 10.8052 270.494 10.6174 270.543 10.4087C270.567 10.3008 270.579 10.1895 270.579 10.0747C270.579 9.97042 270.569 9.86085 270.548 9.74607L269.75 5.20694L271.044 4.89389L271.717 9.88694ZM275.387 13.1582H275.179C274.473 13.1582 273.937 12.9808 273.572 12.626C273.206 12.2713 273.022 11.7356 273.019 11.0191C273.019 10.9078 273.022 10.7252 273.029 10.4713C273.036 10.2139 273.04 9.90085 273.04 9.53215C273.04 9.31302 273.038 9.07824 273.034 8.82781C273.031 8.57389 273.026 8.3165 273.019 8.05563C273.012 7.79129 273.001 7.52868 272.987 7.26781C272.977 7.00346 272.963 6.74955 272.946 6.50607C272.928 6.25911 272.907 6.02955 272.883 5.81737C272.859 5.60172 272.831 5.41215 272.8 5.24868L274.109 4.85737C274.147 5.05911 274.182 5.30607 274.213 5.59824C274.245 5.88694 274.273 6.1965 274.297 6.52694C274.321 6.85737 274.339 7.19476 274.349 7.53911C274.363 7.87998 274.37 8.20172 274.37 8.50433C274.37 8.68868 274.372 8.8852 274.375 9.09389C274.379 9.29911 274.38 9.47998 274.38 9.6365C274.38 9.76868 274.379 9.89389 274.375 10.0121C274.375 10.1269 274.373 10.2382 274.37 10.346C274.37 10.4539 274.368 10.56 274.365 10.6643C274.365 10.7687 274.365 10.8747 274.365 10.9826C274.365 11.0104 274.365 11.0382 274.365 11.066C274.365 11.1913 274.377 11.3026 274.401 11.4C274.429 11.4974 274.476 11.5791 274.542 11.6452C274.608 11.7078 274.692 11.753 274.793 11.7808C274.897 11.8087 275.017 11.8226 275.153 11.8226H275.387V13.1582ZM275.181 11.8226H276.021C276.184 11.8226 276.351 11.8139 276.522 11.7965C276.696 11.7756 276.852 11.7356 276.991 11.6765C277.13 11.6139 277.243 11.5252 277.33 11.4104C277.421 11.2956 277.466 11.1426 277.466 10.9513C277.466 10.8608 277.447 10.7339 277.409 10.5704C277.37 10.4069 277.32 10.226 277.257 10.0278C277.195 9.82955 277.12 9.62433 277.033 9.41215C276.95 9.19998 276.861 9.00172 276.767 8.81737L277.972 8.22259C278.059 8.42085 278.146 8.63129 278.233 8.85389C278.32 9.0765 278.396 9.30607 278.463 9.54259C278.532 9.77563 278.588 10.0104 278.63 10.2469C278.671 10.4834 278.692 10.7147 278.692 10.9408C278.692 11.3304 278.626 11.666 278.494 11.9478C278.362 12.226 278.177 12.4556 277.941 12.6365C277.704 12.8139 277.421 12.9443 277.09 13.0278C276.763 13.1147 276.403 13.1582 276.01 13.1582H275.181V11.8226ZM277.868 14.8539L276.866 15.8556L275.87 14.8539L276.866 13.8574L277.868 14.8539ZM284.711 11.353C284.505 11.6591 284.354 11.993 284.257 12.3547C284.159 12.7165 284.111 13.0765 284.111 13.4347C284.111 13.72 284.177 13.9739 284.309 14.1965C284.441 14.4226 284.61 14.6121 284.815 14.7652C285.02 14.9217 285.248 15.04 285.498 15.12C285.749 15.2034 285.992 15.2452 286.229 15.2452C286.469 15.2452 286.718 15.2034 286.975 15.12C287.236 15.04 287.474 14.9113 287.69 14.7339C287.905 14.56 288.083 14.3339 288.222 14.0556C288.361 13.7808 288.431 13.4469 288.431 13.0539C288.431 12.7791 288.425 12.4556 288.415 12.0834C288.405 11.7113 288.391 11.3165 288.373 10.8991C288.359 10.4782 288.342 10.0452 288.321 9.59998C288.3 9.15476 288.279 8.71998 288.258 8.29563C288.234 7.79824 288.205 7.27998 288.17 6.74085C288.138 6.19824 288.107 5.65563 288.076 5.11302L289.438 4.85737C289.462 5.42781 289.486 5.99476 289.511 6.55824C289.538 7.11824 289.561 7.65737 289.578 8.17563C289.592 8.61737 289.606 9.06955 289.62 9.53215C289.638 9.99476 289.652 10.4434 289.662 10.8782C289.676 11.3095 289.686 11.7147 289.693 12.0939C289.704 12.473 289.709 12.8 289.709 13.0747C289.709 13.513 289.657 13.9043 289.552 14.2487C289.452 14.593 289.314 14.8939 289.14 15.1513C288.966 15.4121 288.763 15.633 288.53 15.8139C288.3 15.9947 288.057 16.1426 287.799 16.2574C287.545 16.3721 287.286 16.4539 287.022 16.5026C286.758 16.5547 286.504 16.5808 286.26 16.5808C286.027 16.5808 285.782 16.5547 285.525 16.5026C285.271 16.4504 285.018 16.3704 284.768 16.2626C284.518 16.1547 284.279 16.0156 284.053 15.8452C283.827 15.6782 283.627 15.4782 283.453 15.2452C283.283 15.0121 283.149 14.7443 283.052 14.4417C282.954 14.153 282.905 13.8278 282.905 13.466C282.905 13.4556 282.905 13.4434 282.905 13.4295C282.905 13.2069 282.918 12.9791 282.942 12.746C282.97 12.513 283.012 12.2834 283.067 12.0574C283.123 11.8313 283.192 11.6139 283.276 11.4052C283.359 11.1965 283.462 11.0052 283.584 10.8313L284.711 11.353ZM293.739 13.1582H293.53C292.824 13.1582 292.288 12.9808 291.923 12.626C291.558 12.2713 291.374 11.7356 291.37 11.0191C291.37 10.9078 291.374 10.7252 291.381 10.4713C291.388 10.2139 291.391 9.90085 291.391 9.53215C291.391 9.31302 291.389 9.07824 291.386 8.82781C291.382 8.57389 291.377 8.3165 291.37 8.05563C291.363 7.79129 291.353 7.52868 291.339 7.26781C291.328 7.00346 291.315 6.74955 291.297 6.50607C291.28 6.25911 291.259 6.02955 291.235 5.81737C291.21 5.60172 291.182 5.41215 291.151 5.24868L292.461 4.85737C292.499 5.05911 292.534 5.30607 292.565 5.59824C292.596 5.88694 292.624 6.1965 292.648 6.52694C292.673 6.85737 292.69 7.19476 292.701 7.53911C292.715 7.87998 292.722 8.20172 292.722 8.50433C292.722 8.68868 292.723 8.8852 292.727 9.09389C292.73 9.29911 292.732 9.47998 292.732 9.6365C292.732 9.76868 292.73 9.89389 292.727 10.0121C292.727 10.1269 292.725 10.2382 292.722 10.346C292.722 10.4539 292.72 10.56 292.716 10.6643C292.716 10.7687 292.716 10.8747 292.716 10.9826C292.716 11.0104 292.716 11.0382 292.716 11.066C292.716 11.1913 292.728 11.3026 292.753 11.4C292.781 11.4974 292.828 11.5791 292.894 11.6452C292.96 11.7078 293.043 11.753 293.144 11.7808C293.248 11.8087 293.368 11.8226 293.504 11.8226H293.739V13.1582ZM296.146 11.1182C296.261 11.1669 296.409 11.2278 296.59 11.3008C296.771 11.3739 296.965 11.4469 297.174 11.52C297.383 11.593 297.593 11.6591 297.805 11.7182C298.021 11.7739 298.218 11.8087 298.395 11.8226C298.36 11.6765 298.324 11.5252 298.285 11.3687C298.251 11.2087 298.211 11.0539 298.165 10.9043C298.12 10.7547 298.07 10.6139 298.014 10.4817C297.958 10.346 297.892 10.2278 297.816 10.1269C297.743 10.026 297.658 9.94607 297.56 9.88694C297.463 9.82781 297.353 9.79824 297.232 9.79824C297.092 9.79824 296.967 9.84346 296.856 9.93389C296.748 10.0243 296.649 10.1374 296.558 10.273C296.472 10.4052 296.393 10.5478 296.324 10.7008C296.258 10.8539 296.198 10.993 296.146 11.1182ZM298.129 13.1426C297.948 13.1391 297.736 13.113 297.492 13.0643C297.249 13.0191 297 12.9582 296.746 12.8817C296.496 12.8052 296.254 12.7182 296.021 12.6208C295.792 12.5234 295.597 12.4208 295.437 12.313C295.301 12.4487 295.169 12.5687 295.04 12.673C294.912 12.7774 294.778 12.866 294.638 12.9391C294.499 13.0087 294.348 13.0626 294.185 13.1008C294.025 13.1391 293.842 13.1582 293.637 13.1582H293.532V11.8226H293.637C293.891 11.8226 294.103 11.7756 294.273 11.6817C294.444 11.5843 294.59 11.4591 294.712 11.306C294.833 11.153 294.939 10.9808 295.03 10.7895C295.124 10.5982 295.219 10.4069 295.317 10.2156C295.414 10.0139 295.525 9.81215 295.651 9.61042C295.776 9.40868 295.917 9.22781 296.073 9.06781C296.233 8.90433 296.412 8.77215 296.611 8.67128C296.809 8.57042 297.032 8.51998 297.278 8.51998C297.602 8.51998 297.873 8.57737 298.092 8.69215C298.315 8.80346 298.499 8.95824 298.645 9.1565C298.795 9.35129 298.913 9.58085 299 9.8452C299.087 10.1095 299.16 10.3947 299.219 10.7008C299.254 10.8782 299.287 11.0365 299.318 11.1756C299.35 11.3113 299.385 11.4278 299.423 11.5252C299.465 11.6226 299.508 11.6974 299.553 11.7495C299.602 11.7982 299.659 11.8226 299.725 11.8226H299.887V13.1582H299.689C299.498 13.1547 299.327 13.1026 299.178 13.0017C299.032 12.8974 298.896 12.76 298.771 12.5895C298.732 12.6243 298.687 12.6713 298.635 12.7304C298.586 12.7895 298.532 12.8487 298.473 12.9078C298.418 12.9634 298.36 13.0139 298.301 13.0591C298.242 13.1043 298.185 13.1321 298.129 13.1426ZM304.348 10.0956C304.223 9.94955 304.076 9.81737 303.91 9.69911C303.77 9.59824 303.609 9.50781 303.424 9.42781C303.24 9.34433 303.038 9.30259 302.819 9.30259C302.642 9.30259 302.485 9.33042 302.35 9.38607C302.214 9.43824 302.099 9.51129 302.005 9.6052C301.911 9.69563 301.838 9.80172 301.786 9.92346C301.734 10.0452 301.703 10.1756 301.692 10.3147C301.689 10.3391 301.687 10.3634 301.687 10.3878C301.687 10.5513 301.73 10.7113 301.817 10.8678C301.904 11.0208 302.026 11.1582 302.183 11.28C302.339 11.3982 302.52 11.4887 302.725 11.5513C302.892 11.6034 303.061 11.6295 303.231 11.6295C303.27 11.6295 303.308 11.6278 303.346 11.6243C303.548 11.6104 303.75 11.5895 303.951 11.5617C304.156 11.5304 304.343 11.5008 304.51 11.473L305.068 11.3634L305.23 12.6626C305.014 12.7182 304.772 12.7756 304.504 12.8347C304.236 12.8939 303.929 12.9478 303.581 12.9965C303.236 13.0417 302.845 13.08 302.407 13.1113C301.969 13.1426 301.471 13.1582 300.915 13.1582H299.673V11.8226H299.903L300.899 11.8174C300.711 11.5982 300.583 11.3739 300.513 11.1443C300.447 10.9113 300.414 10.6556 300.414 10.3774C300.414 10.0504 300.475 9.74085 300.596 9.44868C300.718 9.1565 300.885 8.90085 301.097 8.68172C301.313 8.46259 301.567 8.28868 301.859 8.15998C302.155 8.03129 302.475 7.96694 302.819 7.96694C302.99 7.96694 303.153 7.98259 303.31 8.01389C303.47 8.0452 303.621 8.08694 303.763 8.13911C303.906 8.19129 304.04 8.25042 304.165 8.3165C304.294 8.38259 304.41 8.44868 304.515 8.51476C304.636 8.59476 304.755 8.67998 304.87 8.77042C304.984 8.86085 305.092 8.9565 305.193 9.05737L304.348 10.0956ZM307.764 4.85737C307.851 5.52172 307.912 6.1565 307.947 6.76172C307.981 7.36346 308.002 7.95302 308.009 8.53042C308.016 9.02085 308.018 9.47476 308.014 9.89215C308.014 10.3095 308.011 10.6991 308.004 11.0608C307.997 11.4191 307.987 11.7547 307.973 12.0678C307.959 12.3774 307.945 12.6678 307.931 12.9391L306.564 13.1478C306.637 12 306.674 10.986 306.674 10.106C306.674 9.75129 306.668 9.41911 306.658 9.10955C306.63 8.3965 306.599 7.72694 306.564 7.10085C306.529 6.47128 306.482 5.86955 306.423 5.29563L307.764 4.85737ZM324.142 13.1582C323.853 13.1582 323.591 13.1339 323.354 13.0852C323.121 13.0365 322.909 12.96 322.718 12.8556C322.526 12.7478 322.356 12.6121 322.206 12.4487C322.057 12.2817 321.925 12.0817 321.81 11.8487C320.853 12.7321 319.422 13.1739 317.516 13.1739C316.427 13.1669 315.526 13.033 314.813 12.7721C314.104 12.5078 313.58 12.1026 313.243 11.5565C313.097 11.2956 312.996 11.0243 312.94 10.7426C312.898 10.5374 312.878 10.3321 312.878 10.1269C312.878 10.0469 312.883 9.9165 312.893 9.73563C312.907 9.55476 312.958 9.32868 313.045 9.05737C313.131 8.78259 313.246 8.52346 313.389 8.27998L314.396 8.91129C314.295 9.07824 314.211 9.2452 314.145 9.41215C314.079 9.57911 314.038 9.74607 314.02 9.91302C314.013 9.97563 314.01 10.0382 314.01 10.1008C314.01 10.2052 314.022 10.3252 314.046 10.4608C314.074 10.5965 314.14 10.746 314.245 10.9095C314.342 11.073 314.49 11.2121 314.688 11.3269C314.886 11.4417 315.126 11.5356 315.408 11.6087C315.693 11.6817 316.013 11.7356 316.368 11.7704C316.723 11.8052 317.105 11.8226 317.516 11.8226C317.888 11.8226 318.241 11.8087 318.575 11.7808C318.909 11.753 319.218 11.7095 319.504 11.6504C319.792 11.5878 320.053 11.5095 320.286 11.4156C320.519 11.3182 320.719 11.2 320.886 11.0608C321.039 10.9426 321.163 10.8052 321.257 10.6487C321.351 10.4921 321.429 10.3287 321.491 10.1582C321.554 9.98433 321.606 9.80694 321.648 9.62607C321.69 9.4452 321.735 9.27129 321.784 9.10433L322.984 9.42781C322.918 9.61215 322.865 9.79998 322.827 9.99129C322.792 10.1652 322.775 10.3339 322.775 10.4974C322.775 10.5147 322.775 10.5721 322.775 10.6695C322.775 10.7634 322.799 10.8887 322.848 11.0452C322.897 11.1982 322.975 11.3339 323.083 11.4521C323.191 11.5669 323.331 11.6574 323.505 11.7234C323.683 11.7895 323.898 11.8226 324.152 11.8226H324.34V13.1582H324.142ZM317.855 7.85737L316.968 8.74433L316.071 7.85215L316.958 6.95998L317.855 7.85737ZM319.827 7.86259L318.94 8.75476L318.043 7.85737L318.93 6.97042L319.827 7.86259ZM326.744 11.1182C326.859 11.1669 327.007 11.2278 327.187 11.3008C327.368 11.3739 327.563 11.4469 327.772 11.52C327.98 11.593 328.191 11.6591 328.403 11.7182C328.619 11.7739 328.815 11.8087 328.993 11.8226C328.958 11.6765 328.921 11.5252 328.883 11.3687C328.848 11.2087 328.808 11.0539 328.763 10.9043C328.718 10.7547 328.667 10.6139 328.612 10.4817C328.556 10.346 328.49 10.2278 328.414 10.1269C328.34 10.026 328.255 9.94607 328.158 9.88694C328.06 9.82781 327.951 9.79824 327.829 9.79824C327.69 9.79824 327.565 9.84346 327.454 9.93389C327.346 10.0243 327.247 10.1374 327.156 10.273C327.069 10.4052 326.991 10.5478 326.921 10.7008C326.855 10.8539 326.796 10.993 326.744 11.1182ZM328.727 13.1426C328.546 13.1391 328.334 13.113 328.09 13.0643C327.847 13.0191 327.598 12.9582 327.344 12.8817C327.094 12.8052 326.852 12.7182 326.619 12.6208C326.389 12.5234 326.194 12.4208 326.034 12.313C325.899 12.4487 325.767 12.5687 325.638 12.673C325.509 12.7774 325.375 12.866 325.236 12.9391C325.097 13.0087 324.946 13.0626 324.782 13.1008C324.622 13.1391 324.44 13.1582 324.234 13.1582H324.13V11.8226H324.234C324.488 11.8226 324.7 11.7756 324.871 11.6817C325.041 11.5843 325.187 11.4591 325.309 11.306C325.431 11.153 325.537 10.9808 325.627 10.7895C325.721 10.5982 325.817 10.4069 325.914 10.2156C326.012 10.0139 326.123 9.81215 326.248 9.61042C326.374 9.40868 326.514 9.22781 326.671 9.06781C326.831 8.90433 327.01 8.77215 327.208 8.67128C327.407 8.57042 327.629 8.51998 327.876 8.51998C328.2 8.51998 328.471 8.57737 328.69 8.69215C328.913 8.80346 329.097 8.95824 329.243 9.1565C329.393 9.35129 329.511 9.58085 329.598 9.8452C329.685 10.1095 329.758 10.3947 329.817 10.7008C329.852 10.8782 329.885 11.0365 329.916 11.1756C329.947 11.3113 329.982 11.4278 330.02 11.5252C330.062 11.6226 330.106 11.6974 330.151 11.7495C330.2 11.7982 330.257 11.8226 330.323 11.8226H330.485V13.1582H330.287C330.095 13.1547 329.925 13.1026 329.775 13.0017C329.629 12.8974 329.494 12.76 329.368 12.5895C329.33 12.6243 329.285 12.6713 329.233 12.7304C329.184 12.7895 329.13 12.8487 329.071 12.9078C329.015 12.9634 328.958 13.0139 328.899 13.0591C328.84 13.1043 328.782 13.1321 328.727 13.1426ZM334.925 11.8226V13.1582H334.82C334.483 13.1582 334.198 13.1043 333.965 12.9965C333.732 12.8887 333.533 12.7495 333.37 12.5791C333.255 12.7252 333.085 12.8382 332.859 12.9182C332.636 12.9947 332.387 13.0504 332.112 13.0852C331.838 13.1234 331.554 13.1443 331.262 13.1478C330.973 13.1547 330.707 13.1582 330.464 13.1582H330.271V11.8226H330.464C330.871 11.8226 331.213 11.8 331.492 11.7547C331.77 11.706 331.994 11.6365 332.165 11.546C332.339 11.4556 332.464 11.3426 332.54 11.2069C332.617 11.0678 332.655 10.9078 332.655 10.7269C332.655 10.6087 332.632 10.4521 332.587 10.2574C332.542 10.0591 332.474 9.8052 332.384 9.49563L333.667 9.13563C333.712 9.28868 333.747 9.42433 333.772 9.54259C333.799 9.65737 333.82 9.77389 333.834 9.89215C333.852 10.0069 333.865 10.1321 333.876 10.2678C333.89 10.4 333.904 10.5582 333.918 10.7426C333.928 10.8539 333.954 10.9739 333.996 11.1026C334.038 11.2278 334.095 11.3443 334.168 11.4521C334.245 11.5565 334.337 11.6452 334.445 11.7182C334.552 11.7878 334.678 11.8226 334.82 11.8226H334.925ZM332.212 14.7026L331.325 15.5895L330.427 14.6974L331.314 13.8052L332.212 14.7026ZM334.184 14.7078L333.297 15.6L332.399 14.7026L333.286 13.8156L334.184 14.7078ZM334.837 11.8226C335.203 11.8226 335.554 11.8121 335.891 11.7913C336.229 11.7669 336.536 11.7339 336.815 11.6921C337.093 11.6504 337.333 11.6 337.535 11.5408C337.736 11.4817 337.888 11.4156 337.989 11.3426H337.456C337.15 11.3426 336.858 11.3043 336.58 11.2278C336.305 11.1478 336.063 11.0295 335.855 10.873C335.646 10.7165 335.479 10.5217 335.354 10.2887C335.232 10.0521 335.171 9.77737 335.171 9.46433C335.171 9.27998 335.19 9.09042 335.229 8.89563C335.267 8.70085 335.324 8.51129 335.401 8.32694C335.477 8.14259 335.569 7.96868 335.677 7.8052C335.785 7.64172 335.909 7.49911 336.048 7.37737C336.187 7.25215 336.34 7.15476 336.507 7.0852C336.674 7.01215 336.855 6.97563 337.049 6.97563C337.289 6.97563 337.514 7.02607 337.723 7.12694C337.931 7.22781 338.121 7.3652 338.291 7.53911C338.462 7.70955 338.613 7.90781 338.745 8.13389C338.877 8.35998 338.989 8.59824 339.079 8.84868C339.169 9.09911 339.237 9.35476 339.283 9.61563C339.331 9.87302 339.356 10.1182 339.356 10.3513C339.356 10.7478 339.3 11.0921 339.189 11.3843C339.081 11.6765 338.928 11.9269 338.729 12.1356C338.535 12.3443 338.3 12.5147 338.025 12.6469C337.754 12.7791 337.453 12.8834 337.123 12.96C336.792 13.0365 336.437 13.0887 336.058 13.1165C335.683 13.1443 335.293 13.1582 334.889 13.1582H334.712V11.8226H334.837ZM337.049 8.32172C337.032 8.31824 337.015 8.3165 336.997 8.3165C336.928 8.3165 336.848 8.34433 336.757 8.39998C336.667 8.45563 336.58 8.53563 336.496 8.63998C336.413 8.74433 336.345 8.86259 336.293 8.99476C336.241 9.12346 336.215 9.25042 336.215 9.37563C336.215 9.38259 336.215 9.38955 336.215 9.3965C336.215 9.52172 336.243 9.62433 336.298 9.70433C336.354 9.78085 336.429 9.83998 336.523 9.88172C336.62 9.92346 336.731 9.95302 336.856 9.97042C336.985 9.98781 337.121 9.99998 337.263 10.0069C337.357 10.0104 337.455 10.0121 337.556 10.0121C337.604 10.0121 337.679 10.0121 337.78 10.0121C337.884 10.0087 337.99 10.0034 338.098 9.9965C338.067 9.87129 338.022 9.7165 337.963 9.53215C337.907 9.34433 337.836 9.16346 337.749 8.98955C337.665 8.81215 337.564 8.65911 337.446 8.53042C337.331 8.40172 337.199 8.33215 337.049 8.32172ZM336.924 5.4052L336.037 6.29215L335.14 5.39998L336.027 4.50781L336.924 5.4052ZM338.896 5.41042L338.009 6.30259L337.112 5.4052L337.999 4.51824L338.896 5.41042Z" fill="#A6A9AD"/>
</g>
<defs>
<clipPath id="clip0_5919_91234">
<rect width="399" height="176" fill="white"/>
</clipPath>
</defs>
</svg>
