<svg width="397" height="176" viewBox="0 0 397 176" fill="none" xmlns="http://www.w3.org/2000/svg">
<rect x="0.5" y="88.1836" width="1.05904" height="396" rx="0.52952" transform="rotate(-90 0.5 88.1836)" fill="#E2E7ED" stroke="#E2E7ED"/>
<path d="M396.5 87.9522H198L306 33.9023H396.5V87.9522Z" fill="#00C288" fill-opacity="0.1"/>
<rect x="0.5" y="-0.5" width="1" height="23.7085" rx="0.5" transform="matrix(1 -8.00283e-08 -9.55005e-08 -1 115.125 99.0078)" fill="#E2E7ED" stroke="#E2E7ED"/>
<rect x="0.5" y="-0.5" width="1" height="23.7085" rx="0.5" transform="matrix(1 -8.00283e-08 -9.55005e-08 -1 304.984 99.0078)" fill="#E2E7ED" stroke="#E2E7ED"/>
<path d="M116 154.357L116 22.5781" stroke="#E2E7ED" stroke-dasharray="6 6"/>
<path d="M198 87.8687L116.5 125.961H0" stroke="#FF526D" stroke-width="3"/>
<path d="M0.5 87.8687H198L116.5 125.961H0.5V87.8687Z" fill="#FF526D" fill-opacity="0.1"/>
<path d="M197.5 87.9513L306 33.3867H397" stroke="#00C288" stroke-width="3"/>
<path d="M91.6187 167.544C91.7509 167.627 91.9092 167.712 92.0935 167.799C92.2813 167.886 92.4744 167.964 92.6726 168.034C92.8744 168.104 93.0709 168.161 93.2622 168.206C93.457 168.251 93.6274 168.274 93.7735 168.274C93.8326 168.274 93.9057 168.272 93.9926 168.269C94.0796 168.265 94.1718 168.258 94.2692 168.248C94.3666 168.234 94.464 168.215 94.5613 168.191C94.6587 168.163 94.7457 168.126 94.8222 168.081C94.9022 168.032 94.9666 167.973 95.0153 167.904C95.064 167.831 95.09 167.742 95.0935 167.637C95.0935 167.631 95.0935 167.625 95.0935 167.622C95.0935 167.483 95.0535 167.326 94.9735 167.152C94.897 166.975 94.7909 166.791 94.6553 166.599C94.5196 166.404 94.3631 166.21 94.1857 166.015C94.0083 165.82 93.824 165.634 93.6326 165.457C93.4413 165.276 93.2483 165.111 93.0535 164.961C92.8622 164.808 92.6831 164.679 92.5161 164.575L93.2935 163.422C93.6135 163.641 93.9283 163.888 94.2379 164.163C94.5509 164.437 94.8379 164.731 95.0987 165.044C95.3631 165.354 95.5909 165.678 95.7822 166.015C95.977 166.352 96.1161 166.693 96.1996 167.037C96.2448 167.236 96.2674 167.425 96.2674 167.606C96.2674 167.78 96.2344 167.989 96.1683 168.232C96.1057 168.476 95.9613 168.716 95.7353 168.952C95.5092 169.185 95.2222 169.364 94.8744 169.49C94.5753 169.598 94.2466 169.651 93.8883 169.651C93.8292 169.651 93.7683 169.65 93.7057 169.646C93.4761 169.646 93.2431 169.624 93.0066 169.578C92.77 169.537 92.537 169.477 92.3074 169.401C92.0813 169.324 91.8622 169.237 91.65 169.14C91.4413 169.039 91.2466 168.933 91.0657 168.822L91.6187 167.544ZM99.9694 169.594H99.7607C99.0546 169.594 98.5189 169.417 98.1537 169.062C97.7885 168.707 97.6042 168.171 97.6007 167.455C97.6007 167.344 97.6042 167.161 97.6111 166.907C97.6181 166.65 97.6215 166.337 97.6215 165.968C97.6215 165.749 97.6198 165.514 97.6163 165.264C97.6129 165.01 97.6076 164.752 97.6007 164.491C97.5937 164.227 97.5833 163.964 97.5694 163.704C97.5589 163.439 97.545 163.185 97.5276 162.942C97.5102 162.695 97.4894 162.465 97.465 162.253C97.4407 162.037 97.4129 161.848 97.3815 161.684L98.6911 161.293C98.7294 161.495 98.7642 161.742 98.7955 162.034C98.8268 162.323 98.8546 162.632 98.8789 162.963C98.9033 163.293 98.9207 163.631 98.9311 163.975C98.945 164.316 98.952 164.637 98.952 164.94C98.952 165.124 98.9537 165.321 98.9572 165.53C98.9607 165.735 98.9624 165.916 98.9624 166.072C98.9624 166.204 98.9607 166.33 98.9572 166.448C98.9572 166.563 98.9555 166.674 98.952 166.782C98.952 166.89 98.9502 166.996 98.9468 167.1C98.9468 167.204 98.9468 167.311 98.9468 167.418C98.9468 167.446 98.9468 167.474 98.9468 167.502C98.9468 167.627 98.9589 167.738 98.9833 167.836C99.0111 167.933 99.0581 168.015 99.1242 168.081C99.1902 168.144 99.2737 168.189 99.3746 168.217C99.4789 168.244 99.5989 168.258 99.7346 168.258H99.9694V169.594ZM102.377 167.554C102.492 167.603 102.639 167.664 102.82 167.737C103.001 167.81 103.196 167.883 103.405 167.956C103.613 168.029 103.824 168.095 104.036 168.154C104.252 168.21 104.448 168.244 104.625 168.258C104.591 168.112 104.554 167.961 104.516 167.804C104.481 167.644 104.441 167.49 104.396 167.34C104.351 167.191 104.3 167.05 104.245 166.917C104.189 166.782 104.123 166.664 104.046 166.563C103.973 166.462 103.888 166.382 103.791 166.323C103.693 166.264 103.584 166.234 103.462 166.234C103.323 166.234 103.198 166.279 103.086 166.37C102.978 166.46 102.879 166.573 102.789 166.709C102.702 166.841 102.624 166.984 102.554 167.137C102.488 167.29 102.429 167.429 102.377 167.554ZM104.359 169.578C104.178 169.575 103.966 169.549 103.723 169.5C103.479 169.455 103.231 169.394 102.977 169.318C102.726 169.241 102.485 169.154 102.252 169.057C102.022 168.959 101.827 168.857 101.667 168.749C101.532 168.884 101.399 169.004 101.271 169.109C101.142 169.213 101.008 169.302 100.869 169.375C100.73 169.444 100.578 169.498 100.415 169.537C100.255 169.575 100.072 169.594 99.8672 169.594H99.7628V168.258H99.8672C100.121 168.258 100.333 168.211 100.504 168.118C100.674 168.02 100.82 167.895 100.942 167.742C101.064 167.589 101.17 167.417 101.26 167.225C101.354 167.034 101.45 166.843 101.547 166.651C101.645 166.45 101.756 166.248 101.881 166.046C102.006 165.844 102.147 165.664 102.304 165.504C102.464 165.34 102.643 165.208 102.841 165.107C103.039 165.006 103.262 164.956 103.509 164.956C103.832 164.956 104.104 165.013 104.323 165.128C104.545 165.239 104.73 165.394 104.876 165.592C105.025 165.787 105.144 166.017 105.231 166.281C105.318 166.545 105.391 166.831 105.45 167.137C105.485 167.314 105.518 167.472 105.549 167.611C105.58 167.747 105.615 167.864 105.653 167.961C105.695 168.058 105.738 168.133 105.784 168.185C105.832 168.234 105.89 168.258 105.956 168.258H106.118V169.594H105.919C105.728 169.591 105.558 169.538 105.408 169.438C105.262 169.333 105.126 169.196 105.001 169.025C104.963 169.06 104.918 169.107 104.865 169.166C104.817 169.225 104.763 169.284 104.704 169.344C104.648 169.399 104.591 169.45 104.532 169.495C104.472 169.54 104.415 169.568 104.359 169.578ZM105.903 168.258H106.743C106.907 168.258 107.074 168.25 107.244 168.232C107.418 168.211 107.575 168.171 107.714 168.112C107.853 168.05 107.966 167.961 108.053 167.846C108.143 167.731 108.189 167.578 108.189 167.387C108.189 167.297 108.17 167.17 108.131 167.006C108.093 166.843 108.043 166.662 107.98 166.464C107.917 166.265 107.843 166.06 107.756 165.848C107.672 165.636 107.583 165.437 107.49 165.253L108.695 164.658C108.782 164.857 108.869 165.067 108.956 165.29C109.043 165.512 109.119 165.742 109.185 165.978C109.255 166.211 109.31 166.446 109.352 166.683C109.394 166.919 109.415 167.151 109.415 167.377C109.415 167.766 109.349 168.102 109.217 168.384C109.084 168.662 108.9 168.891 108.663 169.072C108.427 169.25 108.143 169.38 107.813 169.464C107.486 169.551 107.126 169.594 106.733 169.594H105.903V168.258ZM108.57 162.89L107.568 163.891L106.571 162.89L107.568 161.893L108.57 162.89ZM125.404 169.594C125.115 169.594 124.852 169.57 124.616 169.521C124.383 169.472 124.171 169.396 123.979 169.291C123.788 169.184 123.618 169.048 123.468 168.884C123.318 168.718 123.186 168.518 123.071 168.284C122.115 169.168 120.684 169.61 118.778 169.61C117.689 169.603 116.788 169.469 116.075 169.208C115.365 168.944 114.842 168.538 114.504 167.992C114.358 167.731 114.258 167.46 114.202 167.178C114.16 166.973 114.139 166.768 114.139 166.563C114.139 166.483 114.144 166.352 114.155 166.171C114.169 165.991 114.219 165.764 114.306 165.493C114.393 165.218 114.508 164.959 114.651 164.716L115.658 165.347C115.557 165.514 115.473 165.681 115.407 165.848C115.341 166.015 115.299 166.182 115.282 166.349C115.275 166.411 115.271 166.474 115.271 166.537C115.271 166.641 115.284 166.761 115.308 166.897C115.336 167.032 115.402 167.182 115.506 167.345C115.604 167.509 115.751 167.648 115.95 167.763C116.148 167.877 116.388 167.971 116.67 168.044C116.955 168.117 117.275 168.171 117.63 168.206C117.984 168.241 118.367 168.258 118.778 168.258C119.15 168.258 119.503 168.244 119.837 168.217C120.171 168.189 120.48 168.145 120.765 168.086C121.054 168.024 121.315 167.945 121.548 167.851C121.781 167.754 121.981 167.636 122.148 167.497C122.301 167.378 122.424 167.241 122.518 167.084C122.612 166.928 122.691 166.764 122.753 166.594C122.816 166.42 122.868 166.243 122.91 166.062C122.951 165.881 122.997 165.707 123.045 165.54L124.245 165.864C124.179 166.048 124.127 166.236 124.089 166.427C124.054 166.601 124.037 166.77 124.037 166.933C124.037 166.951 124.037 167.008 124.037 167.105C124.037 167.199 124.061 167.324 124.11 167.481C124.158 167.634 124.237 167.77 124.344 167.888C124.452 168.003 124.593 168.093 124.767 168.159C124.944 168.225 125.16 168.258 125.414 168.258H125.602V169.594H125.404ZM119.117 164.293L118.23 165.18L117.332 164.288L118.219 163.396L119.117 164.293ZM121.089 164.298L120.202 165.191L119.304 164.293L120.191 163.406L121.089 164.298ZM128.006 167.554C128.12 167.603 128.268 167.664 128.449 167.737C128.63 167.81 128.825 167.883 129.033 167.956C129.242 168.029 129.453 168.095 129.665 168.154C129.88 168.21 130.077 168.244 130.254 168.258C130.22 168.112 130.183 167.961 130.145 167.804C130.11 167.644 130.07 167.49 130.025 167.34C129.98 167.191 129.929 167.05 129.873 166.917C129.818 166.782 129.752 166.664 129.675 166.563C129.602 166.462 129.517 166.382 129.42 166.323C129.322 166.264 129.213 166.234 129.091 166.234C128.952 166.234 128.827 166.279 128.715 166.37C128.607 166.46 128.508 166.573 128.418 166.709C128.331 166.841 128.253 166.984 128.183 167.137C128.117 167.29 128.058 167.429 128.006 167.554ZM129.988 169.578C129.807 169.575 129.595 169.549 129.352 169.5C129.108 169.455 128.86 169.394 128.606 169.318C128.355 169.241 128.113 169.154 127.88 169.057C127.651 168.959 127.456 168.857 127.296 168.749C127.16 168.884 127.028 169.004 126.9 169.109C126.771 169.213 126.637 169.302 126.498 169.375C126.359 169.444 126.207 169.498 126.044 169.537C125.884 169.575 125.701 169.594 125.496 169.594H125.392V168.258H125.496C125.75 168.258 125.962 168.211 126.133 168.118C126.303 168.02 126.449 167.895 126.571 167.742C126.693 167.589 126.799 167.417 126.889 167.225C126.983 167.034 127.079 166.843 127.176 166.651C127.273 166.45 127.385 166.248 127.51 166.046C127.635 165.844 127.776 165.664 127.933 165.504C128.093 165.34 128.272 165.208 128.47 165.107C128.668 165.006 128.891 164.956 129.138 164.956C129.461 164.956 129.733 165.013 129.952 165.128C130.174 165.239 130.359 165.394 130.505 165.592C130.654 165.787 130.773 166.017 130.86 166.281C130.947 166.545 131.02 166.831 131.079 167.137C131.113 167.314 131.147 167.472 131.178 167.611C131.209 167.747 131.244 167.864 131.282 167.961C131.324 168.058 131.367 168.133 131.413 168.185C131.461 168.234 131.519 168.258 131.585 168.258H131.747V169.594H131.548C131.357 169.591 131.187 169.538 131.037 169.438C130.891 169.333 130.755 169.196 130.63 169.025C130.592 169.06 130.547 169.107 130.494 169.166C130.446 169.225 130.392 169.284 130.333 169.344C130.277 169.399 130.22 169.45 130.16 169.495C130.101 169.54 130.044 169.568 129.988 169.578ZM136.186 168.258V169.594H136.082C135.745 169.594 135.459 169.54 135.226 169.432C134.993 169.324 134.795 169.185 134.632 169.015C134.517 169.161 134.346 169.274 134.12 169.354C133.898 169.431 133.649 169.486 133.374 169.521C133.099 169.559 132.816 169.58 132.524 169.584C132.235 169.591 131.969 169.594 131.725 169.594H131.532V168.258H131.725C132.132 168.258 132.475 168.236 132.753 168.191C133.032 168.142 133.256 168.072 133.426 167.982C133.6 167.891 133.725 167.778 133.802 167.643C133.878 167.504 133.917 167.344 133.917 167.163C133.917 167.044 133.894 166.888 133.849 166.693C133.804 166.495 133.736 166.241 133.645 165.931L134.929 165.571C134.974 165.724 135.009 165.86 135.033 165.978C135.061 166.093 135.082 166.21 135.096 166.328C135.113 166.443 135.127 166.568 135.138 166.704C135.152 166.836 135.165 166.994 135.179 167.178C135.19 167.29 135.216 167.41 135.258 167.538C135.299 167.664 135.357 167.78 135.43 167.888C135.506 167.992 135.598 168.081 135.706 168.154C135.814 168.224 135.939 168.258 136.082 168.258H136.186ZM133.473 171.138L132.586 172.025L131.689 171.133L132.576 170.241L133.473 171.138ZM135.445 171.144L134.558 172.036L133.661 171.138L134.548 170.251L135.445 171.144ZM136.099 168.258C136.464 168.258 136.816 168.248 137.153 168.227C137.49 168.203 137.798 168.17 138.076 168.128C138.355 168.086 138.595 168.036 138.796 167.977C138.998 167.917 139.149 167.851 139.25 167.778H138.718C138.412 167.778 138.12 167.74 137.842 167.664C137.567 167.584 137.325 167.465 137.116 167.309C136.908 167.152 136.741 166.957 136.616 166.724C136.494 166.488 136.433 166.213 136.433 165.9C136.433 165.716 136.452 165.526 136.49 165.331C136.529 165.137 136.586 164.947 136.662 164.763C136.739 164.578 136.831 164.404 136.939 164.241C137.047 164.077 137.17 163.935 137.309 163.813C137.449 163.688 137.602 163.591 137.769 163.521C137.936 163.448 138.116 163.411 138.311 163.411C138.551 163.411 138.776 163.462 138.984 163.563C139.193 163.664 139.382 163.801 139.553 163.975C139.723 164.145 139.875 164.344 140.007 164.57C140.139 164.796 140.25 165.034 140.341 165.284C140.431 165.535 140.499 165.791 140.544 166.051C140.593 166.309 140.617 166.554 140.617 166.787C140.617 167.184 140.562 167.528 140.45 167.82C140.342 168.112 140.189 168.363 139.991 168.571C139.796 168.78 139.562 168.951 139.287 169.083C139.016 169.215 138.715 169.319 138.384 169.396C138.054 169.472 137.699 169.524 137.32 169.552C136.944 169.58 136.555 169.594 136.151 169.594H135.974V168.258H136.099ZM138.311 164.757C138.294 164.754 138.276 164.752 138.259 164.752C138.189 164.752 138.109 164.78 138.019 164.836C137.929 164.891 137.842 164.971 137.758 165.076C137.675 165.18 137.607 165.298 137.555 165.431C137.502 165.559 137.476 165.686 137.476 165.811C137.476 165.818 137.476 165.825 137.476 165.832C137.476 165.957 137.504 166.06 137.56 166.14C137.616 166.217 137.69 166.276 137.784 166.317C137.882 166.359 137.993 166.389 138.118 166.406C138.247 166.424 138.382 166.436 138.525 166.443C138.619 166.446 138.716 166.448 138.817 166.448C138.866 166.448 138.941 166.448 139.042 166.448C139.146 166.444 139.252 166.439 139.36 166.432C139.329 166.307 139.283 166.152 139.224 165.968C139.169 165.78 139.097 165.599 139.01 165.425C138.927 165.248 138.826 165.095 138.708 164.966C138.593 164.837 138.461 164.768 138.311 164.757ZM138.186 161.841L137.299 162.728L136.402 161.836L137.289 160.944L138.186 161.841ZM140.158 161.846L139.271 162.738L138.374 161.841L139.261 160.954L140.158 161.846Z" fill="#5D606D"/>
<path d="M76.1043 16.7461C75.5687 16.7461 75.0817 16.6661 74.6434 16.5061C74.2052 16.3461 73.8295 16.1165 73.5165 15.8174C73.2069 15.5183 72.9669 15.153 72.7965 14.7217C72.6261 14.2939 72.5408 13.8104 72.5408 13.2713C72.5408 12.7183 72.6208 12.1704 72.7808 11.6278C72.9443 11.0852 73.1878 10.5704 73.5113 10.0835L74.5391 10.8296C74.4765 10.9165 74.3982 11.0452 74.3043 11.2157C74.2139 11.3861 74.1269 11.5826 74.0434 11.8052C73.96 12.0278 73.8869 12.2678 73.8243 12.5252C73.7652 12.7826 73.7356 13.0417 73.7356 13.3026C73.7356 13.6122 73.8 13.8939 73.9287 14.1478C74.0608 14.4017 74.2382 14.6191 74.4608 14.8C74.6834 14.9843 74.9408 15.127 75.233 15.2278C75.5287 15.3322 75.84 15.3878 76.1669 15.3948C76.1843 15.3948 76.2017 15.3948 76.2191 15.3948C76.4626 15.3948 76.7008 15.3704 76.9339 15.3217C77.1704 15.2765 77.3947 15.2052 77.6069 15.1078C77.8191 15.0139 78.0121 14.8991 78.1861 14.7635C78.36 14.6278 78.5078 14.4765 78.6295 14.3096C78.7513 14.1426 78.8452 13.9617 78.9113 13.767C78.9634 13.6 78.9895 13.4261 78.9895 13.2452C78.9895 13.2174 78.9895 13.1878 78.9895 13.1565C78.9826 12.9965 78.9547 12.8191 78.9061 12.6243C78.8608 12.4261 78.8052 12.2261 78.7391 12.0243C78.673 11.8226 78.6017 11.6261 78.5252 11.4348C78.4521 11.24 78.3826 11.0678 78.3165 10.9183C78.2504 10.7687 78.1947 10.6487 78.1495 10.5583C78.1043 10.4678 78.08 10.4226 78.0765 10.4226L79.3026 9.73913C79.313 9.75652 79.3495 9.84522 79.4121 10.0052C79.4782 10.1617 79.5617 10.3583 79.6626 10.5948C79.7947 10.8974 79.9234 11.1322 80.0487 11.2991C80.1774 11.4626 80.3026 11.5843 80.4243 11.6643C80.5461 11.7409 80.6643 11.7861 80.7791 11.8C80.8974 11.8139 81.0104 11.8209 81.1182 11.8209H81.2904V13.1565H81.1182C80.9304 13.1565 80.76 13.1374 80.6069 13.0991C80.4539 13.0643 80.3217 13.0157 80.2104 12.953C80.2139 13.0191 80.2156 13.0852 80.2156 13.1513C80.2156 13.4017 80.1913 13.6643 80.1426 13.9391C80.0939 14.2174 80.0017 14.4974 79.8661 14.7791C79.7339 15.0609 79.5582 15.3217 79.3391 15.5617C79.12 15.8017 78.8556 16.0087 78.5461 16.1826C78.24 16.36 77.8834 16.4974 77.4765 16.5948C77.0695 16.6957 76.6121 16.7461 76.1043 16.7461ZM77.2782 9.62435L76.2765 10.6261L75.28 9.62435L76.2765 8.62783L77.2782 9.62435ZM82.9523 15.2957L82.0653 16.1826L81.1679 15.2904L82.0549 14.3983L82.9523 15.2957ZM81.5592 11.8209C81.8305 11.8209 82.0897 11.8087 82.3366 11.7843C82.587 11.76 82.8079 11.7096 82.9992 11.633C83.194 11.553 83.3488 11.4417 83.4636 11.2991C83.5818 11.153 83.6462 10.9617 83.6566 10.7252C83.6392 10.4504 83.6183 10.2626 83.594 10.1617C83.5731 10.0574 83.5453 9.94435 83.5105 9.82261C83.4757 9.70087 83.4357 9.56 83.3905 9.4L84.6688 9.04C84.714 9.20696 84.7505 9.36 84.7783 9.49913C84.8062 9.63478 84.8288 9.76696 84.8462 9.89565C84.8636 10.0209 84.8775 10.1496 84.8879 10.2817C84.9018 10.4139 84.9157 10.56 84.9297 10.72C84.9401 10.8383 84.9557 10.9635 84.9766 11.0957C84.9975 11.2243 85.0323 11.3426 85.081 11.4504C85.1331 11.5583 85.2027 11.647 85.2897 11.7165C85.3801 11.7861 85.4983 11.8209 85.6444 11.8209H86.6618C86.8323 11.8209 87.0131 11.8157 87.2044 11.8052C87.3957 11.7913 87.5783 11.767 87.7523 11.7322C87.9297 11.6939 88.0897 11.6435 88.2323 11.5809C88.3749 11.5148 88.481 11.4313 88.5505 11.3304C88.6027 11.2539 88.6288 11.1513 88.6288 11.0226C88.6323 10.8939 88.6149 10.753 88.5766 10.6C88.5418 10.447 88.4931 10.287 88.4305 10.12C88.3714 9.94957 88.307 9.78609 88.2375 9.62957C88.1679 9.46957 88.0983 9.32 88.0288 9.18087C87.9627 9.03826 87.907 8.91826 87.8618 8.82087L89.0775 8.22087C89.1714 8.38783 89.2636 8.58957 89.354 8.82609C89.4479 9.05913 89.5297 9.30087 89.5992 9.5513C89.6688 9.80174 89.7244 10.0487 89.7662 10.2922C89.8114 10.5357 89.834 10.7513 89.834 10.9391C89.834 11.2765 89.7766 11.5774 89.6618 11.8417C89.5297 12.1478 89.3436 12.4 89.1036 12.5983C88.8636 12.793 88.5783 12.9391 88.2479 13.0365C88.147 13.0643 88.0201 13.0852 87.867 13.0991C87.7175 13.1165 87.5644 13.1287 87.4079 13.1357C87.2514 13.1461 87.1018 13.1513 86.9592 13.1513C86.8201 13.1548 86.7123 13.1565 86.6357 13.1565H85.6497C85.3088 13.1565 85.0201 13.1009 84.7836 12.9896C84.5505 12.8783 84.354 12.7339 84.194 12.5565C84.0479 12.6678 83.874 12.7617 83.6723 12.8383C83.474 12.9148 83.2583 12.9757 83.0253 13.0209C82.7923 13.0696 82.5505 13.1043 82.3001 13.1252C82.0497 13.1461 81.8027 13.1565 81.5592 13.1565H81.0949V11.8209H81.5592ZM89.834 14.753L88.947 15.6452L88.0497 14.7478L88.9366 13.8609L89.834 14.753ZM87.8618 14.7478L86.9749 15.6348L86.0775 14.7426L86.9644 13.8504L87.8618 14.7478ZM84.9244 15.3009L84.0375 16.193L83.1401 15.2957L84.027 14.4087L84.9244 15.3009ZM93.9811 13.1565H93.7724C93.0663 13.1565 92.5307 12.9791 92.1654 12.6243C91.8002 12.2696 91.6159 11.7339 91.6124 11.0174C91.6124 10.9061 91.6159 10.7235 91.6228 10.4696C91.6298 10.2122 91.6333 9.89913 91.6333 9.53043C91.6333 9.3113 91.6315 9.07652 91.6281 8.82609C91.6246 8.57217 91.6194 8.31478 91.6124 8.05391C91.6054 7.78957 91.595 7.52696 91.5811 7.26609C91.5707 7.00174 91.5567 6.74783 91.5394 6.50435C91.522 6.25739 91.5011 6.02783 91.4767 5.81565C91.4524 5.6 91.4246 5.41043 91.3933 5.24696L92.7028 4.85565C92.7411 5.05739 92.7759 5.30435 92.8072 5.59652C92.8385 5.88522 92.8663 6.19478 92.8907 6.52522C92.915 6.85565 92.9324 7.19304 92.9428 7.53739C92.9567 7.87826 92.9637 8.2 92.9637 8.50261C92.9637 8.68696 92.9654 8.88348 92.9689 9.09217C92.9724 9.29739 92.9741 9.47826 92.9741 9.63478C92.9741 9.76696 92.9724 9.89217 92.9689 10.0104C92.9689 10.1252 92.9672 10.2365 92.9637 10.3443C92.9637 10.4522 92.962 10.5583 92.9585 10.6626C92.9585 10.767 92.9585 10.873 92.9585 10.9809C92.9585 11.0087 92.9585 11.0365 92.9585 11.0643C92.9585 11.1896 92.9707 11.3009 92.995 11.3983C93.0228 11.4957 93.0698 11.5774 93.1359 11.6435C93.202 11.7061 93.2854 11.7513 93.3863 11.7791C93.4907 11.807 93.6107 11.8209 93.7463 11.8209H93.9811V13.1565ZM93.7746 11.8209H94.8859C95.0493 11.8209 95.225 11.8122 95.4128 11.7948C95.6041 11.7739 95.7798 11.7339 95.9398 11.6748C96.1033 11.6122 96.2372 11.5235 96.3415 11.4087C96.4493 11.2939 96.5033 11.1409 96.5033 10.9496C96.5033 10.8591 96.4841 10.7322 96.4459 10.5687C96.4076 10.4052 96.3572 10.2243 96.2946 10.0261C96.2319 9.82783 96.1572 9.62261 96.0702 9.41043C95.9867 9.19826 95.898 9 95.8041 8.81565L97.0093 8.22087C97.0963 8.41913 97.1833 8.62957 97.2702 8.85217C97.3572 9.07478 97.4337 9.30435 97.4998 9.54087C97.5693 9.77391 97.625 10.0087 97.6667 10.2452C97.7085 10.4817 97.7293 10.713 97.7293 10.9391C97.7293 11.3426 97.6546 11.6852 97.505 11.967C97.3554 12.2487 97.1502 12.4783 96.8893 12.6557C96.6319 12.8296 96.3293 12.9565 95.9815 13.0365C95.6372 13.1165 95.2685 13.1565 94.8754 13.1565H93.7746V11.8209ZM95.9711 14.9357L96.858 14.0487L97.7554 14.9409L96.8685 15.833L95.9711 14.9357ZM93.9989 14.9304L94.8859 14.0383L95.7833 14.9357L94.8963 15.8226L93.9989 14.9304ZM96.6911 16.4435L95.8772 17.2574L95.058 16.4383L95.8772 15.6243L96.6911 16.4435ZM103.972 11.3513C103.767 11.6574 103.616 11.9913 103.518 12.353C103.421 12.7148 103.372 13.0748 103.372 13.433C103.372 13.7183 103.438 13.9722 103.571 14.1948C103.703 14.4209 103.871 14.6104 104.077 14.7635C104.282 14.92 104.51 15.0383 104.76 15.1183C105.011 15.2017 105.254 15.2435 105.491 15.2435C105.731 15.2435 105.979 15.2017 106.237 15.1183C106.498 15.0383 106.736 14.9096 106.951 14.7322C107.167 14.5583 107.345 14.3322 107.484 14.0539C107.623 13.7791 107.692 13.4452 107.692 13.0522C107.692 12.7774 107.687 12.4539 107.677 12.0817C107.666 11.7096 107.652 11.3148 107.635 10.8974C107.621 10.4765 107.604 10.0435 107.583 9.59826C107.562 9.15304 107.541 8.71826 107.52 8.29391C107.496 7.79652 107.466 7.27826 107.431 6.73913C107.4 6.19652 107.369 5.65391 107.338 5.1113L108.699 4.85565C108.724 5.42609 108.748 5.99304 108.772 6.55652C108.8 7.11652 108.823 7.65565 108.84 8.17391C108.854 8.61565 108.868 9.06783 108.882 9.53043C108.899 9.99304 108.913 10.4417 108.924 10.8765C108.938 11.3078 108.948 11.713 108.955 12.0922C108.965 12.4713 108.971 12.7983 108.971 13.073C108.971 13.5113 108.918 13.9026 108.814 14.247C108.713 14.5913 108.576 14.8922 108.402 15.1496C108.228 15.4104 108.025 15.6313 107.791 15.8122C107.562 15.993 107.318 16.1409 107.061 16.2557C106.807 16.3704 106.548 16.4522 106.284 16.5009C106.019 16.553 105.765 16.5791 105.522 16.5791C105.289 16.5791 105.044 16.553 104.786 16.5009C104.532 16.4487 104.28 16.3687 104.03 16.2609C103.779 16.153 103.541 16.0139 103.315 15.8435C103.089 15.6765 102.889 15.4765 102.715 15.2435C102.545 15.0104 102.411 14.7426 102.313 14.44C102.216 14.1513 102.167 13.8261 102.167 13.4643C102.167 13.4539 102.167 13.4417 102.167 13.4278C102.167 13.2052 102.179 12.9774 102.204 12.7443C102.231 12.5113 102.273 12.2817 102.329 12.0557C102.385 11.8296 102.454 11.6122 102.538 11.4035C102.621 11.1948 102.724 11.0035 102.845 10.8296L103.972 11.3513ZM113.001 13.1565H112.792C112.086 13.1565 111.55 12.9791 111.185 12.6243C110.82 12.2696 110.635 11.7339 110.632 11.0174C110.632 10.9061 110.635 10.7235 110.642 10.4696C110.649 10.2122 110.653 9.89913 110.653 9.53043C110.653 9.3113 110.651 9.07652 110.648 8.82609C110.644 8.57217 110.639 8.31478 110.632 8.05391C110.625 7.78957 110.615 7.52696 110.601 7.26609C110.59 7.00174 110.576 6.74783 110.559 6.50435C110.541 6.25739 110.521 6.02783 110.496 5.81565C110.472 5.6 110.444 5.41043 110.413 5.24696L111.722 4.85565C111.761 5.05739 111.795 5.30435 111.827 5.59652C111.858 5.88522 111.886 6.19478 111.91 6.52522C111.935 6.85565 111.952 7.19304 111.962 7.53739C111.976 7.87826 111.983 8.2 111.983 8.50261C111.983 8.68696 111.985 8.88348 111.988 9.09217C111.992 9.29739 111.994 9.47826 111.994 9.63478C111.994 9.76696 111.992 9.89217 111.988 10.0104C111.988 10.1252 111.987 10.2365 111.983 10.3443C111.983 10.4522 111.981 10.5583 111.978 10.6626C111.978 10.767 111.978 10.873 111.978 10.9809C111.978 11.0087 111.978 11.0365 111.978 11.0643C111.978 11.1896 111.99 11.3009 112.015 11.3983C112.042 11.4957 112.089 11.5774 112.155 11.6435C112.221 11.7061 112.305 11.7513 112.406 11.7791C112.51 11.807 112.63 11.8209 112.766 11.8209H113.001V13.1565ZM115.408 11.1165C115.523 11.1652 115.671 11.2261 115.851 11.2991C116.032 11.3722 116.227 11.4452 116.436 11.5183C116.645 11.5913 116.855 11.6574 117.067 11.7165C117.283 11.7722 117.479 11.807 117.657 11.8209C117.622 11.6748 117.585 11.5235 117.547 11.367C117.512 11.207 117.472 11.0522 117.427 10.9026C117.382 10.753 117.331 10.6122 117.276 10.48C117.22 10.3443 117.154 10.2261 117.078 10.1252C117.005 10.0243 116.919 9.94435 116.822 9.88522C116.725 9.82609 116.615 9.79652 116.493 9.79652C116.354 9.79652 116.229 9.84174 116.118 9.93217C116.01 10.0226 115.911 10.1357 115.82 10.2713C115.733 10.4035 115.655 10.5461 115.585 10.6991C115.519 10.8522 115.46 10.9913 115.408 11.1165ZM117.391 13.1409C117.21 13.1374 116.998 13.1113 116.754 13.0626C116.511 13.0174 116.262 12.9565 116.008 12.88C115.758 12.8035 115.516 12.7165 115.283 12.6191C115.053 12.5217 114.858 12.4191 114.698 12.3113C114.563 12.447 114.431 12.567 114.302 12.6713C114.173 12.7757 114.039 12.8643 113.9 12.9374C113.761 13.007 113.61 13.0609 113.446 13.0991C113.286 13.1374 113.104 13.1565 112.898 13.1565H112.794V11.8209H112.898C113.152 11.8209 113.365 11.7739 113.535 11.68C113.705 11.5826 113.851 11.4574 113.973 11.3043C114.095 11.1513 114.201 10.9791 114.291 10.7878C114.385 10.5965 114.481 10.4052 114.578 10.2139C114.676 10.0122 114.787 9.81043 114.912 9.6087C115.038 9.40696 115.178 9.22609 115.335 9.06609C115.495 8.90261 115.674 8.77043 115.872 8.66956C116.071 8.5687 116.293 8.51826 116.54 8.51826C116.864 8.51826 117.135 8.57565 117.354 8.69043C117.577 8.80174 117.761 8.95652 117.907 9.15478C118.057 9.34957 118.175 9.57913 118.262 9.84348C118.349 10.1078 118.422 10.393 118.481 10.6991C118.516 10.8765 118.549 11.0348 118.58 11.1739C118.611 11.3096 118.646 11.4261 118.685 11.5235C118.726 11.6209 118.77 11.6957 118.815 11.7478C118.864 11.7965 118.921 11.8209 118.987 11.8209H119.149V13.1565H118.951C118.759 13.153 118.589 13.1009 118.439 13C118.293 12.8957 118.158 12.7583 118.032 12.5878C117.994 12.6226 117.949 12.6696 117.897 12.7287C117.848 12.7878 117.794 12.847 117.735 12.9061C117.679 12.9617 117.622 13.0122 117.563 13.0574C117.504 13.1026 117.446 13.1304 117.391 13.1409ZM123.609 10.0939C123.484 9.94783 123.338 9.81565 123.171 9.69739C123.032 9.59652 122.87 9.50609 122.686 9.42609C122.502 9.34261 122.3 9.30087 122.081 9.30087C121.903 9.30087 121.747 9.3287 121.611 9.38435C121.476 9.43652 121.361 9.50957 121.267 9.60348C121.173 9.69391 121.1 9.8 121.048 9.92174C120.996 10.0435 120.964 10.1739 120.954 10.313C120.95 10.3374 120.949 10.3617 120.949 10.3861C120.949 10.5496 120.992 10.7096 121.079 10.8661C121.166 11.0191 121.288 11.1565 121.444 11.2783C121.601 11.3965 121.782 11.487 121.987 11.5496C122.154 11.6017 122.323 11.6278 122.493 11.6278C122.531 11.6278 122.569 11.6261 122.608 11.6226C122.809 11.6087 123.011 11.5878 123.213 11.56C123.418 11.5287 123.604 11.4991 123.771 11.4713L124.329 11.3617L124.491 12.6609C124.276 12.7165 124.034 12.7739 123.766 12.833C123.498 12.8922 123.19 12.9461 122.843 12.9948C122.498 13.04 122.107 13.0783 121.669 13.1096C121.23 13.1409 120.733 13.1565 120.176 13.1565H118.935V11.8209H119.164L120.161 11.8157C119.973 11.5965 119.844 11.3722 119.775 11.1426C119.709 10.9096 119.676 10.6539 119.676 10.3757C119.676 10.0487 119.736 9.73913 119.858 9.44696C119.98 9.15478 120.147 8.89913 120.359 8.68C120.575 8.46087 120.829 8.28696 121.121 8.15826C121.416 8.02957 121.736 7.96522 122.081 7.96522C122.251 7.96522 122.415 7.98087 122.571 8.01217C122.731 8.04348 122.883 8.08522 123.025 8.13739C123.168 8.18957 123.302 8.2487 123.427 8.31478C123.556 8.38087 123.672 8.44696 123.776 8.51304C123.898 8.59304 124.016 8.67826 124.131 8.7687C124.246 8.85913 124.354 8.95478 124.455 9.05565L123.609 10.0939ZM127.026 4.85565C127.113 5.52 127.174 6.15478 127.208 6.76C127.243 7.36174 127.264 7.9513 127.271 8.5287C127.278 9.01913 127.28 9.47304 127.276 9.89043C127.276 10.3078 127.273 10.6974 127.266 11.0591C127.259 11.4174 127.248 11.753 127.234 12.0661C127.22 12.3757 127.207 12.6661 127.193 12.9374L125.826 13.1461C125.899 11.9983 125.935 10.9843 125.935 10.1043C125.935 9.74957 125.93 9.41739 125.92 9.10783C125.892 8.39478 125.86 7.72522 125.826 7.09913C125.791 6.46956 125.744 5.86783 125.685 5.29391L127.026 4.85565ZM143.404 13.1565C143.115 13.1565 142.852 13.1322 142.616 13.0835C142.383 13.0348 142.171 12.9583 141.979 12.8539C141.788 12.7461 141.618 12.6104 141.468 12.447C141.318 12.28 141.186 12.08 141.071 11.847C140.115 12.7304 138.684 13.1722 136.778 13.1722C135.689 13.1652 134.788 13.0313 134.075 12.7704C133.365 12.5061 132.842 12.1009 132.504 11.5548C132.358 11.2939 132.258 11.0226 132.202 10.7409C132.16 10.5357 132.139 10.3304 132.139 10.1252C132.139 10.0452 132.144 9.91478 132.155 9.73391C132.169 9.55304 132.219 9.32696 132.306 9.05565C132.393 8.78087 132.508 8.52174 132.651 8.27826L133.658 8.90957C133.557 9.07652 133.473 9.24348 133.407 9.41043C133.341 9.57739 133.299 9.74435 133.282 9.9113C133.275 9.97391 133.271 10.0365 133.271 10.0991C133.271 10.2035 133.284 10.3235 133.308 10.4591C133.336 10.5948 133.402 10.7443 133.506 10.9078C133.604 11.0713 133.751 11.2104 133.95 11.3252C134.148 11.44 134.388 11.5339 134.67 11.607C134.955 11.68 135.275 11.7339 135.63 11.7687C135.984 11.8035 136.367 11.8209 136.778 11.8209C137.15 11.8209 137.503 11.807 137.837 11.7791C138.171 11.7513 138.48 11.7078 138.765 11.6487C139.054 11.5861 139.315 11.5078 139.548 11.4139C139.781 11.3165 139.981 11.1983 140.148 11.0591C140.301 10.9409 140.424 10.8035 140.518 10.647C140.612 10.4904 140.691 10.327 140.753 10.1565C140.816 9.98261 140.868 9.80522 140.91 9.62435C140.951 9.44348 140.997 9.26957 141.045 9.10261L142.245 9.42609C142.179 9.61043 142.127 9.79826 142.089 9.98957C142.054 10.1635 142.037 10.3322 142.037 10.4957C142.037 10.513 142.037 10.5704 142.037 10.6678C142.037 10.7617 142.061 10.887 142.11 11.0435C142.158 11.1965 142.237 11.3322 142.344 11.4504C142.452 11.5652 142.593 11.6557 142.767 11.7217C142.944 11.7878 143.16 11.8209 143.414 11.8209H143.602V13.1565H143.404ZM137.117 7.85565L136.23 8.74261L135.332 7.85043L136.219 6.95826L137.117 7.85565ZM139.089 7.86087L138.202 8.75304L137.304 7.85565L138.191 6.9687L139.089 7.86087ZM146.006 11.1165C146.12 11.1652 146.268 11.2261 146.449 11.2991C146.63 11.3722 146.825 11.4452 147.033 11.5183C147.242 11.5913 147.453 11.6574 147.665 11.7165C147.88 11.7722 148.077 11.807 148.254 11.8209C148.22 11.6748 148.183 11.5235 148.145 11.367C148.11 11.207 148.07 11.0522 148.025 10.9026C147.98 10.753 147.929 10.6122 147.873 10.48C147.818 10.3443 147.752 10.2261 147.675 10.1252C147.602 10.0243 147.517 9.94435 147.42 9.88522C147.322 9.82609 147.213 9.79652 147.091 9.79652C146.952 9.79652 146.827 9.84174 146.715 9.93217C146.607 10.0226 146.508 10.1357 146.418 10.2713C146.331 10.4035 146.253 10.5461 146.183 10.6991C146.117 10.8522 146.058 10.9913 146.006 11.1165ZM147.988 13.1409C147.807 13.1374 147.595 13.1113 147.352 13.0626C147.108 13.0174 146.86 12.9565 146.606 12.88C146.355 12.8035 146.113 12.7165 145.88 12.6191C145.651 12.5217 145.456 12.4191 145.296 12.3113C145.16 12.447 145.028 12.567 144.9 12.6713C144.771 12.7757 144.637 12.8643 144.498 12.9374C144.359 13.007 144.207 13.0609 144.044 13.0991C143.884 13.1374 143.701 13.1565 143.496 13.1565H143.392V11.8209H143.496C143.75 11.8209 143.962 11.7739 144.133 11.68C144.303 11.5826 144.449 11.4574 144.571 11.3043C144.693 11.1513 144.799 10.9791 144.889 10.7878C144.983 10.5965 145.079 10.4052 145.176 10.2139C145.273 10.0122 145.385 9.81043 145.51 9.6087C145.635 9.40696 145.776 9.22609 145.933 9.06609C146.093 8.90261 146.272 8.77043 146.47 8.66956C146.668 8.5687 146.891 8.51826 147.138 8.51826C147.461 8.51826 147.733 8.57565 147.952 8.69043C148.174 8.80174 148.359 8.95652 148.505 9.15478C148.654 9.34957 148.773 9.57913 148.86 9.84348C148.947 10.1078 149.02 10.393 149.079 10.6991C149.113 10.8765 149.147 11.0348 149.178 11.1739C149.209 11.3096 149.244 11.4261 149.282 11.5235C149.324 11.6209 149.367 11.6957 149.413 11.7478C149.461 11.7965 149.519 11.8209 149.585 11.8209H149.747V13.1565H149.548C149.357 13.153 149.187 13.1009 149.037 13C148.891 12.8957 148.755 12.7583 148.63 12.5878C148.592 12.6226 148.547 12.6696 148.494 12.7287C148.446 12.7878 148.392 12.847 148.333 12.9061C148.277 12.9617 148.22 13.0122 148.16 13.0574C148.101 13.1026 148.044 13.1304 147.988 13.1409ZM154.186 11.8209V13.1565H154.082C153.745 13.1565 153.459 13.1026 153.226 12.9948C152.993 12.887 152.795 12.7478 152.632 12.5774C152.517 12.7235 152.346 12.8365 152.12 12.9165C151.898 12.993 151.649 13.0487 151.374 13.0835C151.099 13.1217 150.816 13.1426 150.524 13.1461C150.235 13.153 149.969 13.1565 149.725 13.1565H149.532V11.8209H149.725C150.132 11.8209 150.475 11.7983 150.753 11.753C151.032 11.7043 151.256 11.6348 151.426 11.5443C151.6 11.4539 151.725 11.3409 151.802 11.2052C151.878 11.0661 151.917 10.9061 151.917 10.7252C151.917 10.607 151.894 10.4504 151.849 10.2557C151.804 10.0574 151.736 9.80348 151.645 9.49391L152.929 9.13391C152.974 9.28696 153.009 9.42261 153.033 9.54087C153.061 9.65565 153.082 9.77217 153.096 9.89043C153.113 10.0052 153.127 10.1304 153.138 10.2661C153.152 10.3983 153.165 10.5565 153.179 10.7409C153.19 10.8522 153.216 10.9722 153.258 11.1009C153.299 11.2261 153.357 11.3426 153.43 11.4504C153.506 11.5548 153.598 11.6435 153.706 11.7165C153.814 11.7861 153.939 11.8209 154.082 11.8209H154.186ZM151.473 14.7009L150.586 15.5878L149.689 14.6957L150.576 13.8035L151.473 14.7009ZM153.445 14.7061L152.558 15.5983L151.661 14.7009L152.548 13.8139L153.445 14.7061ZM154.099 11.8209C154.464 11.8209 154.816 11.8104 155.153 11.7896C155.49 11.7652 155.798 11.7322 156.076 11.6904C156.355 11.6487 156.595 11.5983 156.796 11.5391C156.998 11.48 157.149 11.4139 157.25 11.3409H156.718C156.412 11.3409 156.12 11.3026 155.842 11.2261C155.567 11.1461 155.325 11.0278 155.116 10.8713C154.908 10.7148 154.741 10.52 154.616 10.287C154.494 10.0504 154.433 9.77565 154.433 9.46261C154.433 9.27826 154.452 9.0887 154.49 8.89391C154.529 8.69913 154.586 8.50957 154.662 8.32522C154.739 8.14087 154.831 7.96696 154.939 7.80348C155.047 7.64 155.17 7.49739 155.309 7.37565C155.449 7.25043 155.602 7.15304 155.769 7.08348C155.936 7.01043 156.116 6.97391 156.311 6.97391C156.551 6.97391 156.776 7.02435 156.984 7.12522C157.193 7.22609 157.382 7.36348 157.553 7.53739C157.723 7.70783 157.875 7.90609 158.007 8.13217C158.139 8.35826 158.25 8.59652 158.341 8.84696C158.431 9.09739 158.499 9.35304 158.544 9.61391C158.593 9.8713 158.617 10.1165 158.617 10.3496C158.617 10.7461 158.562 11.0904 158.45 11.3826C158.342 11.6748 158.189 11.9252 157.991 12.1339C157.796 12.3426 157.562 12.513 157.287 12.6452C157.016 12.7774 156.715 12.8817 156.384 12.9583C156.054 13.0348 155.699 13.087 155.32 13.1148C154.944 13.1426 154.555 13.1565 154.151 13.1565H153.974V11.8209H154.099ZM156.311 8.32C156.294 8.31652 156.276 8.31478 156.259 8.31478C156.189 8.31478 156.109 8.34261 156.019 8.39826C155.929 8.45391 155.842 8.53391 155.758 8.63826C155.675 8.74261 155.607 8.86087 155.555 8.99304C155.502 9.12174 155.476 9.2487 155.476 9.37391C155.476 9.38087 155.476 9.38783 155.476 9.39478C155.476 9.52 155.504 9.62261 155.56 9.70261C155.616 9.77913 155.69 9.83826 155.784 9.88C155.882 9.92174 155.993 9.9513 156.118 9.9687C156.247 9.98609 156.382 9.99826 156.525 10.0052C156.619 10.0087 156.716 10.0104 156.817 10.0104C156.866 10.0104 156.941 10.0104 157.042 10.0104C157.146 10.007 157.252 10.0017 157.36 9.99478C157.329 9.86957 157.283 9.71478 157.224 9.53043C157.169 9.34261 157.097 9.16174 157.01 8.98783C156.927 8.81043 156.826 8.65739 156.708 8.5287C156.593 8.4 156.461 8.33043 156.311 8.32ZM156.186 5.40348L155.299 6.29043L154.402 5.39826L155.289 4.50609L156.186 5.40348ZM158.158 5.4087L157.271 6.30087L156.374 5.40348L157.261 4.51652L158.158 5.4087Z" fill="#5D606D"/>
<path d="M275.978 112.987C275.985 113.063 275.989 113.142 275.989 113.222C275.989 113.402 275.968 113.601 275.926 113.816C275.884 114.029 275.815 114.249 275.717 114.479C275.624 114.705 275.509 114.915 275.373 115.11C275.241 115.305 275.1 115.474 274.951 115.616C274.7 115.856 274.415 116.051 274.095 116.201C273.778 116.35 273.443 116.462 273.088 116.535C272.737 116.608 272.375 116.646 272.003 116.649C271.957 116.649 271.914 116.649 271.872 116.649C271.545 116.649 271.224 116.627 270.907 116.582L271.137 115.251C271.317 115.272 271.476 115.289 271.611 115.303C271.751 115.317 271.879 115.326 271.997 115.329C272.057 115.333 272.116 115.335 272.175 115.335C272.234 115.335 272.305 115.333 272.389 115.329C272.472 115.322 272.58 115.309 272.712 115.288C272.688 114.989 272.631 114.682 272.54 114.369C272.453 114.056 272.345 113.747 272.217 113.441C272.088 113.135 271.944 112.835 271.784 112.543C271.627 112.251 271.467 111.975 271.304 111.714C271.144 111.453 270.987 111.213 270.834 110.994C270.684 110.775 270.549 110.587 270.427 110.43C270.309 110.27 270.211 110.145 270.135 110.055C270.062 109.961 270.024 109.912 270.02 109.909L271.001 108.907C271.432 109.477 271.813 110.055 272.144 110.639C272.474 111.22 272.756 111.773 272.989 112.298C273.225 112.823 273.415 113.3 273.557 113.728C273.704 114.152 273.808 114.493 273.871 114.75C273.992 114.695 274.117 114.609 274.246 114.495C274.375 114.376 274.488 114.235 274.585 114.072C274.683 113.905 274.756 113.717 274.804 113.509C274.829 113.401 274.841 113.289 274.841 113.175C274.841 113.07 274.831 112.961 274.81 112.846L274.011 108.307L275.305 107.994L275.978 112.987ZM279.649 116.258H279.44C278.734 116.258 278.199 116.081 277.833 115.726C277.468 115.371 277.284 114.835 277.28 114.119C277.28 114.008 277.284 113.825 277.291 113.571C277.298 113.314 277.301 113.001 277.301 112.632C277.301 112.413 277.299 112.178 277.296 111.928C277.293 111.674 277.287 111.416 277.28 111.155C277.273 110.891 277.263 110.629 277.249 110.368C277.239 110.103 277.225 109.849 277.207 109.606C277.19 109.359 277.169 109.129 277.145 108.917C277.12 108.702 277.093 108.512 277.061 108.349L278.371 107.957C278.409 108.159 278.444 108.406 278.475 108.698C278.506 108.987 278.534 109.296 278.559 109.627C278.583 109.957 278.6 110.295 278.611 110.639C278.625 110.98 278.632 111.302 278.632 111.604C278.632 111.789 278.633 111.985 278.637 112.194C278.64 112.399 278.642 112.58 278.642 112.736C278.642 112.869 278.64 112.994 278.637 113.112C278.637 113.227 278.635 113.338 278.632 113.446C278.632 113.554 278.63 113.66 278.626 113.764C278.626 113.869 278.626 113.975 278.626 114.082C278.626 114.11 278.626 114.138 278.626 114.166C278.626 114.291 278.639 114.402 278.663 114.5C278.691 114.597 278.738 114.679 278.804 114.745C278.87 114.808 278.953 114.853 279.054 114.881C279.159 114.909 279.279 114.922 279.414 114.922H279.649V116.258ZM279.443 114.922H280.283C280.446 114.922 280.613 114.914 280.783 114.896C280.957 114.875 281.114 114.835 281.253 114.776C281.392 114.714 281.505 114.625 281.592 114.51C281.683 114.395 281.728 114.242 281.728 114.051C281.728 113.961 281.709 113.834 281.67 113.67C281.632 113.507 281.582 113.326 281.519 113.128C281.456 112.929 281.382 112.724 281.295 112.512C281.211 112.3 281.123 112.102 281.029 111.917L282.234 111.322C282.321 111.521 282.408 111.731 282.495 111.954C282.582 112.176 282.658 112.406 282.724 112.642C282.794 112.875 282.849 113.11 282.891 113.347C282.933 113.583 282.954 113.815 282.954 114.041C282.954 114.43 282.888 114.766 282.756 115.048C282.623 115.326 282.439 115.555 282.203 115.736C281.966 115.914 281.683 116.044 281.352 116.128C281.025 116.215 280.665 116.258 280.272 116.258H279.443V114.922ZM282.129 117.954L281.128 118.955L280.131 117.954L281.128 116.957L282.129 117.954ZM288.972 114.453C288.767 114.759 288.616 115.093 288.518 115.455C288.421 115.816 288.372 116.176 288.372 116.535C288.372 116.82 288.438 117.074 288.571 117.296C288.703 117.522 288.871 117.712 289.077 117.865C289.282 118.022 289.51 118.14 289.76 118.22C290.011 118.303 290.254 118.345 290.491 118.345C290.731 118.345 290.979 118.303 291.237 118.22C291.498 118.14 291.736 118.011 291.951 117.834C292.167 117.66 292.345 117.434 292.484 117.155C292.623 116.881 292.692 116.547 292.692 116.154C292.692 115.879 292.687 115.555 292.677 115.183C292.666 114.811 292.652 114.416 292.635 113.999C292.621 113.578 292.604 113.145 292.583 112.7C292.562 112.255 292.541 111.82 292.52 111.395C292.496 110.898 292.466 110.38 292.431 109.841C292.4 109.298 292.369 108.755 292.338 108.213L293.699 107.957C293.724 108.528 293.748 109.095 293.772 109.658C293.8 110.218 293.823 110.757 293.84 111.275C293.854 111.717 293.868 112.169 293.882 112.632C293.899 113.095 293.913 113.543 293.924 113.978C293.938 114.409 293.948 114.815 293.955 115.194C293.965 115.573 293.971 115.9 293.971 116.175C293.971 116.613 293.918 117.004 293.814 117.349C293.713 117.693 293.576 117.994 293.402 118.251C293.228 118.512 293.025 118.733 292.791 118.914C292.562 119.095 292.318 119.242 292.061 119.357C291.807 119.472 291.548 119.554 291.284 119.602C291.019 119.655 290.765 119.681 290.522 119.681C290.289 119.681 290.044 119.655 289.786 119.602C289.532 119.55 289.28 119.47 289.03 119.362C288.779 119.255 288.541 119.115 288.315 118.945C288.089 118.778 287.889 118.578 287.715 118.345C287.545 118.112 287.411 117.844 287.313 117.542C287.216 117.253 287.167 116.928 287.167 116.566C287.167 116.555 287.167 116.543 287.167 116.529C287.167 116.307 287.179 116.079 287.204 115.846C287.231 115.613 287.273 115.383 287.329 115.157C287.385 114.931 287.454 114.714 287.538 114.505C287.621 114.296 287.724 114.105 287.845 113.931L288.972 114.453ZM298.001 116.258H297.792C297.086 116.258 296.55 116.081 296.185 115.726C295.82 115.371 295.635 114.835 295.632 114.119C295.632 114.008 295.635 113.825 295.642 113.571C295.649 113.314 295.653 113.001 295.653 112.632C295.653 112.413 295.651 112.178 295.648 111.928C295.644 111.674 295.639 111.416 295.632 111.155C295.625 110.891 295.615 110.629 295.601 110.368C295.59 110.103 295.576 109.849 295.559 109.606C295.541 109.359 295.521 109.129 295.496 108.917C295.472 108.702 295.444 108.512 295.413 108.349L296.722 107.957C296.761 108.159 296.795 108.406 296.827 108.698C296.858 108.987 296.886 109.296 296.91 109.627C296.935 109.957 296.952 110.295 296.962 110.639C296.976 110.98 296.983 111.302 296.983 111.604C296.983 111.789 296.985 111.985 296.988 112.194C296.992 112.399 296.994 112.58 296.994 112.736C296.994 112.869 296.992 112.994 296.988 113.112C296.988 113.227 296.987 113.338 296.983 113.446C296.983 113.554 296.981 113.66 296.978 113.764C296.978 113.869 296.978 113.975 296.978 114.082C296.978 114.11 296.978 114.138 296.978 114.166C296.978 114.291 296.99 114.402 297.015 114.5C297.042 114.597 297.089 114.679 297.155 114.745C297.221 114.808 297.305 114.853 297.406 114.881C297.51 114.909 297.63 114.922 297.766 114.922H298.001V116.258ZM300.408 114.218C300.523 114.267 300.671 114.328 300.851 114.401C301.032 114.474 301.227 114.547 301.436 114.62C301.645 114.693 301.855 114.759 302.067 114.818C302.283 114.874 302.479 114.909 302.657 114.922C302.622 114.776 302.585 114.625 302.547 114.469C302.512 114.309 302.472 114.154 302.427 114.004C302.382 113.855 302.331 113.714 302.276 113.582C302.22 113.446 302.154 113.328 302.078 113.227C302.005 113.126 301.919 113.046 301.822 112.987C301.725 112.928 301.615 112.898 301.493 112.898C301.354 112.898 301.229 112.943 301.118 113.034C301.01 113.124 300.911 113.237 300.82 113.373C300.733 113.505 300.655 113.648 300.585 113.801C300.519 113.954 300.46 114.093 300.408 114.218ZM302.391 116.242C302.21 116.239 301.998 116.213 301.754 116.164C301.511 116.119 301.262 116.058 301.008 115.982C300.758 115.905 300.516 115.818 300.283 115.721C300.053 115.623 299.858 115.521 299.698 115.413C299.563 115.549 299.431 115.669 299.302 115.773C299.173 115.877 299.039 115.966 298.9 116.039C298.761 116.109 298.61 116.162 298.446 116.201C298.286 116.239 298.104 116.258 297.898 116.258H297.794V114.922H297.898C298.152 114.922 298.365 114.875 298.535 114.782C298.705 114.684 298.851 114.559 298.973 114.406C299.095 114.253 299.201 114.081 299.291 113.889C299.385 113.698 299.481 113.507 299.578 113.315C299.676 113.114 299.787 112.912 299.912 112.71C300.038 112.509 300.178 112.328 300.335 112.168C300.495 112.004 300.674 111.872 300.872 111.771C301.071 111.67 301.293 111.62 301.54 111.62C301.864 111.62 302.135 111.677 302.354 111.792C302.577 111.903 302.761 112.058 302.907 112.256C303.057 112.451 303.175 112.681 303.262 112.945C303.349 113.209 303.422 113.495 303.481 113.801C303.516 113.978 303.549 114.136 303.58 114.275C303.611 114.411 303.646 114.528 303.685 114.625C303.726 114.722 303.77 114.797 303.815 114.849C303.864 114.898 303.921 114.922 303.987 114.922H304.149V116.258H303.951C303.759 116.255 303.589 116.202 303.439 116.102C303.293 115.997 303.158 115.86 303.032 115.689C302.994 115.724 302.949 115.771 302.897 115.83C302.848 115.889 302.794 115.949 302.735 116.008C302.679 116.063 302.622 116.114 302.563 116.159C302.504 116.204 302.446 116.232 302.391 116.242ZM308.609 113.195C308.484 113.049 308.338 112.917 308.171 112.799C308.032 112.698 307.87 112.608 307.686 112.528C307.502 112.444 307.3 112.402 307.081 112.402C306.903 112.402 306.747 112.43 306.611 112.486C306.476 112.538 306.361 112.611 306.267 112.705C306.173 112.795 306.1 112.902 306.048 113.023C305.996 113.145 305.964 113.275 305.954 113.415C305.95 113.439 305.949 113.463 305.949 113.488C305.949 113.651 305.992 113.811 306.079 113.968C306.166 114.121 306.288 114.258 306.444 114.38C306.601 114.498 306.782 114.589 306.987 114.651C307.154 114.703 307.323 114.729 307.493 114.729C307.531 114.729 307.569 114.728 307.608 114.724C307.809 114.71 308.011 114.689 308.213 114.662C308.418 114.63 308.604 114.601 308.771 114.573L309.329 114.463L309.491 115.762C309.276 115.818 309.034 115.875 308.766 115.935C308.498 115.994 308.19 116.048 307.843 116.096C307.498 116.142 307.107 116.18 306.669 116.211C306.23 116.242 305.733 116.258 305.176 116.258H303.935V114.922H304.164L305.161 114.917C304.973 114.698 304.844 114.474 304.775 114.244C304.709 114.011 304.676 113.755 304.676 113.477C304.676 113.15 304.736 112.841 304.858 112.549C304.98 112.256 305.147 112.001 305.359 111.782C305.575 111.562 305.829 111.389 306.121 111.26C306.416 111.131 306.736 111.067 307.081 111.067C307.251 111.067 307.415 111.082 307.571 111.114C307.731 111.145 307.883 111.187 308.025 111.239C308.168 111.291 308.302 111.35 308.427 111.416C308.556 111.482 308.672 111.549 308.776 111.615C308.898 111.695 309.016 111.78 309.131 111.87C309.246 111.961 309.354 112.056 309.455 112.157L308.609 113.195ZM312.026 107.957C312.113 108.622 312.174 109.256 312.208 109.862C312.243 110.463 312.264 111.053 312.271 111.63C312.278 112.121 312.28 112.575 312.276 112.992C312.276 113.409 312.273 113.799 312.266 114.161C312.259 114.519 312.248 114.855 312.234 115.168C312.22 115.477 312.207 115.768 312.193 116.039L310.826 116.248C310.899 115.1 310.935 114.086 310.935 113.206C310.935 112.851 310.93 112.519 310.92 112.209C310.892 111.496 310.86 110.827 310.826 110.201C310.791 109.571 310.744 108.969 310.685 108.395L312.026 107.957ZM328.404 116.258C328.115 116.258 327.852 116.234 327.616 116.185C327.383 116.136 327.171 116.06 326.979 115.955C326.788 115.848 326.618 115.712 326.468 115.549C326.318 115.382 326.186 115.182 326.071 114.949C325.115 115.832 323.684 116.274 321.778 116.274C320.689 116.267 319.788 116.133 319.075 115.872C318.365 115.608 317.842 115.202 317.504 114.656C317.358 114.395 317.258 114.124 317.202 113.842C317.16 113.637 317.139 113.432 317.139 113.227C317.139 113.147 317.144 113.016 317.155 112.835C317.169 112.655 317.219 112.429 317.306 112.157C317.393 111.882 317.508 111.623 317.651 111.38L318.658 112.011C318.557 112.178 318.473 112.345 318.407 112.512C318.341 112.679 318.299 112.846 318.282 113.013C318.275 113.075 318.271 113.138 318.271 113.201C318.271 113.305 318.284 113.425 318.308 113.561C318.336 113.696 318.402 113.846 318.506 114.009C318.604 114.173 318.751 114.312 318.95 114.427C319.148 114.542 319.388 114.635 319.67 114.709C319.955 114.782 320.275 114.835 320.63 114.87C320.984 114.905 321.367 114.922 321.778 114.922C322.15 114.922 322.503 114.909 322.837 114.881C323.171 114.853 323.48 114.809 323.765 114.75C324.054 114.688 324.315 114.609 324.548 114.515C324.781 114.418 324.981 114.3 325.148 114.161C325.301 114.042 325.424 113.905 325.518 113.749C325.612 113.592 325.691 113.429 325.753 113.258C325.816 113.084 325.868 112.907 325.91 112.726C325.951 112.545 325.997 112.371 326.045 112.204L327.245 112.528C327.179 112.712 327.127 112.9 327.089 113.091C327.054 113.265 327.037 113.434 327.037 113.597C327.037 113.615 327.037 113.672 327.037 113.769C327.037 113.863 327.061 113.989 327.11 114.145C327.158 114.298 327.237 114.434 327.344 114.552C327.452 114.667 327.593 114.757 327.767 114.823C327.944 114.889 328.16 114.922 328.414 114.922H328.602V116.258H328.404ZM322.117 110.957L321.23 111.844L320.332 110.952L321.219 110.06L322.117 110.957ZM324.089 110.962L323.202 111.855L322.304 110.957L323.191 110.07L324.089 110.962ZM331.006 114.218C331.12 114.267 331.268 114.328 331.449 114.401C331.63 114.474 331.825 114.547 332.033 114.62C332.242 114.693 332.453 114.759 332.665 114.818C332.88 114.874 333.077 114.909 333.254 114.922C333.22 114.776 333.183 114.625 333.145 114.469C333.11 114.309 333.07 114.154 333.025 114.004C332.98 113.855 332.929 113.714 332.873 113.582C332.818 113.446 332.752 113.328 332.675 113.227C332.602 113.126 332.517 113.046 332.42 112.987C332.322 112.928 332.213 112.898 332.091 112.898C331.952 112.898 331.827 112.943 331.715 113.034C331.607 113.124 331.508 113.237 331.418 113.373C331.331 113.505 331.253 113.648 331.183 113.801C331.117 113.954 331.058 114.093 331.006 114.218ZM332.988 116.242C332.807 116.239 332.595 116.213 332.352 116.164C332.108 116.119 331.86 116.058 331.606 115.982C331.355 115.905 331.113 115.818 330.88 115.721C330.651 115.623 330.456 115.521 330.296 115.413C330.16 115.549 330.028 115.669 329.9 115.773C329.771 115.877 329.637 115.966 329.498 116.039C329.359 116.109 329.207 116.162 329.044 116.201C328.884 116.239 328.701 116.258 328.496 116.258H328.392V114.922H328.496C328.75 114.922 328.962 114.875 329.133 114.782C329.303 114.684 329.449 114.559 329.571 114.406C329.693 114.253 329.799 114.081 329.889 113.889C329.983 113.698 330.079 113.507 330.176 113.315C330.273 113.114 330.385 112.912 330.51 112.71C330.635 112.509 330.776 112.328 330.933 112.168C331.093 112.004 331.272 111.872 331.47 111.771C331.668 111.67 331.891 111.62 332.138 111.62C332.461 111.62 332.733 111.677 332.952 111.792C333.174 111.903 333.359 112.058 333.505 112.256C333.654 112.451 333.773 112.681 333.86 112.945C333.947 113.209 334.02 113.495 334.079 113.801C334.113 113.978 334.147 114.136 334.178 114.275C334.209 114.411 334.244 114.528 334.282 114.625C334.324 114.722 334.367 114.797 334.413 114.849C334.461 114.898 334.519 114.922 334.585 114.922H334.747V116.258H334.548C334.357 116.255 334.187 116.202 334.037 116.102C333.891 115.997 333.755 115.86 333.63 115.689C333.592 115.724 333.547 115.771 333.494 115.83C333.446 115.889 333.392 115.949 333.333 116.008C333.277 116.063 333.22 116.114 333.16 116.159C333.101 116.204 333.044 116.232 332.988 116.242ZM339.186 114.922V116.258H339.082C338.745 116.258 338.459 116.204 338.226 116.096C337.993 115.989 337.795 115.849 337.632 115.679C337.517 115.825 337.346 115.938 337.12 116.018C336.898 116.095 336.649 116.15 336.374 116.185C336.099 116.223 335.816 116.244 335.524 116.248C335.235 116.255 334.969 116.258 334.725 116.258H334.532V114.922H334.725C335.132 114.922 335.475 114.9 335.753 114.855C336.032 114.806 336.256 114.736 336.426 114.646C336.6 114.555 336.725 114.442 336.802 114.307C336.878 114.168 336.917 114.008 336.917 113.827C336.917 113.709 336.894 113.552 336.849 113.357C336.804 113.159 336.736 112.905 336.645 112.595L337.929 112.235C337.974 112.389 338.009 112.524 338.033 112.642C338.061 112.757 338.082 112.874 338.096 112.992C338.113 113.107 338.127 113.232 338.138 113.368C338.152 113.5 338.165 113.658 338.179 113.842C338.19 113.954 338.216 114.074 338.258 114.202C338.299 114.328 338.357 114.444 338.43 114.552C338.506 114.656 338.598 114.745 338.706 114.818C338.814 114.888 338.939 114.922 339.082 114.922H339.186ZM336.473 117.802L335.586 118.689L334.689 117.797L335.576 116.905L336.473 117.802ZM338.445 117.808L337.558 118.7L336.661 117.802L337.548 116.915L338.445 117.808ZM339.099 114.922C339.464 114.922 339.816 114.912 340.153 114.891C340.49 114.867 340.798 114.834 341.076 114.792C341.355 114.75 341.595 114.7 341.796 114.641C341.998 114.582 342.149 114.515 342.25 114.442H341.718C341.412 114.442 341.12 114.404 340.842 114.328C340.567 114.248 340.325 114.129 340.116 113.973C339.908 113.816 339.741 113.622 339.616 113.389C339.494 113.152 339.433 112.877 339.433 112.564C339.433 112.38 339.452 112.19 339.49 111.995C339.529 111.801 339.586 111.611 339.662 111.427C339.739 111.242 339.831 111.069 339.939 110.905C340.047 110.742 340.17 110.599 340.309 110.477C340.449 110.352 340.602 110.255 340.769 110.185C340.936 110.112 341.116 110.075 341.311 110.075C341.551 110.075 341.776 110.126 341.984 110.227C342.193 110.328 342.382 110.465 342.553 110.639C342.723 110.809 342.875 111.008 343.007 111.234C343.139 111.46 343.25 111.698 343.341 111.949C343.431 112.199 343.499 112.455 343.544 112.715C343.593 112.973 343.617 113.218 343.617 113.451C343.617 113.848 343.562 114.192 343.45 114.484C343.342 114.776 343.189 115.027 342.991 115.235C342.796 115.444 342.562 115.615 342.287 115.747C342.016 115.879 341.715 115.983 341.384 116.06C341.054 116.136 340.699 116.189 340.32 116.216C339.944 116.244 339.555 116.258 339.151 116.258H338.974V114.922H339.099ZM341.311 111.422C341.294 111.418 341.276 111.416 341.259 111.416C341.189 111.416 341.109 111.444 341.019 111.5C340.929 111.555 340.842 111.635 340.758 111.74C340.675 111.844 340.607 111.962 340.555 112.095C340.502 112.223 340.476 112.35 340.476 112.475C340.476 112.482 340.476 112.489 340.476 112.496C340.476 112.622 340.504 112.724 340.56 112.804C340.616 112.881 340.69 112.94 340.784 112.982C340.882 113.023 340.993 113.053 341.118 113.07C341.247 113.088 341.382 113.1 341.525 113.107C341.619 113.11 341.716 113.112 341.817 113.112C341.866 113.112 341.941 113.112 342.042 113.112C342.146 113.109 342.252 113.103 342.36 113.096C342.329 112.971 342.283 112.816 342.224 112.632C342.169 112.444 342.097 112.263 342.01 112.089C341.927 111.912 341.826 111.759 341.708 111.63C341.593 111.502 341.461 111.432 341.311 111.422ZM341.186 108.505L340.299 109.392L339.402 108.5L340.289 107.608L341.186 108.505ZM343.158 108.51L342.271 109.402L341.374 108.505L342.261 107.618L343.158 108.51Z" fill="#5D606D"/>
</svg>
