<svg width="397" height="176" viewBox="0 0 397 176" fill="none" xmlns="http://www.w3.org/2000/svg">
<rect x="396.546" y="75.9419" width="0.907222" height="396.093" rx="0.453611" transform="rotate(90 396.546 75.9419)" fill="#E2E7ED" stroke="#E2E7ED" stroke-width="0.907222"/>
<path d="M223 156L223 0" stroke="#E2E7ED" stroke-dasharray="6 6"/>
<rect x="281.5" y="86.5937" width="1" height="20.7733" rx="0.5" transform="rotate(-180 281.5 86.5937)" fill="#E2E7ED" stroke="#E2E7ED"/>
<path d="M254.972 100.258C254.767 100.564 254.616 100.898 254.518 101.259C254.421 101.621 254.372 101.981 254.372 102.339C254.372 102.625 254.438 102.878 254.571 103.101C254.703 103.327 254.871 103.517 255.077 103.67C255.282 103.826 255.51 103.945 255.76 104.025C256.011 104.108 256.254 104.15 256.491 104.15C256.731 104.15 256.979 104.108 257.237 104.025C257.498 103.945 257.736 103.816 257.951 103.638C258.167 103.465 258.345 103.238 258.484 102.96C258.623 102.685 258.692 102.351 258.692 101.958C258.692 101.684 258.687 101.36 258.677 100.988C258.666 100.616 258.652 100.221 258.635 99.8036C258.621 99.3828 258.604 98.9497 258.583 98.5045C258.562 98.0593 258.541 97.6245 258.52 97.2002C258.496 96.7028 258.466 96.1845 258.431 95.6454C258.4 95.1028 258.369 94.5602 258.338 94.0176L259.699 93.7619C259.724 94.3323 259.748 94.8993 259.772 95.4628C259.8 96.0228 259.823 96.5619 259.84 97.0802C259.854 97.5219 259.868 97.9741 259.882 98.4367C259.899 98.8993 259.913 99.348 259.924 99.7828C259.938 100.214 259.948 100.619 259.955 100.998C259.965 101.378 259.971 101.705 259.971 101.979C259.971 102.418 259.918 102.809 259.814 103.153C259.713 103.498 259.576 103.798 259.402 104.056C259.228 104.317 259.025 104.538 258.791 104.718C258.562 104.899 258.318 105.047 258.061 105.162C257.807 105.277 257.548 105.358 257.284 105.407C257.019 105.459 256.765 105.485 256.522 105.485C256.289 105.485 256.044 105.459 255.786 105.407C255.532 105.355 255.28 105.275 255.03 105.167C254.779 105.059 254.541 104.92 254.315 104.75C254.089 104.583 253.889 104.383 253.715 104.15C253.545 103.917 253.411 103.649 253.313 103.346C253.216 103.058 253.167 102.732 253.167 102.371C253.167 102.36 253.167 102.348 253.167 102.334C253.167 102.111 253.179 101.884 253.204 101.651C253.231 101.418 253.273 101.188 253.329 100.962C253.385 100.736 253.454 100.518 253.538 100.31C253.621 100.101 253.724 99.9097 253.845 99.7358L254.972 100.258ZM264.001 102.063H263.792C263.086 102.063 262.55 101.885 262.185 101.531C261.82 101.176 261.635 100.64 261.632 99.9236C261.632 99.8123 261.635 99.6297 261.642 99.3758C261.649 99.1184 261.653 98.8054 261.653 98.4367C261.653 98.2176 261.651 97.9828 261.648 97.7323C261.644 97.4784 261.639 97.221 261.632 96.9602C261.625 96.6958 261.615 96.4332 261.601 96.1723C261.59 95.908 261.576 95.6541 261.559 95.4106C261.541 95.1636 261.521 94.9341 261.496 94.7219C261.472 94.5062 261.444 94.3167 261.413 94.1532L262.722 93.7619C262.761 93.9636 262.795 94.2106 262.827 94.5028C262.858 94.7915 262.886 95.101 262.91 95.4315C262.935 95.7619 262.952 96.0993 262.962 96.4436C262.976 96.7845 262.983 97.1062 262.983 97.4089C262.983 97.5932 262.985 97.7897 262.988 97.9984C262.992 98.2036 262.994 98.3845 262.994 98.541C262.994 98.6732 262.992 98.7984 262.988 98.9167C262.988 99.0315 262.987 99.1428 262.983 99.2506C262.983 99.3584 262.981 99.4645 262.978 99.5689C262.978 99.6732 262.978 99.7793 262.978 99.8871C262.978 99.9149 262.978 99.9428 262.978 99.9706C262.978 100.096 262.99 100.207 263.015 100.305C263.042 100.402 263.089 100.484 263.155 100.55C263.221 100.612 263.305 100.658 263.406 100.685C263.51 100.713 263.63 100.727 263.766 100.727H264.001V102.063ZM266.408 100.023C266.523 100.071 266.671 100.132 266.851 100.205C267.032 100.278 267.227 100.351 267.436 100.425C267.645 100.498 267.855 100.564 268.067 100.623C268.283 100.678 268.479 100.713 268.657 100.727C268.622 100.581 268.585 100.43 268.547 100.273C268.512 100.113 268.472 99.9584 268.427 99.8089C268.382 99.6593 268.331 99.5184 268.276 99.3862C268.22 99.2506 268.154 99.1323 268.078 99.0315C268.005 98.9306 267.919 98.8506 267.822 98.7915C267.725 98.7323 267.615 98.7028 267.493 98.7028C267.354 98.7028 267.229 98.748 267.118 98.8384C267.01 98.9289 266.911 99.0419 266.82 99.1776C266.733 99.3097 266.655 99.4523 266.585 99.6054C266.519 99.7584 266.46 99.8976 266.408 100.023ZM268.391 102.047C268.21 102.044 267.998 102.018 267.754 101.969C267.511 101.924 267.262 101.863 267.008 101.786C266.758 101.71 266.516 101.623 266.283 101.525C266.053 101.428 265.858 101.325 265.698 101.218C265.563 101.353 265.431 101.473 265.302 101.578C265.173 101.682 265.039 101.771 264.9 101.844C264.761 101.913 264.61 101.967 264.446 102.005C264.286 102.044 264.104 102.063 263.898 102.063H263.794V100.727H263.898C264.152 100.727 264.365 100.68 264.535 100.586C264.705 100.489 264.851 100.364 264.973 100.211C265.095 100.058 265.201 99.8854 265.291 99.6941C265.385 99.5028 265.481 99.3115 265.578 99.1202C265.676 98.9184 265.787 98.7167 265.912 98.5149C266.038 98.3132 266.178 98.1323 266.335 97.9723C266.495 97.8089 266.674 97.6767 266.872 97.5758C267.071 97.4749 267.293 97.4245 267.54 97.4245C267.864 97.4245 268.135 97.4819 268.354 97.5967C268.577 97.708 268.761 97.8628 268.907 98.061C269.057 98.2558 269.175 98.4854 269.262 98.7497C269.349 99.0141 269.422 99.2993 269.481 99.6054C269.516 99.7828 269.549 99.941 269.58 100.08C269.611 100.216 269.646 100.332 269.685 100.43C269.726 100.527 269.77 100.602 269.815 100.654C269.864 100.703 269.921 100.727 269.987 100.727H270.149V102.063H269.951C269.759 102.059 269.589 102.007 269.439 101.906C269.293 101.802 269.158 101.665 269.032 101.494C268.994 101.529 268.949 101.576 268.897 101.635C268.848 101.694 268.794 101.753 268.735 101.812C268.679 101.868 268.622 101.918 268.563 101.964C268.504 102.009 268.446 102.037 268.391 102.047ZM274.609 99.0002C274.484 98.8541 274.338 98.7219 274.171 98.6036C274.032 98.5028 273.87 98.4123 273.686 98.3323C273.502 98.2489 273.3 98.2071 273.081 98.2071C272.903 98.2071 272.747 98.2349 272.611 98.2906C272.476 98.3428 272.361 98.4158 272.267 98.5097C272.173 98.6002 272.1 98.7063 272.048 98.828C271.996 98.9497 271.964 99.0802 271.954 99.2193C271.95 99.2436 271.949 99.268 271.949 99.2923C271.949 99.4558 271.992 99.6158 272.079 99.7723C272.166 99.9254 272.288 100.063 272.444 100.185C272.601 100.303 272.782 100.393 272.987 100.456C273.154 100.508 273.323 100.534 273.493 100.534C273.531 100.534 273.569 100.532 273.608 100.529C273.809 100.515 274.011 100.494 274.213 100.466C274.418 100.435 274.604 100.405 274.771 100.378L275.329 100.268L275.491 101.567C275.276 101.623 275.034 101.68 274.766 101.739C274.498 101.798 274.19 101.852 273.843 101.901C273.498 101.946 273.107 101.985 272.669 102.016C272.23 102.047 271.733 102.063 271.176 102.063H269.935V100.727H270.164L271.161 100.722C270.973 100.503 270.844 100.278 270.775 100.049C270.709 99.8158 270.676 99.5602 270.676 99.2819C270.676 98.9549 270.736 98.6454 270.858 98.3532C270.98 98.061 271.147 97.8054 271.359 97.5862C271.575 97.3671 271.829 97.1932 272.121 97.0645C272.416 96.9358 272.736 96.8715 273.081 96.8715C273.251 96.8715 273.415 96.8871 273.571 96.9184C273.731 96.9497 273.883 96.9915 274.025 97.0436C274.168 97.0958 274.302 97.1549 274.427 97.221C274.556 97.2871 274.672 97.3532 274.776 97.4193C274.898 97.4993 275.016 97.5845 275.131 97.6749C275.246 97.7654 275.354 97.861 275.455 97.9619L274.609 99.0002ZM278.026 93.7619C278.113 94.4262 278.174 95.061 278.208 95.6662C278.243 96.268 278.264 96.8576 278.271 97.4349C278.278 97.9254 278.28 98.3793 278.276 98.7967C278.276 99.2141 278.273 99.6036 278.266 99.9654C278.259 100.324 278.248 100.659 278.234 100.972C278.22 101.282 278.207 101.572 278.193 101.844L276.826 102.052C276.899 100.905 276.935 99.8906 276.935 99.0106C276.935 98.6558 276.93 98.3236 276.92 98.0141C276.892 97.301 276.86 96.6315 276.826 96.0054C276.791 95.3758 276.744 94.7741 276.685 94.2002L278.026 93.7619ZM294.404 102.063C294.115 102.063 293.852 102.038 293.616 101.99C293.383 101.941 293.171 101.865 292.979 101.76C292.788 101.652 292.618 101.517 292.468 101.353C292.318 101.186 292.186 100.986 292.071 100.753C291.115 101.637 289.684 102.078 287.778 102.078C286.689 102.071 285.788 101.938 285.075 101.677C284.365 101.412 283.842 101.007 283.504 100.461C283.358 100.2 283.258 99.9289 283.202 99.6471C283.16 99.4419 283.139 99.2367 283.139 99.0315C283.139 98.9515 283.144 98.821 283.155 98.6402C283.169 98.4593 283.219 98.2332 283.306 97.9619C283.393 97.6871 283.508 97.428 283.651 97.1845L284.658 97.8158C284.557 97.9828 284.473 98.1497 284.407 98.3167C284.341 98.4836 284.299 98.6506 284.282 98.8176C284.275 98.8802 284.271 98.9428 284.271 99.0054C284.271 99.1097 284.284 99.2297 284.308 99.3654C284.336 99.501 284.402 99.6506 284.506 99.8141C284.604 99.9776 284.751 100.117 284.95 100.231C285.148 100.346 285.388 100.44 285.67 100.513C285.955 100.586 286.275 100.64 286.63 100.675C286.984 100.71 287.367 100.727 287.778 100.727C288.15 100.727 288.503 100.713 288.837 100.685C289.171 100.658 289.48 100.614 289.765 100.555C290.054 100.492 290.315 100.414 290.548 100.32C290.781 100.223 290.981 100.105 291.148 99.9654C291.301 99.8471 291.424 99.7097 291.518 99.5532C291.612 99.3967 291.691 99.2332 291.753 99.0628C291.816 98.8889 291.868 98.7115 291.91 98.5306C291.951 98.3497 291.997 98.1758 292.045 98.0089L293.245 98.3323C293.179 98.5167 293.127 98.7045 293.089 98.8958C293.054 99.0697 293.037 99.2384 293.037 99.4019C293.037 99.4193 293.037 99.4767 293.037 99.5741C293.037 99.668 293.061 99.7932 293.11 99.9497C293.158 100.103 293.237 100.238 293.344 100.357C293.452 100.471 293.593 100.562 293.767 100.628C293.944 100.694 294.16 100.727 294.414 100.727H294.602V102.063H294.404ZM288.117 96.7619L287.23 97.6489L286.332 96.7567L287.219 95.8645L288.117 96.7619ZM290.089 96.7671L289.202 97.6593L288.304 96.7619L289.191 95.8749L290.089 96.7671ZM297.006 100.023C297.12 100.071 297.268 100.132 297.449 100.205C297.63 100.278 297.825 100.351 298.033 100.425C298.242 100.498 298.453 100.564 298.665 100.623C298.88 100.678 299.077 100.713 299.254 100.727C299.22 100.581 299.183 100.43 299.145 100.273C299.11 100.113 299.07 99.9584 299.025 99.8089C298.98 99.6593 298.929 99.5184 298.873 99.3862C298.818 99.2506 298.752 99.1323 298.675 99.0315C298.602 98.9306 298.517 98.8506 298.42 98.7915C298.322 98.7323 298.213 98.7028 298.091 98.7028C297.952 98.7028 297.827 98.748 297.715 98.8384C297.607 98.9289 297.508 99.0419 297.418 99.1776C297.331 99.3097 297.253 99.4523 297.183 99.6054C297.117 99.7584 297.058 99.8976 297.006 100.023ZM298.988 102.047C298.807 102.044 298.595 102.018 298.352 101.969C298.108 101.924 297.86 101.863 297.606 101.786C297.355 101.71 297.113 101.623 296.88 101.525C296.651 101.428 296.456 101.325 296.296 101.218C296.16 101.353 296.028 101.473 295.9 101.578C295.771 101.682 295.637 101.771 295.498 101.844C295.359 101.913 295.207 101.967 295.044 102.005C294.884 102.044 294.701 102.063 294.496 102.063H294.392V100.727H294.496C294.75 100.727 294.962 100.68 295.133 100.586C295.303 100.489 295.449 100.364 295.571 100.211C295.693 100.058 295.799 99.8854 295.889 99.6941C295.983 99.5028 296.079 99.3115 296.176 99.1202C296.273 98.9184 296.385 98.7167 296.51 98.5149C296.635 98.3132 296.776 98.1323 296.933 97.9723C297.093 97.8089 297.272 97.6767 297.47 97.5758C297.668 97.4749 297.891 97.4245 298.138 97.4245C298.461 97.4245 298.733 97.4819 298.952 97.5967C299.174 97.708 299.359 97.8628 299.505 98.061C299.654 98.2558 299.773 98.4854 299.86 98.7497C299.947 99.0141 300.02 99.2993 300.079 99.6054C300.113 99.7828 300.147 99.941 300.178 100.08C300.209 100.216 300.244 100.332 300.282 100.43C300.324 100.527 300.367 100.602 300.413 100.654C300.461 100.703 300.519 100.727 300.585 100.727H300.747V102.063H300.548C300.357 102.059 300.187 102.007 300.037 101.906C299.891 101.802 299.755 101.665 299.63 101.494C299.592 101.529 299.547 101.576 299.494 101.635C299.446 101.694 299.392 101.753 299.333 101.812C299.277 101.868 299.22 101.918 299.16 101.964C299.101 102.009 299.044 102.037 298.988 102.047ZM305.186 100.727V102.063H305.082C304.745 102.063 304.459 102.009 304.226 101.901C303.993 101.793 303.795 101.654 303.632 101.484C303.517 101.63 303.346 101.743 303.12 101.823C302.898 101.899 302.649 101.955 302.374 101.99C302.099 102.028 301.816 102.049 301.524 102.052C301.235 102.059 300.969 102.063 300.725 102.063H300.532V100.727H300.725C301.132 100.727 301.475 100.705 301.753 100.659C302.032 100.611 302.256 100.541 302.426 100.451C302.6 100.36 302.725 100.247 302.802 100.111C302.878 99.9723 302.917 99.8123 302.917 99.6315C302.917 99.5132 302.894 99.3567 302.849 99.1619C302.804 98.9636 302.736 98.7097 302.645 98.4002L303.929 98.0402C303.974 98.1932 304.009 98.3289 304.033 98.4471C304.061 98.5619 304.082 98.6784 304.096 98.7967C304.113 98.9115 304.127 99.0367 304.138 99.1723C304.152 99.3045 304.165 99.4628 304.179 99.6471C304.19 99.7584 304.216 99.8784 304.258 100.007C304.299 100.132 304.357 100.249 304.43 100.357C304.506 100.461 304.598 100.55 304.706 100.623C304.814 100.692 304.939 100.727 305.082 100.727H305.186ZM302.473 103.607L301.586 104.494L300.689 103.602L301.576 102.71L302.473 103.607ZM304.445 103.612L303.558 104.505L302.661 103.607L303.548 102.72L304.445 103.612ZM305.099 100.727C305.464 100.727 305.816 100.717 306.153 100.696C306.49 100.671 306.798 100.638 307.076 100.597C307.355 100.555 307.595 100.505 307.796 100.445C307.998 100.386 308.149 100.32 308.25 100.247H307.718C307.412 100.247 307.12 100.209 306.842 100.132C306.567 100.052 306.325 99.9341 306.116 99.7776C305.908 99.621 305.741 99.4262 305.616 99.1932C305.494 98.9567 305.433 98.6819 305.433 98.3689C305.433 98.1845 305.452 97.9949 305.49 97.8002C305.529 97.6054 305.586 97.4158 305.662 97.2315C305.739 97.0471 305.831 96.8732 305.939 96.7097C306.047 96.5462 306.17 96.4036 306.309 96.2819C306.449 96.1567 306.602 96.0593 306.769 95.9897C306.936 95.9167 307.116 95.8802 307.311 95.8802C307.551 95.8802 307.776 95.9306 307.984 96.0315C308.193 96.1323 308.382 96.2697 308.553 96.4436C308.723 96.6141 308.875 96.8123 309.007 97.0384C309.139 97.2645 309.25 97.5028 309.341 97.7532C309.431 98.0036 309.499 98.2593 309.544 98.5202C309.593 98.7776 309.617 99.0228 309.617 99.2558C309.617 99.6523 309.562 99.9967 309.45 100.289C309.342 100.581 309.189 100.831 308.991 101.04C308.796 101.249 308.562 101.419 308.287 101.551C308.016 101.684 307.715 101.788 307.384 101.865C307.054 101.941 306.699 101.993 306.32 102.021C305.944 102.049 305.555 102.063 305.151 102.063H304.974V100.727H305.099ZM307.311 97.2262C307.294 97.2228 307.276 97.221 307.259 97.221C307.189 97.221 307.109 97.2489 307.019 97.3045C306.929 97.3602 306.842 97.4402 306.758 97.5445C306.675 97.6489 306.607 97.7671 306.555 97.8993C306.502 98.028 306.476 98.1549 306.476 98.2802C306.476 98.2871 306.476 98.2941 306.476 98.301C306.476 98.4262 306.504 98.5289 306.56 98.6089C306.616 98.6854 306.69 98.7445 306.784 98.7862C306.882 98.828 306.993 98.8576 307.118 98.8749C307.247 98.8923 307.382 98.9045 307.525 98.9115C307.619 98.9149 307.716 98.9167 307.817 98.9167C307.866 98.9167 307.941 98.9167 308.042 98.9167C308.146 98.9132 308.252 98.908 308.36 98.901C308.329 98.7758 308.283 98.621 308.224 98.4367C308.169 98.2489 308.097 98.068 308.01 97.8941C307.927 97.7167 307.826 97.5636 307.708 97.4349C307.593 97.3062 307.461 97.2367 307.311 97.2262ZM307.186 94.3097L306.299 95.1967L305.402 94.3045L306.289 93.4123L307.186 94.3097ZM309.158 94.3149L308.271 95.2071L307.374 94.3097L308.261 93.4228L309.158 94.3149Z" fill="#5D606D"/>
<path d="M396.5 76.2078H199L280.5 42.6406H396.5V76.2078Z" fill="#00C288" fill-opacity="0.1"/>
<path d="M199 76.2031L1 156.946" stroke="#FF526D" stroke-width="3"/>
<path d="M199 76.2078L280.5 42.6406H397" stroke="#00C288" stroke-width="3"/>
<path d="M1.5 76.2031V156.946L198.5 76.2031H1.5Z" fill="#FF526D" fill-opacity="0.1"/>
<path d="M198.619 169.868C198.751 169.951 198.909 170.037 199.094 170.123C199.281 170.21 199.474 170.289 199.673 170.358C199.874 170.428 200.071 170.485 200.262 170.53C200.457 170.576 200.627 170.598 200.774 170.598C200.833 170.598 200.906 170.597 200.993 170.593C201.08 170.59 201.172 170.583 201.269 170.572C201.367 170.558 201.464 170.539 201.561 170.515C201.659 170.487 201.746 170.45 201.822 170.405C201.902 170.357 201.967 170.297 202.015 170.228C202.064 170.155 202.09 170.066 202.094 169.962C202.094 169.955 202.094 169.95 202.094 169.946C202.094 169.807 202.054 169.65 201.974 169.477C201.897 169.299 201.791 169.115 201.655 168.923C201.52 168.729 201.363 168.534 201.186 168.339C201.008 168.144 200.824 167.958 200.633 167.781C200.441 167.6 200.248 167.435 200.054 167.285C199.862 167.132 199.683 167.003 199.516 166.899L200.294 165.746C200.614 165.965 200.928 166.212 201.238 166.487C201.551 166.762 201.838 167.056 202.099 167.369C202.363 167.678 202.591 168.002 202.782 168.339C202.977 168.677 203.116 169.017 203.2 169.362C203.245 169.56 203.267 169.75 203.267 169.93C203.267 170.104 203.234 170.313 203.168 170.557C203.106 170.8 202.961 171.04 202.735 171.277C202.509 171.51 202.222 171.689 201.874 171.814C201.575 171.922 201.247 171.976 200.888 171.976C200.829 171.976 200.768 171.974 200.706 171.97C200.476 171.97 200.243 171.948 200.007 171.903C199.77 171.861 199.537 171.802 199.307 171.725C199.081 171.649 198.862 171.562 198.65 171.464C198.441 171.363 198.247 171.257 198.066 171.146L198.619 169.868ZM206.969 171.918H206.761C206.055 171.918 205.519 171.741 205.154 171.386C204.789 171.031 204.604 170.496 204.601 169.779C204.601 169.668 204.604 169.485 204.611 169.231C204.618 168.974 204.622 168.661 204.622 168.292C204.622 168.073 204.62 167.838 204.616 167.588C204.613 167.334 204.608 167.077 204.601 166.816C204.594 166.551 204.583 166.289 204.569 166.028C204.559 165.763 204.545 165.51 204.528 165.266C204.51 165.019 204.489 164.79 204.465 164.577C204.441 164.362 204.413 164.172 204.382 164.009L205.691 163.617C205.729 163.819 205.764 164.066 205.795 164.358C205.827 164.647 205.855 164.957 205.879 165.287C205.903 165.617 205.921 165.955 205.931 166.299C205.945 166.64 205.952 166.962 205.952 167.264C205.952 167.449 205.954 167.645 205.957 167.854C205.961 168.059 205.962 168.24 205.962 168.397C205.962 168.529 205.961 168.654 205.957 168.772C205.957 168.887 205.955 168.998 205.952 169.106C205.952 169.214 205.95 169.32 205.947 169.424C205.947 169.529 205.947 169.635 205.947 169.743C205.947 169.77 205.947 169.798 205.947 169.826C205.947 169.951 205.959 170.063 205.983 170.16C206.011 170.257 206.058 170.339 206.124 170.405C206.19 170.468 206.274 170.513 206.375 170.541C206.479 170.569 206.599 170.583 206.735 170.583H206.969V171.918ZM209.377 169.878C209.492 169.927 209.639 169.988 209.82 170.061C210.001 170.134 210.196 170.207 210.405 170.28C210.613 170.353 210.824 170.419 211.036 170.478C211.252 170.534 211.448 170.569 211.625 170.583C211.591 170.437 211.554 170.285 211.516 170.129C211.481 169.969 211.441 169.814 211.396 169.664C211.351 169.515 211.3 169.374 211.245 169.242C211.189 169.106 211.123 168.988 211.046 168.887C210.973 168.786 210.888 168.706 210.791 168.647C210.693 168.588 210.584 168.558 210.462 168.558C210.323 168.558 210.198 168.603 210.086 168.694C209.978 168.784 209.879 168.897 209.789 169.033C209.702 169.165 209.624 169.308 209.554 169.461C209.488 169.614 209.429 169.753 209.377 169.878ZM211.359 171.903C211.178 171.899 210.966 171.873 210.723 171.824C210.479 171.779 210.231 171.718 209.977 171.642C209.726 171.565 209.485 171.478 209.252 171.381C209.022 171.283 208.827 171.181 208.667 171.073C208.532 171.209 208.399 171.329 208.271 171.433C208.142 171.537 208.008 171.626 207.869 171.699C207.73 171.769 207.578 171.823 207.415 171.861C207.255 171.899 207.072 171.918 206.867 171.918H206.763V170.583H206.867C207.121 170.583 207.333 170.536 207.504 170.442C207.674 170.344 207.82 170.219 207.942 170.066C208.064 169.913 208.17 169.741 208.26 169.55C208.354 169.358 208.45 169.167 208.547 168.976C208.645 168.774 208.756 168.572 208.881 168.37C209.006 168.169 209.147 167.988 209.304 167.828C209.464 167.664 209.643 167.532 209.841 167.431C210.039 167.33 210.262 167.28 210.509 167.28C210.832 167.28 211.104 167.337 211.323 167.452C211.545 167.563 211.73 167.718 211.876 167.917C212.025 168.111 212.144 168.341 212.231 168.605C212.318 168.87 212.391 169.155 212.45 169.461C212.485 169.638 212.518 169.797 212.549 169.936C212.58 170.071 212.615 170.188 212.653 170.285C212.695 170.383 212.738 170.457 212.784 170.51C212.832 170.558 212.89 170.583 212.956 170.583H213.118V171.918H212.919C212.728 171.915 212.558 171.863 212.408 171.762C212.262 171.657 212.126 171.52 212.001 171.35C211.963 171.384 211.918 171.431 211.865 171.49C211.817 171.55 211.763 171.609 211.704 171.668C211.648 171.723 211.591 171.774 211.532 171.819C211.472 171.864 211.415 171.892 211.359 171.903ZM212.903 170.583H213.743C213.907 170.583 214.074 170.574 214.244 170.557C214.418 170.536 214.575 170.496 214.714 170.437C214.853 170.374 214.966 170.285 215.053 170.17C215.143 170.056 215.189 169.903 215.189 169.711C215.189 169.621 215.17 169.494 215.131 169.33C215.093 169.167 215.043 168.986 214.98 168.788C214.917 168.59 214.843 168.384 214.756 168.172C214.672 167.96 214.583 167.762 214.49 167.577L215.695 166.983C215.782 167.181 215.869 167.391 215.956 167.614C216.043 167.837 216.119 168.066 216.185 168.303C216.255 168.536 216.31 168.77 216.352 169.007C216.394 169.243 216.415 169.475 216.415 169.701C216.415 170.09 216.349 170.426 216.217 170.708C216.084 170.986 215.9 171.216 215.663 171.397C215.427 171.574 215.143 171.704 214.813 171.788C214.486 171.875 214.126 171.918 213.733 171.918H212.903V170.583ZM215.57 165.214L214.568 166.216L213.571 165.214L214.568 164.217L215.57 165.214ZM232.404 171.918C232.115 171.918 231.852 171.894 231.616 171.845C231.383 171.797 231.171 171.72 230.979 171.616C230.788 171.508 230.618 171.372 230.468 171.209C230.318 171.042 230.186 170.842 230.071 170.609C229.115 171.492 227.684 171.934 225.778 171.934C224.689 171.927 223.788 171.793 223.075 171.532C222.365 171.268 221.842 170.863 221.504 170.317C221.358 170.056 221.258 169.784 221.202 169.503C221.16 169.297 221.139 169.092 221.139 168.887C221.139 168.807 221.144 168.677 221.155 168.496C221.169 168.315 221.219 168.089 221.306 167.817C221.393 167.543 221.508 167.283 221.651 167.04L222.658 167.671C222.557 167.838 222.473 168.005 222.407 168.172C222.341 168.339 222.299 168.506 222.282 168.673C222.275 168.736 222.271 168.798 222.271 168.861C222.271 168.965 222.284 169.085 222.308 169.221C222.336 169.357 222.402 169.506 222.506 169.67C222.604 169.833 222.751 169.972 222.95 170.087C223.148 170.202 223.388 170.296 223.67 170.369C223.955 170.442 224.275 170.496 224.63 170.53C224.984 170.565 225.367 170.583 225.778 170.583C226.15 170.583 226.503 170.569 226.837 170.541C227.171 170.513 227.48 170.47 227.765 170.41C228.054 170.348 228.315 170.27 228.548 170.176C228.781 170.078 228.981 169.96 229.148 169.821C229.301 169.703 229.424 169.565 229.518 169.409C229.612 169.252 229.691 169.089 229.753 168.918C229.816 168.744 229.868 168.567 229.91 168.386C229.951 168.205 229.997 168.031 230.045 167.864L231.245 168.188C231.179 168.372 231.127 168.56 231.089 168.751C231.054 168.925 231.037 169.094 231.037 169.257C231.037 169.275 231.037 169.332 231.037 169.43C231.037 169.523 231.061 169.649 231.11 169.805C231.158 169.958 231.237 170.094 231.344 170.212C231.452 170.327 231.593 170.417 231.767 170.483C231.944 170.55 232.16 170.583 232.414 170.583H232.602V171.918H232.404ZM226.117 166.617L225.23 167.504L224.332 166.612L225.219 165.72L226.117 166.617ZM228.089 166.623L227.202 167.515L226.304 166.617L227.191 165.73L228.089 166.623ZM235.006 169.878C235.12 169.927 235.268 169.988 235.449 170.061C235.63 170.134 235.825 170.207 236.033 170.28C236.242 170.353 236.453 170.419 236.665 170.478C236.88 170.534 237.077 170.569 237.254 170.583C237.22 170.437 237.183 170.285 237.145 170.129C237.11 169.969 237.07 169.814 237.025 169.664C236.98 169.515 236.929 169.374 236.873 169.242C236.818 169.106 236.752 168.988 236.675 168.887C236.602 168.786 236.517 168.706 236.42 168.647C236.322 168.588 236.213 168.558 236.091 168.558C235.952 168.558 235.827 168.603 235.715 168.694C235.607 168.784 235.508 168.897 235.418 169.033C235.331 169.165 235.253 169.308 235.183 169.461C235.117 169.614 235.058 169.753 235.006 169.878ZM236.988 171.903C236.807 171.899 236.595 171.873 236.352 171.824C236.108 171.779 235.86 171.718 235.606 171.642C235.355 171.565 235.113 171.478 234.88 171.381C234.651 171.283 234.456 171.181 234.296 171.073C234.16 171.209 234.028 171.329 233.9 171.433C233.771 171.537 233.637 171.626 233.498 171.699C233.359 171.769 233.207 171.823 233.044 171.861C232.884 171.899 232.701 171.918 232.496 171.918H232.392V170.583H232.496C232.75 170.583 232.962 170.536 233.133 170.442C233.303 170.344 233.449 170.219 233.571 170.066C233.693 169.913 233.799 169.741 233.889 169.55C233.983 169.358 234.079 169.167 234.176 168.976C234.273 168.774 234.385 168.572 234.51 168.37C234.635 168.169 234.776 167.988 234.933 167.828C235.093 167.664 235.272 167.532 235.47 167.431C235.668 167.33 235.891 167.28 236.138 167.28C236.461 167.28 236.733 167.337 236.952 167.452C237.174 167.563 237.359 167.718 237.505 167.917C237.654 168.111 237.773 168.341 237.86 168.605C237.947 168.87 238.02 169.155 238.079 169.461C238.113 169.638 238.147 169.797 238.178 169.936C238.209 170.071 238.244 170.188 238.282 170.285C238.324 170.383 238.367 170.457 238.413 170.51C238.461 170.558 238.519 170.583 238.585 170.583H238.747V171.918H238.548C238.357 171.915 238.187 171.863 238.037 171.762C237.891 171.657 237.755 171.52 237.63 171.35C237.592 171.384 237.547 171.431 237.494 171.49C237.446 171.55 237.392 171.609 237.333 171.668C237.277 171.723 237.22 171.774 237.16 171.819C237.101 171.864 237.044 171.892 236.988 171.903ZM243.186 170.583V171.918H243.082C242.745 171.918 242.459 171.864 242.226 171.757C241.993 171.649 241.795 171.51 241.632 171.339C241.517 171.485 241.346 171.598 241.12 171.678C240.898 171.755 240.649 171.81 240.374 171.845C240.099 171.883 239.816 171.904 239.524 171.908C239.235 171.915 238.969 171.918 238.725 171.918H238.532V170.583H238.725C239.132 170.583 239.475 170.56 239.753 170.515C240.032 170.466 240.256 170.397 240.426 170.306C240.6 170.216 240.725 170.103 240.802 169.967C240.878 169.828 240.917 169.668 240.917 169.487C240.917 169.369 240.894 169.212 240.849 169.017C240.804 168.819 240.736 168.565 240.645 168.256L241.929 167.896C241.974 168.049 242.009 168.184 242.033 168.303C242.061 168.417 242.082 168.534 242.096 168.652C242.113 168.767 242.127 168.892 242.138 169.028C242.152 169.16 242.165 169.318 242.179 169.503C242.19 169.614 242.216 169.734 242.258 169.863C242.299 169.988 242.357 170.104 242.43 170.212C242.506 170.317 242.598 170.405 242.706 170.478C242.814 170.548 242.939 170.583 243.082 170.583H243.186ZM240.473 173.463L239.586 174.35L238.689 173.457L239.576 172.565L240.473 173.463ZM242.445 173.468L241.558 174.36L240.661 173.463L241.548 172.576L242.445 173.468ZM243.099 170.583C243.464 170.583 243.816 170.572 244.153 170.551C244.49 170.527 244.798 170.494 245.076 170.452C245.355 170.41 245.595 170.36 245.796 170.301C245.998 170.242 246.149 170.176 246.25 170.103H245.718C245.412 170.103 245.12 170.064 244.842 169.988C244.567 169.908 244.325 169.79 244.116 169.633C243.908 169.477 243.741 169.282 243.616 169.049C243.494 168.812 243.433 168.537 243.433 168.224C243.433 168.04 243.452 167.85 243.49 167.656C243.529 167.461 243.586 167.271 243.662 167.087C243.739 166.903 243.831 166.729 243.939 166.565C244.047 166.402 244.17 166.259 244.309 166.137C244.449 166.012 244.602 165.915 244.769 165.845C244.936 165.772 245.116 165.736 245.311 165.736C245.551 165.736 245.776 165.786 245.984 165.887C246.193 165.988 246.382 166.125 246.553 166.299C246.723 166.47 246.875 166.668 247.007 166.894C247.139 167.12 247.25 167.358 247.341 167.609C247.431 167.859 247.499 168.115 247.544 168.376C247.593 168.633 247.617 168.878 247.617 169.111C247.617 169.508 247.562 169.852 247.45 170.144C247.342 170.437 247.189 170.687 246.991 170.896C246.796 171.104 246.562 171.275 246.287 171.407C246.016 171.539 245.715 171.643 245.384 171.72C245.054 171.797 244.699 171.849 244.32 171.877C243.944 171.904 243.555 171.918 243.151 171.918H242.974V170.583H243.099ZM245.311 167.082C245.294 167.078 245.276 167.077 245.259 167.077C245.189 167.077 245.109 167.104 245.019 167.16C244.929 167.216 244.842 167.296 244.758 167.4C244.675 167.504 244.607 167.623 244.555 167.755C244.502 167.883 244.476 168.01 244.476 168.136C244.476 168.143 244.476 168.15 244.476 168.157C244.476 168.282 244.504 168.384 244.56 168.464C244.616 168.541 244.69 168.6 244.784 168.642C244.882 168.683 244.993 168.713 245.118 168.73C245.247 168.748 245.382 168.76 245.525 168.767C245.619 168.77 245.716 168.772 245.817 168.772C245.866 168.772 245.941 168.772 246.042 168.772C246.146 168.769 246.252 168.763 246.36 168.757C246.329 168.631 246.283 168.477 246.224 168.292C246.169 168.104 246.097 167.923 246.01 167.75C245.927 167.572 245.826 167.419 245.708 167.29C245.593 167.162 245.461 167.092 245.311 167.082ZM245.186 164.165L244.299 165.052L243.402 164.16L244.289 163.268L245.186 164.165ZM247.158 164.17L246.271 165.063L245.374 164.165L246.261 163.278L247.158 164.17Z" fill="#5D606D"/>
</svg>
