<svg width="397" height="176" viewBox="0 0 397 176" fill="none" xmlns="http://www.w3.org/2000/svg">
<rect x="-0.464147" y="-0.464147" width="0.928294" height="396.072" rx="0.464147" transform="matrix(-5.29572e-08 -1 -1 3.60798e-08 396.072 110.576)" fill="#373945" stroke="#373945" stroke-width="0.928294"/>
<rect x="281.5" y="121.215" width="1.24929" height="21.2791" rx="0.624647" transform="rotate(-180 281.5 121.215)" fill="#373945" stroke="#373945"/>
<path d="M281 155.761L281 18.4805" stroke="#373945" stroke-dasharray="6 6"/>
<path d="M396.5 110.77H199L280.5 145.117H396.5V110.77Z" fill="#FF526D" fill-opacity="0.1"/>
<path d="M199 110.77L1 28.1514" stroke="#00C288" stroke-width="3"/>
<path d="M199 110.77L280.5 145.117H397" stroke="#FF526D" stroke-width="3"/>
<path d="M1.5 110.77V28.1514L198.5 110.77H1.5Z" fill="#00C288" fill-opacity="0.1"/>
<path d="M256.619 169.469C256.751 169.553 256.909 169.638 257.094 169.725C257.281 169.812 257.474 169.89 257.673 169.96C257.874 170.029 258.071 170.087 258.262 170.132C258.457 170.177 258.627 170.2 258.774 170.2C258.833 170.2 258.906 170.198 258.993 170.195C259.08 170.191 259.172 170.184 259.269 170.174C259.367 170.16 259.464 170.141 259.561 170.116C259.659 170.088 259.746 170.052 259.822 170.007C259.902 169.958 259.967 169.899 260.015 169.829C260.064 169.756 260.09 169.668 260.094 169.563C260.094 169.556 260.094 169.551 260.094 169.548C260.094 169.408 260.054 169.252 259.974 169.078C259.897 168.901 259.791 168.716 259.655 168.525C259.52 168.33 259.363 168.135 259.186 167.941C259.008 167.746 258.824 167.56 258.633 167.382C258.441 167.202 258.248 167.036 258.054 166.887C257.862 166.734 257.683 166.605 257.516 166.501L258.294 165.348C258.614 165.567 258.928 165.814 259.238 166.088C259.551 166.363 259.838 166.657 260.099 166.97C260.363 167.28 260.591 167.603 260.782 167.941C260.977 168.278 261.116 168.619 261.2 168.963C261.245 169.162 261.267 169.351 261.267 169.532C261.267 169.706 261.234 169.915 261.168 170.158C261.106 170.402 260.961 170.642 260.735 170.878C260.509 171.111 260.222 171.29 259.874 171.415C259.575 171.523 259.247 171.577 258.888 171.577C258.829 171.577 258.768 171.575 258.706 171.572C258.476 171.572 258.243 171.549 258.007 171.504C257.77 171.462 257.537 171.403 257.307 171.327C257.081 171.25 256.862 171.163 256.65 171.066C256.441 170.965 256.247 170.859 256.066 170.748L256.619 169.469ZM264.969 171.52H264.761C264.055 171.52 263.519 171.342 263.154 170.988C262.789 170.633 262.604 170.097 262.601 169.381C262.601 169.269 262.604 169.087 262.611 168.833C262.618 168.575 262.622 168.262 262.622 167.894C262.622 167.675 262.62 167.44 262.616 167.189C262.613 166.935 262.608 166.678 262.601 166.417C262.594 166.153 262.583 165.89 262.569 165.629C262.559 165.365 262.545 165.111 262.528 164.868C262.51 164.621 262.489 164.391 262.465 164.179C262.441 163.963 262.413 163.774 262.382 163.61L263.691 163.219C263.729 163.421 263.764 163.668 263.795 163.96C263.827 164.248 263.855 164.558 263.879 164.888C263.903 165.219 263.921 165.556 263.931 165.901C263.945 166.242 263.952 166.563 263.952 166.866C263.952 167.05 263.954 167.247 263.957 167.455C263.961 167.661 263.962 167.842 263.962 167.998C263.962 168.13 263.961 168.255 263.957 168.374C263.957 168.488 263.955 168.6 263.952 168.708C263.952 168.815 263.95 168.922 263.947 169.026C263.947 169.13 263.947 169.236 263.947 169.344C263.947 169.372 263.947 169.4 263.947 169.428C263.947 169.553 263.959 169.664 263.983 169.762C264.011 169.859 264.058 169.941 264.124 170.007C264.19 170.069 264.274 170.115 264.375 170.142C264.479 170.17 264.599 170.184 264.735 170.184H264.969V171.52ZM267.377 169.48C267.492 169.528 267.639 169.589 267.82 169.662C268.001 169.735 268.196 169.808 268.405 169.882C268.613 169.955 268.824 170.021 269.036 170.08C269.252 170.135 269.448 170.17 269.625 170.184C269.591 170.038 269.554 169.887 269.516 169.73C269.481 169.57 269.441 169.415 269.396 169.266C269.351 169.116 269.3 168.975 269.245 168.843C269.189 168.708 269.123 168.589 269.046 168.488C268.973 168.388 268.888 168.308 268.791 168.248C268.693 168.189 268.584 168.16 268.462 168.16C268.323 168.16 268.198 168.205 268.086 168.295C267.978 168.386 267.879 168.499 267.789 168.635C267.702 168.767 267.624 168.909 267.554 169.062C267.488 169.215 267.429 169.355 267.377 169.48ZM269.359 171.504C269.178 171.501 268.966 171.475 268.723 171.426C268.479 171.381 268.231 171.32 267.977 171.243C267.726 171.167 267.485 171.08 267.252 170.982C267.022 170.885 266.827 170.782 266.667 170.675C266.532 170.81 266.399 170.93 266.271 171.035C266.142 171.139 266.008 171.228 265.869 171.301C265.73 171.37 265.578 171.424 265.415 171.462C265.255 171.501 265.072 171.52 264.867 171.52H264.763V170.184H264.867C265.121 170.184 265.333 170.137 265.504 170.043C265.674 169.946 265.82 169.821 265.942 169.668C266.064 169.515 266.17 169.342 266.26 169.151C266.354 168.96 266.45 168.768 266.547 168.577C266.645 168.375 266.756 168.174 266.881 167.972C267.006 167.77 267.147 167.589 267.304 167.429C267.464 167.266 267.643 167.134 267.841 167.033C268.039 166.932 268.262 166.882 268.509 166.882C268.832 166.882 269.104 166.939 269.323 167.054C269.545 167.165 269.73 167.32 269.876 167.518C270.025 167.713 270.144 167.942 270.231 168.207C270.318 168.471 270.391 168.756 270.45 169.062C270.485 169.24 270.518 169.398 270.549 169.537C270.58 169.673 270.615 169.789 270.653 169.887C270.695 169.984 270.738 170.059 270.784 170.111C270.832 170.16 270.89 170.184 270.956 170.184H271.118V171.52H270.919C270.728 171.516 270.558 171.464 270.408 171.363C270.262 171.259 270.126 171.122 270.001 170.951C269.963 170.986 269.918 171.033 269.865 171.092C269.817 171.151 269.763 171.21 269.704 171.269C269.648 171.325 269.591 171.375 269.532 171.421C269.472 171.466 269.415 171.494 269.359 171.504ZM270.903 170.184H271.743C271.907 170.184 272.074 170.175 272.244 170.158C272.418 170.137 272.575 170.097 272.714 170.038C272.853 169.975 272.966 169.887 273.053 169.772C273.143 169.657 273.189 169.504 273.189 169.313C273.189 169.222 273.17 169.095 273.131 168.932C273.093 168.768 273.043 168.588 272.98 168.389C272.917 168.191 272.843 167.986 272.756 167.774C272.672 167.562 272.583 167.363 272.49 167.179L273.695 166.584C273.782 166.782 273.869 166.993 273.956 167.215C274.043 167.438 274.119 167.668 274.185 167.904C274.255 168.137 274.31 168.372 274.352 168.608C274.394 168.845 274.415 169.076 274.415 169.302C274.415 169.692 274.349 170.028 274.217 170.309C274.084 170.588 273.9 170.817 273.663 170.998C273.427 171.175 273.143 171.306 272.813 171.389C272.486 171.476 272.126 171.52 271.733 171.52H270.903V170.184ZM273.57 164.815L272.568 165.817L271.571 164.815L272.568 163.819L273.57 164.815ZM290.404 171.52C290.115 171.52 289.852 171.495 289.616 171.447C289.383 171.398 289.171 171.322 288.979 171.217C288.788 171.109 288.618 170.974 288.468 170.81C288.318 170.643 288.186 170.443 288.071 170.21C287.115 171.094 285.684 171.535 283.778 171.535C282.689 171.528 281.788 171.395 281.075 171.134C280.365 170.869 279.842 170.464 279.504 169.918C279.358 169.657 279.258 169.386 279.202 169.104C279.16 168.899 279.139 168.694 279.139 168.488C279.139 168.408 279.144 168.278 279.155 168.097C279.169 167.916 279.219 167.69 279.306 167.419C279.393 167.144 279.508 166.885 279.651 166.642L280.658 167.273C280.557 167.44 280.473 167.607 280.407 167.774C280.341 167.941 280.299 168.108 280.282 168.275C280.275 168.337 280.271 168.4 280.271 168.462C280.271 168.567 280.284 168.687 280.308 168.822C280.336 168.958 280.402 169.108 280.506 169.271C280.604 169.435 280.751 169.574 280.95 169.688C281.148 169.803 281.388 169.897 281.67 169.97C281.955 170.043 282.275 170.097 282.63 170.132C282.984 170.167 283.367 170.184 283.778 170.184C284.15 170.184 284.503 170.17 284.837 170.142C285.171 170.115 285.48 170.071 285.765 170.012C286.054 169.949 286.315 169.871 286.548 169.777C286.781 169.68 286.981 169.562 287.148 169.422C287.301 169.304 287.424 169.167 287.518 169.01C287.612 168.854 287.691 168.69 287.753 168.52C287.816 168.346 287.868 168.168 287.91 167.988C287.951 167.807 287.997 167.633 288.045 167.466L289.245 167.789C289.179 167.974 289.127 168.162 289.089 168.353C289.054 168.527 289.037 168.695 289.037 168.859C289.037 168.876 289.037 168.934 289.037 169.031C289.037 169.125 289.061 169.25 289.11 169.407C289.158 169.56 289.237 169.695 289.344 169.814C289.452 169.928 289.593 170.019 289.767 170.085C289.944 170.151 290.16 170.184 290.414 170.184H290.602V171.52H290.404ZM284.117 166.219L283.23 167.106L282.332 166.214L283.219 165.322L284.117 166.219ZM286.089 166.224L285.202 167.116L284.304 166.219L285.191 165.332L286.089 166.224ZM293.006 169.48C293.12 169.528 293.268 169.589 293.449 169.662C293.63 169.735 293.825 169.808 294.033 169.882C294.242 169.955 294.453 170.021 294.665 170.08C294.88 170.135 295.077 170.17 295.254 170.184C295.22 170.038 295.183 169.887 295.145 169.73C295.11 169.57 295.07 169.415 295.025 169.266C294.98 169.116 294.929 168.975 294.873 168.843C294.818 168.708 294.752 168.589 294.675 168.488C294.602 168.388 294.517 168.308 294.42 168.248C294.322 168.189 294.213 168.16 294.091 168.16C293.952 168.16 293.827 168.205 293.715 168.295C293.607 168.386 293.508 168.499 293.418 168.635C293.331 168.767 293.253 168.909 293.183 169.062C293.117 169.215 293.058 169.355 293.006 169.48ZM294.988 171.504C294.807 171.501 294.595 171.475 294.352 171.426C294.108 171.381 293.86 171.32 293.606 171.243C293.355 171.167 293.113 171.08 292.88 170.982C292.651 170.885 292.456 170.782 292.296 170.675C292.16 170.81 292.028 170.93 291.9 171.035C291.771 171.139 291.637 171.228 291.498 171.301C291.359 171.37 291.207 171.424 291.044 171.462C290.884 171.501 290.701 171.52 290.496 171.52H290.392V170.184H290.496C290.75 170.184 290.962 170.137 291.133 170.043C291.303 169.946 291.449 169.821 291.571 169.668C291.693 169.515 291.799 169.342 291.889 169.151C291.983 168.96 292.079 168.768 292.176 168.577C292.273 168.375 292.385 168.174 292.51 167.972C292.635 167.77 292.776 167.589 292.933 167.429C293.093 167.266 293.272 167.134 293.47 167.033C293.668 166.932 293.891 166.882 294.138 166.882C294.461 166.882 294.733 166.939 294.952 167.054C295.174 167.165 295.359 167.32 295.505 167.518C295.654 167.713 295.773 167.942 295.86 168.207C295.947 168.471 296.02 168.756 296.079 169.062C296.113 169.24 296.147 169.398 296.178 169.537C296.209 169.673 296.244 169.789 296.282 169.887C296.324 169.984 296.367 170.059 296.413 170.111C296.461 170.16 296.519 170.184 296.585 170.184H296.747V171.52H296.548C296.357 171.516 296.187 171.464 296.037 171.363C295.891 171.259 295.755 171.122 295.63 170.951C295.592 170.986 295.547 171.033 295.494 171.092C295.446 171.151 295.392 171.21 295.333 171.269C295.277 171.325 295.22 171.375 295.16 171.421C295.101 171.466 295.044 171.494 294.988 171.504ZM301.186 170.184V171.52H301.082C300.745 171.52 300.459 171.466 300.226 171.358C299.993 171.25 299.795 171.111 299.632 170.941C299.517 171.087 299.346 171.2 299.12 171.28C298.898 171.356 298.649 171.412 298.374 171.447C298.099 171.485 297.816 171.506 297.524 171.509C297.235 171.516 296.969 171.52 296.725 171.52H296.532V170.184H296.725C297.132 170.184 297.475 170.162 297.753 170.116C298.032 170.068 298.256 169.998 298.426 169.908C298.6 169.817 298.725 169.704 298.802 169.568C298.878 169.429 298.917 169.269 298.917 169.088C298.917 168.97 298.894 168.814 298.849 168.619C298.804 168.421 298.736 168.167 298.645 167.857L299.929 167.497C299.974 167.65 300.009 167.786 300.033 167.904C300.061 168.019 300.082 168.135 300.096 168.254C300.113 168.368 300.127 168.494 300.138 168.629C300.152 168.762 300.165 168.92 300.179 169.104C300.19 169.215 300.216 169.335 300.258 169.464C300.299 169.589 300.357 169.706 300.43 169.814C300.506 169.918 300.598 170.007 300.706 170.08C300.814 170.149 300.939 170.184 301.082 170.184H301.186ZM298.473 173.064L297.586 173.951L296.689 173.059L297.576 172.167L298.473 173.064ZM300.445 173.069L299.558 173.962L298.661 173.064L299.548 172.177L300.445 173.069ZM301.099 170.184C301.464 170.184 301.816 170.174 302.153 170.153C302.49 170.128 302.798 170.095 303.076 170.054C303.355 170.012 303.595 169.962 303.796 169.902C303.998 169.843 304.149 169.777 304.25 169.704H303.718C303.412 169.704 303.12 169.666 302.842 169.589C302.567 169.509 302.325 169.391 302.116 169.235C301.908 169.078 301.741 168.883 301.616 168.65C301.494 168.414 301.433 168.139 301.433 167.826C301.433 167.642 301.452 167.452 301.49 167.257C301.529 167.062 301.586 166.873 301.662 166.688C301.739 166.504 301.831 166.33 301.939 166.167C302.047 166.003 302.17 165.861 302.309 165.739C302.449 165.614 302.602 165.516 302.769 165.447C302.936 165.374 303.116 165.337 303.311 165.337C303.551 165.337 303.776 165.388 303.984 165.488C304.193 165.589 304.382 165.727 304.553 165.901C304.723 166.071 304.875 166.269 305.007 166.495C305.139 166.722 305.25 166.96 305.341 167.21C305.431 167.461 305.499 167.716 305.544 167.977C305.593 168.235 305.617 168.48 305.617 168.713C305.617 169.109 305.562 169.454 305.45 169.746C305.342 170.038 305.189 170.288 304.991 170.497C304.796 170.706 304.562 170.876 304.287 171.008C304.016 171.141 303.715 171.245 303.384 171.322C303.054 171.398 302.699 171.45 302.32 171.478C301.944 171.506 301.555 171.52 301.151 171.52H300.974V170.184H301.099ZM303.311 166.683C303.294 166.68 303.276 166.678 303.259 166.678C303.189 166.678 303.109 166.706 303.019 166.762C302.929 166.817 302.842 166.897 302.758 167.002C302.675 167.106 302.607 167.224 302.555 167.356C302.502 167.485 302.476 167.612 302.476 167.737C302.476 167.744 302.476 167.751 302.476 167.758C302.476 167.883 302.504 167.986 302.56 168.066C302.616 168.142 302.69 168.202 302.784 168.243C302.882 168.285 302.993 168.315 303.118 168.332C303.247 168.349 303.382 168.362 303.525 168.368C303.619 168.372 303.716 168.374 303.817 168.374C303.866 168.374 303.941 168.374 304.042 168.374C304.146 168.37 304.252 168.365 304.36 168.358C304.329 168.233 304.283 168.078 304.224 167.894C304.169 167.706 304.097 167.525 304.01 167.351C303.927 167.174 303.826 167.021 303.708 166.892C303.593 166.763 303.461 166.694 303.311 166.683ZM303.186 163.767L302.299 164.654L301.402 163.762L302.289 162.869L303.186 163.767ZM305.158 163.772L304.271 164.664L303.374 163.767L304.261 162.88L305.158 163.772Z" fill="#A6A9AD"/>
<path d="M254.972 11.3513C254.767 11.6574 254.616 11.9913 254.518 12.353C254.421 12.7148 254.372 13.0748 254.372 13.433C254.372 13.7183 254.438 13.9722 254.571 14.1948C254.703 14.4209 254.871 14.6104 255.077 14.7635C255.282 14.92 255.51 15.0383 255.76 15.1183C256.011 15.2017 256.254 15.2435 256.491 15.2435C256.731 15.2435 256.979 15.2017 257.237 15.1183C257.498 15.0383 257.736 14.9096 257.951 14.7322C258.167 14.5583 258.345 14.3322 258.484 14.0539C258.623 13.7791 258.692 13.4452 258.692 13.0522C258.692 12.7774 258.687 12.4539 258.677 12.0817C258.666 11.7096 258.652 11.3148 258.635 10.8974C258.621 10.4765 258.604 10.0435 258.583 9.59826C258.562 9.15304 258.541 8.71826 258.52 8.29391C258.496 7.79652 258.466 7.27826 258.431 6.73913C258.4 6.19652 258.369 5.65391 258.338 5.1113L259.699 4.85565C259.724 5.42609 259.748 5.99304 259.772 6.55652C259.8 7.11652 259.823 7.65565 259.84 8.17391C259.854 8.61565 259.868 9.06783 259.882 9.53043C259.899 9.99304 259.913 10.4417 259.924 10.8765C259.938 11.3078 259.948 11.713 259.955 12.0922C259.965 12.4713 259.971 12.7983 259.971 13.073C259.971 13.5113 259.918 13.9026 259.814 14.247C259.713 14.5913 259.576 14.8922 259.402 15.1496C259.228 15.4104 259.025 15.6313 258.791 15.8122C258.562 15.993 258.318 16.1409 258.061 16.2557C257.807 16.3704 257.548 16.4522 257.284 16.5009C257.019 16.553 256.765 16.5791 256.522 16.5791C256.289 16.5791 256.044 16.553 255.786 16.5009C255.532 16.4487 255.28 16.3687 255.03 16.2609C254.779 16.153 254.541 16.0139 254.315 15.8435C254.089 15.6765 253.889 15.4765 253.715 15.2435C253.545 15.0104 253.411 14.7426 253.313 14.44C253.216 14.1513 253.167 13.8261 253.167 13.4643C253.167 13.4539 253.167 13.4417 253.167 13.4278C253.167 13.2052 253.179 12.9774 253.204 12.7443C253.231 12.5113 253.273 12.2817 253.329 12.0557C253.385 11.8296 253.454 11.6122 253.538 11.4035C253.621 11.1948 253.724 11.0035 253.845 10.8296L254.972 11.3513ZM264.001 13.1565H263.792C263.086 13.1565 262.55 12.9791 262.185 12.6243C261.82 12.2696 261.635 11.7339 261.632 11.0174C261.632 10.9061 261.635 10.7235 261.642 10.4696C261.649 10.2122 261.653 9.89913 261.653 9.53043C261.653 9.3113 261.651 9.07652 261.648 8.82609C261.644 8.57217 261.639 8.31478 261.632 8.05391C261.625 7.78957 261.615 7.52696 261.601 7.26609C261.59 7.00174 261.576 6.74783 261.559 6.50435C261.541 6.25739 261.521 6.02783 261.496 5.81565C261.472 5.6 261.444 5.41043 261.413 5.24696L262.722 4.85565C262.761 5.05739 262.795 5.30435 262.827 5.59652C262.858 5.88522 262.886 6.19478 262.91 6.52522C262.935 6.85565 262.952 7.19304 262.962 7.53739C262.976 7.87826 262.983 8.2 262.983 8.50261C262.983 8.68696 262.985 8.88348 262.988 9.09217C262.992 9.29739 262.994 9.47826 262.994 9.63478C262.994 9.76696 262.992 9.89217 262.988 10.0104C262.988 10.1252 262.987 10.2365 262.983 10.3443C262.983 10.4522 262.981 10.5583 262.978 10.6626C262.978 10.767 262.978 10.873 262.978 10.9809C262.978 11.0087 262.978 11.0365 262.978 11.0643C262.978 11.1896 262.99 11.3009 263.015 11.3983C263.042 11.4957 263.089 11.5774 263.155 11.6435C263.221 11.7061 263.305 11.7513 263.406 11.7791C263.51 11.807 263.63 11.8209 263.766 11.8209H264.001V13.1565ZM266.408 11.1165C266.523 11.1652 266.671 11.2261 266.851 11.2991C267.032 11.3722 267.227 11.4452 267.436 11.5183C267.645 11.5913 267.855 11.6574 268.067 11.7165C268.283 11.7722 268.479 11.807 268.657 11.8209C268.622 11.6748 268.585 11.5235 268.547 11.367C268.512 11.207 268.472 11.0522 268.427 10.9026C268.382 10.753 268.331 10.6122 268.276 10.48C268.22 10.3443 268.154 10.2261 268.078 10.1252C268.005 10.0243 267.919 9.94435 267.822 9.88522C267.725 9.82609 267.615 9.79652 267.493 9.79652C267.354 9.79652 267.229 9.84174 267.118 9.93217C267.01 10.0226 266.911 10.1357 266.82 10.2713C266.733 10.4035 266.655 10.5461 266.585 10.6991C266.519 10.8522 266.46 10.9913 266.408 11.1165ZM268.391 13.1409C268.21 13.1374 267.998 13.1113 267.754 13.0626C267.511 13.0174 267.262 12.9565 267.008 12.88C266.758 12.8035 266.516 12.7165 266.283 12.6191C266.053 12.5217 265.858 12.4191 265.698 12.3113C265.563 12.447 265.431 12.567 265.302 12.6713C265.173 12.7757 265.039 12.8643 264.9 12.9374C264.761 13.007 264.61 13.0609 264.446 13.0991C264.286 13.1374 264.104 13.1565 263.898 13.1565H263.794V11.8209H263.898C264.152 11.8209 264.365 11.7739 264.535 11.68C264.705 11.5826 264.851 11.4574 264.973 11.3043C265.095 11.1513 265.201 10.9791 265.291 10.7878C265.385 10.5965 265.481 10.4052 265.578 10.2139C265.676 10.0122 265.787 9.81043 265.912 9.6087C266.038 9.40696 266.178 9.22609 266.335 9.06609C266.495 8.90261 266.674 8.77043 266.872 8.66956C267.071 8.5687 267.293 8.51826 267.54 8.51826C267.864 8.51826 268.135 8.57565 268.354 8.69043C268.577 8.80174 268.761 8.95652 268.907 9.15478C269.057 9.34957 269.175 9.57913 269.262 9.84348C269.349 10.1078 269.422 10.393 269.481 10.6991C269.516 10.8765 269.549 11.0348 269.58 11.1739C269.611 11.3096 269.646 11.4261 269.685 11.5235C269.726 11.6209 269.77 11.6957 269.815 11.7478C269.864 11.7965 269.921 11.8209 269.987 11.8209H270.149V13.1565H269.951C269.759 13.153 269.589 13.1009 269.439 13C269.293 12.8957 269.158 12.7583 269.032 12.5878C268.994 12.6226 268.949 12.6696 268.897 12.7287C268.848 12.7878 268.794 12.847 268.735 12.9061C268.679 12.9617 268.622 13.0122 268.563 13.0574C268.504 13.1026 268.446 13.1304 268.391 13.1409ZM274.609 10.0939C274.484 9.94783 274.338 9.81565 274.171 9.69739C274.032 9.59652 273.87 9.50609 273.686 9.42609C273.502 9.34261 273.3 9.30087 273.081 9.30087C272.903 9.30087 272.747 9.3287 272.611 9.38435C272.476 9.43652 272.361 9.50957 272.267 9.60348C272.173 9.69391 272.1 9.8 272.048 9.92174C271.996 10.0435 271.964 10.1739 271.954 10.313C271.95 10.3374 271.949 10.3617 271.949 10.3861C271.949 10.5496 271.992 10.7096 272.079 10.8661C272.166 11.0191 272.288 11.1565 272.444 11.2783C272.601 11.3965 272.782 11.487 272.987 11.5496C273.154 11.6017 273.323 11.6278 273.493 11.6278C273.531 11.6278 273.569 11.6261 273.608 11.6226C273.809 11.6087 274.011 11.5878 274.213 11.56C274.418 11.5287 274.604 11.4991 274.771 11.4713L275.329 11.3617L275.491 12.6609C275.276 12.7165 275.034 12.7739 274.766 12.833C274.498 12.8922 274.19 12.9461 273.843 12.9948C273.498 13.04 273.107 13.0783 272.669 13.1096C272.23 13.1409 271.733 13.1565 271.176 13.1565H269.935V11.8209H270.164L271.161 11.8157C270.973 11.5965 270.844 11.3722 270.775 11.1426C270.709 10.9096 270.676 10.6539 270.676 10.3757C270.676 10.0487 270.736 9.73913 270.858 9.44696C270.98 9.15478 271.147 8.89913 271.359 8.68C271.575 8.46087 271.829 8.28696 272.121 8.15826C272.416 8.02957 272.736 7.96522 273.081 7.96522C273.251 7.96522 273.415 7.98087 273.571 8.01217C273.731 8.04348 273.883 8.08522 274.025 8.13739C274.168 8.18957 274.302 8.2487 274.427 8.31478C274.556 8.38087 274.672 8.44696 274.776 8.51304C274.898 8.59304 275.016 8.67826 275.131 8.7687C275.246 8.85913 275.354 8.95478 275.455 9.05565L274.609 10.0939ZM278.026 4.85565C278.113 5.52 278.174 6.15478 278.208 6.76C278.243 7.36174 278.264 7.9513 278.271 8.5287C278.278 9.01913 278.28 9.47304 278.276 9.89043C278.276 10.3078 278.273 10.6974 278.266 11.0591C278.259 11.4174 278.248 11.753 278.234 12.0661C278.22 12.3757 278.207 12.6661 278.193 12.9374L276.826 13.1461C276.899 11.9983 276.935 10.9843 276.935 10.1043C276.935 9.74957 276.93 9.41739 276.92 9.10783C276.892 8.39478 276.86 7.72522 276.826 7.09913C276.791 6.46956 276.744 5.86783 276.685 5.29391L278.026 4.85565ZM294.404 13.1565C294.115 13.1565 293.852 13.1322 293.616 13.0835C293.383 13.0348 293.171 12.9583 292.979 12.8539C292.788 12.7461 292.618 12.6104 292.468 12.447C292.318 12.28 292.186 12.08 292.071 11.847C291.115 12.7304 289.684 13.1722 287.778 13.1722C286.689 13.1652 285.788 13.0313 285.075 12.7704C284.365 12.5061 283.842 12.1009 283.504 11.5548C283.358 11.2939 283.258 11.0226 283.202 10.7409C283.16 10.5357 283.139 10.3304 283.139 10.1252C283.139 10.0452 283.144 9.91478 283.155 9.73391C283.169 9.55304 283.219 9.32696 283.306 9.05565C283.393 8.78087 283.508 8.52174 283.651 8.27826L284.658 8.90957C284.557 9.07652 284.473 9.24348 284.407 9.41043C284.341 9.57739 284.299 9.74435 284.282 9.9113C284.275 9.97391 284.271 10.0365 284.271 10.0991C284.271 10.2035 284.284 10.3235 284.308 10.4591C284.336 10.5948 284.402 10.7443 284.506 10.9078C284.604 11.0713 284.751 11.2104 284.95 11.3252C285.148 11.44 285.388 11.5339 285.67 11.607C285.955 11.68 286.275 11.7339 286.63 11.7687C286.984 11.8035 287.367 11.8209 287.778 11.8209C288.15 11.8209 288.503 11.807 288.837 11.7791C289.171 11.7513 289.48 11.7078 289.765 11.6487C290.054 11.5861 290.315 11.5078 290.548 11.4139C290.781 11.3165 290.981 11.1983 291.148 11.0591C291.301 10.9409 291.424 10.8035 291.518 10.647C291.612 10.4904 291.691 10.327 291.753 10.1565C291.816 9.98261 291.868 9.80522 291.91 9.62435C291.951 9.44348 291.997 9.26957 292.045 9.10261L293.245 9.42609C293.179 9.61043 293.127 9.79826 293.089 9.98957C293.054 10.1635 293.037 10.3322 293.037 10.4957C293.037 10.513 293.037 10.5704 293.037 10.6678C293.037 10.7617 293.061 10.887 293.11 11.0435C293.158 11.1965 293.237 11.3322 293.344 11.4504C293.452 11.5652 293.593 11.6557 293.767 11.7217C293.944 11.7878 294.16 11.8209 294.414 11.8209H294.602V13.1565H294.404ZM288.117 7.85565L287.23 8.74261L286.332 7.85043L287.219 6.95826L288.117 7.85565ZM290.089 7.86087L289.202 8.75304L288.304 7.85565L289.191 6.9687L290.089 7.86087ZM297.006 11.1165C297.12 11.1652 297.268 11.2261 297.449 11.2991C297.63 11.3722 297.825 11.4452 298.033 11.5183C298.242 11.5913 298.453 11.6574 298.665 11.7165C298.88 11.7722 299.077 11.807 299.254 11.8209C299.22 11.6748 299.183 11.5235 299.145 11.367C299.11 11.207 299.07 11.0522 299.025 10.9026C298.98 10.753 298.929 10.6122 298.873 10.48C298.818 10.3443 298.752 10.2261 298.675 10.1252C298.602 10.0243 298.517 9.94435 298.42 9.88522C298.322 9.82609 298.213 9.79652 298.091 9.79652C297.952 9.79652 297.827 9.84174 297.715 9.93217C297.607 10.0226 297.508 10.1357 297.418 10.2713C297.331 10.4035 297.253 10.5461 297.183 10.6991C297.117 10.8522 297.058 10.9913 297.006 11.1165ZM298.988 13.1409C298.807 13.1374 298.595 13.1113 298.352 13.0626C298.108 13.0174 297.86 12.9565 297.606 12.88C297.355 12.8035 297.113 12.7165 296.88 12.6191C296.651 12.5217 296.456 12.4191 296.296 12.3113C296.16 12.447 296.028 12.567 295.9 12.6713C295.771 12.7757 295.637 12.8643 295.498 12.9374C295.359 13.007 295.207 13.0609 295.044 13.0991C294.884 13.1374 294.701 13.1565 294.496 13.1565H294.392V11.8209H294.496C294.75 11.8209 294.962 11.7739 295.133 11.68C295.303 11.5826 295.449 11.4574 295.571 11.3043C295.693 11.1513 295.799 10.9791 295.889 10.7878C295.983 10.5965 296.079 10.4052 296.176 10.2139C296.273 10.0122 296.385 9.81043 296.51 9.6087C296.635 9.40696 296.776 9.22609 296.933 9.06609C297.093 8.90261 297.272 8.77043 297.47 8.66956C297.668 8.5687 297.891 8.51826 298.138 8.51826C298.461 8.51826 298.733 8.57565 298.952 8.69043C299.174 8.80174 299.359 8.95652 299.505 9.15478C299.654 9.34957 299.773 9.57913 299.86 9.84348C299.947 10.1078 300.02 10.393 300.079 10.6991C300.113 10.8765 300.147 11.0348 300.178 11.1739C300.209 11.3096 300.244 11.4261 300.282 11.5235C300.324 11.6209 300.367 11.6957 300.413 11.7478C300.461 11.7965 300.519 11.8209 300.585 11.8209H300.747V13.1565H300.548C300.357 13.153 300.187 13.1009 300.037 13C299.891 12.8957 299.755 12.7583 299.63 12.5878C299.592 12.6226 299.547 12.6696 299.494 12.7287C299.446 12.7878 299.392 12.847 299.333 12.9061C299.277 12.9617 299.22 13.0122 299.16 13.0574C299.101 13.1026 299.044 13.1304 298.988 13.1409ZM305.186 11.8209V13.1565H305.082C304.745 13.1565 304.459 13.1026 304.226 12.9948C303.993 12.887 303.795 12.7478 303.632 12.5774C303.517 12.7235 303.346 12.8365 303.12 12.9165C302.898 12.993 302.649 13.0487 302.374 13.0835C302.099 13.1217 301.816 13.1426 301.524 13.1461C301.235 13.153 300.969 13.1565 300.725 13.1565H300.532V11.8209H300.725C301.132 11.8209 301.475 11.7983 301.753 11.753C302.032 11.7043 302.256 11.6348 302.426 11.5443C302.6 11.4539 302.725 11.3409 302.802 11.2052C302.878 11.0661 302.917 10.9061 302.917 10.7252C302.917 10.607 302.894 10.4504 302.849 10.2557C302.804 10.0574 302.736 9.80348 302.645 9.49391L303.929 9.13391C303.974 9.28696 304.009 9.42261 304.033 9.54087C304.061 9.65565 304.082 9.77217 304.096 9.89043C304.113 10.0052 304.127 10.1304 304.138 10.2661C304.152 10.3983 304.165 10.5565 304.179 10.7409C304.19 10.8522 304.216 10.9722 304.258 11.1009C304.299 11.2261 304.357 11.3426 304.43 11.4504C304.506 11.5548 304.598 11.6435 304.706 11.7165C304.814 11.7861 304.939 11.8209 305.082 11.8209H305.186ZM302.473 14.7009L301.586 15.5878L300.689 14.6957L301.576 13.8035L302.473 14.7009ZM304.445 14.7061L303.558 15.5983L302.661 14.7009L303.548 13.8139L304.445 14.7061ZM305.099 11.8209C305.464 11.8209 305.816 11.8104 306.153 11.7896C306.49 11.7652 306.798 11.7322 307.076 11.6904C307.355 11.6487 307.595 11.5983 307.796 11.5391C307.998 11.48 308.149 11.4139 308.25 11.3409H307.718C307.412 11.3409 307.12 11.3026 306.842 11.2261C306.567 11.1461 306.325 11.0278 306.116 10.8713C305.908 10.7148 305.741 10.52 305.616 10.287C305.494 10.0504 305.433 9.77565 305.433 9.46261C305.433 9.27826 305.452 9.0887 305.49 8.89391C305.529 8.69913 305.586 8.50957 305.662 8.32522C305.739 8.14087 305.831 7.96696 305.939 7.80348C306.047 7.64 306.17 7.49739 306.309 7.37565C306.449 7.25043 306.602 7.15304 306.769 7.08348C306.936 7.01043 307.116 6.97391 307.311 6.97391C307.551 6.97391 307.776 7.02435 307.984 7.12522C308.193 7.22609 308.382 7.36348 308.553 7.53739C308.723 7.70783 308.875 7.90609 309.007 8.13217C309.139 8.35826 309.25 8.59652 309.341 8.84696C309.431 9.09739 309.499 9.35304 309.544 9.61391C309.593 9.8713 309.617 10.1165 309.617 10.3496C309.617 10.7461 309.562 11.0904 309.45 11.3826C309.342 11.6748 309.189 11.9252 308.991 12.1339C308.796 12.3426 308.562 12.513 308.287 12.6452C308.016 12.7774 307.715 12.8817 307.384 12.9583C307.054 13.0348 306.699 13.087 306.32 13.1148C305.944 13.1426 305.555 13.1565 305.151 13.1565H304.974V11.8209H305.099ZM307.311 8.32C307.294 8.31652 307.276 8.31478 307.259 8.31478C307.189 8.31478 307.109 8.34261 307.019 8.39826C306.929 8.45391 306.842 8.53391 306.758 8.63826C306.675 8.74261 306.607 8.86087 306.555 8.99304C306.502 9.12174 306.476 9.2487 306.476 9.37391C306.476 9.38087 306.476 9.38783 306.476 9.39478C306.476 9.52 306.504 9.62261 306.56 9.70261C306.616 9.77913 306.69 9.83826 306.784 9.88C306.882 9.92174 306.993 9.9513 307.118 9.9687C307.247 9.98609 307.382 9.99826 307.525 10.0052C307.619 10.0087 307.716 10.0104 307.817 10.0104C307.866 10.0104 307.941 10.0104 308.042 10.0104C308.146 10.007 308.252 10.0017 308.36 9.99478C308.329 9.86957 308.283 9.71478 308.224 9.53043C308.169 9.34261 308.097 9.16174 308.01 8.98783C307.927 8.81043 307.826 8.65739 307.708 8.5287C307.593 8.4 307.461 8.33043 307.311 8.32ZM307.186 5.40348L306.299 6.29043L305.402 5.39826L306.289 4.50609L307.186 5.40348ZM309.158 5.4087L308.271 6.30087L307.374 5.40348L308.261 4.51652L309.158 5.4087Z" fill="#A6A9AD"/>
</svg>
