<svg width="398" height="176" viewBox="0 0 398 176" fill="none" xmlns="http://www.w3.org/2000/svg">
<rect x="0.951124" y="100.904" width="0.902248" height="396.098" rx="0.451124" transform="rotate(-90 0.951124 100.904)" fill="#373945" stroke="#373945" stroke-width="0.902248"/>
<path d="M2.5 99.359H200L118.5 132.742H2.5V99.359Z" fill="#FF526D" fill-opacity="0.1"/>
<path d="M198.5 100.641L396.5 20.3406" stroke="#00C288" stroke-width="3"/>
<path d="M198.5 100.64L117 134.023H0.5" stroke="#FF526D" stroke-width="3"/>
<path d="M396 100.641V20.3406L199 100.641H396Z" fill="#00C288" fill-opacity="0.1"/>
<path d="M93.4723 11.3513C93.2671 11.6574 93.1158 11.9913 93.0184 12.353C92.921 12.7148 92.8723 13.0748 92.8723 13.433C92.8723 13.7183 92.9384 13.9722 93.0706 14.1948C93.2028 14.4209 93.3715 14.6104 93.5767 14.7635C93.7819 14.92 94.0097 15.0383 94.2602 15.1183C94.5106 15.2017 94.7541 15.2435 94.9906 15.2435C95.2306 15.2435 95.4793 15.2017 95.7367 15.1183C95.9976 15.0383 96.2358 14.9096 96.4515 14.7322C96.6671 14.5583 96.8445 14.3322 96.9836 14.0539C97.1228 13.7791 97.1923 13.4452 97.1923 13.0522C97.1923 12.7774 97.1871 12.4539 97.1767 12.0817C97.1663 11.7096 97.1523 11.3148 97.1349 10.8974C97.121 10.4765 97.1036 10.0435 97.0828 9.59826C97.0619 9.15304 97.041 8.71826 97.0202 8.29391C96.9958 7.79652 96.9663 7.27826 96.9315 6.73913C96.9002 6.19652 96.8689 5.65391 96.8376 5.1113L98.1993 4.85565C98.2236 5.42609 98.248 5.99304 98.2723 6.55652C98.3002 7.11652 98.3228 7.65565 98.3402 8.17391C98.3541 8.61565 98.368 9.06783 98.3819 9.53043C98.3993 9.99304 98.4132 10.4417 98.4236 10.8765C98.4376 11.3078 98.448 11.713 98.4549 12.0922C98.4654 12.4713 98.4706 12.7983 98.4706 13.073C98.4706 13.5113 98.4184 13.9026 98.3141 14.247C98.2132 14.5913 98.0758 14.8922 97.9019 15.1496C97.728 15.4104 97.5245 15.6313 97.2915 15.8122C97.0619 15.993 96.8184 16.1409 96.561 16.2557C96.3071 16.3704 96.048 16.4522 95.7836 16.5009C95.5193 16.553 95.2654 16.5791 95.0219 16.5791C94.7889 16.5791 94.5436 16.553 94.2863 16.5009C94.0323 16.4487 93.7802 16.3687 93.5297 16.2609C93.2793 16.153 93.041 16.0139 92.8149 15.8435C92.5889 15.6765 92.3889 15.4765 92.2149 15.2435C92.0445 15.0104 91.9106 14.7426 91.8132 14.44C91.7158 14.1513 91.6671 13.8261 91.6671 13.4643C91.6671 13.4539 91.6671 13.4417 91.6671 13.4278C91.6671 13.2052 91.6793 12.9774 91.7036 12.7443C91.7315 12.5113 91.7732 12.2817 91.8289 12.0557C91.8845 11.8296 91.9541 11.6122 92.0376 11.4035C92.121 11.1948 92.2236 11.0035 92.3454 10.8296L93.4723 11.3513ZM102.501 13.1565H102.292C101.586 13.1565 101.05 12.9791 100.685 12.6243C100.32 12.2696 100.135 11.7339 100.132 11.0174C100.132 10.9061 100.135 10.7235 100.142 10.4696C100.149 10.2122 100.153 9.89913 100.153 9.53043C100.153 9.3113 100.151 9.07652 100.148 8.82609C100.144 8.57217 100.139 8.31478 100.132 8.05391C100.125 7.78957 100.115 7.52696 100.101 7.26609C100.09 7.00174 100.076 6.74783 100.059 6.50435C100.041 6.25739 100.021 6.02783 99.9963 5.81565C99.9719 5.6 99.9441 5.41043 99.9128 5.24696L101.222 4.85565C101.261 5.05739 101.295 5.30435 101.327 5.59652C101.358 5.88522 101.386 6.19478 101.41 6.52522C101.435 6.85565 101.452 7.19304 101.462 7.53739C101.476 7.87826 101.483 8.2 101.483 8.50261C101.483 8.68696 101.485 8.88348 101.488 9.09217C101.492 9.29739 101.494 9.47826 101.494 9.63478C101.494 9.76696 101.492 9.89217 101.488 10.0104C101.488 10.1252 101.487 10.2365 101.483 10.3443C101.483 10.4522 101.481 10.5583 101.478 10.6626C101.478 10.767 101.478 10.873 101.478 10.9809C101.478 11.0087 101.478 11.0365 101.478 11.0643C101.478 11.1896 101.49 11.3009 101.515 11.3983C101.542 11.4957 101.589 11.5774 101.655 11.6435C101.721 11.7061 101.805 11.7513 101.906 11.7791C102.01 11.807 102.13 11.8209 102.266 11.8209H102.501V13.1565ZM104.908 11.1165C105.023 11.1652 105.171 11.2261 105.351 11.2991C105.532 11.3722 105.727 11.4452 105.936 11.5183C106.145 11.5913 106.355 11.6574 106.567 11.7165C106.783 11.7722 106.979 11.807 107.157 11.8209C107.122 11.6748 107.085 11.5235 107.047 11.367C107.012 11.207 106.972 11.0522 106.927 10.9026C106.882 10.753 106.831 10.6122 106.776 10.48C106.72 10.3443 106.654 10.2261 106.578 10.1252C106.505 10.0243 106.419 9.94435 106.322 9.88522C106.225 9.82609 106.115 9.79652 105.993 9.79652C105.854 9.79652 105.729 9.84174 105.618 9.93217C105.51 10.0226 105.411 10.1357 105.32 10.2713C105.233 10.4035 105.155 10.5461 105.085 10.6991C105.019 10.8522 104.96 10.9913 104.908 11.1165ZM106.891 13.1409C106.71 13.1374 106.498 13.1113 106.254 13.0626C106.011 13.0174 105.762 12.9565 105.508 12.88C105.258 12.8035 105.016 12.7165 104.783 12.6191C104.553 12.5217 104.358 12.4191 104.198 12.3113C104.063 12.447 103.931 12.567 103.802 12.6713C103.673 12.7757 103.539 12.8643 103.4 12.9374C103.261 13.007 103.11 13.0609 102.946 13.0991C102.786 13.1374 102.604 13.1565 102.398 13.1565H102.294V11.8209H102.398C102.652 11.8209 102.865 11.7739 103.035 11.68C103.205 11.5826 103.351 11.4574 103.473 11.3043C103.595 11.1513 103.701 10.9791 103.791 10.7878C103.885 10.5965 103.981 10.4052 104.078 10.2139C104.176 10.0122 104.287 9.81043 104.412 9.6087C104.538 9.40696 104.678 9.22609 104.835 9.06609C104.995 8.90261 105.174 8.77043 105.372 8.66956C105.571 8.5687 105.793 8.51826 106.04 8.51826C106.364 8.51826 106.635 8.57565 106.854 8.69043C107.077 8.80174 107.261 8.95652 107.407 9.15478C107.557 9.34957 107.675 9.57913 107.762 9.84348C107.849 10.1078 107.922 10.393 107.981 10.6991C108.016 10.8765 108.049 11.0348 108.08 11.1739C108.111 11.3096 108.146 11.4261 108.185 11.5235C108.226 11.6209 108.27 11.6957 108.315 11.7478C108.364 11.7965 108.421 11.8209 108.487 11.8209H108.649V13.1565H108.451C108.259 13.153 108.089 13.1009 107.939 13C107.793 12.8957 107.658 12.7583 107.532 12.5878C107.494 12.6226 107.449 12.6696 107.397 12.7287C107.348 12.7878 107.294 12.847 107.235 12.9061C107.179 12.9617 107.122 13.0122 107.063 13.0574C107.004 13.1026 106.946 13.1304 106.891 13.1409ZM113.109 10.0939C112.984 9.94783 112.838 9.81565 112.671 9.69739C112.532 9.59652 112.37 9.50609 112.186 9.42609C112.002 9.34261 111.8 9.30087 111.581 9.30087C111.403 9.30087 111.247 9.3287 111.111 9.38435C110.976 9.43652 110.861 9.50957 110.767 9.60348C110.673 9.69391 110.6 9.8 110.548 9.92174C110.496 10.0435 110.464 10.1739 110.454 10.313C110.45 10.3374 110.449 10.3617 110.449 10.3861C110.449 10.5496 110.492 10.7096 110.579 10.8661C110.666 11.0191 110.788 11.1565 110.944 11.2783C111.101 11.3965 111.282 11.487 111.487 11.5496C111.654 11.6017 111.823 11.6278 111.993 11.6278C112.031 11.6278 112.069 11.6261 112.108 11.6226C112.309 11.6087 112.511 11.5878 112.713 11.56C112.918 11.5287 113.104 11.4991 113.271 11.4713L113.829 11.3617L113.991 12.6609C113.776 12.7165 113.534 12.7739 113.266 12.833C112.998 12.8922 112.69 12.9461 112.343 12.9948C111.998 13.04 111.607 13.0783 111.169 13.1096C110.73 13.1409 110.233 13.1565 109.676 13.1565H108.435V11.8209H108.664L109.661 11.8157C109.473 11.5965 109.344 11.3722 109.275 11.1426C109.209 10.9096 109.176 10.6539 109.176 10.3757C109.176 10.0487 109.236 9.73913 109.358 9.44696C109.48 9.15478 109.647 8.89913 109.859 8.68C110.075 8.46087 110.329 8.28696 110.621 8.15826C110.916 8.02957 111.236 7.96522 111.581 7.96522C111.751 7.96522 111.915 7.98087 112.071 8.01217C112.231 8.04348 112.383 8.08522 112.525 8.13739C112.668 8.18957 112.802 8.2487 112.927 8.31478C113.056 8.38087 113.172 8.44696 113.276 8.51304C113.398 8.59304 113.516 8.67826 113.631 8.7687C113.746 8.85913 113.854 8.95478 113.955 9.05565L113.109 10.0939ZM116.526 4.85565C116.613 5.52 116.674 6.15478 116.708 6.76C116.743 7.36174 116.764 7.9513 116.771 8.5287C116.778 9.01913 116.78 9.47304 116.776 9.89043C116.776 10.3078 116.773 10.6974 116.766 11.0591C116.759 11.4174 116.748 11.753 116.734 12.0661C116.72 12.3757 116.707 12.6661 116.693 12.9374L115.326 13.1461C115.399 11.9983 115.435 10.9843 115.435 10.1043C115.435 9.74957 115.43 9.41739 115.42 9.10783C115.392 8.39478 115.36 7.72522 115.326 7.09913C115.291 6.46956 115.244 5.86783 115.185 5.29391L116.526 4.85565ZM132.904 13.1565C132.615 13.1565 132.352 13.1322 132.116 13.0835C131.883 13.0348 131.671 12.9583 131.479 12.8539C131.288 12.7461 131.118 12.6104 130.968 12.447C130.818 12.28 130.686 12.08 130.571 11.847C129.615 12.7304 128.184 13.1722 126.278 13.1722C125.189 13.1652 124.288 13.0313 123.575 12.7704C122.865 12.5061 122.342 12.1009 122.004 11.5548C121.858 11.2939 121.758 11.0226 121.702 10.7409C121.66 10.5357 121.639 10.3304 121.639 10.1252C121.639 10.0452 121.644 9.91478 121.655 9.73391C121.669 9.55304 121.719 9.32696 121.806 9.05565C121.893 8.78087 122.008 8.52174 122.151 8.27826L123.158 8.90957C123.057 9.07652 122.973 9.24348 122.907 9.41043C122.841 9.57739 122.799 9.74435 122.782 9.9113C122.775 9.97391 122.771 10.0365 122.771 10.0991C122.771 10.2035 122.784 10.3235 122.808 10.4591C122.836 10.5948 122.902 10.7443 123.006 10.9078C123.104 11.0713 123.251 11.2104 123.45 11.3252C123.648 11.44 123.888 11.5339 124.17 11.607C124.455 11.68 124.775 11.7339 125.13 11.7687C125.484 11.8035 125.867 11.8209 126.278 11.8209C126.65 11.8209 127.003 11.807 127.337 11.7791C127.671 11.7513 127.98 11.7078 128.265 11.6487C128.554 11.5861 128.815 11.5078 129.048 11.4139C129.281 11.3165 129.481 11.1983 129.648 11.0591C129.801 10.9409 129.924 10.8035 130.018 10.647C130.112 10.4904 130.191 10.327 130.253 10.1565C130.316 9.98261 130.368 9.80522 130.41 9.62435C130.451 9.44348 130.497 9.26957 130.545 9.10261L131.745 9.42609C131.679 9.61043 131.627 9.79826 131.589 9.98957C131.554 10.1635 131.537 10.3322 131.537 10.4957C131.537 10.513 131.537 10.5704 131.537 10.6678C131.537 10.7617 131.561 10.887 131.61 11.0435C131.658 11.1965 131.737 11.3322 131.844 11.4504C131.952 11.5652 132.093 11.6557 132.267 11.7217C132.444 11.7878 132.66 11.8209 132.914 11.8209H133.102V13.1565H132.904ZM126.617 7.85565L125.73 8.74261L124.832 7.85043L125.719 6.95826L126.617 7.85565ZM128.589 7.86087L127.702 8.75304L126.804 7.85565L127.691 6.9687L128.589 7.86087ZM135.506 11.1165C135.62 11.1652 135.768 11.2261 135.949 11.2991C136.13 11.3722 136.325 11.4452 136.533 11.5183C136.742 11.5913 136.953 11.6574 137.165 11.7165C137.38 11.7722 137.577 11.807 137.754 11.8209C137.72 11.6748 137.683 11.5235 137.645 11.367C137.61 11.207 137.57 11.0522 137.525 10.9026C137.48 10.753 137.429 10.6122 137.373 10.48C137.318 10.3443 137.252 10.2261 137.175 10.1252C137.102 10.0243 137.017 9.94435 136.92 9.88522C136.822 9.82609 136.713 9.79652 136.591 9.79652C136.452 9.79652 136.327 9.84174 136.215 9.93217C136.107 10.0226 136.008 10.1357 135.918 10.2713C135.831 10.4035 135.753 10.5461 135.683 10.6991C135.617 10.8522 135.558 10.9913 135.506 11.1165ZM137.488 13.1409C137.307 13.1374 137.095 13.1113 136.852 13.0626C136.608 13.0174 136.36 12.9565 136.106 12.88C135.855 12.8035 135.613 12.7165 135.38 12.6191C135.151 12.5217 134.956 12.4191 134.796 12.3113C134.66 12.447 134.528 12.567 134.4 12.6713C134.271 12.7757 134.137 12.8643 133.998 12.9374C133.859 13.007 133.707 13.0609 133.544 13.0991C133.384 13.1374 133.201 13.1565 132.996 13.1565H132.892V11.8209H132.996C133.25 11.8209 133.462 11.7739 133.633 11.68C133.803 11.5826 133.949 11.4574 134.071 11.3043C134.193 11.1513 134.299 10.9791 134.389 10.7878C134.483 10.5965 134.579 10.4052 134.676 10.2139C134.773 10.0122 134.885 9.81043 135.01 9.6087C135.135 9.40696 135.276 9.22609 135.433 9.06609C135.593 8.90261 135.772 8.77043 135.97 8.66956C136.168 8.5687 136.391 8.51826 136.638 8.51826C136.961 8.51826 137.233 8.57565 137.452 8.69043C137.674 8.80174 137.859 8.95652 138.005 9.15478C138.154 9.34957 138.273 9.57913 138.36 9.84348C138.447 10.1078 138.52 10.393 138.579 10.6991C138.613 10.8765 138.647 11.0348 138.678 11.1739C138.709 11.3096 138.744 11.4261 138.782 11.5235C138.824 11.6209 138.867 11.6957 138.913 11.7478C138.961 11.7965 139.019 11.8209 139.085 11.8209H139.247V13.1565H139.048C138.857 13.153 138.687 13.1009 138.537 13C138.391 12.8957 138.255 12.7583 138.13 12.5878C138.092 12.6226 138.047 12.6696 137.994 12.7287C137.946 12.7878 137.892 12.847 137.833 12.9061C137.777 12.9617 137.72 13.0122 137.66 13.0574C137.601 13.1026 137.544 13.1304 137.488 13.1409ZM143.686 11.8209V13.1565H143.582C143.245 13.1565 142.959 13.1026 142.726 12.9948C142.493 12.887 142.295 12.7478 142.132 12.5774C142.017 12.7235 141.846 12.8365 141.62 12.9165C141.398 12.993 141.149 13.0487 140.874 13.0835C140.599 13.1217 140.316 13.1426 140.024 13.1461C139.735 13.153 139.469 13.1565 139.225 13.1565H139.032V11.8209H139.225C139.632 11.8209 139.975 11.7983 140.253 11.753C140.532 11.7043 140.756 11.6348 140.926 11.5443C141.1 11.4539 141.225 11.3409 141.302 11.2052C141.378 11.0661 141.417 10.9061 141.417 10.7252C141.417 10.607 141.394 10.4504 141.349 10.2557C141.304 10.0574 141.236 9.80348 141.145 9.49391L142.429 9.13391C142.474 9.28696 142.509 9.42261 142.533 9.54087C142.561 9.65565 142.582 9.77217 142.596 9.89043C142.613 10.0052 142.627 10.1304 142.638 10.2661C142.652 10.3983 142.665 10.5565 142.679 10.7409C142.69 10.8522 142.716 10.9722 142.758 11.1009C142.799 11.2261 142.857 11.3426 142.93 11.4504C143.006 11.5548 143.098 11.6435 143.206 11.7165C143.314 11.7861 143.439 11.8209 143.582 11.8209H143.686ZM140.973 14.7009L140.086 15.5878L139.189 14.6957L140.076 13.8035L140.973 14.7009ZM142.945 14.7061L142.058 15.5983L141.161 14.7009L142.048 13.8139L142.945 14.7061ZM143.599 11.8209C143.964 11.8209 144.316 11.8104 144.653 11.7896C144.99 11.7652 145.298 11.7322 145.576 11.6904C145.855 11.6487 146.095 11.5983 146.296 11.5391C146.498 11.48 146.649 11.4139 146.75 11.3409H146.218C145.912 11.3409 145.62 11.3026 145.342 11.2261C145.067 11.1461 144.825 11.0278 144.616 10.8713C144.408 10.7148 144.241 10.52 144.116 10.287C143.994 10.0504 143.933 9.77565 143.933 9.46261C143.933 9.27826 143.952 9.0887 143.99 8.89391C144.029 8.69913 144.086 8.50957 144.162 8.32522C144.239 8.14087 144.331 7.96696 144.439 7.80348C144.547 7.64 144.67 7.49739 144.809 7.37565C144.949 7.25043 145.102 7.15304 145.269 7.08348C145.436 7.01043 145.616 6.97391 145.811 6.97391C146.051 6.97391 146.276 7.02435 146.484 7.12522C146.693 7.22609 146.882 7.36348 147.053 7.53739C147.223 7.70783 147.375 7.90609 147.507 8.13217C147.639 8.35826 147.75 8.59652 147.841 8.84696C147.931 9.09739 147.999 9.35304 148.044 9.61391C148.093 9.8713 148.117 10.1165 148.117 10.3496C148.117 10.7461 148.062 11.0904 147.95 11.3826C147.842 11.6748 147.689 11.9252 147.491 12.1339C147.296 12.3426 147.062 12.513 146.787 12.6452C146.516 12.7774 146.215 12.8817 145.884 12.9583C145.554 13.0348 145.199 13.087 144.82 13.1148C144.444 13.1426 144.055 13.1565 143.651 13.1565H143.474V11.8209H143.599ZM145.811 8.32C145.794 8.31652 145.776 8.31478 145.759 8.31478C145.689 8.31478 145.609 8.34261 145.519 8.39826C145.429 8.45391 145.342 8.53391 145.258 8.63826C145.175 8.74261 145.107 8.86087 145.055 8.99304C145.002 9.12174 144.976 9.2487 144.976 9.37391C144.976 9.38087 144.976 9.38783 144.976 9.39478C144.976 9.52 145.004 9.62261 145.06 9.70261C145.116 9.77913 145.19 9.83826 145.284 9.88C145.382 9.92174 145.493 9.9513 145.618 9.9687C145.747 9.98609 145.882 9.99826 146.025 10.0052C146.119 10.0087 146.216 10.0104 146.317 10.0104C146.366 10.0104 146.441 10.0104 146.542 10.0104C146.646 10.007 146.752 10.0017 146.86 9.99478C146.829 9.86957 146.783 9.71478 146.724 9.53043C146.669 9.34261 146.597 9.16174 146.51 8.98783C146.427 8.81043 146.326 8.65739 146.208 8.5287C146.093 8.4 145.961 8.33043 145.811 8.32ZM145.686 5.40348L144.799 6.29043L143.902 5.39826L144.789 4.50609L145.686 5.40348ZM147.658 5.4087L146.771 6.30087L145.874 5.40348L146.761 4.51652L147.658 5.4087Z" fill="#A6A9AD"/>
<path d="M119.5 157.427L119.5 19.457" stroke="#373945" stroke-dasharray="6 6"/>
<path d="M95.1187 170.301C95.2509 170.385 95.4092 170.47 95.5935 170.557C95.7813 170.644 95.9744 170.722 96.1726 170.792C96.3744 170.861 96.5709 170.919 96.7622 170.964C96.957 171.009 97.1274 171.032 97.2735 171.032C97.3326 171.032 97.4057 171.03 97.4926 171.027C97.5796 171.023 97.6718 171.016 97.7692 171.006C97.8666 170.992 97.964 170.973 98.0613 170.948C98.1587 170.921 98.2457 170.884 98.3222 170.839C98.4022 170.79 98.4666 170.731 98.5153 170.661C98.564 170.588 98.59 170.5 98.5935 170.395C98.5935 170.388 98.5935 170.383 98.5935 170.38C98.5935 170.241 98.5535 170.084 98.4735 169.91C98.397 169.733 98.2909 169.548 98.1553 169.357C98.0196 169.162 97.8631 168.967 97.6857 168.773C97.5083 168.578 97.324 168.392 97.1326 168.214C96.9413 168.034 96.7483 167.868 96.5535 167.719C96.3622 167.566 96.1831 167.437 96.0161 167.333L96.7935 166.18C97.1135 166.399 97.4283 166.646 97.7379 166.921C98.0509 167.195 98.3379 167.489 98.5987 167.802C98.8631 168.112 99.0909 168.435 99.2822 168.773C99.477 169.11 99.6161 169.451 99.6996 169.795C99.7448 169.994 99.7674 170.183 99.7674 170.364C99.7674 170.538 99.7344 170.747 99.6683 170.99C99.6057 171.234 99.4613 171.474 99.2353 171.71C99.0092 171.943 98.7222 172.122 98.3744 172.247C98.0753 172.355 97.7466 172.409 97.3883 172.409C97.3292 172.409 97.2683 172.407 97.2057 172.404C96.9761 172.404 96.7431 172.381 96.5066 172.336C96.27 172.294 96.037 172.235 95.8074 172.159C95.5813 172.082 95.3622 171.995 95.15 171.898C94.9413 171.797 94.7466 171.691 94.5657 171.58L95.1187 170.301ZM103.469 172.352H103.261C102.555 172.352 102.019 172.174 101.654 171.82C101.289 171.465 101.104 170.929 101.101 170.213C101.101 170.101 101.104 169.919 101.111 169.665C101.118 169.407 101.122 169.094 101.122 168.726C101.122 168.507 101.12 168.272 101.116 168.021C101.113 167.767 101.108 167.51 101.101 167.249C101.094 166.985 101.083 166.722 101.069 166.461C101.059 166.197 101.045 165.943 101.028 165.7C101.01 165.453 100.989 165.223 100.965 165.011C100.941 164.795 100.913 164.606 100.882 164.442L102.191 164.051C102.229 164.253 102.264 164.5 102.295 164.792C102.327 165.081 102.355 165.39 102.379 165.721C102.403 166.051 102.421 166.388 102.431 166.733C102.445 167.074 102.452 167.395 102.452 167.698C102.452 167.882 102.454 168.079 102.457 168.287C102.461 168.493 102.462 168.674 102.462 168.83C102.462 168.962 102.461 169.087 102.457 169.206C102.457 169.321 102.455 169.432 102.452 169.54C102.452 169.647 102.45 169.754 102.447 169.858C102.447 169.962 102.447 170.068 102.447 170.176C102.447 170.204 102.447 170.232 102.447 170.26C102.447 170.385 102.459 170.496 102.483 170.594C102.511 170.691 102.558 170.773 102.624 170.839C102.69 170.901 102.774 170.947 102.875 170.974C102.979 171.002 103.099 171.016 103.235 171.016H103.469V172.352ZM105.877 170.312C105.992 170.361 106.139 170.421 106.32 170.494C106.501 170.567 106.696 170.641 106.905 170.714C107.113 170.787 107.324 170.853 107.536 170.912C107.752 170.967 107.948 171.002 108.125 171.016C108.091 170.87 108.054 170.719 108.016 170.562C107.981 170.402 107.941 170.247 107.896 170.098C107.851 169.948 107.8 169.807 107.745 169.675C107.689 169.54 107.623 169.421 107.546 169.321C107.473 169.22 107.388 169.14 107.291 169.081C107.193 169.021 107.084 168.992 106.962 168.992C106.823 168.992 106.698 169.037 106.586 169.127C106.478 169.218 106.379 169.331 106.289 169.467C106.202 169.599 106.124 169.741 106.054 169.894C105.988 170.047 105.929 170.187 105.877 170.312ZM107.859 172.336C107.678 172.333 107.466 172.307 107.223 172.258C106.979 172.213 106.731 172.152 106.477 172.075C106.226 171.999 105.985 171.912 105.752 171.814C105.522 171.717 105.327 171.614 105.167 171.507C105.032 171.642 104.899 171.762 104.771 171.867C104.642 171.971 104.508 172.06 104.369 172.133C104.23 172.202 104.078 172.256 103.915 172.294C103.755 172.333 103.572 172.352 103.367 172.352H103.263V171.016H103.367C103.621 171.016 103.833 170.969 104.004 170.875C104.174 170.778 104.32 170.653 104.442 170.5C104.564 170.347 104.67 170.174 104.76 169.983C104.854 169.792 104.95 169.601 105.047 169.409C105.145 169.207 105.256 169.006 105.381 168.804C105.506 168.602 105.647 168.421 105.804 168.261C105.964 168.098 106.143 167.966 106.341 167.865C106.539 167.764 106.762 167.714 107.009 167.714C107.332 167.714 107.604 167.771 107.823 167.886C108.045 167.997 108.23 168.152 108.376 168.35C108.525 168.545 108.644 168.774 108.731 169.039C108.818 169.303 108.891 169.588 108.95 169.894C108.985 170.072 109.018 170.23 109.049 170.369C109.08 170.505 109.115 170.621 109.153 170.719C109.195 170.816 109.238 170.891 109.284 170.943C109.332 170.992 109.39 171.016 109.456 171.016H109.618V172.352H109.419C109.228 172.348 109.058 172.296 108.908 172.195C108.762 172.091 108.626 171.954 108.501 171.783C108.463 171.818 108.418 171.865 108.365 171.924C108.317 171.983 108.263 172.042 108.204 172.101C108.148 172.157 108.091 172.207 108.032 172.253C107.972 172.298 107.915 172.326 107.859 172.336ZM109.403 171.016H110.243C110.407 171.016 110.574 171.007 110.744 170.99C110.918 170.969 111.075 170.929 111.214 170.87C111.353 170.807 111.466 170.719 111.553 170.604C111.643 170.489 111.689 170.336 111.689 170.145C111.689 170.054 111.67 169.927 111.631 169.764C111.593 169.601 111.543 169.42 111.48 169.221C111.417 169.023 111.343 168.818 111.256 168.606C111.172 168.394 111.083 168.195 110.99 168.011L112.195 167.416C112.282 167.614 112.369 167.825 112.456 168.047C112.543 168.27 112.619 168.5 112.685 168.736C112.755 168.969 112.81 169.204 112.852 169.441C112.894 169.677 112.915 169.908 112.915 170.134C112.915 170.524 112.849 170.86 112.717 171.141C112.584 171.42 112.4 171.649 112.163 171.83C111.927 172.007 111.643 172.138 111.313 172.221C110.986 172.308 110.626 172.352 110.233 172.352H109.403V171.016ZM112.07 165.647L111.068 166.649L110.071 165.647L111.068 164.651L112.07 165.647ZM128.904 172.352C128.615 172.352 128.352 172.327 128.116 172.279C127.883 172.23 127.671 172.154 127.479 172.049C127.288 171.941 127.118 171.806 126.968 171.642C126.818 171.475 126.686 171.275 126.571 171.042C125.615 171.926 124.184 172.367 122.278 172.367C121.189 172.361 120.288 172.227 119.575 171.966C118.865 171.701 118.342 171.296 118.004 170.75C117.858 170.489 117.758 170.218 117.702 169.936C117.66 169.731 117.639 169.526 117.639 169.321C117.639 169.241 117.644 169.11 117.655 168.929C117.669 168.748 117.719 168.522 117.806 168.251C117.893 167.976 118.008 167.717 118.151 167.474L119.158 168.105C119.057 168.272 118.973 168.439 118.907 168.606C118.841 168.773 118.799 168.94 118.782 169.107C118.775 169.169 118.771 169.232 118.771 169.294C118.771 169.399 118.784 169.519 118.808 169.654C118.836 169.79 118.902 169.94 119.006 170.103C119.104 170.267 119.251 170.406 119.45 170.521C119.648 170.635 119.888 170.729 120.17 170.802C120.455 170.875 120.775 170.929 121.13 170.964C121.484 170.999 121.867 171.016 122.278 171.016C122.65 171.016 123.003 171.002 123.337 170.974C123.671 170.947 123.98 170.903 124.265 170.844C124.554 170.781 124.815 170.703 125.048 170.609C125.281 170.512 125.481 170.394 125.648 170.254C125.801 170.136 125.924 169.999 126.018 169.842C126.112 169.686 126.191 169.522 126.253 169.352C126.316 169.178 126.368 169.001 126.41 168.82C126.451 168.639 126.497 168.465 126.545 168.298L127.745 168.621C127.679 168.806 127.627 168.994 127.589 169.185C127.554 169.359 127.537 169.527 127.537 169.691C127.537 169.708 127.537 169.766 127.537 169.863C127.537 169.957 127.561 170.082 127.61 170.239C127.658 170.392 127.737 170.527 127.844 170.646C127.952 170.761 128.093 170.851 128.267 170.917C128.444 170.983 128.66 171.016 128.914 171.016H129.102V172.352H128.904ZM122.617 167.051L121.73 167.938L120.832 167.046L121.719 166.154L122.617 167.051ZM124.589 167.056L123.702 167.948L122.804 167.051L123.691 166.164L124.589 167.056ZM131.506 170.312C131.62 170.361 131.768 170.421 131.949 170.494C132.13 170.567 132.325 170.641 132.533 170.714C132.742 170.787 132.953 170.853 133.165 170.912C133.38 170.967 133.577 171.002 133.754 171.016C133.72 170.87 133.683 170.719 133.645 170.562C133.61 170.402 133.57 170.247 133.525 170.098C133.48 169.948 133.429 169.807 133.373 169.675C133.318 169.54 133.252 169.421 133.175 169.321C133.102 169.22 133.017 169.14 132.92 169.081C132.822 169.021 132.713 168.992 132.591 168.992C132.452 168.992 132.327 169.037 132.215 169.127C132.107 169.218 132.008 169.331 131.918 169.467C131.831 169.599 131.753 169.741 131.683 169.894C131.617 170.047 131.558 170.187 131.506 170.312ZM133.488 172.336C133.307 172.333 133.095 172.307 132.852 172.258C132.608 172.213 132.36 172.152 132.106 172.075C131.855 171.999 131.613 171.912 131.38 171.814C131.151 171.717 130.956 171.614 130.796 171.507C130.66 171.642 130.528 171.762 130.4 171.867C130.271 171.971 130.137 172.06 129.998 172.133C129.859 172.202 129.707 172.256 129.544 172.294C129.384 172.333 129.201 172.352 128.996 172.352H128.892V171.016H128.996C129.25 171.016 129.462 170.969 129.633 170.875C129.803 170.778 129.949 170.653 130.071 170.5C130.193 170.347 130.299 170.174 130.389 169.983C130.483 169.792 130.579 169.601 130.676 169.409C130.773 169.207 130.885 169.006 131.01 168.804C131.135 168.602 131.276 168.421 131.433 168.261C131.593 168.098 131.772 167.966 131.97 167.865C132.168 167.764 132.391 167.714 132.638 167.714C132.961 167.714 133.233 167.771 133.452 167.886C133.674 167.997 133.859 168.152 134.005 168.35C134.154 168.545 134.273 168.774 134.36 169.039C134.447 169.303 134.52 169.588 134.579 169.894C134.613 170.072 134.647 170.23 134.678 170.369C134.709 170.505 134.744 170.621 134.782 170.719C134.824 170.816 134.867 170.891 134.913 170.943C134.961 170.992 135.019 171.016 135.085 171.016H135.247V172.352H135.048C134.857 172.348 134.687 172.296 134.537 172.195C134.391 172.091 134.255 171.954 134.13 171.783C134.092 171.818 134.047 171.865 133.994 171.924C133.946 171.983 133.892 172.042 133.833 172.101C133.777 172.157 133.72 172.207 133.66 172.253C133.601 172.298 133.544 172.326 133.488 172.336ZM139.686 171.016V172.352H139.582C139.245 172.352 138.959 172.298 138.726 172.19C138.493 172.082 138.295 171.943 138.132 171.773C138.017 171.919 137.846 172.032 137.62 172.112C137.398 172.188 137.149 172.244 136.874 172.279C136.599 172.317 136.316 172.338 136.024 172.341C135.735 172.348 135.469 172.352 135.225 172.352H135.032V171.016H135.225C135.632 171.016 135.975 170.994 136.253 170.948C136.532 170.9 136.756 170.83 136.926 170.74C137.1 170.649 137.225 170.536 137.302 170.401C137.378 170.261 137.417 170.101 137.417 169.921C137.417 169.802 137.394 169.646 137.349 169.451C137.304 169.253 137.236 168.999 137.145 168.689L138.429 168.329C138.474 168.482 138.509 168.618 138.533 168.736C138.561 168.851 138.582 168.967 138.596 169.086C138.613 169.201 138.627 169.326 138.638 169.461C138.652 169.594 138.665 169.752 138.679 169.936C138.69 170.047 138.716 170.167 138.758 170.296C138.799 170.421 138.857 170.538 138.93 170.646C139.006 170.75 139.098 170.839 139.206 170.912C139.314 170.981 139.439 171.016 139.582 171.016H139.686ZM136.973 173.896L136.086 174.783L135.189 173.891L136.076 172.999L136.973 173.896ZM138.945 173.901L138.058 174.794L137.161 173.896L138.048 173.009L138.945 173.901ZM139.599 171.016C139.964 171.016 140.316 171.006 140.653 170.985C140.99 170.961 141.298 170.927 141.576 170.886C141.855 170.844 142.095 170.794 142.296 170.734C142.498 170.675 142.649 170.609 142.75 170.536H142.218C141.912 170.536 141.62 170.498 141.342 170.421C141.067 170.341 140.825 170.223 140.616 170.067C140.408 169.91 140.241 169.715 140.116 169.482C139.994 169.246 139.933 168.971 139.933 168.658C139.933 168.474 139.952 168.284 139.99 168.089C140.029 167.894 140.086 167.705 140.162 167.521C140.239 167.336 140.331 167.162 140.439 166.999C140.547 166.835 140.67 166.693 140.809 166.571C140.949 166.446 141.102 166.348 141.269 166.279C141.436 166.206 141.616 166.169 141.811 166.169C142.051 166.169 142.276 166.22 142.484 166.321C142.693 166.421 142.882 166.559 143.053 166.733C143.223 166.903 143.375 167.101 143.507 167.327C143.639 167.554 143.75 167.792 143.841 168.042C143.931 168.293 143.999 168.548 144.044 168.809C144.093 169.067 144.117 169.312 144.117 169.545C144.117 169.941 144.062 170.286 143.95 170.578C143.842 170.87 143.689 171.121 143.491 171.329C143.296 171.538 143.062 171.708 142.787 171.841C142.516 171.973 142.215 172.077 141.884 172.154C141.554 172.23 141.199 172.282 140.82 172.31C140.444 172.338 140.055 172.352 139.651 172.352H139.474V171.016H139.599ZM141.811 167.515C141.794 167.512 141.776 167.51 141.759 167.51C141.689 167.51 141.609 167.538 141.519 167.594C141.429 167.649 141.342 167.729 141.258 167.834C141.175 167.938 141.107 168.056 141.055 168.188C141.002 168.317 140.976 168.444 140.976 168.569C140.976 168.576 140.976 168.583 140.976 168.59C140.976 168.715 141.004 168.818 141.06 168.898C141.116 168.974 141.19 169.034 141.284 169.075C141.382 169.117 141.493 169.147 141.618 169.164C141.747 169.181 141.882 169.194 142.025 169.201C142.119 169.204 142.216 169.206 142.317 169.206C142.366 169.206 142.441 169.206 142.542 169.206C142.646 169.202 142.752 169.197 142.86 169.19C142.829 169.065 142.783 168.91 142.724 168.726C142.669 168.538 142.597 168.357 142.51 168.183C142.427 168.006 142.326 167.853 142.208 167.724C142.093 167.595 141.961 167.526 141.811 167.515ZM141.686 164.599L140.799 165.486L139.902 164.594L140.789 163.701L141.686 164.599ZM143.658 164.604L142.771 165.496L141.874 164.599L142.761 163.712L143.658 164.604Z" fill="#A6A9AD"/>
<rect x="120.25" y="111.219" width="1.24929" height="21.391" rx="0.624647" transform="rotate(-180 120.25 111.219)" fill="#373945" stroke="#373945"/>
</svg>
