<svg width="398" height="176" viewBox="0 0 398 176" fill="none" xmlns="http://www.w3.org/2000/svg">
<path d="M298 88L197.749 153L98 88H298Z" fill="#FF526D" fill-opacity="0.1"/>
<rect x="0.5" y="88.1836" width="1.05904" height="396" rx="0.52952" transform="rotate(-90 0.5 88.1836)" fill="#E2E7ED" stroke="#E2E7ED"/>
<path d="M298 87.5L396.5 17" stroke="#00C288" stroke-width="3"/>
<path d="M98 87.5L1 17" stroke="#00C288" stroke-width="3"/>
<path d="M0.5 88H98.5L0.5 18V88Z" fill="#00C288" fill-opacity="0.1"/>
<rect x="0.5" y="-0.5" width="1" height="23.7085" rx="0.5" transform="matrix(1 -8.00283e-08 -9.55005e-08 -1 197 99.0078)" fill="#E2E7ED" stroke="#E2E7ED"/>
<path d="M197.875 154.357L197.875 22.5781" stroke="#E2E7ED" stroke-dasharray="6 6"/>
<path d="M174.619 167.544C174.751 167.627 174.909 167.712 175.094 167.799C175.281 167.886 175.474 167.964 175.673 168.034C175.874 168.104 176.071 168.161 176.262 168.206C176.457 168.251 176.627 168.274 176.774 168.274C176.833 168.274 176.906 168.272 176.993 168.269C177.08 168.265 177.172 168.258 177.269 168.248C177.367 168.234 177.464 168.215 177.561 168.191C177.659 168.163 177.746 168.126 177.822 168.081C177.902 168.032 177.967 167.973 178.015 167.904C178.064 167.831 178.09 167.742 178.094 167.637C178.094 167.631 178.094 167.625 178.094 167.622C178.094 167.483 178.054 167.326 177.974 167.152C177.897 166.975 177.791 166.791 177.655 166.599C177.52 166.404 177.363 166.21 177.186 166.015C177.008 165.82 176.824 165.634 176.633 165.457C176.441 165.276 176.248 165.111 176.054 164.961C175.862 164.808 175.683 164.679 175.516 164.575L176.294 163.422C176.614 163.641 176.928 163.888 177.238 164.163C177.551 164.437 177.838 164.731 178.099 165.044C178.363 165.354 178.591 165.678 178.782 166.015C178.977 166.352 179.116 166.693 179.2 167.037C179.245 167.236 179.267 167.425 179.267 167.606C179.267 167.78 179.234 167.989 179.168 168.232C179.106 168.476 178.961 168.716 178.735 168.952C178.509 169.185 178.222 169.364 177.874 169.49C177.575 169.598 177.247 169.651 176.888 169.651C176.829 169.651 176.768 169.65 176.706 169.646C176.476 169.646 176.243 169.624 176.007 169.578C175.77 169.537 175.537 169.477 175.307 169.401C175.081 169.324 174.862 169.237 174.65 169.14C174.441 169.039 174.247 168.933 174.066 168.822L174.619 167.544ZM182.969 169.594H182.761C182.055 169.594 181.519 169.417 181.154 169.062C180.789 168.707 180.604 168.171 180.601 167.455C180.601 167.344 180.604 167.161 180.611 166.907C180.618 166.65 180.622 166.337 180.622 165.968C180.622 165.749 180.62 165.514 180.616 165.264C180.613 165.01 180.608 164.752 180.601 164.491C180.594 164.227 180.583 163.964 180.569 163.704C180.559 163.439 180.545 163.185 180.528 162.942C180.51 162.695 180.489 162.465 180.465 162.253C180.441 162.037 180.413 161.848 180.382 161.684L181.691 161.293C181.729 161.495 181.764 161.742 181.795 162.034C181.827 162.323 181.855 162.632 181.879 162.963C181.903 163.293 181.921 163.631 181.931 163.975C181.945 164.316 181.952 164.637 181.952 164.94C181.952 165.124 181.954 165.321 181.957 165.53C181.961 165.735 181.962 165.916 181.962 166.072C181.962 166.204 181.961 166.33 181.957 166.448C181.957 166.563 181.955 166.674 181.952 166.782C181.952 166.89 181.95 166.996 181.947 167.1C181.947 167.204 181.947 167.311 181.947 167.418C181.947 167.446 181.947 167.474 181.947 167.502C181.947 167.627 181.959 167.738 181.983 167.836C182.011 167.933 182.058 168.015 182.124 168.081C182.19 168.144 182.274 168.189 182.375 168.217C182.479 168.244 182.599 168.258 182.735 168.258H182.969V169.594ZM185.377 167.554C185.492 167.603 185.639 167.664 185.82 167.737C186.001 167.81 186.196 167.883 186.405 167.956C186.613 168.029 186.824 168.095 187.036 168.154C187.252 168.21 187.448 168.244 187.625 168.258C187.591 168.112 187.554 167.961 187.516 167.804C187.481 167.644 187.441 167.49 187.396 167.34C187.351 167.191 187.3 167.05 187.245 166.917C187.189 166.782 187.123 166.664 187.046 166.563C186.973 166.462 186.888 166.382 186.791 166.323C186.693 166.264 186.584 166.234 186.462 166.234C186.323 166.234 186.198 166.279 186.086 166.37C185.978 166.46 185.879 166.573 185.789 166.709C185.702 166.841 185.624 166.984 185.554 167.137C185.488 167.29 185.429 167.429 185.377 167.554ZM187.359 169.578C187.178 169.575 186.966 169.549 186.723 169.5C186.479 169.455 186.231 169.394 185.977 169.318C185.726 169.241 185.485 169.154 185.252 169.057C185.022 168.959 184.827 168.857 184.667 168.749C184.532 168.884 184.399 169.004 184.271 169.109C184.142 169.213 184.008 169.302 183.869 169.375C183.73 169.444 183.578 169.498 183.415 169.537C183.255 169.575 183.072 169.594 182.867 169.594H182.763V168.258H182.867C183.121 168.258 183.333 168.211 183.504 168.118C183.674 168.02 183.82 167.895 183.942 167.742C184.064 167.589 184.17 167.417 184.26 167.225C184.354 167.034 184.45 166.843 184.547 166.651C184.645 166.45 184.756 166.248 184.881 166.046C185.006 165.844 185.147 165.664 185.304 165.504C185.464 165.34 185.643 165.208 185.841 165.107C186.039 165.006 186.262 164.956 186.509 164.956C186.832 164.956 187.104 165.013 187.323 165.128C187.545 165.239 187.73 165.394 187.876 165.592C188.025 165.787 188.144 166.017 188.231 166.281C188.318 166.545 188.391 166.831 188.45 167.137C188.485 167.314 188.518 167.472 188.549 167.611C188.58 167.747 188.615 167.864 188.653 167.961C188.695 168.058 188.738 168.133 188.784 168.185C188.832 168.234 188.89 168.258 188.956 168.258H189.118V169.594H188.919C188.728 169.591 188.558 169.538 188.408 169.438C188.262 169.333 188.126 169.196 188.001 169.025C187.963 169.06 187.918 169.107 187.865 169.166C187.817 169.225 187.763 169.284 187.704 169.344C187.648 169.399 187.591 169.45 187.532 169.495C187.472 169.54 187.415 169.568 187.359 169.578ZM188.903 168.258H189.743C189.907 168.258 190.074 168.25 190.244 168.232C190.418 168.211 190.575 168.171 190.714 168.112C190.853 168.05 190.966 167.961 191.053 167.846C191.143 167.731 191.189 167.578 191.189 167.387C191.189 167.297 191.17 167.17 191.131 167.006C191.093 166.843 191.043 166.662 190.98 166.464C190.917 166.265 190.843 166.06 190.756 165.848C190.672 165.636 190.583 165.437 190.49 165.253L191.695 164.658C191.782 164.857 191.869 165.067 191.956 165.29C192.043 165.512 192.119 165.742 192.185 165.978C192.255 166.211 192.31 166.446 192.352 166.683C192.394 166.919 192.415 167.151 192.415 167.377C192.415 167.766 192.349 168.102 192.217 168.384C192.084 168.662 191.9 168.891 191.663 169.072C191.427 169.25 191.143 169.38 190.813 169.464C190.486 169.551 190.126 169.594 189.733 169.594H188.903V168.258ZM191.57 162.89L190.568 163.891L189.571 162.89L190.568 161.893L191.57 162.89ZM208.404 169.594C208.115 169.594 207.852 169.57 207.616 169.521C207.383 169.472 207.171 169.396 206.979 169.291C206.788 169.184 206.618 169.048 206.468 168.884C206.318 168.718 206.186 168.518 206.071 168.284C205.115 169.168 203.684 169.61 201.778 169.61C200.689 169.603 199.788 169.469 199.075 169.208C198.365 168.944 197.842 168.538 197.504 167.992C197.358 167.731 197.258 167.46 197.202 167.178C197.16 166.973 197.139 166.768 197.139 166.563C197.139 166.483 197.144 166.352 197.155 166.171C197.169 165.991 197.219 165.764 197.306 165.493C197.393 165.218 197.508 164.959 197.651 164.716L198.658 165.347C198.557 165.514 198.473 165.681 198.407 165.848C198.341 166.015 198.299 166.182 198.282 166.349C198.275 166.411 198.271 166.474 198.271 166.537C198.271 166.641 198.284 166.761 198.308 166.897C198.336 167.032 198.402 167.182 198.506 167.345C198.604 167.509 198.751 167.648 198.95 167.763C199.148 167.877 199.388 167.971 199.67 168.044C199.955 168.117 200.275 168.171 200.63 168.206C200.984 168.241 201.367 168.258 201.778 168.258C202.15 168.258 202.503 168.244 202.837 168.217C203.171 168.189 203.48 168.145 203.765 168.086C204.054 168.024 204.315 167.945 204.548 167.851C204.781 167.754 204.981 167.636 205.148 167.497C205.301 167.378 205.424 167.241 205.518 167.084C205.612 166.928 205.691 166.764 205.753 166.594C205.816 166.42 205.868 166.243 205.91 166.062C205.951 165.881 205.997 165.707 206.045 165.54L207.245 165.864C207.179 166.048 207.127 166.236 207.089 166.427C207.054 166.601 207.037 166.77 207.037 166.933C207.037 166.951 207.037 167.008 207.037 167.105C207.037 167.199 207.061 167.324 207.11 167.481C207.158 167.634 207.237 167.77 207.344 167.888C207.452 168.003 207.593 168.093 207.767 168.159C207.944 168.225 208.16 168.258 208.414 168.258H208.602V169.594H208.404ZM202.117 164.293L201.23 165.18L200.332 164.288L201.219 163.396L202.117 164.293ZM204.089 164.298L203.202 165.191L202.304 164.293L203.191 163.406L204.089 164.298ZM211.006 167.554C211.12 167.603 211.268 167.664 211.449 167.737C211.63 167.81 211.825 167.883 212.033 167.956C212.242 168.029 212.453 168.095 212.665 168.154C212.88 168.21 213.077 168.244 213.254 168.258C213.22 168.112 213.183 167.961 213.145 167.804C213.11 167.644 213.07 167.49 213.025 167.34C212.98 167.191 212.929 167.05 212.873 166.917C212.818 166.782 212.752 166.664 212.675 166.563C212.602 166.462 212.517 166.382 212.42 166.323C212.322 166.264 212.213 166.234 212.091 166.234C211.952 166.234 211.827 166.279 211.715 166.37C211.607 166.46 211.508 166.573 211.418 166.709C211.331 166.841 211.253 166.984 211.183 167.137C211.117 167.29 211.058 167.429 211.006 167.554ZM212.988 169.578C212.807 169.575 212.595 169.549 212.352 169.5C212.108 169.455 211.86 169.394 211.606 169.318C211.355 169.241 211.113 169.154 210.88 169.057C210.651 168.959 210.456 168.857 210.296 168.749C210.16 168.884 210.028 169.004 209.9 169.109C209.771 169.213 209.637 169.302 209.498 169.375C209.359 169.444 209.207 169.498 209.044 169.537C208.884 169.575 208.701 169.594 208.496 169.594H208.392V168.258H208.496C208.75 168.258 208.962 168.211 209.133 168.118C209.303 168.02 209.449 167.895 209.571 167.742C209.693 167.589 209.799 167.417 209.889 167.225C209.983 167.034 210.079 166.843 210.176 166.651C210.273 166.45 210.385 166.248 210.51 166.046C210.635 165.844 210.776 165.664 210.933 165.504C211.093 165.34 211.272 165.208 211.47 165.107C211.668 165.006 211.891 164.956 212.138 164.956C212.461 164.956 212.733 165.013 212.952 165.128C213.174 165.239 213.359 165.394 213.505 165.592C213.654 165.787 213.773 166.017 213.86 166.281C213.947 166.545 214.02 166.831 214.079 167.137C214.113 167.314 214.147 167.472 214.178 167.611C214.209 167.747 214.244 167.864 214.282 167.961C214.324 168.058 214.367 168.133 214.413 168.185C214.461 168.234 214.519 168.258 214.585 168.258H214.747V169.594H214.548C214.357 169.591 214.187 169.538 214.037 169.438C213.891 169.333 213.755 169.196 213.63 169.025C213.592 169.06 213.547 169.107 213.494 169.166C213.446 169.225 213.392 169.284 213.333 169.344C213.277 169.399 213.22 169.45 213.16 169.495C213.101 169.54 213.044 169.568 212.988 169.578ZM219.186 168.258V169.594H219.082C218.745 169.594 218.459 169.54 218.226 169.432C217.993 169.324 217.795 169.185 217.632 169.015C217.517 169.161 217.346 169.274 217.12 169.354C216.898 169.431 216.649 169.486 216.374 169.521C216.099 169.559 215.816 169.58 215.524 169.584C215.235 169.591 214.969 169.594 214.725 169.594H214.532V168.258H214.725C215.132 168.258 215.475 168.236 215.753 168.191C216.032 168.142 216.256 168.072 216.426 167.982C216.6 167.891 216.725 167.778 216.802 167.643C216.878 167.504 216.917 167.344 216.917 167.163C216.917 167.044 216.894 166.888 216.849 166.693C216.804 166.495 216.736 166.241 216.645 165.931L217.929 165.571C217.974 165.724 218.009 165.86 218.033 165.978C218.061 166.093 218.082 166.21 218.096 166.328C218.113 166.443 218.127 166.568 218.138 166.704C218.152 166.836 218.165 166.994 218.179 167.178C218.19 167.29 218.216 167.41 218.258 167.538C218.299 167.664 218.357 167.78 218.43 167.888C218.506 167.992 218.598 168.081 218.706 168.154C218.814 168.224 218.939 168.258 219.082 168.258H219.186ZM216.473 171.138L215.586 172.025L214.689 171.133L215.576 170.241L216.473 171.138ZM218.445 171.144L217.558 172.036L216.661 171.138L217.548 170.251L218.445 171.144ZM219.099 168.258C219.464 168.258 219.816 168.248 220.153 168.227C220.49 168.203 220.798 168.17 221.076 168.128C221.355 168.086 221.595 168.036 221.796 167.977C221.998 167.917 222.149 167.851 222.25 167.778H221.718C221.412 167.778 221.12 167.74 220.842 167.664C220.567 167.584 220.325 167.465 220.116 167.309C219.908 167.152 219.741 166.957 219.616 166.724C219.494 166.488 219.433 166.213 219.433 165.9C219.433 165.716 219.452 165.526 219.49 165.331C219.529 165.137 219.586 164.947 219.662 164.763C219.739 164.578 219.831 164.404 219.939 164.241C220.047 164.077 220.17 163.935 220.309 163.813C220.449 163.688 220.602 163.591 220.769 163.521C220.936 163.448 221.116 163.411 221.311 163.411C221.551 163.411 221.776 163.462 221.984 163.563C222.193 163.664 222.382 163.801 222.553 163.975C222.723 164.145 222.875 164.344 223.007 164.57C223.139 164.796 223.25 165.034 223.341 165.284C223.431 165.535 223.499 165.791 223.544 166.051C223.593 166.309 223.617 166.554 223.617 166.787C223.617 167.184 223.562 167.528 223.45 167.82C223.342 168.112 223.189 168.363 222.991 168.571C222.796 168.78 222.562 168.951 222.287 169.083C222.016 169.215 221.715 169.319 221.384 169.396C221.054 169.472 220.699 169.524 220.32 169.552C219.944 169.58 219.555 169.594 219.151 169.594H218.974V168.258H219.099ZM221.311 164.757C221.294 164.754 221.276 164.752 221.259 164.752C221.189 164.752 221.109 164.78 221.019 164.836C220.929 164.891 220.842 164.971 220.758 165.076C220.675 165.18 220.607 165.298 220.555 165.431C220.502 165.559 220.476 165.686 220.476 165.811C220.476 165.818 220.476 165.825 220.476 165.832C220.476 165.957 220.504 166.06 220.56 166.14C220.616 166.217 220.69 166.276 220.784 166.317C220.882 166.359 220.993 166.389 221.118 166.406C221.247 166.424 221.382 166.436 221.525 166.443C221.619 166.446 221.716 166.448 221.817 166.448C221.866 166.448 221.941 166.448 222.042 166.448C222.146 166.444 222.252 166.439 222.36 166.432C222.329 166.307 222.283 166.152 222.224 165.968C222.169 165.78 222.097 165.599 222.01 165.425C221.927 165.248 221.826 165.095 221.708 164.966C221.593 164.837 221.461 164.768 221.311 164.757ZM221.186 161.841L220.299 162.728L219.402 161.836L220.289 160.944L221.186 161.841ZM223.158 161.846L222.271 162.738L221.374 161.841L222.261 160.954L223.158 161.846Z" fill="#5D606D"/>
<path d="M171.972 11.3513C171.767 11.6574 171.616 11.9913 171.518 12.353C171.421 12.7148 171.372 13.0748 171.372 13.433C171.372 13.7183 171.438 13.9722 171.571 14.1948C171.703 14.4209 171.871 14.6104 172.077 14.7635C172.282 14.92 172.51 15.0383 172.76 15.1183C173.011 15.2017 173.254 15.2435 173.491 15.2435C173.731 15.2435 173.979 15.2017 174.237 15.1183C174.498 15.0383 174.736 14.9096 174.951 14.7322C175.167 14.5583 175.345 14.3322 175.484 14.0539C175.623 13.7791 175.692 13.4452 175.692 13.0522C175.692 12.7774 175.687 12.4539 175.677 12.0817C175.666 11.7096 175.652 11.3148 175.635 10.8974C175.621 10.4765 175.604 10.0435 175.583 9.59826C175.562 9.15304 175.541 8.71826 175.52 8.29391C175.496 7.79652 175.466 7.27826 175.431 6.73913C175.4 6.19652 175.369 5.65391 175.338 5.1113L176.699 4.85565C176.724 5.42609 176.748 5.99304 176.772 6.55652C176.8 7.11652 176.823 7.65565 176.84 8.17391C176.854 8.61565 176.868 9.06783 176.882 9.53043C176.899 9.99304 176.913 10.4417 176.924 10.8765C176.938 11.3078 176.948 11.713 176.955 12.0922C176.965 12.4713 176.971 12.7983 176.971 13.073C176.971 13.5113 176.918 13.9026 176.814 14.247C176.713 14.5913 176.576 14.8922 176.402 15.1496C176.228 15.4104 176.025 15.6313 175.791 15.8122C175.562 15.993 175.318 16.1409 175.061 16.2557C174.807 16.3704 174.548 16.4522 174.284 16.5009C174.019 16.553 173.765 16.5791 173.522 16.5791C173.289 16.5791 173.044 16.553 172.786 16.5009C172.532 16.4487 172.28 16.3687 172.03 16.2609C171.779 16.153 171.541 16.0139 171.315 15.8435C171.089 15.6765 170.889 15.4765 170.715 15.2435C170.545 15.0104 170.411 14.7426 170.313 14.44C170.216 14.1513 170.167 13.8261 170.167 13.4643C170.167 13.4539 170.167 13.4417 170.167 13.4278C170.167 13.2052 170.179 12.9774 170.204 12.7443C170.231 12.5113 170.273 12.2817 170.329 12.0557C170.385 11.8296 170.454 11.6122 170.538 11.4035C170.621 11.1948 170.724 11.0035 170.845 10.8296L171.972 11.3513ZM181.001 13.1565H180.792C180.086 13.1565 179.55 12.9791 179.185 12.6243C178.82 12.2696 178.635 11.7339 178.632 11.0174C178.632 10.9061 178.635 10.7235 178.642 10.4696C178.649 10.2122 178.653 9.89913 178.653 9.53043C178.653 9.3113 178.651 9.07652 178.648 8.82609C178.644 8.57217 178.639 8.31478 178.632 8.05391C178.625 7.78957 178.615 7.52696 178.601 7.26609C178.59 7.00174 178.576 6.74783 178.559 6.50435C178.541 6.25739 178.521 6.02783 178.496 5.81565C178.472 5.6 178.444 5.41043 178.413 5.24696L179.722 4.85565C179.761 5.05739 179.795 5.30435 179.827 5.59652C179.858 5.88522 179.886 6.19478 179.91 6.52522C179.935 6.85565 179.952 7.19304 179.962 7.53739C179.976 7.87826 179.983 8.2 179.983 8.50261C179.983 8.68696 179.985 8.88348 179.988 9.09217C179.992 9.29739 179.994 9.47826 179.994 9.63478C179.994 9.76696 179.992 9.89217 179.988 10.0104C179.988 10.1252 179.987 10.2365 179.983 10.3443C179.983 10.4522 179.981 10.5583 179.978 10.6626C179.978 10.767 179.978 10.873 179.978 10.9809C179.978 11.0087 179.978 11.0365 179.978 11.0643C179.978 11.1896 179.99 11.3009 180.015 11.3983C180.042 11.4957 180.089 11.5774 180.155 11.6435C180.221 11.7061 180.305 11.7513 180.406 11.7791C180.51 11.807 180.63 11.8209 180.766 11.8209H181.001V13.1565ZM183.408 11.1165C183.523 11.1652 183.671 11.2261 183.851 11.2991C184.032 11.3722 184.227 11.4452 184.436 11.5183C184.645 11.5913 184.855 11.6574 185.067 11.7165C185.283 11.7722 185.479 11.807 185.657 11.8209C185.622 11.6748 185.585 11.5235 185.547 11.367C185.512 11.207 185.472 11.0522 185.427 10.9026C185.382 10.753 185.331 10.6122 185.276 10.48C185.22 10.3443 185.154 10.2261 185.078 10.1252C185.005 10.0243 184.919 9.94435 184.822 9.88522C184.725 9.82609 184.615 9.79652 184.493 9.79652C184.354 9.79652 184.229 9.84174 184.118 9.93217C184.01 10.0226 183.911 10.1357 183.82 10.2713C183.733 10.4035 183.655 10.5461 183.585 10.6991C183.519 10.8522 183.46 10.9913 183.408 11.1165ZM185.391 13.1409C185.21 13.1374 184.998 13.1113 184.754 13.0626C184.511 13.0174 184.262 12.9565 184.008 12.88C183.758 12.8035 183.516 12.7165 183.283 12.6191C183.053 12.5217 182.858 12.4191 182.698 12.3113C182.563 12.447 182.431 12.567 182.302 12.6713C182.173 12.7757 182.039 12.8643 181.9 12.9374C181.761 13.007 181.61 13.0609 181.446 13.0991C181.286 13.1374 181.104 13.1565 180.898 13.1565H180.794V11.8209H180.898C181.152 11.8209 181.365 11.7739 181.535 11.68C181.705 11.5826 181.851 11.4574 181.973 11.3043C182.095 11.1513 182.201 10.9791 182.291 10.7878C182.385 10.5965 182.481 10.4052 182.578 10.2139C182.676 10.0122 182.787 9.81043 182.912 9.6087C183.038 9.40696 183.178 9.22609 183.335 9.06609C183.495 8.90261 183.674 8.77043 183.872 8.66956C184.071 8.5687 184.293 8.51826 184.54 8.51826C184.864 8.51826 185.135 8.57565 185.354 8.69043C185.577 8.80174 185.761 8.95652 185.907 9.15478C186.057 9.34957 186.175 9.57913 186.262 9.84348C186.349 10.1078 186.422 10.393 186.481 10.6991C186.516 10.8765 186.549 11.0348 186.58 11.1739C186.611 11.3096 186.646 11.4261 186.685 11.5235C186.726 11.6209 186.77 11.6957 186.815 11.7478C186.864 11.7965 186.921 11.8209 186.987 11.8209H187.149V13.1565H186.951C186.759 13.153 186.589 13.1009 186.439 13C186.293 12.8957 186.158 12.7583 186.032 12.5878C185.994 12.6226 185.949 12.6696 185.897 12.7287C185.848 12.7878 185.794 12.847 185.735 12.9061C185.679 12.9617 185.622 13.0122 185.563 13.0574C185.504 13.1026 185.446 13.1304 185.391 13.1409ZM191.609 10.0939C191.484 9.94783 191.338 9.81565 191.171 9.69739C191.032 9.59652 190.87 9.50609 190.686 9.42609C190.502 9.34261 190.3 9.30087 190.081 9.30087C189.903 9.30087 189.747 9.3287 189.611 9.38435C189.476 9.43652 189.361 9.50957 189.267 9.60348C189.173 9.69391 189.1 9.8 189.048 9.92174C188.996 10.0435 188.964 10.1739 188.954 10.313C188.95 10.3374 188.949 10.3617 188.949 10.3861C188.949 10.5496 188.992 10.7096 189.079 10.8661C189.166 11.0191 189.288 11.1565 189.444 11.2783C189.601 11.3965 189.782 11.487 189.987 11.5496C190.154 11.6017 190.323 11.6278 190.493 11.6278C190.531 11.6278 190.569 11.6261 190.608 11.6226C190.809 11.6087 191.011 11.5878 191.213 11.56C191.418 11.5287 191.604 11.4991 191.771 11.4713L192.329 11.3617L192.491 12.6609C192.276 12.7165 192.034 12.7739 191.766 12.833C191.498 12.8922 191.19 12.9461 190.843 12.9948C190.498 13.04 190.107 13.0783 189.669 13.1096C189.23 13.1409 188.733 13.1565 188.176 13.1565H186.935V11.8209H187.164L188.161 11.8157C187.973 11.5965 187.844 11.3722 187.775 11.1426C187.709 10.9096 187.676 10.6539 187.676 10.3757C187.676 10.0487 187.736 9.73913 187.858 9.44696C187.98 9.15478 188.147 8.89913 188.359 8.68C188.575 8.46087 188.829 8.28696 189.121 8.15826C189.416 8.02957 189.736 7.96522 190.081 7.96522C190.251 7.96522 190.415 7.98087 190.571 8.01217C190.731 8.04348 190.883 8.08522 191.025 8.13739C191.168 8.18957 191.302 8.2487 191.427 8.31478C191.556 8.38087 191.672 8.44696 191.776 8.51304C191.898 8.59304 192.016 8.67826 192.131 8.7687C192.246 8.85913 192.354 8.95478 192.455 9.05565L191.609 10.0939ZM195.026 4.85565C195.113 5.52 195.174 6.15478 195.208 6.76C195.243 7.36174 195.264 7.9513 195.271 8.5287C195.278 9.01913 195.28 9.47304 195.276 9.89043C195.276 10.3078 195.273 10.6974 195.266 11.0591C195.259 11.4174 195.248 11.753 195.234 12.0661C195.22 12.3757 195.207 12.6661 195.193 12.9374L193.826 13.1461C193.899 11.9983 193.935 10.9843 193.935 10.1043C193.935 9.74957 193.93 9.41739 193.92 9.10783C193.892 8.39478 193.86 7.72522 193.826 7.09913C193.791 6.46956 193.744 5.86783 193.685 5.29391L195.026 4.85565ZM211.404 13.1565C211.115 13.1565 210.852 13.1322 210.616 13.0835C210.383 13.0348 210.171 12.9583 209.979 12.8539C209.788 12.7461 209.618 12.6104 209.468 12.447C209.318 12.28 209.186 12.08 209.071 11.847C208.115 12.7304 206.684 13.1722 204.778 13.1722C203.689 13.1652 202.788 13.0313 202.075 12.7704C201.365 12.5061 200.842 12.1009 200.504 11.5548C200.358 11.2939 200.258 11.0226 200.202 10.7409C200.16 10.5357 200.139 10.3304 200.139 10.1252C200.139 10.0452 200.144 9.91478 200.155 9.73391C200.169 9.55304 200.219 9.32696 200.306 9.05565C200.393 8.78087 200.508 8.52174 200.651 8.27826L201.658 8.90957C201.557 9.07652 201.473 9.24348 201.407 9.41043C201.341 9.57739 201.299 9.74435 201.282 9.9113C201.275 9.97391 201.271 10.0365 201.271 10.0991C201.271 10.2035 201.284 10.3235 201.308 10.4591C201.336 10.5948 201.402 10.7443 201.506 10.9078C201.604 11.0713 201.751 11.2104 201.95 11.3252C202.148 11.44 202.388 11.5339 202.67 11.607C202.955 11.68 203.275 11.7339 203.63 11.7687C203.984 11.8035 204.367 11.8209 204.778 11.8209C205.15 11.8209 205.503 11.807 205.837 11.7791C206.171 11.7513 206.48 11.7078 206.765 11.6487C207.054 11.5861 207.315 11.5078 207.548 11.4139C207.781 11.3165 207.981 11.1983 208.148 11.0591C208.301 10.9409 208.424 10.8035 208.518 10.647C208.612 10.4904 208.691 10.327 208.753 10.1565C208.816 9.98261 208.868 9.80522 208.91 9.62435C208.951 9.44348 208.997 9.26957 209.045 9.10261L210.245 9.42609C210.179 9.61043 210.127 9.79826 210.089 9.98957C210.054 10.1635 210.037 10.3322 210.037 10.4957C210.037 10.513 210.037 10.5704 210.037 10.6678C210.037 10.7617 210.061 10.887 210.11 11.0435C210.158 11.1965 210.237 11.3322 210.344 11.4504C210.452 11.5652 210.593 11.6557 210.767 11.7217C210.944 11.7878 211.16 11.8209 211.414 11.8209H211.602V13.1565H211.404ZM205.117 7.85565L204.23 8.74261L203.332 7.85043L204.219 6.95826L205.117 7.85565ZM207.089 7.86087L206.202 8.75304L205.304 7.85565L206.191 6.9687L207.089 7.86087ZM214.006 11.1165C214.12 11.1652 214.268 11.2261 214.449 11.2991C214.63 11.3722 214.825 11.4452 215.033 11.5183C215.242 11.5913 215.453 11.6574 215.665 11.7165C215.88 11.7722 216.077 11.807 216.254 11.8209C216.22 11.6748 216.183 11.5235 216.145 11.367C216.11 11.207 216.07 11.0522 216.025 10.9026C215.98 10.753 215.929 10.6122 215.873 10.48C215.818 10.3443 215.752 10.2261 215.675 10.1252C215.602 10.0243 215.517 9.94435 215.42 9.88522C215.322 9.82609 215.213 9.79652 215.091 9.79652C214.952 9.79652 214.827 9.84174 214.715 9.93217C214.607 10.0226 214.508 10.1357 214.418 10.2713C214.331 10.4035 214.253 10.5461 214.183 10.6991C214.117 10.8522 214.058 10.9913 214.006 11.1165ZM215.988 13.1409C215.807 13.1374 215.595 13.1113 215.352 13.0626C215.108 13.0174 214.86 12.9565 214.606 12.88C214.355 12.8035 214.113 12.7165 213.88 12.6191C213.651 12.5217 213.456 12.4191 213.296 12.3113C213.16 12.447 213.028 12.567 212.9 12.6713C212.771 12.7757 212.637 12.8643 212.498 12.9374C212.359 13.007 212.207 13.0609 212.044 13.0991C211.884 13.1374 211.701 13.1565 211.496 13.1565H211.392V11.8209H211.496C211.75 11.8209 211.962 11.7739 212.133 11.68C212.303 11.5826 212.449 11.4574 212.571 11.3043C212.693 11.1513 212.799 10.9791 212.889 10.7878C212.983 10.5965 213.079 10.4052 213.176 10.2139C213.273 10.0122 213.385 9.81043 213.51 9.6087C213.635 9.40696 213.776 9.22609 213.933 9.06609C214.093 8.90261 214.272 8.77043 214.47 8.66956C214.668 8.5687 214.891 8.51826 215.138 8.51826C215.461 8.51826 215.733 8.57565 215.952 8.69043C216.174 8.80174 216.359 8.95652 216.505 9.15478C216.654 9.34957 216.773 9.57913 216.86 9.84348C216.947 10.1078 217.02 10.393 217.079 10.6991C217.113 10.8765 217.147 11.0348 217.178 11.1739C217.209 11.3096 217.244 11.4261 217.282 11.5235C217.324 11.6209 217.367 11.6957 217.413 11.7478C217.461 11.7965 217.519 11.8209 217.585 11.8209H217.747V13.1565H217.548C217.357 13.153 217.187 13.1009 217.037 13C216.891 12.8957 216.755 12.7583 216.63 12.5878C216.592 12.6226 216.547 12.6696 216.494 12.7287C216.446 12.7878 216.392 12.847 216.333 12.9061C216.277 12.9617 216.22 13.0122 216.16 13.0574C216.101 13.1026 216.044 13.1304 215.988 13.1409ZM222.186 11.8209V13.1565H222.082C221.745 13.1565 221.459 13.1026 221.226 12.9948C220.993 12.887 220.795 12.7478 220.632 12.5774C220.517 12.7235 220.346 12.8365 220.12 12.9165C219.898 12.993 219.649 13.0487 219.374 13.0835C219.099 13.1217 218.816 13.1426 218.524 13.1461C218.235 13.153 217.969 13.1565 217.725 13.1565H217.532V11.8209H217.725C218.132 11.8209 218.475 11.7983 218.753 11.753C219.032 11.7043 219.256 11.6348 219.426 11.5443C219.6 11.4539 219.725 11.3409 219.802 11.2052C219.878 11.0661 219.917 10.9061 219.917 10.7252C219.917 10.607 219.894 10.4504 219.849 10.2557C219.804 10.0574 219.736 9.80348 219.645 9.49391L220.929 9.13391C220.974 9.28696 221.009 9.42261 221.033 9.54087C221.061 9.65565 221.082 9.77217 221.096 9.89043C221.113 10.0052 221.127 10.1304 221.138 10.2661C221.152 10.3983 221.165 10.5565 221.179 10.7409C221.19 10.8522 221.216 10.9722 221.258 11.1009C221.299 11.2261 221.357 11.3426 221.43 11.4504C221.506 11.5548 221.598 11.6435 221.706 11.7165C221.814 11.7861 221.939 11.8209 222.082 11.8209H222.186ZM219.473 14.7009L218.586 15.5878L217.689 14.6957L218.576 13.8035L219.473 14.7009ZM221.445 14.7061L220.558 15.5983L219.661 14.7009L220.548 13.8139L221.445 14.7061ZM222.099 11.8209C222.464 11.8209 222.816 11.8104 223.153 11.7896C223.49 11.7652 223.798 11.7322 224.076 11.6904C224.355 11.6487 224.595 11.5983 224.796 11.5391C224.998 11.48 225.149 11.4139 225.25 11.3409H224.718C224.412 11.3409 224.12 11.3026 223.842 11.2261C223.567 11.1461 223.325 11.0278 223.116 10.8713C222.908 10.7148 222.741 10.52 222.616 10.287C222.494 10.0504 222.433 9.77565 222.433 9.46261C222.433 9.27826 222.452 9.0887 222.49 8.89391C222.529 8.69913 222.586 8.50957 222.662 8.32522C222.739 8.14087 222.831 7.96696 222.939 7.80348C223.047 7.64 223.17 7.49739 223.309 7.37565C223.449 7.25043 223.602 7.15304 223.769 7.08348C223.936 7.01043 224.116 6.97391 224.311 6.97391C224.551 6.97391 224.776 7.02435 224.984 7.12522C225.193 7.22609 225.382 7.36348 225.553 7.53739C225.723 7.70783 225.875 7.90609 226.007 8.13217C226.139 8.35826 226.25 8.59652 226.341 8.84696C226.431 9.09739 226.499 9.35304 226.544 9.61391C226.593 9.8713 226.617 10.1165 226.617 10.3496C226.617 10.7461 226.562 11.0904 226.45 11.3826C226.342 11.6748 226.189 11.9252 225.991 12.1339C225.796 12.3426 225.562 12.513 225.287 12.6452C225.016 12.7774 224.715 12.8817 224.384 12.9583C224.054 13.0348 223.699 13.087 223.32 13.1148C222.944 13.1426 222.555 13.1565 222.151 13.1565H221.974V11.8209H222.099ZM224.311 8.32C224.294 8.31652 224.276 8.31478 224.259 8.31478C224.189 8.31478 224.109 8.34261 224.019 8.39826C223.929 8.45391 223.842 8.53391 223.758 8.63826C223.675 8.74261 223.607 8.86087 223.555 8.99304C223.502 9.12174 223.476 9.2487 223.476 9.37391C223.476 9.38087 223.476 9.38783 223.476 9.39478C223.476 9.52 223.504 9.62261 223.56 9.70261C223.616 9.77913 223.69 9.83826 223.784 9.88C223.882 9.92174 223.993 9.9513 224.118 9.9687C224.247 9.98609 224.382 9.99826 224.525 10.0052C224.619 10.0087 224.716 10.0104 224.817 10.0104C224.866 10.0104 224.941 10.0104 225.042 10.0104C225.146 10.007 225.252 10.0017 225.36 9.99478C225.329 9.86957 225.283 9.71478 225.224 9.53043C225.169 9.34261 225.097 9.16174 225.01 8.98783C224.927 8.81043 224.826 8.65739 224.708 8.5287C224.593 8.4 224.461 8.33043 224.311 8.32ZM224.186 5.40348L223.299 6.29043L222.402 5.39826L223.289 4.50609L224.186 5.40348ZM226.158 5.4087L225.271 6.30087L224.374 5.40348L225.261 4.51652L226.158 5.4087Z" fill="#5D606D"/>
<path d="M298 87.5L198 153.5L98 87.5" stroke="#FF526D" stroke-width="3"/>
<path d="M397 88H298L397 18V88Z" fill="#00C288" fill-opacity="0.1"/>
</svg>
