<svg width="397" height="176" viewBox="0 0 397 176" fill="none" xmlns="http://www.w3.org/2000/svg">
<rect x="0.5" y="107.965" width="1.16481" height="396" rx="0.582403" transform="rotate(-90 0.5 107.965)" fill="#373945" stroke="#373945"/>
<rect x="0.5" y="-0.5" width="1" height="24.9777" rx="0.5" transform="matrix(1 -8.41391e-08 -9.08346e-08 -1 115.125 119.371)" fill="#373945" stroke="#373945"/>
<path d="M185 156L185 0" stroke="#373945" stroke-dasharray="6 6"/>
<path d="M0.5 107.611H198L116.5 147.66H0.5V107.611Z" fill="#FF526D" fill-opacity="0.1"/>
<path d="M198 107.609L396 11.2755" stroke="#00C288" stroke-width="3"/>
<path d="M198 107.611L116.5 147.66H0" stroke="#FF526D" stroke-width="3"/>
<path d="M395.5 107.609V11.2755L198.5 107.609H395.5Z" fill="#00C288" fill-opacity="0.1"/>
<path d="M161.619 169.868C161.751 169.951 161.909 170.037 162.094 170.123C162.281 170.21 162.474 170.289 162.673 170.358C162.874 170.428 163.071 170.485 163.262 170.53C163.457 170.576 163.627 170.598 163.774 170.598C163.833 170.598 163.906 170.597 163.993 170.593C164.08 170.59 164.172 170.583 164.269 170.572C164.367 170.558 164.464 170.539 164.561 170.515C164.659 170.487 164.746 170.45 164.822 170.405C164.902 170.357 164.967 170.297 165.015 170.228C165.064 170.155 165.09 170.066 165.094 169.962C165.094 169.955 165.094 169.95 165.094 169.946C165.094 169.807 165.054 169.65 164.974 169.477C164.897 169.299 164.791 169.115 164.655 168.923C164.52 168.729 164.363 168.534 164.186 168.339C164.008 168.144 163.824 167.958 163.633 167.781C163.441 167.6 163.248 167.435 163.054 167.285C162.862 167.132 162.683 167.003 162.516 166.899L163.294 165.746C163.614 165.965 163.928 166.212 164.238 166.487C164.551 166.762 164.838 167.056 165.099 167.369C165.363 167.678 165.591 168.002 165.782 168.339C165.977 168.677 166.116 169.017 166.2 169.362C166.245 169.56 166.267 169.75 166.267 169.93C166.267 170.104 166.234 170.313 166.168 170.557C166.106 170.8 165.961 171.04 165.735 171.277C165.509 171.51 165.222 171.689 164.874 171.814C164.575 171.922 164.247 171.976 163.888 171.976C163.829 171.976 163.768 171.974 163.706 171.97C163.476 171.97 163.243 171.948 163.007 171.903C162.77 171.861 162.537 171.802 162.307 171.725C162.081 171.649 161.862 171.562 161.65 171.464C161.441 171.363 161.247 171.257 161.066 171.146L161.619 169.868ZM169.969 171.918H169.761C169.055 171.918 168.519 171.741 168.154 171.386C167.789 171.031 167.604 170.496 167.601 169.779C167.601 169.668 167.604 169.485 167.611 169.231C167.618 168.974 167.622 168.661 167.622 168.292C167.622 168.073 167.62 167.838 167.616 167.588C167.613 167.334 167.608 167.077 167.601 166.816C167.594 166.551 167.583 166.289 167.569 166.028C167.559 165.763 167.545 165.51 167.528 165.266C167.51 165.019 167.489 164.79 167.465 164.577C167.441 164.362 167.413 164.172 167.382 164.009L168.691 163.617C168.729 163.819 168.764 164.066 168.795 164.358C168.827 164.647 168.855 164.957 168.879 165.287C168.903 165.617 168.921 165.955 168.931 166.299C168.945 166.64 168.952 166.962 168.952 167.264C168.952 167.449 168.954 167.645 168.957 167.854C168.961 168.059 168.962 168.24 168.962 168.397C168.962 168.529 168.961 168.654 168.957 168.772C168.957 168.887 168.955 168.998 168.952 169.106C168.952 169.214 168.95 169.32 168.947 169.424C168.947 169.529 168.947 169.635 168.947 169.743C168.947 169.77 168.947 169.798 168.947 169.826C168.947 169.951 168.959 170.063 168.983 170.16C169.011 170.257 169.058 170.339 169.124 170.405C169.19 170.468 169.274 170.513 169.375 170.541C169.479 170.569 169.599 170.583 169.735 170.583H169.969V171.918ZM172.377 169.878C172.492 169.927 172.639 169.988 172.82 170.061C173.001 170.134 173.196 170.207 173.405 170.28C173.613 170.353 173.824 170.419 174.036 170.478C174.252 170.534 174.448 170.569 174.625 170.583C174.591 170.437 174.554 170.285 174.516 170.129C174.481 169.969 174.441 169.814 174.396 169.664C174.351 169.515 174.3 169.374 174.245 169.242C174.189 169.106 174.123 168.988 174.046 168.887C173.973 168.786 173.888 168.706 173.791 168.647C173.693 168.588 173.584 168.558 173.462 168.558C173.323 168.558 173.198 168.603 173.086 168.694C172.978 168.784 172.879 168.897 172.789 169.033C172.702 169.165 172.624 169.308 172.554 169.461C172.488 169.614 172.429 169.753 172.377 169.878ZM174.359 171.903C174.178 171.899 173.966 171.873 173.723 171.824C173.479 171.779 173.231 171.718 172.977 171.642C172.726 171.565 172.485 171.478 172.252 171.381C172.022 171.283 171.827 171.181 171.667 171.073C171.532 171.209 171.399 171.329 171.271 171.433C171.142 171.537 171.008 171.626 170.869 171.699C170.73 171.769 170.578 171.823 170.415 171.861C170.255 171.899 170.072 171.918 169.867 171.918H169.763V170.583H169.867C170.121 170.583 170.333 170.536 170.504 170.442C170.674 170.344 170.82 170.219 170.942 170.066C171.064 169.913 171.17 169.741 171.26 169.55C171.354 169.358 171.45 169.167 171.547 168.976C171.645 168.774 171.756 168.572 171.881 168.37C172.006 168.169 172.147 167.988 172.304 167.828C172.464 167.664 172.643 167.532 172.841 167.431C173.039 167.33 173.262 167.28 173.509 167.28C173.832 167.28 174.104 167.337 174.323 167.452C174.545 167.563 174.73 167.718 174.876 167.917C175.025 168.111 175.144 168.341 175.231 168.605C175.318 168.87 175.391 169.155 175.45 169.461C175.485 169.638 175.518 169.797 175.549 169.936C175.58 170.071 175.615 170.188 175.653 170.285C175.695 170.383 175.738 170.457 175.784 170.51C175.832 170.558 175.89 170.583 175.956 170.583H176.118V171.918H175.919C175.728 171.915 175.558 171.863 175.408 171.762C175.262 171.657 175.126 171.52 175.001 171.35C174.963 171.384 174.918 171.431 174.865 171.49C174.817 171.55 174.763 171.609 174.704 171.668C174.648 171.723 174.591 171.774 174.532 171.819C174.472 171.864 174.415 171.892 174.359 171.903ZM175.903 170.583H176.743C176.907 170.583 177.074 170.574 177.244 170.557C177.418 170.536 177.575 170.496 177.714 170.437C177.853 170.374 177.966 170.285 178.053 170.17C178.143 170.056 178.189 169.903 178.189 169.711C178.189 169.621 178.17 169.494 178.131 169.33C178.093 169.167 178.043 168.986 177.98 168.788C177.917 168.59 177.843 168.384 177.756 168.172C177.672 167.96 177.583 167.762 177.49 167.577L178.695 166.983C178.782 167.181 178.869 167.391 178.956 167.614C179.043 167.837 179.119 168.066 179.185 168.303C179.255 168.536 179.31 168.77 179.352 169.007C179.394 169.243 179.415 169.475 179.415 169.701C179.415 170.09 179.349 170.426 179.217 170.708C179.084 170.986 178.9 171.216 178.663 171.397C178.427 171.574 178.143 171.704 177.813 171.788C177.486 171.875 177.126 171.918 176.733 171.918H175.903V170.583ZM178.57 165.214L177.568 166.216L176.571 165.214L177.568 164.217L178.57 165.214ZM195.404 171.918C195.115 171.918 194.852 171.894 194.616 171.845C194.383 171.797 194.171 171.72 193.979 171.616C193.788 171.508 193.618 171.372 193.468 171.209C193.318 171.042 193.186 170.842 193.071 170.609C192.115 171.492 190.684 171.934 188.778 171.934C187.689 171.927 186.788 171.793 186.075 171.532C185.365 171.268 184.842 170.863 184.504 170.317C184.358 170.056 184.258 169.784 184.202 169.503C184.16 169.297 184.139 169.092 184.139 168.887C184.139 168.807 184.144 168.677 184.155 168.496C184.169 168.315 184.219 168.089 184.306 167.817C184.393 167.543 184.508 167.283 184.651 167.04L185.658 167.671C185.557 167.838 185.473 168.005 185.407 168.172C185.341 168.339 185.299 168.506 185.282 168.673C185.275 168.736 185.271 168.798 185.271 168.861C185.271 168.965 185.284 169.085 185.308 169.221C185.336 169.357 185.402 169.506 185.506 169.67C185.604 169.833 185.751 169.972 185.95 170.087C186.148 170.202 186.388 170.296 186.67 170.369C186.955 170.442 187.275 170.496 187.63 170.53C187.984 170.565 188.367 170.583 188.778 170.583C189.15 170.583 189.503 170.569 189.837 170.541C190.171 170.513 190.48 170.47 190.765 170.41C191.054 170.348 191.315 170.27 191.548 170.176C191.781 170.078 191.981 169.96 192.148 169.821C192.301 169.703 192.424 169.565 192.518 169.409C192.612 169.252 192.691 169.089 192.753 168.918C192.816 168.744 192.868 168.567 192.91 168.386C192.951 168.205 192.997 168.031 193.045 167.864L194.245 168.188C194.179 168.372 194.127 168.56 194.089 168.751C194.054 168.925 194.037 169.094 194.037 169.257C194.037 169.275 194.037 169.332 194.037 169.43C194.037 169.523 194.061 169.649 194.11 169.805C194.158 169.958 194.237 170.094 194.344 170.212C194.452 170.327 194.593 170.417 194.767 170.483C194.944 170.55 195.16 170.583 195.414 170.583H195.602V171.918H195.404ZM189.117 166.617L188.23 167.504L187.332 166.612L188.219 165.72L189.117 166.617ZM191.089 166.623L190.202 167.515L189.304 166.617L190.191 165.73L191.089 166.623ZM198.006 169.878C198.12 169.927 198.268 169.988 198.449 170.061C198.63 170.134 198.825 170.207 199.033 170.28C199.242 170.353 199.453 170.419 199.665 170.478C199.88 170.534 200.077 170.569 200.254 170.583C200.22 170.437 200.183 170.285 200.145 170.129C200.11 169.969 200.07 169.814 200.025 169.664C199.98 169.515 199.929 169.374 199.873 169.242C199.818 169.106 199.752 168.988 199.675 168.887C199.602 168.786 199.517 168.706 199.42 168.647C199.322 168.588 199.213 168.558 199.091 168.558C198.952 168.558 198.827 168.603 198.715 168.694C198.607 168.784 198.508 168.897 198.418 169.033C198.331 169.165 198.253 169.308 198.183 169.461C198.117 169.614 198.058 169.753 198.006 169.878ZM199.988 171.903C199.807 171.899 199.595 171.873 199.352 171.824C199.108 171.779 198.86 171.718 198.606 171.642C198.355 171.565 198.113 171.478 197.88 171.381C197.651 171.283 197.456 171.181 197.296 171.073C197.16 171.209 197.028 171.329 196.9 171.433C196.771 171.537 196.637 171.626 196.498 171.699C196.359 171.769 196.207 171.823 196.044 171.861C195.884 171.899 195.701 171.918 195.496 171.918H195.392V170.583H195.496C195.75 170.583 195.962 170.536 196.133 170.442C196.303 170.344 196.449 170.219 196.571 170.066C196.693 169.913 196.799 169.741 196.889 169.55C196.983 169.358 197.079 169.167 197.176 168.976C197.273 168.774 197.385 168.572 197.51 168.37C197.635 168.169 197.776 167.988 197.933 167.828C198.093 167.664 198.272 167.532 198.47 167.431C198.668 167.33 198.891 167.28 199.138 167.28C199.461 167.28 199.733 167.337 199.952 167.452C200.174 167.563 200.359 167.718 200.505 167.917C200.654 168.111 200.773 168.341 200.86 168.605C200.947 168.87 201.02 169.155 201.079 169.461C201.113 169.638 201.147 169.797 201.178 169.936C201.209 170.071 201.244 170.188 201.282 170.285C201.324 170.383 201.367 170.457 201.413 170.51C201.461 170.558 201.519 170.583 201.585 170.583H201.747V171.918H201.548C201.357 171.915 201.187 171.863 201.037 171.762C200.891 171.657 200.755 171.52 200.63 171.35C200.592 171.384 200.547 171.431 200.494 171.49C200.446 171.55 200.392 171.609 200.333 171.668C200.277 171.723 200.22 171.774 200.16 171.819C200.101 171.864 200.044 171.892 199.988 171.903ZM206.186 170.583V171.918H206.082C205.745 171.918 205.459 171.864 205.226 171.757C204.993 171.649 204.795 171.51 204.632 171.339C204.517 171.485 204.346 171.598 204.12 171.678C203.898 171.755 203.649 171.81 203.374 171.845C203.099 171.883 202.816 171.904 202.524 171.908C202.235 171.915 201.969 171.918 201.725 171.918H201.532V170.583H201.725C202.132 170.583 202.475 170.56 202.753 170.515C203.032 170.466 203.256 170.397 203.426 170.306C203.6 170.216 203.725 170.103 203.802 169.967C203.878 169.828 203.917 169.668 203.917 169.487C203.917 169.369 203.894 169.212 203.849 169.017C203.804 168.819 203.736 168.565 203.645 168.256L204.929 167.896C204.974 168.049 205.009 168.184 205.033 168.303C205.061 168.417 205.082 168.534 205.096 168.652C205.113 168.767 205.127 168.892 205.138 169.028C205.152 169.16 205.165 169.318 205.179 169.503C205.19 169.614 205.216 169.734 205.258 169.863C205.299 169.988 205.357 170.104 205.43 170.212C205.506 170.317 205.598 170.405 205.706 170.478C205.814 170.548 205.939 170.583 206.082 170.583H206.186ZM203.473 173.463L202.586 174.35L201.689 173.457L202.576 172.565L203.473 173.463ZM205.445 173.468L204.558 174.36L203.661 173.463L204.548 172.576L205.445 173.468ZM206.099 170.583C206.464 170.583 206.816 170.572 207.153 170.551C207.49 170.527 207.798 170.494 208.076 170.452C208.355 170.41 208.595 170.36 208.796 170.301C208.998 170.242 209.149 170.176 209.25 170.103H208.718C208.412 170.103 208.12 170.064 207.842 169.988C207.567 169.908 207.325 169.79 207.116 169.633C206.908 169.477 206.741 169.282 206.616 169.049C206.494 168.812 206.433 168.537 206.433 168.224C206.433 168.04 206.452 167.85 206.49 167.656C206.529 167.461 206.586 167.271 206.662 167.087C206.739 166.903 206.831 166.729 206.939 166.565C207.047 166.402 207.17 166.259 207.309 166.137C207.449 166.012 207.602 165.915 207.769 165.845C207.936 165.772 208.116 165.736 208.311 165.736C208.551 165.736 208.776 165.786 208.984 165.887C209.193 165.988 209.382 166.125 209.553 166.299C209.723 166.47 209.875 166.668 210.007 166.894C210.139 167.12 210.25 167.358 210.341 167.609C210.431 167.859 210.499 168.115 210.544 168.376C210.593 168.633 210.617 168.878 210.617 169.111C210.617 169.508 210.562 169.852 210.45 170.144C210.342 170.437 210.189 170.687 209.991 170.896C209.796 171.104 209.562 171.275 209.287 171.407C209.016 171.539 208.715 171.643 208.384 171.72C208.054 171.797 207.699 171.849 207.32 171.877C206.944 171.904 206.555 171.918 206.151 171.918H205.974V170.583H206.099ZM208.311 167.082C208.294 167.078 208.276 167.077 208.259 167.077C208.189 167.077 208.109 167.104 208.019 167.16C207.929 167.216 207.842 167.296 207.758 167.4C207.675 167.504 207.607 167.623 207.555 167.755C207.502 167.883 207.476 168.01 207.476 168.136C207.476 168.143 207.476 168.15 207.476 168.157C207.476 168.282 207.504 168.384 207.56 168.464C207.616 168.541 207.69 168.6 207.784 168.642C207.882 168.683 207.993 168.713 208.118 168.73C208.247 168.748 208.382 168.76 208.525 168.767C208.619 168.77 208.716 168.772 208.817 168.772C208.866 168.772 208.941 168.772 209.042 168.772C209.146 168.769 209.252 168.763 209.36 168.757C209.329 168.631 209.283 168.477 209.224 168.292C209.169 168.104 209.097 167.923 209.01 167.75C208.927 167.572 208.826 167.419 208.708 167.29C208.593 167.162 208.461 167.092 208.311 167.082ZM208.186 164.165L207.299 165.052L206.402 164.16L207.289 163.268L208.186 164.165ZM210.158 164.17L209.271 165.063L208.374 164.165L209.261 163.278L210.158 164.17Z" fill="#B2B5C0"/>
<path d="M89.9723 86.6521C89.7671 86.9582 89.6158 87.2921 89.5184 87.6538C89.421 88.0156 89.3723 88.3756 89.3723 88.7338C89.3723 89.019 89.4384 89.273 89.5706 89.4956C89.7028 89.7217 89.8715 89.9112 90.0767 90.0643C90.2819 90.2208 90.5097 90.339 90.7602 90.419C91.0106 90.5025 91.2541 90.5443 91.4906 90.5443C91.7306 90.5443 91.9793 90.5025 92.2367 90.419C92.4976 90.339 92.7358 90.2103 92.9515 90.033C93.1671 89.859 93.3445 89.633 93.4836 89.3547C93.6228 89.0799 93.6923 88.746 93.6923 88.353C93.6923 88.0782 93.6871 87.7547 93.6767 87.3825C93.6663 87.0103 93.6523 86.6156 93.6349 86.1982C93.621 85.7773 93.6036 85.3443 93.5828 84.899C93.5619 84.4538 93.541 84.019 93.5202 83.5947C93.4958 83.0973 93.4663 82.579 93.4315 82.0399C93.4002 81.4973 93.3689 80.9547 93.3376 80.4121L94.6993 80.1564C94.7236 80.7269 94.748 81.2938 94.7723 81.8573C94.8002 82.4173 94.8228 82.9564 94.8402 83.4747C94.8541 83.9164 94.868 84.3686 94.8819 84.8312C94.8993 85.2938 94.9132 85.7425 94.9236 86.1773C94.9376 86.6086 94.948 87.0138 94.9549 87.393C94.9654 87.7721 94.9706 88.099 94.9706 88.3738C94.9706 88.8121 94.9184 89.2034 94.8141 89.5477C94.7132 89.8921 94.5758 90.193 94.4019 90.4503C94.228 90.7112 94.0245 90.9321 93.7915 91.113C93.5619 91.2938 93.3184 91.4417 93.061 91.5564C92.8071 91.6712 92.548 91.753 92.2836 91.8017C92.0193 91.8538 91.7654 91.8799 91.5219 91.8799C91.2889 91.8799 91.0436 91.8538 90.7863 91.8017C90.5323 91.7495 90.2802 91.6695 90.0297 91.5617C89.7793 91.4538 89.541 91.3147 89.3149 91.1443C89.0889 90.9773 88.8889 90.7773 88.7149 90.5443C88.5445 90.3112 88.4106 90.0434 88.3132 89.7408C88.2158 89.4521 88.1671 89.1269 88.1671 88.7651C88.1671 88.7547 88.1671 88.7425 88.1671 88.7286C88.1671 88.506 88.1793 88.2782 88.2036 88.0451C88.2315 87.8121 88.2732 87.5825 88.3289 87.3564C88.3845 87.1303 88.4541 86.913 88.5376 86.7043C88.621 86.4956 88.7236 86.3043 88.8454 86.1303L89.9723 86.6521ZM99.0006 88.4573H98.7919C98.0858 88.4573 97.5502 88.2799 97.185 87.9251C96.8198 87.5703 96.6354 87.0347 96.6319 86.3182C96.6319 86.2069 96.6354 86.0243 96.6424 85.7703C96.6493 85.513 96.6528 85.1999 96.6528 84.8312C96.6528 84.6121 96.6511 84.3773 96.6476 84.1269C96.6441 83.873 96.6389 83.6156 96.6319 83.3547C96.625 83.0903 96.6145 82.8277 96.6006 82.5669C96.5902 82.3025 96.5763 82.0486 96.5589 81.8051C96.5415 81.5582 96.5206 81.3286 96.4963 81.1164C96.4719 80.9008 96.4441 80.7112 96.4128 80.5477L97.7224 80.1564C97.7606 80.3582 97.7954 80.6051 97.8267 80.8973C97.858 81.186 97.8858 81.4956 97.9102 81.826C97.9345 82.1564 97.9519 82.4938 97.9624 82.8382C97.9763 83.179 97.9832 83.5008 97.9832 83.8034C97.9832 83.9877 97.985 84.1843 97.9885 84.393C97.9919 84.5982 97.9937 84.779 97.9937 84.9356C97.9937 85.0677 97.9919 85.193 97.9885 85.3112C97.9885 85.426 97.9867 85.5373 97.9832 85.6451C97.9832 85.753 97.9815 85.859 97.978 85.9634C97.978 86.0677 97.978 86.1738 97.978 86.2817C97.978 86.3095 97.978 86.3373 97.978 86.3651C97.978 86.4903 97.9902 86.6017 98.0145 86.699C98.0424 86.7964 98.0893 86.8782 98.1554 86.9443C98.2215 87.0069 98.305 87.0521 98.4058 87.0799C98.5102 87.1077 98.6302 87.1217 98.7658 87.1217H99.0006V88.4573ZM101.408 86.4173C101.523 86.466 101.671 86.5269 101.851 86.5999C102.032 86.673 102.227 86.746 102.436 86.819C102.645 86.8921 102.855 86.9582 103.067 87.0173C103.283 87.073 103.479 87.1077 103.657 87.1217C103.622 86.9756 103.585 86.8243 103.547 86.6677C103.512 86.5077 103.472 86.353 103.427 86.2034C103.382 86.0538 103.331 85.913 103.276 85.7808C103.22 85.6451 103.154 85.5269 103.078 85.426C103.005 85.3251 102.919 85.2451 102.822 85.186C102.725 85.1269 102.615 85.0973 102.493 85.0973C102.354 85.0973 102.229 85.1425 102.118 85.233C102.01 85.3234 101.911 85.4364 101.82 85.5721C101.733 85.7043 101.655 85.8469 101.585 85.9999C101.519 86.153 101.46 86.2921 101.408 86.4173ZM103.391 88.4417C103.21 88.4382 102.998 88.4121 102.754 88.3634C102.511 88.3182 102.262 88.2573 102.008 88.1808C101.758 88.1043 101.516 88.0173 101.283 87.9199C101.053 87.8225 100.858 87.7199 100.698 87.6121C100.563 87.7477 100.431 87.8677 100.302 87.9721C100.173 88.0764 100.039 88.1651 99.9002 88.2382C99.761 88.3077 99.6097 88.3617 99.4463 88.3999C99.2863 88.4382 99.1037 88.4573 98.8984 88.4573H98.7941V87.1217H98.8984C99.1524 87.1217 99.3645 87.0747 99.535 86.9808C99.7054 86.8834 99.8515 86.7582 99.9732 86.6051C100.095 86.4521 100.201 86.2799 100.291 86.0886C100.385 85.8973 100.481 85.706 100.578 85.5147C100.676 85.313 100.787 85.1112 100.912 84.9095C101.038 84.7077 101.178 84.5269 101.335 84.3669C101.495 84.2034 101.674 84.0712 101.872 83.9703C102.071 83.8695 102.293 83.819 102.54 83.819C102.864 83.819 103.135 83.8764 103.354 83.9912C103.577 84.1025 103.761 84.2573 103.907 84.4556C104.057 84.6503 104.175 84.8799 104.262 85.1443C104.349 85.4086 104.422 85.6938 104.481 85.9999C104.516 86.1773 104.549 86.3356 104.58 86.4747C104.611 86.6103 104.646 86.7269 104.685 86.8243C104.726 86.9217 104.77 86.9964 104.815 87.0486C104.864 87.0973 104.921 87.1217 104.987 87.1217H105.149V88.4573H104.951C104.759 88.4538 104.589 88.4017 104.439 88.3008C104.293 88.1964 104.158 88.059 104.032 87.8886C103.994 87.9234 103.949 87.9703 103.897 88.0295C103.848 88.0886 103.794 88.1477 103.735 88.2069C103.679 88.2625 103.622 88.313 103.563 88.3582C103.504 88.4034 103.446 88.4312 103.391 88.4417ZM109.609 85.3947C109.484 85.2486 109.338 85.1164 109.171 84.9982C109.032 84.8973 108.87 84.8069 108.686 84.7269C108.502 84.6434 108.3 84.6017 108.081 84.6017C107.903 84.6017 107.747 84.6295 107.611 84.6851C107.476 84.7373 107.361 84.8103 107.267 84.9043C107.173 84.9947 107.1 85.1008 107.048 85.2225C106.996 85.3443 106.964 85.4747 106.954 85.6138C106.95 85.6382 106.949 85.6625 106.949 85.6869C106.949 85.8503 106.992 86.0103 107.079 86.1669C107.166 86.3199 107.288 86.4573 107.444 86.579C107.601 86.6973 107.782 86.7877 107.987 86.8503C108.154 86.9025 108.323 86.9286 108.493 86.9286C108.531 86.9286 108.569 86.9269 108.608 86.9234C108.809 86.9095 109.011 86.8886 109.213 86.8608C109.418 86.8295 109.604 86.7999 109.771 86.7721L110.329 86.6625L110.491 87.9617C110.276 88.0173 110.034 88.0747 109.766 88.1338C109.498 88.193 109.19 88.2469 108.843 88.2956C108.498 88.3408 108.107 88.379 107.669 88.4103C107.23 88.4417 106.733 88.4573 106.176 88.4573H104.935V87.1217H105.164L106.161 87.1164C105.973 86.8973 105.844 86.673 105.775 86.4434C105.709 86.2103 105.676 85.9547 105.676 85.6764C105.676 85.3495 105.736 85.0399 105.858 84.7477C105.98 84.4556 106.147 84.1999 106.359 83.9808C106.575 83.7617 106.829 83.5877 107.121 83.459C107.416 83.3303 107.736 83.266 108.081 83.266C108.251 83.266 108.415 83.2817 108.571 83.313C108.731 83.3443 108.883 83.386 109.025 83.4382C109.168 83.4903 109.302 83.5495 109.427 83.6156C109.556 83.6817 109.672 83.7477 109.776 83.8138C109.898 83.8938 110.016 83.979 110.131 84.0695C110.246 84.1599 110.354 84.2556 110.455 84.3564L109.609 85.3947ZM113.026 80.1564C113.113 80.8208 113.174 81.4556 113.208 82.0608C113.243 82.6625 113.264 83.2521 113.271 83.8295C113.278 84.3199 113.28 84.7738 113.276 85.1912C113.276 85.6086 113.273 85.9982 113.266 86.3599C113.259 86.7182 113.248 87.0538 113.234 87.3669C113.22 87.6764 113.207 87.9669 113.193 88.2382L111.826 88.4469C111.899 87.299 111.935 86.2851 111.935 85.4051C111.935 85.0503 111.93 84.7182 111.92 84.4086C111.892 83.6956 111.86 83.026 111.826 82.3999C111.791 81.7703 111.744 81.1686 111.685 80.5947L113.026 80.1564ZM129.404 88.4573C129.115 88.4573 128.852 88.433 128.616 88.3843C128.383 88.3356 128.171 88.259 127.979 88.1547C127.788 88.0469 127.618 87.9112 127.468 87.7477C127.318 87.5808 127.186 87.3808 127.071 87.1477C126.115 88.0312 124.684 88.473 122.778 88.473C121.689 88.466 120.788 88.3321 120.075 88.0712C119.365 87.8069 118.842 87.4017 118.504 86.8556C118.358 86.5947 118.258 86.3234 118.202 86.0417C118.16 85.8364 118.139 85.6312 118.139 85.426C118.139 85.346 118.144 85.2156 118.155 85.0347C118.169 84.8538 118.219 84.6277 118.306 84.3564C118.393 84.0817 118.508 83.8225 118.651 83.579L119.658 84.2103C119.557 84.3773 119.473 84.5443 119.407 84.7112C119.341 84.8782 119.299 85.0451 119.282 85.2121C119.275 85.2747 119.271 85.3373 119.271 85.3999C119.271 85.5043 119.284 85.6243 119.308 85.7599C119.336 85.8956 119.402 86.0451 119.506 86.2086C119.604 86.3721 119.751 86.5112 119.95 86.626C120.148 86.7408 120.388 86.8347 120.67 86.9077C120.955 86.9808 121.275 87.0347 121.63 87.0695C121.984 87.1043 122.367 87.1217 122.778 87.1217C123.15 87.1217 123.503 87.1077 123.837 87.0799C124.171 87.0521 124.48 87.0086 124.765 86.9495C125.054 86.8869 125.315 86.8086 125.548 86.7147C125.781 86.6173 125.981 86.499 126.148 86.3599C126.301 86.2417 126.424 86.1043 126.518 85.9477C126.612 85.7912 126.691 85.6277 126.753 85.4573C126.816 85.2834 126.868 85.106 126.91 84.9251C126.951 84.7443 126.997 84.5703 127.045 84.4034L128.245 84.7269C128.179 84.9112 128.127 85.099 128.089 85.2903C128.054 85.4643 128.037 85.633 128.037 85.7964C128.037 85.8138 128.037 85.8712 128.037 85.9686C128.037 86.0625 128.061 86.1877 128.11 86.3443C128.158 86.4973 128.237 86.633 128.344 86.7512C128.452 86.866 128.593 86.9564 128.767 87.0225C128.944 87.0886 129.16 87.1217 129.414 87.1217H129.602V88.4573H129.404ZM123.117 83.1564L122.23 84.0434L121.332 83.1512L122.219 82.259L123.117 83.1564ZM125.089 83.1617L124.202 84.0538L123.304 83.1564L124.191 82.2695L125.089 83.1617ZM132.006 86.4173C132.12 86.466 132.268 86.5269 132.449 86.5999C132.63 86.673 132.825 86.746 133.033 86.819C133.242 86.8921 133.453 86.9582 133.665 87.0173C133.88 87.073 134.077 87.1077 134.254 87.1217C134.22 86.9756 134.183 86.8243 134.145 86.6677C134.11 86.5077 134.07 86.353 134.025 86.2034C133.98 86.0538 133.929 85.913 133.873 85.7808C133.818 85.6451 133.752 85.5269 133.675 85.426C133.602 85.3251 133.517 85.2451 133.42 85.186C133.322 85.1269 133.213 85.0973 133.091 85.0973C132.952 85.0973 132.827 85.1425 132.715 85.233C132.607 85.3234 132.508 85.4364 132.418 85.5721C132.331 85.7043 132.253 85.8469 132.183 85.9999C132.117 86.153 132.058 86.2921 132.006 86.4173ZM133.988 88.4417C133.807 88.4382 133.595 88.4121 133.352 88.3634C133.108 88.3182 132.86 88.2573 132.606 88.1808C132.355 88.1043 132.113 88.0173 131.88 87.9199C131.651 87.8225 131.456 87.7199 131.296 87.6121C131.16 87.7477 131.028 87.8677 130.9 87.9721C130.771 88.0764 130.637 88.1651 130.498 88.2382C130.359 88.3077 130.207 88.3617 130.044 88.3999C129.884 88.4382 129.701 88.4573 129.496 88.4573H129.392V87.1217H129.496C129.75 87.1217 129.962 87.0747 130.133 86.9808C130.303 86.8834 130.449 86.7582 130.571 86.6051C130.693 86.4521 130.799 86.2799 130.889 86.0886C130.983 85.8973 131.079 85.706 131.176 85.5147C131.273 85.313 131.385 85.1112 131.51 84.9095C131.635 84.7077 131.776 84.5269 131.933 84.3669C132.093 84.2034 132.272 84.0712 132.47 83.9703C132.668 83.8695 132.891 83.819 133.138 83.819C133.461 83.819 133.733 83.8764 133.952 83.9912C134.174 84.1025 134.359 84.2573 134.505 84.4556C134.654 84.6503 134.773 84.8799 134.86 85.1443C134.947 85.4086 135.02 85.6938 135.079 85.9999C135.113 86.1773 135.147 86.3356 135.178 86.4747C135.209 86.6103 135.244 86.7269 135.282 86.8243C135.324 86.9217 135.367 86.9964 135.413 87.0486C135.461 87.0973 135.519 87.1217 135.585 87.1217H135.747V88.4573H135.548C135.357 88.4538 135.187 88.4017 135.037 88.3008C134.891 88.1964 134.755 88.059 134.63 87.8886C134.592 87.9234 134.547 87.9703 134.494 88.0295C134.446 88.0886 134.392 88.1477 134.333 88.2069C134.277 88.2625 134.22 88.313 134.16 88.3582C134.101 88.4034 134.044 88.4312 133.988 88.4417ZM140.186 87.1217V88.4573H140.082C139.745 88.4573 139.459 88.4034 139.226 88.2956C138.993 88.1877 138.795 88.0486 138.632 87.8782C138.517 88.0243 138.346 88.1373 138.12 88.2173C137.898 88.2938 137.649 88.3495 137.374 88.3843C137.099 88.4225 136.816 88.4434 136.524 88.4469C136.235 88.4538 135.969 88.4573 135.725 88.4573H135.532V87.1217H135.725C136.132 87.1217 136.475 87.099 136.753 87.0538C137.032 87.0051 137.256 86.9356 137.426 86.8451C137.6 86.7547 137.725 86.6417 137.802 86.506C137.878 86.3669 137.917 86.2069 137.917 86.026C137.917 85.9077 137.894 85.7512 137.849 85.5564C137.804 85.3582 137.736 85.1043 137.645 84.7947L138.929 84.4347C138.974 84.5877 139.009 84.7234 139.033 84.8417C139.061 84.9564 139.082 85.073 139.096 85.1912C139.113 85.306 139.127 85.4312 139.138 85.5669C139.152 85.699 139.165 85.8573 139.179 86.0417C139.19 86.153 139.216 86.273 139.258 86.4017C139.299 86.5269 139.357 86.6434 139.43 86.7512C139.506 86.8556 139.598 86.9443 139.706 87.0173C139.814 87.0869 139.939 87.1217 140.082 87.1217H140.186ZM137.473 90.0017L136.586 90.8886L135.689 89.9964L136.576 89.1043L137.473 90.0017ZM139.445 90.0069L138.558 90.899L137.661 90.0017L138.548 89.1147L139.445 90.0069ZM140.099 87.1217C140.464 87.1217 140.816 87.1112 141.153 87.0903C141.49 87.066 141.798 87.033 142.076 86.9912C142.355 86.9495 142.595 86.899 142.796 86.8399C142.998 86.7808 143.149 86.7147 143.25 86.6417H142.718C142.412 86.6417 142.12 86.6034 141.842 86.5269C141.567 86.4469 141.325 86.3286 141.116 86.1721C140.908 86.0156 140.741 85.8208 140.616 85.5877C140.494 85.3512 140.433 85.0764 140.433 84.7634C140.433 84.579 140.452 84.3895 140.49 84.1947C140.529 83.9999 140.586 83.8103 140.662 83.626C140.739 83.4417 140.831 83.2677 140.939 83.1043C141.047 82.9408 141.17 82.7982 141.309 82.6764C141.449 82.5512 141.602 82.4538 141.769 82.3843C141.936 82.3112 142.116 82.2747 142.311 82.2747C142.551 82.2747 142.776 82.3251 142.984 82.426C143.193 82.5269 143.382 82.6643 143.553 82.8382C143.723 83.0086 143.875 83.2069 144.007 83.433C144.139 83.659 144.25 83.8973 144.341 84.1477C144.431 84.3982 144.499 84.6538 144.544 84.9147C144.593 85.1721 144.617 85.4173 144.617 85.6503C144.617 86.0469 144.562 86.3912 144.45 86.6834C144.342 86.9756 144.189 87.226 143.991 87.4347C143.796 87.6434 143.562 87.8138 143.287 87.946C143.016 88.0782 142.715 88.1825 142.384 88.259C142.054 88.3356 141.699 88.3877 141.32 88.4156C140.944 88.4434 140.555 88.4573 140.151 88.4573H139.974V87.1217H140.099ZM142.311 83.6208C142.294 83.6173 142.276 83.6156 142.259 83.6156C142.189 83.6156 142.109 83.6434 142.019 83.699C141.929 83.7547 141.842 83.8347 141.758 83.939C141.675 84.0434 141.607 84.1617 141.555 84.2938C141.502 84.4225 141.476 84.5495 141.476 84.6747C141.476 84.6817 141.476 84.6886 141.476 84.6956C141.476 84.8208 141.504 84.9234 141.56 85.0034C141.616 85.0799 141.69 85.139 141.784 85.1808C141.882 85.2225 141.993 85.2521 142.118 85.2695C142.247 85.2869 142.382 85.299 142.525 85.306C142.619 85.3095 142.716 85.3112 142.817 85.3112C142.866 85.3112 142.941 85.3112 143.042 85.3112C143.146 85.3077 143.252 85.3025 143.36 85.2956C143.329 85.1703 143.283 85.0156 143.224 84.8312C143.169 84.6434 143.097 84.4625 143.01 84.2886C142.927 84.1112 142.826 83.9582 142.708 83.8295C142.593 83.7008 142.461 83.6312 142.311 83.6208ZM142.186 80.7043L141.299 81.5912L140.402 80.699L141.289 79.8069L142.186 80.7043ZM144.158 80.7095L143.271 81.6017L142.374 80.7043L143.261 79.8173L144.158 80.7095Z" fill="#B2B5C0"/>
</svg>
