<svg width="175" height="174" viewBox="0 0 175 174" fill="none" xmlns="http://www.w3.org/2000/svg">
<path d="M58.3569 34.6669C60.3921 34.6669 62.0419 33.0171 62.0419 30.9819C62.0419 28.9467 60.3921 27.2969 58.3569 27.2969C56.3217 27.2969 54.6719 28.9467 54.6719 30.9819C54.6719 33.0171 56.3217 34.6669 58.3569 34.6669Z" fill="#2F3039"/>
<path d="M36.2447 141.942C39.1844 141.942 41.5675 139.559 41.5675 136.62C41.5675 133.68 39.1844 131.297 36.2447 131.297C33.305 131.297 30.9219 133.68 30.9219 136.62C30.9219 139.559 33.305 141.942 36.2447 141.942Z" fill="#2F3039"/>
<path d="M90.6995 152.586C124.167 152.586 151.297 125.456 151.297 91.9886C151.297 58.5212 124.167 31.3906 90.6995 31.3906C57.2322 31.3906 30.1016 58.5212 30.1016 91.9886C30.1016 125.456 57.2322 152.586 90.6995 152.586Z" fill="#2F3039"/>
<g filter="url(#filter0_d_5409_71401)">
<path d="M46.4844 86.2844L63.7125 61.7553C64.1036 61.1985 64.7411 60.8672 65.4211 60.8672H116.232C116.901 60.8672 117.529 61.1877 117.922 61.7288L135.744 86.2844V113.276H46.4844V86.2844Z" fill="#3A3B44"/>
</g>
<g filter="url(#filter1_d_5409_71401)">
<path d="M46.4844 87.7741C46.4844 87.3896 46.7958 87.0781 47.1804 87.0781H71.2794C73.1902 87.0781 74.8575 88.3755 75.3273 90.2279L77.1449 97.3967C77.3798 98.3231 78.2133 98.9714 79.1689 98.9714H91.7171H104.003C104.94 98.9714 105.763 98.3471 106.014 97.4444L108.054 90.1322C108.557 88.3268 110.202 87.0781 112.076 87.0781H135.048C135.432 87.0781 135.744 87.3896 135.744 87.7741V132.854C135.744 135.161 133.874 137.03 131.568 137.03H50.6604C48.3538 137.03 46.4844 135.161 46.4844 132.854V87.7741Z" fill="#1C1E26"/>
</g>
<path d="M23.4997 47.1042C23.9216 49.3258 25.7044 50.8532 27.4817 50.5157C29.259 50.1781 30.3577 48.1035 29.9358 45.8819C29.5139 43.6603 27.7311 42.133 25.9538 42.4705C24.1765 42.808 23.0778 44.8826 23.4997 47.1042Z" fill="#2F3039"/>
<path d="M25.0995 55.5534C25.5636 57.9971 27.3806 59.7046 29.1579 59.3671C30.9352 59.0295 31.9997 56.7749 31.5356 54.3311C31.0715 51.8873 29.2545 50.1799 27.4773 50.5174C25.7 50.8549 24.6354 53.1096 25.0995 55.5534Z" fill="#2F3039"/>
<path fill-rule="evenodd" clip-rule="evenodd" d="M31.9813 50.9035C32.0986 50.4667 32.5477 50.2078 32.9846 50.3251C33.5673 50.4813 34.1328 50.6282 34.6817 50.7657C35.1204 50.8756 35.3868 51.3204 35.277 51.7589C35.1671 52.1977 34.7223 52.4643 34.2836 52.3543C33.7256 52.2144 33.1513 52.0654 32.5599 51.9068C32.1231 51.7895 31.8641 51.3402 31.9813 50.9035ZM37.1097 52.1824C37.2016 51.7394 37.6355 51.4551 38.0782 51.5473C39.3073 51.8031 40.4387 52.0063 41.4851 52.1671C41.9319 52.2356 42.2389 52.6539 42.1703 53.1007C42.1014 53.5479 41.6835 53.8545 41.2366 53.786C40.1599 53.6207 39.0004 53.4119 37.7445 53.1509C37.3018 53.0586 37.0175 52.625 37.1097 52.1824ZM44.0401 53.3269C44.0774 52.8763 44.473 52.5412 44.9237 52.5784C46.2043 52.6842 47.3357 52.7211 48.3599 52.719C48.8123 52.7183 49.1794 53.084 49.1804 53.5364C49.1811 53.9888 48.8154 54.356 48.363 54.357C47.2957 54.3591 46.1184 54.3205 44.7887 54.2105C44.338 54.1733 44.0029 53.7776 44.0401 53.3269ZM51.0527 53.455C51.0238 53.0037 51.3666 52.6146 51.8179 52.5861C51.9387 52.5784 52.0591 52.5704 52.1788 52.5627C53.2764 52.4921 54.3242 52.4242 55.3884 52.4378C55.8405 52.4437 56.2024 52.815 56.1965 53.2671C56.1909 53.7195 55.8196 54.0814 55.3675 54.0755C54.3705 54.063 53.3867 54.1263 52.278 54.1976C52.1607 54.2049 52.042 54.2126 51.9216 54.2203C51.4703 54.2491 51.0812 53.9064 51.0527 53.455ZM58.06 53.4783C58.1592 53.0371 58.5973 52.7601 59.0386 52.8592C60.092 53.0959 61.2289 53.4501 62.5116 53.9638C62.9313 54.1319 63.1356 54.6086 62.9675 55.0283C62.7991 55.4484 62.3227 55.6523 61.9026 55.4842C60.6895 54.9984 59.6364 54.6723 58.6791 54.4569C58.2378 54.3577 57.9608 53.9196 58.06 53.4783ZM64.6647 55.8141C64.8693 55.4108 65.3624 55.25 65.7654 55.455C66.2718 55.7121 66.7993 55.9898 67.3499 56.2902C67.9338 56.6086 68.4739 56.9399 68.9726 57.2841C69.3446 57.5409 69.4382 58.051 69.1814 58.4231C68.9242 58.7954 68.4144 58.8887 68.042 58.6319C67.5942 58.3225 67.1031 58.0211 66.5658 57.7281C66.0282 57.4347 65.5149 57.1643 65.0238 56.9152C64.6205 56.7102 64.4597 56.2174 64.6647 55.8141ZM70.6513 59.7479C71.0056 59.4664 71.5206 59.5252 71.8022 59.8791C72.6649 60.9642 73.2516 62.1195 73.625 63.3239C73.759 63.7558 73.5175 64.2145 73.0856 64.3485C72.6537 64.4824 72.1947 64.2409 72.0607 63.8091C71.7451 62.7908 71.2516 61.8181 70.5201 60.8987C70.239 60.5445 70.2974 60.0294 70.6513 59.7479ZM73.3483 66.3146C73.8007 66.3115 74.1696 66.6759 74.1728 67.1283C74.1808 68.3598 74.0551 69.6109 73.8623 70.8602C73.7934 71.3071 73.3751 71.6136 72.928 71.5444C72.4811 71.4755 72.1745 71.0572 72.2438 70.6104C72.4282 69.4143 72.5424 68.2554 72.5347 67.1391C72.5319 66.6867 72.8959 66.3178 73.3483 66.3146ZM72.5438 73.4869C72.9861 73.5819 73.2676 74.0173 73.173 74.4592C73.1166 74.7209 73.0602 74.9812 73.0042 75.2409C72.8048 76.1627 72.6075 77.0741 72.4335 77.9824C72.3482 78.4264 71.9191 78.7177 71.4751 78.6325C71.031 78.5472 70.7397 78.1185 70.825 77.6741C71.0028 76.7446 71.2057 75.8077 71.4058 74.8831C71.4615 74.6263 71.5168 74.3705 71.5715 74.1158C71.6665 73.6738 72.1018 73.3919 72.5438 73.4869ZM71.1793 80.5907C71.6303 80.6269 71.9664 81.0215 71.9302 81.4725C71.8833 82.0589 71.8613 82.6348 71.8711 83.1996C71.8787 83.652 71.5182 84.0247 71.0662 84.0324C70.6141 84.04 70.2411 83.6799 70.2334 83.2275C70.223 82.6021 70.2473 81.9726 70.2978 81.3416C70.334 80.891 70.7286 80.5548 71.1793 80.5907Z" fill="#595A62"/>
<path d="M24.2601 51.1282C24.4288 52.0168 26.0064 52.4636 27.7837 52.1261C29.561 51.7885 30.865 50.7945 30.6962 49.9059C30.5274 49.0173 28.9499 48.5705 27.1726 48.908C25.3953 49.2455 24.0913 50.2395 24.2601 51.1282Z" fill="#3A3B44"/>
<path fill-rule="evenodd" clip-rule="evenodd" d="M116.089 32.2081C115.845 32.2081 115.353 32.2494 114.63 32.3451C114.182 32.4044 113.77 32.089 113.711 31.6406C113.651 31.1923 113.967 30.7807 114.415 30.7214C115.144 30.625 115.728 30.5703 116.089 30.5703V32.2081ZM112.178 31.8978C112.262 32.3423 111.969 32.7702 111.524 32.8535C110.582 33.0303 109.537 33.243 108.42 33.4919C107.978 33.5902 107.541 33.3121 107.443 32.8706C107.344 32.4292 107.622 31.9916 108.064 31.8933C109.199 31.6404 110.262 31.4239 111.222 31.2438C111.667 31.1604 112.095 31.4532 112.178 31.8978ZM105.935 33.2311C106.047 33.6693 105.783 34.1153 105.345 34.2274C104.353 34.481 103.332 34.7582 102.298 35.0593C101.864 35.1856 101.409 34.9361 101.283 34.5017C101.157 34.0675 101.406 33.613 101.84 33.4866C102.893 33.1803 103.932 32.8984 104.939 32.6406C105.377 32.5286 105.823 32.793 105.935 33.2311ZM99.8022 34.9611C99.9445 35.3902 99.712 35.8538 99.2826 35.9961C98.2849 36.3274 97.2903 36.6796 96.3128 37.0533C95.8903 37.2148 95.417 37.0032 95.2555 36.5807C95.0941 36.1583 95.3057 35.685 95.7281 35.5235C96.7304 35.1404 97.7483 34.7797 98.7669 34.4417C99.1963 34.2993 99.6595 34.5318 99.8022 34.9611ZM93.8228 37.1709C94.008 37.5837 93.8235 38.0681 93.4108 38.2532C92.4354 38.691 91.4968 39.1511 90.6111 39.6334C90.2141 39.8495 89.7168 39.7026 89.5003 39.3056C89.2842 38.9081 89.4311 38.4109 89.8281 38.1947C90.7559 37.6898 91.7324 37.2113 92.7402 36.7592C93.1529 36.5741 93.6373 36.7586 93.8228 37.1709ZM88.1762 40.1112C88.4354 40.4815 88.3453 40.992 87.975 41.2516C87.0845 41.8752 86.2987 42.5235 85.6386 43.1948C85.3212 43.5174 84.8027 43.5216 84.4804 43.2046C84.1578 42.8875 84.1537 42.369 84.4707 42.0464C85.2147 41.2899 86.0812 40.5782 87.0354 39.91C87.4061 39.6504 87.9166 39.7406 88.1762 40.1112ZM83.5426 44.4459C83.949 44.6439 84.1182 45.1339 83.9205 45.5407C83.5001 46.4044 83.2965 47.2943 83.3383 48.2206C83.3588 48.6727 83.0087 49.0551 82.557 49.0757C82.1053 49.0958 81.7225 48.7461 81.7023 48.2944C81.647 47.0674 81.9205 45.9071 82.4478 44.8238C82.6458 44.4173 83.1358 44.2479 83.5426 44.4459ZM83.015 50.5776C83.4162 50.3685 83.9107 50.5244 84.1195 50.9253C84.3315 51.3317 84.59 51.7504 84.8998 52.1805C85.2154 52.619 85.555 53.0296 85.9156 53.4142C86.2249 53.7441 86.2086 54.2623 85.8787 54.5716C85.5488 54.881 85.0306 54.8646 84.7212 54.5347C84.313 54.0997 83.9285 53.6345 83.5707 53.1375C83.2193 52.6496 82.9186 52.1645 82.6673 51.6822C82.4582 51.2809 82.6141 50.7864 83.015 50.5776ZM105.389 52.3396C104.879 52.2881 104.474 52.365 104.138 52.5268C103.731 52.723 103.241 52.5518 103.045 52.1443C102.849 51.7368 103.02 51.2475 103.427 51.0513C104.067 50.7433 104.781 50.6319 105.553 50.7099C106.174 50.7729 106.755 50.8438 107.297 50.9225C107.745 50.9872 108.055 51.4027 107.99 51.8503C107.925 52.2978 107.509 52.6082 107.062 52.5431C106.545 52.4683 105.988 52.4001 105.389 52.3396ZM109.721 52.2021C109.86 51.7716 110.322 51.536 110.752 51.6752C111.66 51.9693 112.387 52.3194 112.912 52.738C113.444 53.1612 113.823 53.7027 113.882 54.3583C113.922 54.809 113.59 55.2067 113.139 55.2471C112.689 55.2875 112.291 54.9551 112.25 54.5045C112.244 54.4324 112.199 54.2633 111.892 54.019C111.58 53.7702 111.056 53.4956 110.247 53.2332C109.817 53.094 109.581 52.6322 109.721 52.2021ZM102.026 53.6832C102.452 53.8356 102.674 54.3044 102.521 54.7303C102.212 55.5958 101.986 56.6697 101.833 57.925C101.817 58.0603 101.768 58.1842 101.696 58.2893C102.584 58.2302 103.45 58.1327 104.281 58.0039C104.728 57.9347 105.146 58.2409 105.216 58.6878C105.285 59.1346 104.979 59.5532 104.532 59.6225C103.421 59.7948 102.252 59.9131 101.054 59.9646C100.603 59.9841 100.22 59.6336 100.201 59.1816C100.189 58.8983 100.322 58.6422 100.535 58.4859C100.305 58.3165 100.171 58.0314 100.208 57.7276C100.368 56.4025 100.614 55.1987 100.979 54.1784C101.132 53.7528 101.6 53.5311 102.026 53.6832ZM87.2463 55.7012C87.4917 55.3212 87.9987 55.2123 88.3784 55.4576C89.2773 56.0381 90.2468 56.5208 91.2657 56.9147C91.6875 57.0779 91.8973 57.5522 91.7341 57.974C91.5709 58.3958 91.0966 58.6056 90.6748 58.4424C89.5626 58.012 88.4918 57.4806 87.4899 56.8333C87.1103 56.5879 87.001 56.0813 87.2463 55.7012ZM111.637 56.4592C111.85 56.8576 111.7 57.3539 111.301 57.5676C110.38 58.0607 109.245 58.504 107.97 58.8722C107.536 58.9975 107.082 58.7473 106.956 58.3126C106.831 57.8783 107.081 57.4242 107.516 57.2986C108.71 56.9537 109.733 56.5497 110.528 56.1237C110.927 55.91 111.423 56.0604 111.637 56.4592ZM93.4366 58.4664C93.5288 58.0238 93.9627 57.7398 94.4054 57.832C95.4786 58.0562 96.5748 58.203 97.6721 58.2827C98.1231 58.3154 98.4624 58.7076 98.4293 59.1586C98.3966 59.61 98.0044 59.9489 97.5534 59.9162C96.3904 59.8316 95.2214 59.6754 94.071 59.4353C93.6279 59.3431 93.344 58.9091 93.4366 58.4664ZM100.806 60.4455C101.258 60.458 101.615 60.8346 101.602 61.2866C101.572 62.3661 101.574 63.509 101.6 64.6991C101.609 65.1512 101.251 65.5256 100.798 65.5354C100.346 65.5451 99.9716 65.1863 99.9619 64.7343C99.9361 63.5243 99.9341 62.3536 99.965 61.2414C99.9776 60.789 100.354 60.433 100.806 60.4455ZM100.867 67.3509C101.319 67.3286 101.703 67.6766 101.726 68.1283C101.781 69.252 101.849 70.3983 101.925 71.5565C101.954 72.0078 101.612 72.3972 101.16 72.4265C100.709 72.4557 100.319 72.1136 100.29 71.6623C100.215 70.4989 100.146 69.3439 100.09 68.2094C100.068 67.7577 100.416 67.3735 100.867 67.3509ZM101.285 74.2361C101.736 74.204 102.128 74.544 102.16 74.9954C102.172 75.1711 102.184 75.3469 102.197 75.5226C102.265 76.4991 102.334 77.4739 102.399 78.4382C102.43 78.8895 102.088 79.28 101.637 79.3102C101.186 79.3409 100.795 78.9995 100.765 78.5485C100.7 77.5859 100.632 76.6139 100.563 75.6371C100.55 75.4617 100.538 75.286 100.526 75.1102C100.494 74.6592 100.834 74.2677 101.285 74.2361ZM101.751 81.1212C102.202 81.0965 102.588 81.4428 102.613 81.8945C102.678 83.085 102.73 84.2477 102.761 85.3668C102.773 85.8189 102.417 86.1954 101.965 86.208C101.513 86.2208 101.136 85.8645 101.124 85.4124C101.093 84.3117 101.042 83.164 100.977 81.9832C100.953 81.5319 101.299 81.1456 101.751 81.1212ZM101.979 88.0224C102.431 88.0329 102.789 88.4077 102.779 88.8597C102.75 90.1313 102.675 91.3162 102.535 92.3804C102.476 92.829 102.065 93.1446 101.617 93.0862C101.168 93.0274 100.852 92.616 100.911 92.1678C101.041 91.1795 101.113 90.0561 101.142 88.8225C101.152 88.3704 101.527 88.0123 101.979 88.0224ZM101.211 94.8617C101.615 95.0642 101.779 95.5563 101.576 95.9607C101.24 96.6312 100.794 97.2086 100.194 97.591L99.3132 96.2102C99.5899 96.0337 99.8627 95.7244 100.112 95.2271C100.314 94.8227 100.806 94.6591 101.211 94.8617Z" fill="#595A62"/>
<path d="M116.031 27.6277C116.453 29.8493 118.236 31.3766 120.013 31.0391C121.79 30.7016 122.889 28.627 122.467 26.4054C122.045 24.1838 120.262 22.6564 118.485 22.994C116.708 23.3315 115.609 25.4061 116.031 27.6277Z" fill="#2F3039"/>
<path d="M117.639 36.069C118.103 38.5128 119.92 40.2202 121.697 39.8827C123.474 39.5452 124.539 37.2905 124.075 34.8467C123.611 32.4029 121.794 30.6955 120.016 31.033C118.239 31.3705 117.174 33.6252 117.639 36.069Z" fill="#2F3039"/>
<path d="M116.799 31.6438C116.968 32.5325 118.545 32.9792 120.323 32.6417C122.1 32.3042 123.404 31.3102 123.235 30.4215C123.066 29.5329 121.489 29.0861 119.712 29.4236C117.934 29.7612 116.63 30.7552 116.799 31.6438Z" fill="#3A3B44"/>
<defs>
<filter id="filter0_d_5409_71401" x="42.4844" y="56.8672" width="97.2578" height="60.4092" filterUnits="userSpaceOnUse" color-interpolation-filters="sRGB">
<feFlood flood-opacity="0" result="BackgroundImageFix"/>
<feColorMatrix in="SourceAlpha" type="matrix" values="0 0 0 0 0 0 0 0 0 0 0 0 0 0 0 0 0 0 127 0" result="hardAlpha"/>
<feOffset/>
<feGaussianBlur stdDeviation="2"/>
<feComposite in2="hardAlpha" operator="out"/>
<feColorMatrix type="matrix" values="0 0 0 0 0 0 0 0 0 0 0 0 0 0 0 0 0 0 0.04 0"/>
<feBlend mode="normal" in2="BackgroundImageFix" result="effect1_dropShadow_5409_71401"/>
<feBlend mode="normal" in="SourceGraphic" in2="effect1_dropShadow_5409_71401" result="shape"/>
</filter>
<filter id="filter1_d_5409_71401" x="36.4844" y="79.0781" width="109.258" height="69.9521" filterUnits="userSpaceOnUse" color-interpolation-filters="sRGB">
<feFlood flood-opacity="0" result="BackgroundImageFix"/>
<feColorMatrix in="SourceAlpha" type="matrix" values="0 0 0 0 0 0 0 0 0 0 0 0 0 0 0 0 0 0 127 0" result="hardAlpha"/>
<feOffset dy="2"/>
<feGaussianBlur stdDeviation="5"/>
<feComposite in2="hardAlpha" operator="out"/>
<feColorMatrix type="matrix" values="0 0 0 0 0 0 0 0 0 0 0 0 0 0 0 0 0 0 0.05 0"/>
<feBlend mode="normal" in2="BackgroundImageFix" result="effect1_dropShadow_5409_71401"/>
<feBlend mode="normal" in="SourceGraphic" in2="effect1_dropShadow_5409_71401" result="shape"/>
</filter>
</defs>
</svg>
