
<svg width="284" height="249" viewBox="0 0 284 249" fill="none" xmlns="http://www.w3.org/2000/svg">
<path d="M112.845 240.004C112.845 237.456 93.8912 235.383 70.5085 235.383C47.1259 235.383 28.1701 237.451 28.1701 240.004C28.1701 242.557 47.1259 244.626 70.5085 244.626C93.8912 244.626 112.845 242.557 112.845 240.004ZM218.927 230.599C218.927 227.934 189.275 225.772 152.701 225.772C116.126 225.772 86.4765 227.934 86.4765 230.599C86.4765 233.264 116.126 235.426 152.701 235.426C189.275 235.426 218.927 233.264 218.927 230.599Z" fill="#F0F1F6"/>
<path d="M113.172 6.64521C108.293 6.84158 106.515 2.59782 105.674 0C107.171 0.0524661 113.216 0.620599 113.172 6.64521Z" fill="#DDE1EB"/>
<path d="M140.831 41.6956C140.752 41.6955 140.674 41.6717 140.608 41.6274C140.542 41.5831 140.491 41.5202 140.462 41.4468C136.784 32.3552 127.243 17.7741 112.464 6.60178C112.38 6.53837 112.325 6.44431 112.311 6.34029C112.296 6.23628 112.324 6.13083 112.388 6.04714C112.451 5.96345 112.545 5.90838 112.65 5.89404C112.754 5.87971 112.86 5.90728 112.943 5.97069C127.854 17.2404 137.484 31.9654 141.199 41.15C141.224 41.2102 141.233 41.2755 141.227 41.3402C141.22 41.4049 141.197 41.4669 141.161 41.5209C141.125 41.5748 141.076 41.619 141.018 41.6495C140.96 41.6799 140.896 41.6958 140.831 41.6956ZM139.321 33.0852C139.219 23.2455 146.251 21.5067 151.561 19.9687C151.364 22.9817 151.504 33.5439 139.321 33.0852ZM134.602 24.9155C132.554 17.2839 137.674 14.5317 141.494 12.2771C141.944 14.6561 144.166 22.8378 134.602 24.9155ZM127.798 17.2134C124.548 11.2488 128.27 7.91943 131.01 5.26914C131.871 7.16842 135.369 13.5573 127.798 17.2134ZM120.636 10.3209C117.66 7.32282 119.305 4.69351 120.486 2.63684C121.321 3.6232 124.521 6.83113 120.636 10.3209ZM134.493 34.8615C127.744 29.3826 122.676 33.2711 118.694 36.0833C120.887 37.6048 128.115 43.502 134.493 34.8615Z" fill="#DDE1EB"/>
<path d="M129.193 26.0727C124.179 20.5023 119.339 23.1331 115.565 24.9994C117.228 26.5853 122.589 32.58 129.193 26.0727ZM121.394 16.6707C117.037 13.956 114.367 16.5988 112.241 18.534C113.635 19.2641 118.29 22.1872 121.394 16.6707ZM115.69 10.7031C113.491 8.68539 111.673 9.91309 110.249 10.796C110.97 11.3582 113.323 13.5333 115.69 10.7031Z" fill="#DDE1EB"/>
<path d="M50.8122 152.407C52.5292 152.3 61.6924 138.98 59.2529 137.066C57.3556 135.566 55.7273 137.55 55.197 138.313C54.3558 139.512 52.5187 142.543 51.7255 141.78C50.288 140.399 55.9121 133.337 57.1769 131.533C58.4417 129.728 60.396 125.884 59.4662 123.636C58.5363 121.387 57.8964 120.579 55.861 123.859C53.8256 127.139 50.6244 134.102 49.7952 131.405C48.9661 128.708 52.7094 123.883 53.8376 120.332C54.9657 116.781 55.9045 109.636 53.2277 110.455C50.8332 111.188 49.0337 122.044 47.4534 120.948C46.1901 120.066 47.8019 117.317 48.8564 112.526C49.9109 107.735 50.8573 103.202 48.0633 102.315C45.8175 101.601 45.792 104.812 45.1896 107.388C44.5873 109.963 43.6139 113.52 42.636 112.375C41.658 111.23 45.822 98.9017 42.4542 96.9529C40.2265 95.6577 40.1754 98.5674 39.3072 101.525C38.4389 104.483 37.9117 105.458 37.3844 105.091C36.8571 104.724 37.3844 100.543 37.7284 98.2556C38.0724 95.968 37.793 92.5667 35.6674 92.1695C33.5419 91.7723 33.3646 95.4959 33.6185 96.887C33.8723 98.2781 33.5223 99.7111 33.1062 99.7831C32.6901 99.855 31.526 95.319 29.2802 96.2843C27.0345 97.2497 28.5742 101.472 30.5766 102.868C32.579 104.264 35.2333 106.218 34.7226 106.947C34.2118 107.675 31.894 106.061 30.0659 104.787C28.2377 103.513 27.2223 103.426 26.8828 103.911C25.7487 105.53 27.1682 108.558 28.5036 109.482C29.839 110.405 37.9973 114.655 37.2432 115.731C36.4891 116.808 33.5975 114.893 32.1223 113.865C30.6472 112.837 27.2103 110.444 25.9469 112.243C24.6836 114.042 28.6373 118.251 31.568 120.038C34.4987 121.825 39.4664 124.357 38.8836 125.19C38.3007 126.024 33.976 124.661 32.1854 123.412C30.3948 122.164 27.8292 119.034 26.2744 121.255C24.7197 123.477 27.1382 125.833 30.6547 128.284C32.1238 129.31 35.7861 131.807 38.6162 131.951C41.8443 132.113 43.4231 132.721 43.4231 133.472C43.4231 134.971 40.599 134.447 38.6702 133.622C36.7415 132.798 30.9056 129.861 30.1395 133.045C29.3734 136.229 34.6715 137.392 36.7565 138.073C38.8415 138.753 46.3929 140.504 46.0203 142.156C45.6478 143.808 41.9164 141.823 40.6922 141.333C39.4679 140.843 36.6108 140.632 36.8331 141.844C37.0554 143.057 47.7493 152.596 50.8122 152.407Z" fill="#000E89" fill-opacity="0.1"/>
<path d="M243.607 123.876C241.852 110.611 251.825 103.016 267.616 103.138C266.803 115.425 257.587 128.269 243.607 123.876Z" fill="#000E89" fill-opacity="0.1"/>
<path d="M44.8863 201.75C44.0105 203.527 42.5459 205.026 41.4824 204.408C40.4699 203.82 41.0032 201.932 41.957 200.274C40.2686 200.602 38.6267 200.406 38.4089 199.352C37.9808 197.282 44.0856 196.126 45.5592 196.997C47.6728 197.827 49.3296 203.639 47.2867 204.213C46.3148 204.486 45.4481 203.267 44.8863 201.75Z" fill="#C3C8DF"/>
<path d="M45.5592 197.388C45.4931 197.389 45.428 197.372 45.37 197.34C45.3241 197.316 45.2835 197.282 45.2506 197.242C45.2177 197.201 45.193 197.155 45.1781 197.105C45.1632 197.055 45.1582 197.003 45.1636 196.951C45.1689 196.9 45.1844 196.849 45.2092 196.804C46.5402 194.35 53.5853 190.049 61.1712 189.158C61.223 189.152 61.2755 189.157 61.3256 189.171C61.3758 189.185 61.4227 189.209 61.4637 189.241C61.5046 189.273 61.5388 189.313 61.5643 189.358C61.5897 189.404 61.606 189.454 61.6121 189.506C61.6182 189.557 61.6141 189.61 61.5999 189.66C61.5857 189.71 61.5618 189.757 61.5295 189.797C61.4972 189.838 61.4572 189.872 61.4117 189.898C61.3662 189.923 61.3161 189.939 61.2643 189.945C53.6904 190.845 47.0178 195.141 45.9092 197.184C45.8747 197.247 45.8239 197.298 45.7623 197.334C45.7007 197.37 45.6306 197.389 45.5592 197.388Z" fill="#000E89" fill-opacity="0.05"/>
<path d="M46.193 199.124C45.8701 199.017 45.6477 198.65 45.475 198.304C45.1746 198.754 44.464 199.203 44.0284 198.806C43.7175 198.526 44.1531 197.968 44.6082 197.542C44.3897 197.548 44.1714 197.524 43.9593 197.47C42.2499 196.994 44.9372 196.187 45.6973 196.769C45.9571 196.994 46.1927 197.245 46.4003 197.518C46.9516 198.2 46.8194 199.337 46.193 199.124ZM62.8475 169.316C64.1469 164.777 63.6166 152.543 53.6633 149.698C49.1568 148.409 47.8995 148.335 46.3027 149.334C45.2617 149.984 44.7149 151.057 43.6484 150.807C41.6956 150.347 43.42 143.068 36.5026 140.722C29.5851 138.376 26.7746 142.883 24.9134 142.221C23.0522 141.558 23.1394 138.473 19.6559 138.575C16.1723 138.677 16.2159 144.393 11.75 145.136C7.1068 145.908 -0.309368 148.884 0.426691 153.291C1.16275 157.698 4.71836 156.917 6.94156 159.019C9.16476 161.12 10.3965 169.839 17.2584 168.697C24.0782 167.562 26.4396 166.148 30.7779 173.624C35.1161 181.1 43.7685 181.59 47.228 179.145C50.6875 176.7 50.6409 179.145 49.1974 181.168C47.7538 183.192 51.5678 183.428 54.1935 181.785C56.8193 180.142 61.2161 175.013 62.8475 169.316Z" fill="#C3C8DF"/>
<path d="M64.8301 171.005C64.7432 171.006 64.6586 170.977 64.5897 170.924C45.963 156.733 23.378 152.447 8.44649 153.171C8.39441 153.174 8.34234 153.166 8.29324 153.148C8.24414 153.131 8.19899 153.104 8.16035 153.069C8.12171 153.034 8.09035 152.992 8.06805 152.945C8.04575 152.898 8.03295 152.847 8.03039 152.795C8.02782 152.743 8.03554 152.691 8.0531 152.642C8.07066 152.593 8.09772 152.548 8.13273 152.509C8.16774 152.471 8.21002 152.439 8.25716 152.417C8.30429 152.395 8.35535 152.382 8.40743 152.38C17.1049 151.967 26.6482 153.167 36.0171 155.874C46.8327 158.996 56.6103 163.85 65.0719 170.299C65.1381 170.349 65.1867 170.419 65.2109 170.498C65.2352 170.578 65.2338 170.663 65.2071 170.741C65.1804 170.82 65.1296 170.888 65.062 170.936C64.9943 170.984 64.9132 171.01 64.8301 171.01V171.005Z" fill="#000E89" fill-opacity="0.05"/>
<path d="M21.5101 153.705C21.4347 153.705 21.361 153.683 21.2974 153.643C21.2338 153.603 21.183 153.545 21.1511 153.477C20.6584 152.437 19.1983 147.93 19.4356 145.061C19.4442 144.957 19.4941 144.86 19.5744 144.791C19.6547 144.723 19.7587 144.69 19.8637 144.699C19.9687 144.707 20.066 144.757 20.1342 144.837C20.2023 144.917 20.2358 145.021 20.2272 145.126C20.0124 147.8 21.414 152.171 21.8691 153.138C21.8915 153.185 21.9044 153.236 21.907 153.288C21.9096 153.341 21.9019 153.393 21.8843 153.442C21.8667 153.491 21.8396 153.536 21.8046 153.575C21.7695 153.614 21.7271 153.645 21.6798 153.667C21.6267 153.692 21.5687 153.705 21.5101 153.705ZM13.8115 158.821C13.744 158.821 13.6775 158.804 13.6185 158.771C13.5595 158.738 13.5099 158.691 13.4744 158.633C13.4389 158.576 13.4186 158.51 13.4156 158.443C13.4126 158.376 13.4268 158.309 13.457 158.248C14.0203 157.123 16.4433 153.751 17.8133 152.649C17.8536 152.614 17.9008 152.586 17.9521 152.569C18.0033 152.552 18.0575 152.546 18.1114 152.55C18.1652 152.555 18.2176 152.57 18.2653 152.595C18.313 152.621 18.355 152.655 18.3888 152.698C18.4226 152.74 18.4474 152.788 18.4618 152.84C18.4762 152.892 18.4799 152.946 18.4725 153C18.4652 153.053 18.4471 153.105 18.4192 153.151C18.3914 153.197 18.3544 153.237 18.3105 153.269C17.0367 154.291 14.6903 157.554 14.166 158.602C14.1331 158.668 14.0825 158.723 14.0199 158.762C13.9573 158.8 13.8851 158.821 13.8115 158.821ZM35.8182 156.626C35.7481 156.626 35.6792 156.608 35.6186 156.573C35.5579 156.538 35.5076 156.488 35.4727 156.427C34.8718 155.378 33.0212 152.17 33.4988 146.788C33.5082 146.683 33.559 146.586 33.64 146.519C33.7209 146.451 33.8255 146.418 33.9307 146.428C34.0359 146.437 34.133 146.488 34.2008 146.569C34.2685 146.649 34.3013 146.754 34.292 146.859C33.8819 151.459 35.1632 154.297 36.1622 156.031C36.1881 156.077 36.2048 156.127 36.2113 156.179C36.2178 156.231 36.214 156.283 36.2 156.334C36.1861 156.384 36.1623 156.431 36.13 156.473C36.0977 156.514 36.0576 156.548 36.012 156.574C35.9528 156.607 35.8861 156.625 35.8182 156.626ZM24.0608 161.759C23.9776 161.759 23.8966 161.733 23.8294 161.684C23.7437 161.623 23.6858 161.53 23.6683 161.427C23.6509 161.323 23.6753 161.217 23.7363 161.131C25.1258 159.191 28.6063 155.186 30.1265 154.463C30.174 154.437 30.2264 154.421 30.2803 154.416C30.3342 154.411 30.3886 154.417 30.4401 154.434C30.4916 154.451 30.5392 154.478 30.5799 154.513C30.6206 154.549 30.6535 154.593 30.6768 154.642C30.7 154.69 30.713 154.743 30.715 154.797C30.717 154.851 30.7079 154.905 30.6883 154.956C30.6687 155.006 30.639 155.052 30.6011 155.09C30.5631 155.129 30.5176 155.159 30.4675 155.18C29.8937 155.453 28.7926 156.446 27.4451 157.907C26.3591 159.079 25.3371 160.31 24.3837 161.593C24.3469 161.644 24.2984 161.686 24.2423 161.715C24.1862 161.744 24.1239 161.759 24.0608 161.759ZM41.9891 165.648C41.916 165.648 41.8444 165.628 41.782 165.59C41.7196 165.552 41.6689 165.498 41.6355 165.433C41.6021 165.368 41.5873 165.295 41.5927 165.223C41.5981 165.15 41.6235 165.08 41.6661 165.021C41.8494 164.763 42.0431 164.483 42.2459 164.188C43.3064 162.64 44.6268 160.716 46.3784 159.707C46.4694 159.66 46.5752 159.649 46.6737 159.678C46.7722 159.707 46.8557 159.773 46.9068 159.861C46.958 159.95 46.9728 160.055 46.9482 160.155C46.9237 160.254 46.8616 160.34 46.7749 160.395C45.1811 161.312 43.9208 163.155 42.9009 164.636C42.6951 164.936 42.4998 165.22 42.3135 165.481C42.2768 165.533 42.2282 165.575 42.1717 165.604C42.1152 165.633 42.0526 165.648 41.9891 165.648ZM52.396 163.18C52.3355 163.181 52.2755 163.168 52.2209 163.142C52.1662 163.116 52.1182 163.078 52.0806 163.03C50.7166 161.254 49.4743 157.156 49.3106 153.886C49.306 153.833 49.3122 153.779 49.3288 153.729C49.3454 153.678 49.3721 153.631 49.4073 153.591C49.4425 153.55 49.4855 153.518 49.5337 153.494C49.5818 153.471 49.6342 153.458 49.6876 153.455C49.7411 153.453 49.7945 153.461 49.8447 153.479C49.895 153.498 49.9409 153.526 49.9799 153.563C50.0189 153.599 50.0501 153.643 50.0716 153.692C50.0931 153.741 50.1046 153.794 50.1052 153.847C50.2554 156.92 51.4572 160.902 52.7115 162.542C52.7567 162.6 52.7845 162.67 52.7918 162.744C52.7991 162.818 52.7856 162.892 52.7527 162.958C52.7199 163.025 52.669 163.08 52.606 163.119C52.5429 163.158 52.4702 163.179 52.396 163.179V163.18Z" fill="#000E89" fill-opacity="0.05"/>
<path d="M237.757 132.679C253.297 128.224 264.152 138.74 266.823 157.554C251.993 158.778 235.001 150.1 237.757 132.679Z" fill="#000E89" fill-opacity="0.1"/>
<path d="M263.408 154.738C263.306 154.737 263.207 154.698 263.133 154.627C259.058 150.749 253.203 146.015 248.035 141.837C243.759 138.379 239.719 135.114 237.482 132.964C237.441 132.929 237.407 132.886 237.383 132.837C237.359 132.788 237.346 132.735 237.343 132.681C237.34 132.627 237.349 132.573 237.368 132.522C237.387 132.471 237.416 132.425 237.454 132.386C237.492 132.347 237.537 132.316 237.587 132.295C237.637 132.274 237.691 132.264 237.745 132.264C237.8 132.265 237.853 132.277 237.903 132.299C237.952 132.321 237.997 132.353 238.034 132.393C240.246 134.519 244.274 137.773 248.537 141.221C253.715 145.408 259.584 150.152 263.682 154.054C263.739 154.109 263.778 154.179 263.795 154.257C263.812 154.334 263.805 154.414 263.775 154.488C263.746 154.561 263.696 154.624 263.63 154.668C263.565 154.713 263.487 154.737 263.408 154.738ZM240.777 126.856C253.616 113.736 270.264 118.034 283.5 135.118C269.543 144.646 247.87 145.61 240.777 126.856Z" fill="#B9C3DB"/>
<path d="M278.317 134.258C278.285 134.257 278.252 134.253 278.221 134.246C272.007 132.699 263.552 131.308 256.091 130.08C249.923 129.065 244.098 128.106 240.68 127.232C240.583 127.202 240.501 127.135 240.452 127.047C240.402 126.958 240.388 126.854 240.413 126.755C240.438 126.657 240.5 126.571 240.586 126.517C240.672 126.463 240.776 126.443 240.876 126.463C244.26 127.32 250.071 128.277 256.22 129.29C263.697 130.519 272.167 131.915 278.413 133.468C278.507 133.491 278.59 133.549 278.644 133.628C278.699 133.708 278.723 133.805 278.711 133.901C278.7 133.998 278.653 134.086 278.58 134.15C278.508 134.215 278.414 134.25 278.317 134.25V134.258Z" fill="white"/>
<path d="M114.27 156.838C127.763 166.075 157.513 189.428 179.907 168.01C192.387 156.075 198.483 152.063 215.115 154.25C231.314 156.382 240.928 152.443 246.486 139.076C253.11 123.15 239.948 117.248 243.411 99.8835C249 71.8411 236.71 54.8466 224.033 50.8142C184.646 38.2913 175.048 20.0346 137.838 38.8864C112.944 51.4993 96.9052 41.7031 72.8646 55.6936C46.5693 70.9972 37.4271 111.332 60.1473 135.716C84.5739 161.933 93.8197 142.837 114.27 156.838Z" fill="#0057FF"/>
<path d="M246.485 139.076C248.375 134.532 248.653 130.804 248.168 127.392C245.832 140.771 230.19 142.949 216.996 142.299C202.726 141.596 193.923 146.465 174.948 166.433C163.884 178.072 147.335 175.086 143.332 173.766C155.369 178.223 168.58 178.85 179.909 168.013C192.389 156.078 198.485 152.066 215.117 154.253C231.313 156.382 240.927 152.443 246.485 139.076Z" fill="#00046A"/>
<g style="mix-blend-mode:screen">
<path d="M178.737 67.4969L179.338 68.7861C179.404 68.9306 179.515 69.0504 179.654 69.128C179.793 69.2056 179.954 69.2371 180.112 69.2178L181.524 69.0484C181.557 69.0425 181.59 69.0475 181.62 69.0629C181.65 69.0782 181.673 69.103 181.687 69.1332C181.701 69.1635 181.705 69.1975 181.697 69.2299C181.689 69.2623 181.671 69.2913 181.645 69.3123L180.594 70.2761C180.477 70.384 180.397 70.5262 180.366 70.6822C180.336 70.8382 180.355 71 180.423 71.1441L181.024 72.4332C181.039 72.4625 181.044 72.4959 181.039 72.5285C181.033 72.561 181.017 72.5907 180.992 72.6131C180.968 72.6355 180.937 72.6492 180.904 72.6522C180.871 72.6552 180.838 72.6473 180.81 72.6296L179.568 71.9371C179.429 71.8595 179.269 71.8278 179.111 71.8467C178.953 71.8655 178.806 71.9339 178.689 72.042L177.638 73.0074C177.614 73.0325 177.583 73.0488 177.549 73.0537C177.515 73.0585 177.48 73.0516 177.451 73.0341C177.421 73.0166 177.399 72.9895 177.387 72.9573C177.375 72.9252 177.374 72.89 177.385 72.8575L177.662 71.4649C177.693 71.3088 177.674 71.1468 177.607 71.0024C177.54 70.8579 177.429 70.7385 177.289 70.6614L176.048 69.9703C176.019 69.9555 175.995 69.9316 175.981 69.9021C175.967 69.8726 175.962 69.8392 175.969 69.807C175.975 69.7748 175.992 69.7457 176.017 69.724C176.042 69.7023 176.073 69.6893 176.105 69.687L177.519 69.5191C177.677 69.5008 177.825 69.4329 177.942 69.3252C178.059 69.2174 178.139 69.0753 178.169 68.9195L178.446 67.5254C178.45 67.4918 178.466 67.4606 178.49 67.437C178.515 67.4133 178.546 67.3987 178.58 67.3954C178.614 67.3921 178.648 67.4003 178.676 67.4188C178.705 67.4372 178.726 67.4648 178.737 67.4969Z" fill="#ED9F00"/>
</g>
<g style="mix-blend-mode:screen">
<path d="M175.903 153.331L176.326 154.246C176.374 154.347 176.453 154.431 176.551 154.485C176.649 154.538 176.762 154.56 176.873 154.546L177.875 154.427C177.898 154.425 177.92 154.43 177.94 154.441C177.96 154.452 177.975 154.469 177.985 154.49C177.994 154.51 177.997 154.533 177.993 154.555C177.989 154.577 177.977 154.598 177.961 154.613L177.222 155.297C177.139 155.373 177.083 155.474 177.061 155.584C177.038 155.694 177.052 155.809 177.099 155.911L177.522 156.824C177.532 156.845 177.534 156.868 177.53 156.89C177.525 156.912 177.514 156.932 177.497 156.948C177.481 156.963 177.46 156.973 177.437 156.976C177.415 156.979 177.392 156.974 177.372 156.964L176.493 156.473C176.395 156.419 176.282 156.396 176.17 156.41C176.058 156.423 175.953 156.471 175.87 156.547L175.129 157.23C175.113 157.246 175.092 157.257 175.069 157.26C175.046 157.263 175.023 157.259 175.003 157.247C174.983 157.236 174.967 157.219 174.957 157.198C174.948 157.177 174.946 157.154 174.951 157.132L175.146 156.144C175.168 156.033 175.154 155.919 175.107 155.817C175.06 155.715 174.981 155.63 174.883 155.576L174.003 155.084C173.983 155.073 173.967 155.055 173.958 155.035C173.948 155.014 173.946 154.991 173.95 154.969C173.955 154.947 173.966 154.926 173.983 154.911C174 154.895 174.021 154.886 174.043 154.883L175.044 154.765C175.156 154.751 175.261 154.703 175.343 154.626C175.426 154.55 175.483 154.449 175.505 154.339L175.7 153.352C175.705 153.331 175.717 153.311 175.734 153.297C175.751 153.282 175.772 153.273 175.794 153.27C175.816 153.268 175.839 153.273 175.858 153.284C175.878 153.295 175.893 153.311 175.903 153.331ZM185.12 130.531L185.407 131.152C185.439 131.221 185.492 131.278 185.559 131.315C185.626 131.352 185.702 131.368 185.778 131.359L186.457 131.278C186.472 131.276 186.488 131.279 186.501 131.287C186.514 131.294 186.525 131.306 186.531 131.32C186.538 131.334 186.54 131.349 186.537 131.364C186.534 131.379 186.527 131.393 186.516 131.404L186.014 131.868C185.958 131.92 185.919 131.988 185.904 132.063C185.89 132.138 185.899 132.216 185.931 132.285L186.218 132.904C186.224 132.918 186.226 132.934 186.223 132.949C186.22 132.964 186.212 132.977 186.201 132.988C186.19 132.998 186.175 133.005 186.16 133.007C186.145 133.009 186.13 133.006 186.116 132.999L185.515 132.666C185.449 132.629 185.372 132.613 185.296 132.623C185.22 132.632 185.149 132.665 185.093 132.717L184.596 133.184C184.584 133.195 184.57 133.201 184.555 133.203C184.54 133.205 184.524 133.201 184.511 133.194C184.498 133.187 184.487 133.175 184.48 133.161C184.474 133.148 184.472 133.132 184.474 133.117L184.606 132.447C184.622 132.372 184.613 132.295 184.581 132.225C184.549 132.156 184.496 132.099 184.429 132.062L183.828 131.729C183.814 131.722 183.803 131.71 183.796 131.696C183.79 131.681 183.788 131.665 183.791 131.65C183.794 131.635 183.802 131.62 183.813 131.61C183.825 131.599 183.84 131.593 183.855 131.591L184.534 131.512C184.61 131.502 184.681 131.469 184.737 131.417C184.794 131.365 184.832 131.297 184.847 131.222L184.98 130.552C184.983 130.536 184.99 130.522 185.001 130.511C185.012 130.499 185.027 130.492 185.042 130.489C185.058 130.487 185.074 130.49 185.088 130.497C185.102 130.505 185.113 130.517 185.12 130.531Z" fill="#0057FF"/>
</g>
<g style="mix-blend-mode:screen">
<path d="M77.5754 81.7078L77.8623 82.3284C77.8944 82.3975 77.9476 82.4548 78.0142 82.4919C78.0808 82.5291 78.1575 82.5443 78.2333 82.5353L78.9123 82.4544C78.9275 82.4528 78.9429 82.456 78.9562 82.4636C78.9695 82.4711 78.9801 82.4826 78.9865 82.4965C78.993 82.5103 78.9949 82.5259 78.9921 82.5409C78.9893 82.5559 78.9819 82.5697 78.9709 82.5803L78.4692 83.045C78.4141 83.0976 78.3772 83.1663 78.3637 83.2411C78.3502 83.316 78.3608 83.3932 78.3941 83.4617L78.681 84.0808C78.6872 84.0948 78.6889 84.1104 78.6858 84.1254C78.6827 84.1404 78.6749 84.154 78.6637 84.1644C78.6524 84.1748 78.6382 84.1815 78.623 84.1834C78.6078 84.1853 78.5923 84.1825 78.5788 84.1752L77.978 83.8424C77.9113 83.8052 77.8344 83.7901 77.7586 83.7992C77.6827 83.8084 77.6117 83.8414 77.5559 83.8934L77.0496 84.3611C77.0382 84.3713 77.0239 84.3778 77.0087 84.3795C76.9935 84.3812 76.9781 84.3781 76.9647 84.3707C76.9513 84.3633 76.9405 84.3519 76.934 84.338C76.9274 84.3242 76.9253 84.3087 76.9279 84.2937L77.0601 83.6236C77.0755 83.5489 77.0666 83.4713 77.0347 83.402C77.0029 83.3327 76.9497 83.2754 76.8829 83.2383L76.282 82.9041C76.2687 82.8964 76.2582 82.8848 76.2518 82.8708C76.2455 82.8568 76.2436 82.8412 76.2466 82.8262C76.2496 82.8112 76.2572 82.7974 76.2684 82.7869C76.2796 82.7764 76.2938 82.7697 76.3091 82.7676L76.988 82.6882C77.064 82.6789 77.1351 82.646 77.1912 82.594C77.2473 82.5421 77.2856 82.4738 77.3005 82.3989L77.4342 81.7288C77.4358 81.7125 77.4428 81.6973 77.4541 81.6854C77.4654 81.6736 77.4804 81.6658 77.4966 81.6634C77.5128 81.661 77.5294 81.6641 77.5436 81.6721C77.5579 81.6801 77.5691 81.6927 77.5754 81.7078Z" fill="#ED9F00"/>
</g>
<g style="mix-blend-mode:screen">
<path d="M193.336 47.882L193.623 48.5011C193.655 48.5704 193.708 48.6278 193.775 48.6652C193.841 48.7026 193.918 48.7181 193.994 48.7095L194.674 48.6286C194.69 48.6264 194.706 48.6292 194.719 48.6367C194.733 48.6442 194.744 48.6559 194.75 48.6701C194.757 48.6843 194.758 48.7002 194.755 48.7154C194.752 48.7307 194.743 48.7444 194.732 48.7545L194.23 49.2177C194.174 49.2699 194.136 49.3381 194.122 49.4129C194.107 49.4876 194.116 49.565 194.147 49.6344L194.434 50.255C194.44 50.269 194.442 50.2846 194.439 50.2996C194.436 50.3146 194.428 50.3282 194.417 50.3386C194.406 50.349 194.391 50.3557 194.376 50.3576C194.361 50.3595 194.345 50.3567 194.332 50.3494L193.731 50.0167C193.664 49.9793 193.587 49.964 193.511 49.9729C193.435 49.9818 193.364 50.0144 193.307 50.0661L192.806 50.5293C192.794 50.5396 192.78 50.546 192.765 50.5477C192.75 50.5494 192.734 50.5463 192.721 50.5389C192.707 50.5315 192.697 50.5201 192.69 50.5063C192.684 50.4925 192.681 50.4769 192.684 50.4619L192.818 49.7933C192.832 49.7183 192.823 49.6406 192.791 49.5711C192.759 49.5017 192.706 49.4442 192.639 49.4066L192.038 49.0738C192.025 49.0661 192.014 49.0545 192.008 49.0405C192.002 49.0265 192 49.011 192.003 48.9959C192.006 48.9809 192.013 48.9671 192.025 48.9566C192.036 48.9461 192.05 48.9394 192.065 48.9374L192.746 48.8564C192.821 48.8474 192.892 48.8147 192.948 48.763C193.004 48.7113 193.042 48.6432 193.057 48.5686L193.19 47.8985C193.19 47.8802 193.196 47.8623 193.208 47.8485C193.22 47.8346 193.237 47.8258 193.256 47.8237C193.274 47.8216 193.292 47.8265 193.307 47.8373C193.322 47.8481 193.332 47.864 193.336 47.882Z" fill="#0057FF"/>
</g>
<g style="mix-blend-mode:screen">
<path d="M86.4113 118.338L86.8334 119.253C86.8817 119.354 86.9607 119.437 87.0591 119.491C87.1575 119.545 87.2703 119.566 87.3817 119.552L88.3821 119.432C88.4048 119.43 88.4277 119.434 88.4477 119.445C88.4676 119.456 88.4836 119.473 88.4933 119.494C88.5029 119.514 88.5058 119.538 88.5015 119.56C88.4972 119.582 88.4859 119.603 88.4692 119.618L87.7287 120.302C87.6459 120.378 87.5895 120.479 87.5676 120.589C87.5457 120.7 87.5595 120.814 87.607 120.916L88.0291 121.831C88.0385 121.852 88.0411 121.875 88.0367 121.897C88.0322 121.919 88.0209 121.939 88.0043 121.955C87.9877 121.97 87.9666 121.98 87.9441 121.983C87.9216 121.985 87.8988 121.981 87.8789 121.97L86.9986 121.479C86.9002 121.424 86.7869 121.402 86.675 121.415C86.5631 121.428 86.4582 121.476 86.3752 121.552L85.6362 122.236C85.6198 122.253 85.5982 122.264 85.5749 122.267C85.5516 122.271 85.5277 122.267 85.5069 122.256C85.4861 122.244 85.4696 122.227 85.4598 122.205C85.4501 122.184 85.4477 122.16 85.4529 122.137L85.6497 121.149C85.6716 121.039 85.658 120.924 85.6108 120.822C85.5635 120.72 85.4851 120.636 85.3868 120.581L84.5065 120.091C84.486 120.079 84.4697 120.062 84.46 120.04C84.4503 120.019 84.4478 119.995 84.4529 119.972C84.458 119.95 84.4704 119.929 84.4882 119.914C84.506 119.899 84.5282 119.89 84.5516 119.888L85.5535 119.77C85.6654 119.756 85.7701 119.708 85.8527 119.631C85.9353 119.555 85.9915 119.454 86.0132 119.344L86.21 118.358C86.2158 118.337 86.2278 118.318 86.2446 118.304C86.2614 118.289 86.2821 118.281 86.3039 118.279C86.3257 118.276 86.3477 118.281 86.3669 118.292C86.3861 118.302 86.4016 118.319 86.4113 118.338Z" fill="#ED9F00"/>
</g>
<g style="mix-blend-mode:screen">
<path d="M155.258 47.4055L155.682 48.3184C155.73 48.4193 155.808 48.5026 155.906 48.5564C156.005 48.6102 156.117 48.6318 156.228 48.6182L157.23 48.4983C157.253 48.4954 157.276 48.4999 157.296 48.5111C157.316 48.5224 157.332 48.5397 157.342 48.5606C157.352 48.5815 157.354 48.6049 157.349 48.6274C157.345 48.6499 157.333 48.6703 157.316 48.6856L156.577 49.3692C156.494 49.4452 156.437 49.5457 156.416 49.6559C156.394 49.7661 156.408 49.8804 156.455 49.9823L156.877 50.8967C156.887 50.9173 156.889 50.9403 156.885 50.9625C156.88 50.9847 156.869 51.005 156.852 51.0204C156.836 51.0358 156.815 51.0456 156.792 51.0484C156.77 51.0512 156.747 51.0469 156.727 51.0361L155.847 50.5444C155.748 50.4895 155.635 50.4672 155.523 50.4806C155.411 50.4941 155.306 50.5427 155.223 50.6194L154.483 51.3029C154.466 51.3181 154.445 51.3276 154.422 51.3302C154.4 51.3327 154.377 51.328 154.357 51.3169C154.337 51.3058 154.322 51.2888 154.312 51.2683C154.303 51.2477 154.3 51.2247 154.304 51.2025L154.499 50.2146C154.521 50.1044 154.508 49.9899 154.461 49.8878C154.413 49.7857 154.335 49.7012 154.236 49.6465L153.356 49.1563C153.337 49.1447 153.321 49.1274 153.312 49.1067C153.303 49.0861 153.3 49.063 153.305 49.0408C153.309 49.0186 153.32 48.9983 153.337 48.9828C153.353 48.9672 153.374 48.9572 153.397 48.954L154.397 48.8355C154.509 48.8222 154.614 48.7738 154.697 48.6974C154.78 48.6209 154.836 48.5202 154.858 48.4098L155.054 47.4234C155.059 47.4014 155.071 47.3817 155.088 47.3669C155.105 47.3521 155.127 47.3431 155.149 47.3411C155.172 47.3391 155.194 47.3443 155.214 47.3558C155.233 47.3674 155.249 47.3847 155.258 47.4055Z" fill="#0057FF"/>
</g>
<g style="mix-blend-mode:screen">
<path d="M239.258 122.747L239.68 123.661C239.729 123.762 239.808 123.846 239.906 123.899C240.004 123.953 240.117 123.975 240.229 123.961L241.231 123.841C241.253 123.839 241.276 123.843 241.296 123.855C241.315 123.866 241.331 123.883 241.34 123.903C241.35 123.924 241.353 123.947 241.348 123.969C241.344 123.991 241.333 124.011 241.316 124.027L240.576 124.711C240.493 124.787 240.437 124.888 240.415 124.998C240.393 125.109 240.407 125.223 240.454 125.325L240.878 126.24C240.887 126.26 240.89 126.283 240.885 126.305C240.881 126.328 240.869 126.348 240.853 126.363C240.836 126.379 240.815 126.388 240.793 126.391C240.77 126.394 240.747 126.39 240.727 126.379L239.847 125.887C239.749 125.832 239.636 125.81 239.524 125.824C239.412 125.837 239.308 125.886 239.225 125.962L238.485 126.644C238.468 126.66 238.447 126.671 238.424 126.674C238.402 126.677 238.378 126.672 238.358 126.661C238.338 126.65 238.322 126.633 238.313 126.612C238.303 126.591 238.301 126.568 238.306 126.545L238.501 125.557C238.523 125.447 238.509 125.333 238.462 125.231C238.415 125.129 238.337 125.044 238.238 124.989L237.358 124.499C237.338 124.488 237.321 124.471 237.312 124.45C237.302 124.429 237.299 124.406 237.303 124.383C237.308 124.36 237.32 124.34 237.337 124.324C237.354 124.309 237.376 124.299 237.399 124.297L238.399 124.178C238.511 124.165 238.616 124.117 238.699 124.04C238.782 123.964 238.838 123.863 238.86 123.753L239.055 122.766C239.061 122.745 239.073 122.725 239.09 122.711C239.107 122.696 239.128 122.687 239.15 122.685C239.172 122.683 239.195 122.688 239.214 122.699C239.233 122.71 239.249 122.727 239.258 122.747Z" fill="#ED9F00"/>
</g>
<g style="mix-blend-mode:screen">
<path d="M113.832 93.9414L114.408 95.1856C114.473 95.3256 114.58 95.4414 114.715 95.5163C114.85 95.5912 115.006 95.6213 115.159 95.6024L116.523 95.4405C116.553 95.4387 116.583 95.4461 116.609 95.4616C116.635 95.4771 116.655 95.5 116.668 95.5273C116.681 95.5547 116.685 95.5852 116.68 95.6149C116.675 95.6446 116.661 95.6721 116.64 95.6938L115.632 96.6247C115.52 96.7289 115.443 96.8659 115.413 97.0162C115.384 97.1664 115.402 97.3222 115.467 97.4612L116.042 98.7054C116.054 98.7335 116.056 98.7645 116.049 98.7941C116.043 98.8237 116.027 98.8506 116.005 98.8712C115.983 98.8919 115.955 98.9053 115.924 98.9096C115.894 98.914 115.864 98.9092 115.836 98.8958L114.635 98.2272C114.501 98.1526 114.346 98.1221 114.194 98.1402C114.042 98.1582 113.899 98.2238 113.786 98.3276L112.778 99.2585C112.755 99.2774 112.726 99.2888 112.696 99.2913C112.666 99.2938 112.636 99.2873 112.61 99.2727C112.584 99.258 112.563 99.2358 112.549 99.2089C112.536 99.1821 112.531 99.1518 112.535 99.1221L112.8 97.773C112.83 97.6229 112.812 97.4672 112.748 97.3282C112.684 97.1892 112.577 97.0742 112.443 96.9995L111.241 96.3309C111.216 96.3146 111.196 96.291 111.184 96.2631C111.172 96.2352 111.169 96.2044 111.175 96.1747C111.181 96.145 111.196 96.1178 111.217 96.0967C111.239 96.0756 111.267 96.0616 111.297 96.0566L112.661 95.8947C112.813 95.8764 112.956 95.8104 113.068 95.7062C113.181 95.602 113.258 95.4649 113.287 95.3146L113.555 93.9654C113.563 93.9368 113.58 93.9114 113.604 93.8925C113.627 93.8736 113.655 93.8621 113.685 93.8596C113.715 93.857 113.745 93.8634 113.772 93.878C113.798 93.8926 113.819 93.9147 113.832 93.9414Z" fill="#0057FF"/>
</g>
<path d="M228.51 114.367C226.245 112.108 209.931 100.789 209.515 101.204C209.215 101.504 220.44 117.9 222.704 120.16C224.968 122.419 227.747 121.266 228.681 120.332C229.615 119.398 230.774 116.628 228.51 114.367Z" fill="#70A1FF"/>
<path d="M217.761 109.432C218.622 108.573 226.959 113.49 228.376 114.905C229.056 115.584 229.438 116.505 229.438 117.466C229.438 118.426 229.056 119.347 228.376 120.026C227.695 120.705 226.772 121.087 225.81 121.087C224.848 121.087 223.925 120.705 223.244 120.026C221.826 118.612 217.027 110.165 217.761 109.432Z" fill="#3C7EFF"/>
<path d="M223.898 115.559C224.286 115.173 224.779 114.909 225.316 114.803C225.853 114.696 226.41 114.751 226.916 114.96C227.422 115.169 227.854 115.523 228.158 115.977C228.463 116.432 228.625 116.966 228.625 117.512C228.625 118.059 228.463 118.593 228.158 119.047C227.854 119.502 227.422 119.856 226.916 120.065C226.41 120.274 225.853 120.328 225.316 120.222C224.779 120.115 224.286 119.852 223.898 119.465C223.641 119.209 223.437 118.905 223.298 118.569C223.159 118.234 223.087 117.875 223.087 117.512C223.087 117.149 223.159 116.79 223.298 116.455C223.437 116.12 223.641 115.815 223.898 115.559Z" fill="#E9EDF7"/>
<path d="M149.947 69.3332C147.544 66.9347 130.207 54.905 129.764 55.3472C129.45 55.659 141.373 73.0868 143.779 75.4882C146.186 77.8897 149.136 76.6635 150.13 75.6711C151.125 74.6787 152.354 71.7346 149.947 69.3332Z" fill="#70A1FF"/>
<path d="M138.524 64.0895C139.441 63.1751 148.299 68.4007 149.804 69.9043C150.512 70.6289 150.906 71.6028 150.899 72.615C150.893 73.6272 150.487 74.5961 149.77 75.3118C149.053 76.0275 148.082 76.4324 147.068 76.4388C146.053 76.4451 145.078 76.0524 144.351 75.3458C142.845 73.8422 137.745 64.8735 138.524 64.0895Z" fill="#3C7EFF"/>
<path d="M145.049 70.5985C145.46 70.188 145.984 69.9084 146.555 69.7952C147.125 69.6819 147.717 69.74 148.254 69.9622C148.791 70.1843 149.251 70.5605 149.574 71.0432C149.897 71.5259 150.07 72.0934 150.07 72.6739C150.07 73.2544 149.897 73.8219 149.574 74.3045C149.251 74.7872 148.791 75.1634 148.254 75.3856C147.717 75.6077 147.125 75.6658 146.555 75.5526C145.984 75.4393 145.46 75.1598 145.049 74.7493C144.497 74.1989 144.187 73.4523 144.187 72.6739C144.187 71.8954 144.497 71.1489 145.049 70.5985Z" fill="#E9EDF7"/>
<path d="M128.553 148.837C126.863 147.151 114.693 138.705 114.38 139.017C114.161 139.236 122.533 151.473 124.223 153.159C125.913 154.845 127.978 153.984 128.683 153.288C129.387 152.592 130.243 150.524 128.553 148.837Z" fill="#70A1FF"/>
<path d="M120.533 145.156C121.176 144.514 127.395 148.182 128.453 149.238C128.96 149.744 129.246 150.432 129.246 151.148C129.246 151.865 128.96 152.552 128.453 153.059C127.945 153.565 127.256 153.85 126.538 153.85C125.82 153.85 125.131 153.565 124.624 153.059C123.566 152.003 119.985 145.701 120.533 145.156Z" fill="#3C7EFF"/>
<path d="M126.573 153.245C127.714 153.245 128.639 152.322 128.639 151.183C128.639 150.045 127.714 149.122 126.573 149.122C125.432 149.122 124.508 150.045 124.508 151.183C124.508 152.322 125.432 153.245 126.573 153.245Z" fill="#E9EDF7"/>
<path d="M219.667 145.877C219.66 145.636 219.725 145.399 219.853 145.195C219.981 144.991 220.167 144.829 220.387 144.731C220.607 144.632 220.852 144.601 221.09 144.641C221.328 144.681 221.548 144.791 221.724 144.956C221.899 145.121 222.022 145.335 222.076 145.569C222.129 145.804 222.112 146.05 222.027 146.275C221.941 146.5 221.79 146.694 221.593 146.834C221.397 146.973 221.163 147.051 220.922 147.058C220.598 147.067 220.285 146.948 220.049 146.727C219.814 146.505 219.677 146.199 219.667 145.877ZM227.363 134.24C227.357 134.056 227.407 133.875 227.504 133.72C227.602 133.564 227.743 133.441 227.911 133.366C228.079 133.29 228.265 133.266 228.446 133.297C228.628 133.327 228.796 133.41 228.93 133.536C229.064 133.662 229.157 133.825 229.199 134.004C229.24 134.183 229.227 134.37 229.162 134.541C229.096 134.713 228.982 134.861 228.832 134.968C228.682 135.074 228.504 135.134 228.32 135.139C228.198 135.143 228.076 135.123 227.962 135.08C227.848 135.036 227.743 134.971 227.654 134.888C227.566 134.804 227.494 134.704 227.444 134.593C227.394 134.482 227.366 134.362 227.363 134.24ZM191.523 124.183C191.517 123.999 191.566 123.818 191.664 123.663C191.762 123.507 191.903 123.384 192.071 123.309C192.239 123.233 192.425 123.209 192.606 123.24C192.788 123.27 192.956 123.353 193.09 123.479C193.224 123.605 193.317 123.768 193.359 123.947C193.4 124.126 193.387 124.313 193.322 124.484C193.256 124.656 193.141 124.804 192.992 124.911C192.842 125.017 192.664 125.077 192.48 125.082C192.233 125.089 191.994 124.999 191.815 124.83C191.635 124.662 191.53 124.429 191.523 124.183ZM185.876 115.991C185.869 115.738 185.938 115.489 186.072 115.275C186.207 115.061 186.403 114.891 186.634 114.788C186.865 114.685 187.122 114.652 187.372 114.695C187.622 114.737 187.853 114.852 188.037 115.026C188.222 115.2 188.35 115.424 188.406 115.67C188.463 115.917 188.445 116.175 188.354 116.411C188.264 116.647 188.106 116.851 187.899 116.998C187.692 117.144 187.447 117.226 187.194 117.233C187.025 117.238 186.858 117.21 186.7 117.15C186.543 117.09 186.399 117 186.277 116.885C186.154 116.769 186.056 116.631 185.987 116.478C185.918 116.324 185.881 116.159 185.876 115.991ZM172.539 112.093C172.533 111.91 172.582 111.729 172.68 111.573C172.777 111.417 172.919 111.294 173.087 111.219C173.255 111.143 173.441 111.119 173.623 111.15C173.804 111.18 173.972 111.264 174.106 111.39C174.24 111.516 174.333 111.679 174.374 111.858C174.415 112.037 174.402 112.224 174.337 112.395C174.271 112.567 174.156 112.715 174.006 112.822C173.856 112.928 173.678 112.987 173.494 112.993C173.248 112.999 173.009 112.909 172.83 112.74C172.651 112.571 172.546 112.339 172.539 112.093ZM203.298 129.266C203.291 129.009 203.36 128.755 203.498 128.536C203.635 128.318 203.834 128.146 204.069 128.04C204.305 127.935 204.567 127.902 204.821 127.945C205.076 127.988 205.312 128.105 205.499 128.282C205.687 128.459 205.818 128.687 205.876 128.938C205.933 129.189 205.915 129.452 205.823 129.693C205.731 129.933 205.57 130.141 205.36 130.291C205.149 130.44 204.899 130.524 204.641 130.531C204.295 130.541 203.959 130.413 203.708 130.176C203.456 129.939 203.309 129.611 203.298 129.266ZM202.439 140.875C202.434 140.691 202.483 140.51 202.58 140.354C202.678 140.199 202.819 140.076 202.987 140C203.155 139.925 203.341 139.901 203.523 139.931C203.704 139.962 203.872 140.045 204.006 140.171C204.14 140.297 204.233 140.46 204.275 140.638C204.316 140.817 204.303 141.004 204.238 141.176C204.173 141.348 204.058 141.496 203.908 141.602C203.758 141.709 203.58 141.769 203.396 141.774C203.15 141.781 202.911 141.69 202.731 141.521C202.552 141.353 202.447 141.12 202.439 140.875Z" fill="#FFD03E"/>
<path d="M220.974 146.072L220.824 146.031L203.147 140.989L204.383 129.355L192.311 124.316L192.278 124.264L187.021 116.121L173.404 112.258L173.512 111.877L187.273 115.775L192.576 123.991L204.653 129.032L228.61 134.078L220.974 146.072ZM203.584 140.699L220.798 145.61L227.971 134.348L204.778 129.468L203.584 140.699Z" fill="#FFD03E"/>
<path d="M208.215 28.597C210.807 25.6057 214.231 23.4486 218.051 22.3987C221.872 21.3487 225.919 21.4531 229.681 22.6985C233.442 23.9439 236.749 26.2744 239.183 29.3953C241.617 32.5163 243.07 36.2874 243.356 40.2319C243.642 44.1764 242.75 48.1171 240.792 51.5556C238.834 54.994 235.898 57.7759 232.356 59.5493C228.814 61.3227 224.824 62.008 220.891 61.5187C216.959 61.0293 213.26 59.3871 210.263 56.7998C208.272 55.0822 206.641 52.9902 205.461 50.6433C204.281 48.2964 203.576 45.7405 203.385 43.1216C203.195 40.5027 203.524 37.8721 204.353 35.38C205.181 32.8878 206.494 30.583 208.215 28.597Z" fill="#E9EDF7"/>
<path d="M238.768 28.8878C240.27 30.925 239.945 34.6051 239.945 35.7114C239.945 36.9016 239.429 38.9838 237.939 40.4708C236.448 41.9579 237.939 44.3383 237.939 45.2303C237.939 46.1222 235.454 45.9243 233.773 48.6196C232.092 51.3148 230.049 50.8456 228.648 52.9668C227.246 55.0879 226.04 54.4373 223.627 55.2993C221.693 55.9918 220.45 58.2973 218.454 57.1311C217.601 56.6319 213.797 55.0489 211.169 54.0925C208.54 53.1362 206.244 50.3914 204.212 47.5313C205.078 50.3644 206.564 52.9701 208.562 55.1601C210.56 57.3501 213.021 59.0697 215.767 60.1946C218.513 61.3195 221.475 61.8216 224.438 61.6646C227.402 61.5076 230.294 60.6954 232.905 59.2867C235.516 57.8781 237.781 55.9081 239.536 53.5193C241.29 51.1304 242.491 48.3824 243.052 45.4738C243.612 42.5651 243.518 39.5686 242.776 36.7007C242.034 33.8328 240.663 31.1652 238.762 28.8908L238.768 28.8878Z" fill="#DDE1EB"/>
<path d="M224.767 54.9665L226.941 55.3113L231.578 53.6309L222.985 47.6243C222.985 47.6243 209.015 37.8956 204.288 35.5706C204.189 35.8779 204.099 36.1867 204.015 36.497C208.118 40.0497 220.312 48.9134 222.057 49.9103C224.103 51.0825 226.554 53.2621 224.767 54.9665Z" fill="#000E89" fill-opacity="0.05"/>
<g style="mix-blend-mode:multiply">
<path d="M226.177 28.1474C226.378 27.2479 227.918 26.8207 229.614 27.1985C231.31 27.5762 232.521 28.6166 232.318 29.519C232.115 30.4214 230.577 30.8471 228.881 30.4679C227.185 30.0886 225.974 29.0468 226.177 28.1474ZM222.636 57.9106C222.486 56.9962 223.766 56.0354 225.49 55.7655C227.215 55.4957 228.716 56.0159 228.861 56.9288C229.007 57.8417 227.732 58.8026 226.007 59.0739C224.283 59.3452 222.782 58.8236 222.636 57.9106ZM211.034 31.5472C210.636 30.9371 211.241 29.8398 212.386 29.0948C213.53 28.3497 214.789 28.2418 215.18 28.8504C215.57 29.459 214.972 30.5578 213.828 31.3028C212.683 32.0478 211.43 32.1558 211.034 31.5472ZM231.313 36.6604C232.285 36.1957 233.551 36.8103 234.141 38.047C234.732 39.2837 234.421 40.6508 233.449 41.1155C232.477 41.5802 231.209 40.9581 230.619 39.7289C230.028 38.4997 230.336 37.1251 231.313 36.6604ZM222.524 26.452C222.546 26.0112 223.234 25.686 224.063 25.7264C224.893 25.7669 225.546 26.1566 225.525 26.5974C225.504 27.0381 224.814 27.3634 223.987 27.3229C223.159 27.2824 222.503 26.8942 222.524 26.452ZM216.212 31.063C216.039 30.7392 216.389 30.2145 216.996 29.8892C217.603 29.5639 218.235 29.5624 218.409 29.8892C218.583 30.216 218.232 30.7377 217.625 31.063C217.018 31.3883 216.386 31.3853 216.212 31.063ZM211.885 43.6893C211.519 43.7043 211.197 43.1602 211.169 42.4736C211.14 41.7871 211.414 41.2189 211.782 41.2039C212.15 41.1889 212.468 41.7331 212.498 42.4196C212.528 43.1062 212.252 43.6743 211.885 43.6893Z" fill="#000E89" fill-opacity="0.05"/>
</g>
<g style="mix-blend-mode:multiply">
<path d="M222.236 62.0659C222.279 61.7436 222.805 61.5473 223.41 61.6282C224.016 61.7092 224.473 62.0359 224.429 62.3582C224.385 62.6805 223.86 62.8754 223.254 62.796C222.649 62.7165 222.192 62.3882 222.236 62.0659Z" fill="#E5F3FF"/>
</g>
<g style="mix-blend-mode:multiply">
<path d="M233.901 53.4195C233.551 52.9788 233.938 52.0929 234.764 51.4408C235.591 50.7887 236.545 50.6148 236.893 51.054C237.242 51.4932 236.855 52.3807 236.029 53.0328C235.203 53.6848 234.249 53.8587 233.901 53.4195ZM208.32 49.3227C208.761 48.9749 209.648 49.3616 210.303 50.1861C210.958 51.0106 211.131 51.9609 210.689 52.3102C210.248 52.6595 209.361 52.2712 208.706 51.4468C208.052 50.6223 207.879 49.6704 208.32 49.3227ZM221.248 54.1255C221.237 53.8722 221.618 53.6489 222.095 53.6294C222.573 53.6099 222.971 53.8003 222.981 54.0536C222.992 54.3069 222.612 54.5318 222.134 54.5513C221.657 54.5708 221.263 54.3804 221.248 54.1255ZM235.693 49.8488C235.543 49.7109 235.63 49.3706 235.89 49.0903C236.149 48.81 236.481 48.6916 236.632 48.8295C236.782 48.9674 236.695 49.3077 236.435 49.5895C236.175 49.8713 235.843 49.9882 235.693 49.8488ZM207.371 49.2612C207.18 49.3376 206.911 49.1113 206.77 48.7575C206.629 48.4037 206.664 48.053 206.854 47.9765C207.045 47.9001 207.314 48.1264 207.455 48.4817C207.596 48.837 207.56 49.1862 207.371 49.2612ZM229.687 58.6196C229.593 58.3828 229.875 58.047 230.32 57.8701C230.764 57.6932 231.201 57.7382 231.296 57.9751C231.391 58.2119 231.108 58.5477 230.665 58.7246C230.222 58.9015 229.783 58.8565 229.687 58.6196ZM208.905 31.7075C208.702 31.5366 208.798 31.0884 209.12 30.7077C209.441 30.3269 209.871 30.1575 210.07 30.3284C210.27 30.4993 210.179 30.9475 209.856 31.3283C209.533 31.709 209.109 31.8784 208.905 31.7075ZM224.769 32.5635C224.816 32.3026 225.251 32.1602 225.742 32.2472C226.234 32.3341 226.596 32.6159 226.549 32.8783C226.503 33.1406 226.067 33.2815 225.576 33.1946C225.085 33.1076 224.724 32.8258 224.769 32.5635ZM239.999 41.1784C240.34 41.1949 240.591 41.7241 240.561 42.3611C240.531 42.9982 240.229 43.5019 239.888 43.4854C239.547 43.4689 239.296 42.9398 239.328 42.3027C239.36 41.6656 239.66 41.1619 239.999 41.1784Z" fill="#DDE3F8"/>
</g>
<path d="M260.371 65.7115C261.49 63.9952 254.032 57.0381 242.251 48.3737C242.078 48.8594 241.881 49.3376 241.671 49.8113C248.13 54.8555 251.94 58.6961 251.234 59.7769C250.051 61.5907 236.618 54.9575 221.229 44.9619C205.841 34.9664 194.324 25.3966 195.506 23.5842C196.211 22.5019 201.275 24.4267 208.511 28.2747C208.861 27.8895 209.22 27.5162 209.591 27.1624C196.882 19.9206 187.488 15.9332 186.369 17.6496C184.799 20.057 200.093 32.7673 220.528 46.0382C240.963 59.3092 258.803 68.119 260.371 65.7115Z" fill="#DDE1EB"/>
<path d="M267.777 70.522C269.226 68.3004 258.704 58.7651 242.614 47.2345C242.449 47.8031 242.258 48.3658 242.042 48.9224C251.753 56.1927 257.771 61.928 256.811 63.4001C255.391 65.5752 239.275 57.6153 220.798 45.62C202.322 33.6248 188.502 22.1362 189.926 19.9611C190.886 18.4891 198.577 21.658 209.171 27.5762C209.594 27.152 210.029 26.7472 210.481 26.368C193.403 16.3559 180.408 10.6176 178.96 12.8392C177.076 15.7278 195.43 30.9775 219.955 46.9107C244.481 62.8439 265.893 73.4181 267.777 70.522Z" fill="#D2D7E3"/>
<path d="M93.2318 44.3009C94.3749 45.2603 95.9537 45.0084 96.7393 43.7417L98.0342 41.6536C98.8213 40.3869 99.8803 40.4963 100.39 41.8979L101.229 44.2064C101.738 45.6065 103.23 46.1762 104.546 45.4716L106.715 44.3099C108.031 43.6053 108.893 44.2289 108.632 45.695L108.202 48.1129C107.941 49.5805 108.953 50.8187 110.442 50.8651L112.901 50.9401C114.393 50.9866 114.828 51.9579 113.867 53.0972L112.284 54.98C111.322 56.1207 111.575 57.6947 112.844 58.4802L114.936 59.7769C116.206 60.5624 116.096 61.6192 114.692 62.1274L112.38 62.9653C110.975 63.4735 110.406 64.9635 111.112 66.2752L112.276 68.4398C112.982 69.7514 112.357 70.6134 110.887 70.3526L108.464 69.9238C106.993 69.6645 105.76 70.6733 105.707 72.1589L105.631 74.6128C105.586 76.1028 104.612 76.5361 103.469 75.5767L101.585 73.9967C100.444 73.0373 98.8649 73.2892 98.0777 74.5573L96.7829 76.644C95.9972 77.9107 94.9367 77.8013 94.4275 76.4012L93.5878 74.0926C93.0785 72.691 91.5869 72.1229 90.271 72.8275L88.1019 73.9892C86.7875 74.6938 85.9237 74.0702 86.1851 72.6026L86.6147 70.1847C86.8761 68.7171 85.8637 67.4864 84.3765 67.4339L81.916 67.3575C80.4243 67.311 79.9887 66.3411 80.9501 65.2004L82.5334 63.3206C83.4947 62.1813 83.2424 60.6058 81.9731 59.8218L79.8805 58.5282C78.6112 57.7442 78.7209 56.6859 80.1254 56.1777L82.4387 55.3412C83.8417 54.8331 84.4126 53.343 83.7065 52.0299L82.5424 49.8668C81.8364 48.5536 82.4613 47.6932 83.9304 47.9525L86.3549 48.3737C87.8255 48.6346 89.0587 47.6242 89.1128 46.1402L89.1879 43.6848C89.2345 42.1962 90.2064 41.7615 91.3495 42.7209L93.2318 44.3009Z" fill="#FFD03E"/>
<path d="M84.8266 61.1531C84.4287 58.67 84.7776 56.1249 85.8291 53.8397C86.8806 51.5545 88.5875 49.6318 90.734 48.3146C92.8805 46.9974 95.3702 46.3449 97.8883 46.4397C100.406 46.5345 102.84 47.3722 104.881 48.847C106.922 50.3218 108.479 52.3674 109.355 54.7251C110.231 57.0829 110.386 59.6469 109.802 62.093C109.218 64.5391 107.92 66.7575 106.073 68.4675C104.225 70.1776 101.911 71.3026 99.4231 71.7002C97.7706 71.9643 96.0823 71.901 94.4544 71.5139C92.8265 71.1267 91.2909 70.4234 89.9355 69.4439C88.58 68.4645 87.4312 67.2282 86.5546 65.8056C85.678 64.3831 85.0908 62.8021 84.8266 61.1531Z" fill="#FFEF5A"/>
<path d="M151.511 217.253L152.489 233.025H152.979L153.955 217.253H151.511Z" fill="#0025A8"/>
<path d="M151.511 155.267H153.955V217.253H151.511V155.267Z" fill="#002FD6"/>
<path d="M150.141 187.337H155.325V195.466H150.141V187.337Z" fill="#3C7EFF"/>
<path d="M153.222 187.337H155.325V195.466H153.222V187.337Z" fill="#70A1FF"/>
<path d="M125.561 214.573L121.954 229.961L122.423 230.1L127.902 215.275L125.561 214.573Z" fill="#0025A8"/>
<path d="M125.558 214.567L143.408 155.195L145.749 155.896L127.899 215.268L125.558 214.567Z" fill="#002FD6"/>
<path d="M132.871 185.525L137.837 187.011L135.496 194.797L130.53 193.311L132.871 185.525Z" fill="#3C7EFF"/>
<path d="M135.823 186.407L137.837 187.01L135.496 194.796L133.482 194.193L135.823 186.407Z" fill="#70A1FF"/>
<path d="M179.906 214.573L183.511 229.961L183.044 230.1L177.565 215.275L179.906 214.573Z" fill="#0025A8"/>
<path d="M159.71 155.909L162.051 155.208L179.9 214.581L177.559 215.281L159.71 155.909Z" fill="#002FD6"/>
<path d="M174.949 193.305L169.983 194.791L167.642 187.005L172.608 185.518L174.949 193.305Z" fill="#3C7EFF"/>
<path d="M174.026 193.338L172.007 193.947L169.645 186.143L171.664 185.534L174.026 193.338Z" fill="#70A1FF"/>
<path d="M161.043 135.716H164.167V127.89C164.167 124.865 162.963 121.964 160.82 119.826C158.677 117.687 155.77 116.485 152.739 116.485C149.708 116.485 146.801 117.687 144.658 119.826C142.515 121.964 141.311 124.865 141.311 127.89V135.716H161.043Z" fill="#001166"/>
<path d="M152.734 116.485C151.857 116.485 150.983 116.586 150.129 116.785C152.639 117.372 154.876 118.788 156.478 120.804C158.079 122.82 158.951 125.316 158.951 127.888V135.715H164.167V127.89C164.167 126.392 163.871 124.909 163.297 123.525C162.722 122.141 161.88 120.883 160.818 119.824C159.756 118.765 158.496 117.925 157.109 117.352C155.722 116.779 154.235 116.485 152.734 116.485Z" fill="#00359A"/>
<path d="M146.868 135.716H158.598V142.302H146.868V135.716Z" fill="#002153"/>
<path d="M154.973 135.716H158.598V142.302H154.973V135.716Z" fill="#00359A"/>
<path d="M145.103 143.601H160.363V153.032H145.103V143.601Z" fill="#002153"/>
<path d="M155.648 143.601H160.365V153.032H155.648V143.601Z" fill="#00359A"/>
<path d="M141.305 142.3H152.733H164.162V143.601H141.305V142.3Z" fill="#00147C"/>
<path d="M158.951 142.3H164.162V143.601H158.951V142.3Z" fill="#001166"/>
<path d="M154.122 156.42C155.333 155.657 155.695 154.059 154.931 152.851C154.167 151.642 152.566 151.281 151.355 152.043C150.144 152.806 149.782 154.404 150.546 155.612C151.31 156.821 152.911 157.182 154.122 156.42Z" fill="#E9EDF7"/>
<path d="M152.734 151.668C152.597 151.67 152.461 151.684 152.326 151.708C152.642 151.776 152.935 151.928 153.172 152.148C153.41 152.368 153.583 152.648 153.675 152.958C153.766 153.268 153.772 153.597 153.692 153.911C153.612 154.224 153.449 154.51 153.22 154.738C152.991 154.967 152.705 155.13 152.391 155.21C152.077 155.289 151.747 155.283 151.436 155.192C151.125 155.101 150.845 154.927 150.625 154.69C150.404 154.454 150.252 154.162 150.184 153.846C150.158 153.98 150.144 154.117 150.141 154.253C150.141 154.765 150.293 155.266 150.578 155.691C150.862 156.117 151.267 156.449 151.741 156.645C152.215 156.841 152.736 156.892 153.239 156.793C153.742 156.693 154.204 156.447 154.567 156.085C154.93 155.723 155.177 155.262 155.277 154.76C155.377 154.258 155.326 153.738 155.13 153.265C154.934 152.792 154.601 152.388 154.175 152.104C153.748 151.819 153.247 151.668 152.734 151.668Z" fill="#001E89" fill-opacity="0.2"/>
<path d="M147.343 154.917C147.706 153.534 146.878 152.12 145.493 151.758C144.108 151.395 142.69 152.222 142.327 153.604C141.964 154.987 142.793 156.401 144.178 156.763C145.563 157.126 146.98 156.299 147.343 154.917Z" fill="#E9EDF7"/>
<path d="M144.83 151.668C144.694 151.67 144.558 151.684 144.423 151.708C144.74 151.776 145.032 151.929 145.269 152.149C145.506 152.369 145.68 152.649 145.771 152.959C145.862 153.269 145.868 153.598 145.788 153.911C145.708 154.224 145.545 154.51 145.316 154.739C145.087 154.967 144.8 155.13 144.486 155.209C144.172 155.289 143.843 155.283 143.532 155.192C143.221 155.1 142.941 154.927 142.721 154.69C142.5 154.453 142.348 154.162 142.28 153.846C142.197 154.367 142.276 154.902 142.507 155.377C142.738 155.853 143.109 156.246 143.571 156.504C144.033 156.762 144.563 156.873 145.09 156.821C145.617 156.769 146.115 156.557 146.517 156.214C146.92 155.871 147.207 155.413 147.34 154.901C147.474 154.39 147.447 153.85 147.263 153.355C147.08 152.859 146.748 152.432 146.314 152.13C145.879 151.829 145.363 151.667 144.833 151.668H144.83Z" fill="#001E89" fill-opacity="0.2"/>
<path d="M161.985 156.47C163.207 155.725 163.592 154.132 162.845 152.913C162.098 151.694 160.502 151.31 159.28 152.055C158.059 152.8 157.674 154.393 158.421 155.612C159.168 156.831 160.763 157.215 161.985 156.47Z" fill="#E9EDF7"/>
<path d="M160.635 151.668C160.498 151.67 160.361 151.684 160.226 151.708C160.543 151.776 160.835 151.928 161.073 152.148C161.31 152.368 161.484 152.648 161.575 152.958C161.667 153.268 161.673 153.597 161.593 153.911C161.513 154.224 161.35 154.51 161.121 154.738C160.892 154.967 160.605 155.13 160.291 155.21C159.977 155.289 159.647 155.283 159.337 155.192C159.026 155.101 158.746 154.927 158.525 154.69C158.305 154.454 158.152 154.162 158.084 153.846C158.001 154.367 158.08 154.902 158.311 155.377C158.542 155.853 158.914 156.246 159.376 156.504C159.838 156.762 160.368 156.873 160.895 156.821C161.421 156.769 161.92 156.557 162.322 156.214C162.724 155.871 163.012 155.413 163.145 154.901C163.278 154.39 163.252 153.85 163.068 153.355C162.884 152.859 162.553 152.432 162.118 152.13C161.684 151.829 161.167 151.667 160.638 151.668H160.635Z" fill="#001E89" fill-opacity="0.2"/>
<path d="M219.756 67.7548L159.458 93.6865L163.707 105.358L225.314 83.0209L219.756 67.7548Z" fill="#00359A"/>
<path d="M125.775 111.516L126.575 113.714L128.223 118.239L163.712 105.372L160.511 96.5767L125.775 111.516ZM230.874 98.2871L167.957 117.03L163.707 105.358L225.314 83.021L230.874 98.2871Z" fill="#00359A"/>
<path d="M130.67 124.962L129.871 122.763L128.223 118.239L163.712 105.371L166.914 114.166L130.67 124.962ZM126.575 113.714L97.4094 125.494L98.6682 128.954L128.223 118.239L126.575 113.714Z" fill="#00359A"/>
<path d="M98.6676 128.954L99.9279 132.414L129.871 122.763L128.223 118.239L98.6676 128.954ZM164.625 105.025L168.894 116.749L230.873 98.2871L225.313 83.021L164.625 105.025ZM129.142 117.905L131.609 124.682L166.914 114.166L163.711 105.372L129.142 117.905Z" fill="#002153"/>
<path d="M55.4179 154.702C55.6552 173.889 58.0286 178.431 60.1467 196.061C57.8229 204.326 57.0673 226.66 56.6527 233.387H60.1467C63.5686 224.056 73.7067 201.121 72.8084 154.699L55.4179 154.702Z" fill="#001272"/>
<path d="M55.8395 234.665C56.1322 234.254 56.4035 233.829 56.6522 233.39H60.1462C59.8022 234.375 59.5979 235.216 59.7316 235.709C58.8243 236.063 57.4964 235.164 55.8395 234.665Z" fill="#F8D8D0"/>
<path d="M55.8398 234.665C57.4922 235.158 58.8246 236.057 59.7319 235.714C60.2126 236.062 67.2953 238.604 68.0163 239.096C68.7374 239.587 68.6458 240.38 67.8661 240.38C66.7245 240.38 57.321 239.968 57.321 239.968C57.1302 240.175 56.977 240.38 56.977 240.38H54.8259C54.1844 239.268 54.3587 235.94 55.8398 234.665Z" fill="#002153"/>
<path d="M72.6509 98.3291C72.9408 100.563 74.503 107.163 73.1901 109.548C72.1131 111.504 69.8989 111.834 66.3328 110.624C62.7667 109.414 62.6209 102.949 62.1508 101.083C61.4102 98.1282 72.044 93.6266 72.6509 98.3291Z" fill="#F8D8D0"/>
<path d="M69.5309 110.503C69.7292 111.639 70.3961 113.877 70.3961 113.877C69.9049 114.541 66.7008 115.614 63.1858 113.627C63.4381 111.541 63.2699 106.704 63.2699 106.704L69.5309 110.503Z" fill="#F8D8D0"/>
<path d="M60.0099 115.902C56.8854 119.019 48.3126 134.355 48.3126 136.769C48.3126 139.182 53.2352 144.971 58.5769 149.035C62.0393 151.668 60.0099 115.902 60.0099 115.902Z" fill="#000696"/>
<path d="M63.1927 113.627C61.0897 114.076 57.2877 117.524 56.0184 126.38C54.7491 135.237 55.4176 154.702 55.4176 154.702H80.1056C80.9843 149.352 80.3039 132.847 78.5028 124.541C77.5369 120.08 75.3077 115.908 71.4907 114.256C68.2039 112.832 63.1927 113.627 63.1927 113.627Z" fill="#0032B4"/>
<path d="M55.4179 154.702C55.6552 173.889 68.5077 183.111 72.1189 195.487C72.1189 209.532 74.7732 230.311 75.0106 233.39H78.5031C80.4018 225.099 87.6948 181.241 80.1059 154.702H55.4179Z" fill="#000F93"/>
<path d="M75.0194 234.665C75.0104 234.086 75.0104 233.39 75.0104 233.39H78.503C78.3723 234.375 78.7794 235.216 78.9131 235.709C78.0042 236.063 76.6763 235.164 75.0194 234.665Z" fill="#F8D8D0"/>
<path d="M75.0199 234.665C76.6723 235.158 78.0047 236.057 78.9135 235.714C79.3942 236.062 86.4754 238.604 87.1979 239.096C87.9204 239.587 87.8258 240.38 87.0477 240.38C85.906 240.38 76.501 239.968 76.501 239.968C76.3117 240.175 76.1555 240.38 76.1555 240.38H74.0074C73.3645 239.268 73.5372 235.94 75.0199 234.665ZM63.1934 95.9486C66.8737 94.2996 71.6896 90.7589 72.2168 91.2176C72.313 91.3001 72.0786 91.5519 72.1928 91.6539C72.3761 91.8202 74.072 89.2659 75.5577 90.2807C77.0433 91.2956 76.1585 96.1569 72.651 98.329C69.1434 100.501 72.4317 102.796 70.8664 104.01C69.3012 105.225 69.4093 109.587 66.7955 109.626C64.1818 109.665 62.6586 111.264 62.7397 109.626C62.8208 107.987 61.3322 104.736 61.4884 101.954C61.6446 99.1715 61.1504 96.866 63.1934 95.9486Z" fill="#002153"/>
<path d="M70.0199 103.132C69.9884 102.477 70.3068 101.933 70.7304 101.909C71.154 101.885 71.5206 102.405 71.5491 103.062C71.5777 103.718 71.2622 104.261 70.8401 104.285C70.418 104.309 70.05 103.789 70.0199 103.132Z" fill="#F8D8D0"/>
<path d="M104.149 128.5C104.798 128.214 105.241 128.341 105.933 127.242C106.626 126.144 106.734 125.647 107.073 125.144C107.413 124.64 108.296 123.045 108.52 123.237C108.744 123.429 107.903 125.385 108.113 125.456C108.323 125.526 112.718 122.299 112.893 123.364C113.067 124.43 112.651 127.205 110.432 128.806C108.948 129.878 107.106 130.122 106.271 130.927C104.694 131.048 103.956 129.87 104.149 128.5Z" fill="#F7D3C9"/>
<path d="M75.7617 138.439C75.7617 140.65 76.5879 149.542 76.0201 154.702H80.1059C80.827 150.317 80.4995 138.443 79.3669 129.728L66.7953 121.987C68.8608 130.927 75.7617 135.968 75.7617 138.439Z" fill="#000696"/>
<path d="M66.1032 120.41C65.1944 118.217 67.2418 114.988 69.6032 114.844C71.9646 114.7 75.1777 115.481 77.6413 119.941C80.5464 125.199 82.8793 128.023 85.6027 131.237C86.8195 132.67 97.4307 130.788 104.724 127.989L107.07 131.257C100.794 135.178 90.0611 139.226 86.4589 139.076C84.9823 139.014 82.5969 138.317 81.3816 137.692C72.1358 132.93 68.0064 125.001 66.1032 120.41Z" fill="#0032B4"/>
<path d="M107.385 131.564C107.385 131.564 104.982 127.709 104.857 127.434C103.903 127.707 102.97 128.049 102.066 128.458C102.407 129.238 104.443 133.32 104.579 133.37C104.993 133.168 107.385 131.564 107.385 131.564Z" fill="#002FD6"/>
<path d="M29.4236 46.9602L24.9667 47.8597C24.7944 47.8934 24.6342 47.9721 24.5023 48.0877C24.3703 48.2033 24.2714 48.3517 24.2156 48.5177L22.7705 52.8215C22.7152 52.9866 22.7042 53.1634 22.7387 53.3341C22.7733 53.5048 22.8521 53.6635 22.9673 53.7943L25.9806 57.1956C26.0964 57.326 26.2445 57.4237 26.4101 57.479C26.5757 57.5342 26.7529 57.5451 26.924 57.5104L31.3809 56.611C31.5532 56.5772 31.7134 56.4986 31.8453 56.383C31.9772 56.2674 32.0761 56.119 32.132 55.9529L33.5771 51.6492C33.6325 51.484 33.6434 51.307 33.6086 51.1363C33.5738 50.9655 33.4945 50.8069 33.3788 50.6763L30.3624 47.275C30.2471 47.1454 30.0997 47.0481 29.935 46.9929C29.7703 46.9377 29.594 46.9264 29.4236 46.9602ZM274.787 90.6301L276.945 86.3968C277.004 86.2805 277.086 86.1769 277.185 86.0921C277.285 86.0073 277.4 85.9429 277.524 85.9025C277.648 85.8621 277.779 85.8466 277.91 85.8568C278.04 85.867 278.167 85.9028 278.284 85.9621L282.526 88.1162C282.761 88.2358 282.939 88.4438 283.021 88.6945C283.103 88.9452 283.082 89.2181 282.963 89.4533L280.803 93.6866C280.683 93.9212 280.475 94.0988 280.224 94.1803C279.973 94.2618 279.7 94.2406 279.464 94.1213L275.222 91.9672C274.987 91.8473 274.809 91.6392 274.727 91.3885C274.646 91.1378 274.667 90.8651 274.787 90.6301Z" fill="#FFD03E"/>
<path d="M131.909 7.43673L132.911 14.4252C132.935 14.5979 133.005 14.761 133.113 14.8982C133.221 15.0354 133.363 15.1419 133.525 15.2068C133.687 15.2717 133.864 15.2928 134.037 15.2679C134.21 15.2431 134.373 15.1732 134.511 15.0653L140.069 10.7046C140.206 10.5976 140.313 10.4562 140.379 10.2947C140.445 10.1333 140.467 9.95738 140.443 9.78476C140.419 9.61215 140.35 9.4489 140.242 9.31144C140.135 9.17398 139.993 9.06716 139.831 9.00172L133.264 6.37392C133.102 6.30891 132.925 6.28768 132.752 6.31236C132.579 6.33705 132.416 6.40678 132.278 6.51454C132.141 6.62229 132.035 6.76427 131.97 6.92616C131.905 7.08806 131.884 7.26416 131.909 7.43673Z" fill="#DDE1EB"/>
<path d="M221.913 240.569L217.079 245.726C216.959 245.853 216.875 246.01 216.835 246.18C216.795 246.35 216.801 246.528 216.852 246.695C216.902 246.863 216.997 247.013 217.125 247.133C217.253 247.252 217.41 247.336 217.58 247.375L224.472 248.974C224.643 249.014 224.82 249.008 224.988 248.957C225.155 248.906 225.306 248.812 225.425 248.685C225.544 248.557 225.628 248.401 225.667 248.231C225.707 248.061 225.701 247.884 225.65 247.717L223.592 240.962C223.542 240.795 223.448 240.644 223.321 240.524C223.193 240.404 223.037 240.32 222.866 240.28C222.696 240.241 222.518 240.246 222.351 240.297C222.183 240.348 222.032 240.442 221.913 240.569Z" fill="#FCBA06"/>
</svg>
