<svg width="399" height="351" viewBox="0 0 399 351" fill="none" xmlns="http://www.w3.org/2000/svg">
	<path d="M158.354 337.919C158.354 334.331 131.667 331.412 98.7451 331.412C65.823 331.412 39.1338 334.325 39.1338 337.919C39.1338 341.513 65.823 344.426 98.7451 344.426C131.667 344.426 158.354 341.513 158.354 337.919ZM307.713 324.677C307.713 320.924 265.965 317.881 214.469 317.881C162.973 317.881 121.228 320.924 121.228 324.677C121.228 328.43 162.973 331.473 214.469 331.473C265.965 331.473 307.713 328.43 307.713 324.677Z" fill="#F0F5F6" />
	<path d="M158.815 9.35627C151.945 9.63276 149.441 3.65766 148.257 0C150.365 0.0738708 158.876 0.873785 158.815 9.35627Z" fill="#DDE7EB" />
	<path d="M197.757 58.7063C197.645 58.7061 197.536 58.6727 197.443 58.6103C197.35 58.5479 197.278 58.4593 197.236 58.356C192.059 45.5552 178.624 25.0254 157.817 9.29517C157.699 9.20589 157.621 9.07345 157.601 8.927C157.581 8.78055 157.62 8.63208 157.709 8.51425C157.799 8.39642 157.931 8.31888 158.078 8.2987C158.225 8.27851 158.374 8.31733 158.492 8.40661C179.485 24.2741 193.044 45.0064 198.275 57.9381C198.31 58.0228 198.323 58.1148 198.313 58.2058C198.304 58.2969 198.272 58.3843 198.221 58.4602C198.17 58.5362 198.101 58.5984 198.02 58.6413C197.939 58.6842 197.848 58.7066 197.757 58.7063ZM195.631 46.5831C195.487 32.7291 205.388 30.2808 212.864 28.1153C212.587 32.3576 212.784 47.2289 195.631 46.5831ZM188.986 35.0803C186.103 24.3353 193.311 20.4602 198.689 17.2859C199.324 20.6354 202.452 32.155 188.986 35.0803ZM179.407 24.2361C174.83 15.838 180.071 11.1504 183.929 7.41885C185.141 10.093 190.066 19.0883 179.407 24.2361ZM169.323 14.5316C165.133 10.3104 167.449 6.60838 169.111 3.71265C170.287 5.10142 174.792 9.61809 169.323 14.5316ZM188.833 49.0841C179.331 41.3699 172.195 46.8448 166.588 50.8042C169.676 52.9465 179.853 61.2496 188.833 49.0841Z" fill="#DDE7EB" />
	<path d="M181.371 36.7097C174.312 28.8667 167.497 32.5708 162.184 35.1985C164.526 37.4315 172.074 45.8718 181.371 36.7097ZM170.39 23.472C164.257 19.6497 160.496 23.3707 157.504 26.0955C159.466 27.1234 166.021 31.239 170.39 23.472ZM162.36 15.0697C159.263 12.2289 156.704 13.9575 154.699 15.2006C155.714 15.9921 159.027 19.0545 162.36 15.0697Z" fill="#DDE7EB" />
	<path d="M71.0128 214.584C73.4303 214.434 86.3318 195.68 82.897 192.984C80.2258 190.874 77.9331 193.666 77.1865 194.74C76.0021 196.429 73.4155 200.696 72.2987 199.622C70.2747 197.678 78.1932 187.735 79.9741 185.194C81.7549 182.653 84.5065 177.241 83.1973 174.075C81.8881 170.91 80.9872 169.772 78.1213 174.39C75.2555 179.008 70.7484 188.812 69.581 185.015C68.4135 181.218 73.6841 174.424 75.2724 169.424C76.8608 164.424 78.1827 154.365 74.4137 155.517C71.0424 156.549 68.5087 171.834 66.2837 170.291C64.505 169.05 66.7744 165.179 68.2591 158.434C69.7438 151.688 71.0763 145.306 67.1424 144.056C63.9804 143.052 63.9445 147.573 63.0964 151.199C62.2483 154.825 60.8777 159.833 59.5009 158.221C58.124 156.608 63.9868 139.251 59.245 136.507C56.1084 134.683 56.0365 138.78 54.814 142.944C53.5916 147.108 52.8492 148.482 52.1068 147.965C51.3645 147.448 52.1068 141.562 52.5912 138.341C53.0755 135.12 52.6821 130.331 49.6894 129.772C46.6967 129.213 46.4471 134.455 46.8045 136.414C47.162 138.373 46.6692 140.39 46.0833 140.492C45.4975 140.593 43.8583 134.206 40.6964 135.566C37.5345 136.925 39.7024 142.87 42.5217 144.835C45.3409 146.8 49.0782 149.552 48.3591 150.578C47.64 151.604 44.3765 149.331 41.8026 147.537C39.2286 145.743 37.7989 145.62 37.3209 146.304C35.724 148.584 37.7227 152.847 39.603 154.147C41.4832 155.447 52.9698 161.431 51.908 162.946C50.8463 164.462 46.7749 161.766 44.698 160.319C42.6211 158.871 37.7819 155.502 36.0032 158.035C34.2245 160.568 39.7912 166.494 43.9176 169.01C48.0439 171.526 55.0382 175.091 54.2176 176.264C53.397 177.438 47.3079 175.519 44.7868 173.761C42.2657 172.003 38.6533 167.596 36.4643 170.724C34.2753 173.852 37.6804 177.17 42.6316 180.62C44.7001 182.064 49.8565 185.58 53.8411 185.783C58.3863 186.011 60.6091 186.868 60.6091 187.925C60.6091 190.036 56.6329 189.297 53.9173 188.136C51.2016 186.975 42.9848 182.841 41.9062 187.324C40.8275 191.807 48.2871 193.444 51.2228 194.403C54.1584 195.361 64.7905 197.826 64.266 200.152C63.7414 202.478 58.4878 199.683 56.7641 198.993C55.0403 198.303 51.0176 198.005 51.3306 199.713C51.6436 201.42 66.7003 214.85 71.0128 214.584Z" fill="#006889" fill-opacity="0.1" />
	<path d="M342.462 174.413C339.992 155.737 354.034 145.044 376.266 145.215C375.122 162.516 362.147 180.6 342.462 174.413Z" fill="#006889" fill-opacity="0.1" />
	<path d="M62.6691 284.059C61.4361 286.56 59.374 288.67 57.8765 287.801C56.451 286.973 57.2019 284.314 58.5449 281.98C56.1676 282.442 53.8559 282.165 53.5492 280.682C52.9465 277.767 61.5418 276.14 63.6166 277.366C66.5925 278.535 68.9253 286.718 66.0489 287.526C64.6805 287.91 63.4601 286.195 62.6691 284.059Z" fill="#C3D8DF" />
	<path d="M63.6167 277.917C63.5235 277.917 63.4318 277.894 63.3502 277.849C63.2855 277.815 63.2284 277.767 63.1821 277.711C63.1357 277.654 63.101 277.588 63.08 277.518C63.059 277.448 63.0521 277.375 63.0596 277.302C63.0671 277.229 63.0889 277.158 63.1239 277.094C64.9978 273.639 74.9171 267.583 85.5979 266.33C85.6708 266.321 85.7446 266.327 85.8153 266.347C85.886 266.367 85.952 266.4 86.0096 266.446C86.0673 266.491 86.1154 266.547 86.1513 266.611C86.1871 266.675 86.21 266.746 86.2186 266.818C86.2272 266.891 86.2214 266.965 86.2014 267.035C86.1815 267.106 86.1478 267.172 86.1024 267.229C86.0569 267.287 86.0005 267.335 85.9365 267.371C85.8724 267.406 85.8019 267.429 85.729 267.438C75.0652 268.704 65.6703 274.753 64.1095 277.63C64.0608 277.717 63.9893 277.79 63.9026 277.841C63.8158 277.891 63.7171 277.918 63.6167 277.917Z" fill="#006889" fill-opacity="0.05" />
	<path d="M64.5094 280.361C64.0546 280.211 63.7416 279.694 63.4984 279.206C63.0754 279.84 62.075 280.473 61.4617 279.913C61.0239 279.519 61.6372 278.734 62.278 278.134C61.9703 278.142 61.663 278.108 61.3644 278.033C58.9575 277.362 62.7412 276.226 63.8114 277.045C64.1772 277.362 64.509 277.715 64.8012 278.101C65.5774 279.061 65.3913 280.661 64.5094 280.361ZM87.9584 238.392C89.7878 232.001 89.0413 214.776 75.0273 210.77C68.6823 208.955 66.912 208.852 64.6638 210.258C63.1981 211.174 62.4282 212.685 60.9266 212.332C58.1771 211.684 60.6051 201.435 50.8655 198.132C41.1259 194.829 37.1688 201.176 34.5483 200.243C31.9278 199.31 32.0505 194.966 27.1458 195.11C22.2411 195.253 22.3024 203.301 16.0145 204.348C9.47707 205.435 -0.964688 209.624 0.0716622 215.829C1.10801 222.035 6.11422 220.935 9.24442 223.894C12.3746 226.853 14.1089 239.128 23.7702 237.52C33.3723 235.922 36.6971 233.932 42.8052 244.458C48.9134 254.983 61.0958 255.673 65.9666 252.231C70.8374 248.789 70.7719 252.231 68.7394 255.08C66.7069 257.93 72.0768 258.261 75.7739 255.948C79.4709 253.634 85.6615 246.414 87.9584 238.392Z" fill="#C3D8DF" />
	<path d="M90.7504 240.77C90.628 240.771 90.5089 240.731 90.412 240.656C64.186 220.675 32.387 214.641 11.3639 215.661C11.2906 215.664 11.2172 215.653 11.1481 215.629C11.079 215.604 11.0154 215.566 10.961 215.517C10.9066 215.468 10.8624 215.408 10.831 215.342C10.7996 215.276 10.7816 215.204 10.778 215.131C10.7744 215.058 10.7853 214.985 10.81 214.916C10.8347 214.847 10.8728 214.783 10.9221 214.729C10.9714 214.675 11.0309 214.63 11.0973 214.599C11.1637 214.568 11.2356 214.55 11.3089 214.546C23.5547 213.966 36.9913 215.654 50.1826 219.466C65.4106 223.862 79.1771 230.697 91.0909 239.776C91.184 239.847 91.2524 239.945 91.2866 240.057C91.3208 240.169 91.3189 240.288 91.2812 240.399C91.2436 240.509 91.1721 240.605 91.0769 240.673C90.9816 240.741 90.8674 240.777 90.7504 240.777V240.77Z" fill="#006889" fill-opacity="0.05" />
	<path d="M29.7558 216.412C29.6497 216.412 29.5458 216.382 29.4563 216.325C29.3668 216.268 29.2953 216.187 29.2503 216.091C28.5566 214.626 26.5008 208.282 26.835 204.242C26.847 204.095 26.9173 203.958 27.0304 203.862C27.1434 203.767 27.2899 203.72 27.4378 203.732C27.5856 203.744 27.7225 203.814 27.8185 203.927C27.9145 204.039 27.9616 204.186 27.9496 204.333C27.6471 208.098 29.6204 214.253 30.2613 215.614C30.2928 215.681 30.3109 215.753 30.3146 215.826C30.3183 215.899 30.3074 215.973 30.2827 216.042C30.2579 216.111 30.2198 216.175 30.1704 216.229C30.121 216.284 30.0613 216.328 29.9948 216.359C29.9199 216.394 29.8384 216.412 29.7558 216.412ZM18.9164 223.615C18.8213 223.615 18.7277 223.591 18.6447 223.545C18.5616 223.499 18.4917 223.432 18.4417 223.351C18.3917 223.27 18.3632 223.178 18.359 223.083C18.3547 222.989 18.3748 222.894 18.4173 222.809C19.2104 221.224 22.6219 216.477 24.5508 214.926C24.6076 214.876 24.6741 214.837 24.7462 214.813C24.8184 214.789 24.8947 214.78 24.9705 214.786C25.0463 214.793 25.12 214.814 25.1872 214.85C25.2543 214.886 25.3135 214.935 25.3611 214.994C25.4086 215.053 25.4436 215.121 25.4639 215.195C25.4842 215.268 25.4893 215.344 25.479 215.42C25.4687 215.495 25.4432 215.567 25.4039 215.632C25.3647 215.697 25.3126 215.754 25.2508 215.798C23.4573 217.237 20.1537 221.832 19.4156 223.307C19.3692 223.4 19.298 223.478 19.2098 223.532C19.1217 223.587 19.0201 223.615 18.9164 223.615ZM49.9012 220.526C49.8025 220.526 49.7056 220.5 49.6201 220.45C49.5347 220.401 49.4639 220.33 49.4147 220.245C48.5687 218.767 45.963 214.251 46.6356 206.674C46.6488 206.526 46.7203 206.389 46.8343 206.294C46.9483 206.199 47.0956 206.153 47.2437 206.166C47.3918 206.179 47.5285 206.251 47.6239 206.364C47.7193 206.478 47.7655 206.625 47.7523 206.773C47.1749 213.25 48.979 217.246 50.3855 219.688C50.422 219.752 50.4456 219.822 50.4547 219.895C50.4639 219.968 50.4584 220.043 50.4388 220.114C50.4191 220.185 50.3856 220.251 50.3402 220.309C50.2948 220.367 50.2383 220.416 50.174 220.452C50.0907 220.499 49.9969 220.524 49.9012 220.526ZM33.3471 227.752C33.23 227.753 33.1159 227.716 33.0214 227.647C32.9007 227.561 32.8191 227.43 32.7945 227.284C32.7699 227.138 32.8044 226.989 32.8902 226.868C34.8466 224.137 39.7471 218.497 41.8874 217.48C41.9544 217.444 42.0281 217.421 42.104 217.414C42.1799 217.407 42.2565 217.415 42.329 217.439C42.4015 217.462 42.4685 217.5 42.5258 217.551C42.5831 217.601 42.6295 217.662 42.6622 217.731C42.6949 217.8 42.7132 217.874 42.716 217.95C42.7188 218.027 42.706 218.102 42.6785 218.173C42.6509 218.244 42.6091 218.309 42.5556 218.363C42.5021 218.417 42.4382 218.46 42.3675 218.489C41.5596 218.873 40.0093 220.272 38.1122 222.328C36.583 223.979 35.1441 225.712 33.8018 227.518C33.75 227.59 33.6817 227.649 33.6027 227.69C33.5236 227.73 33.436 227.752 33.3471 227.752ZM58.5896 233.227C58.4868 233.227 58.3859 233.199 58.2981 233.146C58.2102 233.093 58.1389 233.016 58.0918 232.925C58.0448 232.834 58.024 232.731 58.0315 232.629C58.0391 232.527 58.0749 232.428 58.1349 232.345C58.3929 231.982 58.6657 231.587 58.9512 231.171C60.4444 228.993 62.3035 226.283 64.7696 224.863C64.8978 224.796 65.0468 224.782 65.1854 224.823C65.3241 224.863 65.4417 224.955 65.5137 225.08C65.5857 225.205 65.6066 225.353 65.572 225.493C65.5374 225.633 65.45 225.754 65.328 225.832C63.084 227.123 61.3095 229.717 59.8734 231.802C59.5836 232.225 59.3087 232.626 59.0464 232.993C58.9948 233.066 58.9263 233.125 58.8467 233.166C58.7672 233.207 58.679 233.228 58.5896 233.227ZM73.2423 229.753C73.157 229.754 73.0727 229.736 72.9957 229.699C72.9187 229.662 72.8511 229.609 72.7982 229.542C70.8777 227.041 69.1286 221.271 68.8981 216.667C68.8916 216.593 68.9003 216.517 68.9238 216.446C68.9472 216.374 68.9848 216.308 69.0343 216.251C69.0839 216.195 69.1444 216.149 69.2122 216.116C69.28 216.083 69.3537 216.064 69.429 216.061C69.5042 216.057 69.5795 216.069 69.6502 216.094C69.7209 216.12 69.7856 216.16 69.8405 216.212C69.8954 216.263 69.9393 216.325 69.9696 216.394C69.9999 216.463 70.016 216.537 70.0169 216.613C70.2284 220.939 71.9204 226.545 73.6865 228.854C73.7501 228.937 73.7893 229.035 73.7996 229.139C73.8099 229.243 73.7908 229.347 73.7445 229.441C73.6983 229.534 73.6267 229.613 73.5379 229.668C73.4491 229.722 73.3467 229.751 73.2423 229.751V229.753Z" fill="#006889" fill-opacity="0.05" />
	<path d="M334.227 186.809C356.107 180.536 371.39 195.342 375.15 221.832C354.271 223.554 330.346 211.336 334.227 186.809Z" fill="#006889" fill-opacity="0.1" />
	<path d="M370.342 217.866C370.198 217.866 370.059 217.81 369.955 217.71C364.217 212.25 355.973 205.585 348.698 199.702C342.676 194.833 336.989 190.236 333.84 187.21C333.781 187.16 333.734 187.099 333.7 187.031C333.666 186.962 333.647 186.888 333.643 186.811C333.639 186.735 333.651 186.659 333.678 186.588C333.705 186.516 333.746 186.451 333.799 186.396C333.852 186.341 333.916 186.297 333.987 186.268C334.057 186.238 334.133 186.224 334.21 186.225C334.286 186.226 334.362 186.242 334.432 186.273C334.501 186.304 334.564 186.349 334.616 186.406C337.731 189.398 343.402 193.981 349.404 198.835C356.694 204.73 364.958 211.41 370.727 216.904C370.808 216.981 370.863 217.08 370.887 217.189C370.91 217.298 370.901 217.411 370.859 217.514C370.818 217.617 370.747 217.706 370.655 217.769C370.563 217.832 370.454 217.865 370.342 217.866ZM338.478 178.609C356.555 160.137 379.995 166.188 398.631 190.243C378.98 203.658 348.465 205.015 338.478 178.609Z" fill="#C3D8DF" />
	<path d="M391.334 189.031C391.288 189.031 391.243 189.025 391.199 189.014C382.449 186.836 370.546 184.878 360.04 183.149C351.356 181.72 343.154 180.369 338.343 179.139C338.206 179.096 338.091 179.003 338.021 178.878C337.951 178.753 337.931 178.606 337.966 178.468C338.002 178.329 338.089 178.209 338.21 178.132C338.331 178.056 338.477 178.029 338.618 178.056C343.383 179.263 351.564 180.61 360.222 182.037C370.749 183.767 382.675 185.732 391.469 187.919C391.602 187.952 391.718 188.033 391.795 188.145C391.872 188.257 391.906 188.394 391.889 188.529C391.872 188.665 391.807 188.789 391.705 188.88C391.602 188.97 391.471 189.02 391.334 189.021V189.031Z" fill="white" />
	<path d="M160.359 220.823C179.356 233.829 221.244 266.71 252.774 236.553C270.345 219.749 278.928 214.101 302.345 217.18C325.153 220.181 338.689 214.635 346.515 195.815C355.842 173.392 337.31 165.082 342.186 140.633C350.055 101.15 332.751 77.2224 314.902 71.5449C259.447 53.913 245.932 28.2081 193.541 54.7509C158.491 72.5095 135.91 58.7167 102.061 78.4149C65.0381 99.962 52.1662 156.752 84.1556 191.085C118.548 227.997 131.565 201.11 160.359 220.823Z" fill="#006889" />
	<path d="M346.515 195.815C349.176 189.418 349.567 184.168 348.884 179.365C345.595 198.202 323.571 201.269 304.995 200.353C284.903 199.363 272.509 206.218 245.792 234.333C230.215 250.72 206.914 246.515 201.278 244.658C218.225 250.933 236.827 251.815 252.778 236.558C270.35 219.753 278.932 214.105 302.349 217.185C325.153 220.182 338.689 214.635 346.515 195.815Z" fill="#00516A" />
	<g style="mix-blend-mode:screen">
		<path d="M251.129 95.0337L251.975 96.8488C252.068 97.0523 252.224 97.2209 252.42 97.3301C252.615 97.4394 252.841 97.4837 253.064 97.4566L255.052 97.2181C255.098 97.2097 255.146 97.2169 255.187 97.2385C255.229 97.2601 255.262 97.2949 255.282 97.3375C255.302 97.3801 255.306 97.428 255.296 97.4736C255.285 97.5192 255.26 97.56 255.223 97.5896L253.743 98.9467C253.578 99.0985 253.466 99.2988 253.422 99.5184C253.379 99.7381 253.407 99.9659 253.502 100.169L254.348 101.984C254.369 102.025 254.377 102.072 254.369 102.118C254.361 102.164 254.338 102.206 254.304 102.237C254.269 102.269 254.226 102.288 254.179 102.292C254.133 102.296 254.087 102.285 254.047 102.26L252.298 101.285C252.103 101.176 251.878 101.131 251.655 101.158C251.433 101.184 251.225 101.281 251.061 101.433L249.58 102.792C249.547 102.828 249.503 102.851 249.455 102.857C249.408 102.864 249.359 102.855 249.317 102.83C249.276 102.805 249.244 102.767 249.227 102.722C249.21 102.677 249.21 102.627 249.225 102.581L249.614 100.62C249.658 100.401 249.631 100.173 249.537 99.9692C249.443 99.7658 249.286 99.5977 249.09 99.4891L247.343 98.5161C247.301 98.4953 247.268 98.4615 247.248 98.42C247.228 98.3785 247.222 98.3314 247.231 98.2862C247.24 98.2409 247.264 98.1998 247.298 98.1693C247.333 98.1388 247.377 98.1205 247.423 98.1172L249.413 97.8808C249.636 97.8551 249.844 97.7595 250.009 97.6077C250.174 97.456 250.286 97.256 250.329 97.0366L250.718 95.0738C250.724 95.0264 250.746 94.9825 250.781 94.9492C250.815 94.916 250.86 94.8953 250.907 94.8907C250.955 94.886 251.003 94.8976 251.043 94.9236C251.083 94.9496 251.113 94.9884 251.129 95.0337Z" fill="#ED9F00" />
	</g>
	<g style="mix-blend-mode:screen">
		<path d="M247.138 215.886L247.734 217.174C247.801 217.316 247.912 217.434 248.05 217.51C248.188 217.586 248.347 217.616 248.504 217.596L249.915 217.429C249.946 217.426 249.978 217.433 250.006 217.448C250.034 217.464 250.056 217.488 250.069 217.517C250.082 217.546 250.086 217.578 250.08 217.609C250.074 217.641 250.058 217.669 250.035 217.691L248.994 218.653C248.878 218.761 248.799 218.903 248.768 219.058C248.736 219.213 248.755 219.375 248.821 219.519L249.417 220.804C249.431 220.833 249.434 220.866 249.428 220.897C249.422 220.928 249.406 220.957 249.383 220.978C249.359 221 249.33 221.014 249.298 221.018C249.266 221.022 249.234 221.016 249.206 221L247.969 220.31C247.83 220.233 247.671 220.202 247.513 220.22C247.356 220.239 247.208 220.307 247.091 220.414L246.048 221.376C246.025 221.399 245.995 221.413 245.963 221.417C245.931 221.422 245.899 221.416 245.87 221.4C245.842 221.384 245.82 221.36 245.806 221.331C245.793 221.301 245.79 221.268 245.797 221.237L246.072 219.846C246.102 219.691 246.083 219.53 246.017 219.386C245.95 219.242 245.84 219.123 245.701 219.046L244.462 218.354C244.434 218.338 244.412 218.314 244.399 218.285C244.386 218.256 244.382 218.223 244.388 218.192C244.395 218.16 244.411 218.132 244.434 218.11C244.458 218.088 244.487 218.075 244.519 218.071L245.928 217.904C246.086 217.885 246.233 217.817 246.35 217.71C246.467 217.602 246.546 217.46 246.577 217.305L246.852 215.916C246.859 215.885 246.876 215.858 246.9 215.837C246.923 215.817 246.953 215.804 246.984 215.801C247.016 215.797 247.047 215.804 247.075 215.819C247.102 215.835 247.124 215.858 247.138 215.886ZM260.115 183.784L260.519 184.658C260.564 184.755 260.639 184.836 260.733 184.888C260.827 184.941 260.935 184.962 261.042 184.949L261.998 184.835C262.019 184.833 262.041 184.838 262.059 184.848C262.078 184.859 262.093 184.875 262.102 184.895C262.111 184.914 262.114 184.936 262.11 184.957C262.106 184.978 262.096 184.998 262.08 185.013L261.374 185.667C261.294 185.74 261.24 185.836 261.219 185.941C261.198 186.047 261.212 186.156 261.257 186.254L261.661 187.125C261.67 187.145 261.672 187.167 261.668 187.188C261.664 187.209 261.653 187.228 261.637 187.243C261.621 187.258 261.601 187.267 261.58 187.27C261.558 187.273 261.536 187.269 261.517 187.258L260.671 186.79C260.578 186.737 260.469 186.716 260.363 186.729C260.256 186.742 260.156 186.788 260.077 186.862L259.377 187.52C259.361 187.534 259.341 187.543 259.319 187.546C259.298 187.548 259.276 187.544 259.257 187.533C259.239 187.523 259.223 187.507 259.214 187.488C259.205 187.468 259.202 187.446 259.206 187.425L259.392 186.482C259.413 186.376 259.401 186.267 259.356 186.17C259.311 186.072 259.236 185.991 259.142 185.939L258.296 185.471C258.277 185.46 258.261 185.444 258.251 185.424C258.242 185.404 258.239 185.381 258.243 185.359C258.247 185.338 258.259 185.318 258.275 185.303C258.291 185.288 258.312 185.279 258.334 185.276L259.29 185.165C259.397 185.152 259.497 185.105 259.576 185.032C259.655 184.959 259.709 184.863 259.73 184.757L259.918 183.814C259.922 183.792 259.932 183.771 259.947 183.755C259.963 183.739 259.984 183.729 260.006 183.726C260.028 183.722 260.051 183.726 260.07 183.737C260.09 183.747 260.106 183.764 260.115 183.784Z" fill="#006889" />
	</g>
	<g style="mix-blend-mode:screen">
		<path d="M108.694 115.042L109.098 115.916C109.143 116.013 109.218 116.094 109.311 116.146C109.405 116.198 109.513 116.22 109.62 116.207L110.576 116.093C110.597 116.091 110.619 116.096 110.638 116.106C110.656 116.117 110.671 116.133 110.68 116.153C110.69 116.172 110.692 116.194 110.688 116.215C110.684 116.236 110.674 116.256 110.658 116.271L109.952 116.925C109.875 116.999 109.823 117.096 109.804 117.201C109.785 117.306 109.799 117.415 109.846 117.512L110.25 118.383C110.259 118.403 110.261 118.425 110.257 118.446C110.253 118.467 110.242 118.486 110.226 118.501C110.21 118.516 110.19 118.525 110.169 118.528C110.147 118.53 110.125 118.526 110.106 118.516L109.26 118.048C109.167 117.995 109.058 117.974 108.952 117.987C108.845 118 108.745 118.046 108.666 118.119L107.953 118.778C107.937 118.792 107.917 118.801 107.896 118.804C107.874 118.806 107.853 118.802 107.834 118.791C107.815 118.781 107.8 118.765 107.791 118.745C107.781 118.726 107.778 118.704 107.782 118.683L107.968 117.74C107.99 117.634 107.977 117.525 107.932 117.428C107.888 117.33 107.813 117.249 107.719 117.197L106.873 116.726C106.854 116.716 106.839 116.699 106.83 116.68C106.821 116.66 106.819 116.638 106.823 116.617C106.827 116.596 106.838 116.576 106.853 116.562C106.869 116.547 106.889 116.537 106.911 116.534L107.867 116.423C107.974 116.409 108.074 116.363 108.153 116.29C108.232 116.217 108.286 116.121 108.307 116.015L108.495 115.072C108.497 115.049 108.507 115.027 108.523 115.011C108.539 114.994 108.56 114.983 108.583 114.98C108.606 114.976 108.629 114.981 108.649 114.992C108.669 115.003 108.685 115.021 108.694 115.042Z" fill="#ED9F00" />
	</g>
	<g style="mix-blend-mode:screen">
		<path d="M271.682 67.4165L272.086 68.2882C272.131 68.3857 272.206 68.4665 272.3 68.5192C272.393 68.5719 272.501 68.5937 272.608 68.5816L273.566 68.4676C273.588 68.4645 273.61 68.4685 273.63 68.4791C273.649 68.4896 273.664 68.5061 273.673 68.5261C273.682 68.5461 273.685 68.5685 273.68 68.5899C273.675 68.6114 273.663 68.6306 273.647 68.6449L272.94 69.2971C272.862 69.3706 272.809 69.4667 272.788 69.5719C272.767 69.677 272.78 69.7861 272.824 69.8838L273.228 70.7576C273.237 70.7773 273.239 70.7993 273.235 70.8204C273.23 70.8415 273.219 70.8607 273.204 70.8753C273.188 70.89 273.168 70.8993 273.146 70.9021C273.125 70.9048 273.103 70.9008 273.084 70.8906L272.238 70.422C272.144 70.3695 272.036 70.3479 271.929 70.3604C271.822 70.3729 271.721 70.4188 271.642 70.4917L270.935 71.1438C270.919 71.1582 270.899 71.1673 270.878 71.1697C270.856 71.1721 270.835 71.1678 270.816 71.1573C270.797 71.1469 270.782 71.1308 270.772 71.1114C270.763 71.0919 270.76 71.0701 270.764 71.0489L270.952 70.1075C270.973 70.0019 270.96 69.8925 270.914 69.7947C270.869 69.697 270.794 69.6159 270.701 69.563L269.855 69.0945C269.836 69.0837 269.821 69.0673 269.812 69.0476C269.803 69.028 269.801 69.006 269.805 68.9848C269.809 68.9636 269.82 68.9443 269.835 68.9295C269.851 68.9147 269.871 68.9053 269.893 68.9024L270.851 68.7884C270.957 68.7757 271.057 68.7296 271.136 68.6568C271.214 68.584 271.268 68.4882 271.289 68.3832L271.477 67.4397C271.476 67.4139 271.485 67.3887 271.502 67.3692C271.519 67.3497 271.543 67.3373 271.569 67.3344C271.594 67.3315 271.62 67.3383 271.641 67.3535C271.662 67.3687 271.677 67.3912 271.682 67.4165Z" fill="#006889" />
	</g>
	<g style="mix-blend-mode:screen">
		<path d="M121.136 166.617L121.731 167.904C121.799 168.047 121.91 168.164 122.048 168.24C122.187 168.315 122.346 168.346 122.503 168.326L123.911 168.158C123.943 168.154 123.976 168.16 124.004 168.175C124.032 168.191 124.054 168.215 124.068 168.244C124.081 168.273 124.085 168.306 124.079 168.337C124.073 168.369 124.057 168.397 124.034 168.419L122.991 169.382C122.875 169.489 122.795 169.631 122.765 169.787C122.734 169.942 122.753 170.103 122.82 170.247L123.414 171.534C123.427 171.564 123.431 171.596 123.425 171.627C123.419 171.658 123.403 171.687 123.379 171.709C123.356 171.73 123.326 171.744 123.295 171.748C123.263 171.752 123.231 171.746 123.203 171.731L121.963 171.038C121.825 170.962 121.665 170.93 121.508 170.949C121.35 170.967 121.203 171.035 121.086 171.142L120.045 172.104C120.022 172.128 119.992 172.144 119.959 172.149C119.926 172.154 119.892 172.148 119.863 172.132C119.834 172.117 119.811 172.092 119.797 172.062C119.783 172.031 119.78 171.997 119.787 171.965L120.064 170.574C120.095 170.419 120.076 170.258 120.009 170.114C119.943 169.97 119.832 169.851 119.694 169.774L118.455 169.084C118.426 169.068 118.403 169.044 118.389 169.014C118.375 168.984 118.372 168.95 118.379 168.918C118.386 168.886 118.404 168.857 118.429 168.835C118.454 168.814 118.485 168.801 118.518 168.799L119.929 168.632C120.086 168.614 120.234 168.545 120.35 168.438C120.466 168.33 120.545 168.188 120.576 168.033L120.853 166.644C120.861 166.614 120.878 166.588 120.902 166.568C120.925 166.548 120.954 166.536 120.985 166.533C121.016 166.53 121.047 166.536 121.074 166.551C121.101 166.566 121.123 166.589 121.136 166.617Z" fill="#ED9F00" />
	</g>
	<g style="mix-blend-mode:screen">
		<path d="M218.069 66.7455L218.665 68.0308C218.733 68.1729 218.844 68.2902 218.982 68.366C219.12 68.4417 219.279 68.4722 219.435 68.4529L220.846 68.2841C220.878 68.2801 220.911 68.2865 220.939 68.3023C220.967 68.318 220.99 68.3424 221.003 68.3718C221.017 68.4013 221.02 68.4342 221.014 68.4659C221.007 68.4976 220.991 68.5263 220.967 68.5479L219.926 69.5104C219.809 69.6174 219.73 69.7588 219.699 69.914C219.668 70.0692 219.688 70.2302 219.755 70.3736L220.349 71.661C220.362 71.6901 220.366 71.7225 220.36 71.7537C220.353 71.785 220.337 71.8135 220.314 71.8352C220.291 71.8569 220.261 71.8707 220.229 71.8747C220.198 71.8786 220.165 71.8726 220.137 71.8573L218.898 71.1651C218.759 71.0877 218.6 71.0563 218.442 71.0752C218.284 71.0942 218.137 71.1626 218.02 71.2706L216.978 72.233C216.954 72.2544 216.924 72.2678 216.892 72.2713C216.861 72.2749 216.829 72.2684 216.801 72.2527C216.773 72.2371 216.751 72.2131 216.737 72.1842C216.724 72.1553 216.72 72.1229 216.726 72.0916L217.001 70.7007C217.032 70.5455 217.013 70.3843 216.947 70.2405C216.88 70.0968 216.769 69.9778 216.631 69.9008L215.391 69.2106C215.364 69.1943 215.342 69.17 215.329 69.1408C215.316 69.1117 215.313 69.0793 215.319 69.048C215.325 69.0168 215.341 68.9882 215.364 68.9663C215.387 68.9444 215.417 68.9302 215.448 68.9257L216.857 68.759C217.015 68.7402 217.163 68.6721 217.279 68.5644C217.396 68.4568 217.475 68.3151 217.506 68.1596L217.781 66.7708C217.789 66.7398 217.806 66.712 217.83 66.6912C217.854 66.6704 217.884 66.6577 217.916 66.6549C217.948 66.6521 217.98 66.6593 218.007 66.6756C218.035 66.6918 218.056 66.7163 218.069 66.7455Z" fill="#006889" />
	</g>
	<g style="mix-blend-mode:screen">
		<path d="M336.34 172.824L336.934 174.111C337.002 174.254 337.113 174.371 337.252 174.447C337.39 174.523 337.549 174.553 337.706 174.534L339.117 174.365C339.149 174.361 339.181 174.368 339.208 174.384C339.236 174.399 339.258 174.423 339.271 174.452C339.285 174.481 339.289 174.514 339.282 174.545C339.276 174.576 339.261 174.605 339.237 174.626L338.195 175.589C338.079 175.697 338 175.839 337.969 175.994C337.938 176.149 337.957 176.31 338.023 176.454L338.62 177.742C338.633 177.771 338.637 177.803 338.631 177.834C338.624 177.866 338.608 177.894 338.585 177.916C338.562 177.937 338.532 177.951 338.5 177.955C338.469 177.959 338.436 177.953 338.408 177.938L337.169 177.246C337.031 177.169 336.871 177.137 336.714 177.156C336.557 177.175 336.409 177.243 336.293 177.351L335.251 178.312C335.228 178.334 335.198 178.349 335.166 178.353C335.134 178.357 335.101 178.351 335.073 178.335C335.045 178.32 335.022 178.295 335.009 178.266C334.995 178.237 334.992 178.204 334.999 178.172L335.274 176.781C335.305 176.626 335.286 176.465 335.219 176.321C335.153 176.178 335.042 176.059 334.904 175.981L333.664 175.291C333.636 175.276 333.613 175.252 333.599 175.222C333.585 175.193 333.581 175.16 333.587 175.128C333.594 175.096 333.61 175.067 333.634 175.045C333.659 175.023 333.689 175.01 333.722 175.006L335.13 174.84C335.288 174.821 335.436 174.753 335.552 174.645C335.669 174.537 335.748 174.396 335.779 174.24L336.054 172.851C336.062 172.821 336.079 172.794 336.103 172.773C336.127 172.753 336.156 172.74 336.187 172.737C336.219 172.734 336.25 172.741 336.277 172.757C336.305 172.772 336.327 172.796 336.34 172.824Z" fill="#ED9F00" />
	</g>
	<g style="mix-blend-mode:screen">
		<path d="M159.743 132.267L160.554 134.019C160.645 134.216 160.796 134.379 160.986 134.484C161.176 134.59 161.395 134.632 161.611 134.605L163.531 134.377C163.574 134.375 163.616 134.385 163.652 134.407C163.689 134.429 163.718 134.461 163.736 134.5C163.754 134.538 163.759 134.581 163.752 134.623C163.745 134.665 163.726 134.703 163.696 134.734L162.277 136.045C162.119 136.191 162.011 136.384 161.969 136.596C161.928 136.807 161.954 137.027 162.045 137.222L162.855 138.974C162.871 139.014 162.874 139.057 162.865 139.099C162.855 139.141 162.834 139.179 162.802 139.208C162.771 139.237 162.731 139.256 162.689 139.262C162.647 139.268 162.603 139.261 162.565 139.242L160.873 138.301C160.684 138.196 160.467 138.153 160.252 138.178C160.038 138.204 159.837 138.296 159.678 138.442L158.259 139.753C158.226 139.78 158.186 139.796 158.144 139.799C158.101 139.803 158.059 139.794 158.022 139.773C157.985 139.752 157.955 139.721 157.937 139.683C157.918 139.645 157.911 139.603 157.916 139.561L158.29 137.661C158.333 137.45 158.307 137.231 158.216 137.035C158.126 136.84 157.976 136.677 157.787 136.572L156.095 135.631C156.059 135.608 156.031 135.575 156.014 135.536C155.997 135.496 155.993 135.453 156.001 135.411C156.01 135.369 156.031 135.331 156.061 135.301C156.092 135.272 156.131 135.252 156.173 135.245L158.094 135.017C158.308 134.991 158.509 134.898 158.668 134.751C158.826 134.605 158.934 134.412 158.976 134.2L159.352 132.3C159.364 132.26 159.389 132.224 159.421 132.198C159.454 132.171 159.494 132.155 159.536 132.151C159.579 132.148 159.621 132.157 159.658 132.177C159.695 132.198 159.724 132.229 159.743 132.267Z" fill="#006889" />
	</g>
	<path d="M321.207 161.026C318.018 157.845 295.049 141.908 294.463 142.493C294.04 142.915 309.845 166.001 313.033 169.181C316.22 172.362 320.133 170.739 321.448 169.424C322.764 168.109 324.394 164.209 321.207 161.026Z" fill="#0694C1" />
	<path d="M306.072 154.078C307.284 152.868 319.022 159.791 321.016 161.783C321.974 162.739 322.513 164.036 322.513 165.388C322.513 166.74 321.974 168.037 321.016 168.993C320.058 169.949 318.759 170.486 317.404 170.486C316.049 170.486 314.75 169.949 313.792 168.993C311.795 167.003 305.038 155.11 306.072 154.078Z" fill="#03BDF8" />
	<path d="M314.714 162.704C315.259 162.16 315.954 161.789 316.71 161.639C317.466 161.489 318.25 161.566 318.962 161.86C319.674 162.154 320.283 162.653 320.712 163.293C321.14 163.932 321.369 164.684 321.369 165.454C321.369 166.223 321.14 166.975 320.712 167.615C320.283 168.255 319.674 168.753 318.962 169.048C318.25 169.342 317.466 169.419 316.71 169.269C315.954 169.119 315.259 168.748 314.714 168.204C314.352 167.843 314.065 167.414 313.869 166.942C313.673 166.47 313.572 165.965 313.572 165.454C313.572 164.943 313.673 164.437 313.869 163.965C314.065 163.493 314.352 163.065 314.714 162.704Z" fill="#E9EDF7" />
	<path d="M210.592 97.6192C207.208 94.2423 182.799 77.3048 182.175 77.9274C181.733 78.3664 198.52 102.904 201.908 106.285C205.296 109.667 209.45 107.94 210.85 106.543C212.25 105.146 213.98 101 210.592 97.6192Z" fill="#0694C1" />
	<path d="M194.51 90.2363C195.8 88.9488 208.272 96.3064 210.391 98.4233C211.388 99.4436 211.943 100.815 211.934 102.24C211.925 103.665 211.353 105.029 210.344 106.037C209.334 107.045 207.967 107.615 206.539 107.624C205.11 107.633 203.736 107.08 202.714 106.085C200.593 103.968 193.412 91.3401 194.51 90.2363Z" fill="#03BDF8" />
	<path d="M203.695 99.4006C204.274 98.8227 205.012 98.4291 205.816 98.2696C206.619 98.1101 207.452 98.192 208.208 98.5047C208.965 98.8175 209.612 99.3472 210.067 100.027C210.522 100.706 210.765 101.505 210.765 102.323C210.765 103.14 210.522 103.939 210.067 104.619C209.612 105.298 208.965 105.828 208.208 106.141C207.452 106.453 206.619 106.535 205.816 106.376C205.012 106.216 204.274 105.823 203.695 105.245C202.919 104.47 202.482 103.419 202.482 102.323C202.482 101.227 202.919 100.176 203.695 99.4006Z" fill="#E9EDF7" />
	<path d="M180.471 209.559C178.091 207.184 160.956 195.293 160.516 195.732C160.207 196.04 171.994 213.269 174.373 215.644C176.753 218.018 179.661 216.805 180.653 215.825C181.645 214.846 182.85 211.933 180.471 209.559Z" fill="#0694C1" />
	<path d="M169.178 204.375C170.084 203.472 178.84 208.637 180.329 210.122C181.044 210.836 181.445 211.803 181.445 212.812C181.445 213.821 181.044 214.789 180.329 215.502C179.614 216.216 178.644 216.617 177.633 216.617C176.622 216.617 175.653 216.216 174.938 215.502C173.449 214.017 168.407 205.144 169.178 204.375Z" fill="#03BDF8" />
	<path d="M177.683 215.764C179.289 215.764 180.591 214.465 180.591 212.862C180.591 211.259 179.289 209.96 177.683 209.96C176.077 209.96 174.775 211.259 174.775 212.862C174.775 214.465 176.077 215.764 177.683 215.764Z" fill="#E9EDF7" />
	<path d="M308.756 205.391C308.746 205.052 308.837 204.718 309.018 204.43C309.198 204.143 309.46 203.916 309.77 203.777C310.08 203.638 310.424 203.594 310.759 203.651C311.094 203.707 311.404 203.862 311.651 204.094C311.898 204.327 312.071 204.627 312.147 204.958C312.223 205.288 312.199 205.634 312.078 205.951C311.957 206.267 311.744 206.541 311.468 206.738C311.191 206.934 310.862 207.044 310.522 207.054C310.067 207.067 309.625 206.899 309.294 206.587C308.963 206.275 308.769 205.845 308.756 205.391ZM319.591 189.006C319.583 188.748 319.652 188.493 319.79 188.274C319.927 188.055 320.126 187.881 320.363 187.775C320.599 187.669 320.861 187.635 321.117 187.678C321.372 187.721 321.609 187.838 321.797 188.015C321.986 188.193 322.118 188.422 322.176 188.674C322.234 188.925 322.216 189.189 322.124 189.43C322.032 189.672 321.87 189.881 321.659 190.031C321.448 190.181 321.197 190.265 320.938 190.272C320.767 190.278 320.595 190.249 320.435 190.188C320.274 190.128 320.127 190.036 320.002 189.918C319.876 189.801 319.776 189.659 319.705 189.503C319.635 189.346 319.596 189.178 319.591 189.006ZM269.129 174.846C269.122 174.588 269.191 174.333 269.328 174.114C269.465 173.895 269.665 173.721 269.901 173.615C270.137 173.509 270.399 173.475 270.655 173.518C270.91 173.561 271.147 173.678 271.336 173.855C271.524 174.033 271.656 174.262 271.714 174.514C271.772 174.765 271.754 175.029 271.662 175.27C271.57 175.512 271.408 175.721 271.197 175.871C270.986 176.021 270.736 176.105 270.477 176.112C270.13 176.123 269.793 175.995 269.54 175.758C269.288 175.52 269.14 175.192 269.129 174.846ZM261.179 163.312C261.169 162.956 261.265 162.605 261.455 162.304C261.645 162.002 261.92 161.764 262.246 161.618C262.571 161.473 262.933 161.427 263.285 161.487C263.636 161.546 263.963 161.709 264.222 161.953C264.481 162.198 264.662 162.514 264.741 162.861C264.821 163.208 264.795 163.571 264.668 163.903C264.541 164.236 264.318 164.523 264.027 164.73C263.736 164.936 263.391 165.051 263.034 165.061C262.797 165.068 262.561 165.029 262.339 164.944C262.118 164.86 261.915 164.733 261.743 164.571C261.57 164.408 261.432 164.213 261.335 163.997C261.238 163.781 261.185 163.548 261.179 163.312ZM242.4 157.824C242.392 157.566 242.461 157.311 242.599 157.092C242.736 156.872 242.936 156.699 243.172 156.593C243.408 156.487 243.671 156.453 243.926 156.496C244.182 156.539 244.419 156.657 244.607 156.834C244.795 157.012 244.927 157.241 244.985 157.493C245.043 157.745 245.024 158.008 244.932 158.25C244.84 158.491 244.678 158.7 244.466 158.85C244.255 158.999 244.004 159.083 243.745 159.09C243.399 159.1 243.062 158.972 242.81 158.735C242.558 158.497 242.411 158.17 242.4 157.824ZM285.709 182.003C285.699 181.641 285.796 181.283 285.989 180.976C286.183 180.669 286.463 180.426 286.795 180.277C287.126 180.129 287.494 180.082 287.853 180.143C288.211 180.203 288.543 180.368 288.808 180.617C289.072 180.866 289.256 181.188 289.338 181.541C289.419 181.895 289.393 182.265 289.264 182.604C289.134 182.943 288.907 183.236 288.611 183.446C288.315 183.656 287.963 183.774 287.6 183.784C287.112 183.798 286.639 183.618 286.285 183.284C285.93 182.95 285.723 182.489 285.709 182.003ZM284.499 198.348C284.491 198.089 284.56 197.834 284.698 197.615C284.835 197.396 285.034 197.223 285.271 197.117C285.507 197.011 285.769 196.977 286.024 197.02C286.28 197.062 286.517 197.18 286.705 197.357C286.894 197.534 287.025 197.763 287.084 198.015C287.142 198.267 287.124 198.53 287.032 198.772C286.94 199.013 286.778 199.222 286.567 199.372C286.356 199.522 286.105 199.606 285.846 199.614C285.5 199.624 285.163 199.496 284.911 199.258C284.658 199.021 284.51 198.693 284.499 198.348Z" fill="#FFD03E" />
	<path d="M310.596 205.665L310.384 205.608L285.495 198.508L287.236 182.127L270.24 175.034L270.193 174.96L262.791 163.495L243.618 158.056L243.77 157.52L263.146 163.008L270.612 174.576L287.617 181.674L321.347 188.778L310.596 205.665ZM286.111 198.1L310.349 205.015L320.448 189.158L287.792 182.288L286.111 198.1Z" fill="#FFD03E" />
	<path d="M292.631 40.2637C296.281 36.052 301.101 33.0149 306.48 31.5366C311.86 30.0583 317.558 30.2052 322.854 31.9587C328.15 33.7122 332.806 36.9935 336.234 41.3877C339.661 45.7819 341.705 51.0916 342.108 56.6453C342.512 62.1991 341.255 67.7474 338.499 72.5887C335.742 77.4299 331.608 81.3467 326.621 83.8436C321.633 86.3405 316.016 87.3055 310.479 86.6164C304.942 85.9274 299.734 83.6153 295.514 79.9725C292.712 77.5541 290.414 74.6086 288.753 71.3042C287.092 67.9998 286.099 64.4012 285.831 60.7139C285.563 57.0266 286.026 53.3228 287.193 49.8139C288.36 46.305 290.208 43.0599 292.631 40.2637Z" fill="#E9EDF7" />
	<path d="M335.648 40.6733C337.763 43.5416 337.306 48.7231 337.306 50.2808C337.306 51.9566 336.579 54.8882 334.481 56.9819C332.383 59.0756 334.481 62.4272 334.481 63.683C334.481 64.9389 330.982 64.6603 328.616 68.4551C326.249 72.25 323.373 71.5893 321.399 74.5758C319.426 77.5623 317.728 76.6463 314.331 77.8599C311.607 78.835 309.858 82.0811 307.047 80.4391C305.846 79.7362 300.49 77.5074 296.789 76.1609C293.088 74.8143 289.856 70.9498 286.995 66.9228C288.214 70.9117 290.306 74.5805 293.119 77.664C295.933 80.7474 299.398 83.1686 303.264 84.7524C307.13 86.3362 311.3 87.0432 315.473 86.8221C319.646 86.601 323.718 85.4575 327.394 83.4741C331.07 81.4908 334.259 78.7171 336.729 75.3537C339.2 71.9903 340.891 68.1211 341.68 64.0259C342.469 59.9306 342.336 55.7115 341.292 51.6736C340.247 47.6357 338.317 43.8799 335.64 40.6776L335.648 40.6733Z" fill="#DDE7EB" />
	<path d="M315.937 77.3913L318.997 77.8767L325.526 75.5107L313.428 67.0536C313.428 67.0536 293.759 53.3558 287.103 50.0823C286.963 50.5149 286.836 50.9497 286.718 51.3866C292.496 56.3887 309.663 68.8687 312.121 70.2722C315.002 71.9227 318.453 74.9915 315.937 77.3913Z" fill="#006889" fill-opacity="0.05" />
	<g style="mix-blend-mode:multiply">
		<path d="M317.922 39.6307C318.206 38.3643 320.374 37.7628 322.761 38.2947C325.149 38.8266 326.854 40.2913 326.568 41.5619C326.283 42.8325 324.117 43.4319 321.729 42.8979C319.341 42.3639 317.637 40.897 317.922 39.6307ZM312.937 81.5365C312.726 80.2491 314.528 78.8962 316.956 78.5163C319.384 78.1364 321.497 78.8688 321.702 80.1541C321.907 81.4395 320.111 82.7924 317.683 83.1744C315.255 83.5564 313.142 82.8219 312.937 81.5365ZM296.601 44.4175C296.04 43.5585 296.893 42.0135 298.504 40.9646C300.116 39.9156 301.888 39.7637 302.438 40.6206C302.988 41.4775 302.146 43.0245 300.535 44.0735C298.923 45.1225 297.159 45.2744 296.601 44.4175ZM325.153 51.6168C326.522 50.9625 328.305 51.8278 329.136 53.5691C329.967 55.3103 329.529 57.2352 328.161 57.8894C326.793 58.5437 325.008 57.6678 324.176 55.9371C323.345 54.2065 323.779 52.271 325.153 51.6168ZM312.779 37.2436C312.81 36.6231 313.779 36.1651 314.946 36.2221C316.114 36.2791 317.034 36.8278 317.004 37.4483C316.975 38.0688 316.004 38.5268 314.839 38.4699C313.673 38.4129 312.749 37.8662 312.779 37.2436ZM303.891 43.7358C303.648 43.2799 304.141 42.5412 304.995 42.0832C305.85 41.6252 306.74 41.6231 306.986 42.0832C307.231 42.5433 306.736 43.2778 305.882 43.7358C305.027 44.1938 304.137 44.1896 303.891 43.7358ZM297.8 61.5133C297.284 61.5344 296.831 60.7683 296.791 59.8016C296.751 58.835 297.136 58.0351 297.654 58.014C298.172 57.9929 298.621 58.759 298.663 59.7257C298.705 60.6923 298.316 61.4922 297.8 61.5133Z" fill="#006889" fill-opacity="0.05" />
	</g>
	<g style="mix-blend-mode:multiply">
		<path d="M312.373 87.3871C312.434 86.9333 313.174 86.6568 314.027 86.7708C314.879 86.8847 315.522 87.3449 315.461 87.7986C315.399 88.2524 314.659 88.5268 313.807 88.4149C312.954 88.3031 312.311 87.8409 312.373 87.3871Z" fill="#E5F3FF" />
	</g>
	<g style="mix-blend-mode:multiply">
		<path d="M328.798 75.2132C328.305 74.5927 328.851 73.3454 330.014 72.4273C331.177 71.5092 332.52 71.2643 333.011 71.8827C333.501 72.5011 332.958 73.7506 331.795 74.6687C330.631 75.5868 329.288 75.8317 328.798 75.2132ZM292.781 69.445C293.401 68.9553 294.651 69.4999 295.573 70.6607C296.495 71.8215 296.739 73.1596 296.117 73.6514C295.495 74.1432 294.247 73.5965 293.325 72.4357C292.403 71.2749 292.16 69.9347 292.781 69.445ZM310.983 76.2073C310.968 75.8506 311.503 75.5362 312.176 75.5087C312.848 75.4813 313.409 75.7493 313.424 76.106C313.439 76.4627 312.903 76.7793 312.231 76.8068C311.558 76.8342 311.004 76.5661 310.983 76.2073ZM331.321 70.1858C331.109 69.9916 331.232 69.5125 331.598 69.1178C331.964 68.7232 332.431 68.5564 332.643 68.7506C332.854 68.9448 332.732 69.4239 332.366 69.8207C332 70.2175 331.532 70.3821 331.321 70.1858ZM291.445 69.3585C291.176 69.4661 290.797 69.1474 290.599 68.6493C290.4 68.1512 290.449 67.6573 290.717 67.5497C290.986 67.442 291.364 67.7607 291.563 68.2609C291.762 68.7612 291.711 69.2529 291.445 69.3585ZM322.865 82.5349C322.732 82.2014 323.13 81.7287 323.756 81.4796C324.382 81.2306 324.997 81.2939 325.13 81.6273C325.264 81.9608 324.866 82.4336 324.242 82.6826C323.618 82.9317 323 82.8684 322.865 82.5349ZM293.604 44.6434C293.319 44.4028 293.454 43.7717 293.907 43.2356C294.359 42.6995 294.964 42.461 295.245 42.7016C295.527 42.9422 295.398 43.5733 294.943 44.1094C294.488 44.6455 293.892 44.884 293.604 44.6434ZM315.941 45.8485C316.006 45.4813 316.62 45.2808 317.311 45.4032C318.003 45.5256 318.512 45.9224 318.447 46.2918C318.381 46.6611 317.768 46.8595 317.076 46.7371C316.385 46.6147 315.877 46.2179 315.941 45.8485ZM337.385 57.9781C337.865 58.0013 338.218 58.7464 338.176 59.6434C338.133 60.5404 337.708 61.2496 337.228 61.2263C336.748 61.2031 336.395 60.4581 336.439 59.5611C336.484 58.6641 336.907 57.9549 337.385 57.9781Z" fill="#DDE2F8" />
	</g>
	<path d="M366.066 92.5202C367.642 90.1035 357.141 80.3082 340.553 68.109C340.31 68.7928 340.033 69.4661 339.737 70.1331C348.831 77.2352 354.195 82.6426 353.201 84.1643C351.536 86.7181 332.622 77.3787 310.956 63.3053C289.29 49.2318 273.074 35.7578 274.738 33.2061C275.73 31.6822 282.86 34.3922 293.048 39.8101C293.541 39.2677 294.046 38.7422 294.569 38.2441C276.676 28.0478 263.448 22.4336 261.873 24.8502C259.663 28.2399 281.195 46.1356 309.968 64.8207C338.74 83.5058 363.858 95.9098 366.066 92.5202Z" fill="#DDE7EB" />
	<path d="M376.493 99.293C378.534 96.1651 363.718 82.7396 341.065 66.5049C340.832 67.3055 340.563 68.0977 340.259 68.8814C353.932 79.1178 362.405 87.1929 361.054 89.2655C359.055 92.328 336.363 81.1208 310.349 64.2318C284.334 47.3428 264.876 31.1672 266.881 28.1047C268.233 26.0321 279.061 30.4939 293.978 38.8265C294.573 38.2292 295.186 37.6594 295.823 37.1254C271.777 23.0287 253.48 14.9494 251.442 18.0773C248.789 22.1444 274.63 43.6155 309.162 66.049C343.694 88.4825 373.841 103.371 376.493 99.293Z" fill="#D2DFE3" />
	<path d="M130.739 62.3744C132.348 63.7251 134.571 63.3706 135.677 61.5871L137.5 58.647C138.608 56.8636 140.1 57.0177 140.817 58.9911L141.999 62.2414C142.716 64.2127 144.816 65.0147 146.669 64.0227L149.723 62.387C151.576 61.395 152.79 62.273 152.422 64.3372L151.817 67.7416C151.449 69.8079 152.874 71.5512 154.97 71.6167L158.432 71.7222C160.533 71.7876 161.146 73.1553 159.792 74.7593L157.563 77.4102C156.209 79.0164 156.565 81.2325 158.352 82.3385L161.298 84.1641C163.085 85.2701 162.931 86.7581 160.953 87.4736L157.698 88.6534C155.721 89.3689 154.919 91.4668 155.913 93.3136L157.552 96.3613C158.547 98.208 157.667 99.4216 155.596 99.0544L152.185 98.4508C150.114 98.0856 148.378 99.5061 148.304 101.598L148.196 105.053C148.132 107.151 146.762 107.761 145.152 106.41L142.5 104.185C140.893 102.834 138.67 103.189 137.562 104.975L135.738 107.913C134.632 109.696 133.139 109.542 132.422 107.571L131.24 104.32C130.523 102.347 128.423 101.547 126.57 102.539L123.516 104.175C121.665 105.167 120.449 104.289 120.817 102.222L121.422 98.818C121.79 96.7517 120.364 95.0189 118.271 94.9451L114.806 94.8374C112.706 94.772 112.093 93.4064 113.446 91.8003L115.675 89.1536C117.029 87.5495 116.674 85.3313 114.887 84.2275L111.94 82.406C110.153 81.3022 110.308 79.8121 112.285 79.0966L115.542 77.9189C117.518 77.2034 118.321 75.1055 117.327 73.2566L115.688 70.211C114.694 68.3621 115.574 67.1506 117.642 67.5158L121.056 68.1088C123.127 68.4761 124.863 67.0535 124.939 64.9641L125.045 61.5069C125.111 59.4111 126.479 58.799 128.088 60.1498L130.739 62.3744Z" fill="#FFD03E" />
	<path d="M118.905 86.1018C118.345 82.6057 118.836 79.0223 120.317 75.8048C121.797 72.5873 124.201 69.8801 127.223 68.0255C130.245 66.171 133.75 65.2523 137.296 65.3858C140.841 65.5192 144.267 66.6987 147.141 68.7752C150.014 70.8516 152.207 73.7318 153.44 77.0514C154.673 80.3711 154.893 83.9812 154.07 87.4252C153.248 90.8693 151.421 93.9926 148.819 96.4003C146.218 98.808 142.96 100.392 139.457 100.952C137.13 101.324 134.753 101.235 132.461 100.69C130.169 100.144 128.007 99.1541 126.098 97.7751C124.19 96.3961 122.572 94.6554 121.338 92.6525C120.104 90.6495 119.277 88.4236 118.905 86.1018Z" fill="#FFEF5A" />
	<path d="M212.794 305.886L214.171 328.092H214.86L216.235 305.886H212.794Z" fill="#0080A8" />
	<path d="M212.794 218.611H216.235V305.886H212.794V218.611Z" fill="#00A2D6" />
	<path d="M210.865 263.765H218.164V275.211H210.865V263.765Z" fill="#03BDF8" />
	<path d="M215.203 263.765H218.164V275.211H215.203V263.765Z" fill="#0694C1" />
	<path d="M176.257 302.113L171.179 323.778L171.839 323.974L179.552 303.1L176.257 302.113Z" fill="#0080A8" />
	<path d="M176.254 302.104L201.386 218.51L204.682 219.497L179.55 303.091L176.254 302.104Z" fill="#00A2D6" />
	<path d="M186.55 261.213L193.541 263.306L190.245 274.269L183.254 272.176L186.55 261.213Z" fill="#03BDF8" />
	<path d="M190.706 262.456L193.542 263.305L190.246 274.268L187.41 273.419L190.706 262.456Z" fill="#0694C1" />
	<path d="M252.774 302.113L257.85 323.778L257.192 323.974L249.479 303.1L252.774 302.113Z" fill="#0080A8" />
	<path d="M224.338 219.516L227.634 218.529L252.766 302.123L249.47 303.11L224.338 219.516Z" fill="#00A2D6" />
	<path d="M245.794 272.167L238.803 274.261L235.507 263.297L242.498 261.204L245.794 272.167Z" fill="#03BDF8" />
	<path d="M244.495 272.214L241.653 273.071L238.326 262.083L241.169 261.227L244.495 272.214Z" fill="#0694C1" />
	<path d="M226.214 191.085H230.613V180.065C230.613 175.807 228.918 171.723 225.9 168.711C222.882 165.7 218.79 164.008 214.522 164.008C210.254 164.008 206.162 165.7 203.144 168.711C200.126 171.723 198.431 175.807 198.431 180.065V191.085H226.214Z" fill="#004E66" />
	<path d="M214.516 164.008C213.281 164.008 212.05 164.15 210.848 164.43C214.382 165.256 217.532 167.25 219.787 170.088C222.041 172.926 223.269 176.442 223.27 180.063V191.083H230.613V180.065C230.613 177.956 230.196 175.868 229.387 173.919C228.578 171.971 227.392 170.2 225.898 168.709C224.403 167.218 222.628 166.035 220.675 165.229C218.722 164.422 216.629 164.007 214.516 164.008Z" fill="#003546" />
	<path d="M206.257 191.085H222.773V200.357H206.257V191.085Z" fill="#003F53" />
	<path d="M217.669 191.085H222.773V200.357H217.669V191.085Z" fill="#003546" />
	<path d="M203.771 202.187H225.258V215.464H203.771V202.187Z" fill="#003F53" />
	<path d="M218.619 202.187H225.26V215.464H218.619V202.187Z" fill="#003546" />
	<path d="M198.425 200.355H214.516H230.607V202.187H198.425V200.355Z" fill="#005E7C" />
	<path d="M223.27 200.355H230.606V202.187H223.27V200.355Z" fill="#004E66" />
	<path d="M216.47 220.234C218.175 219.161 218.685 216.911 217.609 215.21C216.533 213.508 214.279 212.999 212.574 214.073C210.869 215.146 210.358 217.396 211.434 219.097C212.51 220.799 214.764 221.308 216.47 220.234Z" fill="#E9EDF7" />
	<path d="M214.516 213.544C214.323 213.548 214.13 213.567 213.94 213.601C214.386 213.697 214.798 213.911 215.132 214.22C215.467 214.53 215.711 214.924 215.84 215.361C215.969 215.797 215.977 216.261 215.865 216.702C215.752 217.143 215.523 217.546 215.2 217.867C214.878 218.189 214.474 218.418 214.032 218.531C213.59 218.643 213.126 218.635 212.688 218.506C212.251 218.377 211.856 218.133 211.546 217.8C211.235 217.466 211.021 217.055 210.924 216.61C210.889 216.8 210.869 216.992 210.865 217.184C210.865 217.905 211.079 218.61 211.479 219.209C211.88 219.808 212.45 220.276 213.117 220.552C213.784 220.828 214.518 220.9 215.227 220.76C215.935 220.619 216.586 220.273 217.096 219.763C217.607 219.254 217.955 218.605 218.096 217.898C218.237 217.191 218.165 216.459 217.889 215.793C217.612 215.127 217.144 214.558 216.544 214.158C215.944 213.757 215.238 213.544 214.516 213.544Z" fill="#006889" fill-opacity="0.2" />
	<path d="M206.927 218.118C207.438 216.172 206.272 214.181 204.322 213.671C202.371 213.16 200.376 214.324 199.865 216.271C199.353 218.217 200.52 220.208 202.47 220.718C204.42 221.228 206.416 220.064 206.927 218.118Z" fill="#E9EDF7" />
	<path d="M203.389 213.544C203.196 213.548 203.005 213.567 202.816 213.601C203.261 213.697 203.673 213.911 204.007 214.221C204.341 214.531 204.585 214.925 204.713 215.362C204.842 215.798 204.85 216.262 204.737 216.702C204.625 217.143 204.395 217.546 204.072 217.868C203.75 218.189 203.346 218.418 202.904 218.53C202.462 218.643 201.998 218.634 201.561 218.505C201.123 218.377 200.729 218.133 200.419 217.799C200.108 217.466 199.894 217.055 199.797 216.61C199.681 217.345 199.792 218.098 200.118 218.767C200.443 219.436 200.966 219.99 201.616 220.353C202.266 220.717 203.013 220.872 203.755 220.799C204.496 220.726 205.198 220.428 205.764 219.945C206.331 219.461 206.735 218.816 206.923 218.097C207.111 217.377 207.073 216.617 206.815 215.919C206.556 215.222 206.09 214.62 205.478 214.195C204.866 213.77 204.138 213.543 203.393 213.544H203.389Z" fill="#006889" fill-opacity="0.2" />
	<path d="M227.54 220.305C229.261 219.256 229.803 217.014 228.751 215.297C227.699 213.58 225.452 213.04 223.732 214.089C222.012 215.139 221.47 217.381 222.522 219.097C223.573 220.814 225.82 221.355 227.54 220.305Z" fill="#E9EDF7" />
	<path d="M225.641 213.544C225.448 213.548 225.255 213.567 225.065 213.601C225.511 213.697 225.923 213.911 226.257 214.22C226.592 214.53 226.836 214.924 226.965 215.361C227.094 215.797 227.102 216.261 226.99 216.702C226.877 217.143 226.648 217.546 226.325 217.867C226.002 218.189 225.599 218.418 225.157 218.531C224.715 218.643 224.251 218.635 223.813 218.506C223.376 218.377 222.981 218.133 222.67 217.8C222.36 217.466 222.146 217.055 222.049 216.61C221.933 217.345 222.044 218.098 222.37 218.767C222.695 219.436 223.218 219.99 223.868 220.353C224.518 220.717 225.265 220.872 226.006 220.799C226.748 220.726 227.45 220.428 228.016 219.945C228.583 219.461 228.987 218.816 229.175 218.097C229.363 217.377 229.325 216.617 229.067 215.919C228.808 215.222 228.342 214.62 227.73 214.195C227.118 213.77 226.39 213.543 225.645 213.544H225.641Z" fill="#006889" fill-opacity="0.2" />
	<path d="M308.881 95.3967L223.982 131.908L229.966 148.341L316.706 116.891L308.881 95.3967Z" fill="#003546" />
	<path d="M176.558 157.011L177.685 160.106L180.005 166.477L229.972 148.36L225.465 135.977L176.558 157.011ZM324.534 138.385L235.949 164.774L229.966 148.341L316.706 116.891L324.534 138.385Z" fill="#003546" />
	<path d="M183.45 175.943L182.325 172.847L180.005 166.477L229.972 148.36L234.481 160.743L183.45 175.943ZM177.685 160.106L136.62 176.693L138.392 181.564L180.005 166.477L177.685 160.106Z" fill="#003546" />
	<path d="M138.393 181.564L140.167 186.435L182.325 172.847L180.005 166.477L138.393 181.564ZM231.258 147.873L237.269 164.38L324.534 138.385L316.706 116.891L231.258 147.873ZM181.3 166.007L184.772 175.549L234.481 160.743L229.972 148.36L181.3 166.007Z" fill="#003F53" />
	<path d="M77.4976 217.816C77.8317 244.831 81.1734 251.226 84.1556 276.049C80.8837 287.685 79.8198 319.13 79.2361 328.603H84.1556C88.9736 315.464 103.248 283.172 101.983 217.811L77.4976 217.816Z" fill="#005672" />
	<path d="M78.0918 330.401C78.5039 329.823 78.8858 329.224 79.236 328.607H84.1555C83.6712 329.994 83.3835 331.178 83.5718 331.872C82.2943 332.37 80.4246 331.104 78.0918 330.401Z" fill="#F8D8D0" />
	<path d="M78.0918 330.401C80.4183 331.095 82.2943 332.362 83.5717 331.878C84.2485 332.368 94.2208 335.948 95.236 336.64C96.2512 337.332 96.1222 338.449 95.0245 338.449C93.4171 338.449 80.1772 337.868 80.1772 337.868C79.9086 338.16 79.6928 338.449 79.6928 338.449H76.6641C75.761 336.883 76.0064 332.197 78.0918 330.401Z" fill="#003F53" />
	<path d="M101.761 138.445C102.169 141.589 104.368 150.882 102.52 154.24C101.003 156.995 97.886 157.459 92.865 155.756C87.844 154.052 87.6388 144.949 86.9768 142.322C85.9341 138.162 100.906 131.824 101.761 138.445Z" fill="#F8D8D0" />
	<path d="M97.3678 155.585C97.647 157.184 98.5861 160.336 98.5861 160.336C97.8945 161.271 93.3832 162.782 88.4341 159.983C88.7894 157.047 88.5525 150.236 88.5525 150.236L97.3678 155.585Z" fill="#F8D8D0" />
	<path d="M83.9632 163.187C79.564 167.575 67.4937 189.168 67.4937 192.566C67.4937 195.965 74.4245 204.116 81.9454 209.837C86.8205 213.544 83.9632 163.187 83.9632 163.187Z" fill="#007296" />
	<path d="M88.4449 159.983C85.4839 160.616 80.1308 165.471 78.3437 177.94C76.5565 190.41 77.4977 217.816 77.4977 217.816H112.258C113.495 210.283 112.537 187.045 110.001 175.35C108.641 169.069 105.502 163.196 100.128 160.87C95.5005 158.865 88.4449 159.983 88.4449 159.983Z" fill="#0088B4" />
	<path d="M77.4976 217.816C77.8317 244.831 95.9277 257.816 101.012 275.241C101.012 295.015 104.749 324.272 105.084 328.607H110.001C112.674 316.933 122.943 255.182 112.258 217.816H77.4976Z" fill="#006F93" />
	<path d="M105.096 330.401C105.083 329.586 105.083 328.607 105.083 328.607H110.001C109.817 329.994 110.39 331.178 110.578 331.872C109.299 332.37 107.429 331.104 105.096 330.401Z" fill="#F8D8D0" />
	<path d="M105.096 330.401C107.423 331.095 109.299 332.362 110.579 331.879C111.255 332.368 121.225 335.948 122.243 336.64C123.26 337.332 123.127 338.449 122.031 338.449C120.424 338.449 107.182 337.868 107.182 337.868C106.915 338.16 106.695 338.449 106.695 338.449H103.671C102.766 336.883 103.009 332.197 105.096 330.401ZM88.445 135.093C93.6268 132.771 100.407 127.786 101.15 128.432C101.285 128.548 100.955 128.903 101.116 129.046C101.374 129.28 103.762 125.684 105.854 127.113C107.945 128.542 106.7 135.386 101.761 138.445C96.8226 141.503 101.452 144.734 99.2485 146.444C97.0446 148.153 97.1969 154.295 93.5168 154.35C89.8367 154.405 87.6921 156.657 87.8063 154.35C87.9205 152.043 85.8246 147.465 86.0445 143.548C86.2645 139.631 85.5686 136.385 88.445 135.093Z" fill="#003F53" />
	<path d="M98.0577 145.207C98.0133 144.284 98.4617 143.518 99.0581 143.485C99.6545 143.451 100.171 144.183 100.211 145.108C100.251 146.032 99.8068 146.796 99.2125 146.83C98.6182 146.864 98.1 146.131 98.0577 145.207Z" fill="#F8D8D0" />
	<path d="M146.108 180.925C147.022 180.521 147.646 180.701 148.621 179.154C149.596 177.607 149.748 176.908 150.226 176.199C150.704 175.49 151.948 173.244 152.263 173.514C152.578 173.784 151.393 176.539 151.69 176.638C151.986 176.737 158.174 172.193 158.419 173.694C158.665 175.194 158.079 179.101 154.955 181.355C152.865 182.864 150.272 183.208 149.097 184.342C146.876 184.513 145.837 182.854 146.108 180.925Z" fill="#F7D3C9" />
	<path d="M106.141 194.918C106.141 198.031 107.304 210.551 106.505 217.816H112.258C113.273 211.642 112.812 194.924 111.217 182.653L93.5166 171.754C96.4247 184.341 106.141 191.439 106.141 194.918Z" fill="#007296" />
	<path d="M92.5416 169.534C91.262 166.446 94.1448 161.899 97.4695 161.697C100.794 161.494 105.318 162.594 108.787 168.873C112.877 176.277 116.162 180.253 119.996 184.778C121.71 186.796 136.65 184.145 146.918 180.205L150.222 184.806C141.385 190.327 126.274 196.026 121.202 195.815C119.123 195.728 115.764 194.747 114.053 193.867C101.035 187.161 95.2213 175.998 92.5416 169.534Z" fill="#0088B4" />
	<path d="M150.666 185.239C150.666 185.239 147.282 179.81 147.106 179.424C145.763 179.808 144.45 180.29 143.177 180.865C143.657 181.963 146.523 187.71 146.715 187.782C147.297 187.497 150.666 185.239 150.666 185.239Z" fill="#00A2D6" />
	<path d="M40.8974 66.1187L34.6222 67.385C34.3796 67.4326 34.154 67.5433 33.9683 67.7061C33.7826 67.8688 33.6433 68.0777 33.5647 68.3116L31.53 74.3711C31.4521 74.6036 31.4367 74.8525 31.4853 75.0929C31.5339 75.3333 31.6449 75.5567 31.8071 75.7409L36.0498 80.5298C36.2128 80.7134 36.4214 80.851 36.6545 80.9287C36.8876 81.0065 37.1371 81.0218 37.378 80.973L43.6532 79.7067C43.8958 79.6591 44.1214 79.5484 44.3071 79.3856C44.4928 79.2229 44.6321 79.014 44.7107 78.7801L46.7453 72.7206C46.8234 72.4879 46.8388 72.2388 46.7897 71.9984C46.7407 71.7579 46.6291 71.5346 46.4662 71.3508L42.2192 66.5619C42.0568 66.3794 41.8493 66.2424 41.6174 66.1647C41.3855 66.0869 41.1373 66.0711 40.8974 66.1187ZM386.361 127.605L389.401 121.644C389.484 121.48 389.599 121.335 389.739 121.215C389.879 121.096 390.041 121.005 390.216 120.948C390.391 120.891 390.575 120.87 390.759 120.884C390.942 120.898 391.121 120.949 391.285 121.032L397.258 124.065C397.59 124.233 397.841 124.526 397.956 124.879C398.071 125.232 398.042 125.617 397.873 125.948L394.832 131.908C394.663 132.238 394.37 132.488 394.017 132.603C393.663 132.718 393.279 132.688 392.948 132.52L386.975 129.487C386.644 129.318 386.393 129.025 386.278 128.672C386.163 128.319 386.193 127.935 386.361 127.605Z" fill="#FFD03E" />
	<path d="M185.196 10.4707L186.606 20.3103C186.641 20.5534 186.739 20.7831 186.891 20.9763C187.043 21.1695 187.243 21.3193 187.471 21.4107C187.7 21.5021 187.948 21.5318 188.192 21.4968C188.435 21.4618 188.665 21.3634 188.859 21.2115L196.684 15.0718C196.878 14.9211 197.029 14.722 197.122 14.4947C197.214 14.2673 197.245 14.0197 197.211 13.7766C197.177 13.5336 197.08 13.3038 196.929 13.1102C196.778 12.9167 196.578 12.7663 196.35 12.6741L187.103 8.97427C186.875 8.88274 186.627 8.85285 186.383 8.88761C186.14 8.92237 185.909 9.02055 185.716 9.17226C185.523 9.32398 185.373 9.52387 185.281 9.75182C185.19 9.97976 185.16 10.2277 185.196 10.4707Z" fill="#DDE7EB" />
	<path d="M311.918 338.715L305.112 345.975C304.943 346.154 304.824 346.375 304.768 346.615C304.712 346.854 304.72 347.104 304.792 347.34C304.864 347.575 304.996 347.788 305.176 347.956C305.357 348.124 305.578 348.241 305.818 348.297L315.522 350.549C315.762 350.604 316.012 350.596 316.247 350.524C316.483 350.453 316.695 350.32 316.863 350.141C317.031 349.962 317.149 349.741 317.205 349.502C317.26 349.263 317.252 349.013 317.18 348.778L314.282 339.268C314.212 339.032 314.08 338.819 313.901 338.651C313.721 338.482 313.5 338.364 313.261 338.308C313.021 338.252 312.77 338.26 312.534 338.331C312.299 338.403 312.086 338.535 311.918 338.715Z" fill="#FCBA06" />
</svg>
