<svg width="2rem" height="2rem" viewBox="0 0 20 20" fill="none" xmlns="http://www.w3.org/2000/svg">
	<path opacity="0.4"
		d="M17.2207 7.73919C16.9038 7.27118 16.3431 7.00376 15.7012 7.00376H12.3696C12.1502 7.00376 11.947 6.91184 11.8089 6.74471C11.6626 6.57757 11.6057 6.34357 11.6382 6.10122L12.0527 3.36017C12.2314 2.5412 11.7032 1.62195 10.9069 1.34617C10.1674 1.06204 9.29797 1.44646 8.94856 1.98965L5.51939 7.2294L5.42188 7.39654V14.784L5.54376 14.9094L8.11971 16.9568C8.461 17.3078 9.23296 17.5 9.7774 17.5H12.9465C14.0354 17.5 15.1324 16.656 15.3762 15.6281L17.3751 9.36878C17.5864 8.77544 17.5295 8.19882 17.2207 7.73919Z"
		fill="currentColor" />
	<path
		d="M3.85842 4.6875H3.02145C1.76193 4.6875 1.25 5.18891 1.25 6.42573V14.8327C1.25 16.0696 1.76193 16.571 3.02145 16.571H3.85842C5.11794 16.571 5.62987 16.0696 5.62987 14.8327V6.42573C5.62987 5.18891 5.11794 4.6875 3.85842 4.6875Z"
		fill="currentColor" />
</svg>