<svg width="2.4rem" height="2.4rem" viewBox="0 0 20 20" fill="none" xmlns="http://www.w3.org/2000/svg">
    <g clip-path="url(#clip0_1816_16127)">
        <path
            d="M13.0455 16.344L10.6183 15.0359C10.5118 14.9784 10.3843 15.0012 10.2943 15.0818C9.73958 15.5778 8.96364 15.7921 8.84895 15.8231L8.78645 15.8371L8.65426 15.8384C8.05833 15.8196 7.83364 15.5021 7.75301 15.3162C7.56426 14.8784 8.03051 14.0403 8.19895 13.7515C8.23895 13.6824 8.25739 13.6103 8.27333 13.5324C8.35708 13.1006 8.81083 12.664 9.71239 12.1418C10.143 11.8924 10.6624 11.7487 11.2555 11.7121C11.3186 11.7092 11.3791 11.6862 11.428 11.6463C11.477 11.6064 11.5118 11.5518 11.5274 11.4906C11.5447 11.4191 11.5444 11.3444 11.5265 11.2731C11.4115 10.8221 10.8349 11.0981 10.6365 11.2087C10.5893 11.2341 10.5358 11.2453 10.4824 11.2409C9.62614 11.1843 8.81895 11.6387 8.81895 11.6387C8.81895 11.6387 6.74645 13.0012 5.29083 13.2899C4.82926 13.3806 4.19051 13.4193 3.53083 13.4281C3.49043 13.4285 3.45186 13.4449 3.42356 13.4737C3.39526 13.5026 3.37955 13.5414 3.37989 13.5818L3.41614 16.8912C3.41632 16.9117 3.42066 16.932 3.42889 16.9508C3.43711 16.9696 3.44907 16.9865 3.46402 17.0005C3.47897 17.0146 3.49661 17.0255 3.51588 17.0325C3.53515 17.0395 3.55565 17.0426 3.57614 17.0415C3.94083 17.0209 4.18364 17.0424 4.23458 17.089C4.25301 17.1059 4.28176 17.1284 4.32426 17.1565C4.56458 17.3234 5.17989 17.6665 5.8652 17.8499C5.91364 17.7706 5.96708 17.6965 6.02864 17.6312V17.6284C6.29708 17.3293 6.67458 17.1709 7.11676 17.1849C7.28204 17.1897 7.44574 17.2186 7.6027 17.2706L7.67208 17.2943L7.7327 17.3393C7.84083 17.4184 7.9327 17.5049 8.0052 17.6015C8.27239 17.4318 8.60083 17.2856 8.92989 17.2959C9.22364 17.3049 9.47895 17.4318 9.66583 17.659C9.78833 17.8074 9.98395 18.1315 9.8777 18.6062C9.86966 18.6423 9.87056 18.6799 9.8803 18.7156C9.89005 18.7513 9.90836 18.7841 9.93364 18.8112C10.0461 18.934 10.1327 19.0856 10.1771 19.2512C10.1843 19.2812 10.1915 19.3109 10.1933 19.3409C10.9286 19.5584 10.8227 18.8128 10.8227 18.8128C10.8227 18.8128 11.1868 19.2481 11.7277 19.0409C12.2468 18.8412 11.8749 18.2249 11.8468 18.1784L12.2402 18.3662C13.2333 18.6215 12.9349 17.5621 12.9349 17.5621C13.7593 17.6096 13.7411 17.2474 13.7149 17.1334L13.0455 16.344Z"
            fill="currentColor" />
        <path
            d="M16.4335 12.97C15.576 12.8143 14.771 12.7081 14.2704 12.7368C14.1597 12.7424 14.049 12.725 13.9454 12.6859C13.3491 12.4659 11.311 11.8115 9.97161 12.5887C9.11129 13.0878 8.84723 13.409 8.78754 13.5959C8.70067 13.8656 8.57411 14.1209 8.42879 14.3618C8.1641 14.7934 7.98817 15.3278 8.71973 15.3265C8.71973 15.3265 9.70004 15.0715 10.1429 14.499C10.2366 14.3778 10.3975 14.3321 10.5322 14.405L13.3775 15.9403L14.3013 17.0328C14.4079 17.1575 14.5907 17.185 14.726 17.0921C15.0689 16.8506 15.4681 16.7012 15.8854 16.6584C15.9262 16.6549 15.9648 16.638 15.995 16.6103C16.0253 16.5826 16.0455 16.5457 16.0525 16.5053L16.5832 13.1812C16.5906 13.1334 16.5792 13.0846 16.5512 13.0452C16.5233 13.0057 16.481 12.9787 16.4335 12.97ZM4.34379 18.0065C4.31442 17.9946 4.2816 18.01 4.27535 18.0421C4.21848 18.3884 4.21285 18.8228 4.51629 18.9646C4.83254 19.1178 5.3041 18.8006 5.62848 18.5246C5.6591 18.4987 5.64442 18.4496 5.6041 18.4428C5.14254 18.3553 4.69473 18.1765 4.34379 18.0065ZM9.25317 19.0421C9.18785 19.0709 9.11786 19.0893 9.04254 19.1128C9.29442 18.8015 9.55848 18.3362 9.27098 17.99C8.79473 17.4162 7.80567 18.4225 7.80567 18.4225C7.76067 18.4596 7.71817 18.4993 7.67848 18.5418C7.74192 18.3546 7.7491 18.1568 7.63973 17.9765C7.53629 17.8062 7.34129 17.7159 7.14223 17.7028C6.83004 17.6825 6.35129 17.7721 6.16254 18.4503C5.87504 19.4915 6.92817 19.4784 7.1241 19.3093C7.18504 19.2571 7.30442 19.1425 7.41973 18.9918C7.3991 19.1612 7.46785 19.3434 7.68567 19.5331C7.99879 19.8081 8.3316 19.7003 8.53098 19.5853C8.53098 19.5853 8.94973 20.1803 9.46723 19.8593C9.98411 19.5412 9.49348 18.9362 9.25317 19.0421ZM19.7163 12.7903L17.5866 12.4506C17.5428 12.4433 17.4981 12.4447 17.4549 12.4549C17.4117 12.465 17.3709 12.4836 17.335 12.5096C17.299 12.5355 17.2686 12.5684 17.2454 12.6062C17.2223 12.6441 17.2068 12.6861 17.2 12.73L16.4641 17.3328C16.457 17.3765 16.4586 17.4212 16.4688 17.4643C16.479 17.5074 16.4977 17.5481 16.5236 17.584C16.5496 17.6199 16.5823 17.6504 16.6201 17.6736C16.6578 17.6968 16.6997 17.7123 16.7435 17.7193L18.8729 18.059C18.9166 18.0663 18.9614 18.0649 19.0046 18.0548C19.0478 18.0446 19.0885 18.026 19.1245 18.0001C19.1604 17.9741 19.1909 17.9412 19.214 17.9034C19.2372 17.8655 19.2526 17.8235 19.2594 17.7796L19.9954 13.1768C20.0025 13.1331 20.0009 13.0884 19.9908 13.0453C19.9806 13.0022 19.962 12.9615 19.9361 12.9256C19.9101 12.8897 19.8774 12.8593 19.8397 12.836C19.802 12.8128 19.76 12.7973 19.7163 12.7903ZM17.9797 17.375C17.9036 17.3727 17.8286 17.3554 17.7591 17.3241C17.6896 17.2928 17.627 17.2482 17.5749 17.1926C17.5227 17.1371 17.482 17.0718 17.4551 17.0005C17.4282 16.9292 17.4157 16.8533 17.4182 16.7771C17.4206 16.7008 17.438 16.6257 17.4694 16.5562C17.5008 16.4866 17.5456 16.4239 17.6013 16.3716C17.6569 16.3193 17.7224 16.2786 17.7938 16.2516C17.8652 16.2246 17.9412 16.2119 18.0175 16.2143C18.0939 16.2167 18.1689 16.2341 18.2385 16.2656C18.3081 16.297 18.3708 16.3418 18.4231 16.3975C18.4753 16.4531 18.5161 16.5185 18.5431 16.5899C18.5701 16.6614 18.5828 16.7374 18.5804 16.8137C18.575 16.9677 18.5087 17.1133 18.3961 17.2185C18.2835 17.3238 18.1338 17.38 17.9797 17.375ZM2.49004 12.4953L0.333792 12.5212C0.289425 12.5215 0.245546 12.5305 0.204693 12.5478C0.16384 12.5651 0.126825 12.5903 0.0957877 12.6221C0.0647506 12.6538 0.040308 12.6913 0.0238736 12.7325C0.00743918 12.7737 -0.000660821 12.8178 4.21299e-05 12.8622L0.0544171 17.5231C0.0556671 17.7081 0.207542 17.8587 0.395042 17.8568L2.55129 17.8309C2.73879 17.829 2.8866 17.6778 2.88504 17.4903L2.83067 12.829C2.83026 12.7847 2.82112 12.741 2.80377 12.7002C2.78643 12.6594 2.76121 12.6225 2.72957 12.5915C2.69793 12.5605 2.66049 12.5361 2.61939 12.5195C2.57829 12.503 2.53433 12.4948 2.49004 12.4953ZM1.55504 17.3081C1.40314 17.3278 1.2496 17.2868 1.12779 17.1939C1.00598 17.101 0.925748 16.9638 0.904541 16.8121C0.883334 16.6605 0.922865 16.5065 1.01454 16.3838C1.10621 16.2611 1.24262 16.1795 1.3941 16.1568C1.54709 16.1358 1.70218 16.1763 1.82541 16.2693C1.94865 16.3624 2.02998 16.5005 2.0516 16.6534C2.06204 16.729 2.05747 16.8059 2.03816 16.8797C2.01885 16.9536 1.98517 17.0229 1.93905 17.0837C1.89293 17.1445 1.83527 17.1956 1.76938 17.2341C1.70349 17.2726 1.63066 17.2978 1.55504 17.3081Z"
            fill="currentColor" />
        <path
            d="M3.52539 12.8078C3.70039 12.8047 3.86914 12.8016 4.02539 12.7953V1.47812C4.02539 1.20625 4.24727 0.984375 4.51914 0.984375H15.2598C15.5348 0.984375 15.7566 1.20625 15.7566 1.47812V12.2266C15.9973 12.2609 16.2598 12.3047 16.5441 12.3578C16.5816 12.3641 16.6191 12.3734 16.6535 12.3891C16.6691 12.3891 16.6816 12.3953 16.6941 12.4016V1.47812C16.6941 0.6875 16.0504 0.046875 15.2598 0.046875H4.51914C4.13955 0.046875 3.77551 0.197667 3.50709 0.466078C3.23868 0.73449 3.08789 1.09853 3.08789 1.47812V12.0828C3.19993 12.1688 3.29123 12.2789 3.35505 12.4049C3.41887 12.531 3.45359 12.6697 3.45664 12.8109C3.48164 12.8078 3.50352 12.8078 3.52539 12.8078Z"
            fill="currentColor" />
        <path
            d="M5.78906 2.78125H13.9922V3.67969H5.78906V2.78125ZM5.78906 5.29219H13.9922V6.19062H5.78906V5.29219ZM5.78906 7.80312H13.9922V8.70156H5.78906V7.80312Z"
            fill="currentColor" />
    </g>
    <defs>
        <clipPath id="clip0_1816_16127">
            <rect width="20" height="20" fill="white" />
        </clipPath>
    </defs>
</svg>
    