<svg width="2rem" height="2rem" viewBox="0 0 20 20" fill="none" xmlns="http://www.w3.org/2000/svg">
	<path
		d="M6.33804 9.29106L8.7762 6.82633C8.87255 6.72893 8.87256 6.57213 8.77623 6.47472L8.13294 5.82421C8.08597 5.77672 8.02195 5.75 7.95516 5.75C7.88837 5.75 7.82435 5.77673 7.7774 5.82423L3.82222 9.82469C3.72592 9.9221 3.72593 10.0789 3.82224 10.1762L7.77742 14.1758C7.82436 14.2233 7.88833 14.25 7.95509 14.25C8.02184 14.25 8.08584 14.2233 8.13281 14.1759L8.77611 13.5263C8.87255 13.4289 8.8726 13.272 8.7762 13.1746L6.33804 10.7099H16C16.1381 10.7099 16.25 10.5979 16.25 10.4599V9.54106C16.25 9.40299 16.1381 9.29106 16 9.29106H6.33804Z"
		fill="currentColor" stroke="currentColor" stroke-width="0.5" stroke-linejoin="round" />
</svg>