<svg width="2.4rem" height="2.4rem" viewBox="0 0 24 24" fill="none" xmlns="http://www.w3.org/2000/svg">
	<path
		d="M21 18.0121C20.9983 18.6714 20.7462 19.3032 20.2989 19.7695C19.8515 20.2357 19.2452 20.4985 18.6124 20.5004H5.38994C4.7569 20.4987 4.15026 20.236 3.70247 19.7698C3.25469 19.3036 3.00215 18.6717 3 18.0121V10.4157C3.0023 9.75613 3.25487 9.12426 3.7026 8.65797C4.15034 8.19169 4.7569 7.92883 5.38994 7.92676H18.6118C19.2446 7.92883 19.8509 8.19177 20.2983 8.65812C20.7457 9.12448 20.9977 9.75636 20.9994 10.4157L21 18.0121Z"
		stroke="currentColor" stroke-miterlimit="10" stroke-linecap="round" />
	<path
		d="M4.50195 8.10842L14.7741 3.66774C14.7741 3.66774 16.7536 2.88124 17.297 4.71438C17.6127 5.7893 17.9414 6.86004 18.283 7.92632"
		stroke="currentColor" stroke-miterlimit="10" stroke-linecap="round" />
	<path
		d="M17.3769 15.7845C18.2091 15.7845 18.8837 15.0816 18.8837 14.2145C18.8837 13.3474 18.2091 12.6445 17.3769 12.6445C16.5447 12.6445 15.8701 13.3474 15.8701 14.2145C15.8701 15.0816 16.5447 15.7845 17.3769 15.7845Z"
		stroke="currentColor" stroke-miterlimit="10" stroke-linecap="round" />
</svg>