<svg width="2.4rem" height="2.4rem" viewBox="0 0 24 24" fill="none"
    xmlns="http://www.w3.org/2000/svg">
    <path
        d="M22.4805 18.7476L20.8342 15.1296C20.8155 15.0744 20.7842 15.0243 20.7428 14.9833L19.1437 13.3903L18.6112 12.8608V12.8601C18.3986 12.649 18.111 12.5305 17.8114 12.5305C17.5117 12.5305 17.2242 12.649 17.0115 12.8601C16.677 13.1931 16.572 13.7773 16.7445 14.1876C16.722 14.2206 16.7355 14.1538 16.7325 14.1748L16.4775 13.9213C16.0372 13.4826 15.3195 13.4826 14.8785 13.9213C14.4375 14.3601 14.4375 15.0748 14.8785 15.5136L12.48 13.1256L11.6797 12.3291C11.2387 11.8903 10.5217 11.8903 10.0807 12.3291C9.63975 12.7678 9.63975 13.4826 10.0807 13.9213L10.8802 14.7178L12.7455 16.4983V18.7476C12.7455 18.8466 12.7853 18.9426 12.8558 19.0131L14.988 21.1356C15.0458 21.1934 15.1208 21.2308 15.2017 21.2421L19.485 22.4961C19.5429 22.5044 19.602 22.4992 19.6576 22.4809C19.7131 22.4625 19.7637 22.4315 19.8053 22.3903L22.3898 19.1316C22.4391 19.0823 22.4737 19.0203 22.4897 18.9525C22.5057 18.8846 22.5026 18.8137 22.4805 18.7476Z"
        fill="currentColor" />
    <path
        d="M9.55125 14.4525C9.37576 14.279 9.23662 14.0722 9.14197 13.8442C9.04732 13.6163 8.99906 13.3718 9 13.125C9 12.6225 9.1965 12.1515 9.552 11.7975C9.72648 11.6231 9.93372 11.485 10.1618 11.391C10.3899 11.297 10.6343 11.2491 10.881 11.25C11.3828 11.25 11.8545 11.445 12.2092 11.7983L12.6952 12.282C13.2276 11.0045 13.5011 9.634 13.5 8.25C13.5 8.08689 13.4469 7.92821 13.3487 7.79801C13.2504 7.66781 13.1124 7.57319 12.9555 7.5285L11.25 7.041V5.25C11.25 3.18225 9.56775 1.5 7.5 1.5C5.43225 1.5 3.75 3.18225 3.75 5.25C3.75 5.44891 3.82902 5.63968 3.96967 5.78033C4.11032 5.92098 4.30109 6 4.5 6C4.69891 6 4.88968 5.92098 5.03033 5.78033C5.17098 5.63968 5.25 5.44891 5.25 5.25C5.25 4.0095 6.2595 3 7.5 3C8.7405 3 9.75 4.0095 9.75 5.25V6.61275L7.7055 6.0285C7.57112 5.99058 7.42888 5.99058 7.2945 6.0285L2.0445 7.5285C1.88763 7.57319 1.7496 7.66781 1.65135 7.79801C1.55309 7.92821 1.49996 8.08689 1.5 8.25C1.5 11.613 2.9925 14.5898 5.81325 16.857L7.02975 17.8342C7.16295 17.9416 7.3289 18.0002 7.5 18.0002C7.6711 18.0002 7.83705 17.9416 7.97025 17.8342L9.18675 16.857C9.69657 16.4423 10.1742 15.9895 10.6155 15.5025L10.362 15.261L9.552 14.4532L9.55125 14.4525ZM8.25 11.25C8.25 11.4489 8.17098 11.6397 8.03033 11.7803C7.88968 11.921 7.69891 12 7.5 12C7.30109 12 7.11032 11.921 6.96967 11.7803C6.82902 11.6397 6.75 11.4489 6.75 11.25V10.5C6.75 10.3011 6.82902 10.1103 6.96967 9.96967C7.11032 9.82902 7.30109 9.75 7.5 9.75C7.69891 9.75 7.88968 9.82902 8.03033 9.96967C8.17098 10.1103 8.25 10.3011 8.25 10.5V11.25Z"
        fill="currentColor" />
</svg>