<svg width="2.4rem" height="2.4rem" viewBox="0 0 24 24" fill="none" xmlns="http://www.w3.org/2000/svg">
	<path
		d="M18.3001 11.5021C18.1145 11.5021 17.9365 11.5759 17.8053 11.7071C17.674 11.8384 17.6003 12.0164 17.6003 12.202V14.0146L13.1982 9.60554C13.1331 9.53994 13.0557 9.48787 12.9704 9.45234C12.8852 9.41681 12.7937 9.39852 12.7013 9.39852C12.6089 9.39852 12.5174 9.41681 12.4321 9.45234C12.3469 9.48787 12.2695 9.53994 12.2044 9.60554L9.90186 11.9151L6.19962 8.20582C6.06783 8.07404 5.88909 8 5.70272 8C5.51635 8 5.33761 8.07404 5.20582 8.20582C5.07404 8.33761 5 8.51635 5 8.70272C5 8.88909 5.07404 9.06783 5.20582 9.19962L9.40496 13.3988C9.47002 13.4644 9.54743 13.5164 9.63271 13.552C9.718 13.5875 9.80947 13.6058 9.90186 13.6058C9.99425 13.6058 10.0857 13.5875 10.171 13.552C10.2563 13.5164 10.3337 13.4644 10.3988 13.3988L12.7013 11.0892L16.6135 15.0014H14.8009C14.6152 15.0014 14.4372 15.0752 14.306 15.2064C14.1747 15.3377 14.101 15.5157 14.101 15.7013C14.101 15.8869 14.1747 16.0649 14.306 16.1962C14.4372 16.3274 14.6152 16.4011 14.8009 16.4011H18.3001C18.3916 16.4 18.4819 16.381 18.5661 16.3452C18.7371 16.2741 18.873 16.1382 18.944 15.9672C18.9799 15.8831 18.9989 15.7927 19 15.7013V12.202C19 12.0164 18.9263 11.8384 18.795 11.7071C18.6638 11.5759 18.4858 11.5021 18.3001 11.5021Z"
		fill="currentColor" />
</svg>