<svg width="2.4rem" height="2.4rem" viewBox="0 0 18 18" fill="none" xmlns="http://www.w3.org/2000/svg">
	<path
		d="M14.4992 6V6.60351C14.4992 7.3278 14.706 8.03589 15.0933 8.63846L16.0425 10.1153C16.9096 11.4642 16.2477 13.2976 14.7397 13.7242C10.7948 14.8401 6.63378 14.8401 2.68888 13.7242C1.1809 13.2976 0.518989 11.4642 1.38602 10.1153L2.33526 8.63846C2.72262 8.03589 2.92932 7.3278 2.92932 6.60351V6C2.92932 2.68629 5.51934 0 8.71429 0C11.9092 0 14.4992 2.68629 14.4992 6Z"
		fill="currentColor" />
	<path
		d="M4.63281 15.0371C5.19076 16.7559 6.80525 17.9984 8.70993 17.9984C10.6147 17.9984 12.2291 16.7559 12.7871 15.0371C10.091 15.5431 7.3289 15.5431 4.63281 15.0371Z"
		fill="currentColor" />
</svg>