<svg width="2.4rem" height="2.4rem" viewBox="0 0 24 24" fill="none" xmlns="http://www.w3.org/2000/svg">
	<path
		d="M20.6286 14.9989C20.5508 14.9052 20.4744 14.8114 20.3994 14.7209C19.3682 13.4736 18.7443 12.7208 18.7443 9.18969C18.7443 7.36156 18.3069 5.86156 17.4449 4.73656C16.8093 3.90547 15.9501 3.275 14.8176 2.80906C14.803 2.80096 14.79 2.79032 14.7791 2.77766C14.3718 1.41359 13.2571 0.5 11.9999 0.5C10.7427 0.5 9.62849 1.41359 9.22115 2.77625C9.21027 2.78845 9.19744 2.79875 9.18318 2.80672C6.54036 3.89469 5.25599 5.98203 5.25599 9.18828C5.25599 12.7208 4.63302 13.4736 3.60083 14.7195C3.52583 14.81 3.44943 14.9019 3.37161 14.9975C3.17061 15.2399 3.04326 15.5348 3.00464 15.8473C2.96601 16.1598 3.01772 16.4769 3.15365 16.7609C3.44286 17.3703 4.05927 17.7486 4.76286 17.7486H19.2421C19.9424 17.7486 20.5546 17.3708 20.8447 16.7642C20.9813 16.4801 21.0335 16.1628 20.9952 15.8499C20.9569 15.537 20.8297 15.2417 20.6286 14.9989ZM11.9999 21.5C12.6773 21.4995 13.3418 21.3156 13.9232 20.9679C14.5045 20.6202 14.9809 20.1217 15.3018 19.5252C15.3169 19.4966 15.3244 19.4646 15.3234 19.4322C15.3225 19.3999 15.3133 19.3684 15.2966 19.3407C15.2799 19.313 15.2563 19.2901 15.2281 19.2742C15.2 19.2583 15.1682 19.25 15.1358 19.25H8.8649C8.83252 19.2499 8.80066 19.2582 8.77243 19.274C8.7442 19.2899 8.72055 19.3128 8.7038 19.3405C8.68704 19.3682 8.67774 19.3997 8.67681 19.4321C8.67588 19.4645 8.68335 19.4965 8.69849 19.5252C9.01936 20.1216 9.49567 20.6201 10.0769 20.9678C10.6581 21.3155 11.3226 21.4994 11.9999 21.5Z"
		fill="currentColor" />
</svg>