<svg width="1.6rem" height="1.6rem" viewBox="0 0 16 16" fill="none" xmlns="http://www.w3.org/2000/svg">
	<path
		d="M11.9737 1.06358C11.9219 1.02254 11.8578 1.00014 11.7917 1H4.20833C4.14207 1.00014 4.07777 1.02253 4.02575 1.06358L1.189 3.33333H14.811L11.9737 1.06358ZM1 3.91667V13.5417C1 14.3461 1.6545 15 2.45833 15H13.5417C14.3461 15 15 14.3461 15 13.5417V3.91667H1ZM10.3333 7.70833C10.3333 7.78569 10.3026 7.85987 10.2479 7.91457C10.1932 7.96927 10.119 8 10.0417 8H5.95833C5.88098 8 5.80679 7.96927 5.75209 7.91457C5.6974 7.85987 5.66667 7.78569 5.66667 7.70833V5.95833C5.66667 5.88098 5.6974 5.80679 5.75209 5.75209C5.80679 5.6974 5.88098 5.66667 5.95833 5.66667H10.0417C10.119 5.66667 10.1932 5.6974 10.2479 5.75209C10.3026 5.80679 10.3333 5.88098 10.3333 5.95833V7.70833Z"
		fill="currentColor" />
</svg>