<svg width="2.4rem" height="2.4rem" viewBox="0 0 24 24" fill="none" xmlns="http://www.w3.org/2000/svg">
	<path
		d="M19.3001 12.4979C19.1145 12.4979 18.9365 12.4241 18.8053 12.2929C18.674 12.1616 18.6003 11.9836 18.6003 11.798V9.98537L14.1982 14.3945C14.1331 14.4601 14.0557 14.5121 13.9704 14.5477C13.8852 14.5832 13.7937 14.6015 13.7013 14.6015C13.6089 14.6015 13.5174 14.5832 13.4321 14.5477C13.3469 14.5121 13.2695 14.4601 13.2044 14.3945L10.9019 12.0849L7.19962 15.7942C7.06783 15.926 6.88909 16 6.70272 16C6.51635 16 6.33761 15.926 6.20582 15.7942C6.07404 15.6624 6 15.4837 6 15.2973C6 15.1109 6.07404 14.9322 6.20582 14.8004L10.405 10.6012C10.47 10.5356 10.5474 10.4836 10.6327 10.448C10.718 10.4125 10.8095 10.3942 10.9019 10.3942C10.9943 10.3942 11.0857 10.4125 11.171 10.448C11.2563 10.4836 11.3337 10.5356 11.3988 10.6012L13.7013 12.9108L17.6135 8.99857H15.8009C15.6152 8.99857 15.4372 8.92483 15.306 8.79359C15.1747 8.66234 15.101 8.48433 15.101 8.29871C15.101 8.1131 15.1747 7.93509 15.306 7.80384C15.4372 7.67259 15.6152 7.59886 15.8009 7.59886H19.3001C19.3916 7.59996 19.4819 7.61898 19.5661 7.65484C19.7371 7.72586 19.873 7.86176 19.944 8.03277C19.9799 8.11691 19.9989 8.20726 20 8.29871V11.798C20 11.9836 19.9263 12.1616 19.795 12.2929C19.6638 12.4241 19.4858 12.4979 19.3001 12.4979Z"
		fill="currentColor" />
</svg>