<svg width="24" height="24" viewBox="0 0 24 24" fill="none" xmlns="http://www.w3.org/2000/svg">
<path d="M20.3996 5.51908H18.8636L18.4796 4.34606C18.2307 3.65777 17.7689 3.0622 17.1583 2.64186C16.5477 2.22151 15.8185 1.99721 15.0717 2.00003H8.92781C8.17369 2.00141 7.43905 2.23426 6.82758 2.66572C6.21611 3.09718 5.75869 3.70547 5.51989 4.40472L5.13589 5.57773H3.59993C2.64517 5.57773 1.72951 5.94849 1.05439 6.60844C0.379277 7.26839 0 8.16348 0 9.09679V18.4809C0 19.4143 0.379277 20.3093 1.05439 20.9693C1.72951 21.6292 2.64517 22 3.59993 22H20.3996C21.3543 22 22.27 21.6292 22.9451 20.9693C23.6202 20.3093 23.9995 19.4143 23.9995 18.4809V9.09679C24.0075 8.62975 23.9202 8.16583 23.7429 7.73209C23.5655 7.29834 23.3016 6.90345 22.9666 6.57044C22.6315 6.23743 22.2319 5.97296 21.7912 5.79245C21.3505 5.61195 20.8774 5.51902 20.3996 5.51908ZM21.5996 18.4223C21.5996 18.7334 21.4731 19.0318 21.2481 19.2517C21.023 19.4717 20.7178 19.5953 20.3996 19.5953H3.59993C3.28167 19.5953 2.97645 19.4717 2.75141 19.2517C2.52638 19.0318 2.39995 18.7334 2.39995 18.4223V9.03814C2.39995 8.72704 2.52638 8.42867 2.75141 8.20869C2.97645 7.98871 3.28167 7.86512 3.59993 7.86512H5.99988C6.26155 7.87847 6.5205 7.80773 6.73718 7.6637C6.95386 7.51967 7.11636 7.31026 7.19985 7.06747L7.84784 5.14372C7.92834 4.91073 8.08171 4.70837 8.28627 4.56523C8.49084 4.4221 8.73625 4.34543 8.98781 4.34606H15.1317C15.3833 4.34543 15.6287 4.4221 15.8332 4.56523C16.0378 4.70837 16.1912 4.91073 16.2717 5.14372L16.9196 7.06747C16.9967 7.29122 17.1409 7.48705 17.3336 7.62936C17.5263 7.77167 17.7584 7.85384 17.9996 7.86512H20.3996C20.7178 7.86512 21.023 7.98871 21.2481 8.20869C21.4731 8.42867 21.5996 8.72704 21.5996 9.03814V18.4223ZM11.9998 7.86512C11.0504 7.86512 10.1224 8.14031 9.33307 8.65588C8.54373 9.17145 7.92851 9.90425 7.56522 10.7616C7.20193 11.619 7.10687 12.5624 7.29208 13.4726C7.47728 14.3827 7.93443 15.2188 8.60571 15.875C9.27699 16.5312 10.1322 16.9781 11.0633 17.1591C11.9944 17.3402 12.9595 17.2472 13.8366 16.8921C14.7137 16.537 15.4633 15.9356 15.9907 15.164C16.5181 14.3924 16.7997 13.4852 16.7997 12.5572C16.7997 11.3128 16.2939 10.1193 15.3938 9.2394C14.4936 8.35946 13.2728 7.86512 11.9998 7.86512ZM11.9998 14.9032C11.5251 14.9032 11.0611 14.7656 10.6664 14.5079C10.2717 14.2501 9.96413 13.8837 9.78249 13.455C9.60084 13.0263 9.55331 12.5546 9.64591 12.0995C9.73852 11.6444 9.96709 11.2264 10.3027 10.8983C10.6384 10.5702 11.066 10.3468 11.5315 10.2562C11.9971 10.1657 12.4796 10.2122 12.9182 10.3897C13.3567 10.5673 13.7315 10.868 13.9952 11.2538C14.2589 11.6396 14.3997 12.0932 14.3997 12.5572C14.3997 13.1794 14.1468 13.7761 13.6968 14.2161C13.2467 14.6561 12.6363 14.9032 11.9998 14.9032Z" fill="currentcolor"/>
</svg>
