<svg width="2.4rem" height="2.4rem" viewBox="0 0 25 25" fill="none" xmlns="http://www.w3.org/2000/svg">
	<path
		d="M22.4508 4.88708C20.6074 3.04369 17.608 3.04371 15.8567 4.97735L10.8726 9.96143C10.4223 10.3676 10.0603 10.8619 9.80892 11.4138C9.22178 12.7057 10.9015 13.8363 11.905 12.8329C12.0155 12.7193 12.1057 12.5877 12.1717 12.4437C12.2943 12.1871 12.4736 11.9618 12.696 11.7848L17.6801 6.80069C18.4267 5.8717 19.7897 5.87259 20.6275 6.71042C21.4653 7.54824 21.4662 8.9112 20.7196 9.84018L15.7355 14.8243C15.5053 15.0095 15.2438 15.1518 14.9633 15.2445L12.5401 17.6678C13.391 17.9652 14.3064 18.0274 15.1897 17.8479C16.0731 17.6683 16.8916 17.2536 17.5588 16.6476L22.5429 11.6635C24.2942 9.72987 24.2942 6.73047 22.4508 4.88708Z"
		fill="currentColor" />
	<path
		d="M13.012 12.3814L13.0069 12.3865C12.9067 12.4867 12.5268 13.1237 12.3572 13.2933L7.37404 18.2764C7.17274 18.4772 6.93367 18.636 6.67064 18.7438C6.40761 18.8516 6.12583 18.9063 5.84157 18.9046C5.5573 18.9029 5.27619 18.8449 5.01446 18.734C4.75272 18.6231 4.51555 18.4614 4.31663 18.2583C3.92353 17.842 3.70942 17.2881 3.72029 16.7156C3.73116 16.1432 3.96616 15.5978 4.37479 15.1967L9.31769 10.2538C9.5638 10.0065 9.8673 9.82385 10.2011 9.72228L12.555 7.36837C11.6993 7.03591 10.7654 6.9593 9.86696 7.14786C8.9685 7.33642 8.14421 7.78203 7.49436 8.43047L2.57393 13.3509C0.748327 15.1765 0.649678 18.1501 2.43162 20.0183C2.86692 20.4741 3.38887 20.8383 3.96683 21.0897C4.5448 21.341 5.16715 21.4744 5.79736 21.482C6.42757 21.4896 7.05295 21.3712 7.63681 21.1339C8.22066 20.8965 8.75123 20.5449 9.19738 20.0998L12.7519 16.5452L14.1805 15.1166C14.5559 14.7419 14.8653 14.3065 15.0956 13.8287C15.7188 12.5344 14.0278 11.3656 13.012 12.3814Z"
		fill="currentColor" />
</svg>