<svg width="2.4rem" height="2.4rem" viewBox="0 0 24 24" fill="none" xmlns="http://www.w3.org/2000/svg">
    <path
        d="M14.25 18.75C14.25 19.905 14.685 20.955 15.405 21.75H3C2.5875 21.75 2.25 21.4125 2.25 21C2.25 17.28 5.28 14.25 9 14.25H15C15.72 14.25 16.41 14.3625 17.0625 14.58C15.4125 15.2475 14.25 16.86 14.25 18.75Z"
        fill="currentColor" />
    <path
        d="M12 12.75C14.8995 12.75 17.25 10.3995 17.25 7.5C17.25 4.60051 14.8995 2.25 12 2.25C9.10051 2.25 6.75 4.60051 6.75 7.5C6.75 10.3995 9.10051 12.75 12 12.75Z"
        fill="currentColor" />
    <path
        d="M20.7825 18.5344L18.5325 20.7844C18.39 20.9194 18.2025 21.0019 18 21.0019H16.5C16.0875 21.0019 15.75 20.6644 15.75 20.2519V18.7519C15.75 18.5494 15.8325 18.3619 15.9675 18.2194L18.2175 15.9694C18.51 15.6769 18.99 15.6769 19.2825 15.9694L20.7825 17.4694C21.075 17.7619 21.075 18.2419 20.7825 18.5344Z"
        fill="currentColor" />
</svg>
    