<svg width="2.4rem" height="2.4rem" viewBox="0 0 24 24" fill="none" xmlns="http://www.w3.org/2000/svg">
	<path
		d="M9.23077 3H5.07692C3.93164 3 3 3.93164 3 5.07692V9.23077C3 10.3761 3.93164 11.3077 5.07692 11.3077H9.23077C10.3761 11.3077 11.3077 10.3761 11.3077 9.23077V5.07692C11.3077 3.93164 10.3761 3 9.23077 3ZM18.9231 12.6923H14.7692C13.6239 12.6923 12.6923 13.6239 12.6923 14.7692V18.9231C12.6923 20.0684 13.6239 21 14.7692 21H18.9231C20.0684 21 21 20.0684 21 18.9231V14.7692C21 13.6239 20.0684 12.6923 18.9231 12.6923ZM15.4196 9.47488C15.5548 9.61002 15.7739 9.61002 15.9091 9.47481L16.3986 8.98535C16.5338 8.85014 16.5338 8.63095 16.3985 8.49575L15.0561 7.15385H17.5385C17.9208 7.15385 18.2308 7.46379 18.2308 7.84615V10.9615C18.2308 11.1527 18.3858 11.3077 18.5769 11.3077H19.2692C19.4604 11.3077 19.6154 11.1527 19.6154 10.9615V7.84615C19.6154 6.69907 18.6855 5.76923 17.5385 5.76923H15.0557L16.398 4.4265C16.5331 4.29129 16.5331 4.07218 16.3979 3.93704L15.9084 3.44758C15.7732 3.31237 15.554 3.31237 15.4188 3.44765L12.8949 5.97215C12.6247 6.24242 12.6247 6.68072 12.8951 6.951L15.4196 9.47488ZM8.58042 14.5251C8.44521 14.3899 8.22609 14.39 8.09089 14.5252L7.60142 15.0146C7.46622 15.1498 7.46622 15.369 7.60149 15.5042L8.94388 16.8462H6.46154C6.07918 16.8462 5.76923 16.5361 5.76923 16.1538V13.0385C5.76923 12.8472 5.61422 12.6923 5.42308 12.6923H4.73077C4.53962 12.6923 4.38462 12.8472 4.38462 13.0385V16.1538C4.38462 17.3009 5.31445 18.2308 6.46154 18.2308H8.94429L7.60205 19.5734C7.46691 19.7086 7.46691 19.9278 7.60212 20.063L8.09158 20.5524C8.22678 20.6876 8.44597 20.6876 8.58118 20.5524L11.1051 18.0279C11.3753 17.7575 11.3753 17.3193 11.1049 17.049L8.58042 14.5251Z"
		fill="currentColor" />
</svg>