<svg width="2.4rem" height="2.4rem" viewBox="0 0 24 24" fill="none" xmlns="http://www.w3.org/2000/svg">
	<path
		d="M18.0465 14.2271L18.9003 15.0823V13.8739V11.8023C18.9003 11.7228 18.9319 11.6465 18.9881 11.5903C19.0444 11.534 19.1206 11.5025 19.2002 11.5025C19.2797 11.5025 19.356 11.534 19.4122 11.5903C19.4684 11.6465 19.5 11.7228 19.5 11.8023V15.7977C19.4992 15.8361 19.4911 15.874 19.476 15.9094L19.476 15.9094L19.4742 15.9136C19.4438 15.9869 19.3856 16.0451 19.3123 16.0756L19.3123 16.0755L19.3081 16.0774C19.2727 16.0924 19.2348 16.1006 19.1964 16.1013H15.201C15.1215 16.1013 15.0452 16.0697 14.989 16.0135C14.9327 15.9573 14.9011 15.881 14.9011 15.8015C14.9011 15.7219 14.9327 15.6457 14.989 15.5895C15.0452 15.5332 15.1215 15.5016 15.201 15.5016H17.2726H18.4797L17.6261 14.6481L13.155 10.177L12.8009 9.82291L12.4474 10.1775L9.81592 12.817L9.81501 12.8179C9.78714 12.846 9.75398 12.8683 9.71744 12.8835C9.6809 12.8988 9.64171 12.9066 9.60213 12.9066C9.56255 12.9066 9.52336 12.8988 9.48682 12.8835C9.45028 12.8683 9.41712 12.846 9.38924 12.8179L9.38925 12.8179L9.3878 12.8165L4.58878 8.01744C4.53193 7.9606 4.5 7.8835 4.5 7.80311C4.5 7.72272 4.53193 7.64562 4.58878 7.58878C4.64562 7.53193 4.72272 7.5 4.80311 7.5C4.88343 7.5 4.96046 7.53188 5.01729 7.58863C5.01734 7.58868 5.01739 7.58873 5.01744 7.58878L9.24824 11.8276L9.60233 12.1823L9.95622 11.8274L12.5877 9.18792L12.5886 9.187C12.6165 9.1589 12.6496 9.13659 12.6862 9.12137C12.7227 9.10614 12.7619 9.09831 12.8015 9.09831C12.8411 9.09831 12.8802 9.10614 12.9168 9.12137L13.1091 8.65982L12.9168 9.12137C12.9533 9.13659 12.9865 9.1589 13.0144 9.187L13.0155 9.18817L18.0465 14.2271Z"
		fill="currentColor" stroke="currentColor" />
</svg>