<svg width="2.4rem" height="2.4rem" viewBox="0 0 25 24" fill="none" xmlns="http://www.w3.org/2000/svg">
	<path
		d="M21.4999 12.9998C21.2347 12.9998 20.9804 12.8945 20.7928 12.7069C20.6053 12.5194 20.4999 12.265 20.4999 11.9998V9.40981L14.2099 15.7098C14.117 15.8035 14.0064 15.8779 13.8845 15.9287C13.7627 15.9795 13.632 16.0056 13.4999 16.0056C13.3679 16.0056 13.2372 15.9795 13.1154 15.9287C12.9935 15.8779 12.8829 15.8035 12.7899 15.7098L9.49994 12.4098L4.20994 17.7098C4.02164 17.8981 3.76624 18.0039 3.49994 18.0039C3.23364 18.0039 2.97824 17.8981 2.78994 17.7098C2.60164 17.5215 2.49585 17.2661 2.49585 16.9998C2.49585 16.7335 2.60164 16.4781 2.78994 16.2898L8.78994 10.2898C8.8829 10.1961 8.99351 10.1217 9.11536 10.0709C9.23722 10.0202 9.36793 9.99402 9.49994 9.99402C9.63195 9.99402 9.76266 10.0202 9.88452 10.0709C10.0064 10.1217 10.117 10.1961 10.2099 10.2898L13.4999 13.5898L19.0899 7.99981H16.4999C16.2347 7.99981 15.9804 7.89446 15.7928 7.70692C15.6053 7.51939 15.4999 7.26503 15.4999 6.99981C15.4999 6.7346 15.6053 6.48024 15.7928 6.29271C15.9804 6.10517 16.2347 5.99981 16.4999 5.99981H21.4999C21.6306 6.0014 21.7597 6.02857 21.8799 6.07981C22.1243 6.18129 22.3185 6.37547 22.4199 6.61982C22.4712 6.74004 22.4984 6.86914 22.4999 6.99981V11.9998C22.4999 12.265 22.3946 12.5194 22.207 12.7069C22.0195 12.8945 21.7652 12.9998 21.4999 12.9998Z"
		fill="currentColor" />
</svg>