<svg width="2.4rem" height="2.4rem" viewBox="0 0 25 24" fill="none" xmlns="http://www.w3.org/2000/svg">
	<path
		d="M21.4999 11.0002C21.2347 11.0002 20.9804 11.1055 20.7928 11.2931C20.6053 11.4806 20.4999 11.735 20.4999 12.0002V14.5902L14.2099 8.29019C14.117 8.19646 14.0064 8.12206 13.8845 8.07129C13.7627 8.02053 13.632 7.99439 13.4999 7.99439C13.3679 7.99439 13.2372 8.02053 13.1154 8.07129C12.9935 8.12206 12.8829 8.19646 12.7899 8.29019L9.49994 11.5902L4.20994 6.29019C4.02164 6.10188 3.76624 5.99609 3.49994 5.99609C3.23364 5.99609 2.97824 6.10188 2.78994 6.29019C2.60164 6.47849 2.49585 6.73388 2.49585 7.00019C2.49585 7.26649 2.60164 7.52188 2.78994 7.71019L8.78994 13.7102C8.8829 13.8039 8.99351 13.8783 9.11536 13.9291C9.23722 13.9798 9.36793 14.006 9.49994 14.006C9.63195 14.006 9.76266 13.9798 9.88452 13.9291C10.0064 13.8783 10.117 13.8039 10.2099 13.7102L13.4999 10.4102L19.0899 16.0002H16.4999C16.2347 16.0002 15.9804 16.1055 15.7928 16.2931C15.6053 16.4806 15.4999 16.735 15.4999 17.0002C15.4999 17.2654 15.6053 17.5198 15.7928 17.7073C15.9804 17.8948 16.2347 18.0002 16.4999 18.0002H21.4999C21.6306 17.9986 21.7597 17.9714 21.8799 17.9202C22.1243 17.8187 22.3185 17.6245 22.4199 17.3802C22.4712 17.26 22.4984 17.1309 22.4999 17.0002V12.0002C22.4999 11.735 22.3946 11.4806 22.207 11.2931C22.0195 11.1055 21.7652 11.0002 21.4999 11.0002Z"
		fill="currentColor" />
</svg>