<svg width="2.4em" height="2.4em" viewBox="0 0 24 24" xmlns="http://www.w3.org/2000/svg">
	<path
		d="m9.183 18.252-0.53087-0.7122-1.4669 1.7713-1.383-1.9539-0.7963 1.0591 1.4529 1.7713-1.4529 1.7713 0.7963 1.0408 1.383-1.9356 1.4669 1.7713 0.53087-0.7122-1.3691-1.9356 1.3691-1.9356z"
		fill="currentColor" />
	<path
		d="m10.51 9.1197c-0.0139-0.03652-0.0419-0.03652-0.0698-0.01826l-3.4786 3.3965-1.858-1.4608c-0.02794-0.0183-0.05588-0.0183-0.06985 0-0.02794 0.0182-0.04191 0.0913-0.02794 0.1278l1.4669 3.1956 0.47499 1.0408 0.60072-1.0408 2.9477-5.1678c0.0279 0 0.0279-0.03652 0.0139-0.07304zm0-8.0894c-0.0139-0.036526-0.0419-0.036526-0.0698-0.01827l-3.4786 3.3782-1.858-1.4608c-0.02794-0.01826-0.05588-0.01826-0.06985 0-0.02794 0.01826-0.04191 0.0913-0.02794 0.12782l1.4669 3.1956 0.47499 1.0408 0.60072-1.0408 2.9616-5.1495c0.014-0.01826 0.014-0.05478 0-0.07304z"
		fill="currentColor" />
	<path d="m19 3.5327h-7.7255v1.26h7.7255v-1.26z" fill="currentColor" />
	<path d="m19 11.621h-7.7255v1.26h7.7255v-1.26z" fill="currentColor" />
	<path d="m19 19.545h-7.7255v1.26h7.7255v-1.26z" fill="currentColor" />
</svg>