<svg width="2.4rem" height="2.4rem" viewBox="0 0 24 24" fill="none" xmlns="http://www.w3.org/2000/svg">
	<path
		d="M12 19C10.6155 19 9.26215 18.5895 8.11101 17.8203C6.95987 17.0511 6.06266 15.9579 5.53285 14.6788C5.00303 13.3997 4.86441 11.9922 5.13451 10.6344C5.4046 9.2765 6.07129 8.02922 7.05026 7.05026C8.02922 6.07129 9.2765 5.4046 10.6344 5.13451C11.9922 4.86441 13.3997 5.00303 14.6788 5.53285C15.9579 6.06266 17.0511 6.95987 17.8203 8.11101C18.5895 9.26215 19 10.6155 19 12C19 13.8565 18.2625 15.637 16.9497 16.9497C15.637 18.2625 13.8565 19 12 19ZM12 6.16667C10.8463 6.16667 9.71846 6.50879 8.75918 7.14976C7.79989 7.79074 7.05222 8.70178 6.61071 9.76768C6.16919 10.8336 6.05367 12.0065 6.27876 13.138C6.50384 14.2696 7.05941 15.309 7.87521 16.1248C8.69102 16.9406 9.73042 17.4962 10.862 17.7212C11.9935 17.9463 13.1664 17.8308 14.2323 17.3893C15.2982 16.9478 16.2093 16.2001 16.8502 15.2408C17.4912 14.2815 17.8333 13.1537 17.8333 12C17.8333 10.4529 17.2188 8.96917 16.1248 7.87521C15.0308 6.78125 13.5471 6.16667 12 6.16667Z"
		fill="currentColor" />
	<path
		d="M14.9141 15.2083C14.7695 15.208 14.6302 15.1539 14.5232 15.0567L11.6066 12.4317C11.5461 12.3771 11.4978 12.3105 11.4646 12.2362C11.4315 12.1619 11.4143 12.0814 11.4141 12V9.08333C11.4141 8.92862 11.4755 8.78025 11.5849 8.67085C11.6943 8.56146 11.8427 8.5 11.9974 8.5C12.1521 8.5 12.3005 8.56146 12.4099 8.67085C12.5193 8.78025 12.5807 8.92862 12.5807 9.08333V11.7375L15.3049 14.1875C15.3941 14.2661 15.4571 14.3702 15.4855 14.4857C15.5139 14.6011 15.5064 14.7225 15.4639 14.8336C15.4213 14.9446 15.3459 15.0401 15.2476 15.107C15.1494 15.174 15.033 15.2094 14.9141 15.2083Z"
		fill="currentColor" />
</svg>