<svg width="2.4rem" height="2.4rem" viewBox="0 0 20 20" fill="none" xmlns="http://www.w3.org/2000/svg">
	<path
		d="M3.93097 5.4424C3.87239 5.3843 3.82589 5.31517 3.79416 5.23901C3.76243 5.16285 3.74609 5.08116 3.74609 4.99865C3.74609 4.91614 3.76243 4.83445 3.79416 4.75829C3.82589 4.68213 3.87239 4.613 3.93097 4.5549L6.43097 2.0549C6.48924 1.99663 6.55842 1.9504 6.63456 1.91886C6.7107 1.88733 6.79231 1.87109 6.87472 1.87109C6.95713 1.87109 7.03873 1.88733 7.11487 1.91886C7.19101 1.9504 7.26019 1.99663 7.31847 2.0549C7.37674 2.11318 7.42297 2.18236 7.45451 2.2585C7.48604 2.33463 7.50227 2.41624 7.50227 2.49865C7.50227 2.58106 7.48604 2.66267 7.45451 2.73881C7.42297 2.81495 7.37674 2.88413 7.31847 2.9424L5.88097 4.37365H11.8747C13.035 4.37365 14.1478 4.83459 14.9683 5.65506C15.7888 6.47553 16.2497 7.58833 16.2497 8.74865C16.2497 8.91441 16.1839 9.07338 16.0667 9.19059C15.9494 9.3078 15.7905 9.37365 15.6247 9.37365C15.459 9.37365 15.3 9.3078 15.1828 9.19059C15.0656 9.07338 14.9997 8.91441 14.9997 8.74865C14.9997 8.33827 14.9189 7.93191 14.7618 7.55277C14.6048 7.17362 14.3746 6.82913 14.0844 6.53894C13.7942 6.24876 13.4497 6.01857 13.0706 5.86153C12.6915 5.70448 12.2851 5.62365 11.8747 5.62365H5.88097L7.31847 7.0549C7.37705 7.113 7.42354 7.18213 7.45527 7.25829C7.48701 7.33445 7.50334 7.41614 7.50334 7.49865C7.50334 7.58116 7.48701 7.66285 7.45527 7.73901C7.42354 7.81517 7.37705 7.8843 7.31847 7.9424C7.26037 8.00098 7.19124 8.04748 7.11508 8.07921C7.03892 8.11094 6.95723 8.12727 6.87472 8.12727C6.79221 8.12727 6.71052 8.11094 6.63436 8.07921C6.5582 8.04748 6.48907 8.00098 6.43097 7.9424L3.93097 5.4424ZM13.5685 12.0549C13.4508 11.9372 13.2912 11.8711 13.1247 11.8711C12.9583 11.8711 12.7987 11.9372 12.681 12.0549C12.5633 12.1726 12.4972 12.3322 12.4972 12.4987C12.4972 12.6651 12.5633 12.8247 12.681 12.9424L14.1185 14.3737H8.12472C7.29592 14.3737 6.50106 14.0444 5.91501 13.4584C5.32896 12.8723 4.99972 12.0775 4.99972 11.2487C4.99972 11.0829 4.93387 10.9239 4.81666 10.8067C4.69945 10.6895 4.54048 10.6237 4.37472 10.6237C4.20896 10.6237 4.04999 10.6895 3.93278 10.8067C3.81557 10.9239 3.74972 11.0829 3.74972 11.2487C3.74972 12.409 4.21065 13.5218 5.03113 14.3422C5.8516 15.1627 6.9644 15.6237 8.12472 15.6237H14.1185L12.681 17.0549C12.6224 17.113 12.5759 17.1821 12.5442 17.2583C12.5124 17.3345 12.4961 17.4161 12.4961 17.4987C12.4961 17.5812 12.5124 17.6628 12.5442 17.739C12.5759 17.8152 12.6224 17.8843 12.681 17.9424C12.7391 18.001 12.8082 18.0475 12.8844 18.0792C12.9605 18.1109 13.0422 18.1273 13.1247 18.1273C13.2072 18.1273 13.2889 18.1109 13.3651 18.0792C13.4412 18.0475 13.5104 18.001 13.5685 17.9424L16.0685 15.4424C16.127 15.3843 16.1735 15.3152 16.2053 15.239C16.237 15.1628 16.2533 15.0812 16.2533 14.9987C16.2533 14.9161 16.237 14.8345 16.2053 14.7583C16.1735 14.6821 16.127 14.613 16.0685 14.5549L13.5685 12.0549Z"
		fill="currentColor" />
</svg>