<svg width="2.4rem" height="2.4rem" viewBox="0 0 24 24" fill="none" xmlns="http://www.w3.org/2000/svg">
	<path
		d="M19.0238 6.4914L13.4596 3.35688C13.0433 3.1229 12.5739 3 12.0964 3C11.6188 3 11.1494 3.1229 10.7331 3.35688L5.16888 6.4914C4.73914 6.73296 4.3813 7.08438 4.13199 7.50967C3.88268 7.93497 3.75085 8.41887 3.75 8.91185V15.0882C3.75085 15.5811 3.88268 16.065 4.13199 16.4903C4.3813 16.9156 4.73914 17.267 5.16888 17.5086L10.7331 20.6431C11.1494 20.8771 11.6188 21 12.0964 21C12.5739 21 13.0433 20.8771 13.4596 20.6431L19.0238 17.5086C19.4536 17.267 19.8114 16.9156 20.0607 16.4903C20.31 16.065 20.4419 15.5811 20.4427 15.0882V8.91185C20.4419 8.41887 20.31 7.93497 20.0607 7.50967C19.8114 7.08438 19.4536 6.73296 19.0238 6.4914Z"
		fill="currentColor" />
	<path
		d="M12 16C14.2091 16 16 14.2091 16 12C16 9.79086 14.2091 8 12 8C9.79086 8 8 9.79086 8 12C8 14.2091 9.79086 16 12 16Z"
		fill="#0F1527" />
</svg>