<svg width="2.4rem" height="2.4rem" viewBox="0 0 24 24" fill="none" xmlns="http://www.w3.org/2000/svg">
	<path
		d="M16.6154 0.172798C12.6323 0.172798 9.40338 1.95341 9.40338 4.15311C9.40338 6.3528 12.6332 8.13434 16.6154 8.13434C20.5985 8.13434 23.8274 6.3528 23.8274 4.15311C23.8274 1.95341 20.5975 0.172798 16.6154 0.172798ZM23.8274 5.33557C23.8255 7.53526 20.5985 9.3168 16.6154 9.3168C12.6434 9.3168 9.42184 7.55464 9.40338 5.36511V6.92234C9.40338 7.86203 10.0052 8.72234 10.9911 9.40357C11.988 9.67495 12.876 10.0516 13.6154 10.5279C14.532 10.7605 15.54 10.9026 16.6154 10.9026C20.5985 10.9026 23.8274 9.12203 23.8274 6.92234V5.33557ZM23.8274 8.1048C23.8274 10.3045 20.5985 12.086 16.6154 12.086C16.1308 12.086 15.66 12.05 15.2021 11.9993C15.5634 12.4858 15.8099 13.0479 15.9231 13.6433C16.1529 13.6562 16.38 13.6719 16.6154 13.6719C20.5985 13.6719 23.8274 11.8913 23.8274 9.69157V8.1048ZM7.38461 10.3257C3.40153 10.3257 0.172607 12.1073 0.172607 14.307C0.172607 16.5066 3.40245 18.2882 7.38461 18.2882C11.3677 18.2882 14.5966 16.5066 14.5966 14.307C14.5966 12.1073 11.3668 10.3257 7.38461 10.3257ZM23.8274 10.874C23.8255 13.0737 20.5985 14.8553 16.6154 14.8553C16.3837 14.8553 16.1492 14.8386 15.9231 14.8257C15.9129 14.895 15.9074 14.9873 15.8945 15.0565C15.9406 15.1959 15.9803 15.3334 15.9803 15.4903V16.4134C16.1898 16.4236 16.4003 16.4411 16.6154 16.4411C20.5985 16.4411 23.8274 14.6605 23.8274 12.4608V10.874ZM23.8274 13.6433C23.8255 15.843 20.5985 17.6245 16.6154 17.6245C16.3837 17.6245 16.1492 17.6079 15.9231 17.595C15.9129 17.6642 15.9074 17.7565 15.8945 17.8257C15.9406 17.9642 15.9803 18.1026 15.9803 18.2596V19.1826C16.1898 19.1928 16.4003 19.2103 16.6154 19.2103C20.5985 19.2103 23.8274 17.4297 23.8274 15.23V13.6433ZM14.5966 15.4894C14.5948 17.6891 11.3677 19.4706 7.38461 19.4706C3.41261 19.4706 0.191069 17.7085 0.172607 15.518V17.0762C0.172607 19.2759 3.40061 21.0574 7.38461 21.0574C11.3686 21.0574 14.5966 19.2759 14.5966 17.0762V15.4894ZM14.5966 18.2586C14.5948 20.4583 11.3677 22.2399 7.38461 22.2399C3.41261 22.2399 0.191069 20.4777 0.172607 18.2873V19.8454C0.172607 22.0451 3.40061 23.8266 7.38461 23.8266C11.3686 23.8266 14.5966 22.0451 14.5966 19.8454V18.2586Z"
		fill="currentColor" />
</svg>