<svg width="2.4rem" height="2.4rem" viewBox="0 0 24 24" fill="none" xmlns="http://www.w3.org/2000/svg">
	<path
		d="M5.77158 17.674H3.00088C2.70811 17.674 2.47061 17.9114 2.47061 18.2043V20.9202C2.47061 21.2131 2.70811 21.4505 3.00088 21.4505H5.77158C6.06455 21.4505 6.30195 21.2131 6.30195 20.9202V18.2043C6.30195 17.9114 6.06455 17.674 5.77158 17.674ZM10.8478 13.4276H8.07705C7.78408 13.4276 7.54678 13.665 7.54678 13.9579V20.9202C7.54678 21.2131 7.78408 21.4505 8.07705 21.4505H10.8478C11.1405 21.4505 11.378 21.2131 11.378 20.9202V13.9579C11.378 13.665 11.1405 13.4276 10.8478 13.4276ZM15.9238 15.1381H13.1531C12.8603 15.1381 12.6228 15.3756 12.6228 15.6685V20.9202C12.6228 21.2131 12.8603 21.4505 13.1531 21.4505H15.9238C16.2167 21.4505 16.4541 21.2131 16.4541 20.9202V15.6685C16.4541 15.3756 16.2167 15.1381 15.9238 15.1381ZM20.9999 11.1543H18.2292C17.9363 11.1543 17.6989 11.3918 17.6989 11.6847V20.9202C17.6989 21.2131 17.9363 21.4505 18.2292 21.4505H20.9999C21.2928 21.4505 21.5302 21.2131 21.5302 20.9202V11.6847C21.5302 11.3918 21.2928 11.1543 20.9999 11.1543ZM18.6878 6.27075C18.9659 6.41748 19.2782 6.5083 19.6146 6.5083C20.7086 6.5083 21.5999 5.63052 21.5999 4.53647C21.5999 3.44238 20.7086 2.55078 19.6146 2.55078C18.5206 2.55078 17.6292 3.44238 17.6292 4.53647C17.6292 4.70747 17.6577 4.87021 17.6986 5.02813L15.6587 6.63599C15.3394 6.41655 14.954 6.28687 14.5385 6.28687C13.938 6.28687 13.4052 6.56118 13.0406 6.98442L11.4214 6.25513C11.2923 5.28457 10.4674 4.52954 9.4624 4.52954C8.36846 4.52954 7.47705 5.42114 7.47705 6.51519C7.47705 6.60483 7.49189 6.69023 7.50352 6.77661L5.31045 8.50537C5.03271 8.35737 4.721 8.26558 4.38535 8.26558C3.29131 8.26558 2.3999 9.15718 2.3999 10.2513C2.3999 11.3453 3.29131 12.223 4.38535 12.223C5.4793 12.223 6.37061 11.3453 6.37061 10.2513C6.37061 10.0768 6.34072 9.91045 6.29824 9.74907L8.33955 8.14019C8.65938 8.35835 9.04561 8.48701 9.4624 8.48701C10.0655 8.48701 10.6003 8.2145 10.9649 7.7918L12.578 8.51831C12.701 9.4937 13.5288 10.2443 14.5385 10.2443C15.6325 10.2443 16.5238 9.36655 16.5238 8.27251C16.5238 8.17866 16.5088 8.08887 16.4961 7.99844L18.6878 6.27075Z"
		fill="currentColor" />
</svg>