<svg width="2.4rem" height="2.4rem" viewBox="0 0 24 24" fill="none" xmlns="http://www.w3.org/2000/svg">
	<path
		d="M15.5147 7.05482C15.7826 6.9432 16.0885 7.00571 16.2939 7.20886L17.7227 8.63765C17.8566 8.7716 17.9325 8.95243 17.9325 9.14219C17.9325 9.33195 17.8566 9.51278 17.7227 9.64673L16.2939 11.0755C16.0885 11.2809 15.7826 11.3412 15.5147 11.2295C15.2468 11.1179 15.0727 10.859 15.0727 10.5687V9.85881H14.2355C14.0458 9.85881 13.8649 9.93471 13.731 10.0687L11.7977 12.002L13.731 13.9353C13.8649 14.0693 14.0458 14.1452 14.2355 14.1452H15.0727V13.4308C15.0727 13.1428 15.2468 12.8816 15.5147 12.77C15.7826 12.6583 16.0885 12.7208 16.2939 12.924L17.7227 14.3528C17.8566 14.4867 17.9325 14.6676 17.9325 14.8573C17.9325 15.0471 17.8566 15.2279 17.7227 15.3619L16.2939 16.7906C16.0885 16.996 15.7826 17.0563 15.5147 16.9447C15.2468 16.8331 15.0727 16.5741 15.0727 16.2839V15.5739H14.2355C13.6662 15.5739 13.1215 15.3485 12.7197 14.9466L10.4894 12.7164H7.21439C6.81924 12.7164 6.5 12.3971 6.5 12.002C6.5 11.6068 6.81924 11.2876 7.21439 11.2876H10.4894L12.7197 9.05735C13.1215 8.65551 13.6662 8.43003 14.2355 8.43003H15.0727V7.71563C15.0727 7.42765 15.2468 7.16645 15.5147 7.05482Z"
		fill="currentColor" />
</svg>