<svg width="2rem" height="2rem" viewBox="0 0 20 20" fill="none" xmlns="http://www.w3.org/2000/svg">
	<path opacity="0.4"
		d="M1.53213 11.0108C1.84914 11.4788 2.41 11.7462 3.05214 11.7462H6.3848C6.60427 11.7462 6.80748 11.8381 6.94566 12.0053C7.09197 12.1724 7.14887 12.4064 7.11636 12.6488L6.70181 15.3898C6.52298 16.2088 7.05133 17.128 7.84788 17.4038C8.58757 17.688 9.45731 17.3035 9.80684 16.7603L13.2289 11.5206L13.3264 11.3534V3.96599L13.2045 3.84063L10.6278 1.7932C10.2864 1.44221 9.51421 1.25 8.96961 1.25H5.79955C4.71034 1.25 3.613 2.09404 3.36915 3.12194L1.36956 9.38122C1.16635 9.97456 1.22325 10.5595 1.53213 11.0108Z"
		fill="currentColor" />
	<path
		d="M14.8892 14.0626H15.7264C16.9863 14.0626 17.4984 13.5612 17.4984 12.3244V3.92573C17.4984 2.68891 16.9863 2.1875 15.7264 2.1875H14.8892C13.6293 2.1875 13.1172 2.68891 13.1172 3.92573V12.3328C13.1172 13.5612 13.6293 14.0626 14.8892 14.0626Z"
		fill="currentColor" />
</svg>