<svg width="2.4rem" height="2.4rem" viewBox="0 0 24 24" fill="none" xmlns="http://www.w3.org/2000/svg">
	<path
		d="M14.6387 17.7578C14.0981 17.7578 13.6602 18.1958 13.6602 18.7357C13.6602 19.2755 14.0981 19.7135 14.6387 19.7135C15.1786 19.7135 15.6166 19.2756 15.6166 18.7357C15.6166 18.1958 15.1786 17.7578 14.6387 17.7578Z"
		fill="currentColor" />
	<path
		d="M17.916 17.7578C17.3755 17.7578 16.9375 18.1958 16.9375 18.7357C16.9375 19.2755 17.3755 19.7135 17.916 19.7135C18.4559 19.7135 18.8939 19.2756 18.8939 18.7357C18.8939 18.1958 18.4559 17.7578 17.916 17.7578Z"
		fill="currentColor" />
	<path
		d="M21.1462 14.8827L17.5813 11.9561C16.9202 11.4141 16.0913 11.1172 15.2354 11.1172H14.0905L13.0968 12.2219C12.7419 12.6155 12.2346 12.8414 11.7044 12.8414C11.1743 12.8414 10.667 12.6155 10.3122 12.2219L9.31838 11.1172H8.17283C7.31767 11.1172 6.4888 11.4141 5.82763 11.9561L2.26277 14.8827C1.49895 15.435 1 16.3315 1 17.3468V19.9553C1.00069 21.6363 2.36181 22.9977 4.04237 22.998H11.7044H19.3658C21.0464 22.9977 22.4088 21.6362 22.4088 19.9553V17.3468C22.4089 16.3315 21.9099 15.435 21.1462 14.8827ZM20.6701 19.9553C20.6701 20.3181 20.5252 20.6387 20.2882 20.8774C20.0498 21.1144 19.729 21.2589 19.3658 21.2593H4.04237C3.67992 21.2589 3.35903 21.1144 3.12064 20.8774C2.88294 20.6387 2.73882 20.3181 2.73882 19.9553V17.3468C2.73882 16.984 2.88294 16.6631 3.12064 16.4251C3.35903 16.1877 3.67992 16.0432 4.04237 16.0429H19.3658C19.729 16.0432 20.0498 16.1877 20.2882 16.4251C20.5253 16.6631 20.6701 16.984 20.6701 17.3468V19.9553Z"
		fill="currentColor" />
	<path
		d="M11.1054 11.5118C11.2585 11.6819 11.4775 11.7789 11.7062 11.7789C11.9356 11.7789 12.1539 11.6819 12.3071 11.5118L15.3806 8.09622C15.5948 7.8592 15.6482 7.51824 15.5186 7.22648C15.389 6.93507 15.0993 6.74725 14.7805 6.74725H13.3362V1.80842C13.3362 1.36214 12.9737 1 12.5274 1H10.885C10.4387 1 10.0769 1.36214 10.0769 1.80842V6.74725H8.63263C8.31384 6.74725 8.02419 6.93507 7.89391 7.22648C7.76432 7.51824 7.81837 7.8592 8.03184 8.09622L11.1054 11.5118Z"
		fill="currentColor" />
</svg>