<svg width="2.4rem" height="2.4rem" viewBox="0 0 20 20" fill="none" xmlns="http://www.w3.org/2000/svg">
	<path
		d="M16.8749 16.2374H10.183L12.8962 13.5242L12.8975 13.523L12.8987 13.5217L17.3169 9.10356C17.668 8.75163 17.8651 8.27482 17.8651 7.77772C17.8651 7.28062 17.668 6.80382 17.3169 6.45189L13.7814 2.91635C13.4297 2.56473 12.9528 2.36719 12.4555 2.36719C11.9583 2.36719 11.4813 2.56473 11.1297 2.91635L6.71105 7.33503L6.71025 7.33575L6.70952 7.33656L2.29086 11.7552C1.93924 12.1069 1.7417 12.5838 1.7417 13.0811C1.7417 13.5784 1.93924 14.0553 2.29086 14.4069L5.18842 17.3044C5.30565 17.4216 5.46463 17.4874 5.63039 17.4874H16.8749C17.0407 17.4874 17.1997 17.4216 17.3169 17.3044C17.4341 17.1872 17.4999 17.0282 17.4999 16.8624C17.4999 16.6967 17.4341 16.5377 17.3169 16.4205C17.1997 16.3033 17.0407 16.2374 16.8749 16.2374ZM12.0136 3.80029C12.0717 3.74224 12.1406 3.69619 12.2164 3.66478C12.2922 3.63336 12.3735 3.61719 12.4555 3.61719C12.5376 3.61719 12.6189 3.63336 12.6947 3.66478C12.7705 3.69619 12.8394 3.74224 12.8974 3.80029L16.433 7.33583C16.55 7.45313 16.6157 7.61206 16.6157 7.77776C16.6157 7.94346 16.55 8.1024 16.433 8.21969L12.4555 12.1971L8.03619 7.77776L12.0136 3.80029Z"
		fill="currentColor" />
</svg>