<svg width="2.4rem" height="2.4rem" viewBox="0 0 24 24" fill="none" xmlns="http://www.w3.org/2000/svg">
	<path fill-rule="evenodd" clip-rule="evenodd"
		d="M21.1293 3.70713H13.8936V2L2 3.83801V19.9489L13.8936 22V19.4697H21.1293C21.3484 19.4808 21.563 19.4046 21.7262 19.2577C21.8894 19.1108 21.9878 18.9052 22 18.6859V4.49026C21.9876 4.27103 21.8891 4.06561 21.726 3.91887C21.5628 3.77214 21.3483 3.69601 21.1293 3.70713ZM21.2436 18.816H13.8693L13.8571 17.465H15.6336V15.8917H13.8436L13.835 14.9619H15.6336V13.3885H13.8214L13.8129 12.4588H15.6336V10.8854H13.8071V9.95566H15.6336V8.38226H13.8071V7.45253H15.6336V5.87913H13.8071V4.44878H21.2436V18.816Z"
		fill="rgb(32, 116, 74)" />
	<path
		d="M16.6335 5.87695H19.7214V7.45035H16.6335V5.87695ZM16.6335 8.3808H19.7214V9.95419H16.6335V8.3808ZM16.6335 10.8846H19.7214V12.458H16.6335V10.8846ZM16.6335 13.3885H19.7214V14.9619H16.6335V13.3885ZM16.6335 15.8923H19.7214V17.4657H16.6335V15.8923Z"
		fill="rgb(32, 116, 74)" />
	<path fill-rule="evenodd" clip-rule="evenodd"
		d="M5.10506 8.19014L6.63792 8.10217L7.60149 10.7548L8.74006 7.99275L10.2729 7.90479L8.41149 11.6709L10.2729 15.4464L8.6522 15.3369L7.55792 12.459L6.46292 15.2275L4.97363 15.0959L6.70363 11.761L5.10506 8.19014Z"
		fill="white" />
</svg>