<svg width="2.4rem" height="2.4rem" viewBox="0 0 20 20" fill="none"
    xmlns="http://www.w3.org/2000/svg">
    <path fill-rule="evenodd" clip-rule="evenodd"
        d="M8.95866 17.2891H13.1253C13.512 17.2891 13.8828 17.1357 14.1562 16.8616C14.4303 16.5882 14.5837 16.2174 14.5837 15.8307V13.3307C14.5837 13.165 14.5178 13.006 14.4006 12.8888C14.2834 12.7716 14.1244 12.7057 13.9587 12.7057C13.7929 12.7057 13.6339 12.7716 13.5167 12.8888C13.3995 13.006 13.3337 13.165 13.3337 13.3307V15.8307C13.3337 15.886 13.3117 15.939 13.2726 15.978C13.2336 16.0171 13.1806 16.0391 13.1253 16.0391H8.95866C8.7929 16.0391 8.63393 16.1049 8.51672 16.2221C8.39951 16.3393 8.33366 16.4983 8.33366 16.6641C8.33366 16.8298 8.39951 16.9888 8.51672 17.106C8.63393 17.2232 8.7929 17.2891 8.95866 17.2891ZM14.5837 4.9974V2.4974C14.5837 2.11062 14.43 1.73969 14.1565 1.4662C13.883 1.19271 13.5121 1.03906 13.1253 1.03906H2.29199C2.12623 1.03906 1.96726 1.10491 1.85005 1.22212C1.73284 1.33933 1.66699 1.4983 1.66699 1.66406V14.9974C1.66699 15.1632 1.73284 15.3221 1.85005 15.4393C1.96726 15.5565 2.12623 15.6224 2.29199 15.6224C2.45775 15.6224 2.61672 15.5565 2.73393 15.4393C2.85114 15.3221 2.91699 15.1632 2.91699 14.9974V2.28906H13.1253C13.1806 2.28906 13.2336 2.31101 13.2726 2.35008C13.3117 2.38915 13.3337 2.44214 13.3337 2.4974V4.9974C13.3337 5.16316 13.3995 5.32213 13.5167 5.43934C13.6339 5.55655 13.7929 5.6224 13.9587 5.6224C14.1244 5.6224 14.2834 5.55655 14.4006 5.43934C14.5178 5.32213 14.5837 5.16316 14.5837 4.9974Z"
        fill="currentColor" />
    <path fill-rule="evenodd" clip-rule="evenodd"
        d="M9.58366 17.2626V4.19673C9.58366 3.5459 9.15199 2.9734 8.52616 2.79423L2.46366 1.06256C2.37067 1.03635 2.27288 1.032 2.17794 1.04984C2.08299 1.06768 1.99345 1.10723 1.91632 1.1654C1.83918 1.22357 1.77654 1.29879 1.73329 1.38518C1.69004 1.47157 1.66735 1.56679 1.66699 1.6634V16.6634C1.66691 16.8028 1.71346 16.9383 1.79923 17.0482C1.885 17.1581 2.00506 17.2362 2.14033 17.2701L7.77199 18.6776C7.98699 18.7313 8.21139 18.7352 8.42816 18.6892C8.64493 18.6432 8.84836 18.5484 9.023 18.412C9.19764 18.2756 9.3389 18.1012 9.43605 17.902C9.5332 17.7028 9.58368 17.4842 9.58366 17.2626ZM17.7087 8.5384H12.7087C12.5429 8.5384 12.3839 8.60424 12.2667 8.72146C12.1495 8.83867 12.0837 8.99764 12.0837 9.1634C12.0837 9.32916 12.1495 9.48813 12.2667 9.60534C12.3839 9.72255 12.5429 9.7884 12.7087 9.7884H17.7087C17.8744 9.7884 18.0334 9.72255 18.1506 9.60534C18.2678 9.48813 18.3337 9.32916 18.3337 9.1634C18.3337 8.99764 18.2678 8.83867 18.1506 8.72146C18.0334 8.60424 17.8744 8.5384 17.7087 8.5384Z"
        fill="currentColor" />
    <path fill-rule="evenodd" clip-rule="evenodd"
        d="M17.7332 11.278L19.3999 9.61133C19.4579 9.55336 19.504 9.48451 19.5354 9.40872C19.5668 9.33294 19.583 9.2517 19.583 9.16966C19.583 9.08762 19.5668 9.00638 19.5354 8.9306C19.504 8.85481 19.4579 8.78596 19.3999 8.72799L17.7332 7.06133C17.6161 6.94419 17.4572 6.87838 17.2915 6.87838C17.1259 6.87838 16.967 6.94419 16.8499 7.06133C16.7327 7.17846 16.6669 7.33734 16.6669 7.50299C16.6669 7.66865 16.7327 7.82752 16.8499 7.94466L18.074 9.16966L16.8499 10.3947C16.7919 10.4527 16.7459 10.5215 16.7145 10.5973C16.6831 10.6731 16.6669 10.7543 16.6669 10.8363C16.6669 10.9184 16.6831 10.9996 16.7145 11.0754C16.7459 11.1511 16.7919 11.22 16.8499 11.278C16.9079 11.336 16.9767 11.382 17.0525 11.4134C17.1283 11.4448 17.2095 11.4609 17.2915 11.4609C17.3736 11.4609 17.4548 11.4448 17.5306 11.4134C17.6064 11.382 17.6752 11.336 17.7332 11.278Z"
        fill="currentColor" />
</svg>
    