<svg width="2.4rem" height="2.4rem" viewBox="0 0 24 24" fill="none" xmlns="http://www.w3.org/2000/svg">
	<path
		d="M17.867 19C17.797 19.0001 17.7276 18.9861 17.6629 18.9589C17.5982 18.9316 17.5395 18.8916 17.4901 18.8411L5.75696 6.91544C5.66117 6.81296 5.60855 6.67649 5.61033 6.53514C5.61211 6.39378 5.66815 6.25873 5.76649 6.15877C5.86484 6.05881 5.99771 6.00185 6.13678 6.00004C6.27585 5.99823 6.41012 6.05171 6.51095 6.14908L18.244 18.0747C18.3186 18.1506 18.3693 18.2471 18.3899 18.3522C18.4104 18.4574 18.3999 18.5663 18.3595 18.6653C18.3192 18.7644 18.2509 18.849 18.1632 18.9086C18.0756 18.9681 17.9725 18.9999 17.867 19ZM11.9892 16.8317C10.6062 16.8317 9.27256 16.4157 8.02525 15.5951C6.88961 14.8497 5.86729 13.7822 5.06864 12.512V12.5093C5.7333 11.5414 6.46128 10.7228 7.24327 10.0629C7.25034 10.0569 7.25611 10.0494 7.26021 10.041C7.26431 10.0326 7.26666 10.0235 7.2671 10.0141C7.26753 10.0047 7.26606 9.99539 7.26276 9.98664C7.25946 9.97789 7.25441 9.96993 7.24793 9.96326L6.58395 9.28939C6.57215 9.2773 6.5563 9.27017 6.53956 9.26942C6.52282 9.26866 6.50642 9.27434 6.49361 9.28533C5.66296 9.9968 4.89198 10.8695 4.19099 11.8914C4.07039 12.0673 4.00397 12.2757 4.00017 12.4901C3.99637 12.7045 4.05537 12.9152 4.16966 13.0954C5.04998 14.4957 6.18295 15.675 7.44559 16.5054C8.86723 17.4415 10.3972 17.9158 11.9892 17.9158C12.8485 17.9131 13.7017 17.7692 14.5158 17.4896C14.5265 17.4859 14.5362 17.4795 14.5438 17.471C14.5514 17.4624 14.5567 17.4521 14.5593 17.4408C14.5619 17.4296 14.5616 17.4179 14.5585 17.4068C14.5553 17.3957 14.5495 17.3856 14.5415 17.3775L13.8221 16.6464C13.8056 16.63 13.7851 16.6182 13.7627 16.6123C13.7403 16.6063 13.7168 16.6064 13.6945 16.6125C13.1374 16.7583 12.5644 16.832 11.9892 16.8317ZM19.8283 11.9056C18.9464 10.5192 17.8021 9.34157 16.5194 8.49966C15.1004 7.56729 13.5338 7.07434 11.9892 7.07434C11.139 7.07587 10.2951 7.22281 9.49289 7.50901C9.4822 7.51279 9.47263 7.51928 9.46509 7.52785C9.45755 7.53643 9.45228 7.54682 9.44978 7.55804C9.44728 7.56925 9.44763 7.58094 9.4508 7.59198C9.45396 7.60302 9.45985 7.61306 9.46789 7.62116L10.1862 8.35126C10.2029 8.36797 10.2237 8.3799 10.2464 8.38585C10.2691 8.3918 10.293 8.39155 10.3155 8.38514C10.8612 8.23512 11.4239 8.15891 11.9892 8.15849C13.3455 8.15849 14.6751 8.57961 15.9408 9.41204C17.0977 10.1709 18.132 11.2375 18.9327 12.4951C18.9333 12.4959 18.9336 12.4968 18.9336 12.4978C18.9336 12.4988 18.9333 12.4997 18.9327 12.5005C18.3515 13.4305 17.6303 14.262 16.7954 14.9646C16.7883 14.9706 16.7824 14.978 16.7782 14.9864C16.7741 14.9948 16.7717 15.004 16.7712 15.0134C16.7707 15.0228 16.7722 15.0322 16.7755 15.041C16.7788 15.0498 16.7839 15.0578 16.7904 15.0645L17.4537 15.7384C17.4655 15.7504 17.4812 15.7576 17.4979 15.7584C17.5145 15.7592 17.5309 15.7536 17.5437 15.7428C18.435 14.98 19.2066 14.0834 19.8317 13.0839C19.9422 12.9078 20.0006 12.7031 20 12.4943C19.9994 12.2854 19.9398 12.0811 19.8283 11.9056Z"
		fill="currentColor" />
	<path
		d="M12.0004 9.24268C11.7607 9.24254 11.5218 9.26982 11.2881 9.32399C11.2763 9.32648 11.2654 9.33218 11.2565 9.34047C11.2476 9.34877 11.2411 9.35936 11.2377 9.37111C11.2343 9.38286 11.2341 9.39533 11.2371 9.4072C11.2401 9.41907 11.2462 9.42988 11.2548 9.4385L15.0077 13.252C15.0162 13.2607 15.0268 13.2669 15.0385 13.27C15.0502 13.273 15.0624 13.2728 15.074 13.2693C15.0855 13.2658 15.096 13.2592 15.1041 13.2502C15.1123 13.2412 15.1179 13.2301 15.1204 13.2181C15.2272 12.7418 15.2271 12.2471 15.1201 11.7708C15.013 11.2945 14.8018 10.8489 14.502 10.4669C14.2023 10.085 13.8217 9.77661 13.3887 9.56467C12.9556 9.35272 12.4811 9.24267 12.0004 9.24268ZM8.99314 11.7383C8.98466 11.7295 8.97402 11.7233 8.96234 11.7203C8.95067 11.7172 8.9384 11.7175 8.92684 11.7209C8.91528 11.7244 8.90486 11.731 8.8967 11.74C8.88853 11.749 8.88293 11.7601 8.88048 11.7721C8.7596 12.3089 8.77477 12.8681 8.92459 13.3973C9.07441 13.9265 9.35396 14.4083 9.73704 14.7977C10.1201 15.1871 10.5942 15.4712 11.1148 15.6235C11.6355 15.7757 12.1856 15.7912 12.7137 15.6683C12.7255 15.6658 12.7365 15.6601 12.7453 15.6518C12.7542 15.6435 12.7607 15.6329 12.7641 15.6212C12.7675 15.6094 12.7677 15.597 12.7647 15.5851C12.7617 15.5732 12.7556 15.5624 12.7471 15.5538L8.99314 11.7383Z"
		fill="currentColor" />
</svg>