<svg width="2.4rem" height="2.4rem" viewBox="0 0 24 24" fill="none" xmlns="http://www.w3.org/2000/svg">
	<path
		d="M19.6648 11.123C17.9784 7.9163 15.1115 6 12 6C8.88854 6 6.02161 7.9163 4.33518 11.123C3.88827 11.9704 3.88827 13.0296 4.33518 13.877C6.02161 17.0837 8.88854 19 12 19C15.1115 19 17.9784 17.0837 19.6648 13.877C20.1117 13.0296 20.1117 11.9704 19.6648 11.123ZM18.5771 13.1356C17.1183 15.8993 14.6646 17.5556 12 17.5556C9.33544 17.5556 6.87325 15.8993 5.42292 13.1356C5.22055 12.7407 5.22055 12.2593 5.42292 11.8644C6.88169 9.09111 9.33544 7.44444 12 7.44444C14.6646 7.44444 17.1267 9.10074 18.5771 11.8644C18.7794 12.2593 18.7794 12.7407 18.5771 13.1356Z"
		fill="currentColor" />
	<path
		d="M11.9999 8.88818C10.2545 8.88818 8.83789 10.506 8.83789 12.4993C8.83789 14.4926 10.2545 16.1104 11.9999 16.1104C13.7454 16.1104 15.162 14.4926 15.162 12.4993C15.162 10.506 13.7454 8.88818 11.9999 8.88818ZM11.9999 14.666C10.9544 14.666 10.1027 13.6934 10.1027 12.4993C10.1027 11.3052 10.9544 10.3326 11.9999 10.3326C13.0455 10.3326 13.8972 11.3052 13.8972 12.4993C13.8972 13.6934 13.0455 14.666 11.9999 14.666Z"
		fill="currentColor" />
</svg>