<svg width="2.4em" height="2.4em" fill="none" viewBox="0 0 24 24" xmlns="http://www.w3.org/2000/svg">
	<path
		d="m15.95 2h-10.895c-0.27973 0-0.548 0.11002-0.74579 0.30586-0.1978 0.19584-0.30892 0.46146-0.30892 0.73842v17.962c-0.00173 0.1353 0.02478 0.2694 0.07786 0.394 0.05309 0.1246 0.13161 0.237 0.23064 0.3302 0.09903 0.0931 0.21643 0.165 0.34484 0.2111s0.26506 0.0654 0.40137 0.0568h13.943c0.2616-0.0127 0.5091-0.1212 0.6943-0.3046s0.2949-0.4284 0.3077-0.6875v-14.965"
		stroke="currentColor" stroke-linecap="round" stroke-linejoin="round" stroke-width="1.5" />
	<path
		d="m15.062 5.9365c0 0.27696 0.1111 0.54257 0.3089 0.73842 0.1978 0.19584 0.4661 0.30586 0.7458 0.30586h2.8688c0.2705-0.01341 0.5254-0.12932 0.7119-0.32373 0.1866-0.19441 0.2904-0.45241 0.2901-0.72055l-3.9235-3.8847c-0.2709-3.4e-4 -0.5314 0.10249-0.7278 0.28718-0.1963 0.18468-0.3134 0.43707-0.3269 0.70489l0.0527 2.8927z"
		stroke="currentColor" stroke-linecap="round" stroke-linejoin="round" stroke-width="1.5" />
	<path
		d="m10.708 10.228h-1.7508l2.1727 3.6237-2.3731 3.6445h1.7192l1.4133-2.5585c0.0596-0.1029 0.1091-0.2113 0.1477-0.3237 0.0455 0.1164 0.102 0.2283 0.1687 0.3342l1.3712 2.548h1.7086l-2.2887-3.6654 2.2254-3.6028h-1.5715l-1.2657 2.2974-0.2531 0.5117c0-0.1044-0.116-0.2715-0.2215-0.4908l-1.2024-2.3183z"
		fill="currentColor" />
</svg>