<svg width="49" height="48" viewBox="0 0 49 48" fill="none" xmlns="http://www.w3.org/2000/svg">
	<rect x="0.5" width="48" height="48" rx="24" fill="#53A8FF" fill-opacity="0.1" />
	<g opacity="0.5">
		<path fill-rule="evenodd" clip-rule="evenodd"
			d="M27 34H23C19.2288 34 17.3431 34 16.1716 32.8284C15 31.6569 15 29.7712 15 26V22C15 18.2288 15 16.3431 16.1716 15.1716C17.3431 14 19.2387 14 23.0298 14C23.6358 14 24.1214 14 24.53 14.0167C24.5166 14.0966 24.5095 14.1781 24.5092 14.2606L24.5 17.095C24.4999 18.1921 24.4998 19.1616 24.6049 19.9432C24.7188 20.7903 24.9803 21.6373 25.6716 22.3285C26.3628 23.0198 27.2098 23.2813 28.0569 23.3952C28.8385 23.5003 29.808 23.5002 30.9051 23.5001H31H34.9574C35 24.0344 35 24.6901 35 25.5629V26C35 29.7712 35 31.6569 33.8284 32.8284C32.6569 34 30.7712 34 27 34Z"
			fill="#53A8FF" />
	</g>
	<path
		d="M19 25.75C18.5858 25.75 18.25 26.0858 18.25 26.5C18.25 26.9142 18.5858 27.25 19 27.25H27C27.4142 27.25 27.75 26.9142 27.75 26.5C27.75 26.0858 27.4142 25.75 27 25.75H19Z"
		fill="#53A8FF" />
	<path
		d="M19 29.25C18.5858 29.25 18.25 29.5858 18.25 30C18.25 30.4142 18.5858 30.75 19 30.75H24.5C24.9142 30.75 25.25 30.4142 25.25 30C25.25 29.5858 24.9142 29.25 24.5 29.25H19Z"
		fill="#53A8FF" />
	<path
		d="M24.5092 14.2621L24.5 17.0965C24.4999 18.1936 24.4998 19.1631 24.6049 19.9446C24.7188 20.7918 24.9803 21.6388 25.6716 22.3301C26.3629 23.0213 27.2098 23.2828 28.057 23.3967C28.8385 23.5018 29.808 23.5017 30.9051 23.5016H34.9574C34.9698 23.6572 34.9786 23.823 34.9848 24.0015H35C35 23.734 35 23.6003 34.9901 23.4428C34.9335 22.5483 34.5617 21.5232 34.0315 20.8005C33.9382 20.6733 33.8743 20.5969 33.7467 20.4441C32.9542 19.4955 31.911 18.3139 31 17.5015C30.1892 16.7784 29.0787 15.9873 28.1101 15.3405C27.2781 14.7847 26.862 14.5068 26.2915 14.3003C26.1403 14.2455 25.9408 14.1851 25.7846 14.1466C25.4006 14.0521 25.0268 14.0192 24.5 14.0078L24.5092 14.2621Z"
		fill="#53A8FF" />
</svg>
	