<svg width="2.4rem" height="2.4rem" viewBox="0 0 24 24" fill="none" xmlns="http://www.w3.org/2000/svg">
	<path
		d="M10.0854 18.7446C9.88235 18.7446 9.68759 18.6625 9.54399 18.5163C9.40038 18.37 9.31971 18.1717 9.31971 17.9649V13.9571L2.83014 7.06824C2.42757 6.64667 2.15618 6.11345 2.05 5.53546C1.94382 4.95746 2.00758 4.36041 2.23328 3.81916C2.45897 3.27792 2.83657 2.81656 3.31871 2.49294C3.80086 2.16933 4.3661 1.99785 4.94356 2.00002H20.0667C20.6473 1.99914 21.2151 2.174 21.6979 2.50239C22.1807 2.83078 22.5568 3.29788 22.7784 3.84436C22.9999 4.39084 23.057 4.99205 22.9423 5.57162C22.8276 6.15119 22.5463 6.68298 22.1342 7.09943L15.1622 14.1949C15.0924 14.2731 15.0078 14.336 14.9134 14.3798C14.819 14.4236 14.7169 14.4475 14.6132 14.4499C14.5095 14.4523 14.4064 14.4332 14.3101 14.3938C14.2139 14.3544 14.1265 14.2955 14.0533 14.2207C13.9801 14.1459 13.9226 14.0567 13.8842 13.9586C13.8459 13.8604 13.8275 13.7554 13.8303 13.6498C13.833 13.5442 13.8568 13.4403 13.9001 13.3443C13.9435 13.2484 14.0056 13.1624 14.0826 13.0916L21.0545 6.01171C21.2506 5.81239 21.3842 5.55836 21.4385 5.28172C21.4928 5.00509 21.4654 4.71827 21.3597 4.45751C21.254 4.19674 21.0747 3.97374 20.8446 3.81667C20.6145 3.65961 20.3438 3.57553 20.0667 3.57507H4.94356C4.66876 3.5744 4.39986 3.65624 4.17049 3.81037C3.94113 3.96449 3.76148 4.18406 3.65402 4.44161C3.54656 4.69915 3.51606 4.98324 3.56632 5.25835C3.61659 5.53346 3.74539 5.78737 3.93662 5.98832L10.6368 13.0877C10.7745 13.2332 10.8514 13.4275 10.8512 13.6296V17.9649C10.8512 18.1717 10.7705 18.37 10.6269 18.5163C10.4833 18.6625 10.2885 18.7446 10.0854 18.7446Z"
		fill="currentColor" />
	<path
		d="M10.0854 21.9997C9.9066 21.9989 9.7337 21.9343 9.59671 21.8173C9.45973 21.7002 9.3673 21.538 9.33547 21.3588C9.30364 21.1796 9.33441 20.9947 9.42244 20.8362C9.51047 20.6777 9.65022 20.5555 9.81743 20.491L13.8567 18.951V13.6411C13.8567 13.4343 13.9373 13.2359 14.0809 13.0897C14.2245 12.9435 14.4193 12.8613 14.6224 12.8613C14.8255 12.8613 15.0202 12.9435 15.1638 13.0897C15.3074 13.2359 15.3881 13.4343 15.3881 13.6411V19.489C15.3886 19.6483 15.3412 19.804 15.2522 19.935C15.1632 20.0661 15.037 20.1662 14.8904 20.2219L10.3534 21.949C10.268 21.9827 10.1771 21.9999 10.0854 21.9997Z"
		fill="currentColor" />
</svg>