<svg width="2.4rem" height="2.4rem" viewBox="0 0 24 24" fill="none" xmlns="http://www.w3.org/2000/svg">
	<path
		d="M10.2585 19.9434C10.1644 19.9871 10.0606 20.006 9.95715 19.9983C9.85366 19.9906 9.75387 19.9566 9.66727 19.8994C9.57939 19.8404 9.50748 19.7606 9.45792 19.6671C9.40837 19.5735 9.38272 19.4692 9.38327 19.3634V15.5121C9.38327 15.2625 9.58087 15.0585 9.82407 15.0593L13.7081 15.0713M10.2585 19.9434L13.7833 18.2882M10.2585 19.9434L10.0046 19.3969L10.0249 19.3667L10.0271 19.3634L10.0853 19.2767C10.1001 19.2866 10.1123 19.3001 10.1206 19.3159C10.1284 19.3306 10.1327 19.3468 10.1332 19.3634C10.1332 19.3647 10.1333 19.3659 10.1333 19.3672H10.1333V19.3634V19.1736M10.2585 19.9434L10.003 19.3993L10.0016 19.4014L9.66729 19.8994L10.0007 19.3944L9.99507 19.3825L9.98757 19.3665L9.98611 19.3634L9.93969 19.2645L9.94244 19.2632M13.7833 18.2882C13.8925 18.2357 13.9845 18.1534 14.0486 18.0507C14.1128 17.948 14.1464 17.8292 14.1457 17.7082V15.5233C14.1472 15.4055 14.1021 15.2918 14.0201 15.2071C13.9381 15.1225 13.826 15.0736 13.7081 15.0713M13.7833 18.2882L13.5153 17.7175L13.5127 17.712L13.511 17.7082L13.4645 17.6093L13.3957 17.6416M13.7833 18.2882L13.5065 17.712L13.5047 17.7082L13.4586 17.6121C13.4396 17.6212 13.4237 17.6355 13.4126 17.6533C13.4022 17.6698 13.3965 17.6887 13.3958 17.7082C13.3957 17.7097 13.3957 17.7111 13.3957 17.7126L13.3957 17.7082L13.3957 17.6416M13.7081 15.0713L13.6994 15.5176L13.6992 15.5233L13.6934 15.8212C13.6133 15.8196 13.537 15.7864 13.4812 15.7288C13.4277 15.6735 13.3972 15.6 13.3958 15.5233C13.3958 15.5202 13.3957 15.517 13.3958 15.5138L13.3957 15.5138V15.5233V15.8204M13.7081 15.0713L13.7068 15.5105L13.7067 15.5177L13.7067 15.5233L13.7058 15.8213L13.3957 15.8204M13.3957 15.8204L10.1333 15.8103M13.3957 15.8204V17.6416M10.1333 15.8103V19.1736M10.1333 15.8103V15.5121C10.1333 15.6549 10.0161 15.8096 9.82226 15.8093M10.1333 15.8103L9.82226 15.8093M13.3957 17.6416L10.1333 19.1736M10.1333 19.1736L9.94244 19.2632M9.82226 15.8093C9.82204 15.8093 9.82182 15.8093 9.8216 15.8093H9.82175L9.82226 15.8093ZM9.94244 19.2632L9.98898 19.3634L9.99042 19.3665L9.99729 19.3813L10.0023 19.392L10.0158 19.3715L10.019 19.3666L10.0212 19.3634L10.0805 19.2735C10.0603 19.2601 10.037 19.2522 10.0128 19.2504C9.98865 19.2486 9.96442 19.253 9.94244 19.2632ZM13.8337 12.885L9.71562 12.8721L5.01662 7.70297C5.01639 7.70271 5.01615 7.70245 5.01591 7.70219C4.84417 7.51162 4.74938 7.26401 4.75 7.00744H4.75001V7.00563V5.75522C4.75001 5.17853 5.19758 4.75 5.70242 4.75H18.2978C18.8035 4.75 19.2502 5.17784 19.2502 5.75362V6.97923C19.2502 7.25485 19.1417 7.51612 18.9577 7.70192L18.9572 7.70237L13.8337 12.885Z"
		stroke="currentColor" stroke-width="1.5" />
</svg>