<svg width="2.4rem" height="2.4rem" viewBox="0 0 20 20" fill="none" xmlns="http://www.w3.org/2000/svg">
	<path
		d="M10.4156 10.3922C9.22813 11.0797 8.0375 11.6391 6.96563 12.0141C6.65938 12.1266 6.35938 12.2203 6.075 12.2984C6.04375 12.3078 6.00625 12.3172 5.95625 12.3328C5.70625 12.3984 5.4625 12.4484 5.22812 12.4828C5.22812 12.4828 5.0125 12.5109 4.97187 12.5141C4.74687 11.9047 4.625 11.2453 4.625 10.5547C4.625 7.40781 7.17813 4.85156 10.3281 4.85156C12.1281 4.85156 13.7344 5.68906 14.7813 6.99531C14.75 7.03594 14.7125 7.07344 14.6688 7.12656C14.5219 7.29844 14.3375 7.49219 14.1031 7.71406L14.0531 7.76094C13.8156 7.98594 13.5625 8.21094 13.2844 8.43906C12.4719 9.10156 11.4813 9.77656 10.4156 10.3922ZM15.9719 11.3828C15.5688 14.1391 13.1938 16.2578 10.3281 16.2578C9.58125 16.2578 8.86875 16.1141 8.21563 15.8516C8.26563 15.8328 8.50625 15.7359 8.50625 15.7359C8.90313 15.5766 9.32812 15.3953 9.80625 15.1766C10.6562 14.7828 11.4875 14.3516 12.2781 13.8922C13.0563 13.4453 13.8219 12.9547 14.5625 12.4391C15.0188 12.1172 15.4094 11.8266 15.7844 11.5328C15.7844 11.5328 15.9219 11.4234 15.9719 11.3828Z"
		fill="currentColor" />
	<path
		d="M16.484 7.8219C16.3027 8.01253 16.1027 8.2094 15.8871 8.4094C15.8465 8.4469 15.8058 8.48753 15.7621 8.52503C15.5277 8.74065 15.2777 8.95628 15.009 9.17815C15.0027 9.18128 14.9996 9.18753 14.9933 9.19065C14.7058 9.42815 14.3996 9.66878 14.0746 9.91253C13.209 10.5563 12.2152 11.2125 11.1058 11.8532C9.97458 12.5063 8.88083 13.05 7.87458 13.4813C7.52458 13.6313 7.18708 13.7657 6.85896 13.8875C6.82771 13.9 6.79646 13.9094 6.76833 13.9219C6.46833 14.0313 6.17771 14.1313 5.89646 14.2219C5.81833 14.2469 5.74021 14.2719 5.66521 14.2938C5.41208 14.3719 5.16521 14.4375 4.93083 14.4938C3.25271 14.9094 2.10271 14.8438 1.80271 14.325C1.49958 13.8032 2.02771 12.7532 3.21833 11.525C3.35896 11.375 3.50896 11.2282 3.66521 11.0813C3.68708 11.3782 3.73083 11.6688 3.79333 11.9532C3.53708 12.4063 3.46833 12.7875 3.62146 13.0563C3.73708 13.2563 3.97146 13.3813 4.29646 13.4313C4.50896 13.4657 4.76521 13.4688 5.05271 13.4438C5.14333 13.4344 5.23708 13.4219 5.33708 13.4094H5.34021C5.60271 13.3719 5.88708 13.3157 6.19646 13.2344C6.23396 13.225 6.27146 13.2125 6.31208 13.2032C6.61833 13.1188 6.94333 13.0157 7.28396 12.8938C8.37771 12.5094 9.61521 11.9344 10.8871 11.2C12.0277 10.5407 13.0465 9.84065 13.8808 9.1594C14.1808 8.91253 14.4527 8.6719 14.7027 8.4344C14.7152 8.42503 14.7246 8.41565 14.734 8.40628C14.9808 8.1719 15.2027 7.94378 15.3871 7.72503C15.434 7.6719 15.4777 7.6219 15.5183 7.5719C15.7121 7.3344 15.8683 7.10628 15.9808 6.8969C16.2183 6.46253 16.2808 6.09378 16.1308 5.8344C15.9371 5.50315 15.4277 5.38128 14.7058 5.45003C14.5308 5.30003 14.3496 5.1594 14.159 5.02815C16.1652 4.44065 17.5652 4.45628 17.8996 5.03128C18.1965 5.55003 17.6777 6.57815 16.484 7.8219Z"
		fill="currentColor" />
	<path
		d="M16.9402 9.28498C16.7246 9.49123 16.4996 9.69748 16.2621 9.90685C16.2089 9.95373 16.1558 10.0006 16.0996 10.0475C15.8277 10.2881 15.5402 10.5256 15.2402 10.7631C15.2214 10.7787 15.1996 10.7944 15.1808 10.81C14.8121 11.1006 14.4246 11.385 14.0214 11.6694C13.3308 12.1506 12.5902 12.6256 11.8089 13.0787C11.0027 13.5444 10.1996 13.9569 9.41207 14.3225C8.98707 14.5162 8.56832 14.6975 8.15895 14.86C8.11207 14.8787 8.0652 14.8975 8.01832 14.9162C7.6902 15.0506 7.36207 15.1725 7.04332 15.2819C6.94957 15.3131 6.85582 15.3444 6.7652 15.3756C6.49332 15.4662 6.2277 15.5506 5.9652 15.6256C3.1652 16.4412 1.00582 16.4069 0.452698 15.4475C-0.137927 14.4256 1.1777 12.4631 3.64332 10.3819C3.64332 10.4194 3.64332 10.4569 3.64332 10.4975C3.3777 10.7381 3.13082 10.9787 2.89957 11.2162C1.50582 12.6569 0.996448 13.81 1.42145 14.5475C1.90582 15.385 3.3777 15.3912 5.24332 14.8912C5.48707 14.8256 5.7402 14.7506 5.99645 14.6694C6.07145 14.6444 6.14957 14.6194 6.2277 14.5912C6.52145 14.4944 6.82145 14.385 7.1277 14.2694C7.15895 14.2569 7.1902 14.2444 7.22145 14.2319C7.56832 14.0975 7.92457 13.9475 8.28707 13.7881C9.29957 13.3412 10.3371 12.8131 11.3308 12.2412C12.3058 11.6787 13.2589 11.0569 14.1308 10.4162C14.4683 10.1694 14.7964 9.91623 15.1058 9.66623C15.1058 9.66623 15.1214 9.65373 15.1277 9.64748C15.4027 9.4256 15.6652 9.20685 15.9121 8.98498C15.9558 8.94748 15.9964 8.90685 16.0402 8.86935C16.2621 8.66935 16.4714 8.46935 16.6652 8.27248C18.0277 6.89748 18.7496 5.62248 18.2808 4.8131C17.7277 3.85685 15.8933 3.98498 13.6496 4.7131C13.6183 4.69123 13.5871 4.67248 13.5558 4.65685C16.5964 3.56623 18.9527 3.40373 19.5433 4.4256C20.0964 5.38498 19.0496 7.26935 16.9433 9.28498H16.9402Z"
		fill="currentColor" />
</svg>