<svg width="2.4rem" height="2.4rem" viewBox="0 0 10 10" fill="none" xmlns="http://www.w3.org/2000/svg">
	<path
		d="M4.81093 0.583669C4.75365 0.5833 4.69679 0.593976 4.64351 0.615152C4.58978 0.63651 4.54055 0.668214 4.49878 0.708706C4.45703 0.749184 4.42361 0.797609 4.40065 0.851286C4.37768 0.904976 4.36567 0.962759 4.36543 1.02129L4.36543 1.0223L4.36543 7.19959L2.86323 5.72238L2.86321 5.72237C2.68749 5.54961 2.40972 5.55134 2.2365 5.72078L2.23605 5.72122L1.96752 5.98523C1.92581 6.02536 1.89235 6.07342 1.86925 6.12678C1.84581 6.18093 1.83359 6.2393 1.83342 6.29842C1.83325 6.35755 1.84514 6.416 1.86827 6.47027C1.89117 6.524 1.92457 6.57248 1.96636 6.61298L4.68903 9.2902L4.68902 9.29021L4.69033 9.29148C4.77382 9.37239 4.88546 9.41699 5.00089 9.41699C5.11633 9.41699 5.22796 9.37238 5.31144 9.29148L5.31145 9.29148L5.31275 9.2902L8.03619 6.61222L8.0362 6.61222L8.03781 6.61061C8.12027 6.52803 8.16708 6.41595 8.16675 6.29842C8.16641 6.18088 8.11895 6.06909 8.03605 5.987L8.03541 5.98637L7.76652 5.72201C7.72511 5.68068 7.676 5.64812 7.62217 5.62597C7.56783 5.60362 7.50959 5.59225 7.45087 5.59249C7.39219 5.59274 7.33404 5.60456 7.27985 5.62738C7.22651 5.64983 7.178 5.68253 7.13717 5.72373L5.63596 7.19968L5.63596 1.0223C5.63596 0.777044 5.43855 0.583669 5.19179 0.583669L4.81093 0.583669ZM4.81093 0.583669C4.81143 0.583672 4.81194 0.583677 4.81245 0.583681L4.80999 0.833657L4.80999 0.583669L4.81093 0.583669Z"
		fill="currentColor" stroke="currentColor" stroke-width="0.5" />
</svg>