<svg width="2.4rem" height="2.4rem" viewBox="0 0 10 10" fill="none" xmlns="http://www.w3.org/2000/svg">
	<path
		d="M5.18907 9.41633C5.24635 9.4167 5.30321 9.40602 5.35648 9.38485C5.41022 9.36349 5.45945 9.33179 5.50122 9.29129C5.54296 9.25082 5.57639 9.20239 5.59935 9.14871C5.62232 9.09502 5.63433 9.03724 5.63457 8.97871V8.9777V2.80041L7.13677 4.27762L7.13679 4.27763C7.31251 4.45039 7.59028 4.44866 7.7635 4.27922L7.76395 4.27878L8.03248 4.01476C8.07419 3.97463 8.10765 3.92657 8.13075 3.87322C8.15419 3.81907 8.16641 3.7607 8.16658 3.70158C8.16675 3.64245 8.15486 3.584 8.13173 3.52973C8.10884 3.47601 8.07544 3.42754 8.03366 3.38704L5.31097 0.709796L5.31098 0.709791L5.30967 0.708523C5.22618 0.627614 5.11454 0.583008 4.99911 0.583008C4.88367 0.583008 4.77204 0.627619 4.68856 0.708523L4.68855 0.708518L4.68725 0.709796L1.96381 3.38778L1.9638 3.38778L1.96218 3.38939C1.87973 3.47197 1.83292 3.58405 1.83325 3.70158C1.83359 3.81912 1.88105 3.93091 1.96395 4.013L1.96459 4.01363L2.23346 4.27798C2.27487 4.31931 2.32399 4.35188 2.37783 4.37403C2.43217 4.39638 2.49041 4.40775 2.54912 4.40751C2.60781 4.40726 2.66596 4.39544 2.72015 4.37262C2.77349 4.35016 2.822 4.31746 2.86283 4.27626L4.36404 2.80032V8.9777C4.36404 9.22295 4.56145 9.41633 4.80821 9.41633H5.18907ZM5.18907 9.41633C5.18856 9.41633 5.18806 9.41632 5.18755 9.41632L5.19001 9.16633M5.18907 9.41633H5.19001V9.16633M5.19001 9.16633C5.2154 9.16658 5.2406 9.16189 5.26414 9.15253C5.28768 9.14317 5.30911 9.12934 5.32719 9.1118C5.34528 9.09427 5.35966 9.07339 5.3695 9.05038C5.37935 9.02736 5.38447 9.00267 5.38457 8.9777L5.19001 9.16633Z"
		fill="currentColor" stroke="currentColor" stroke-width="0.5" />
</svg>