<svg width="2rem" height="2rem" viewBox="0 0 20 20" fill="none" xmlns="http://www.w3.org/2000/svg">
	<path opacity="0.4"
		d="M5.59403 12.9531C5.26591 12.9531 4.93778 13.0781 4.68778 13.3281C4.20341 13.8281 4.49689 14.5156 4.99689 15C4.99689 15 6.0404 16.3256 7.00293 16.5C7.3872 16.5696 7.61633 16.5552 8.00293 16.5C8.86739 16.3765 10.0029 15.5 10.0029 15.5C10.0029 15.5 8.76007 15.2747 8.07841 14.875C7.32276 14.4319 6.46903 13.3125 6.46903 13.3125C6.21903 13.0781 5.90653 12.9531 5.59403 12.9531Z"
		fill="currentColor" />
	<path opacity="0.4"
		d="M17.344 16.3125C17.344 17.4687 16.5158 18.4375 15.3752 18.625L7.87521 19.8281C7.70333 19.8594 7.53146 19.875 7.35958 19.875C6.51583 19.875 5.71896 19.5469 5.12521 18.9687L1.00021 15C0.500209 14.5156 0.484584 13.7344 0.968959 13.2344C1.21896 12.9687 1.54708 12.8437 1.87521 12.8437C2.18771 12.8437 2.50021 12.9531 2.75021 13.1875L6.31271 16.625C6.78146 17.0781 7.46896 17.1875 8.04708 16.9219L12.844 14.7344C13.3127 14.5312 13.594 14.0625 13.5783 13.5469C13.5471 12.875 13.0002 12.3594 12.3283 12.3594H9.12521C8.45333 12.3594 7.87521 11.8594 7.82833 11.1875C7.78146 10.4531 8.35958 9.85938 9.07833 9.85938H12.9377C13.3283 9.85938 13.7346 9.9375 14.094 10.0781L15.094 10.4844L17.3596 11.4219V16.3125H17.344Z"
		fill="currentColor" />
	<path
		d="M17.3438 11.4375C17.3438 11.1719 17.5469 10.9688 17.8125 10.9688H19.375C19.6406 10.9688 19.8438 11.1719 19.8438 11.4375V18.625C19.8438 18.8906 19.6406 19.0938 19.375 19.0938H17.8125C17.5469 19.0938 17.3438 18.8906 17.3438 18.625V11.4375Z"
		fill="currentColor" />
	<path
		d="M3.625 5.21875L4.45312 7.5C4.73437 8.26562 6.9375 8.17188 9.35938 7.29688C11.7812 6.42188 13.5312 5.0625 13.25 4.29688L12.4219 2.01562L3.625 5.21875Z"
		fill="currentColor" />
	<path
		d="M9.48438 3.07847L10.7969 6.67222C12.4375 5.85972 13.4688 4.89097 13.25 4.28159L12.4219 2.01597C12.2031 1.40659 11.2656 2.65659 9.48438 3.07847Z"
		fill="currentColor" />
	<path opacity="0.4"
		d="M7.49962 5.34292C7.84337 5.24917 8.18712 5.13979 8.53087 5.01479C10.9684 4.12417 12.7027 2.78042 12.4215 2.01479C12.1402 1.24917 9.95275 1.34292 7.51525 2.21792C5.07775 3.09292 3.34337 4.45229 3.62462 5.21792C3.78087 5.62417 4.484 5.79604 5.46837 5.71792L7.49962 5.34292Z"
		fill="currentColor" />
</svg>