<svg width="26" height="22" viewBox="0 0 26 22" fill="none" xmlns="http://www.w3.org/2000/svg">
	<path d="M24.0163 21.4538L26 19.9111V9.9764C26 9.58148 25.5454 9.48275 25.3181 9.48275H22.9624V21.0835C23.2104 21.7253 23.7683 21.5977 24.0163 21.4538Z" fill="currentcolor"/>
	<path d="M21.3507 19.0472V9.54446H19.9868L15.1515 7.13791L11.494 12.4447C12.1883 12.494 13.0232 12.0127 13.3538 11.7659C13.4571 11.5191 13.8497 11.0254 14.5936 11.0254C15.3375 11.0254 15.3168 11.5602 15.2135 11.8276C14.2217 13.6047 12.2793 14.049 11.432 14.049H6.41075C5.79084 14.1724 4.55101 14.8018 4.55101 16.3321C4.55101 17.8625 5.79084 18.4919 6.41075 18.6153H11.3701C14.9903 21.0342 19.5322 19.9111 21.3507 19.0472Z" fill="currentcolor"/>
	<path d="M14.4696 5.59525L11.928 3.86748L5.66686 12.6298H9.51032L14.4696 5.59525Z" fill="currentcolor"/>
	<path d="M15.2135 4.29942L12.8578 2.63335C13.2091 2.09857 13.9737 0.942602 14.2217 0.597047C14.4696 0.251492 14.8622 0.370791 15.0275 0.473634C15.4821 0.782166 16.4533 1.44859 16.7013 1.64605C16.9493 1.84351 16.8046 2.18084 16.7013 2.32482L15.2135 4.29942Z" fill="currentcolor"/>
	<path d="M8.39447 5.0399H9.26235L1.01751 16.7024C-0.123128 15.8138 -0.077668 14.481 0.0876421 13.9256C1.45145 11.7453 4.24106 7.31069 4.48902 7.0145C4.73699 6.71831 5.08827 6.52085 5.23292 6.45914L8.39447 5.0399Z" fill="currentcolor"/>
	<path d="M4.61301 19.4175C3.32359 18.5289 3.04256 17.0726 3.06322 16.4556C2.07143 17.1343 1.38939 20.0962 1.57537 20.6516C1.72415 21.0959 2.38125 21.0013 2.69121 20.8984L4.61301 19.4175Z" fill="currentcolor"/>
	<path d="M6.03881 20.0345H8.33248V20.775C8.24983 21.063 7.91094 21.6389 7.21664 21.6389C6.52234 21.6389 6.14212 21.063 6.03881 20.775V20.0345Z" fill="currentcolor"/>
	<path d="M10.8741 20.0962H9.82027C9.77068 21.3797 10.5848 21.6595 10.9981 21.6389C11.6428 21.6389 12.052 21.0218 12.1759 20.7133L10.8741 20.0962Z" fill="currentcolor"/>
	</svg>
	