<svg width="1.6rem" height="1.6rem" viewBox="0 0 16 16" fill="none" xmlns="http://www.w3.org/2000/svg">
	<path
		d="M7.99968 1.33203C6.68114 1.33203 5.3922 1.72302 4.29588 2.45557C3.19955 3.18811 2.34506 4.2293 1.84048 5.44747C1.3359 6.66565 1.20387 8.00609 1.46111 9.2993C1.71834 10.5925 2.35328 11.7804 3.28563 12.7127C4.21798 13.6451 5.40587 14.28 6.69908 14.5373C7.99228 14.7945 9.33273 14.6625 10.5509 14.1579C11.7691 13.6533 12.8103 12.7988 13.5428 11.7025C14.2754 10.6062 14.6663 9.31724 14.6663 7.9987C14.6663 7.12322 14.4939 6.25631 14.1589 5.44747C13.8238 4.63864 13.3328 3.90371 12.7137 3.28465C12.0947 2.6656 11.3597 2.17453 10.5509 1.8395C9.74206 1.50447 8.87516 1.33203 7.99968 1.33203ZM7.99968 13.332C6.94484 13.332 5.9137 13.0192 5.03664 12.4332C4.15957 11.8472 3.47599 11.0142 3.07232 10.0397C2.66865 9.06514 2.56304 7.99278 2.76882 6.95822C2.97461 5.92365 3.48256 4.97334 4.22844 4.22746C4.97432 3.48158 5.92463 2.97363 6.9592 2.76784C7.99376 2.56206 9.06612 2.66767 10.0407 3.07134C11.0152 3.47501 11.8481 4.15859 12.4342 5.03566C13.0202 5.91272 13.333 6.94386 13.333 7.9987C13.333 9.41319 12.7711 10.7697 11.7709 11.7699C10.7707 12.7701 9.41417 13.332 7.99968 13.332Z"
		fill="currentColor" />
	<path
		d="M8.00033 4.00004C7.38149 4.00004 6.78799 4.24588 6.35041 4.68346C5.91282 5.12105 5.66699 5.71454 5.66699 6.33338C5.66699 6.51019 5.73723 6.67976 5.86225 6.80478C5.98728 6.92981 6.15685 7.00004 6.33366 7.00004C6.51047 7.00004 6.68004 6.92981 6.80506 6.80478C6.93009 6.67976 7.00033 6.51019 7.00033 6.33338C7.00033 6.1356 7.05897 5.94226 7.16886 5.77781C7.27874 5.61336 7.43492 5.48519 7.61764 5.4095C7.80037 5.33381 8.00144 5.31401 8.19542 5.35259C8.3894 5.39118 8.56758 5.48642 8.70743 5.62627C8.84728 5.76612 8.94253 5.94431 8.98111 6.13829C9.0197 6.33227 8.99989 6.53334 8.92421 6.71606C8.84852 6.89879 8.72034 7.05497 8.5559 7.16485C8.39145 7.27473 8.19811 7.33338 8.00033 7.33338C7.82351 7.33338 7.65395 7.40362 7.52892 7.52864C7.4039 7.65366 7.33366 7.82323 7.33366 8.00004V9.33338C7.33366 9.51019 7.4039 9.67976 7.52892 9.80478C7.65395 9.92981 7.82351 10 8.00033 10C8.17714 10 8.34671 9.92981 8.47173 9.80478C8.59675 9.67976 8.66699 9.51019 8.66699 9.33338V8.56005C9.20573 8.40271 9.66944 8.05595 9.97265 7.58367C10.2759 7.11139 10.3981 6.54542 10.317 5.99009C10.2358 5.43475 9.95658 4.92748 9.53085 4.56177C9.10513 4.19606 8.56155 3.99656 8.00033 4.00004Z"
		fill="currentColor" />
	<path
		d="M7.99967 12.0013C8.36786 12.0013 8.66634 11.7028 8.66634 11.3346C8.66634 10.9664 8.36786 10.668 7.99967 10.668C7.63148 10.668 7.33301 10.9664 7.33301 11.3346C7.33301 11.7028 7.63148 12.0013 7.99967 12.0013Z"
		fill="currentColor" />
</svg>