<svg width="2.4rem" height="2.4rem" viewBox="0 0 24 24" fill="none" xmlns="http://www.w3.org/2000/svg">
	<path
		d="M10.5899 19.5673H6.75744C5.51562 19.563 4.50876 18.6131 4.49964 17.4372V10.2184C4.50208 9.82472 4.6881 9.45221 5.00785 9.20064L5.68269 8.72728C5.92906 8.47871 5.95411 8.09943 5.74237 7.82373C5.53063 7.54803 5.14186 7.45374 4.81623 7.5991L4.12473 8.08824C3.4272 8.59933 3.01326 9.38329 3 10.2184V17.445C3.00458 19.4083 4.68416 20.9988 6.75744 21.0031H10.5899C11.004 21.0031 11.3397 20.6853 11.3397 20.2931C11.3397 19.901 11.004 19.5831 10.5899 19.5831V19.5673Z"
		fill="currentColor" />
	<path
		d="M21.0034 10.1994C20.9946 9.37044 20.5942 8.58881 19.912 8.06926L14.155 3.72221C12.8899 2.75926 11.0878 2.75926 9.82273 3.72221L7.99817 4.97662C7.65537 5.20973 7.57704 5.66185 7.82321 5.98646C8.06938 6.31107 8.54683 6.38525 8.88962 6.15214L10.7392 4.8425C11.4651 4.27655 12.5126 4.27655 13.2386 4.8425L18.9955 9.18955C19.3269 9.43827 19.5227 9.81482 19.5288 10.2152V17.4418C19.5288 18.6183 18.5216 19.572 17.2793 19.572H15.5714C15.3965 19.572 15.2548 19.4377 15.2548 19.2722V16.0139C15.2548 14.9756 14.3684 14.1326 13.2719 14.1283H10.7725C10.2444 14.1283 9.73794 14.327 9.36452 14.6806C8.9911 15.0342 8.78131 15.5138 8.78131 16.0139V17.2604C8.78131 17.6525 9.11702 17.9704 9.53113 17.9704C9.94525 17.9704 10.281 17.6525 10.281 17.2604V16.0139C10.2787 15.8911 10.3286 15.7727 10.4195 15.6852C10.5104 15.5977 10.6346 15.5484 10.7642 15.5484H13.2636C13.5305 15.5484 13.7468 15.7533 13.7468 16.006V19.2722C13.7514 20.2233 14.5669 20.9921 15.5714 20.9921H17.2376C19.3128 20.9921 20.9951 19.399 20.9951 17.4339L21.0034 10.1994Z"
		fill="currentColor" />
</svg>