<svg width="2.4rem" height="2.4rem" viewBox="0 0 24 18" fill="none" xmlns="http://www.w3.org/2000/svg">
    <path fill-rule="evenodd" clip-rule="evenodd"
        d="M12.5092 4H20.8862V5H16.5H12.5092V4ZM12.5092 7H20.8862V8H12.5L12.5092 7ZM12.5092 10H20.8862V11H12.5092V10ZM5.54223 9.65238C4.83666 10.5265 3.60088 10.0631 3.10367 12.8558C5.79927 14.2432 8.44956 14.2432 10.9353 12.8558C10.4491 10.0098 9.42053 10.5596 8.56877 9.63549C8.2912 11.0504 7.82639 11.8895 7.38812 12.1764L7.21877 10.5201H6.77449C6.7198 11.0664 6.67038 11.6174 6.62082 12.1499C6.11349 11.7964 5.75293 10.9311 5.54223 9.65238ZM6.97845 4.10401C4.43138 4.12245 5.34135 9.124 6.99795 9.11366C8.75777 9.1028 9.43402 4.06472 6.97845 4.10401ZM6.76158 10.3596L6.56672 9.78318L6.67581 9.59723L7.26774 9.59689L7.38607 9.76371L7.22346 10.3596H6.76158ZM21.4295 18C22.8447 18 24 16.6423 24 14.9789V3.02123C24 1.35784 22.8446 0 21.4295 0H2.57053C1.15543 0.000172336 0 1.35801 0 3.02123V14.9788C0 16.642 1.15528 17.9998 2.57053 17.9998L21.4295 18Z"
        fill="currentColor" />
</svg>
    