<svg width="1.6rem" height="1.6rem" viewBox="0 0 16 16" fill="none" xmlns="http://www.w3.org/2000/svg">
	<path
		d="M8.00006 1.06641C7.14672 1.06641 6.40006 1.81307 6.40006 2.66641C6.40006 3.51974 7.14672 4.26641 8.00006 4.26641C8.85339 4.26641 9.60006 3.51974 9.60006 2.66641C9.60006 1.81307 8.85339 1.06641 8.00006 1.06641ZM4.26672 5.33307V6.39974C4.26672 6.39974 6.40006 6.39974 6.40006 8.53307V10.6664C6.40006 12.7997 4.26672 12.7997 4.26672 12.7997V13.8664H11.7334V12.7997C11.7334 12.7997 9.60006 12.7997 9.60006 10.6664V6.39974C9.60006 5.86641 9.06672 5.33307 8.53339 5.33307H4.26672Z"
		fill="currentColor" />
</svg>