<svg width="2.4rem" height="2.4rem" viewBox="0 0 24 24" fill="none" xmlns="http://www.w3.org/2000/svg">
	<path
		d="M12 21C9.59602 21 7.3359 20.0639 5.63602 18.364C3.93615 16.6641 3 14.404 3 12C3 9.59602 3.93615 7.33594 5.63602 5.63602C7.3359 3.93615 9.59602 3 12 3C14.404 3 16.6641 3.93615 18.364 5.63602C20.0639 7.33594 21 9.59602 21 12C21 14.404 20.0639 16.6641 18.364 18.364C16.6641 20.0639 14.404 21 12 21ZM12 3.75C7.45091 3.75 3.75 7.45091 3.75 12C3.75 16.5491 7.45091 20.25 12 20.25C16.5491 20.25 20.25 16.5491 20.25 12C20.25 7.45091 16.5491 3.75 12 3.75Z"
		fill="currentColor" />
	<path
		d="M12 18C11.1729 18 10.5 17.3271 10.5 16.5V10.875C10.5 10.0479 11.1729 9.375 12 9.375C12.8271 9.375 13.5 10.0479 13.5 10.875V16.5C13.5 17.3271 12.8271 18 12 18ZM12 10.125C11.5865 10.125 11.25 10.4615 11.25 10.875V16.5C11.25 16.9136 11.5865 17.25 12 17.25C12.4136 17.25 12.75 16.9136 12.75 16.5V10.875C12.75 10.4615 12.4136 10.125 12 10.125ZM12 8.625C11.1729 8.625 10.5 7.9521 10.5 7.125C10.5 6.2979 11.1729 5.625 12 5.625C12.8271 5.625 13.5 6.2979 13.5 7.125C13.5 7.9521 12.8271 8.625 12 8.625ZM12 6.375C11.5865 6.375 11.25 6.71145 11.25 7.125C11.25 7.53855 11.5865 7.875 12 7.875C12.4136 7.875 12.75 7.53855 12.75 7.125C12.75 6.71145 12.4136 6.375 12 6.375Z"
		fill="currentColor" />
</svg>