<svg width="2.4rem" height="2.4rem" viewBox="0 0 24 24" fill="none"
    xmlns="http://www.w3.org/2000/svg">
    <path
        d="M19.2754 4.42188C17.4004 2.54687 14.4004 2.54687 12.5254 4.42188C11.6254 5.32188 11.1004 6.52187 11.1004 7.79688C11.1004 8.77187 11.4004 9.67188 11.9254 10.4219L4.27539 18.0719C3.90039 18.4469 3.90039 19.0469 4.27539 19.4219C4.42539 19.5719 4.72539 19.7219 4.95039 19.7219C5.17539 19.7219 5.40039 19.6469 5.62539 19.4219L6.15039 18.8969L8.02539 20.7719C8.17539 20.9219 8.47539 21.0719 8.70039 21.0719C8.92539 21.0719 9.15039 20.9969 9.37539 20.7719C9.75039 20.3969 9.75039 19.7969 9.37539 19.4219L7.50039 17.5469L8.32539 16.7219L9.37539 17.7719C9.52539 17.9219 9.82539 18.0719 10.0504 18.0719C10.2754 18.0719 10.5004 17.9969 10.7254 17.7719C11.1004 17.3969 11.1004 16.7969 10.7254 16.4219L9.67539 15.3719L13.2754 11.7719C14.1004 12.2969 15.0004 12.5969 15.9004 12.5969C17.1004 12.5969 18.3754 12.1469 19.2754 11.1719C20.1754 10.2719 20.7004 9.07188 20.7004 7.79688C20.7004 6.52187 20.1754 5.32188 19.2754 4.42188ZM17.9254 9.89687C16.8004 11.0219 14.9254 11.0219 13.8004 9.89687C13.2754 9.37187 12.9754 8.62188 12.9754 7.87188C12.9754 7.12188 13.2754 6.37188 13.8004 5.84688C14.3254 5.32188 15.0754 5.02187 15.8254 5.02187C16.5754 5.02187 17.3254 5.32188 17.8504 5.84688C18.3754 6.37188 18.6754 7.12188 18.6754 7.87188C18.7504 8.62188 18.4504 9.29688 17.9254 9.89687Z"
        fill="currentColor" />
</svg>
    