<svg width="2.4rem" height="2.4rem" viewBox="0 0 24 24" fill="none" xmlns="http://www.w3.org/2000/svg">
	<path
		d="M12 12.0004L20.952 8.42439L20.4 21.6004H22.8L22.224 7.90839L24 7.20039L12 2.40039L0 7.20039L12 12.0004ZM12 6.00039C12.66 6.00039 13.2 6.26439 13.2 6.60039C13.2 6.93639 12.66 7.20039 12 7.20039C11.34 7.20039 10.8 6.93639 10.8 6.60039C10.8 6.26439 11.34 6.00039 12 6.00039ZM12 13.2004L5.316 10.5244C4.464 11.6524 3.876 13.0084 3.684 14.4844C4.044 14.4364 4.416 14.4004 4.8 14.4004C7.86 14.4004 10.536 16.0444 12 18.4924C12.7431 17.2453 13.7973 16.2125 15.0594 15.4952C16.3215 14.7779 17.7483 14.4007 19.2 14.4004C19.584 14.4004 19.956 14.4364 20.316 14.4844C20.124 13.0084 19.536 11.6524 18.684 10.5244L12 13.2004Z"
		fill="currentColor" />
</svg>