<svg width="2.4rem" height="2.4rem" viewBox="0 0 18 20" fill="none" xmlns="http://www.w3.org/2000/svg">
	<path
		d="M7.10714 6.9375V8.25H11.3929V6.9375C11.3929 5.72891 10.4339 4.75 9.25 4.75C8.06607 4.75 7.10714 5.72891 7.10714 6.9375ZM5.39286 8.25V6.9375C5.39286 4.76367 7.12054 3 9.25 3C11.3795 3 13.1071 4.76367 13.1071 6.9375V8.25H13.5357C14.4813 8.25 15.25 9.03477 15.25 10V15.25C15.25 16.2152 14.4813 17 13.5357 17H4.96429C4.01875 17 3.25 16.2152 3.25 15.25V10C3.25 9.03477 4.01875 8.25 4.96429 8.25H5.39286Z"
		fill="currentColor" />
</svg>