<svg width="2.4rem" height="2.4rem" viewBox="0 0 18 17" fill="none" xmlns="http://www.w3.org/2000/svg">
	<path
		d="M6.86727 0.950001C6.71249 0.950001 6.56411 1.01177 6.45473 1.12163C6.34537 1.23149 6.28397 1.38045 6.28397 1.53572C6.28397 1.69098 6.34537 1.83994 6.45473 1.9498C6.56411 2.05967 6.71249 2.12143 6.86727 2.12143L13.8002 2.12143C14.3526 2.12143 14.8825 2.34187 15.2732 2.73433C15.6639 3.1268 15.8834 3.65915 15.8834 4.21429L15.8834 12.7857C15.8834 13.3408 15.6639 13.8732 15.2732 14.2657C14.8825 14.6581 14.3526 14.8786 13.8002 14.8786L6.86727 14.8786C6.7125 14.8786 6.56411 14.9403 6.45473 15.0502C6.34537 15.1601 6.28397 15.309 6.28397 15.4643C6.28397 15.6196 6.34537 15.7685 6.45473 15.8784C6.56411 15.9882 6.7125 16.05 6.86727 16.05L13.8002 16.05C14.6622 16.05 15.4888 15.706 16.0982 15.0938C16.7077 14.4816 17.05 13.6514 17.05 12.7857L17.05 4.21429C17.05 3.34862 16.7077 2.51836 16.0982 1.90617C15.4888 1.29397 14.6622 0.95 13.8002 0.95L6.86727 0.950001ZM5.68037 5.16457L5.68038 5.16456C5.73459 5.1101 5.77759 5.04546 5.80692 4.97433C5.83625 4.9032 5.85134 4.82698 5.85134 4.75C5.85134 4.67303 5.83625 4.5968 5.80692 4.52567C5.77759 4.45455 5.7346 4.3899 5.68038 4.33544C5.62616 4.28098 5.56178 4.23776 5.49092 4.20828C5.42005 4.17879 5.34408 4.16361 5.26737 4.16361C5.19065 4.16361 5.11468 4.17879 5.04381 4.20828C4.97295 4.23776 4.90857 4.28098 4.85435 4.33544L1.12129 8.0854C1.06698 8.13981 1.0239 8.20445 0.99451 8.27559C0.965123 8.34673 0.95 8.42299 0.95 8.5C0.95 8.57701 0.965123 8.65327 0.99451 8.72441C1.0239 8.79556 1.06698 8.86019 1.12129 8.91461L4.85431 12.6645C4.90848 12.7191 4.97285 12.7624 5.04373 12.7919C5.11461 12.8215 5.19061 12.8367 5.26737 12.8367C5.34412 12.8367 5.42012 12.8215 5.491 12.7919C5.56184 12.7624 5.62618 12.7191 5.68033 12.6646C5.73464 12.6102 5.77772 12.5456 5.80711 12.4744C5.8365 12.4033 5.85162 12.327 5.85162 12.25C5.85162 12.173 5.8365 12.0967 5.80711 12.0256C5.77772 11.9544 5.73464 11.8898 5.68033 11.8354L2.942 9.08572L12.2003 9.08572C12.3551 9.08572 12.5034 9.02395 12.6128 8.91408C12.7222 8.80422 12.7836 8.65527 12.7836 8.5C12.7836 8.34473 12.7222 8.19578 12.6128 8.08592C12.5034 7.97605 12.3551 7.91429 12.2003 7.91429L2.942 7.91429L5.68037 5.16457Z"
		fill="currentColor" stroke="currentColor" stroke-width="0.1" />
</svg>