<svg width="24" height="24" viewBox="0 0 24 24" fill="none" xmlns="http://www.w3.org/2000/svg">
	<path
		d="M3.42857 14.8571C2.64286 14.8571 2 15.5 2 16.2857V20.5714C2 21.3571 2.64286 22 3.42857 22H7.71429C8.5 22 9.14286 21.3571 9.14286 20.5714C9.14286 19.7857 8.5 19.1429 7.71429 19.1429H4.85714V16.2857C4.85714 15.5 4.21429 14.8571 3.42857 14.8571ZM3.42857 9.14286C4.21429 9.14286 4.85714 8.5 4.85714 7.71429V4.85714H7.71429C8.5 4.85714 9.14286 4.21429 9.14286 3.42857C9.14286 2.64286 8.5 2 7.71429 2H3.42857C2.64286 2 2 2.64286 2 3.42857V7.71429C2 8.5 2.64286 9.14286 3.42857 9.14286ZM19.1429 19.1429H16.2857C15.5 19.1429 14.8571 19.7857 14.8571 20.5714C14.8571 21.3571 15.5 22 16.2857 22H20.5714C21.3571 22 22 21.3571 22 20.5714V16.2857C22 15.5 21.3571 14.8571 20.5714 14.8571C19.7857 14.8571 19.1429 15.5 19.1429 16.2857V19.1429ZM14.8571 3.42857C14.8571 4.21429 15.5 4.85714 16.2857 4.85714H19.1429V7.71429C19.1429 8.5 19.7857 9.14286 20.5714 9.14286C21.3571 9.14286 22 8.5 22 7.71429V3.42857C22 2.64286 21.3571 2 20.5714 2H16.2857C15.5 2 14.8571 2.64286 14.8571 3.42857Z"
		fill="currentcolor" />
</svg>