<svg width="2.4rem" height="2.4rem" viewBox="0 0 24 24" fill="none"
    xmlns="http://www.w3.org/2000/svg">
    <path
        d="M12.5141 12.2533L21.3427 5.13906C20.9141 4.71049 20.3141 4.53906 19.7141 4.53906H4.28557C3.68557 4.53906 3.08557 4.79621 2.57129 5.13906L11.4856 12.2533C11.8284 12.4248 12.1713 12.4248 12.5141 12.2533Z"
        fill="currentColor" />
    <path
        d="M13.5424 13.6304C13.0282 13.9732 12.5139 14.1446 11.9996 14.1446C11.4853 14.1446 10.971 13.9732 10.5424 13.7161L1.71387 6.6875V16.8875C1.71387 18.3446 2.82815 19.4589 4.2853 19.4589H19.7139C21.171 19.4589 22.2853 18.3446 22.2853 16.8875V7.11607C22.2853 6.94464 22.2853 6.77321 22.1996 6.6875L13.5424 13.6304Z"
        fill="currentColor" />
</svg>
    