<svg width="2.4rem" height="2.4rem" viewBox="0 0 24 24" fill="none" xmlns="http://www.w3.org/2000/svg">
	<path
		d="M8.93042 1.00001H3.31579C2.7016 1.00001 2.11257 1.24399 1.67828 1.67829C1.24398 2.11258 1 2.70161 1 3.3158V8.93043C1 9.54461 1.24398 10.1336 1.67828 10.5679C2.11257 11.0022 2.7016 11.2462 3.31579 11.2462H8.93042C9.5446 11.2462 10.1336 11.0022 10.5679 10.5679C11.0022 10.1336 11.2462 9.54461 11.2462 8.93043V3.3158C11.2462 2.70161 11.0022 2.11258 10.5679 1.67829C10.1336 1.24399 9.5446 1.00001 8.93042 1.00001ZM10.0883 8.93043C10.0883 9.23752 9.96632 9.53203 9.74917 9.74918C9.53202 9.96633 9.23751 10.0883 8.93042 10.0883H3.31579C3.0087 10.0883 2.71418 9.96633 2.49703 9.74918C2.27989 9.53203 2.15789 9.23752 2.15789 8.93043V3.3158C2.15789 3.0087 2.27989 2.71419 2.49703 2.49704C2.71418 2.27989 3.0087 2.1579 3.31579 2.1579H8.93042C9.23751 2.1579 9.53202 2.27989 9.74917 2.49704C9.96632 2.71419 10.0883 3.0087 10.0883 3.3158V8.93043ZM8.93042 12.7515H3.31579C2.7016 12.7515 2.11257 12.9955 1.67828 13.4298C1.24398 13.864 1 14.4531 1 15.0673V20.6842C1 21.2984 1.24398 21.8874 1.67828 22.3217C2.11257 22.756 2.7016 23 3.31579 23H8.93042C9.5446 23 10.1336 22.756 10.5679 22.3217C11.0022 21.8874 11.2462 21.2984 11.2462 20.6842V15.0696C11.2462 14.4554 11.0022 13.8664 10.5679 13.4321C10.1336 12.9978 9.5446 12.7538 8.93042 12.7538V12.7515ZM10.0883 20.6819C10.0883 20.989 9.96632 21.2835 9.74917 21.5007C9.53202 21.7178 9.23751 21.8398 8.93042 21.8398H3.31579C3.0087 21.8398 2.71418 21.7178 2.49703 21.5007C2.27989 21.2835 2.15789 20.989 2.15789 20.6819V15.0696C2.15789 14.7625 2.27989 14.468 2.49703 14.2508C2.71418 14.0337 3.0087 13.9117 3.31579 13.9117H8.93042C9.23751 13.9117 9.53202 14.0337 9.74917 14.2508C9.96632 14.468 10.0883 14.7625 10.0883 15.0696V20.6819ZM20.6842 12.7538H15.0696C14.4554 12.7538 13.8664 12.9978 13.4321 13.4321C12.9978 13.8664 12.7538 14.4554 12.7538 15.0696V20.6842C12.7538 21.2984 12.9978 21.8874 13.4321 22.3217C13.8664 22.756 14.4554 23 15.0696 23H20.6842C21.2984 23 21.8874 22.756 22.3217 22.3217C22.756 21.8874 23 21.2984 23 20.6842V15.0696C23 14.4554 22.756 13.8664 22.3217 13.4321C21.8874 12.9978 21.2984 12.7538 20.6842 12.7538ZM21.8421 20.6842C21.8421 20.9913 21.7201 21.2858 21.503 21.503C21.2858 21.7201 20.9913 21.8421 20.6842 21.8421H15.0696C14.7625 21.8421 14.468 21.7201 14.2508 21.503C14.0337 21.2858 13.9117 20.9913 13.9117 20.6842V15.0696C13.9117 14.7625 14.0337 14.468 14.2508 14.2508C14.468 14.0337 14.7625 13.9117 15.0696 13.9117H20.6842C20.9913 13.9117 21.2858 14.0337 21.503 14.2508C21.7201 14.468 21.8421 14.7625 21.8421 15.0696V20.6842ZM17.8775 7.85937C18.221 7.85937 18.5568 7.75751 18.8424 7.56666C19.128 7.37582 19.3506 7.10456 19.4821 6.78719C19.6136 6.46983 19.648 6.12061 19.5809 5.78369C19.5139 5.44678 19.3485 5.1373 19.1056 4.8944C18.8627 4.6515 18.5532 4.48608 18.2163 4.41906C17.8794 4.35205 17.5302 4.38644 17.2128 4.5179C16.8954 4.64936 16.6242 4.87197 16.4333 5.15759C16.2425 5.44322 16.1406 5.77902 16.1406 6.12253C16.1406 6.58317 16.3236 7.02494 16.6493 7.35066C16.9751 7.67639 17.4168 7.85937 17.8775 7.85937ZM17.8775 5.54358C17.992 5.54358 18.1039 5.57754 18.1991 5.64115C18.2943 5.70477 18.3685 5.79519 18.4123 5.90098C18.4562 6.00677 18.4676 6.12317 18.4453 6.23548C18.4229 6.34778 18.3678 6.45094 18.2868 6.53191C18.2059 6.61288 18.1027 6.66802 17.9904 6.69035C17.8781 6.71269 17.7617 6.70123 17.6559 6.65741C17.5501 6.61359 17.4597 6.53939 17.3961 6.44418C17.3325 6.34897 17.2985 6.23704 17.2985 6.12253C17.2985 5.96899 17.3595 5.82173 17.4681 5.71315C17.5767 5.60458 17.7239 5.54358 17.8775 5.54358ZM12.9958 7.24569C12.9326 7.33604 12.8965 7.44255 12.8918 7.5527C12.8871 7.66285 12.9139 7.77206 12.9692 7.86748L13.9128 9.50127C13.968 9.59676 14.0493 9.67452 14.1471 9.7254C14.245 9.77627 14.3553 9.79813 14.4652 9.78843C14.7957 9.75978 15.12 9.68172 15.4274 9.55685L16.1302 9.96211C16.175 10.2911 16.2686 10.6115 16.4081 10.9127C16.4545 11.0131 16.5287 11.098 16.6219 11.1575C16.715 11.217 16.8232 11.2486 16.9338 11.2485H18.8211C18.9317 11.2486 19.0399 11.217 19.1331 11.1575C19.2262 11.098 19.3004 11.0131 19.3468 10.9127C19.4858 10.6114 19.579 10.291 19.6236 9.96211L20.3276 9.55685C20.6345 9.68181 20.9585 9.75987 21.2886 9.78843C21.3987 9.79836 21.5092 9.77661 21.6073 9.72572C21.7054 9.67484 21.7869 9.59696 21.8421 9.50127L22.7858 7.86748C22.841 7.77206 22.8678 7.66285 22.8631 7.5527C22.8584 7.44255 22.8223 7.33604 22.7591 7.24569C22.5688 6.97337 22.3381 6.73167 22.0748 6.52895V5.71843C22.337 5.51538 22.5676 5.27463 22.7591 5.00401C22.8226 4.91354 22.8588 4.80681 22.8635 4.69642C22.8682 4.58604 22.8412 4.47661 22.7858 4.38106L21.8421 2.7438C21.7869 2.64811 21.7054 2.57022 21.6073 2.51934C21.5092 2.46846 21.3987 2.4467 21.2886 2.45664C20.959 2.48611 20.6355 2.56414 20.3287 2.68822L19.6247 2.2818C19.5804 1.95326 19.4871 1.63322 19.348 1.33232C19.301 1.23248 19.2264 1.14815 19.1331 1.08927C19.0397 1.0304 18.9315 0.999426 18.8211 1.00001H16.9338C16.8232 0.999955 16.715 1.03155 16.6219 1.09105C16.5287 1.15056 16.4545 1.23548 16.4081 1.3358C16.2684 1.63658 16.1747 1.95664 16.1302 2.28527L15.4274 2.69169C15.1202 2.56751 14.7963 2.48947 14.4663 2.46011C14.3563 2.45018 14.2457 2.47193 14.1476 2.52282C14.0495 2.5737 13.9681 2.65158 13.9128 2.74727L12.9692 4.38222C12.9137 4.47777 12.8867 4.5872 12.8914 4.69758C12.8962 4.80797 12.9324 4.91469 12.9958 5.00516C13.1874 5.27578 13.418 5.51654 13.6801 5.71959V6.53011C13.417 6.73248 13.1862 6.97378 12.9958 7.24569ZM14.4165 4.81411C14.3254 4.75773 14.2431 4.68828 14.1722 4.60801L14.7153 3.67011C14.8112 3.68915 14.9048 3.71866 14.9943 3.75811C15.0835 3.85413 15.2026 3.91705 15.3321 3.93661C15.4617 3.95617 15.594 3.93121 15.7076 3.8658L17.0079 3.11432C17.1212 3.05589 17.2103 2.95955 17.2598 2.84211C17.3093 2.72467 17.3161 2.59358 17.2788 2.47169C17.2832 2.36498 17.3023 2.25938 17.3356 2.1579H18.4194C18.4508 2.25029 18.4721 2.34579 18.483 2.44274C18.4441 2.56807 18.4489 2.7029 18.4967 2.82513C18.5445 2.94735 18.6323 3.04973 18.7459 3.11548L20.0474 3.86695C20.1551 3.93617 20.2837 3.96528 20.4107 3.94919C20.5377 3.9331 20.655 3.87284 20.7421 3.77895C20.8368 3.72908 20.9382 3.6932 21.0431 3.67243L21.5839 4.61032C21.5196 4.68331 21.4478 4.74929 21.3697 4.80716C21.2416 4.83604 21.1272 4.90758 21.0451 5.01004C20.9631 5.11249 20.9183 5.2398 20.9181 5.37106V6.87632C20.9126 7.00356 20.9517 7.12872 21.0286 7.2302C21.1056 7.33167 21.2156 7.40309 21.3396 7.43211C21.4306 7.4885 21.513 7.55794 21.5839 7.63822L21.042 8.57727C20.9468 8.55876 20.854 8.52963 20.7653 8.49043C20.6761 8.39367 20.5566 8.33018 20.4266 8.31039C20.2965 8.29061 20.1636 8.31572 20.0497 8.38158L18.7482 9.1319C18.635 9.19035 18.5459 9.28675 18.4966 9.40422C18.4473 9.5217 18.4409 9.65278 18.4784 9.77453C18.4736 9.88205 18.4542 9.98841 18.4205 10.0906H17.3367C17.3055 9.99788 17.2845 9.90197 17.2742 9.80464C17.313 9.67918 17.308 9.54426 17.2601 9.42202C17.2121 9.29977 17.124 9.19747 17.0102 9.1319L15.7053 8.37927C15.5975 8.31058 15.4691 8.28167 15.3422 8.29752C15.2154 8.31338 15.0981 8.373 15.0105 8.46611C14.9158 8.51618 14.8144 8.55244 14.7095 8.57379L14.1676 7.63474C14.2322 7.56168 14.3044 7.4957 14.3829 7.4379C14.5108 7.4088 14.6249 7.33716 14.7068 7.23473C14.7886 7.13229 14.8332 7.00511 14.8334 6.87401V5.36874C14.8374 5.24345 14.7982 5.12059 14.7222 5.02084C14.6463 4.92109 14.5384 4.85054 14.4165 4.82106V4.81411Z"
		fill="currentColor" />
</svg>