<svg width="2.4rem" height="2.4rem" viewBox="0 0 24 24" fill="none" xmlns="http://www.w3.org/2000/svg">
	<path
		d="M21.7399 2.74526C21.7561 2.67411 21.7527 2.59993 21.7303 2.53052C21.7078 2.46112 21.667 2.39906 21.6121 2.35091C21.5573 2.30275 21.4905 2.27026 21.4188 2.25688C21.347 2.2435 21.273 2.24971 21.2045 2.27487C21.2045 2.27487 18.7707 3.08589 13.2216 3.08589C9.71204 3.02416 6.20927 2.75334 2.73193 2.27487C2.66364 2.26547 2.59408 2.27398 2.53007 2.29958C2.46607 2.32517 2.40982 2.36696 2.36686 2.42085C2.31824 2.47172 2.28371 2.53436 2.26664 2.60261C2.24957 2.67087 2.25056 2.74238 2.2695 2.81014C2.80865 4.60991 3.08196 6.47876 3.08077 8.35751C3.07807 8.45014 3.10719 8.5409 3.16328 8.61468C3.21938 8.68846 3.29905 8.74081 3.38905 8.76302C3.97974 8.8384 4.52229 9.12766 4.91399 9.57604C5.30569 10.0244 5.51937 10.6008 5.51458 11.1961C5.51458 12.7289 4.85745 13.5075 3.45396 13.6291C3.3521 13.6373 3.25707 13.6836 3.18789 13.7588C3.1187 13.834 3.08045 13.9325 3.08077 14.0346C3.11009 16.4542 2.83757 18.8681 2.2695 21.2203C2.2475 21.2886 2.24405 21.3616 2.25949 21.4317C2.27493 21.5018 2.30872 21.5666 2.35739 21.6193C2.40607 21.6721 2.4679 21.7111 2.53655 21.7321C2.60521 21.7532 2.67823 21.7557 2.74815 21.7393C5.00232 21.3208 7.28143 21.0499 9.57092 20.9283C13.1567 20.9283 21.2126 21.7393 21.2937 21.7393C21.3523 21.7389 21.41 21.7258 21.463 21.701C21.516 21.6762 21.563 21.6402 21.6007 21.5955C21.6385 21.5508 21.6661 21.4985 21.6818 21.4421C21.6974 21.3858 21.7006 21.3267 21.6913 21.2689C21.2072 18.0687 20.9523 14.8381 20.9287 11.6016C21.0204 8.63583 21.2913 5.67833 21.7399 2.74526ZM15.6473 6.53271C15.7314 6.46641 15.8383 6.43602 15.9446 6.44818C16.051 6.46033 16.1483 6.51404 16.2152 6.5976C16.4173 6.83901 16.5765 7.11334 16.6857 7.40861C16.702 7.45973 16.708 7.51357 16.7034 7.56701C16.6987 7.62046 16.6835 7.67245 16.6586 7.71997C16.6337 7.76749 16.5996 7.8096 16.5583 7.84386C16.517 7.87812 16.4693 7.90385 16.418 7.91956H16.2963C16.2096 7.92008 16.125 7.8928 16.0549 7.84171C15.9848 7.79062 15.9329 7.71842 15.9069 7.6357C15.8302 7.43016 15.7206 7.23843 15.5824 7.06799C15.5257 6.98632 15.501 6.88669 15.513 6.78801C15.5249 6.68933 15.5728 6.59848 15.6473 6.53271ZM13.0107 5.51894C13.5518 5.46173 14.0984 5.48359 14.6332 5.58382C14.7408 5.59673 14.8389 5.65183 14.9058 5.737C14.9727 5.82218 15.0031 5.93045 14.9902 6.03799C14.9773 6.14554 14.9222 6.24356 14.837 6.31048C14.7518 6.3774 14.6435 6.40775 14.5359 6.39484H14.4385C13.9869 6.30858 13.5253 6.28674 13.0675 6.32996C13.0146 6.33438 12.9614 6.32817 12.9109 6.3117C12.8605 6.29523 12.8139 6.26883 12.7738 6.23407C12.7337 6.1993 12.701 6.15686 12.6776 6.10926C12.6542 6.06165 12.6406 6.00985 12.6375 5.95689C12.6331 5.90361 12.6392 5.84997 12.6556 5.79907C12.672 5.74817 12.6983 5.70101 12.733 5.6603C12.7676 5.6196 12.81 5.58615 12.8577 5.56189C12.9054 5.53763 12.9574 5.52304 13.0107 5.51894ZM9.91165 6.54893C10.3625 6.20827 10.8749 5.95769 11.4206 5.81091C11.4739 5.796 11.5296 5.79172 11.5845 5.79832C11.6394 5.80493 11.6925 5.82228 11.7407 5.84939C11.7889 5.8765 11.8313 5.91284 11.8655 5.95634C11.8996 5.99983 11.9249 6.04962 11.9398 6.10287C11.9547 6.15613 11.959 6.21179 11.9524 6.2667C11.9458 6.3216 11.9284 6.37467 11.9013 6.42287C11.8742 6.47107 11.8379 6.51345 11.7943 6.54761C11.7508 6.58176 11.701 6.60702 11.6478 6.62193C11.1931 6.72741 10.7633 6.92022 10.3822 7.18964C10.3401 7.22266 10.2919 7.24706 10.2404 7.26147C10.1889 7.27587 10.135 7.27999 10.0819 7.27359C10.0288 7.26719 9.97749 7.25039 9.93088 7.22416C9.88426 7.19793 9.84327 7.16277 9.81024 7.1207C9.77722 7.07863 9.7528 7.03047 9.73839 6.97897C9.72398 6.92747 9.71986 6.87364 9.72627 6.82054C9.73267 6.76745 9.74947 6.71614 9.77571 6.66953C9.80195 6.62293 9.83712 6.58195 9.8792 6.54893H9.91165ZM8.58928 9.57403C8.58279 9.02045 8.67907 8.47047 8.87323 7.952C8.91303 7.85198 8.99095 7.77186 9.08984 7.72928C9.13881 7.70819 9.19145 7.69695 9.24476 7.6962C9.29808 7.69545 9.35101 7.70521 9.40055 7.72491C9.45009 7.74462 9.49526 7.77388 9.53349 7.81104C9.57172 7.84819 9.60225 7.89251 9.62334 7.94146C9.64443 7.99041 9.65568 8.04304 9.65643 8.09633C9.65717 8.14963 9.64742 8.20255 9.62771 8.25207C9.47112 8.67496 9.39411 9.12315 9.40055 9.57403C9.40163 9.62796 9.39194 9.68157 9.37203 9.73171C9.35213 9.78185 9.32243 9.82751 9.28465 9.86603C9.24688 9.90455 9.20179 9.93514 9.15204 9.95603C9.10229 9.97691 9.04888 9.98766 8.99492 9.98765C8.94064 9.98881 8.8867 9.97883 8.83643 9.95835C8.78616 9.93787 8.74062 9.90731 8.70261 9.86855C8.66461 9.8298 8.63494 9.78367 8.61545 9.73302C8.59596 9.68237 8.58706 9.62826 8.58928 9.57403ZM7.65632 16.8327C7.6107 16.8407 7.56403 16.8407 7.51841 16.8327C7.43787 16.8345 7.35859 16.8124 7.29069 16.7691C7.22278 16.7257 7.16932 16.6632 7.13711 16.5893C7.02736 16.2905 6.96973 15.975 6.96675 15.6567C6.96675 15.5491 7.00948 15.446 7.08555 15.3699C7.16163 15.2939 7.2648 15.2512 7.37238 15.2512C7.47996 15.2512 7.58314 15.2939 7.65921 15.3699C7.73528 15.446 7.77802 15.5491 7.77802 15.6567C7.78056 15.881 7.82173 16.1032 7.89971 16.3136C7.93624 16.4147 7.93112 16.5262 7.88549 16.6235C7.83985 16.7208 7.75742 16.796 7.65632 16.8327ZM9.87109 18.4952C9.27182 18.5123 8.68298 18.336 8.19176 17.9924C8.10355 17.93 8.04373 17.8352 8.02547 17.7287C8.00722 17.6222 8.03201 17.5129 8.09441 17.4247C8.15681 17.3365 8.25169 17.2767 8.35819 17.2585C8.46469 17.2402 8.57408 17.265 8.6623 17.3274C8.99634 17.5641 9.39676 17.689 9.80619 17.6842C9.91696 17.6839 10.0237 17.7256 10.105 17.8008C10.1863 17.8761 10.2361 17.9793 10.2443 18.0897C10.2476 18.1411 10.2404 18.1926 10.2232 18.2412C10.2061 18.2897 10.1792 18.3343 10.1444 18.3722C10.1095 18.4101 10.0673 18.4405 10.0203 18.4617C9.97336 18.4828 9.92259 18.4942 9.87109 18.4952ZM10.7797 12.2585C10.7563 12.3065 10.7237 12.3494 10.6837 12.3848C10.6438 12.4201 10.5972 12.4473 10.5467 12.4646C10.4962 12.4819 10.4428 12.4891 10.3895 12.4858C10.3362 12.4824 10.2841 12.4686 10.2362 12.445C9.68568 12.2019 9.23184 11.7824 8.94624 11.2528C8.89675 11.1571 8.88733 11.0457 8.92004 10.943C8.95275 10.8403 9.02492 10.7549 9.12066 10.7054C9.21641 10.6559 9.3279 10.6465 9.43059 10.6792C9.53329 10.7119 9.61878 10.7841 9.66827 10.8798C9.87891 11.2445 10.204 11.5295 10.5931 11.6908C10.6443 11.714 10.6901 11.7475 10.7277 11.7893C10.7652 11.8311 10.7937 11.8803 10.8112 11.9336C10.8288 11.987 10.835 12.0435 10.8296 12.0994C10.8242 12.1553 10.8072 12.2095 10.7797 12.2585ZM13.035 17.6842C12.5733 18.0197 12.0449 18.252 11.4855 18.3655H11.3963C11.343 18.3713 11.2891 18.3666 11.2376 18.3517C11.1862 18.3367 11.1382 18.3118 11.0964 18.2782C11.0546 18.2447 11.0198 18.2033 10.994 18.1564C10.9682 18.1094 10.9519 18.0578 10.946 18.0046C10.9402 17.9513 10.9448 17.8974 10.9598 17.846C10.9748 17.7946 10.9998 17.7466 11.0333 17.7048C11.0668 17.663 11.1082 17.6282 11.1552 17.6024C11.2022 17.5766 11.2538 17.5603 11.307 17.5545C11.7544 17.467 12.1777 17.2845 12.5483 17.0192C12.6343 16.9536 12.7429 16.9248 12.8502 16.9393C12.9575 16.9537 13.0546 17.0102 13.1202 17.0962C13.1858 17.1823 13.2146 17.2908 13.2001 17.3981C13.1857 17.5053 13.1292 17.6024 13.0431 17.668L13.035 17.6842ZM12.9701 13.5805C12.6042 13.3089 12.1877 13.1132 11.7451 13.0046C11.6375 12.9735 11.5468 12.9008 11.4927 12.8027C11.4387 12.7046 11.4259 12.5891 11.4571 12.4815C11.4883 12.374 11.561 12.2832 11.6591 12.2292C11.7572 12.1752 11.8728 12.1624 11.9804 12.1936C12.5322 12.3306 13.0491 12.5821 13.4975 12.9317C13.5401 12.966 13.5753 13.0086 13.6011 13.0569C13.6268 13.1052 13.6425 13.1583 13.6472 13.2128C13.6518 13.2674 13.6454 13.3223 13.6283 13.3743C13.6112 13.4263 13.5837 13.4743 13.5475 13.5154C13.5114 13.5564 13.4672 13.5898 13.4178 13.6134C13.3684 13.637 13.3147 13.6503 13.26 13.6526C13.2053 13.6549 13.1507 13.6461 13.0995 13.6267C13.0483 13.6074 13.0015 13.5778 12.962 13.5399L12.9701 13.5805ZM14.0572 16.2649C14.0302 16.3448 13.979 16.4143 13.9107 16.4637C13.8423 16.5132 13.7603 16.5401 13.6759 16.5407H13.5461C13.4953 16.5234 13.4485 16.4962 13.4083 16.4606C13.3681 16.4251 13.3354 16.3819 13.312 16.3336C13.2886 16.2854 13.275 16.2329 13.272 16.1794C13.2691 16.1258 13.2767 16.0722 13.2946 16.0216C13.4132 15.6606 13.4708 15.2824 13.465 14.9024V14.6753C13.4607 14.6221 13.467 14.5685 13.4835 14.5177C13.4999 14.4669 13.5262 14.4198 13.5609 14.3791C13.5955 14.3384 13.6378 14.305 13.6854 14.2807C13.733 14.2564 13.7849 14.2417 13.8382 14.2374C13.8915 14.2331 13.945 14.2394 13.9959 14.2558C14.0467 14.2723 14.0938 14.2986 14.1345 14.3332C14.1752 14.3679 14.2087 14.4102 14.233 14.4577C14.2573 14.5053 14.272 14.5572 14.2763 14.6105V14.9024C14.2748 15.3546 14.2008 15.8037 14.0572 16.2325V16.2649ZM16.8723 18.4952C16.7119 18.4952 16.555 18.4477 16.4216 18.3586C16.2882 18.2694 16.1842 18.1428 16.1228 17.9946C16.0614 17.8464 16.0453 17.6833 16.0767 17.526C16.108 17.3687 16.1852 17.2242 16.2987 17.1107C16.4121 16.9973 16.5567 16.9201 16.7141 16.8888C16.8714 16.8575 17.0345 16.8736 17.1828 16.9349C17.331 16.9963 17.4577 17.1003 17.5469 17.2336C17.636 17.367 17.6836 17.5238 17.6836 17.6842C17.6836 17.8993 17.5981 18.1056 17.446 18.2577C17.2938 18.4098 17.0875 18.4952 16.8723 18.4952ZM18.3407 11.0987C18.3826 11.1368 18.416 11.1831 18.4388 11.2348C18.4617 11.2864 18.4735 11.3423 18.4735 11.3988C18.4735 11.4553 18.4617 11.5112 18.4388 11.5629C18.416 11.6146 18.3826 11.6609 18.3407 11.6989L17.9838 12.0558C17.9089 12.1322 17.8068 12.1759 17.6998 12.1774C17.6431 12.1736 17.5877 12.158 17.5374 12.1314C17.4871 12.1049 17.4429 12.068 17.4078 12.0233L16.2963 10.6284L15.1849 12.0071C15.1497 12.0518 15.1056 12.0886 15.0553 12.1152C15.0049 12.1417 14.9496 12.1574 14.8928 12.1612C14.7858 12.1597 14.6838 12.1159 14.6089 12.0395L14.2519 11.6827C14.2101 11.6447 14.1767 11.5983 14.1538 11.5467C14.1309 11.495 14.1191 11.4391 14.1191 11.3826C14.1191 11.3261 14.1309 11.2702 14.1538 11.2185C14.1767 11.1669 14.2101 11.1205 14.2519 11.0825L15.6473 9.97954L14.2519 8.86034C14.2101 8.82233 14.1767 8.776 14.1538 8.72433C14.1309 8.67265 14.1191 8.61677 14.1191 8.56026C14.1191 8.50375 14.1309 8.44787 14.1538 8.39619C14.1767 8.34452 14.2101 8.29819 14.2519 8.26018L14.6089 7.90334C14.6497 7.86368 14.6979 7.8325 14.7508 7.81162C14.8038 7.79074 14.8603 7.78056 14.9172 7.78168C14.9739 7.78546 15.0293 7.80113 15.0796 7.82767C15.1299 7.85422 15.1741 7.89105 15.2092 7.93578L16.2963 9.33073L17.4159 7.952C17.4468 7.90708 17.4864 7.86885 17.5324 7.83958C17.5784 7.81032 17.6298 7.79063 17.6836 7.78168C17.7405 7.7801 17.7972 7.79007 17.8502 7.81098C17.9032 7.83188 17.9514 7.8633 17.9919 7.90334L18.3488 8.26018C18.3907 8.29819 18.4241 8.34452 18.447 8.39619C18.4698 8.44787 18.4816 8.50375 18.4816 8.56026C18.4816 8.61677 18.4698 8.67265 18.447 8.72433C18.4241 8.776 18.3907 8.82233 18.3488 8.86034L16.9453 9.97954L18.3407 11.0987Z"
		fill="currentColor" />
</svg>