<svg width="2rem" height="2rem" viewBox="0 0 20 20" fill="none" xmlns="http://www.w3.org/2000/svg">
	<path opacity="0.4"
		d="M1.9375 12.082V17.1406H6.01953V11.293L4.16016 10.5156L1.9375 12.082ZM9.39453 12.6328C9.27344 12.6328 9.15625 12.6094 9.04297 12.5625L7.37891 11.8633V17.1406H11.457V11.4023L9.90625 12.4727C9.75781 12.5781 9.57812 12.6328 9.39453 12.6328ZM12.8164 17.1406H16.8984V7.64844L12.8164 10.4648V17.1406Z"
		fill="currentColor" />
	<path
		d="M19.7648 3.85938L15.0539 4.75L16.2921 6.1875L9.31559 11.0078L4.28824 8.89844C4.08512 8.8125 3.85465 8.83984 3.67496 8.96484L0.503086 11.207C0.21793 11.4102 0.147617 11.8047 0.350742 12.0898C0.475742 12.2656 0.671055 12.3594 0.870273 12.3594C0.995273 12.3594 1.12418 12.3203 1.23746 12.2422L4.12418 10.2031L9.14762 12.3086C9.34684 12.3906 9.5773 12.3672 9.75309 12.2461L17.1281 7.15234L18.1867 8.37891L19.7648 3.85938Z"
		fill="currentColor" />
</svg>