<svg width="2rem" height="2rem" viewBox="0 0 20 20" fill="none" xmlns="http://www.w3.org/2000/svg">
	<path opacity="0.4"
		d="M6.78125 6.78125V17H11.0898V7.66797L8.66406 5.99219L6.78125 6.78125ZM15.3594 10.6133L12.5859 8.69922V17H16.8945V12.9414L13.8516 12.3672L15.3594 10.6133ZM3.15234 8.20312C2.91016 8.20312 2.67578 8.12891 2.48047 7.98828L0.976562 6.92969V17H5.28516V7.40625L3.60156 8.11328C3.46094 8.17578 3.30859 8.20312 3.15234 8.20312Z"
		fill="currentColor" />
	<path
		d="M0.523438 5.79086L2.76953 7.58773C2.95703 7.72054 3.20312 7.74789 3.41406 7.65804L8.72656 5.43148L16.0977 10.5213L14.7891 12.0409L19.7695 12.9823L18.0977 8.20101L16.9805 9.49789L9.1875 4.11898C9 3.99008 8.75781 3.96273 8.54688 4.05258L3.23828 6.27914L1.29297 4.69711C0.847656 4.38461 0.234375 4.70101 0.234375 5.24398C0.238281 5.45883 0.34375 5.66586 0.523438 5.79086Z"
		fill="currentColor" />
</svg>