<svg width="1.6rem" height="1.6rem" viewBox="0 0 16 16" fill="none" xmlns="http://www.w3.org/2000/svg">
	<path
		d="M13.1524 3.14844C13.072 3.08073 12.9704 3.04688 12.8477 3.04688C12.6996 3.04688 12.5726 3.10612 12.4668 3.22461L6.27784 10.8608L3.87207 8.58838C3.82976 8.54183 3.77897 8.50586 3.71973 8.48046C3.66049 8.45507 3.59912 8.44239 3.53565 8.44239C3.40446 8.44239 3.29021 8.49104 3.19287 8.58838L2.88184 8.89942C2.78874 8.98829 2.74219 9.10043 2.74219 9.23584C2.74219 9.37125 2.78874 9.48552 2.88184 9.57862L5.87793 12.5747C6.02605 12.7101 6.1932 12.7778 6.3794 12.7778C6.48519 12.7778 6.58675 12.7546 6.68409 12.708C6.78142 12.6615 6.86182 12.5959 6.9253 12.5112L13.5713 4.09423C13.6433 3.9969 13.6792 3.89746 13.6792 3.79589C13.6792 3.63932 13.6158 3.51449 13.4888 3.42139L13.1524 3.14844Z"
		fill="currentColor" />
</svg>