<svg width="1.6rem" height="1.6rem" viewBox="0 0 16 16" fill="none" xmlns="http://www.w3.org/2000/svg">
	<path
		d="M11.0742 3.14844C10.9938 3.08073 10.8922 3.04688 10.7695 3.04688C10.6214 3.04688 10.4944 3.10612 10.3886 3.22461L4.19971 10.8608L1.79395 8.58838C1.75163 8.54183 1.70085 8.50586 1.6416 8.48046C1.58236 8.45507 1.521 8.44239 1.45752 8.44239C1.32634 8.44239 1.21208 8.49104 1.11475 8.58838L0.803711 8.89942C0.710612 8.98829 0.664062 9.10043 0.664062 9.23584C0.664062 9.37125 0.710612 9.48552 0.803711 9.57862L3.79981 12.5747C3.94792 12.7101 4.11507 12.7778 4.30127 12.7778C4.40707 12.7778 4.50863 12.7546 4.60596 12.708C4.70329 12.6615 4.78369 12.5959 4.84717 12.5112L11.4931 4.09423C11.5651 3.9969 11.601 3.89746 11.601 3.79589C11.601 3.63932 11.5376 3.51449 11.4106 3.42139L11.0742 3.14844ZM8.62403 10.8228C8.4336 10.7043 8.25163 10.5858 8.07813 10.4673C7.99772 10.3869 7.89193 10.3467 7.76074 10.3467C7.61263 10.3467 7.49203 10.3996 7.39893 10.5054L7.10694 10.8354C7.0223 10.9328 6.97998 11.0407 6.97998 11.1592C6.97998 11.2904 7.02653 11.4046 7.11963 11.502L8.19873 12.5747C8.33415 12.7101 8.49919 12.7778 8.69385 12.7778C8.79964 12.7778 8.90121 12.7546 8.99854 12.708C9.09587 12.6615 9.17839 12.5959 9.2461 12.5112L15.8667 4.11962C15.9386 4.03499 15.9746 3.93555 15.9746 3.82129C15.9746 3.6774 15.9153 3.55257 15.7968 3.44678L15.4414 3.17383C15.361 3.10612 15.2615 3.07226 15.143 3.07226C14.9992 3.07226 14.8743 3.13151 14.7685 3.25L8.62403 10.8228Z"
		fill="currentColor" />
</svg>