<svg width="2.4rem" height="2.4rem" viewBox="0 0 25 24" fill="none" xmlns="http://www.w3.org/2000/svg">
	<path
		d="M19.6027 8.60156H5.45982C4.94833 8.60156 4.45779 8.80701 4.09612 9.1727C3.73444 9.5384 3.53125 10.0344 3.53125 10.5516V17.0516C3.53125 17.5687 3.73444 18.0647 4.09612 18.4304C4.45779 18.7961 4.94833 19.0016 5.45982 19.0016H19.6027C20.1142 19.0016 20.6047 18.7961 20.9664 18.4304C21.3281 18.0647 21.5312 17.5687 21.5312 17.0516V10.5516C21.5312 10.0344 21.3281 9.5384 20.9664 9.1727C20.6047 8.80701 20.1142 8.60156 19.6027 8.60156ZM20.2455 17.0516C20.2455 17.224 20.1778 17.3893 20.0572 17.5112C19.9367 17.6331 19.7732 17.7016 19.6027 17.7016H5.45982C5.28933 17.7016 5.12581 17.6331 5.00525 17.5112C4.88469 17.3893 4.81696 17.224 4.81696 17.0516V10.5516C4.81696 10.3792 4.88469 10.2138 5.00525 10.0919C5.12581 9.97004 5.28933 9.90156 5.45982 9.90156H19.6027C19.7732 9.90156 19.9367 9.97004 20.0572 10.0919C20.1778 10.2138 20.2455 10.3792 20.2455 10.5516V17.0516Z"
		fill="currentColor" />
	<path
		d="M12.5301 10.55C11.8944 10.55 11.273 10.7406 10.7444 11.0977C10.2158 11.4548 9.8038 11.9624 9.56052 12.5563C9.31724 13.1501 9.25359 13.8036 9.37761 14.434C9.50163 15.0645 9.80776 15.6436 10.2573 16.0981C10.7068 16.5526 11.2795 16.8621 11.9031 16.9876C12.5266 17.113 13.1729 17.0486 13.7602 16.8026C14.3475 16.5566 14.8495 16.1401 15.2027 15.6056C15.5559 15.0711 15.7444 14.4428 15.7444 13.8C15.7444 12.938 15.4058 12.1114 14.803 11.5019C14.2002 10.8924 13.3826 10.55 12.5301 10.55ZM12.5301 15.75C12.1487 15.75 11.7758 15.6356 11.4587 15.4214C11.1415 15.2071 10.8943 14.9025 10.7484 14.5462C10.6024 14.1899 10.5642 13.7978 10.6386 13.4196C10.713 13.0413 10.8967 12.6939 11.1664 12.4211C11.4361 12.1484 11.7798 11.9627 12.1539 11.8875C12.528 11.8122 12.9158 11.8508 13.2682 11.9984C13.6206 12.146 13.9218 12.396 14.1337 12.7166C14.3456 13.0373 14.4587 13.4143 14.4587 13.8C14.4587 14.3172 14.2555 14.8132 13.8938 15.1789C13.5322 15.5446 13.0416 15.75 12.5301 15.75ZM7.38728 11.2H6.74442C6.57392 11.2 6.41041 11.2685 6.28985 11.3904C6.16929 11.5123 6.10156 11.6776 6.10156 11.85C6.10156 12.0224 6.16929 12.1877 6.28985 12.3096C6.41041 12.4315 6.57392 12.5 6.74442 12.5H7.38728C7.55777 12.5 7.72129 12.4315 7.84185 12.3096C7.9624 12.1877 8.03013 12.0224 8.03013 11.85C8.03013 11.6776 7.9624 11.5123 7.84185 11.3904C7.72129 11.2685 7.55777 11.2 7.38728 11.2ZM18.3158 15.1H17.673C17.5025 15.1 17.339 15.1685 17.2184 15.2904C17.0979 15.4123 17.0301 15.5776 17.0301 15.75C17.0301 15.9224 17.0979 16.0877 17.2184 16.2096C17.339 16.3315 17.5025 16.4 17.673 16.4H18.3158C18.4863 16.4 18.6499 16.3315 18.7704 16.2096C18.891 16.0877 18.9587 15.9224 18.9587 15.75C18.9587 15.5776 18.891 15.4123 18.7704 15.2904C18.6499 15.1685 18.4863 15.1 18.3158 15.1ZM6.74442 7.3H18.3158C18.4863 7.3 18.6499 7.23152 18.7704 7.10962C18.891 6.98772 18.9587 6.82239 18.9587 6.65C18.9587 6.47761 18.891 6.31228 18.7704 6.19038C18.6499 6.06848 18.4863 6 18.3158 6H6.74442C6.57392 6 6.41041 6.06848 6.28985 6.19038C6.16929 6.31228 6.10156 6.47761 6.10156 6.65C6.10156 6.82239 6.16929 6.98772 6.28985 7.10962C6.41041 7.23152 6.57392 7.3 6.74442 7.3Z"
		fill="currentColor" />
</svg>