<svg width="2.4rem" height="2.4rem" viewBox="0 0 25 24" fill="none"
    xmlns="http://www.w3.org/2000/svg">
    <path
        d="M19.5 3H5.5C4.70435 3 3.94129 3.31607 3.37868 3.87868C2.81607 4.44129 2.5 5.20435 2.5 6V11H22.5V6C22.5 5.20435 22.1839 4.44129 21.6213 3.87868C21.0587 3.31607 20.2956 3 19.5 3ZM2.5 14C2.5 14.7956 2.81607 15.5587 3.37868 16.1213C3.94129 16.6839 4.70435 17 5.5 17H11.5V19H7.5C7.23478 19 6.98043 19.1054 6.79289 19.2929C6.60536 19.4804 6.5 19.7348 6.5 20C6.5 20.2652 6.60536 20.5196 6.79289 20.7071C6.98043 20.8946 7.23478 21 7.5 21H17.5C17.7652 21 18.0196 20.8946 18.2071 20.7071C18.3946 20.5196 18.5 20.2652 18.5 20C18.5 19.7348 18.3946 19.4804 18.2071 19.2929C18.0196 19.1054 17.7652 19 17.5 19H13.5V17H19.5C20.2956 17 21.0587 16.6839 21.6213 16.1213C22.1839 15.5587 22.5 14.7956 22.5 14V13H2.5V14Z"
        fill="currentColor" />
</svg>