<svg width="2.4rem" height="2.4rem" viewBox="0 0 25 24" fill="none"
    xmlns="http://www.w3.org/2000/svg">
    <path
        d="M11.51 3.0505C7.01 3.5405 3.5 7.3605 3.5 12.0005C3.5 14.3874 4.44821 16.6766 6.13604 18.3645C7.82387 20.0523 10.1131 21.0005 12.5 21.0005C17.13 21.0005 20.95 17.5005 21.45 13.0005C21.54 12.2105 20.67 11.5805 19.91 12.0505C19.0937 12.5716 18.1523 12.8636 17.1844 12.8961C16.2165 12.9287 15.2576 12.7004 14.4082 12.2353C13.5587 11.7702 12.8499 11.0853 12.3559 10.2524C11.8618 9.41939 11.6008 8.46895 11.6 7.5005C11.6 6.4405 11.91 5.4405 12.44 4.6105C12.89 3.9405 12.4 2.9805 11.51 3.0505Z"
        fill="currentColor" />
</svg>