<svg width="2.4rem" height="2.4rem" viewBox="0 0 24 24" fill="none" xmlns="http://www.w3.org/2000/svg">
	<path fill-rule="evenodd" clip-rule="evenodd"
		d="M8.29194 4.66003C5.85521 5.97466 4.2 8.55192 4.2 11.515C4.2 15.8135 7.68273 19.2976 11.9783 19.2976C14.9147 19.2976 17.4723 17.6692 18.7962 15.2644C15.6183 16.211 12.5225 15.4289 10.441 13.4717C8.30687 11.4651 7.3054 8.28894 8.29194 4.66003ZM20.0684 13.6894C20.0763 13.6918 20.0843 13.6944 20.0922 13.6971C20.4053 13.8057 20.5711 14.1475 20.4625 14.4606C19.2441 17.9738 15.9067 20.4976 11.9783 20.4976C7.01941 20.4976 3 16.4756 3 11.515C3 7.59546 5.5089 4.26351 9.00613 3.03644C9.2536 2.94961 9.5197 3.03457 9.67431 3.2288C9.8393 3.39149 9.90166 3.64258 9.81286 3.87251C8.37351 7.59939 9.28644 10.739 11.263 12.5974C13.2489 14.4647 16.3909 15.1195 19.588 13.6931C19.7468 13.6222 19.9201 13.626 20.0684 13.6894Z"
		fill="currentColor" />
	<path
		d="M16.6223 6.01362C16.7511 5.66538 17.2436 5.66538 17.3724 6.01362L17.5843 6.58581C17.7261 6.96902 18.0281 7.27115 18.4113 7.41295L18.9836 7.62468C19.3318 7.75354 19.3318 8.2461 18.9836 8.37496L18.4113 8.58669C18.0281 8.72849 17.7261 9.03062 17.5843 9.41383L17.3724 9.98602C17.2436 10.3342 16.7511 10.3342 16.6223 9.98602L16.4104 9.41383C16.2686 9.03062 15.9666 8.72849 15.5834 8.58669L15.0112 8.37496C14.663 8.2461 14.663 7.75354 15.0112 7.62468L15.5834 7.41295C15.9666 7.27115 16.2686 6.96902 16.4104 6.58581L16.6223 6.01362Z"
		fill="currentColor" />
</svg>