<svg width="2.4rem" height="2.4rem" viewBox="0 0 24 24" fill="none" xmlns="http://www.w3.org/2000/svg">
	<path
		d="M12.5 8C12.2033 8 11.9133 7.91203 11.6666 7.7472C11.42 7.58238 11.2277 7.34811 11.1142 7.07403C11.0006 6.79994 10.9709 6.49834 11.0288 6.20736C11.0867 5.91639 11.2296 5.64912 11.4393 5.43934C11.6491 5.22956 11.9164 5.0867 12.2074 5.02882C12.4983 4.97094 12.7999 5.00065 13.074 5.11418C13.3481 5.22771 13.5824 5.41997 13.7472 5.66665C13.912 5.91332 14 6.20333 14 6.5C14 6.89783 13.842 7.27936 13.5607 7.56066C13.2794 7.84196 12.8978 8 12.5 8ZM12.5 14C12.2033 14 11.9133 13.912 11.6666 13.7472C11.42 13.5824 11.2277 13.3481 11.1142 13.074C11.0006 12.7999 10.9709 12.4983 11.0288 12.2074C11.0867 11.9164 11.2296 11.6491 11.4393 11.4393C11.6491 11.2296 11.9164 11.0867 12.2074 11.0288C12.4983 10.9709 12.7999 11.0006 13.074 11.1142C13.3481 11.2277 13.5824 11.42 13.7472 11.6666C13.912 11.9133 14 12.2033 14 12.5C14 12.8978 13.842 13.2794 13.5607 13.5607C13.2794 13.842 12.8978 14 12.5 14ZM12.5 20C12.2033 20 11.9133 19.912 11.6666 19.7472C11.42 19.5824 11.2277 19.3481 11.1142 19.074C11.0006 18.7999 10.9709 18.4983 11.0288 18.2074C11.0867 17.9164 11.2296 17.6491 11.4393 17.4393C11.6491 17.2296 11.9164 17.0867 12.2074 17.0288C12.4983 16.9709 12.7999 17.0006 13.074 17.1142C13.3481 17.2277 13.5824 17.42 13.7472 17.6666C13.912 17.9133 14 18.2033 14 18.5C14 18.8978 13.842 19.2794 13.5607 19.5607C13.2794 19.842 12.8978 20 12.5 20Z"
		fill="currentColor" />
</svg>