<svg width="2rem" height="2rem" viewBox="0 0 20 14" fill="none" xmlns="http://www.w3.org/2000/svg">
    <path
        d="M9.9062 1.5625H8.4227C8.3453 1.5625 8.282 1.62578 8.282 1.70312V9.6766H8.1484L2.62656 1.62344C2.60078 1.58594 2.55625 1.5625 2.51172 1.5625H0.95312C0.87578 1.5625 0.8125 1.62578 0.8125 1.70312V12.5781C0.8125 12.6555 0.87578 12.7188 0.95312 12.7188H2.42266C2.5 12.7188 2.56328 12.6555 2.56328 12.5781V4.49453H2.69687L8.2797 12.6578C8.3055 12.6953 8.35 12.7188 8.3969 12.7188H9.9062C9.9836 12.7188 10.0469 12.6555 10.0469 12.5781V1.70312C10.0469 1.62578 9.9836 1.5625 9.9062 1.5625ZM18.7656 11.2422H11.6406C11.5375 11.2422 11.4531 11.3266 11.4531 11.4297V12.5547C11.4531 12.6578 11.5375 12.7422 11.6406 12.7422H18.7656C18.8687 12.7422 18.9531 12.6578 18.9531 12.5547V11.4297C18.9531 11.3266 18.8687 11.2422 18.7656 11.2422ZM15.1984 9.7656C16.4383 9.7656 17.4297 9.3625 18.1562 8.5539C18.8453 7.7828 19.1875 6.7773 19.1875 5.5352C19.1875 4.29063 18.8453 3.27344 18.1562 2.50469C17.432 1.68906 16.4406 1.28125 15.1984 1.28125C13.9398 1.28125 12.9508 1.69141 12.2383 2.51875C11.5539 3.29453 11.2211 4.29766 11.2211 5.5352C11.2211 6.7633 11.5562 7.7664 12.2406 8.5422C12.9578 9.3555 13.9516 9.7656 15.1984 9.7656ZM13.5227 3.58516C13.9187 3.10234 14.4672 2.86094 15.1961 2.86094C15.9344 2.86094 16.4805 3.08594 16.8602 3.54297C17.2445 4.01875 17.4437 4.68203 17.4437 5.5328C17.4437 6.3836 17.2469 7.0352 16.8625 7.4992C16.4758 7.9539 15.925 8.1836 15.1961 8.1836C14.4648 8.1836 13.907 7.9422 13.5227 7.4711C13.1406 7 12.9484 6.3625 12.9484 5.5352C12.9508 4.69609 13.1406 4.05859 13.5227 3.58516Z"
        fill="currentColor" stroke="#5D606D" />
</svg>