<svg width="2.4rem" height="2.4rem" viewBox="0 0 24 24" fill="none" xmlns="http://www.w3.org/2000/svg">
	<path
		d="M21.9547 4.38708C20.1113 2.54369 17.1119 2.54371 15.3606 4.47735L10.3765 9.46143C9.92618 9.86758 9.56412 10.3619 9.31277 10.9138C8.72563 12.2057 10.4054 13.3363 11.4088 12.3329C11.5193 12.2193 11.6095 12.0877 11.6755 11.9437C11.7981 11.6871 11.9774 11.4618 12.1998 11.2848L17.1839 6.30069C17.9306 5.3717 19.2935 5.37259 20.1313 6.21042C20.9692 7.04824 20.9701 8.4112 20.2234 9.34018L15.2393 14.3243C15.0092 14.5095 14.7476 14.6518 14.4671 14.7445L12.0439 17.1678C12.8948 17.4652 13.8102 17.5274 14.6936 17.3479C15.5769 17.1683 16.3954 16.7536 17.0627 16.1476L22.0467 11.1635C23.798 9.22987 23.7981 6.23047 21.9547 4.38708Z"
		fill="currentColor" />
	<path
		d="M12.5146 11.8833L12.5095 11.8885C12.4093 11.9887 12.0294 12.6256 11.8598 12.7953L6.87667 17.7784C6.67536 17.9791 6.43629 18.1379 6.17326 18.2458C5.91023 18.3536 5.62845 18.4082 5.34419 18.4065C5.05993 18.4048 4.77882 18.3469 4.51708 18.236C4.25535 18.125 4.01817 17.9634 3.81926 17.7603C3.42616 17.344 3.21204 16.7901 3.22291 16.2176C3.23379 15.6451 3.46878 15.0997 3.87741 14.6987L8.82031 9.75576C9.06643 9.50841 9.36992 9.32581 9.70374 9.22423L12.0577 6.87032C11.2019 6.53786 10.268 6.46125 9.36959 6.64982C8.47113 6.83838 7.64683 7.28398 6.99698 7.93242L2.07656 12.8528C0.250952 14.6785 0.152302 17.652 1.93424 19.5203C2.36954 19.976 2.89149 20.3403 3.46946 20.5916C4.04743 20.843 4.66978 20.9764 5.29999 20.984C5.9302 20.9915 6.55558 20.8732 7.13943 20.6358C7.72328 20.3985 8.25385 20.0469 8.7 19.6017L12.2546 16.0472L13.6831 14.6186C14.0586 14.2439 14.3679 13.8084 14.5982 13.3306C15.2214 12.0364 13.5304 10.8676 12.5146 11.8833Z"
		fill="currentColor" />
</svg>