<svg width="2.4rem" height="2.4rem" viewBox="0 0 16 16" fill="none" xmlns="http://www.w3.org/2000/svg">
	<path
		d="M10.2082 10.5268C9.51899 10.5283 8.83623 10.3937 8.19912 10.1307C7.56201 9.86769 6.9831 9.48151 6.49558 8.99428C5.63203 8.13495 5.09331 7.00267 4.9713 5.79053C4.84928 4.57839 5.15153 3.36146 5.8265 2.34726C6.50147 1.33307 7.50735 0.584422 8.67262 0.22899C9.83788 -0.126441 11.0904 -0.0666442 12.2165 0.398184C13.3426 0.863013 14.2726 1.70409 14.8478 2.77797C15.4231 3.85186 15.608 5.09205 15.3711 6.28705C15.1342 7.48206 14.49 8.55786 13.5485 9.33101C12.607 10.1042 11.4265 10.5268 10.2082 10.5268ZM10.2082 1.40479C9.44284 1.40666 8.69513 1.63504 8.05933 2.06116C7.42353 2.48728 6.92808 3.09207 6.63544 3.7993C6.34279 4.50654 6.26603 5.28457 6.41484 6.03536C6.56364 6.78614 6.93136 7.47608 7.47164 8.01823C7.92216 8.47031 8.47732 8.80417 9.08785 8.99017C9.69838 9.17618 10.3454 9.20858 10.9714 9.08449C11.5975 8.96041 12.1832 8.68367 12.6767 8.27886C13.1701 7.87405 13.5559 7.35368 13.8 6.76394C14.044 6.1742 14.1387 5.53334 14.0756 4.89823C14.0124 4.26312 13.7935 3.65342 13.4382 3.12325C13.0828 2.59307 12.6021 2.15882 12.0387 1.85904C11.4752 1.55926 10.8465 1.40323 10.2082 1.40479Z"
		fill="currentColor" />
	<path
		d="M0.630314 15.5438C0.454312 15.5304 0.290583 15.4485 0.174215 15.3158C0.0620244 15.1904 0 15.028 0 14.8597C0 14.6914 0.0620244 14.529 0.174215 14.4036L6.06702 8.50166C6.19645 8.37344 6.37152 8.30189 6.55371 8.30274C6.64392 8.30317 6.73317 8.32135 6.81635 8.35627C6.89953 8.39118 6.97502 8.44214 7.03851 8.50622C7.102 8.57031 7.15225 8.64628 7.18638 8.72979C7.22051 8.81329 7.23786 8.9027 7.23743 8.99292C7.23701 9.08313 7.21882 9.17237 7.18391 9.25555C7.149 9.33874 7.09804 9.41423 7.03395 9.47772L1.08641 15.3158C0.970045 15.4485 0.806317 15.5304 0.630314 15.5438Z"
		fill="currentColor" />
	<path
		d="M3.82302 16C3.73314 16.0004 3.64407 15.9829 3.56105 15.9484C3.47803 15.914 3.40272 15.8633 3.33956 15.7993L1.51516 13.9749C1.39431 13.8452 1.32852 13.6737 1.33165 13.4964C1.33478 13.3192 1.40658 13.1501 1.53193 13.0247C1.65727 12.8994 1.82638 12.8276 2.00362 12.8245C2.18086 12.8213 2.3524 12.8871 2.48209 13.008L4.30649 14.8324C4.43461 14.9606 4.50657 15.1345 4.50657 15.3158C4.50657 15.4971 4.43461 15.671 4.30649 15.7993C4.24333 15.8633 4.16802 15.914 4.085 15.9484C4.00198 15.9829 3.91291 16.0004 3.82302 16ZM5.64742 14.1756C5.55753 14.176 5.46847 14.1585 5.38545 14.124C5.30242 14.0896 5.22712 14.0389 5.16396 13.9749L3.33956 12.1505C3.27234 12.0879 3.21843 12.0123 3.18104 11.9284C3.14364 11.8445 3.12354 11.7539 3.12192 11.662C3.1203 11.5702 3.13719 11.4789 3.1716 11.3937C3.20601 11.3086 3.25723 11.2312 3.32219 11.1662C3.38716 11.1012 3.46454 11.05 3.54973 11.0156C3.63492 10.9812 3.72617 10.9643 3.81803 10.9659C3.90989 10.9675 4.00048 10.9877 4.0844 11.025C4.16833 11.0624 4.24386 11.1164 4.30649 11.1836L6.13089 13.008C6.25901 13.1362 6.33097 13.3101 6.33097 13.4914C6.33097 13.6727 6.25901 13.8466 6.13089 13.9749C6.06772 14.0389 5.99242 14.0896 5.9094 14.124C5.82638 14.1585 5.73731 14.176 5.64742 14.1756Z"
		fill="currentColor" />
</svg>