<svg width="2.4rem" height="2.4rem" viewBox="0 0 20 20" fill="none" xmlns="http://www.w3.org/2000/svg">
	<path
		d="M5.62355 18.4381C5.68601 18.2242 5.62355 17.9706 5.39711 17.6973C5.17458 17.4279 4.79589 17.1704 4.3274 17.0278C4.06192 16.9486 3.80425 16.9129 3.57001 16.9169M5.62355 18.4381L5.14431 18.2955C5.14423 18.2958 5.14413 18.2961 5.14402 18.2964M5.62355 18.4381L5.14359 18.2979L5.14362 18.2978C5.14369 18.2976 5.14383 18.2971 5.14402 18.2964M5.62355 18.4381C5.56108 18.648 5.36978 18.8263 5.03403 18.9253C4.69828 19.0283 4.24541 19.0323 3.78083 18.8897C3.31234 18.7471 2.93365 18.4896 2.70721 18.2202M5.14402 18.2964C5.14717 18.2843 5.16265 18.198 5.01207 18.0162L5.01163 18.0157C4.85979 17.8319 4.56976 17.6245 4.18304 17.5065M5.14402 18.2964C5.14228 18.3019 5.1358 18.3182 5.10693 18.3428C5.07367 18.3711 5.00862 18.4115 4.89257 18.4458L4.89257 18.4457L4.88739 18.4473C4.65919 18.5173 4.30924 18.5289 3.92756 18.4117L3.92644 18.4114C3.5419 18.2943 3.25046 18.0879 3.09245 17.9014M4.18304 17.5065C4.1835 17.5066 4.18395 17.5068 4.18441 17.5069L4.32739 17.0278L4.18179 17.5061C4.18221 17.5062 4.18262 17.5064 4.18304 17.5065ZM4.18304 17.5065C3.9631 17.441 3.75738 17.4139 3.57951 17.4168M3.57951 17.4168C3.57994 17.4168 3.58037 17.4168 3.5808 17.4167L3.57001 16.9169M3.57951 17.4168C3.57916 17.4168 3.57881 17.4168 3.57846 17.4168L3.57001 16.9169M3.57951 17.4168C3.44076 17.4199 3.3175 17.4408 3.21239 17.4715M3.57001 16.9169C3.38652 16.9208 3.21864 16.9486 3.07029 16.9921C2.73844 17.0912 2.54714 17.2694 2.48468 17.4794C2.41831 17.6933 2.48468 17.9468 2.70721 18.2202M3.21239 17.4715C3.21268 17.4714 3.21298 17.4713 3.21328 17.4713L3.0703 16.9922L3.2112 17.4719C3.2116 17.4717 3.21199 17.4716 3.21239 17.4715ZM3.21239 17.4715C3.09909 17.5054 3.03493 17.5455 3.00175 17.5739C2.97077 17.6004 2.96522 17.6176 2.96392 17.622L2.96226 17.6276L2.96222 17.6276L2.9622 17.6276C2.96107 17.6313 2.956 17.6476 2.96775 17.688C2.98062 17.7323 3.01398 17.8044 3.09245 17.9014M3.09245 17.9014C3.09162 17.9004 3.09078 17.8995 3.08995 17.8985L2.70721 18.2202M3.09245 17.9014C3.09328 17.9025 3.09412 17.9035 3.09496 17.9045L2.70721 18.2202M16.4952 4.95778L12.8512 4.69218L12.2924 4.65145L12.3153 5.21128C12.3415 5.8536 12.0553 6.24733 11.5249 6.81118C11.4676 6.87214 11.4077 6.93473 11.3458 6.99937C10.8411 7.52675 10.2056 8.19091 9.7528 9.22517L9.73999 9.25441L9.73101 9.28506L9.35938 10.553C9.17684 10.416 9.07123 10.2515 9.0206 10.0584C8.92515 9.69458 8.98752 9.10053 9.4234 8.16228C9.91973 7.25536 10.0756 6.44038 9.89571 5.75217C9.71105 5.04562 9.20003 4.57617 8.58984 4.32623C7.40953 3.84275 5.74163 4.11797 4.64229 5.08001L4.60267 5.11469L4.57114 5.15685L3.10774 7.1139C2.85525 7.25782 2.70514 7.27647 2.63897 7.2717C2.59142 7.26827 2.5747 7.25508 2.55457 7.22282C2.52374 7.17342 2.4938 7.07548 2.50109 6.93858C2.50796 6.80955 2.54639 6.68458 2.60291 6.59146L4.63843 3.78189L8.33743 1.7721L8.36855 1.7552L8.39697 1.73408C8.55443 1.61706 8.84972 1.51169 9.37883 1.50004L16.4653 1.55185L16.4952 4.95778ZM5.79718 6.1279C5.87737 6.06272 5.9628 6.00202 6.05232 5.94666C5.97759 6.11816 5.92061 6.29431 5.87256 6.48713C5.72922 6.83923 5.59787 7.02833 5.50248 7.10827C5.47226 7.13359 5.45569 7.13945 5.45151 7.14051C5.44628 7.14035 5.42788 7.13788 5.39194 7.11935L5.14812 6.99369L5.79718 6.1279ZM4.19844 9.53859C4.20587 9.51539 4.21328 9.49486 4.22047 9.47676C4.23322 9.48998 4.24698 9.50515 4.26166 9.52254L4.26165 9.52255L4.2646 9.52598C4.41099 9.69613 4.57584 10.019 4.66075 10.4383C4.74102 10.8503 4.71058 11.2156 4.63767 11.4348L4.63766 11.4348L4.63651 11.4384C4.62918 11.461 4.62191 11.481 4.61487 11.4988C4.60296 11.4864 4.59019 11.4722 4.57662 11.4562L4.57664 11.4561L4.57332 11.4523C4.42281 11.2777 4.25866 10.955 4.17794 10.5425C4.09643 10.1218 4.12467 9.76049 4.19671 9.54388L4.19674 9.54389L4.19844 9.53859ZM5.7654 14.4938L5.76541 14.4938L5.76724 14.491C5.89382 14.2998 6.15986 14.0528 6.52942 13.8666C6.85537 13.7066 7.16649 13.6331 7.38389 13.6297C7.43124 13.6297 7.44726 13.6301 7.46329 13.6315L7.47417 13.6325L7.48508 13.6331C7.51084 13.6343 7.53351 13.6363 7.55336 13.6388C7.54236 13.6589 7.52871 13.6815 7.51181 13.7067L7.5118 13.7067L7.50997 13.7094C7.3844 13.8992 7.11883 14.1434 6.74585 14.3309C6.37544 14.5172 6.02185 14.5813 5.79814 14.5678L5.79815 14.5677L5.79213 14.5674C5.76635 14.5662 5.74366 14.5641 5.72383 14.5616C5.73483 14.5416 5.74848 14.519 5.7654 14.4938Z"
		fill="currentColor" stroke="currentColor" />
</svg>