<svg width="2.4rem" height="2.4rem" viewBox="0 0 24 24" fill="none" xmlns="http://www.w3.org/2000/svg">
	<path fill-rule="evenodd" clip-rule="evenodd"
		d="M3 7C3 4.79086 4.79086 3 7 3H17C19.2091 3 21 4.79086 21 7V16.1224C20.7186 15.9336 20.3939 15.811 20.0487 15.7688L17.4897 15.4554V12.9391C17.4897 11.87 16.6197 11 15.5514 11C14.4831 11 13.613 11.87 13.613 12.9391V16.6381L12.9054 16.2004C12.0735 15.6865 10.9945 15.8817 10.3967 16.6556C9.84008 17.3754 9.87211 18.3949 10.4745 19.0789L12.1666 21H7C4.79086 21 3 19.2091 3 17V7ZM20.2124 19.3837C19.4835 20.3645 18.3159 21 17 21H13.9959L11.5039 18.1708C11.3354 17.9801 11.327 17.6957 11.4826 17.4936C11.587 17.3587 11.7433 17.287 11.9027 17.287C11.998 17.287 12.0956 17.3129 12.1825 17.3671L13.9371 18.4537C14.1483 18.584 14.4152 18.5909 14.6325 18.4697C14.8499 18.3484 14.9848 18.1189 14.9848 17.8703V12.9391C14.9848 12.6272 15.2387 12.3733 15.5514 12.3733C15.864 12.3733 16.1179 12.6272 16.1179 12.9391V16.0631C16.1179 16.4101 16.3764 16.7021 16.7211 16.7448L19.8817 17.1314C20.1219 17.1604 20.327 17.2878 20.4605 17.4898C20.5939 17.6919 20.6305 17.929 20.5642 18.1616L20.2124 19.3837ZM7.50017 7C7.75601 7 7.99285 7.11557 8.1284 7.30146L8.15416 7.33962L9.92979 10.057L9.94529 10.085C9.98965 10.1823 10.0074 10.2875 9.99718 10.3921C9.98693 10.4966 9.94894 10.5976 9.88631 10.6866C9.82369 10.7757 9.7382 10.8503 9.63683 10.9045C9.53547 10.9586 9.4211 10.9908 9.30306 10.9982L9.2533 11H5.75205L5.7398 10.9993L5.71179 10.9998C5.6004 10.9947 5.49169 10.9676 5.39357 10.9206C5.29545 10.8736 5.2104 10.8077 5.14459 10.7278L5.11733 10.6923C5.05777 10.6093 5.0197 10.5156 5.00586 10.418C4.99202 10.3204 5.00276 10.2213 5.0373 10.1278L5.05531 10.0847L5.07031 10.057L6.84394 7.34339C6.90881 7.23936 7.00392 7.15264 7.11937 7.09225C7.23482 7.03186 7.36614 7.00001 7.50017 7ZM7.50017 17C7.75601 17 7.99285 16.8844 8.1284 16.6985L8.15416 16.6604L9.92979 13.943L9.94529 13.915C9.98965 13.8177 10.0074 13.7125 9.99718 13.6079C9.98693 13.5034 9.94894 13.4024 9.88631 13.3134C9.82369 13.2243 9.7382 13.1497 9.63683 13.0955C9.53547 13.0414 9.4211 13.0092 9.30306 13.0018L9.2533 13H5.75205L5.7398 13.0007L5.71179 13.0002C5.6004 13.0053 5.49169 13.0324 5.39357 13.0794C5.29545 13.1264 5.2104 13.1923 5.14459 13.2722L5.11733 13.3077C5.05777 13.3907 5.0197 13.4844 5.00586 13.582C4.99202 13.6796 5.00276 13.7787 5.0373 13.8722L5.05531 13.9153L5.07031 13.943L6.84394 16.6566C6.90881 16.7606 7.00392 16.8474 7.11937 16.9077C7.23482 16.9681 7.36614 17 7.50017 17Z"
		fill="currentColor" />
</svg>