<svg width="2.4rem" height="2.4rem" viewBox="0 0 24 24" fill="none" xmlns="http://www.w3.org/2000/svg">
	<path
		d="M6.4443 3.68762C6.97115 3.33559 7.52766 3.03615 8.10577 2.79172C9.50868 2.19859 10.2101 1.90202 11.1051 2.49528C12 3.08855 12 4.0598 12 6.00232V8.00232C12 9.88793 12 10.8307 12.5858 11.4165C13.1716 12.0023 14.1144 12.0023 16 12.0023H18C19.9425 12.0023 20.9138 12.0023 21.507 12.8972C22.1003 13.7922 21.8037 14.4936 21.2106 15.8965C20.9662 16.4746 20.6667 17.0311 20.3147 17.558C19.2159 19.2025 17.6541 20.4842 15.8268 21.2411C13.9996 21.998 11.9889 22.196 10.0491 21.8101C8.10929 21.4243 6.32746 20.4719 4.92894 19.0734C3.53041 17.6748 2.578 15.893 2.19215 13.9532C1.8063 12.0134 2.00433 10.0027 2.76121 8.17548C3.51809 6.34822 4.79981 4.78644 6.4443 3.68762Z"
		stroke="currentColor" stroke-width="2" />
	<path d="M14.5 2.3125C18.014 3.21695 20.7805 5.98344 21.685 9.49746" stroke="currentColor" stroke-width="2"
		stroke-linecap="round" />
</svg>