<svg width="2.4rem" height="2.4rem" viewBox="0 0 12 12" fill="none" xmlns="http://www.w3.org/2000/svg">
	<path
		d="M6.14331 9.14283L4.5002 7.4998L2.85717 5.85669C2.48694 5.47418 2.42973 4.88681 2.71931 4.44008C2.99953 3.955 3.50268 3.64114 4.06162 3.60285C4.81528 3.61785 5.67752 3.76928 6.21546 3.23134L8.175 1.27108C8.52751 0.91386 9.10252 0.909074 9.46089 1.26037L10.7396 2.53697C11.0909 2.89533 11.0861 3.47035 10.7289 3.82285L8.76866 5.78526C8.23072 6.3232 8.38294 7.18543 8.39722 7.93909C8.35865 8.49775 8.04486 9.00069 7.55992 9.28076C7.11326 9.57027 6.52582 9.51305 6.14331 9.14283Z"
		stroke="currentColor" stroke-linecap="round" stroke-linejoin="round" />
	<path d="M4.5 7.5L0.999919 11.0001" stroke="currentColor" stroke-linecap="round" stroke-linejoin="round" />
</svg>