<svg width="2rem" height="2rem" viewBox="0 0 20 20" fill="none" xmlns="http://www.w3.org/2000/svg">
	<path
		d="M10.0008 19.7612C4.59106 19.7612 0.205627 15.3757 0.205627 9.96603C0.205627 4.55633 4.59106 0.170898 10.0008 0.170898C15.4105 0.170898 19.7959 4.55633 19.7959 9.96603C19.7959 15.3757 15.4105 19.7612 10.0008 19.7612Z"
		fill="transparent" />
	<path fill-rule="evenodd" clip-rule="evenodd"
		d="M7.87919 12.3237L7.87913 10L7.87914 7.67628C7.88782 7.14402 8.26275 6.68827 8.78335 6.5771C9.3245 6.43224 9.90228 6.56614 10.3245 6.93425C10.8468 7.47778 11.3495 8.1946 12.1103 8.1946L14.882 8.1941C15.3839 8.19077 15.7939 8.59398 15.7989 9.09579L15.8004 10.9027C15.7954 11.4045 15.3854 11.8077 14.8835 11.8044L12.1098 11.8059C11.349 11.8059 10.8469 12.5232 10.3241 13.0662C9.90182 13.434 9.32425 13.5677 8.78335 13.4229C8.26275 13.3117 7.88782 12.8559 7.87919 12.3237Z"
		fill="transparent" stroke="currentColor" stroke-linecap="round" stroke-linejoin="round" />
	<path d="M7.87988 10.001L2.92999 10.001" stroke="currentColor" stroke-linecap="round" stroke-linejoin="round" />
</svg>