<svg width="2.4rem" height="2.4rem" viewBox="0 0 16 16" fill="none" xmlns="http://www.w3.org/2000/svg">
	<path
		d="M0.6 4C0.6 2.12223 2.12223 0.6 4 0.6H12C13.8778 0.6 15.4 2.12223 15.4 4V12C15.4 13.8778 13.8778 15.4 12 15.4H4C2.12223 15.4 0.6 13.8778 0.6 12V4Z"
		fill="transparent" stroke="currentColor" stroke-width="1.5" />
	<path fill-rule="evenodd" clip-rule="evenodd"
		d="M8 4C8.1273 4 8.24939 4.05057 8.33941 4.14059C8.42943 4.23061 8.48 4.3527 8.48 4.48V7.52H11.52C11.6473 7.52 11.7694 7.57057 11.8594 7.66059C11.9494 7.75061 12 7.8727 12 8C12 8.1273 11.9494 8.24939 11.8594 8.33941C11.7694 8.42943 11.6473 8.48 11.52 8.48H8.48V11.52C8.48 11.6473 8.42943 11.7694 8.33941 11.8594C8.24939 11.9494 8.1273 12 8 12C7.8727 12 7.75061 11.9494 7.66059 11.8594C7.57057 11.7694 7.52 11.6473 7.52 11.52V8.48H4.48C4.3527 8.48 4.23061 8.42943 4.14059 8.33941C4.05057 8.24939 4 8.1273 4 8C4 7.8727 4.05057 7.75061 4.14059 7.66059C4.23061 7.57057 4.3527 7.52 4.48 7.52H7.52V4.48C7.52 4.3527 7.57057 4.23061 7.66059 4.14059C7.75061 4.05057 7.8727 4 8 4Z"
		fill="currentColor" />
</svg>