<svg width="2.4rem" height="2.4rem" viewBox="0 0 24 24" fill="none" xmlns="http://www.w3.org/2000/svg">
	<path fill-rule="evenodd" clip-rule="evenodd"
		d="M12 6C12.191 6 12.3741 6.07586 12.5091 6.21088C12.6441 6.34591 12.72 6.52904 12.72 6.72V11.28H17.28C17.471 11.28 17.6541 11.3559 17.7891 11.4909C17.9241 11.6259 18 11.809 18 12C18 12.191 17.9241 12.3741 17.7891 12.5091C17.6541 12.6441 17.471 12.72 17.28 12.72H12.72V17.28C12.72 17.471 12.6441 17.6541 12.5091 17.7891C12.3741 17.9241 12.191 18 12 18C11.809 18 11.6259 17.9241 11.4909 17.7891C11.3559 17.6541 11.28 17.471 11.28 17.28V12.72H6.72C6.52904 12.72 6.34591 12.6441 6.21088 12.5091C6.07586 12.3741 6 12.191 6 12C6 11.809 6.07586 11.6259 6.21088 11.4909C6.34591 11.3559 6.52904 11.28 6.72 11.28H11.28V6.72C11.28 6.52904 11.3559 6.34591 11.4909 6.21088C11.6259 6.07586 11.809 6 12 6Z"
		fill="currentColor" />
</svg>