<svg width="2.4rem" height="2.4rem" viewBox="0 0 16 16" fill="none" xmlns="http://www.w3.org/2000/svg">
	<path
		d="M7.9987 1.32812C6.68016 1.32812 5.39123 1.71912 4.2949 2.45166C3.19857 3.1842 2.34409 4.22539 1.8395 5.44357C1.33492 6.66174 1.2029 8.00219 1.46013 9.29539C1.71737 10.5886 2.35231 11.7765 3.28466 12.7088C4.21701 13.6412 5.40489 14.2761 6.6981 14.5334C7.99131 14.7906 9.33175 14.6586 10.5499 14.154C11.7681 13.6494 12.8093 12.7949 13.5418 11.6986C14.2744 10.6023 14.6654 9.31333 14.6654 7.99479C14.6654 7.11931 14.4929 6.25241 14.1579 5.44357C13.8229 4.63473 13.3318 3.8998 12.7127 3.28075C12.0937 2.66169 11.3588 2.17063 10.5499 1.83559C9.74109 1.50056 8.87418 1.32813 7.9987 1.32812ZM7.9987 13.3281C6.94387 13.3281 5.91272 13.0153 5.03566 12.4293C4.1586 11.8433 3.47501 11.0103 3.07134 10.0358C2.66768 9.06123 2.56206 7.98887 2.76785 6.95431C2.97363 5.91974 3.48158 4.96944 4.22746 4.22356C4.97334 3.47768 5.92365 2.96972 6.95822 2.76394C7.99278 2.55815 9.06514 2.66377 10.0397 3.06743C11.0142 3.4711 11.8472 4.15469 12.4332 5.03175C13.0192 5.90881 13.332 6.93996 13.332 7.99479C13.332 9.40928 12.7701 10.7658 11.7699 11.766C10.7697 12.7662 9.41319 13.3281 7.9987 13.3281Z"
		fill="currentColor" />
	<path
		d="M8.00944 4.00004C8.62828 4.00004 9.22177 4.24588 9.65936 4.68346C10.0969 5.12105 10.3428 5.71454 10.3428 6.33338C10.3428 6.51019 10.2725 6.67976 10.1475 6.80478C10.0225 6.92981 9.85292 7.00004 9.67611 7.00004C9.4993 7.00004 9.32973 6.92981 9.2047 6.80478C9.07968 6.67976 9.00944 6.51019 9.00944 6.33338C9.00944 6.1356 8.95079 5.94226 8.84091 5.77781C8.73103 5.61336 8.57485 5.48519 8.39212 5.4095C8.2094 5.33381 8.00833 5.31401 7.81435 5.35259C7.62037 5.39118 7.44219 5.48642 7.30233 5.62627C7.16248 5.76612 7.06724 5.94431 7.02865 6.13829C6.99007 6.33227 7.00987 6.53334 7.08556 6.71606C7.16125 6.89879 7.28942 7.05497 7.45387 7.16485C7.61832 7.27473 7.81166 7.33338 8.00944 7.33338C8.18625 7.33338 8.35582 7.40362 8.48084 7.52864C8.60587 7.65366 8.67611 7.82323 8.67611 8.00004V9.33338C8.67611 9.51019 8.60587 9.67976 8.48084 9.80478C8.35582 9.92981 8.18625 10 8.00944 10C7.83263 10 7.66306 9.92981 7.53804 9.80478C7.41301 9.67976 7.34277 9.51019 7.34277 9.33338V8.56005C6.80404 8.40271 6.34033 8.05595 6.03711 7.58367C5.7339 7.11139 5.61162 6.54542 5.69281 5.99009C5.774 5.43475 6.05318 4.92748 6.47891 4.56177C6.90464 4.19606 7.44821 3.99656 8.00944 4.00004Z"
		fill="currentColor" />
	<path
		d="M8.01204 12.0052C7.64385 12.0052 7.34538 11.7067 7.34538 11.3385C7.34538 10.9704 7.64385 10.6719 8.01204 10.6719C8.38023 10.6719 8.67871 10.9704 8.67871 11.3385C8.67871 11.7067 8.38023 12.0052 8.01204 12.0052Z"
		fill="currentColor" />

</svg>