<svg width="2.4rem" height="2.4rem" viewBox="0 0 24 24" fill="none" xmlns="http://www.w3.org/2000/svg">
	<path
		d="M13.5135 10.2693C12.8483 10.2723 12.4743 10.6452 12.4058 11.0775C12.3265 11.5764 12.3516 11.836 13.5177 11.8134C14.6832 11.836 14.7125 11.5763 14.6332 11.0775C14.5644 10.6448 14.1777 10.2663 13.5135 10.2693ZM15.0347 8.39999H12.0005V9.15855H13.1383V9.91705H13.8969V9.15855H15.0347V8.39999ZM21.4823 20.9582H5.55296C4.3559 21.6475 4.41515 22.0537 4.41515 22.0537H22.6202C22.6202 22.0537 22.6794 21.6475 21.4823 20.9582ZM7.64379 17.7836C6.55296 17.8895 6.31152 19.9859 6.31152 19.9859H20.7238C20.7238 19.9859 20.4864 17.8895 19.3953 17.7836C19.3953 17.7836 19.3145 12.2846 13.5495 12.2457V12.2438C13.5392 12.2438 13.5299 12.2446 13.5196 12.2446C13.5093 12.2446 13.4999 12.2438 13.4896 12.2438V12.2457C7.72448 12.2845 7.64379 17.7836 7.64379 17.7836ZM10.4835 18.6403H7.82859C7.66822 18.6403 7.49894 18.5192 7.49894 18.4003C7.49894 18.2814 7.66822 18.2611 7.82859 18.2611H10.4835C10.6438 18.2611 10.7065 18.2814 10.7065 18.4003C10.7065 18.5192 10.6438 18.6403 10.4835 18.6403ZM12.7424 12.9828C13.1828 13.0861 12.8847 13.4279 12.8847 13.4279C9.76646 14.2902 9.48304 16.7428 9.48304 16.7428C9.0816 17.1425 8.93563 16.7065 8.93563 16.7065C9.46822 13.5172 12.7424 12.9828 12.7424 12.9828ZM3.27734 1.95241L1.00171 6.50367L2.13952 6.88292L4.41515 2.71097L3.27734 1.95241ZM22.0594 5.99881C21.4931 5.68884 16.1014 2.925 15.3399 2.58537C14.4477 2.18681 13.655 1.56649 11.8079 2.25945C11.2072 2.485 8.80267 3.45279 8.02043 3.76431C7.21264 4.0858 6.8663 4.03289 6.24118 3.72505L5.11147 3.15689L2.89472 6.96367C2.89472 6.96367 5.29846 7.82927 6.39888 8.16516C8.13558 8.69444 8.9304 8.23849 9.92491 7.75737C10.3453 7.55401 11.7142 6.78031 11.7142 6.78031C11.7142 6.78031 12.5446 6.12436 13.8969 6.12436C15.9684 6.12436 16.8703 6.07247 16.8703 5.55913C16.8703 4.99801 15.4191 4.98655 15.4139 4.98655H12.0005C10.8712 4.98655 9.47707 5.46025 9.47707 5.46025C9.47707 5.46025 10.6282 4.22799 12.0005 4.22799H15.4139C16.1502 4.23908 17.6895 4.43801 17.6895 5.3658C17.6895 6.57913 16.4517 6.91583 14.6554 6.88287C14.5154 6.88025 14.4016 6.86287 14.2761 6.88287C14.3446 6.91103 14.178 6.86063 14.2635 6.89769C14.5839 7.03807 15.0139 7.23807 15.5021 7.47289C16.7829 8.08735 17.4414 8.16511 18.0811 7.51364C18.5262 7.86361 19.0866 7.95961 19.5666 7.95961C20.1077 7.95961 20.5662 7.68329 20.4374 7.23663C21.8271 7.87183 22.5122 7.61593 22.8171 7.30959C23.2198 6.90399 22.9442 6.48217 22.0594 5.99881Z"
		fill="currentColor" />
</svg>