<svg width="2.4rem" height="2.4rem" viewBox="0 0 24 24" fill="none" xmlns="http://www.w3.org/2000/svg">
	<path
		d="M18.0802 19.975V20.7188C18.0802 20.8199 18.1205 20.9169 18.1921 20.9884C18.2638 21.0599 18.3609 21.1 18.4622 21.1H20.718C20.8192 21.1 20.9164 21.0599 20.988 20.9884C21.0597 20.9169 21.1 20.8199 21.1 20.7188C21.1 20.6176 21.0597 20.5206 20.988 20.4491C20.9164 20.3776 20.8192 20.3375 20.718 20.3375H18.8441V15.0531H20.718C20.8192 15.0531 20.9164 15.013 20.988 14.9416C21.0597 14.8701 21.1 14.7731 21.1 14.6719C21.1 14.5707 21.0597 14.4737 20.988 14.4022C20.9164 14.3307 20.8192 14.2906 20.718 14.2906L18.4622 14.2906L18.461 14.2906C18.4397 14.2909 18.4184 14.293 18.3975 14.2968C17.8377 13.927 17.2027 13.6851 16.5379 13.5885L16.5379 13.5885L16.5359 13.5883C15.3881 13.4452 14.4018 13.7784 13.6225 14.0417L13.6111 14.0456L13.611 14.0455L13.6083 14.0465C13.331 14.1492 13.0464 14.2314 12.7569 14.2924C12.0308 14.4209 11.2926 14.4675 10.556 14.4314L10.556 14.4312H10.5511H10.0027C9.3969 14.4312 9.02209 14.619 8.79455 14.8829L5.54273 12.9396C5.54264 12.9396 5.54255 12.9395 5.54246 12.9395C5.36161 12.83 4.97807 12.5995 4.54365 12.5217C4.32493 12.4826 4.08917 12.4812 3.85787 12.5563C3.62574 12.6316 3.40438 12.7818 3.21259 13.0354C3.0944 13.1826 3.00676 13.3518 2.95481 13.5332C2.90271 13.715 2.88755 13.9054 2.91021 14.0932L2.91006 14.0932L2.911 14.0986C2.94719 14.3045 3.02453 14.5011 3.13841 14.6766C3.25184 14.8515 3.39922 15.0019 3.57183 15.119C4.07151 15.4926 5.16379 16.3008 6.31329 17.1073C7.46208 17.9132 8.67488 18.7223 9.40934 19.0911C10.1382 19.4571 10.6639 19.6795 11.2086 19.8093C11.7534 19.9392 12.3118 19.975 13.1045 19.975H18.0802ZM4.02813 14.5074L4.02831 14.5072L4.02172 14.503C3.9297 14.4447 3.85039 14.3686 3.78851 14.2792C3.72787 14.1915 3.68518 14.0928 3.66286 13.9887C3.65149 13.8131 3.70752 13.6397 3.81977 13.5036L3.82036 13.5041L3.827 13.4937C3.87292 13.4216 3.93642 13.3622 4.01162 13.3211C4.08681 13.28 4.17123 13.2585 4.257 13.2588H4.25726C4.45017 13.2588 4.73018 13.3434 5.15346 13.5962L8.50334 15.6014C8.49606 15.6664 8.49252 15.7317 8.49275 15.7971C8.49283 16.3685 8.85841 16.7481 9.35979 16.9795C9.85913 17.2099 10.5097 17.3031 11.1306 17.3031C11.6813 17.3031 12.55 17.3382 13.2858 17.3733C13.6533 17.3909 13.9871 17.4085 14.2305 17.4216C14.3298 17.427 14.4153 17.4317 14.4819 17.4354C14.5619 17.4398 14.6149 17.4428 14.6325 17.4435L14.6325 17.4436C14.6826 17.4466 14.7328 17.4397 14.7803 17.4233C14.8277 17.407 14.8715 17.3815 14.9091 17.3482C14.9467 17.315 14.9773 17.2746 14.9993 17.2295C15.0213 17.1844 15.0342 17.1355 15.0372 17.0854C15.0402 17.0353 15.0333 16.9851 15.0169 16.9377C15.0004 16.8903 14.9748 16.8466 14.9415 16.8091C14.9081 16.7716 14.8677 16.741 14.8226 16.7191C14.7774 16.6972 14.7284 16.6844 14.6783 16.6814L14.6783 16.6812H14.6723C14.6517 16.6812 14.5217 16.6743 14.3187 16.6635C14.0662 16.6501 13.7006 16.6307 13.2922 16.6111C12.5603 16.5759 11.6973 16.5406 11.1306 16.5406C10.644 16.5406 10.1635 16.4759 9.80853 16.3434C9.44565 16.2079 9.25672 16.0203 9.25672 15.7969C9.25672 15.6291 9.28189 15.4854 9.37457 15.3817C9.46571 15.2797 9.64313 15.1938 10.0027 15.1938C10.1907 15.1938 10.3612 15.1938 10.5299 15.2034L10.531 15.2035C11.3194 15.2397 12.1093 15.1887 12.8864 15.0516L12.8864 15.0517L12.8897 15.051C13.2192 14.9813 13.5428 14.8861 13.8574 14.766C14.5866 14.5193 15.471 14.2221 16.439 14.349C17.0295 14.439 17.5911 14.6636 18.0802 15.0049V19.2125H13.1045C12.3556 19.2125 11.8625 19.1818 11.3858 19.0676C10.9089 18.9533 10.4428 18.7541 9.74976 18.4088C9.05268 18.0611 7.87132 17.2726 6.73559 16.4743C5.60211 15.6776 4.52124 14.8763 4.02813 14.5074ZM11.6187 12.1214L11.6186 12.1214L11.6196 12.1225C11.6555 12.1631 11.6996 12.1955 11.749 12.2177C11.7984 12.24 11.8519 12.2515 11.906 12.2515C11.9602 12.2515 12.0137 12.24 12.0631 12.2177C12.1125 12.1955 12.1566 12.1631 12.1925 12.1225L12.1934 12.1213L17.138 6.35573C17.138 6.35573 17.138 6.35573 17.138 6.35572C17.1854 6.30053 17.2159 6.23298 17.2261 6.161L17.1271 6.14701L17.2261 6.161C17.2362 6.08901 17.2256 6.01563 17.1953 5.94951L17.1953 5.9495C17.1649 5.88295 17.1159 5.82656 17.0543 5.78705C16.9927 5.74754 16.921 5.72655 16.8478 5.72656C16.8478 5.72656 16.8478 5.72656 16.8478 5.72656H14.7554V3.28125C14.7554 3.18005 14.7151 3.08305 14.6434 3.01157C14.5718 2.9401 14.4746 2.9 14.3734 2.9H9.4387C9.33747 2.9 9.24034 2.9401 9.16869 3.01157C9.09702 3.08305 9.05672 3.18005 9.05672 3.28125V5.72375H6.9615C6.96149 5.72375 6.96148 5.72375 6.96148 5.72375C6.88827 5.72374 6.81659 5.74473 6.75497 5.78424C6.69334 5.82375 6.64437 5.88013 6.61393 5.94669L6.61393 5.9467C6.5837 6.01282 6.57303 6.0862 6.58319 6.15818C6.59336 6.23017 6.62393 6.29773 6.67127 6.35292L11.6187 12.1214ZM9.4387 6.48625C9.53992 6.48625 9.63705 6.44615 9.70871 6.37468C9.78037 6.3032 9.82068 6.2062 9.82068 6.105V3.6625H13.9914V6.105C13.9914 6.2062 14.0317 6.3032 14.1034 6.37468C14.175 6.44615 14.2722 6.48625 14.3734 6.48625H16.0212L13.9965 8.84677L11.906 11.2839L7.7909 6.48625H9.4387Z"
		fill="currentColor" stroke="currentColor" stroke-width="0.2" />
</svg>