<svg width="2.4rem" height="2.4rem" viewBox="0 0 24 24" fill="none" xmlns="http://www.w3.org/2000/svg">
	<path
		d="M17.9265 11.5186L15.1187 7.22684C15.1078 7.20985 15.0947 7.19403 15.0795 7.17969V4.20862C15.0792 3.81181 14.896 3.43131 14.5701 3.15056C14.2442 2.8698 13.8023 2.71171 13.3411 2.71094H7.2392C6.77792 2.71151 6.33575 2.86952 6.00969 3.1503C5.68364 3.43108 5.50033 3.81169 5.5 4.20862V12.0141C5.50045 12.4109 5.6838 12.7914 6.00984 13.0721C6.33588 13.3528 6.77799 13.5108 7.2392 13.5114H9.22456C9.01928 15.1074 9.05301 15.2427 9.35102 16.4353C9.46568 16.8912 9.61784 17.3421 9.76496 17.7774C9.89816 18.1724 10.036 18.5808 10.1422 18.9845V18.99C10.1447 19.0075 10.1492 19.0247 10.1557 19.0415L10.6927 21.0705C10.7086 21.1307 10.7478 21.1845 10.8039 21.223C10.8599 21.2615 10.9295 21.2824 11.0013 21.2824H16.3917C16.4642 21.2823 16.5345 21.2609 16.5908 21.2216C16.6471 21.1823 16.686 21.1276 16.7011 21.0665L17.193 19.0698C17.2113 19.0346 17.2208 18.9965 17.2208 18.958V18.9562L18.3922 14.1969C18.6331 13.2855 18.4669 12.3294 17.9265 11.5186ZM9.2625 10.8414V12.9673H7.2392C6.94562 12.9669 6.6642 12.8663 6.45669 12.6876C6.24917 12.5089 6.13251 12.2667 6.13228 12.0141V4.20862C6.13239 3.95593 6.24901 3.7136 6.45654 3.53482C6.66406 3.35603 6.94554 3.25541 7.2392 3.25502H13.3411C13.6348 3.25541 13.9163 3.35603 14.1238 3.53482C14.3313 3.7136 14.4479 3.95593 14.4481 4.20862V12.0141C14.4478 12.2667 14.3312 12.5089 14.1237 12.6876C13.9161 12.8663 13.6347 12.9669 13.3411 12.9673H12.5053V10.8414C12.5053 10.4715 12.3345 10.1167 12.0306 9.8552C11.7266 9.59365 11.3144 9.44671 10.8845 9.44671C10.4547 9.44671 10.0424 9.59365 9.73847 9.8552C9.43452 10.1167 9.26377 10.4715 9.26377 10.8414H9.2625ZM16.1354 20.7383H11.2542L10.8559 19.2283H16.5072L16.1354 20.7383ZM17.7743 14.0769V14.0805L16.6412 18.6842H10.7104C10.6093 18.3258 10.4896 17.9711 10.3732 17.6265C10.2295 17.1996 10.0803 16.7578 9.96982 16.3181C9.66801 15.1153 9.65578 15.0678 9.89225 13.2713C9.8936 13.2605 9.8943 13.2498 9.89436 13.239V10.8414C9.89436 10.6158 9.9985 10.3994 10.1839 10.2399C10.3693 10.0804 10.6207 9.99079 10.8828 9.99079C11.145 9.99079 11.3964 10.0804 11.5818 10.2399C11.7672 10.3994 11.8713 10.6158 11.8713 10.8414V13.2393C11.8713 13.3115 11.9046 13.3807 11.9639 13.4317C12.0232 13.4827 12.1036 13.5114 12.1874 13.5114H13.3407C13.8019 13.5108 14.244 13.3528 14.5701 13.0721C14.8961 12.7914 15.0795 12.4109 15.0799 12.0141V8.27801L17.3764 11.7888C17.8378 12.4816 17.9798 13.2982 17.7743 14.0769Z"
		fill="currentColor" />
</svg>