<svg width="18" height="18" viewBox="0 0 18 18" fill="none" xmlns="http://www.w3.org/2000/svg">
	<path fill-rule="evenodd" clip-rule="evenodd"
		d="M9 4.00001C10.38 4.00001 11.63 4.56001 12.54 5.46001L10 8.00001H16V2.00001L13.95 4.05001C13.3007 3.39895 12.5292 2.88267 11.6797 2.53085C10.8301 2.17904 9.91947 1.99863 9 2.00001C5.47 2.00001 2.57 4.61001 2.08 8.00001H4.1C4.33053 6.87064 4.94418 5.85561 5.8371 5.1267C6.73001 4.39779 7.84735 3.99977 9 4.00001ZM15.92 10H13.9C13.6695 11.1294 13.0558 12.1444 12.1629 12.8733C11.27 13.6022 10.1527 14.0002 9 14C7.62 14 6.37 13.44 5.46 12.54L8 10H2V16L4.05 13.95C4.69927 14.6011 5.47085 15.1173 6.32035 15.4692C7.16985 15.821 8.08053 16.0014 9 16C10.55 16 11.98 15.49 13.14 14.64L14.64 13.14C15.3216 12.2163 15.7616 11.137 15.92 10Z"
		fill="currentColor" />
</svg>