<svg width="2.4rem" height="2.4rem" viewBox="0 0 24 24" fill="none" xmlns="http://www.w3.org/2000/svg">
	<path
		d="M17.6523 6.35179C16.4394 5.13402 14.8668 4.33985 13.1676 4.08698C11.4683 3.83411 9.73295 4.13601 8.2186 4.94793C6.70426 5.75984 5.49157 7.03856 4.76029 8.59454C4.02901 10.1505 3.81806 11.9009 4.15871 13.5864C4.49936 15.2718 5.37348 16.8025 6.6515 17.9515C7.92952 19.1006 9.54341 19.8069 11.254 19.9658C12.9645 20.1246 14.6807 19.7276 16.1481 18.8334C17.6155 17.9393 18.756 16.5957 19.4006 15.0018H17.1827C16.5652 16.0935 15.6214 16.964 14.484 17.4909C13.3466 18.0178 12.0728 18.1745 10.8417 17.9391C9.61064 17.7037 8.48427 17.088 7.62099 16.1785C6.75771 15.269 6.20094 14.1115 6.029 12.8689C5.85705 11.6262 6.07857 10.3608 6.6624 9.25073C7.24623 8.14063 8.163 7.24163 9.28379 6.68016C10.4046 6.11869 11.673 5.923 12.9107 6.1206C14.1484 6.31821 15.293 6.89917 16.1837 7.78179L13.0068 11.0018H20V4.00179L17.6523 6.35179Z"
		fill="currentColor" />
</svg>