<svg width="24" height="24" viewBox="0 0 24 24" fill="none" xmlns="http://www.w3.org/2000/svg">
	<path
		d="M16.05 7.62749C14.8388 7.62749 13.8525 6.64124 13.8525 5.42999V2.25H5.94749C5.54624 2.25 5.18626 2.41125 4.92375 2.67375C4.66125 2.93623 4.5 3.3 4.5 3.69749V19.5525C4.5 20.3512 5.14874 21 5.94749 21H17.775C18.1763 21 18.5362 20.8388 18.7988 20.5762C19.0613 20.3137 19.2225 19.95 19.2225 19.5525V7.62749H16.05ZM6.75 4.125H13.1025C13.3087 4.125 13.4775 4.29375 13.4775 4.5C13.4775 4.70625 13.3087 4.875 13.1025 4.875H6.75C6.54375 4.875 6.375 4.70625 6.375 4.5C6.375 4.29375 6.54375 4.125 6.75 4.125ZM6.75 6.10874H13.1025C13.3087 6.10874 13.4775 6.2775 13.4775 6.48374C13.4775 6.69374 13.3087 6.85874 13.1025 6.85874H6.75C6.54375 6.85874 6.375 6.69374 6.375 6.48374C6.375 6.2775 6.54375 6.10874 6.75 6.10874ZM6.75 8.09624H13.1025C13.3087 8.09624 13.4775 8.26124 13.4775 8.47124C13.4775 8.67751 13.3087 8.84624 13.1025 8.84624H6.75C6.54375 8.84624 6.375 8.67751 6.375 8.47124C6.375 8.26124 6.54375 8.09624 6.75 8.09624ZM17.01 15.885C16.785 16.11 16.4925 16.2225 16.1963 16.2225C16.0275 16.2225 15.855 16.1812 15.6975 16.1025L14.325 17.475C14.4038 17.6325 14.4488 17.8012 14.445 17.9813C14.445 18.285 14.325 18.57 14.1075 18.7875C13.8937 19.005 13.605 19.125 13.3013 19.125C13.2975 19.125 13.2975 19.125 13.2938 19.125C12.99 19.125 12.6975 19.005 12.48 18.7875C12.1275 18.4312 12.06 17.9025 12.2663 17.475L10.9088 16.1175C10.755 16.1925 10.5862 16.2375 10.41 16.2375C10.2337 16.2375 10.065 16.1925 9.90749 16.1175L8.55375 17.475C8.76375 17.9025 8.6925 18.4312 8.34 18.7875C8.11501 19.0125 7.81874 19.125 7.52625 19.125C7.23001 19.125 6.9375 19.0125 6.71251 18.7875C6.495 18.57 6.375 18.2812 6.375 17.9737C6.375 17.6662 6.495 17.3775 6.71251 17.16C7.06501 16.8075 7.5975 16.7363 8.02501 16.9425L9.37875 15.5888C9.17251 15.1612 9.24001 14.6288 9.59626 14.2763C10.0462 13.8262 10.7737 13.8262 11.2237 14.2763C11.4413 14.49 11.5575 14.7787 11.5575 15.09C11.5575 15.2662 11.5163 15.435 11.4413 15.5888L12.795 16.9425C13.1138 16.7925 13.4813 16.7925 13.7962 16.9425L15.1688 15.5737C14.9588 15.1463 15.03 14.6137 15.3825 14.2612C15.8325 13.8112 16.5637 13.8112 17.01 14.2575C17.46 14.7075 17.46 15.4387 17.01 15.885ZM16.9725 12.8137H6.75C6.54375 12.8137 6.375 12.645 6.375 12.4387C6.375 12.2325 6.54375 12.0637 6.75 12.0637H16.9725C17.1787 12.0637 17.3475 12.2325 17.3475 12.4387C17.3475 12.645 17.1787 12.8137 16.9725 12.8137ZM16.9725 10.83H6.75C6.54375 10.83 6.375 10.6612 6.375 10.455C6.375 10.2487 6.54375 10.08 6.75 10.08H16.9725C17.1787 10.08 17.3475 10.2487 17.3475 10.455C17.3475 10.6612 17.1787 10.83 16.9725 10.83Z"
		fill="currentColor" />
	<path
		d="M16.0498 6.87708H18.8473C18.9973 6.87708 19.1361 6.78708 19.1923 6.64458C19.2523 6.50583 19.2185 6.34458 19.1136 6.23584L15.2436 2.35833C15.1348 2.25334 14.9735 2.21958 14.8348 2.27957C14.6923 2.33583 14.6023 2.47458 14.6023 2.62459V5.42958C14.6023 6.22833 15.251 6.87708 16.0498 6.87708Z"
		fill="currentColor" />
</svg>