<svg width="2.4rem" height="2.4rem" viewBox="0 0 24 24" fill="none" xmlns="http://www.w3.org/2000/svg">
	<path fill-rule="evenodd" clip-rule="evenodd"
		d="M4.28739 3C3.58246 3 3.0018 3.58066 3.0018 4.28559L3.00009 15.429C3.00009 16.0011 3.858 16.0011 3.858 15.429L3.85886 4.28559C3.85886 4.0409 4.0427 3.85706 4.28739 3.85706H16.2862C16.5309 3.85706 16.7147 4.0409 16.7147 4.28559V11.9991C16.7061 12.5785 17.5803 12.5785 17.5718 11.9991V4.28559C17.5718 3.58066 16.9911 3 16.2862 3H4.28739ZM6.85856 6.42823C6.7449 6.42823 6.63591 6.47338 6.55554 6.55374C6.47518 6.63411 6.43003 6.7431 6.43003 6.85676C6.43003 6.97041 6.47518 7.07941 6.55554 7.15977C6.63591 7.24014 6.7449 7.28529 6.85856 7.28529C6.97221 7.28529 7.08121 7.24014 7.16157 7.15977C7.24194 7.07941 7.28709 6.97041 7.28709 6.85676C7.28709 6.7431 7.24194 6.63411 7.16157 6.55374C7.08121 6.47338 6.97221 6.42823 6.85856 6.42823ZM8.52982 6.42909C7.97145 6.46765 8.0113 7.30071 8.57096 7.28614H13.715C14.2742 7.27414 14.2742 6.44108 13.715 6.42909H8.57096C8.55725 6.42844 8.54352 6.42844 8.52982 6.42909ZM6.85856 8.9994C6.7449 8.9994 6.63591 9.04455 6.55554 9.12491C6.47518 9.20528 6.43003 9.31428 6.43003 9.42793C6.43003 9.54158 6.47518 9.65058 6.55554 9.73094C6.63591 9.81131 6.7449 9.85646 6.85856 9.85646C6.97221 9.85646 7.08121 9.81131 7.16157 9.73094C7.24194 9.65058 7.28709 9.54158 7.28709 9.42793C7.28709 9.31428 7.24194 9.20528 7.16157 9.12491C7.08121 9.04455 6.97221 8.9994 6.85856 8.9994ZM13.7622 8.9994C13.7463 8.9994 13.7304 8.9994 13.715 9.00111H8.57096C8.55725 9.00047 8.54352 9.00047 8.52982 9.00111C8.00444 9.06625 8.0413 9.84017 8.57096 9.85474H13.715C14.3034 9.90659 14.3527 9.01183 13.7622 8.9994ZM8.57096 11.5697C8.01173 11.5817 8.01173 12.4148 8.57096 12.4268H13.715C14.2987 12.4396 14.2987 11.5569 13.715 11.5697H8.57096ZM6.85856 11.5706C6.7449 11.5706 6.63591 11.6157 6.55554 11.6961C6.47518 11.7764 6.43003 11.8854 6.43003 11.9991C6.43003 12.1128 6.47518 12.2218 6.55554 12.3021C6.63591 12.3825 6.7449 12.4276 6.85856 12.4276C6.97221 12.4276 7.08121 12.3825 7.16157 12.3021C7.24194 12.2218 7.28709 12.1128 7.28709 11.9991C7.28709 11.8854 7.24194 11.7764 7.16157 11.6961C7.08121 11.6157 6.97221 11.5706 6.85856 11.5706ZM6.85856 14.1417C6.7449 14.1417 6.63591 14.1869 6.55554 14.2673C6.47518 14.3476 6.43003 14.4566 6.43003 14.5703C6.43003 14.6839 6.47518 14.7929 6.55554 14.8733C6.63591 14.9537 6.7449 14.9988 6.85856 14.9988C6.97221 14.9988 7.08121 14.9537 7.16157 14.8733C7.24194 14.7929 7.28709 14.6839 7.28709 14.5703C7.28709 14.4566 7.24194 14.3476 7.16157 14.2673C7.08121 14.1869 6.97221 14.1417 6.85856 14.1417ZM8.57096 14.1417C7.9873 14.1289 7.9873 15.0117 8.57096 14.9988H12.8571C13.4408 15.0117 13.4408 14.1289 12.8571 14.1417H8.57096ZM6.85856 16.7129C6.7449 16.7129 6.63591 16.7581 6.55554 16.8384C6.47518 16.9188 6.43003 17.0278 6.43003 17.1414C6.43003 17.2551 6.47518 17.3641 6.55554 17.4445C6.63591 17.5248 6.7449 17.57 6.85856 17.57C6.97221 17.57 7.08121 17.5248 7.16157 17.4445C7.24194 17.3641 7.28709 17.2551 7.28709 17.1414C7.28709 17.0278 7.24194 16.9188 7.16157 16.8384C7.08121 16.7581 6.97221 16.7129 6.85856 16.7129ZM8.52982 16.7129C7.95816 16.7403 7.99887 17.5983 8.57096 17.5708H12C12.5721 17.5708 12.5721 16.7129 12 16.7129H8.57096C8.55725 16.7123 8.54352 16.7123 8.52982 16.7129ZM3.42433 17.1337C3.36769 17.1343 3.31172 17.1461 3.25966 17.1684C3.2076 17.1907 3.16048 17.2231 3.12102 17.2638C3.08157 17.3044 3.05057 17.3525 3.02981 17.4052C3.00905 17.4579 2.99895 17.5142 3.00009 17.5708L3.0018 19.7126C3.0018 20.4175 3.58246 20.9982 4.28739 20.9982H12.858C13.4373 21.0068 13.4373 20.1326 12.858 20.1411H4.28739C4.0427 20.1411 3.85886 19.9573 3.85886 19.7126L3.858 17.5708C3.85915 17.5134 3.84875 17.4563 3.82741 17.403C3.80606 17.3497 3.77422 17.3012 3.73376 17.2604C3.69331 17.2196 3.64507 17.1874 3.59191 17.1656C3.53875 17.1439 3.48176 17.133 3.42433 17.1337ZM17.1441 13.2838C15.019 13.2838 13.2882 15.0155 13.2882 17.1406C13.2882 19.2657 15.0195 20.9999 17.1441 20.9999C19.2692 20.9999 21 19.2657 21 17.1406C21 15.0155 19.2687 13.2838 17.1441 13.2838ZM17.1441 14.1417C17.5382 14.1408 17.9285 14.2178 18.2928 14.3682C18.657 14.5186 18.988 14.7394 19.2666 15.0181C19.5453 15.2967 19.7661 15.6277 19.9165 15.9919C20.0669 16.3562 20.1438 16.7465 20.1429 17.1406C20.1439 17.5348 20.067 17.9253 19.9167 18.2897C19.7663 18.6541 19.5455 18.9853 19.2669 19.2641C18.9883 19.543 18.6573 19.7641 18.293 19.9147C17.9288 20.0654 17.5383 20.1426 17.1441 20.142C16.7499 20.1426 16.3594 20.0654 15.9952 19.9147C15.6309 19.7641 15.2999 19.543 15.0213 19.2641C14.7427 18.9853 14.5219 18.6541 14.3715 18.2897C14.2212 17.9253 14.1443 17.5348 14.1453 17.1406C14.1444 16.7465 14.2213 16.3562 14.3717 15.9919C14.5221 15.6277 14.7429 15.2967 15.0216 15.0181C15.3002 14.7394 15.6312 14.5186 15.9954 14.3682C16.3597 14.2178 16.75 14.1408 17.1441 14.1417ZM18.4974 15.8023C18.3864 15.8059 18.2812 15.8525 18.2039 15.9321L16.6886 17.447L16.0843 16.8402C16.0446 16.7998 15.9973 16.7676 15.9451 16.7456C15.8929 16.7236 15.8368 16.7121 15.7801 16.7119C15.7235 16.7116 15.6673 16.7226 15.6149 16.7441C15.5625 16.7657 15.5149 16.7974 15.4748 16.8374C15.4347 16.8775 15.4029 16.925 15.3813 16.9774C15.3597 17.0298 15.3486 17.0859 15.3488 17.1426C15.349 17.1993 15.3604 17.2553 15.3823 17.3076C15.4043 17.3598 15.4363 17.4072 15.4767 17.447L16.3852 18.355C16.425 18.3949 16.4722 18.4265 16.5243 18.4481C16.5763 18.4696 16.632 18.4807 16.6884 18.4807C16.7447 18.4807 16.8004 18.4696 16.8525 18.4481C16.9045 18.4265 16.9517 18.3949 16.9915 18.355L18.8115 16.5389C18.874 16.4787 18.9167 16.4008 18.934 16.3157C18.9512 16.2306 18.9423 16.1423 18.9082 16.0624C18.8741 15.9825 18.8166 15.9149 18.7433 15.8684C18.6699 15.822 18.5842 15.7989 18.4974 15.8023Z"
		fill="currentColor" />
</svg>