<svg width="2.4rem" height="2.4rem" viewBox="0 0 25 24" fill="none" xmlns="http://www.w3.org/2000/svg">
	<path
		d="M18.2171 17.9539C18.2141 17.9478 18.2081 17.9386 18.2051 17.9324C17.841 17.2262 17.1549 16.7717 16.1137 16.5599L15.247 8.49335C15.244 8.47492 15.241 8.45343 15.235 8.435C16.3634 8.14637 16.9924 7.23439 16.9924 5.83419V3.30706C16.9924 3.13818 16.8569 3 16.6914 3H14.5368C14.3713 3 14.2359 3.13818 14.2359 3.30706V4.99284H13.4986V3.35005C13.4986 3.18117 13.3632 3.04299 13.1977 3.04299H10.8023C10.6368 3.04299 10.5014 3.18117 10.5014 3.35005V4.99284H9.76412V3.30706C9.76412 3.13818 9.6287 3 9.46319 3H7.30856C7.14306 3 7.00764 3.13818 7.00764 3.30706V5.83419C7.00764 7.23439 7.63657 8.14637 8.76505 8.435C8.75903 8.45343 8.75602 8.47492 8.75301 8.49335L7.88634 16.5599C6.87222 16.7687 6.19514 17.2016 5.825 17.8741C5.81898 17.8833 5.81597 17.8925 5.80995 17.8987C5.60532 18.2886 5.5 18.7584 5.5 19.2958V20.6929C5.5 20.8618 5.63241 21 5.80093 21H18.1991C18.3676 21 18.5 20.8618 18.5 20.6929V19.2958C18.5 18.7799 18.4067 18.3286 18.2171 17.9539ZM7.60949 5.83419V3.61412H9.16227V5.2999C9.16227 5.47185 9.29768 5.60696 9.46319 5.60696H10.8023C10.9678 5.60696 11.1032 5.47185 11.1032 5.2999V3.65711H12.8968V5.2999C12.8968 5.47185 13.0322 5.60696 13.1977 5.60696H14.5368C14.7023 5.60696 14.8377 5.47185 14.8377 5.2999V3.61412H16.3905V5.83419C16.3905 7.21904 15.7194 7.91914 14.3954 7.91914H9.60463C8.28056 7.91914 7.60949 7.21904 7.60949 5.83419ZM9.35185 8.5609C9.35185 8.54862 9.35486 8.53634 9.35486 8.52405C9.43611 8.53019 9.52037 8.53326 9.60463 8.53326H14.3954C14.4796 8.53326 14.5639 8.53019 14.6451 8.52405C14.6451 8.53634 14.6481 8.54862 14.6481 8.5609L15.4968 16.4647C15.1296 16.4248 14.7324 16.4033 14.284 16.4033H9.71597C9.31574 16.4033 8.96065 16.4186 8.65671 16.4493C8.64769 16.4493 8.63565 16.4493 8.62662 16.4524C8.58449 16.4555 8.54537 16.4616 8.50324 16.4647L9.35185 8.5609ZM17.8981 20.3859H6.10185V19.2958C6.10185 18.8721 6.17708 18.5067 6.32755 18.2119C6.33356 18.2057 6.33958 18.1996 6.34259 18.1904C6.69167 17.5363 7.43495 17.1771 8.6537 17.0635H8.6838C8.99676 17.0328 9.3338 17.0174 9.71597 17.0174H14.284C14.7294 17.0174 15.1356 17.0389 15.4937 17.0819C16.6433 17.2139 17.3595 17.5916 17.6785 18.2303C17.6815 18.2395 17.6875 18.2456 17.6935 18.2549C17.8289 18.5404 17.8981 18.8905 17.8981 19.2958V20.3859Z"
		fill="currentColor" stroke="currentColor" />
</svg>