<svg width="2.4rem" height="2.4rem" viewBox="0 0 24 24" fill="none" xmlns="http://www.w3.org/2000/svg">
	<path
		d="M12.4987 12.4691C11.0737 13.2941 9.64499 13.9653 8.35874 14.4153C7.99124 14.5503 7.63124 14.6628 7.28999 14.7566C7.25249 14.7678 7.20749 14.7791 7.14749 14.7978C6.84749 14.8766 6.55499 14.9366 6.27374 14.9778C6.27374 14.9778 6.01499 15.0116 5.96624 15.0153C5.69624 14.2841 5.54999 13.4928 5.54999 12.6641C5.54999 8.88781 8.61374 5.82031 12.3937 5.82031C14.5537 5.82031 16.4812 6.82531 17.7375 8.39281C17.7 8.44156 17.655 8.48656 17.6025 8.55031C17.4262 8.75656 17.205 8.98906 16.9237 9.25531L16.8637 9.31156C16.5787 9.58156 16.275 9.85156 15.9412 10.1253C14.9662 10.9203 13.7775 11.7303 12.4987 12.4691ZM19.1662 13.6578C18.6825 16.9653 15.8325 19.5078 12.3937 19.5078C11.4975 19.5078 10.6425 19.3353 9.85874 19.0203C9.91874 18.9978 10.2075 18.8816 10.2075 18.8816C10.6837 18.6903 11.1937 18.4728 11.7675 18.2103C12.7875 17.7378 13.785 17.2203 14.7337 16.6691C15.6675 16.1328 16.5862 15.5441 17.475 14.9253C18.0225 14.5391 18.4912 14.1903 18.9412 13.8378C18.9412 13.8378 19.1062 13.7066 19.1662 13.6578Z"
		fill="currentColor" />
	<path
		d="M19.7775 9.38941C19.56 9.61816 19.32 9.85441 19.0613 10.0944C19.0125 10.1394 18.9638 10.1882 18.9113 10.2332C18.63 10.4919 18.33 10.7507 18.0075 11.0169C18 11.0207 17.9963 11.0282 17.9888 11.0319C17.6438 11.3169 17.2763 11.6057 16.8863 11.8982C15.8475 12.6707 14.655 13.4582 13.3238 14.2269C11.9663 15.0107 10.6538 15.6632 9.44626 16.1807C9.02626 16.3607 8.62126 16.5219 8.22751 16.6682C8.19001 16.6832 8.15251 16.6944 8.11876 16.7094C7.75876 16.8407 7.41001 16.9607 7.07251 17.0694C6.97876 17.0994 6.88501 17.1294 6.79501 17.1557C6.49126 17.2494 6.19501 17.3282 5.91376 17.3957C3.90001 17.8944 2.52001 17.8157 2.16001 17.1932C1.79626 16.5669 2.43001 15.3069 3.85876 13.8332C4.02751 13.6532 4.20751 13.4769 4.39501 13.3007C4.42126 13.6569 4.47376 14.0057 4.54876 14.3469C4.24126 14.8907 4.15876 15.3482 4.34251 15.6707C4.48126 15.9107 4.76251 16.0607 5.15251 16.1207C5.40751 16.1619 5.71501 16.1657 6.06001 16.1357C6.16876 16.1244 6.28126 16.1094 6.40126 16.0944H6.40501C6.72001 16.0494 7.06126 15.9819 7.43251 15.8844C7.47751 15.8732 7.52251 15.8582 7.57126 15.8469C7.93876 15.7457 8.32876 15.6219 8.73751 15.4757C10.05 15.0144 11.535 14.3244 13.0613 13.4432C14.43 12.6519 15.6525 11.8119 16.6538 10.9944C17.0138 10.6982 17.34 10.4094 17.64 10.1244C17.655 10.1132 17.6663 10.1019 17.6775 10.0907C17.9738 9.80941 18.24 9.53566 18.4613 9.27316C18.5175 9.20941 18.57 9.14941 18.6188 9.08941C18.8513 8.80441 19.0388 8.53066 19.1738 8.27941C19.4588 7.75816 19.5338 7.31566 19.3538 7.00441C19.1213 6.60691 18.51 6.46066 17.6438 6.54316C17.4338 6.36316 17.2163 6.19441 16.9875 6.03691C19.395 5.33191 21.075 5.35066 21.4763 6.04066C21.8325 6.66316 21.21 7.89691 19.7775 9.38941Z"
		fill="currentColor" />
	<path
		d="M20.3287 11.1455C20.07 11.393 19.8 11.6405 19.515 11.8917C19.4512 11.948 19.3875 12.0042 19.32 12.0605C18.9937 12.3492 18.6487 12.6342 18.2887 12.9192C18.2662 12.938 18.24 12.9567 18.2175 12.9755C17.775 13.3242 17.31 13.6655 16.8262 14.0067C15.9975 14.5842 15.1087 15.1542 14.1712 15.698C13.2037 16.2567 12.24 16.7517 11.295 17.1905C10.785 17.423 10.2825 17.6405 9.79123 17.8355C9.73498 17.858 9.67873 17.8805 9.62248 17.903C9.22873 18.0642 8.83498 18.2105 8.45248 18.3417C8.33998 18.3792 8.22748 18.4167 8.11873 18.4542C7.79248 18.563 7.47373 18.6642 7.15873 18.7542C3.79873 19.733 1.20748 19.6917 0.543725 18.5405C-0.165025 17.3142 1.41373 14.9592 4.37248 12.4617C4.37248 12.5067 4.37248 12.5517 4.37248 12.6005C4.05373 12.8892 3.75748 13.178 3.47998 13.463C1.80748 15.1917 1.19623 16.5755 1.70623 17.4605C2.28748 18.4655 4.05373 18.473 6.29248 17.873C6.58498 17.7942 6.88873 17.7042 7.19623 17.6067C7.28623 17.5767 7.37998 17.5467 7.47373 17.513C7.82623 17.3967 8.18623 17.2655 8.55373 17.1267C8.59123 17.1117 8.62873 17.0967 8.66623 17.0817C9.08248 16.9205 9.50998 16.7405 9.94498 16.5492C11.16 16.013 12.405 15.3792 13.5975 14.693C14.7675 14.018 15.9112 13.2717 16.9575 12.503C17.3625 12.2067 17.7562 11.903 18.1275 11.603C18.1275 11.603 18.1462 11.588 18.1537 11.5805C18.4837 11.3142 18.7987 11.0517 19.095 10.7855C19.1475 10.7405 19.1962 10.6917 19.2487 10.6467C19.515 10.4067 19.7662 10.1667 19.9987 9.93049C21.6337 8.28049 22.5 6.75049 21.9375 5.77924C21.2737 4.63174 19.0725 4.78549 16.38 5.65924C16.3425 5.63299 16.305 5.61049 16.2675 5.59174C19.9162 4.28299 22.7437 4.08799 23.4525 5.31424C24.1162 6.46549 22.86 8.72674 20.3325 11.1455H20.3287Z"
		fill="currentColor" />
</svg>