<svg width="2.4rem" height="2.4rem" viewBox="0 0 24 24" fill="none" xmlns="http://www.w3.org/2000/svg">
	<path
		d="M21.9557 2.85725C22.0011 2.74367 22.0123 2.61924 21.9877 2.4994C21.9631 2.37956 21.9039 2.26956 21.8174 2.18306C21.7309 2.09655 21.6209 2.03733 21.501 2.01275C21.3812 1.98817 21.2568 1.99929 21.1432 2.04476L2.95968 9.31842H2.95843L2.39343 9.54341C2.28642 9.5861 2.19329 9.65753 2.12433 9.74982C2.05537 9.84211 2.01326 9.95167 2.00265 10.0664C1.99205 10.1811 2.01336 10.2965 2.06423 10.3999C2.11511 10.5033 2.19356 10.5906 2.29093 10.6521L2.80343 10.9771L2.80468 10.9796L9.04835 14.9521L13.0208 21.1958L13.0233 21.1983L13.3483 21.7108C13.4101 21.8078 13.4974 21.8858 13.6007 21.9364C13.704 21.9869 13.8192 22.008 13.9337 21.9973C14.0482 21.9866 14.1576 21.9444 14.2497 21.8756C14.3418 21.8067 14.4131 21.7138 14.4558 21.607L21.9557 2.85725ZM19.6645 5.21972L10.2971 14.5871L10.0283 14.1646C9.97909 14.0871 9.91337 14.0213 9.83584 13.9721L9.41334 13.7034L18.7807 4.33598L20.2532 3.74724L19.6645 5.21972Z"
		fill="currentColor" />
</svg>