<svg width="2.4rem" height="2.4rem" viewBox="0 0 16 16" fill="none" xmlns="http://www.w3.org/2000/svg">
	<path
		d="M3.30514 3.32037C4.38806 2.23386 5.81431 1.55659 7.34073 1.40402C8.86715 1.25145 10.3992 1.63303 11.6758 2.4837C12.9523 3.33438 13.8943 4.60148 14.3411 6.06899C14.788 7.5365 14.7119 9.11356 14.1261 10.5313C13.5402 11.949 12.4807 13.1197 11.1283 13.8436C9.77584 14.5676 8.21416 14.8001 6.70949 14.5014C5.20481 14.2028 3.85031 13.3915 2.87689 12.2059C1.90348 11.0202 1.37142 9.5337 1.37143 7.99968C1.37143 7.81782 1.29918 7.6434 1.17059 7.51481C1.04199 7.38621 0.867576 7.31397 0.685713 7.31397C0.503851 7.31397 0.329437 7.38621 0.200841 7.51481C0.0722445 7.6434 6.39588e-09 7.81782 6.39588e-09 7.99968C-7.39963e-05 9.85113 0.642033 11.6453 1.81685 13.0763C2.99166 14.5073 4.62644 15.4864 6.44246 15.8469C8.25849 16.2074 10.1433 15.9268 11.7756 15.053C13.4079 14.1792 14.6866 12.7663 15.3936 11.0551C16.1007 9.34402 16.1923 7.44062 15.653 5.66947C15.1136 3.89832 13.9766 2.36908 12.4359 1.34247C10.8951 0.315864 9.04596 -0.144545 7.2037 0.0397406C5.36144 0.224026 3.64014 1.0416 2.33325 2.35306C2.31023 2.37591 2.28884 2.40035 2.26925 2.4262L1.12 1.27603C1.05854 1.21443 0.98077 1.17165 0.895835 1.15272C0.810901 1.13379 0.722328 1.1395 0.640524 1.16916C0.558719 1.19883 0.487082 1.25123 0.434029 1.32021C0.380976 1.38918 0.348712 1.47187 0.341028 1.55855L0.0182857 5.1142C0.0122533 5.18091 0.0209529 5.24812 0.0437691 5.3111C0.0665853 5.37407 0.102961 5.43126 0.150322 5.47862C0.197683 5.52598 0.254873 5.56236 0.317845 5.58517C0.380818 5.60799 0.448035 5.61669 0.514742 5.61066L4.07131 5.287C4.15765 5.27886 4.23989 5.24634 4.30844 5.19322C4.37699 5.1401 4.42901 5.06858 4.45844 4.987C4.48787 4.90543 4.49349 4.81716 4.47464 4.73251C4.45579 4.64787 4.41325 4.57032 4.35199 4.50894L3.22925 3.3862C3.25611 3.36613 3.28147 3.34413 3.30514 3.32037Z"
		fill="currentColor" />
	<path
		d="M8.68588 3.4279C8.68588 3.24604 8.61363 3.07162 8.48504 2.94303C8.35644 2.81443 8.18203 2.74219 8.00017 2.74219C7.8183 2.74219 7.64389 2.81443 7.51529 2.94303C7.3867 3.07162 7.31445 3.24604 7.31445 3.4279V7.99932C7.3144 8.11558 7.34391 8.22994 7.40021 8.33166C7.45651 8.43338 7.53774 8.51911 7.63628 8.58081L10.3791 10.2951C10.5334 10.3916 10.7196 10.4229 10.8969 10.3821C10.9847 10.3619 11.0676 10.3246 11.141 10.2723C11.2144 10.2201 11.2767 10.1539 11.3245 10.0775C11.3723 10.0011 11.4046 9.9161 11.4195 9.82727C11.4344 9.73843 11.4317 9.64752 11.4115 9.55974C11.3913 9.47195 11.354 9.38901 11.3017 9.31564C11.2495 9.24226 11.1833 9.17991 11.1069 9.13212L8.68588 7.61898V3.4279Z"
		fill="currentColor" />
</svg>