<svg width="2.4rem" height="2.4rem" viewBox="0 0 24 24" fill="none" xmlns="http://www.w3.org/2000/svg">
	<path
		d="M12 15C12.5933 15 13.1734 14.8241 13.6667 14.4944C14.1601 14.1648 14.5446 13.6962 14.7716 13.1481C14.9987 12.5999 15.0581 11.9967 14.9424 11.4147C14.8266 10.8328 14.5409 10.2982 14.1213 9.87868C13.7018 9.45912 13.1672 9.1734 12.5853 9.05765C12.0033 8.94189 11.4001 9.0013 10.8519 9.22836C10.3038 9.45543 9.83524 9.83994 9.50559 10.3333C9.17595 10.8266 9 11.4067 9 12C9 12.7957 9.31607 13.5587 9.87868 14.1213C10.4413 14.6839 11.2044 15 12 15ZM12 10.5C12.2967 10.5 12.5867 10.588 12.8334 10.7528C13.08 10.9176 13.2723 11.1519 13.3858 11.426C13.4994 11.7001 13.5291 12.0017 13.4712 12.2926C13.4133 12.5836 13.2704 12.8509 13.0607 13.0607C12.8509 13.2704 12.5836 13.4133 12.2926 13.4712C12.0017 13.5291 11.7001 13.4994 11.426 13.3858C11.1519 13.2723 10.9176 13.08 10.7528 12.8334C10.588 12.5867 10.5 12.2967 10.5 12C10.5 11.6022 10.658 11.2206 10.9393 10.9393C11.2206 10.658 11.6022 10.5 12 10.5Z"
		fill="currentColor" />
	<path
		d="M4.94275 12.6075L4.65775 12.75C4.14236 13.0481 3.76613 13.5383 3.6115 14.1133C3.45686 14.6883 3.53642 15.3011 3.83275 15.8175L4.58275 17.1225C4.72595 17.3831 4.91939 17.6127 5.15188 17.7981C5.38437 17.9835 5.6513 18.121 5.93724 18.2026C6.22318 18.2842 6.52246 18.3083 6.81778 18.2735C7.11309 18.2387 7.39859 18.1458 7.65775 18L7.89025 17.8725C8.00427 17.8067 8.1336 17.772 8.26525 17.772C8.39691 17.772 8.52624 17.8067 8.64025 17.8725C8.75005 17.9376 8.84143 18.0296 8.90574 18.1398C8.97005 18.2501 9.00516 18.3749 9.00775 18.5025V18.75C9.00775 19.3467 9.24481 19.919 9.66676 20.341C10.0887 20.7629 10.661 21 11.2578 21H12.7578C13.3545 21 13.9268 20.7629 14.3487 20.341C14.7707 19.919 15.0078 19.3467 15.0078 18.75V18.4725C15.0111 18.3442 15.0474 18.2189 15.113 18.1086C15.1787 17.9982 15.2716 17.9066 15.3828 17.8425C15.4968 17.7767 15.6261 17.742 15.7578 17.742C15.8894 17.742 16.0187 17.7767 16.1328 17.8425L16.3653 17.9775C16.8814 18.2768 17.4954 18.3589 18.0721 18.2056C18.6487 18.0522 19.1409 17.6762 19.4403 17.16L20.1903 15.855C20.3872 15.5128 20.4907 15.1248 20.4903 14.73C20.4936 14.3275 20.3889 13.9315 20.187 13.5832C19.9852 13.235 19.6936 12.9472 19.3428 12.75L19.0578 12.5775C18.952 12.5152 18.8643 12.4264 18.8034 12.3199C18.7425 12.2133 18.7105 12.0927 18.7105 11.97C18.7105 11.8473 18.7425 11.7267 18.8034 11.6201C18.8643 11.5136 18.952 11.4248 19.0578 11.3625L19.3428 11.19C19.8581 10.8919 20.2344 10.4017 20.389 9.8267C20.5436 9.25173 20.4641 8.63892 20.1678 8.1225L19.4178 6.8175C19.1184 6.30135 18.6262 5.92525 18.0496 5.77194C17.4729 5.61864 16.8589 5.70067 16.3428 6L16.1028 6.135C15.9919 6.19431 15.868 6.22483 15.7423 6.22373C15.6166 6.22264 15.4932 6.18998 15.3835 6.12875C15.2737 6.06752 15.1811 5.97968 15.1141 5.87331C15.0472 5.76694 15.008 5.64545 15.0003 5.52V5.25C15.0003 4.65326 14.7632 4.08097 14.3412 3.65901C13.9193 3.23705 13.347 3 12.7503 3H11.2503C10.6535 3 10.0812 3.23705 9.65926 3.65901C9.23731 4.08097 9.00025 4.65326 9.00025 5.25V5.52C8.99804 5.64909 8.96253 5.77543 8.89717 5.88677C8.83181 5.99812 8.73881 6.09071 8.62718 6.15558C8.51554 6.22045 8.38906 6.2554 8.25995 6.25705C8.13085 6.2587 8.00351 6.22699 7.89025 6.165L7.65775 6C7.14157 5.70067 6.52762 5.61864 5.95096 5.77194C5.37429 5.92525 4.88214 6.30135 4.58275 6.8175L3.83275 8.1225C3.67653 8.38069 3.57385 8.66768 3.53081 8.96637C3.48777 9.26506 3.50526 9.56935 3.58223 9.86115C3.65921 10.1529 3.79409 10.4263 3.97886 10.6649C4.16363 10.9035 4.39451 11.1025 4.65775 11.25L4.94275 11.4225C5.04851 11.4848 5.13618 11.5736 5.19708 11.6801C5.25799 11.7867 5.29003 11.9073 5.29003 12.03C5.29003 12.1527 5.25799 12.2733 5.19708 12.3799C5.13618 12.4864 5.04851 12.5752 4.94275 12.6375V12.6075ZM5.40775 14.1075L5.69275 13.935C6.02581 13.7409 6.30215 13.4628 6.49422 13.1285C6.68628 12.7943 6.78735 12.4155 6.78735 12.03C6.78735 11.6445 6.68628 11.2657 6.49422 10.9315C6.30215 10.5972 6.02581 10.3191 5.69275 10.125L5.40775 9.9525C5.32168 9.90332 5.24621 9.83757 5.1857 9.75904C5.1252 9.68051 5.08086 9.59077 5.05525 9.495C5.00562 9.30491 5.03255 9.10294 5.13025 8.9325L5.88025 7.6275C5.92988 7.54219 5.99585 7.4675 6.07439 7.40774C6.15293 7.34797 6.2425 7.30429 6.33796 7.27921C6.43341 7.25413 6.53288 7.24813 6.63066 7.26156C6.72844 7.275 6.8226 7.3076 6.90775 7.3575L7.14025 7.4925C7.48366 7.68728 7.87228 7.78827 8.26707 7.78533C8.66186 7.78239 9.04893 7.67562 9.3894 7.47574C9.72987 7.27587 10.0118 6.98993 10.2067 6.64664C10.4017 6.30335 10.503 5.91479 10.5003 5.52V5.25C10.5003 5.05109 10.5793 4.86032 10.7199 4.71967C10.8606 4.57902 11.0513 4.5 11.2503 4.5H12.7503C12.9492 4.5 13.1399 4.57902 13.2806 4.71967C13.4212 4.86032 13.5003 5.05109 13.5003 5.25V5.52C13.497 5.91434 13.5974 6.30261 13.7915 6.64591C13.9855 6.98921 14.2664 7.27547 14.606 7.47601C14.9455 7.67655 15.3318 7.78433 15.7262 7.78854C16.1205 7.79275 16.509 7.69325 16.8528 7.5L17.0928 7.3575C17.1779 7.3076 17.2721 7.275 17.3698 7.26156C17.4676 7.24813 17.5671 7.25413 17.6626 7.27921C17.758 7.30429 17.8476 7.34797 17.9261 7.40774C18.0047 7.4675 18.0706 7.54219 18.1203 7.6275L18.8703 8.9325C18.968 9.10294 18.9949 9.30491 18.9453 9.495C18.9197 9.59077 18.8753 9.68051 18.8148 9.75904C18.7543 9.83757 18.6788 9.90332 18.5928 9.9525L18.3078 10.125C17.9747 10.3191 17.6984 10.5972 17.5063 10.9315C17.3142 11.2657 17.2132 11.6445 17.2132 12.03C17.2132 12.4155 17.3142 12.7943 17.5063 13.1285C17.6984 13.4628 17.9747 13.7409 18.3078 13.935L18.5928 14.1075C18.6788 14.1567 18.7543 14.2224 18.8148 14.301C18.8753 14.3795 18.9197 14.4692 18.9453 14.565C18.9949 14.7551 18.968 14.9571 18.8703 15.1275L18.1203 16.4325C18.0706 16.5178 18.0047 16.5925 17.9261 16.6523C17.8476 16.712 17.758 16.7557 17.6626 16.7808C17.5671 16.8059 17.4676 16.8119 17.3698 16.7984C17.2721 16.785 17.1779 16.7524 17.0928 16.7025L16.8603 16.5675C16.5182 16.37 16.1302 16.2661 15.7353 16.2661C15.3403 16.2661 14.9523 16.37 14.6103 16.5675C14.2773 16.7631 14.0003 17.0411 13.8059 17.3747C13.6115 17.7084 13.5063 18.0864 13.5003 18.4725V18.75C13.5003 18.9489 13.4212 19.1397 13.2806 19.2803C13.1399 19.421 12.9492 19.5 12.7503 19.5H11.2503C11.0513 19.5 10.8606 19.421 10.7199 19.2803C10.5793 19.1397 10.5003 18.9489 10.5003 18.75V18.48C10.4977 18.0877 10.3927 17.703 10.1955 17.3639C9.99839 17.0247 9.71602 16.743 9.37643 16.5467C9.03684 16.3504 8.65182 16.2462 8.25957 16.2446C7.86731 16.243 7.48145 16.344 7.14025 16.5375L6.90775 16.6725C6.8226 16.7224 6.72844 16.755 6.63066 16.7684C6.53288 16.7819 6.43341 16.7759 6.33796 16.7508C6.2425 16.7257 6.15293 16.682 6.07439 16.6223C5.99585 16.5625 5.92988 16.4878 5.88025 16.4025L5.13025 15.0975C5.03255 14.9271 5.00562 14.7251 5.05525 14.535C5.08086 14.4392 5.1252 14.3495 5.1857 14.271C5.24621 14.1924 5.32168 14.1267 5.40775 14.0775V14.1075Z"
		fill="currentColor" />
</svg>