<svg width="2.4rem" height="2.4rem" viewBox="0 0 20 20" fill="none"
    xmlns="http://www.w3.org/2000/svg">
    <path
        d="M10.5948 1.66436C11.0531 1.65603 11.4873 1.82186 11.8114 2.13936C12.1373 2.44686 12.3114 2.8727 12.3114 3.3227C12.3114 4.23936 13.0698 4.98186 14.0123 4.98186C14.3031 4.98186 14.5948 4.8977 14.8539 4.75603C15.6614 4.32186 16.6698 4.5977 17.1281 5.37269L17.6956 6.3477C17.8373 6.5977 17.9198 6.88103 17.9198 7.1727C17.9198 7.76436 17.5956 8.3152 17.0706 8.60603C16.8114 8.7477 16.5948 8.96436 16.4456 9.2152C16.0031 9.9977 16.2789 10.9885 17.0706 11.4402C17.8698 11.8977 18.1448 12.8985 17.6956 13.6894L17.1281 14.6319C16.8281 15.1477 16.2698 15.4652 15.6698 15.4652C15.3698 15.4652 15.0698 15.3894 14.8206 15.2394C14.5531 15.0977 14.2623 15.0144 13.9698 15.0144C13.5198 15.0144 13.0864 15.1902 12.7706 15.506C12.4448 15.8152 12.2698 16.2394 12.2698 16.681C12.2698 17.5894 11.5123 18.331 10.5698 18.331H9.42895C8.97812 18.331 8.55312 18.1477 8.24478 17.8394C7.92812 17.5227 7.76228 17.106 7.76228 16.6727C7.76228 15.756 7.01145 15.0144 6.07062 15.0144C5.76145 15.0144 5.46145 15.0977 5.20312 15.2569C4.81145 15.4727 4.34478 15.531 3.91145 15.4227C3.47812 15.306 3.10312 15.0227 2.87812 14.6477L2.34562 13.706C2.09478 13.3152 2.01978 12.8477 2.13728 12.406C2.25312 11.9644 2.55395 11.5894 2.96145 11.3644C3.22062 11.2227 3.43645 11.0144 3.58645 10.756C4.02062 9.9727 3.74478 8.98936 2.96145 8.53103C2.16978 8.08103 1.89478 7.08936 2.34562 6.30603L2.87812 5.37269C3.10312 4.98186 3.47812 4.6977 3.91978 4.58103C4.36228 4.46436 4.82812 4.5302 5.21978 4.75603C5.48645 4.8977 5.77812 4.9727 6.07062 4.9727C6.52062 4.9727 6.95312 4.7977 7.26978 4.48936C7.58645 4.18103 7.76228 3.75603 7.76228 3.3227C7.76228 2.40603 8.51978 1.66436 9.46145 1.66436H10.5948ZM10.9289 7.89853C10.0539 7.53936 9.04478 7.73103 8.36978 8.38936C7.70312 9.03936 7.49478 10.031 7.86145 10.8819C8.22062 11.7394 9.06978 12.2977 10.0198 12.2977H10.0289C10.6539 12.306 11.2373 12.0652 11.6781 11.631C12.1198 11.206 12.3698 10.6227 12.3698 10.0144C12.3781 9.08936 11.8031 8.2477 10.9289 7.89853Z"
        fill="currentColor" />
</svg>