<svg width="2.4rem" height="2.4rem" viewBox="0 0 24 24" fill="none" xmlns="http://www.w3.org/2000/svg">
	<path
		d="M9 13.5C10.3979 13.5 11.5724 14.4561 11.9055 15.75L20.25 15.75C20.6642 15.75 21 16.0858 21 16.5C21 16.8682 20.7347 17.1744 20.3848 17.2379L20.25 17.25L11.9051 17.2515C11.5715 18.5447 10.3973 19.5 9 19.5C7.60267 19.5 6.42847 18.5447 6.09491 17.2515L3.75 17.25C3.33579 17.25 3 16.9142 3 16.5C3 16.1318 3.26531 15.8256 3.61519 15.7621L3.75 15.75L6.09452 15.75C6.42756 14.4561 7.60213 13.5 9 13.5ZM9 15C8.17157 15 7.5 15.6716 7.5 16.5C7.5 17.3284 8.17157 18 9 18C9.82843 18 10.5 17.3284 10.5 16.5C10.5 15.6716 9.82843 15 9 15ZM15 4.5C16.3979 4.5 17.5724 5.45607 17.9055 6.74997L20.25 6.75C20.6642 6.75 21 7.08579 21 7.5C21 7.86819 20.7347 8.17441 20.3848 8.23792L20.25 8.25L17.9051 8.25153C17.5715 9.54468 16.3973 10.5 15 10.5C13.6027 10.5 12.4285 9.54468 12.0949 8.25153L3.75 8.25C3.33579 8.25 3 7.91421 3 7.5C3 7.13181 3.26531 6.82559 3.61519 6.76208L3.75 6.75L12.0945 6.74997C12.4276 5.45607 13.6021 4.5 15 4.5ZM15 6C14.1716 6 13.5 6.67157 13.5 7.5C13.5 8.32843 14.1716 9 15 9C15.8284 9 16.5 8.32843 16.5 7.5C16.5 6.67157 15.8284 6 15 6Z"
		fill="currentColor" />
</svg>