<svg width="2.4rem" height="2.4rem" viewBox="0 0 24 24" fill="none" xmlns="http://www.w3.org/2000/svg">
	<path
		d="M10.1222 8.01363C10.2511 7.66538 10.7437 7.66539 10.8725 8.01363L12.1646 11.5054C12.3064 11.8886 12.6086 12.1908 12.9918 12.3326L16.4836 13.6247C16.8318 13.7535 16.8318 14.2461 16.4836 14.3749L12.9918 15.667C12.6086 15.8088 12.3064 16.111 12.1646 16.4942L10.8725 19.986C10.7437 20.3342 10.2511 20.3342 10.1222 19.986L8.83015 16.4942C8.68835 16.111 8.38621 15.8088 8.00301 15.667L4.51118 14.3749C4.16293 14.2461 4.16294 13.7535 4.51118 13.6247L8.00301 12.3326C8.38621 12.1908 8.68835 11.8886 8.83015 11.5054L10.1222 8.01363Z"
		stroke="currentColor" stroke-width="1.2" stroke-linecap="round" />
	<path
		d="M19.3054 4.74957C19.357 4.54962 19.641 4.54962 19.6926 4.74957L20.1309 6.44567C20.243 6.87934 20.5558 7.2332 20.9724 7.39765L22.0277 7.81417C22.1964 7.88078 22.1964 8.11962 22.0277 8.18623L20.9724 8.60275C20.5558 8.7672 20.243 9.12106 20.1309 9.55473L19.6926 11.2508C19.641 11.4508 19.357 11.4508 19.3054 11.2508L18.8671 9.55473C18.755 9.12106 18.4422 8.7672 18.0256 8.60275L16.9703 8.18623C16.8016 8.11962 16.8016 7.88078 16.9703 7.81417L18.0256 7.39765C18.4422 7.2332 18.755 6.87934 18.8671 6.44567L19.3054 4.74957Z"
		fill="currentColor" />
	<path
		d="M12.1223 2.01362C12.2511 1.66538 12.7437 1.66538 12.8725 2.01362L13.0843 2.58581C13.2261 2.96902 13.5282 3.27115 13.9114 3.41295L14.4836 3.62468C14.8318 3.75354 14.8318 4.2461 14.4836 4.37496L13.9114 4.58669C13.5282 4.72849 13.2261 5.03062 13.0843 5.41383L12.8725 5.98602C12.7437 6.33426 12.2511 6.33426 12.1223 5.98602L11.9105 5.41383C11.7687 5.03062 11.4666 4.72849 11.0834 4.58669L10.5112 4.37496C10.1629 4.2461 10.1629 3.75354 10.5112 3.62468L11.0834 3.41295C11.4666 3.27115 11.7687 2.96902 11.9105 2.58581L12.1223 2.01362Z"
		fill="currentColor" />
</svg>