<svg width="2.4rem" height="2.4rem" viewBox="0 0 20 20" fill="none" xmlns="http://www.w3.org/2000/svg">
	<path
		d="M2.5 5.5L5.61111 7.3L2.5 5.5ZM18.5 14.5L15.3889 12.7L18.5 14.5ZM10.5 10L5.61111 7.3L10.5 10ZM10.5 10L5.61111 12.7L10.5 10ZM10.5 10V3.7V10ZM10.5 10V15.85V10ZM10.5 10L15.3889 12.7L10.5 10ZM10.5 10L15.3889 7.3L10.5 10ZM10.5 1V3.7V1ZM10.5 19V15.85V19ZM18.5 5.5L15.3889 7.3L18.5 5.5ZM2.5 14.5L5.61111 12.7L2.5 14.5ZM5.61111 7.3L2.5 8.2L5.61111 7.3ZM5.61111 7.3L5.16667 4.15L5.61111 7.3ZM5.61111 12.7L2.5 11.8L5.61111 12.7ZM5.61111 12.7L5.16667 15.85L5.61111 12.7ZM10.5 3.7L8.27778 2.8L10.5 3.7ZM10.5 3.7L12.7222 2.8L10.5 3.7ZM10.5 15.85L12.7222 17.2L10.5 15.85ZM10.5 15.85L8.27778 17.2L10.5 15.85ZM15.3889 12.7L15.8333 15.85L15.3889 12.7ZM15.3889 12.7L18.5 11.8L15.3889 12.7ZM15.3889 7.3L18.5 8.2L15.3889 7.3ZM15.3889 7.3L15.8333 4.15L15.3889 7.3Z"
		fill="currentColor" />
	<path
		d="M2.5 5.5L5.61111 7.3M5.61111 7.3L10.5 10M5.61111 7.3L2.5 8.2M5.61111 7.3L5.16667 4.15M18.5 14.5L15.3889 12.7M15.3889 12.7L10.5 10M15.3889 12.7L15.8333 15.85M15.3889 12.7L18.5 11.8M10.5 10L5.61111 12.7M10.5 10V3.7M10.5 10V15.85M10.5 10L15.3889 7.3M5.61111 12.7L2.5 14.5M5.61111 12.7L2.5 11.8M5.61111 12.7L5.16667 15.85M10.5 3.7V1M10.5 3.7L8.27778 2.8M10.5 3.7L12.7222 2.8M10.5 15.85V19M10.5 15.85L12.7222 17.2M10.5 15.85L8.27778 17.2M15.3889 7.3L18.5 5.5M15.3889 7.3L18.5 8.2M15.3889 7.3L15.8333 4.15"
		stroke="currentColor" stroke-linecap="round" stroke-linejoin="round" />
</svg>