<svg width="2.4rem" height="2.4rem" viewBox="0 0 24 24" fill="none" xmlns="http://www.w3.org/2000/svg">
	<path
		d="M14.0316 2.26879C13.2323 1.31704 11.7677 1.31705 10.9684 2.26879L11.7189 2.89899L10.9684 2.26879L7.48489 6.41694C6.39213 7.71818 7.31723 9.70312 9.01646 9.70312H15.9835C17.6828 9.70312 18.6079 7.71819 17.5151 6.41694L14.0316 2.26879Z"
		stroke="currentColor" stroke-width="2" />
	<path
		d="M14.0316 21.7312C13.2323 22.683 11.7677 22.683 10.9684 21.7312L11.7189 21.101L10.9684 21.7312L7.48489 17.5831C6.39213 16.2818 7.31723 14.2969 9.01646 14.2969H15.9835C17.6828 14.2969 18.6079 16.2818 17.5151 17.5831L14.0316 21.7312Z"
		stroke="currentColor" stroke-width="2" />
</svg>