<svg width="24" height="24" viewBox="0 0 24 24" fill="none" xmlns="http://www.w3.org/2000/svg">
	<path
		d="M15.5967 8.52717C15.6728 8.60316 15.7331 8.69339 15.7743 8.79272C15.8155 8.89205 15.8366 8.99851 15.8366 9.10604C15.8366 9.21356 15.8155 9.32003 15.7743 9.41935C15.7331 9.51868 15.6728 9.60891 15.5967 9.6849L13.1569 12.1239L15.3463 14.3125C15.4998 14.4661 15.5861 14.6743 15.5861 14.8914C15.5861 15.1085 15.4998 15.3167 15.3463 15.4703C15.1928 15.6238 14.9846 15.71 14.7675 15.71C14.5503 15.71 14.3421 15.6238 14.1886 15.4703L12 13.2808L9.81132 15.4703C9.65779 15.6238 9.44957 15.71 9.23246 15.71C9.01534 15.71 8.80712 15.6238 8.65359 15.4703C8.50007 15.3167 8.41382 15.1085 8.41382 14.8914C8.41382 14.6743 8.50007 14.4661 8.65359 14.3125L10.843 12.1239L8.40323 9.6849C8.32721 9.60883 8.26692 9.51853 8.2258 9.41916C8.18468 9.31979 8.16354 9.21329 8.16357 9.10575C8.16361 8.9982 8.18483 8.89172 8.22602 8.79238C8.26721 8.69304 8.32757 8.60278 8.40364 8.52676C8.47971 8.45075 8.57001 8.39046 8.66938 8.34934C8.76875 8.30822 8.87525 8.28707 8.98279 8.28711C9.09033 8.28715 9.19681 8.30837 9.29616 8.34956C9.3955 8.39075 9.48576 8.4511 9.56177 8.52717L12 10.9678L14.439 8.52799C14.5149 8.45192 14.6052 8.39157 14.7045 8.3504C14.8038 8.30922 14.9103 8.28803 15.0178 8.28803C15.1253 8.28803 15.2318 8.30922 15.3311 8.3504C15.4305 8.39157 15.5207 8.4511 15.5967 8.52717Z"
		fill="currentColor" stroke-width="0.3" />
	<path fill-rule="evenodd" clip-rule="evenodd"
		d="M5.45455 3C4.80356 3 4.17924 3.2586 3.71892 3.71892C3.2586 4.17924 3 4.80356 3 5.45455V18.5455C3 19.1964 3.2586 19.8208 3.71892 20.2811C4.17924 20.7414 4.80356 21 5.45455 21H18.5455C19.1964 21 19.8208 20.7414 20.2811 20.2811C20.7414 19.8208 21 19.1964 21 18.5455V5.45455C21 4.80356 20.7414 4.17924 20.2811 3.71892C19.8208 3.2586 19.1964 3 18.5455 3H5.45455ZM18.5455 4.63636H5.45455C5.23755 4.63636 5.02944 4.72256 4.876 4.876C4.72256 5.02944 4.63636 5.23755 4.63636 5.45455V18.5455C4.63636 18.7625 4.72256 18.9706 4.876 19.124C5.02944 19.2774 5.23755 19.3636 5.45455 19.3636H18.5455C18.7625 19.3636 18.9706 19.2774 19.124 19.124C19.2774 18.9706 19.3636 18.7625 19.3636 18.5455V5.45455C19.3636 5.23755 19.2774 5.02944 19.124 4.876C18.9706 4.72256 18.7625 4.63636 18.5455 4.63636Z"
		fill="currentColor" stroke-width="0.3" />
</svg>