<svg width="2.4rem" height="2.4rem" viewBox="0 0 24 24" fill="none" xmlns="http://www.w3.org/2000/svg">
	<path
		d="M9.82249 4.58108C9.9192 4.59087 9.98088 4.60065 10.044 4.60205H10.6047C10.6047 4.44548 10.6047 4.2987 10.6047 4.15191C10.5976 4.03868 10.564 3.92684 10.5556 3.81361C10.5262 3.41938 10.6257 3.31034 11.0238 3.30475C11.762 3.29637 12.5007 3.29637 13.2399 3.30475C13.7207 3.30475 13.8749 3.49627 13.8286 3.97158C13.8048 4.20783 13.7922 4.44548 13.7712 4.71249C13.973 4.72647 14.1356 4.73905 14.2996 4.74464C14.3851 4.74464 14.4706 4.73625 14.6024 4.72787C14.6024 4.42032 14.6024 4.13094 14.6024 3.84296C14.5986 3.72871 14.6019 3.61432 14.6122 3.50047C14.6416 3.26421 14.751 3.13979 14.9851 3.13979C15.6088 3.13979 16.2312 3.17474 16.855 3.19571C16.9535 3.1938 17.0496 3.22648 17.1265 3.28807C17.2034 3.34965 17.2561 3.43621 17.2755 3.53262C17.3217 3.72898 17.3387 3.93105 17.3259 4.13234C17.2839 4.83131 17.1858 5.51911 17.253 6.22926C17.28 6.55424 17.2379 6.88124 17.1295 7.18887C17.021 7.4965 16.8487 7.77783 16.6237 8.01445C16.456 8.19348 16.3302 8.40725 16.255 8.64047C16.1799 8.87368 16.1574 9.12057 16.1891 9.36347C16.234 9.85555 16.2186 10.3532 16.2186 10.8495C16.2186 11.2954 16.0938 11.4087 15.6579 11.4185C15.4154 11.4185 15.1743 11.4185 14.9332 11.4185C14.922 11.4185 14.9122 11.4324 14.8505 11.4744L15.6999 17.0885C16.084 17.0228 16.2943 17.2283 16.4975 17.4716C17.0851 18.159 17.5497 18.9421 17.8712 19.7866C17.9855 20.0436 18.0248 20.3275 17.9847 20.6058C17.9357 20.8756 17.8278 20.9776 17.5544 20.9958C17.4535 21.0028 17.3512 20.9958 17.2488 20.9958L6.97558 20.856C6.79615 20.856 6.61814 20.856 6.44012 20.856C6.08127 20.835 5.9411 20.6715 6.0224 20.3346C6.07962 20.0228 6.1806 19.7207 6.32237 19.4371C6.85335 18.4827 7.63059 17.6873 8.57355 17.1333C8.74362 15.2395 8.91603 13.3089 9.09078 11.3416C8.91977 11.3416 8.77119 11.3416 8.62401 11.3416C8.31002 11.3514 8.2161 11.2843 8.16564 10.9683C8.132 10.7554 8.11094 10.5407 8.10257 10.3253C8.08154 9.83038 8.06752 9.33551 8.05771 8.83924C8.05602 8.67832 7.99517 8.52362 7.8867 8.40447C7.41432 7.82293 6.92091 7.23299 6.85082 6.44734C6.79475 5.80429 6.79615 5.15704 6.78074 4.50979C6.77373 4.18127 6.79195 3.85135 6.78074 3.52144C6.77373 3.15517 6.89568 3 7.26153 3C7.92314 3.00839 8.58476 3.03355 9.24638 3.0685C9.58279 3.08527 9.77763 3.31454 9.79025 3.6808C9.80286 3.90867 9.78464 4.13793 9.78464 4.3658C9.79139 4.43846 9.80405 4.51046 9.82249 4.58108ZM15.2906 3.83877C15.2718 3.93389 15.2587 4.03006 15.2514 4.12675C15.243 4.37978 15.2514 4.6342 15.2346 4.88723C15.2121 5.25349 15.0972 5.37651 14.7454 5.37651C14.4398 5.37651 14.1342 5.37651 13.8286 5.37651C13.3548 5.35834 13.0983 5.05918 13.1278 4.59366C13.1404 4.40913 13.1278 4.22321 13.1278 4.03448H11.2551C11.2803 4.28611 11.3153 4.50979 11.3209 4.73346C11.3321 5.1151 11.1808 5.26887 10.8051 5.28285C10.4995 5.29404 10.1939 5.27027 9.88977 5.28984C9.23656 5.33458 9.17769 5.15005 9.11321 4.59087C9.10409 4.41344 9.10409 4.23567 9.11321 4.05825C9.11321 3.97437 9.1048 3.89049 9.09919 3.77866C8.5385 3.78565 8.00024 3.69338 7.41712 3.72274C7.45216 4.54753 7.49422 5.3192 7.51384 6.09087C7.52743 6.47272 7.64678 6.84336 7.85866 7.1617C7.9666 7.33364 8.09696 7.49161 8.20209 7.66496C8.24672 7.74077 8.31209 7.80234 8.39053 7.84245C8.46898 7.88255 8.55726 7.89954 8.64503 7.89143C10.9481 7.92638 13.2497 7.97111 15.5528 8.00746C15.6503 8.00931 15.7449 7.97436 15.8177 7.9096C16.3083 7.36999 16.6461 6.77446 16.6026 5.9986C16.5732 5.47018 16.6433 4.93616 16.6643 4.40494C16.6713 4.25676 16.6643 4.10718 16.6643 3.91706L15.2906 3.83877ZM14.8939 17.0885C14.9248 16.7167 14.1763 11.7078 14.0193 11.3835H9.81407C9.64306 13.3113 9.47486 15.2139 9.30244 17.164L14.8939 17.0885ZM17.2923 20.2829C17.225 20.0857 17.183 19.9418 17.1255 19.8034C16.8698 19.1955 16.5403 18.6213 16.1443 18.0937C16.0797 17.9945 15.9895 17.9147 15.8831 17.8625C15.7768 17.8103 15.6583 17.7878 15.5401 17.7973C13.3161 17.8308 11.091 17.8551 8.86511 17.87C8.68822 17.8696 8.51709 17.9326 8.38291 18.0475C7.84862 18.4811 7.39093 19.0009 7.02884 19.5853C6.92935 19.7662 6.84088 19.9529 6.76391 20.1445L17.2923 20.2829ZM8.82305 10.6202C11.0532 10.609 13.2483 10.739 15.4406 10.6859V8.76934C14.8883 8.66589 9.03331 8.5932 8.73194 8.68686C8.75297 9.31035 8.67447 9.94362 8.82305 10.6202Z"
		fill="currentColor" />
</svg>