<svg width="2.4rem" height="2.4rem" viewBox="0 0 24 24" fill="none" xmlns="http://www.w3.org/2000/svg">
	<path d="M17.155 17.5L16.5 18.5H6.99997L6.84497 17.5L8.15497 10.5L8.99997 9.5H15L15.845 10.5L17.155 17.5Z"
		fill="currentColor" />
	<path d="M17.8149 21H6.18994L6.84494 17.5H17.1549L17.8149 21Z" fill="#0F1527" />
	<path d="M15.845 10.5H8.15503L8.72003 7.5H15.28L15.845 10.5Z" fill="#0F1527" />
	<path
		d="M7.5 19.5H16.5C17.2956 19.5 18.0587 19.8161 18.6213 20.3787C19.1839 20.9413 19.5 21.7044 19.5 22.5H4.5C4.5 21.7044 4.81607 20.9413 5.37868 20.3787C5.94129 19.8161 6.70435 19.5 7.5 19.5ZM8.5 2C8.5 1.86739 8.44732 1.74021 8.35355 1.64645C8.25979 1.55268 8.13261 1.5 8 1.5H6.0765C6.00488 1.5 5.9341 1.51539 5.86895 1.54512C5.80379 1.57485 5.74578 1.61823 5.69885 1.67232C5.65191 1.72641 5.61714 1.78996 5.5969 1.85866C5.57665 1.92735 5.5714 1.9996 5.5815 2.0705L6.1315 5.9245C6.23365 6.63911 6.59004 7.29294 7.1353 7.76601C7.68056 8.23908 8.37812 8.49968 9.1 8.5H14.575C15.2614 8.4999 15.927 8.26442 16.4608 7.83284C16.9946 7.40126 17.3642 6.79968 17.508 6.1285L18.3705 2.105C18.3862 2.03208 18.3853 1.95657 18.368 1.88402C18.3507 1.81147 18.3174 1.7437 18.2705 1.6857C18.2236 1.62769 18.1644 1.58091 18.097 1.54877C18.0297 1.51664 17.9561 1.49998 17.8815 1.5H16C15.8674 1.5 15.7402 1.55268 15.6464 1.64645C15.5527 1.74021 15.5 1.86739 15.5 2V4C15.5 4.13261 15.4473 4.25979 15.3536 4.35355C15.2598 4.44732 15.1326 4.5 15 4.5H14C13.8674 4.5 13.7402 4.44732 13.6464 4.35355C13.5527 4.25979 13.5 4.13261 13.5 4V2C13.5 1.86739 13.4473 1.74021 13.3536 1.64645C13.2598 1.55268 13.1326 1.5 13 1.5H11C10.8674 1.5 10.7402 1.55268 10.6464 1.64645C10.5527 1.74021 10.5 1.86739 10.5 2V4C10.5 4.13261 10.4473 4.25979 10.3536 4.35355C10.2598 4.44732 10.1326 4.5 10 4.5H9C8.86739 4.5 8.74021 4.44732 8.64645 4.35355C8.55268 4.25979 8.5 4.13261 8.5 4V2Z"
		fill="currentColor" />
</svg>