<svg width="2.4rem" height="2.4rem" viewBox="0 0 24 24" fill="none" xmlns="http://www.w3.org/2000/svg">
	<path
		d="M20.25 1.5H3.75C2.5095 1.5 1.5 2.5095 1.5 3.75V14.25C1.5 15.4905 2.5095 16.5 3.75 16.5H20.25C21.4905 16.5 22.5 15.4905 22.5 14.25V3.75C22.5 2.5095 21.4905 1.5 20.25 1.5ZM21 14.25C21 14.664 20.6632 15 20.25 15H3.75C3.33675 15 3 14.664 3 14.25V3.75C3 3.33675 3.33675 3 3.75 3H20.25C20.6632 3 21 3.33675 21 3.75V14.25ZM21.75 19.5H7.362C7.0515 18.6292 6.2265 18 5.25 18C4.2735 18 3.4485 18.6292 3.138 19.5H2.25C1.836 19.5 1.5 19.8353 1.5 20.25C1.5 20.6647 1.836 21 2.25 21H3.138C3.4485 21.8708 4.2735 22.5 5.25 22.5C6.2265 22.5 7.0515 21.8708 7.362 21H21.75C22.164 21 22.5 20.6647 22.5 20.25C22.5 19.8353 22.164 19.5 21.75 19.5ZM5.25 21C4.83675 21 4.5 20.664 4.5 20.25C4.5 19.836 4.83675 19.5 5.25 19.5C5.66325 19.5 6 19.836 6 20.25C6 20.664 5.66325 21 5.25 21Z"
		fill="currentCOlor" />
	<path
		d="M10.4992 12.7925C10.248 12.7925 9.99675 12.7303 9.7695 12.6035C9.29475 12.3388 9 11.837 9 11.2933V6.71077C9 6.16702 9.2955 5.66452 9.7695 5.40052C10.2443 5.13577 10.827 5.14927 11.2882 5.43502L14.9925 7.72627C15.438 8.00227 15.7035 8.47852 15.7035 9.00202C15.7035 9.52552 15.438 10.0018 14.9932 10.2778L11.289 12.5698C11.0482 12.719 10.7738 12.7933 10.5 12.7933L10.4992 12.7925ZM10.4955 6.70777L10.4992 11.2925L14.2035 9.00127L10.4955 6.70777Z"
		fill="currentCOlor" />
</svg>