<svg width="2.4rem" height="2.4rem" viewBox="0 0 24 24" fill="none" xmlns="http://www.w3.org/2000/svg">
	<path
		d="M21.2899 6.26086C21.0799 5.38086 20.6299 4.60086 20.0099 3.99086C19.3999 3.37086 18.6199 2.92086 17.7399 2.71086C13.9899 1.77086 10.0099 1.77086 6.25988 2.71086C4.49988 3.14086 3.13988 4.50086 2.70988 6.26086C1.76988 10.0109 1.76988 13.9909 2.70988 17.7409C3.13988 19.5009 4.49988 20.8609 6.25988 21.2909C8.13988 21.7609 10.0699 22.0009 11.9999 22.0009C13.9299 22.0009 15.8599 21.7609 17.7399 21.2909C19.4999 20.8609 20.8599 19.5009 21.2899 17.7409C22.2299 13.9909 22.2299 10.0109 21.2899 6.26086ZM8.99988 9.00086H12.8299L12.5299 8.65086C12.1699 8.23086 12.2198 7.60086 12.6299 7.24086C13.0499 6.88086 13.6899 6.93086 14.0399 7.35086L15.7599 9.35086C16.0099 9.65086 16.0699 10.0609 15.9099 10.4209C15.7499 10.7709 15.3899 11.0009 14.9999 11.0009H8.99988C8.44988 11.0009 7.99988 10.5509 7.99988 10.0009C7.99988 9.45086 8.44988 9.00086 8.99988 9.00086ZM14.9999 15.0009H11.1699L11.4699 15.3509C11.8299 15.7709 11.78 16.4009 11.3699 16.7609C11.1799 16.9209 10.9499 17.0009 10.7099 17.0009C10.4299 17.0009 10.1499 16.8809 9.95988 16.6509L8.23988 14.6509C7.98988 14.3509 7.92988 13.9409 8.08988 13.5809C8.24988 13.2309 8.60988 13.0009 8.99988 13.0009H14.9999C15.5499 13.0009 15.9999 13.4509 15.9999 14.0009C15.9999 14.5509 15.5499 15.0009 14.9999 15.0009Z"
		fill="currentColor" />
</svg>