<svg width="2.4rem" height="2.4rem" viewBox="0 0 24 24" fill="none" xmlns="http://www.w3.org/2000/svg">
	<path
		d="M18.8906 16.9219H14.2969C13.7532 16.9219 13.3125 17.3625 13.3125 17.9062C13.3125 18.45 13.7532 18.8906 14.2969 18.8906H17.5781V19.5469H12.6562L7.94241 17.3471C7.80525 17.2831 7.65595 17.25 7.50469 17.25H7.45711C6.88519 17.25 6.42188 17.7133 6.42188 18.2852C6.42188 18.6593 6.62367 19.0042 6.9495 19.1876L11.6719 21.8438H22.5V18.2344H20.2031L18.8906 16.9219ZM17.9062 14.9531C18.45 14.9531 18.8906 14.5125 18.8906 13.9688C18.8906 13.425 18.45 12.9844 17.9062 12.9844H11.5797C11.2463 13.385 10.7443 13.6406 10.1835 13.6406C9.6982 13.6406 9.24211 13.4516 8.89922 13.1087L7.27041 11.4796L7.73438 11.0156L9.36319 12.6444C9.58073 12.862 9.87572 12.9844 10.1835 12.9844C10.8243 12.9844 11.3438 12.465 11.3438 11.8241C11.3438 11.5163 11.2217 11.2214 11.0038 11.0038L8.71875 8.71875H4.125V8.39062H1.5V13.3125H4.125V12.9844H4.78125L8.0625 14.9531H17.9062Z"
		fill="currentColor" />
	<path
		d="M16.2466 12.3281C17.8393 11.2703 18.8906 9.46163 18.8906 7.40625C18.8906 4.14436 16.2463 1.5 12.9844 1.5C9.72248 1.5 7.07812 4.14436 7.07812 7.40625C7.07812 7.62839 7.09289 7.84692 7.11652 8.0625H8.99044L11.4681 10.5402C11.8113 10.8831 12 11.3392 12 11.8245C12 11.999 11.9754 12.1683 11.9288 12.3281H16.2466ZM10.3594 8.71875V6.09375L12.9844 4.45312L15.6094 6.09375V8.71875L12.9844 10.3594L10.3594 8.71875Z"
		fill="currentColor" />
</svg>