<svg width="2.4rem" height="2.4rem" viewBox="0 0 24 24" fill="none" xmlns="http://www.w3.org/2000/svg">
	<path
		d="M5.11111 19.7778C5.11111 21 6.11111 22 7.33333 22H16.2222C17.4444 22 18.4444 21 18.4444 19.7778V8.66667C18.4444 7.44444 17.4444 6.44444 16.2222 6.44444H7.33333C6.11111 6.44444 5.11111 7.44444 5.11111 8.66667V19.7778ZM18.4444 3.11111H15.6667L14.8778 2.32222C14.6778 2.12222 14.3889 2 14.1 2H9.45555C9.16667 2 8.87778 2.12222 8.67778 2.32222L7.88889 3.11111H5.11111C4.5 3.11111 4 3.61111 4 4.22222C4 4.83333 4.5 5.33333 5.11111 5.33333H18.4444C19.0556 5.33333 19.5556 4.83333 19.5556 4.22222C19.5556 3.61111 19.0556 3.11111 18.4444 3.11111Z"
		fill="currentColor" />
</svg>