<svg width="2.4rem" height="2.4rem" viewBox="0 0 24 24" fill="none" xmlns="http://www.w3.org/2000/svg">
	<path
		d="M3 9.33333C3 6.81917 3 5.5621 3.79081 4.78105C4.58162 4 5.85441 4 8.4 4H15.6C18.1456 4 19.4183 4 20.2092 4.78105C21 5.5621 21 6.81917 21 9.33333V10.2222C21 12.7364 21 13.9934 20.2092 14.7745C19.4183 15.5556 18.1456 15.5556 15.6 15.5556H8.4C5.85441 15.5556 4.58162 15.5556 3.79081 14.7745C3 13.9934 3 12.7364 3 10.2222V9.33333Z"
		stroke="currentColor" />
	<path d="M12.0016 18.2222V16M12.0016 18.2222L17.4016 20M12.0016 18.2222L6.60156 20" stroke="currentColor"
		stroke-linecap="round" />
	<path d="M7.67969 12.1686L10.3735 8.71076L13.4463 11.0947L16.0825 7.73438" stroke="currentColor"
		stroke-linecap="round" stroke-linejoin="round" />
</svg>