<svg width="2.4rem" height="2.4rem" viewBox="0 0 20 20" fill="none" xmlns="http://www.w3.org/2000/svg">
	<path
		d="M10 3C8.86336 3 7.77327 3.46094 6.96954 4.28141C6.16582 5.10188 5.71429 6.21468 5.71429 7.375V9.125C5.25963 9.125 4.82359 9.30937 4.5021 9.63756C4.18061 9.96575 4 10.4109 4 10.875V15.25C4 15.7141 4.18061 16.1592 4.5021 16.4874C4.82359 16.8156 5.25963 17 5.71429 17H14.2857C14.7404 17 15.1764 16.8156 15.4979 16.4874C15.8194 16.1592 16 15.7141 16 15.25V10.875C16 10.4109 15.8194 9.96575 15.4979 9.63756C15.1764 9.30937 14.7404 9.125 14.2857 9.125H7.42857V7.375C7.42754 6.73534 7.65535 6.11731 8.06919 5.63701C8.48304 5.1567 9.05444 4.84719 9.67605 4.76661C10.2977 4.68602 10.9267 4.83992 11.445 5.19938C11.9633 5.55884 12.3352 6.09913 12.4909 6.71875C12.5516 6.93894 12.6944 7.12609 12.8887 7.2401C13.083 7.35411 13.3133 7.38592 13.5302 7.32872C13.7472 7.27151 13.9336 7.12985 14.0495 6.93406C14.1654 6.73827 14.2016 6.50394 14.1503 6.28125C13.9125 5.34217 13.3758 4.51034 12.6246 3.91642C11.8734 3.3225 10.9502 3.00015 10 3Z"
		fill="currentColor" />
</svg>