<svg width="2.4rem" height="2.4rem" viewBox="0 0 18 18" fill="none" xmlns="http://www.w3.org/2000/svg">
	<path d="M9 1C4.5816 1 1 4.5816 1 9C1 13.4184 4.5816 17 9 17C13.4184 17 17 13.4184 17 9C17 4.5816 13.4184 1 9 1Z"
		stroke="currentColor" stroke-width="1.2" stroke-linecap="round" stroke-linejoin="round" />
	<path
		d="M2.81689 14.077C2.81689 14.077 4.60009 11.8002 9.00009 11.8002C13.4001 11.8002 15.1841 14.077 15.1841 14.077M9.00009 9.0002C9.63661 9.0002 10.2471 8.74734 10.6972 8.29725C11.1472 7.84716 11.4001 7.23671 11.4001 6.6002C11.4001 5.96368 11.1472 5.35323 10.6972 4.90314C10.2471 4.45305 9.63661 4.2002 9.00009 4.2002C8.36357 4.2002 7.75313 4.45305 7.30304 4.90314C6.85295 5.35323 6.60009 5.96368 6.60009 6.6002C6.60009 7.23671 6.85295 7.84716 7.30304 8.29725C7.75313 8.74734 8.36357 9.0002 9.00009 9.0002Z"
		stroke="currentColor" stroke-width="1.2" stroke-linecap="round" stroke-linejoin="round" />
</svg>