<svg width="2.4rem" height="2.4rem" viewBox="0 0 24 24" fill="none" xmlns="http://www.w3.org/2000/svg">
	<path opacity="0.2"
		d="M17.4954 11.2268C17.7235 12.2731 18.6333 13.0092 19.672 12.9901H23.2173C23.6495 12.9901 24 12.6292 24 12.1831V9.39839C23.9991 8.95326 23.6495 8.59141 23.2173 8.59045H19.5885C18.407 8.59428 17.4527 9.58315 17.4546 10.8018C17.4546 10.9444 17.4685 11.087 17.4954 11.2268Z"
		fill="currentColor" />
	<path
		d="M19.6363 11.8904C20.2388 11.8904 20.7272 11.3979 20.7272 10.7904C20.7272 10.1829 20.2388 9.6904 19.6363 9.6904C19.0338 9.6904 18.5454 10.1829 18.5454 10.7904C18.5454 11.3979 19.0338 11.8904 19.6363 11.8904Z"
		fill="currentColor" />
	<path fill-rule="evenodd" clip-rule="evenodd"
		d="M23.9984 6.87164C23.9984 3.17648 21.7768 1 18.0173 1H8.16614C4.40566 1 2.18408 3.17648 2.18408 6.87164V10.924C3.28623 10.2125 4.59648 9.80002 6.00229 9.80002C9.91849 9.80002 13.0932 13.0012 13.0932 16.95C13.0932 18.3675 12.6841 19.6887 11.9785 20.8H18.0212C21.7807 20.8 24.0023 18.6149 24.0023 14.9198V14.5832H19.3787C17.2241 14.5804 15.4806 12.8606 15.4835 10.7422C15.4874 8.62866 17.2289 6.91645 19.3787 6.91264H23.9984V6.87164ZM7.35451 5.26239H13.5111C13.9717 5.26049 14.348 5.62658 14.3499 6.07942C14.3518 6.53321 13.9795 6.90215 13.5189 6.90406H7.35451C6.8939 6.90215 6.52154 6.53321 6.52347 6.08037C6.52541 5.62944 6.89681 5.26431 7.35451 5.26239Z"
		fill="currentColor" />
	<ellipse opacity="0.2" cx="6" cy="16.9" rx="6" ry="6" fill="currentColor" />
	<path d="M6.07617 14.1991V19.8562" stroke="currentColor" stroke-linecap="round" stroke-linejoin="round" />
	<path d="M3.27197 17.0264H8.88236" stroke="currentColor" stroke-linecap="round" stroke-linejoin="round" />
</svg>