<svg width="2.4rem" height="2.4rem" viewBox="0 0 24 24" fill="none" xmlns="http://www.w3.org/2000/svg">
	<path fill-rule="evenodd" clip-rule="evenodd"
		d="M19 6.25C19.7293 6.25 20.4288 6.53973 20.9445 7.05546C21.4603 7.57118 21.75 8.27065 21.75 9V18C21.75 18.7293 21.4603 19.4288 20.9445 19.9445C20.4288 20.4603 19.7293 20.75 19 20.75H5C4.27065 20.75 3.57118 20.4603 3.05546 19.9445C2.53973 19.4288 2.25 18.7293 2.25 18V9C2.25 8.27065 2.53973 7.57118 3.05546 7.05546C3.57118 6.53973 4.27065 6.25 5 6.25H19ZM7.5 12.25C7.83152 12.25 8.14946 12.3817 8.38388 12.6161C8.6183 12.8505 8.75 13.1685 8.75 13.5C8.75 13.8315 8.6183 14.1495 8.38388 14.3839C8.14946 14.6183 7.83152 14.75 7.5 14.75C7.16848 14.75 6.85054 14.6183 6.61612 14.3839C6.38169 14.1495 6.25 13.8315 6.25 13.5C6.25 13.1685 6.38169 12.8505 6.61612 12.6161C6.85054 12.3817 7.16848 12.25 7.5 12.25Z"
		fill="currentColor" />
	<path
		d="M7.515 3.0694C7.21892 2.9905 6.90867 2.98068 6.60819 3.04071C6.30772 3.10073 6.02505 3.229 5.78201 3.4156C5.53897 3.60221 5.34206 3.84216 5.20647 4.11694C5.07088 4.39172 5.00024 4.69398 5 5.0004H15L7.515 3.0694Z"
		opacity="0.5" fill="currentColor" />
</svg>