<svg width="24" height="22" viewBox="0 0 24 22" fill="none" xmlns="http://www.w3.org/2000/svg">
	<path opacity="0.2"
		d="M17.4954 10.2331C17.7235 11.2708 18.6333 12.0009 19.672 11.9819H23.2173C23.6495 11.9819 24 11.624 24 11.1816V8.41985C23.9991 7.9784 23.6495 7.61954 23.2173 7.61859H19.5885C18.407 7.62239 17.4527 8.60308 17.4546 9.81162C17.4546 9.95308 17.4685 10.0945 17.4954 10.2331Z"
		fill="currentColor" />
	<path
		d="M19.6363 10.8913C20.2388 10.8913 20.7272 10.4029 20.7272 9.80038C20.7272 9.19789 20.2388 8.70947 19.6363 8.70947C19.0338 8.70947 18.5454 9.19789 18.5454 9.80038C18.5454 10.4029 19.0338 10.8913 19.6363 10.8913Z"
		fill="currentColor" />
	<path fill-rule="evenodd" clip-rule="evenodd"
		d="M23.9984 5.914C23.9984 2.24938 21.7768 0.0908813 18.0173 0.0908813H8.16614C4.40566 0.0908813 2.18408 2.24938 2.18408 5.914V9.93286C3.28623 9.22724 4.59647 8.81815 6.00226 8.81815C9.91846 8.81815 13.0932 11.9929 13.0932 15.9091C13.0932 17.3149 12.6841 18.6251 11.9785 19.7272H18.0212C21.7807 19.7272 24.0023 17.5602 24.0023 13.8956V13.5619H19.3787C17.2241 13.559 15.4806 11.8534 15.4835 9.75259C15.4874 7.65649 17.2289 5.95844 19.3787 5.95466H23.9984V5.914ZM7.35451 4.31805H13.5111C13.9717 4.31616 14.348 4.67922 14.3499 5.12832C14.3518 5.57836 13.9795 5.94425 13.5189 5.94615H7.35451C6.8939 5.94425 6.52154 5.57836 6.52347 5.12926C6.52541 4.68206 6.89681 4.31995 7.35451 4.31805Z"
		fill="currentColor" />
	<circle opacity="0.2" cx="6" cy="15.9091" r="6" fill="currentColor" />
	<path d="M6.07617 13.1809V18.7913" stroke="currentColor" stroke-linecap="round" stroke-linejoin="round" />
	<path d="M3.27197 15.9849H8.88236" stroke="currentColor" stroke-linecap="round" stroke-linejoin="round" />
</svg>