<svg width="2.4rem" height="2.4rem" viewBox="0 0 24 24" fill="none" xmlns="http://www.w3.org/2000/svg">
	<path
		d="M16.1658 23.9262L12.375 22.4009C12.1344 22.3041 11.8656 22.3041 11.625 22.4009L7.83469 23.9262C7.68196 23.9876 7.51649 24.0106 7.35279 23.9932C7.18909 23.9758 7.03216 23.9185 6.89576 23.8263C6.75936 23.7341 6.64765 23.6099 6.57043 23.4645C6.4932 23.3192 6.45282 23.157 6.45282 22.9924V8.77148H17.5481V22.9924C17.5482 23.1571 17.5078 23.3193 17.4305 23.4647C17.3533 23.6102 17.2415 23.7344 17.1051 23.8266C16.9686 23.9188 16.8116 23.9761 16.6478 23.9934C16.4841 24.0108 16.3185 23.9877 16.1658 23.9262Z"
		fill="currentColor" />
	<path
		d="M4.40171 12.8744L4.40187 12.8748C4.60097 13.356 4.70507 13.9216 4.79705 14.4213C4.82401 14.5677 4.84992 14.7085 4.87688 14.8399C5.00659 15.4718 5.16414 15.9419 5.47512 16.2529C5.78591 16.5636 6.25552 16.7206 6.88757 16.8499C7.01772 16.8766 7.15712 16.9022 7.30212 16.9288C7.80293 17.0208 8.37044 17.1251 8.85353 17.326M4.40171 12.8744L15.147 17.3258C14.6856 17.5169 14.2252 17.8387 13.8164 18.1244C13.6899 18.2128 13.5683 18.2978 13.4532 18.3743C12.9205 18.7286 12.4658 18.9555 12 18.9555C11.5344 18.9555 11.0798 18.7283 10.547 18.3737C10.4325 18.2975 10.3116 18.213 10.1858 18.1251C9.77677 17.8392 9.31574 17.5169 8.85353 17.326M4.40171 12.8744C4.21069 12.4137 3.8891 11.9536 3.60356 11.5451C3.51497 11.4183 3.42985 11.2965 3.35318 11.1813C2.99895 10.6486 2.77203 10.1938 2.77203 9.72797C2.77203 9.26232 2.9992 8.8078 3.3538 8.27493C3.42998 8.16045 3.51447 8.03958 3.6024 7.91379C3.88826 7.50483 4.21043 7.04393 4.40138 6.58184C4.60244 6.09931 4.70675 5.53159 4.79883 5.03052C4.82544 4.88567 4.85104 4.74639 4.87765 4.61635C5.00707 3.98386 5.16412 3.51361 5.47512 3.20262C5.78626 2.89148 6.25607 2.73425 6.88784 2.60483C7.01866 2.57803 7.15885 2.55227 7.30467 2.52547C7.80458 2.43361 8.37072 2.32958 8.85268 2.12985C9.31517 1.93895 9.77652 1.61647 10.1858 1.33036C10.3116 1.24244 10.4325 1.15795 10.547 1.08177C11.0798 0.727171 11.5344 0.5 12 0.5C12.4656 0.5 12.9202 0.727171 13.453 1.08177C13.5675 1.15795 13.6884 1.24244 13.8142 1.33036C14.2231 1.61622 14.684 1.9384 15.1461 2.12935C15.6288 2.33045 16.1966 2.43476 16.6977 2.52682C16.8425 2.55341 16.9816 2.57898 17.1116 2.60556C17.7441 2.73494 18.2142 2.89189 18.5249 3.20262C18.8359 3.51363 18.9934 3.98367 19.1235 4.6158C19.1503 4.74638 19.1762 4.88625 19.203 5.03173C19.2955 5.53202 19.4001 6.09856 19.6006 6.58085C19.7911 7.04238 20.1127 7.5031 20.3981 7.91203C20.4862 8.03815 20.5707 8.15933 20.647 8.2741C21.001 8.8069 21.228 9.26181 21.228 9.72797C21.228 10.1936 21.0008 10.6481 20.6462 11.1809C20.57 11.2955 20.4854 11.4164 20.3975 11.5423C20.1116 11.9512 19.7894 12.412 19.5985 12.874C19.3976 13.357 19.2934 13.9244 19.2013 14.4251C19.1747 14.5702 19.149 14.7097 19.1224 14.84C18.993 15.472 18.8359 15.9418 18.5249 16.2529C18.2137 16.564 17.7439 16.7212 17.1122 16.8506C16.9813 16.8774 16.8412 16.9032 16.6953 16.93C16.1953 17.0219 15.6291 17.1259 15.1471 17.3257L4.40171 12.8744ZM8.85353 17.326L8.66156 17.7877L8.85226 17.3254C8.85268 17.3256 8.85311 17.3258 8.85353 17.326Z"
		fill="currentColor" stroke="#0F1527" />
	<path
		d="M12 16.1638C15.5547 16.1638 18.4364 13.2822 18.4364 9.72742C18.4364 6.17269 15.5547 3.29102 12 3.29102C8.44528 3.29102 5.5636 6.17269 5.5636 9.72742C5.5636 13.2822 8.44528 16.1638 12 16.1638Z"
		fill="currentColor" />
	<path
		d="M13.891 6.97656C12.8696 6.97656 12.3516 7.47156 12 8.00359C11.6485 7.47203 11.1305 6.97656 10.1091 6.97656C8.94565 6.97656 8.22284 7.74766 8.22284 8.98891C8.22284 11.4325 11.7952 13.1852 11.9471 13.2583C11.9636 13.2662 11.9817 13.2704 12 13.2705C12.0184 13.2706 12.0365 13.2665 12.053 13.2583C12.2049 13.1852 15.7772 11.4302 15.7772 8.98891C15.7772 7.74766 15.0544 6.97656 13.891 6.97656Z"
		fill="#0F1527" />
</svg>