<svg width="2.4rem" height="2.4rem" viewBox="0 0 24 24" fill="none" xmlns="http://www.w3.org/2000/svg">
	<path
		d="M12 4C14.1217 4 16.1566 4.84285 17.6569 6.34315C19.1571 7.84344 20 9.87827 20 12C20 14.1217 19.1571 16.1566 17.6569 17.6569C16.1566 19.1571 14.1217 20 12 20C9.87827 20 7.84344 19.1571 6.34315 17.6569C4.84285 16.1566 4 14.1217 4 12C4 9.87827 4.84285 7.84344 6.34315 6.34315C7.84344 4.84285 9.87827 4 12 4ZM12 11.0297L10.1417 9.17143C10.013 9.04276 9.83854 8.97048 9.65657 8.97048C9.47461 8.97048 9.3001 9.04276 9.17143 9.17143C9.04276 9.3001 8.97048 9.47461 8.97048 9.65657C8.97048 9.83854 9.04276 10.013 9.17143 10.1417L11.0297 12L9.17143 13.8583C9.10772 13.922 9.05718 13.9976 9.0227 14.0809C8.98822 14.1641 8.97048 14.2533 8.97048 14.3434C8.97048 14.4335 8.98822 14.5227 9.0227 14.606C9.05718 14.6892 9.10772 14.7649 9.17143 14.8286C9.23514 14.8923 9.31077 14.9428 9.39401 14.9773C9.47726 15.0118 9.56647 15.0295 9.65657 15.0295C9.74667 15.0295 9.83589 15.0118 9.91913 14.9773C10.0024 14.9428 10.078 14.8923 10.1417 14.8286L12 12.9703L13.8583 14.8286C13.922 14.8923 13.9976 14.9428 14.0809 14.9773C14.1641 15.0118 14.2533 15.0295 14.3434 15.0295C14.4335 15.0295 14.5227 15.0118 14.606 14.9773C14.6892 14.9428 14.7649 14.8923 14.8286 14.8286C14.8923 14.7649 14.9428 14.6892 14.9773 14.606C15.0118 14.5227 15.0295 14.4335 15.0295 14.3434C15.0295 14.2533 15.0118 14.1641 14.9773 14.0809C14.9428 13.9976 14.8923 13.922 14.8286 13.8583L12.9703 12L14.8286 10.1417C14.8923 10.078 14.9428 10.0024 14.9773 9.91913C15.0118 9.83589 15.0295 9.74667 15.0295 9.65657C15.0295 9.56647 15.0118 9.47726 14.9773 9.39401C14.9428 9.31077 14.8923 9.23514 14.8286 9.17143C14.7649 9.10772 14.6892 9.05718 14.606 9.0227C14.5227 8.98822 14.4335 8.97048 14.3434 8.97048C14.2533 8.97048 14.1641 8.98822 14.0809 9.0227C13.9976 9.05718 13.922 9.10772 13.8583 9.17143L12 11.0297Z"
		fill="currentColor" />
</svg>