<svg width="2.4rem" height="2.4rem" viewBox="0 0 20 20" fill="none" xmlns="http://www.w3.org/2000/svg">
	<path
		d="M5.18773 4.0097C4.86229 3.68427 4.33465 3.68427 4.00921 4.0097C3.68378 4.33514 3.68378 4.86277 4.00921 5.18822L8.82148 10.0005L4.00926 14.8127C3.68383 15.1381 3.68383 15.6658 4.00926 15.9912C4.3347 16.3166 4.86234 16.3166 5.18777 15.9912L9.99998 11.179L14.8122 15.9912C15.1376 16.3166 15.6653 16.3166 15.9907 15.9912C16.3161 15.6658 16.3161 15.1381 15.9907 14.8127L11.1785 10.0005L15.9908 5.18822C16.3162 4.86277 16.3162 4.33514 15.9908 4.0097C15.6654 3.68427 15.1377 3.68427 14.8123 4.0097L9.99998 8.82197L5.18773 4.0097Z"
		fill="currentColor" />
</svg>