<svg width="2.4rem" height="2.4rem" viewBox="0 0 27 27" fill="none" xmlns="http://www.w3.org/2000/svg">
	<path fill-rule="evenodd" clip-rule="evenodd"
		d="M13.5 9.28125C11.17 9.28125 9.28125 11.17 9.28125 13.5C9.28125 15.83 11.17 17.7187 13.5 17.7187C15.83 17.7187 17.7187 15.83 17.7187 13.5C17.7187 11.17 15.83 9.28125 13.5 9.28125ZM10.9687 13.5C10.9687 12.1021 12.1021 10.9687 13.5 10.9687C14.8979 10.9687 16.0312 12.1021 16.0312 13.5C16.0312 14.8979 14.8979 16.0312 13.5 16.0312C12.1021 16.0312 10.9687 14.8979 10.9687 13.5Z"
		fill="currentColor" />
	<path fill-rule="evenodd" clip-rule="evenodd"
		d="M13.5 1.40625C12.7073 1.40625 11.9834 1.62404 11.1922 1.99167C10.4266 2.34738 9.54044 2.87217 8.43139 3.52896L7.58416 4.03068C6.47475 4.68767 5.58867 5.21239 4.90586 5.71437C4.19979 6.23343 3.65824 6.76475 3.26626 7.46113C2.87492 8.15641 2.69821 8.89982 2.61344 9.78194C2.53124 10.6373 2.53124 11.6848 2.53125 13.0005V13.9995C2.53124 15.3152 2.53124 16.3627 2.61344 17.218C2.69821 18.1002 2.87492 18.8436 3.26626 19.5389C3.65824 20.2353 4.19979 20.7666 4.90586 21.2857C5.58867 21.7876 6.47475 22.3123 7.58416 22.9693L8.43142 23.4711C9.54043 24.1279 10.4266 24.6527 11.1922 25.0083C11.9834 25.3759 12.7073 25.5937 13.5 25.5937C14.2927 25.5937 15.0166 25.3759 15.8078 25.0083C16.5734 24.6526 17.4595 24.1279 18.5686 23.4711L19.4158 22.9693C20.5252 22.3123 21.4113 21.7876 22.0941 21.2857C22.8003 20.7666 23.3417 20.2353 23.7338 19.5389C24.1251 18.8436 24.3018 18.1002 24.3865 17.218C24.4688 16.3627 24.4688 15.3152 24.4688 13.9996V13.0005C24.4688 11.6849 24.4688 10.6373 24.3865 9.78194C24.3018 8.89982 24.1251 8.15641 23.7338 7.46113C23.3417 6.76475 22.8003 6.23343 22.0941 5.71437C21.4113 5.21239 20.5253 4.68768 19.4158 4.03071L18.5686 3.52896C17.4595 2.87216 16.5734 2.34738 15.8078 1.99167C15.0166 1.62404 14.2927 1.40625 13.5 1.40625ZM9.25339 5.00337C10.4089 4.31907 11.2231 3.83806 11.9033 3.52203C12.5665 3.21385 13.0395 3.09375 13.5 3.09375C13.9605 3.09375 14.4335 3.21385 15.0967 3.52203C15.7769 3.83806 16.5911 4.31907 17.7467 5.00337L18.5185 5.46051C19.6739 6.14472 20.4873 6.62754 21.0946 7.074C21.6863 7.509 22.0286 7.87214 22.2632 8.28886C22.4984 8.7067 22.6349 9.19564 22.7068 9.94337C22.7803 10.7087 22.7812 11.6752 22.7812 13.0429V13.9571C22.7812 15.3247 22.7803 16.2913 22.7068 17.0566C22.6349 17.8044 22.4984 18.2933 22.2632 18.7111C22.0286 19.1278 21.6863 19.491 21.0946 19.926C20.4873 20.3725 19.6739 20.8552 18.5185 21.5395L17.7467 21.9967C16.5911 22.6809 15.7769 23.1619 15.0967 23.478C14.4335 23.7861 13.9605 23.9062 13.5 23.9062C13.0395 23.9062 12.5665 23.7861 11.9033 23.478C11.2231 23.1619 10.4089 22.6809 9.25339 21.9967L8.48148 21.5395C7.32611 20.8552 6.51269 20.3725 5.90538 19.926C5.31367 19.491 4.97137 19.1278 4.73681 18.7111C4.50163 18.2933 4.36506 17.8044 4.2932 17.0566C4.21965 16.2913 4.21875 15.3247 4.21875 13.9571V13.0429C4.21875 11.6752 4.21965 10.7087 4.2932 9.94337C4.36506 9.19564 4.50163 8.7067 4.73681 8.28886C4.97137 7.87214 5.31367 7.509 5.90538 7.074C6.51269 6.62754 7.32611 6.14472 8.48148 5.46051L9.25339 5.00337Z"
		fill="currentColor" />
</svg>